<?xml version="1.0" encoding="utf-8"?>
<!-- Generator: Adobe Illustrator 26.0.0, SVG Export Plug-In . SVG Version: 6.00 Build 0)  -->
<svg version="1.1" id="Layer_1" xmlns="http://www.w3.org/2000/svg" xmlns:xlink="http://www.w3.org/1999/xlink" x="0px" y="0px"
	 viewBox="0 0 1280 673" style="enable-background:new 0 0 1280 673;" xml:space="preserve">
<style type="text/css">
	.st0{fill:#FDF9E9;}
	.st1{fill:#F2F2F2;}
	.st2{clip-path:url(#XMLID_00000143614858924601221910000002860242984696806051_);fill:#4D4D4D;}
	.st3{clip-path:url(#XMLID_00000143614858924601221910000002860242984696806051_);fill:#1C056D;}
	.st4{clip-path:url(#XMLID_00000143614858924601221910000002860242984696806051_);fill:#808080;}
	.st5{fill:#FFFFFF;}
	.st6{clip-path:url(#XMLID_00000179625339198619397650000011175439717467840948_);fill:#E57492;}
	.st7{fill:#E57492;}
	.st8{fill:#333333;}
	.st9{clip-path:url(#XMLID_00000112625864407749030920000007072146708976961470_);fill:#E57492;}
	.st10{fill:#CEA966;}
	.st11{fill:#A67C52;}
	.st12{fill:#FE8E9C;}
	.st13{opacity:0.28;fill:#999999;}
	.st14{fill:#999999;}
	.st15{fill:#CCCCCC;}
	.st16{clip-path:url(#XMLID_00000059268705406535191400000013516390808025039289_);fill:#FFFFFF;}
	.st17{opacity:0.36;clip-path:url(#XMLID_00000059268705406535191400000013516390808025039289_);fill:#8C6239;}
	.st18{clip-path:url(#XMLID_00000067940426669041781710000000355619411811453065_);fill:#FFFFFF;}
	.st19{opacity:0.24;clip-path:url(#XMLID_00000041276429918814170120000002577401556317439153_);fill:#1C056D;}
	.st20{clip-path:url(#XMLID_00000073694521237844609800000007262840012533697215_);fill:#E57492;}
	.st21{opacity:0.3;clip-path:url(#XMLID_00000065068032103690892730000013972847789236287926_);fill:#333333;}
	.st22{clip-path:url(#XMLID_00000116194276269377959230000010093872610310362518_);fill:#E57492;}
	.st23{clip-path:url(#XMLID_00000156554327357437814570000000518942704326566790_);fill:#E57492;}
	.st24{opacity:0.46;fill:#999999;}
</style>
<rect x="0.3" y="0" class="st0" width="1279.4" height="673"/>
<g>
	<path class="st1" d="M632.7,70.5c-37.7-9.3-75.9-15.9-114.2-18.7C422.9,44.7,315.8,79.6,263.7,165
		C190.5,285,247.2,461.8,370.6,523.8c49.4,24.8,105.5,31.9,160.2,29.4c56.6-2.6,108.9-19.6,164.4-28.2
		c93.7-14.5,191.2,19.6,283.4-2.6c44.9-10.8,76.2-41.3,86.3-86.9c17.4-78-7.3-166.6-71.1-216.8c-28.6-22.5-61.8-38.1-95-52.7
		C812.9,128.2,724,92.9,632.7,70.5z"/>
	<g>
		<g>
			<g>
				<defs>
					<path id="XMLID_165_" d="M727.4,449.9c0,0-10.4,52.8-10.4,70s5.2,99.5,5.2,99.5h68.6l7.3-75.6l7.6,75.6h65.7
						c0,0,0-88.9-0.3-96.3c-1.2-26.3-17.2-77.3-17.2-77.3L727.4,449.9z"/>
				</defs>
				<use xlink:href="#XMLID_165_"  style="overflow:visible;fill:#333333;"/>
				<clipPath id="XMLID_00000083788497619503590360000010108337428228572811_">
					<use xlink:href="#XMLID_165_"  style="overflow:visible;"/>
				</clipPath>
				<path style="clip-path:url(#XMLID_00000083788497619503590360000010108337428228572811_);fill:#4D4D4D;" d="M799.2,454.7
					l-1.1,89.2c0,0,10.9-5.9,12.2-11.2s2.9-80.6,2.9-80.6L799.2,454.7z"/>
				<path style="clip-path:url(#XMLID_00000083788497619503590360000010108337428228572811_);fill:#1C056D;" d="M869.6,470.4H713.2
					c-0.3,0-0.5-0.2-0.5-0.5s0.2-0.5,0.5-0.5h156.4c0.3,0,0.5,0.2,0.5,0.5S869.9,470.4,869.6,470.4z"/>
				<path style="clip-path:url(#XMLID_00000083788497619503590360000010108337428228572811_);fill:#808080;" d="M753.4,620
					C753.4,620,753.4,620,753.4,620c-0.3,0-0.5-0.3-0.5-0.6l0.1-1.7c0-0.3,0.3-0.5,0.6-0.5c0.3,0,0.5,0.3,0.5,0.6l-0.1,1.7
					C753.9,619.8,753.7,620,753.4,620z M753.7,616.6C753.7,616.6,753.7,616.6,753.7,616.6c-0.3,0-0.5-0.3-0.5-0.6l0.1-1.7
					c0-0.3,0.3-0.5,0.6-0.5c0.3,0,0.5,0.3,0.5,0.6l-0.1,1.7C754.2,616.4,754,616.6,753.7,616.6z M754,613.1
					C754,613.1,754,613.1,754,613.1c-0.3,0-0.5-0.3-0.5-0.6l0.1-1.7c0-0.3,0.3-0.5,0.6-0.5c0.3,0,0.5,0.3,0.5,0.6l-0.1,1.7
					C754.5,612.9,754.3,613.1,754,613.1z M754.3,609.7C754.3,609.7,754.3,609.7,754.3,609.7c-0.3,0-0.5-0.3-0.5-0.6l0.1-1.7
					c0-0.3,0.3-0.5,0.6-0.5c0.3,0,0.5,0.3,0.5,0.6l-0.1,1.7C754.8,609.5,754.6,609.7,754.3,609.7z M754.6,606.3
					C754.6,606.3,754.5,606.3,754.6,606.3c-0.3,0-0.5-0.3-0.5-0.6l0.1-1.7c0-0.3,0.3-0.5,0.6-0.5c0.3,0,0.5,0.3,0.5,0.6l-0.1,1.7
					C755.1,606.1,754.8,606.3,754.6,606.3z M754.9,602.8C754.9,602.8,754.8,602.8,754.9,602.8c-0.3,0-0.5-0.3-0.5-0.6l0.1-1.7
					c0-0.3,0.3-0.5,0.6-0.5c0.3,0,0.5,0.3,0.5,0.6l-0.1,1.7C755.4,602.6,755.1,602.8,754.9,602.8z M755.2,599.4
					C755.1,599.4,755.1,599.4,755.2,599.4c-0.3,0-0.5-0.3-0.5-0.6l0.1-1.7c0-0.3,0.3-0.5,0.6-0.5c0.3,0,0.5,0.3,0.5,0.6l-0.1,1.7
					C755.7,599.2,755.4,599.4,755.2,599.4z M755.4,596C755.4,596,755.4,596,755.4,596c-0.3,0-0.5-0.3-0.5-0.6l0.1-1.7
					c0-0.3,0.3-0.5,0.6-0.5c0.3,0,0.5,0.3,0.5,0.6l-0.1,1.7C755.9,595.8,755.7,596,755.4,596z M755.7,592.5
					C755.7,592.5,755.7,592.5,755.7,592.5c-0.3,0-0.5-0.3-0.5-0.6l0.1-1.7c0-0.3,0.3-0.5,0.6-0.5c0.3,0,0.5,0.3,0.5,0.6l-0.1,1.7
					C756.2,592.3,756,592.5,755.7,592.5z M756,589.1C756,589.1,756,589.1,756,589.1c-0.3,0-0.5-0.3-0.5-0.6l0.1-1.7
					c0-0.3,0.3-0.5,0.6-0.5c0.3,0,0.5,0.3,0.5,0.6l-0.1,1.7C756.5,588.9,756.3,589.1,756,589.1z M756.3,585.7
					C756.3,585.7,756.3,585.7,756.3,585.7c-0.3,0-0.5-0.3-0.5-0.6l0.1-1.7c0-0.3,0.3-0.5,0.6-0.5c0.3,0,0.5,0.3,0.5,0.6l-0.1,1.7
					C756.8,585.5,756.6,585.7,756.3,585.7z M756.6,582.3C756.6,582.3,756.6,582.3,756.6,582.3c-0.3,0-0.5-0.3-0.5-0.6l0.1-1.7
					c0-0.3,0.3-0.5,0.6-0.5c0.3,0,0.5,0.3,0.5,0.6l-0.1,1.7C757.1,582.1,756.9,582.3,756.6,582.3z M756.9,578.8
					C756.9,578.8,756.9,578.8,756.9,578.8c-0.3,0-0.5-0.3-0.5-0.6l0.1-1.7c0-0.3,0.3-0.5,0.6-0.5c0.3,0,0.5,0.3,0.5,0.6l-0.1,1.7
					C757.4,578.6,757.2,578.8,756.9,578.8z M757.2,575.4C757.2,575.4,757.2,575.4,757.2,575.4c-0.3,0-0.5-0.3-0.5-0.6l0.1-1.7
					c0-0.3,0.3-0.5,0.6-0.5c0.3,0,0.5,0.3,0.5,0.6l-0.1,1.7C757.7,575.2,757.5,575.4,757.2,575.4z M757.5,572
					C757.5,572,757.5,572,757.5,572c-0.3,0-0.5-0.3-0.5-0.6l0.1-1.7c0-0.3,0.3-0.5,0.6-0.5c0.3,0,0.5,0.3,0.5,0.6l-0.1,1.7
					C758,571.8,757.7,572,757.5,572z M757.8,568.5C757.8,568.5,757.7,568.5,757.8,568.5c-0.3,0-0.5-0.3-0.5-0.6l0.1-1.7
					c0-0.3,0.3-0.5,0.6-0.5c0.3,0,0.5,0.3,0.5,0.6l-0.1,1.7C758.3,568.3,758,568.5,757.8,568.5z M758.1,565.1
					C758,565.1,758,565.1,758.1,565.1c-0.3,0-0.5-0.3-0.5-0.6l0.1-1.7c0-0.3,0.3-0.5,0.6-0.5c0.3,0,0.5,0.3,0.5,0.6l-0.1,1.7
					C758.6,564.9,758.3,565.1,758.1,565.1z M758.4,561.7C758.3,561.7,758.3,561.7,758.4,561.7c-0.3,0-0.5-0.3-0.5-0.6l0.1-1.7
					c0-0.3,0.3-0.5,0.6-0.5c0.3,0,0.5,0.3,0.5,0.6l-0.1,1.7C758.8,561.5,758.6,561.7,758.4,561.7z M758.6,558.2
					C758.6,558.2,758.6,558.2,758.6,558.2c-0.3,0-0.5-0.3-0.5-0.6l0.1-1.7c0-0.3,0.3-0.5,0.6-0.5c0.3,0,0.5,0.3,0.5,0.6l-0.1,1.7
					C759.1,558,758.9,558.2,758.6,558.2z M758.9,554.8C758.9,554.8,758.9,554.8,758.9,554.8c-0.3,0-0.5-0.3-0.5-0.6l0.1-1.7
					c0-0.3,0.3-0.5,0.6-0.5c0.3,0,0.5,0.3,0.5,0.6l-0.1,1.7C759.4,554.6,759.2,554.8,758.9,554.8z M759.2,551.4
					C759.2,551.4,759.2,551.4,759.2,551.4c-0.3,0-0.5-0.3-0.5-0.6l0.1-1.7c0-0.3,0.3-0.5,0.6-0.5c0.3,0,0.5,0.3,0.5,0.6l-0.1,1.7
					C759.7,551.2,759.5,551.4,759.2,551.4z M759.5,548C759.5,548,759.5,548,759.5,548c-0.3,0-0.5-0.3-0.5-0.6l0.1-1.7
					c0-0.3,0.3-0.5,0.6-0.5c0.3,0,0.5,0.3,0.5,0.6l-0.1,1.7C760,547.8,759.8,548,759.5,548z M759.8,544.5
					C759.8,544.5,759.8,544.5,759.8,544.5c-0.3,0-0.5-0.3-0.5-0.6l0.1-1.7c0-0.3,0.3-0.5,0.6-0.5c0.3,0,0.5,0.3,0.5,0.6l-0.1,1.7
					C760.3,544.3,760.1,544.5,759.8,544.5z M760.1,541.1C760.1,541.1,760.1,541.1,760.1,541.1c-0.3,0-0.5-0.3-0.5-0.6l0.1-1.7
					c0-0.3,0.3-0.5,0.6-0.5c0.3,0,0.5,0.3,0.5,0.6l-0.1,1.7C760.6,540.9,760.4,541.1,760.1,541.1z M760.4,537.7
					C760.4,537.7,760.4,537.7,760.4,537.7c-0.3,0-0.5-0.3-0.5-0.6l0.1-1.7c0-0.3,0.3-0.5,0.6-0.5c0.3,0,0.5,0.3,0.5,0.6l-0.1,1.7
					C760.9,537.5,760.7,537.7,760.4,537.7z M760.7,534.2C760.7,534.2,760.6,534.2,760.7,534.2c-0.3,0-0.5-0.3-0.5-0.6l0.1-1.7
					c0-0.3,0.3-0.5,0.6-0.5c0.3,0,0.5,0.3,0.5,0.6l-0.1,1.7C761.2,534,760.9,534.2,760.7,534.2z M761,530.8
					C761,530.8,760.9,530.8,761,530.8c-0.3,0-0.5-0.3-0.5-0.6l0.1-1.7c0-0.3,0.3-0.5,0.6-0.5c0.3,0,0.5,0.3,0.5,0.6l-0.1,1.7
					C761.5,530.6,761.2,530.8,761,530.8z M761.3,527.4C761.2,527.4,761.2,527.4,761.3,527.4c-0.3,0-0.5-0.3-0.5-0.6l0.1-1.7
					c0-0.3,0.3-0.5,0.6-0.5c0.3,0,0.5,0.3,0.5,0.6l-0.1,1.7C761.8,527.2,761.5,527.4,761.3,527.4z M761.6,523.9
					C761.5,523.9,761.5,523.9,761.6,523.9c-0.3,0-0.5-0.3-0.5-0.6l0.1-1.7c0-0.3,0.3-0.5,0.6-0.5c0.3,0,0.5,0.3,0.5,0.6l-0.1,1.7
					C762,523.7,761.8,523.9,761.6,523.9z M761.8,520.5C761.8,520.5,761.8,520.5,761.8,520.5c-0.3,0-0.5-0.3-0.5-0.6l0.1-1.7
					c0-0.3,0.3-0.5,0.6-0.5c0.3,0,0.5,0.3,0.5,0.6l-0.1,1.7C762.3,520.3,762.1,520.5,761.8,520.5z M762.1,517.1
					C762.1,517.1,762.1,517.1,762.1,517.1c-0.3,0-0.5-0.3-0.5-0.6l0.1-1.7c0-0.3,0.3-0.5,0.6-0.5c0.3,0,0.5,0.3,0.5,0.6l-0.1,1.7
					C762.6,516.9,762.4,517.1,762.1,517.1z M762.4,513.7C762.4,513.7,762.4,513.7,762.4,513.7c-0.3,0-0.5-0.3-0.5-0.6l0.1-1.7
					c0-0.3,0.3-0.5,0.6-0.5c0.3,0,0.5,0.3,0.5,0.6l-0.1,1.7C762.9,513.5,762.7,513.7,762.4,513.7z M762.7,510.2
					C762.7,510.2,762.7,510.2,762.7,510.2c-0.3,0-0.5-0.3-0.5-0.6l0.1-1.7c0-0.3,0.3-0.5,0.6-0.5c0.3,0,0.5,0.3,0.5,0.6l-0.1,1.7
					C763.2,510,763,510.2,762.7,510.2z M763,506.8C763,506.8,763,506.8,763,506.8c-0.3,0-0.5-0.3-0.5-0.6l0.1-1.7
					c0-0.3,0.3-0.5,0.6-0.5c0.3,0,0.5,0.3,0.5,0.6l-0.1,1.7C763.5,506.6,763.3,506.8,763,506.8z M763.3,503.4
					C763.3,503.4,763.3,503.4,763.3,503.4c-0.3,0-0.5-0.3-0.5-0.6l0.1-1.7c0-0.3,0.3-0.5,0.6-0.5c0.3,0,0.5,0.3,0.5,0.6l-0.1,1.7
					C763.8,503.2,763.6,503.4,763.3,503.4z M763.6,499.9C763.6,499.9,763.6,499.9,763.6,499.9c-0.3,0-0.5-0.3-0.5-0.6l0.1-1.7
					c0-0.3,0.3-0.5,0.6-0.5c0.3,0,0.5,0.3,0.5,0.6l-0.1,1.7C764.1,499.7,763.8,499.9,763.6,499.9z M763.9,496.5
					C763.9,496.5,763.8,496.5,763.9,496.5c-0.3,0-0.5-0.3-0.5-0.6l0.1-1.7c0-0.3,0.3-0.5,0.6-0.5c0.3,0,0.5,0.3,0.5,0.6l-0.1,1.7
					C764.4,496.3,764.1,496.5,763.9,496.5z M764.2,493.1C764.2,493.1,764.1,493.1,764.2,493.1c-0.3,0-0.5-0.3-0.5-0.6l0.1-1.7
					c0-0.3,0.3-0.5,0.6-0.5c0.3,0,0.5,0.3,0.5,0.6l-0.1,1.7C764.7,492.9,764.4,493.1,764.2,493.1z M764.5,489.6
					C764.4,489.6,764.4,489.6,764.5,489.6c-0.3,0-0.5-0.3-0.5-0.6l0.1-1.7c0-0.3,0.3-0.5,0.6-0.5c0.3,0,0.5,0.3,0.5,0.6l-0.1,1.7
					C764.9,489.4,764.7,489.6,764.5,489.6z M764.7,486.2C764.7,486.2,764.7,486.2,764.7,486.2c-0.3,0-0.5-0.3-0.5-0.6l0.1-1.7
					c0-0.3,0.3-0.5,0.6-0.5c0.3,0,0.5,0.3,0.5,0.6l-0.1,1.7C765.2,486,765,486.2,764.7,486.2z M765,482.8
					C765,482.8,765,482.8,765,482.8c-0.3,0-0.5-0.3-0.5-0.6l0.1-1.7c0-0.3,0.3-0.5,0.6-0.5c0.3,0,0.5,0.3,0.5,0.6l-0.1,1.7
					C765.5,482.6,765.3,482.8,765,482.8z M765.3,479.4C765.3,479.4,765.3,479.4,765.3,479.4c-0.3,0-0.5-0.3-0.5-0.6l0.1-1.7
					c0-0.3,0.3-0.5,0.6-0.5c0.3,0,0.5,0.3,0.5,0.6l-0.1,1.7C765.8,479.1,765.6,479.4,765.3,479.4z M765.6,475.9
					C765.6,475.9,765.6,475.9,765.6,475.9c-0.3,0-0.5-0.3-0.5-0.6l0.1-1.7c0-0.3,0.3-0.5,0.6-0.5c0.3,0,0.5,0.3,0.5,0.6l-0.1,1.7
					C766.1,475.7,765.9,475.9,765.6,475.9z M765.9,472.5C765.9,472.5,765.9,472.5,765.9,472.5c-0.3,0-0.5-0.3-0.5-0.6l0.1-1.7
					c0-0.3,0.3-0.5,0.6-0.5c0.3,0,0.5,0.3,0.5,0.6l-0.1,1.7C766.4,472.3,766.2,472.5,765.9,472.5z M766.2,469.1
					C766.2,469.1,766.2,469.1,766.2,469.1c-0.3,0-0.5-0.3-0.5-0.6l0.1-1.7c0-0.3,0.3-0.5,0.6-0.5c0.3,0,0.5,0.3,0.5,0.6l-0.1,1.7
					C766.7,468.9,766.5,469.1,766.2,469.1z M766.5,465.6C766.5,465.6,766.5,465.6,766.5,465.6c-0.3,0-0.5-0.3-0.5-0.6l0.1-0.9
					c0-0.3,0.3-0.5,0.6-0.5c0.3,0,0.5,0.3,0.5,0.6l-0.1,0.9C767,465.4,766.8,465.6,766.5,465.6z"/>
				<path style="clip-path:url(#XMLID_00000083788497619503590360000010108337428228572811_);fill:#808080;" d="M843.3,624.5
					c-0.3,0-0.5-0.2-0.5-0.5l-0.1-1.7c0-0.3,0.2-0.5,0.5-0.5c0.3,0,0.5,0.2,0.5,0.5l0.1,1.7C843.9,624.2,843.7,624.4,843.3,624.5
					C843.4,624.5,843.4,624.5,843.3,624.5z M843.1,621c-0.3,0-0.5-0.2-0.5-0.5l-0.1-1.7c0-0.3,0.2-0.5,0.5-0.5
					c0.3,0,0.5,0.2,0.5,0.5l0.1,1.7C843.7,620.8,843.5,621,843.1,621C843.2,621,843.2,621,843.1,621z M842.9,617.6
					c-0.3,0-0.5-0.2-0.5-0.5l-0.1-1.7c0-0.3,0.2-0.5,0.5-0.5c0.3,0,0.5,0.2,0.5,0.5l0.1,1.7C843.5,617.3,843.3,617.6,842.9,617.6
					C843,617.6,843,617.6,842.9,617.6z M842.7,614.1c-0.3,0-0.5-0.2-0.5-0.5l-0.1-1.7c0-0.3,0.2-0.5,0.5-0.5c0.3,0,0.5,0.2,0.5,0.5
					l0.1,1.7C843.3,613.9,843.1,614.1,842.7,614.1C842.8,614.1,842.8,614.1,842.7,614.1z M842.5,610.7c-0.3,0-0.5-0.2-0.5-0.5
					l-0.1-1.7c0-0.3,0.2-0.5,0.5-0.5c0.3,0,0.5,0.2,0.5,0.5l0.1,1.7C843.1,610.4,842.9,610.7,842.5,610.7
					C842.6,610.7,842.6,610.7,842.5,610.7z M842.3,607.3c-0.3,0-0.5-0.2-0.5-0.5l-0.1-1.7c0-0.3,0.2-0.5,0.5-0.5
					c0.3,0,0.5,0.2,0.5,0.5l0.1,1.7C842.9,607,842.7,607.3,842.3,607.3C842.4,607.3,842.3,607.3,842.3,607.3z M842.1,603.8
					c-0.3,0-0.5-0.2-0.5-0.5l-0.1-1.7c0-0.3,0.2-0.5,0.5-0.5c0.3,0,0.5,0.2,0.5,0.5l0.1,1.7C842.7,603.6,842.5,603.8,842.1,603.8
					C842.2,603.8,842.1,603.8,842.1,603.8z M841.9,600.4c-0.3,0-0.5-0.2-0.5-0.5l-0.1-1.7c0-0.3,0.2-0.5,0.5-0.5
					c0.3,0,0.5,0.2,0.5,0.5l0.1,1.7C842.5,600.1,842.3,600.4,841.9,600.4C842,600.4,841.9,600.4,841.9,600.4z M841.7,597
					c-0.3,0-0.5-0.2-0.5-0.5l-0.1-1.7c0-0.3,0.2-0.5,0.5-0.5c0.3,0,0.5,0.2,0.5,0.5l0.1,1.7C842.3,596.7,842,596.9,841.7,597
					C841.8,597,841.7,597,841.7,597z M841.5,593.5c-0.3,0-0.5-0.2-0.5-0.5l-0.1-1.7c0-0.3,0.2-0.5,0.5-0.5c0.3,0,0.5,0.2,0.5,0.5
					l0.1,1.7C842.1,593.3,841.8,593.5,841.5,593.5C841.6,593.5,841.5,593.5,841.5,593.5z M841.3,590.1c-0.3,0-0.5-0.2-0.5-0.5
					l-0.1-1.7c0-0.3,0.2-0.5,0.5-0.5c0.3,0,0.5,0.2,0.5,0.5l0.1,1.7C841.9,589.8,841.6,590.1,841.3,590.1
					C841.4,590.1,841.3,590.1,841.3,590.1z M841.1,586.7c-0.3,0-0.5-0.2-0.5-0.5l-0.1-1.7c0-0.3,0.2-0.5,0.5-0.5
					c0.3,0,0.5,0.2,0.5,0.5l0.1,1.7C841.7,586.4,841.4,586.6,841.1,586.7C841.1,586.7,841.1,586.7,841.1,586.7z M840.9,583.2
					c-0.3,0-0.5-0.2-0.5-0.5l-0.1-1.7c0-0.3,0.2-0.5,0.5-0.5c0.3,0,0.5,0.2,0.5,0.5l0.1,1.7C841.5,583,841.2,583.2,840.9,583.2
					C840.9,583.2,840.9,583.2,840.9,583.2z M840.7,579.8c-0.3,0-0.5-0.2-0.5-0.5l-0.1-1.7c0-0.3,0.2-0.5,0.5-0.5
					c0.3,0,0.5,0.2,0.5,0.5l0.1,1.7C841.3,579.5,841,579.8,840.7,579.8C840.7,579.8,840.7,579.8,840.7,579.8z M840.5,576.3
					c-0.3,0-0.5-0.2-0.5-0.5l-0.1-1.7c0-0.3,0.2-0.5,0.5-0.5c0.3,0,0.5,0.2,0.5,0.5l0.1,1.7C841.1,576.1,840.8,576.3,840.5,576.3
					C840.5,576.3,840.5,576.3,840.5,576.3z M840.3,572.9c-0.3,0-0.5-0.2-0.5-0.5l-0.1-1.7c0-0.3,0.2-0.5,0.5-0.5
					c0.3,0,0.5,0.2,0.5,0.5l0.1,1.7C840.9,572.6,840.6,572.9,840.3,572.9C840.3,572.9,840.3,572.9,840.3,572.9z M840.1,569.5
					c-0.3,0-0.5-0.2-0.5-0.5l-0.1-1.7c0-0.3,0.2-0.5,0.5-0.5c0.3,0,0.5,0.2,0.5,0.5l0.1,1.7C840.7,569.2,840.4,569.5,840.1,569.5
					C840.1,569.5,840.1,569.5,840.1,569.5z M839.9,566c-0.3,0-0.5-0.2-0.5-0.5l-0.1-1.7c0-0.3,0.2-0.5,0.5-0.5
					c0.3,0,0.5,0.2,0.5,0.5l0.1,1.7C840.5,565.8,840.2,566,839.9,566C839.9,566,839.9,566,839.9,566z M839.7,562.6
					c-0.3,0-0.5-0.2-0.5-0.5l-0.1-1.7c0-0.3,0.2-0.5,0.5-0.5c0.3,0,0.5,0.2,0.5,0.5l0.1,1.7C840.2,562.3,840,562.6,839.7,562.6
					C839.7,562.6,839.7,562.6,839.7,562.6z M839.5,559.2c-0.3,0-0.5-0.2-0.5-0.5l-0.1-1.7c0-0.3,0.2-0.5,0.5-0.5
					c0.3,0,0.5,0.2,0.5,0.5l0.1,1.7C840,558.9,839.8,559.1,839.5,559.2C839.5,559.2,839.5,559.2,839.5,559.2z M839.3,555.7
					c-0.3,0-0.5-0.2-0.5-0.5l-0.1-1.7c0-0.3,0.2-0.5,0.5-0.5c0.3,0,0.5,0.2,0.5,0.5l0.1,1.7C839.8,555.5,839.6,555.7,839.3,555.7
					C839.3,555.7,839.3,555.7,839.3,555.7z M839.1,552.3c-0.3,0-0.5-0.2-0.5-0.5l-0.1-1.7c0-0.3,0.2-0.5,0.5-0.5
					c0.3,0,0.5,0.2,0.5,0.5l0.1,1.7C839.6,552,839.4,552.3,839.1,552.3C839.1,552.3,839.1,552.3,839.1,552.3z M838.9,548.9
					c-0.3,0-0.5-0.2-0.5-0.5l-0.1-1.7c0-0.3,0.2-0.5,0.5-0.5c0.3,0,0.5,0.2,0.5,0.5l0.1,1.7C839.4,548.6,839.2,548.8,838.9,548.9
					C838.9,548.9,838.9,548.9,838.9,548.9z M838.7,545.4c-0.3,0-0.5-0.2-0.5-0.5l-0.1-1.7c0-0.3,0.2-0.5,0.5-0.5
					c0.3,0,0.5,0.2,0.5,0.5l0.1,1.7C839.2,545.2,839,545.4,838.7,545.4C838.7,545.4,838.7,545.4,838.7,545.4z M838.5,542
					c-0.3,0-0.5-0.2-0.5-0.5l-0.1-1.7c0-0.3,0.2-0.5,0.5-0.5c0.3,0,0.5,0.2,0.5,0.5l0.1,1.7C839,541.7,838.8,542,838.5,542
					C838.5,542,838.5,542,838.5,542z M838.3,538.5c-0.3,0-0.5-0.2-0.5-0.5l-0.1-1.7c0-0.3,0.2-0.5,0.5-0.5c0.3,0,0.5,0.2,0.5,0.5
					l0.1,1.7C838.8,538.3,838.6,538.5,838.3,538.5C838.3,538.5,838.3,538.5,838.3,538.5z M838.1,535.1c-0.3,0-0.5-0.2-0.5-0.5
					l-0.1-1.7c0-0.3,0.2-0.5,0.5-0.5c0.3,0,0.5,0.2,0.5,0.5l0.1,1.7C838.6,534.8,838.4,535.1,838.1,535.1
					C838.1,535.1,838.1,535.1,838.1,535.1z M837.9,531.7c-0.3,0-0.5-0.2-0.5-0.5l-0.1-1.7c0-0.3,0.2-0.5,0.5-0.5
					c0.3,0,0.5,0.2,0.5,0.5l0.1,1.7C838.4,531.4,838.2,531.7,837.9,531.7C837.9,531.7,837.9,531.7,837.9,531.7z M837.7,528.2
					c-0.3,0-0.5-0.2-0.5-0.5l-0.1-1.7c0-0.3,0.2-0.5,0.5-0.5c0.3,0,0.5,0.2,0.5,0.5l0.1,1.7C838.2,528,838,528.2,837.7,528.2
					C837.7,528.2,837.7,528.2,837.7,528.2z M837.5,524.8c-0.3,0-0.5-0.2-0.5-0.5l-0.1-1.7c0-0.3,0.2-0.5,0.5-0.5
					c0.3,0,0.5,0.2,0.5,0.5l0.1,1.7C838,524.5,837.8,524.8,837.5,524.8C837.5,524.8,837.5,524.8,837.5,524.8z M837.3,521.4
					c-0.3,0-0.5-0.2-0.5-0.5l-0.1-1.7c0-0.3,0.2-0.5,0.5-0.5c0.3,0,0.5,0.2,0.5,0.5l0.1,1.7C837.8,521.1,837.6,521.3,837.3,521.4
					C837.3,521.4,837.3,521.4,837.3,521.4z M837.1,517.9c-0.3,0-0.5-0.2-0.5-0.5l-0.1-1.7c0-0.3,0.2-0.5,0.5-0.5
					c0.3,0,0.5,0.2,0.5,0.5l0.1,1.7C837.6,517.7,837.4,517.9,837.1,517.9C837.1,517.9,837.1,517.9,837.1,517.9z M836.9,514.5
					c-0.3,0-0.5-0.2-0.5-0.5l-0.1-1.7c0-0.3,0.2-0.5,0.5-0.5c0.3,0,0.5,0.2,0.5,0.5l0.1,1.7C837.4,514.2,837.2,514.5,836.9,514.5
					C836.9,514.5,836.9,514.5,836.9,514.5z M836.7,511c-0.3,0-0.5-0.2-0.5-0.5l-0.1-1.7c0-0.3,0.2-0.5,0.5-0.5
					c0.3,0,0.5,0.2,0.5,0.5l0.1,1.7C837.2,510.8,837,511,836.7,511C836.7,511,836.7,511,836.7,511z M836.5,507.6
					c-0.3,0-0.5-0.2-0.5-0.5l-0.1-1.7c0-0.3,0.2-0.5,0.5-0.5c0.3,0,0.5,0.2,0.5,0.5l0.1,1.7C837,507.4,836.8,507.6,836.5,507.6
					C836.5,507.6,836.5,507.6,836.5,507.6z M836.3,504.2c-0.3,0-0.5-0.2-0.5-0.5l-0.1-1.7c0-0.3,0.2-0.5,0.5-0.5
					c0.3,0,0.5,0.2,0.5,0.5l0.1,1.7C836.8,503.9,836.6,504.2,836.3,504.2C836.3,504.2,836.3,504.2,836.3,504.2z M836.1,500.7
					c-0.3,0-0.5-0.2-0.5-0.5l-0.1-1.7c0-0.3,0.2-0.5,0.5-0.5c0.3,0,0.5,0.2,0.5,0.5l0.1,1.7C836.6,500.5,836.4,500.7,836.1,500.7
					C836.1,500.7,836.1,500.7,836.1,500.7z M835.9,497.3c-0.3,0-0.5-0.2-0.5-0.5l-0.1-1.7c0-0.3,0.2-0.5,0.5-0.5
					c0.3,0,0.5,0.2,0.5,0.5l0.1,1.7C836.4,497,836.2,497.3,835.9,497.3C835.9,497.3,835.9,497.3,835.9,497.3z M835.7,493.9
					c-0.3,0-0.5-0.2-0.5-0.5l-0.1-1.7c0-0.3,0.2-0.5,0.5-0.5c0.3,0,0.5,0.2,0.5,0.5l0.1,1.7C836.2,493.6,836,493.8,835.7,493.9
					C835.7,493.9,835.7,493.9,835.7,493.9z M835.5,490.4c-0.3,0-0.5-0.2-0.5-0.5l-0.1-1.7c0-0.3,0.2-0.5,0.5-0.5
					c0.3,0,0.5,0.2,0.5,0.5l0.1,1.7C836,490.2,835.8,490.4,835.5,490.4C835.5,490.4,835.5,490.4,835.5,490.4z M835.3,487
					c-0.3,0-0.5-0.2-0.5-0.5l-0.1-1.7c0-0.3,0.2-0.5,0.5-0.5c0.3,0,0.5,0.2,0.5,0.5l0.1,1.7C835.8,486.7,835.6,487,835.3,487
					C835.3,487,835.3,487,835.3,487z M835.1,483.6c-0.3,0-0.5-0.2-0.5-0.5l-0.1-1.7c0-0.3,0.2-0.5,0.5-0.5c0.3,0,0.5,0.2,0.5,0.5
					l0.1,1.7C835.6,483.3,835.4,483.5,835.1,483.6C835.1,483.6,835.1,483.6,835.1,483.6z M834.9,480.1c-0.3,0-0.5-0.2-0.5-0.5
					l-0.1-1.7c0-0.3,0.2-0.5,0.5-0.5c0.3,0,0.5,0.2,0.5,0.5l0.1,1.7C835.4,479.9,835.2,480.1,834.9,480.1
					C834.9,480.1,834.9,480.1,834.9,480.1z M834.7,476.7c-0.3,0-0.5-0.2-0.5-0.5l-0.1-1.7c0-0.3,0.2-0.5,0.5-0.5
					c0.3,0,0.5,0.2,0.5,0.5l0.1,1.7C835.2,476.4,835,476.7,834.7,476.7C834.7,476.7,834.7,476.7,834.7,476.7z M834.5,473.2
					c-0.3,0-0.5-0.2-0.5-0.5l-0.1-1.7c0-0.3,0.2-0.5,0.5-0.5c0.3,0,0.5,0.2,0.5,0.5l0.1,1.7C835,473,834.8,473.2,834.5,473.2
					C834.5,473.2,834.5,473.2,834.5,473.2z M834.3,469.8c-0.3,0-0.5-0.2-0.5-0.5l-0.1-1.7c0-0.3,0.2-0.5,0.5-0.5
					c0.3,0,0.5,0.2,0.5,0.5l0.1,1.7C834.8,469.5,834.6,469.8,834.3,469.8C834.3,469.8,834.3,469.8,834.3,469.8z"/>
			</g>
			<path class="st5" d="M756.3,263.7c0,0,25-6.7,29.3-6.4c4.3,0.3,33.4,10.8,33.4,10.8l6.1,188.7h-63.1L756.3,263.7z"/>
			<g>
				<path d="M821.7,166.3c0,0,15.8,5.1,17.6,11.4c1.8,6.4-3.8,29-3.8,29l-18.7-20.2L821.7,166.3z"/>
				<g>
					<defs>
						<path id="XMLID_145_" d="M832.8,189.5c-1.4-7.2-6.8-13-14-14.5c-12.7-2.7-28.7,2.5-33.1,7.4c-6.2,6.9,3.1,36.8,5.7,43.5
							c0,0-17.4,28.8-19.3,33.1c0,0,0,0.1,0,0.1l-14.7,4.5c0,0,12.9,39.5,40.8,44.9c0,0,17.5-13.2,18.4-41.6l-6.9-3.3
							c1.5-6.9,3-14.3,3.7-18.9c5.7,2.7,11.7,4.1,16.9,2.6C841.9,244.2,835.9,205.8,832.8,189.5z"/>
					</defs>
					<use xlink:href="#XMLID_145_"  style="overflow:visible;fill:#FE8E9C;"/>
					<clipPath id="XMLID_00000045593419852413466240000016405626261212251070_">
						<use xlink:href="#XMLID_145_"  style="overflow:visible;"/>
					</clipPath>
					<path style="clip-path:url(#XMLID_00000045593419852413466240000016405626261212251070_);fill:#E57492;" d="M832.8,184.8
						c0,0,0.2,5.3-22.5,8.4c0,0-3.6,12-12.2,11.3c-8.6-0.7,0,0,0,0s-0.3-16.7,2-19.4c2.4-2.7,22.8-12.2,22.8-12.2
						S832.8,180.1,832.8,184.8z"/>
				</g>
				<g>
					<path class="st7" d="M826.4,195.2c0,0,8.4,18.7,5.3,20.7c-3.1,2-10.6-2.3-10.6-2.3l0,0c0.1,1.3,0.1,2.3,1.4,2.7
						c3.7,1.3,9.5,3.5,11.1,0.6C836.2,211.8,826.4,195.2,826.4,195.2z"/>
					<path class="st7" d="M813.4,244.7c0,0-11.5-8-15.2-12.8c0,0,3.1,16.3,13.8,20.9L813.4,244.7z"/>
				</g>
				<path class="st5" d="M832.6,228.6c0,0-5,1.5-8.4-1.9c0,0-0.2,6.3,5,7.1C834.3,234.6,832.6,228.6,832.6,228.6z"/>
				<path class="st8" d="M802.3,188.2c0,0,21.3,3.7,22.9-10.5s-9.8-25.7-9.8-25.7s4.1,7.4,3.5,9.3c-0.6,1.9-20.4-11.2-34.9-0.2
					c-14.5,10.9-15.6,24-13.5,36c2.1,12,17.2,34.9,17.2,34.9s3.5-3.5,5.8-9.2c2.4-5.8,2.5-8.7,2.5-8.7s-13.4-6.8-9.4-13.8
					c5.3-9.2,11.6,4.3,11.6,4.3L802.3,188.2z"/>
			</g>
			<g>
				<defs>
					<path id="XMLID_144_" d="M676.3,542c0,0,0,8.6,0.3,9.7c0.3,1.1,5.6,8,5.8,9.3s-0.8,22.5-3.2,22.9c-5.9,1-6.5-1.8-6.7-3.3
						s0.5,2.3-4.2,1.9s-4.9-5.3-4.9-5.3s0.5,4.8-4,2.9c-4.5-1.9-4.5-6-4.5-6s-2.3,3.4-4.8,1.3c-2.4-2-2.8-6-2.5-6.5
						c0.2-0.5,0.5-11.9,3-15.8c2.4-3.8,5.4-13.1,5.4-13.1L676.3,542z"/>
				</defs>
				<use xlink:href="#XMLID_144_"  style="overflow:visible;fill:#FE8E9C;"/>
				<clipPath id="XMLID_00000009563989700412996130000012475596525519710380_">
					<use xlink:href="#XMLID_144_"  style="overflow:visible;"/>
				</clipPath>
				<path style="clip-path:url(#XMLID_00000009563989700412996130000012475596525519710380_);fill:#E57492;" d="M645.1,556
					c0,0,35.3-7.6,42.3-3.8c0,0,1.4-13.6-0.3-13.8c-1.6-0.3-36.4-2.7-36.4-2.7L645.1,556z"/>
			</g>
			<path class="st10" d="M998.7,308.6c-0.6-3.9-16.7-42.8-22.1-41.9c-5.4,0.9-60.4,110.6-69.4,103.6c-6.5-5.1-51.5-84.2-51.5-84.2
				c-0.6-2.5-29.9-16.9-39.7-19.3c0,0-4.6,90.2-5.4,107.3s0.9,109.5,2.5,111.3c1.6,1.8,30,7.7,55.7,5c0,0-19.8-100.5-19.8-105.9
				c0-0.8,0.2-3.6,0.4-7.7c11.7,18.4,44.2,67.3,60.3,69.1C941.3,449.3,999.3,312.5,998.7,308.6z"/>
			<path class="st10" d="M773.8,340.7c-6.7-24.9-17.5-77-17.5-77s-43.2,13-44.6,17.9c0,0-69.3,116.8-69.6,131.8
				c-0.1,6.2-3.4,133.3,0,134.7c3.4,1.4,44.2-0.7,46.3-2.7c2-2,2.7-110.9,4.8-115.7c1.3-3.1,18.8-26.7,31.2-46.8
				c0.2,2.6,0.4,4.7,0.4,6.2c0,14.9-10,101.9-10,101.9c42.8,11.2,67.3-9.7,67.3-9.7S780.5,365.6,773.8,340.7z"/>
			<path class="st11" d="M724.4,382.9c0,0,15.1-20.4,14.1-37.4c0,0,13.5,46.9-14.8,60.5L724.4,382.9z"/>
			<path class="st11" d="M976.5,266.7c0,0-10.5,13.7,4,33c14.5,19.3,18.1,8.9,18.1,8.9S992.4,272.1,976.5,266.7z"/>
			<path class="st11" d="M849.3,376.7c0,0,6.2-35.5,6.2-51.9c0,0,17.1,89.2,41.5,103.1c24.5,13.9,40.8-2.7,40.8-2.7
				s-12,22.1-28.3,20.6C893.3,444.3,849.3,376.7,849.3,376.7z"/>
			<path class="st11" d="M756.3,263.7c0,0-13.2,15.7-13.2,29.3s21.5,35.1,21.5,35.1s-6.5,18.2-2.4,27.7c4.1,9.5,16.8,33.4,16.8,33.4
				s-0.8-47-3-55.2S756.3,263.7,756.3,263.7z"/>
			<path class="st11" d="M815.9,266.7c0,0,21.1,32.9,17.9,43.4c-3.2,10.5-14.7,19.1-14.7,19.1s6.4,9.3,4.8,16.4
				c-1.6,7-14.5,43.6-14.5,43.6s1.2-63.2,1.9-71.8C812,308.7,815.9,266.7,815.9,266.7z"/>
			<g>
				<path class="st7" d="M996.2,242.1c0,0,14.8-7.8,16.4-7.9c1.6,0,0.5,4.7-0.4,5.8c-1,1.1-12.3,9.6-12.3,9.6s13.1-2.6,17.5-2
					c4.4,0.6-4.1,5.5-6.3,5.7s-10.9,3.4-10.9,3.4s1.1,9.8,0.1,10.6c-1,0.8-7.7,1.7-7.7,1.7s-5.1-11-4.9-14.7
					C987.9,250.5,996.2,242.1,996.2,242.1z"/>
				<path class="st12" d="M973.7,286.1c0,0,8.3-12.1,8.6-12.8c0.3-0.7,0.9-21.4,3.9-25.8c3-4.4,19.4-18.2,20.2-16.8s0.5,4.5-0.8,6.1
					c-1.3,1.6-11.5,13.7-11.5,13.7s-2.9,10.6,1.1,14.4c0,0,16.3-14.1,16.5-13.1c0.2,1,3.1,3.7,0.8,7.8c-2.3,4-11.3,13.9-11.3,13.9
					s2.1,8.5-7.2,13.4l-7.7,19.7C986.3,306.5,976.8,297.7,973.7,286.1z"/>
			</g>
		</g>
		<g>
			<path class="st13" d="M1082.5,298.7H936c-7.6,0-13.7-6.1-13.7-13.7v-73.8c0-7.6,6.1-13.7,13.7-13.7h146.5
				c7.6,0,13.7,6.1,13.7,13.7v73.8C1096.2,292.6,1090.1,298.7,1082.5,298.7z"/>
			<g>
				<path class="st5" d="M981,219.3h-40.2c-1.8,0-3.2-1.4-3.2-3.2v-3.6c0-1.8,1.4-3.2,3.2-3.2H981c1.8,0,3.2,1.4,3.2,3.2v3.6
					C984.2,217.8,982.7,219.3,981,219.3z"/>
				<path class="st5" d="M981,235.4h-40.2c-1.8,0-3.2-1.4-3.2-3.2v-3.6c0-1.8,1.4-3.2,3.2-3.2H981c1.8,0,3.2,1.4,3.2,3.2v3.6
					C984.2,234,982.7,235.4,981,235.4z"/>
				<path class="st14" d="M959.2,251.6h-18.5c-1.8,0-3.2-1.4-3.2-3.2v-3.6c0-1.8,1.4-3.2,3.2-3.2h18.5c1.8,0,3.2,1.4,3.2,3.2v3.6
					C962.4,250.1,961,251.6,959.2,251.6z"/>
			</g>
			<g>
				<path class="st5" d="M1049.9,208.7v22.9H1027c0,12.6,10.3,22.9,22.9,22.9s22.9-10.3,22.9-22.9
					C1072.8,218.9,1062.5,208.7,1049.9,208.7z"/>
				<path class="st14" d="M1047.7,206.3c-12.6,0-22.9,10.3-22.9,22.9h22.9V206.3z"/>
			</g>
			<g>
				<rect x="1044.9" y="278" class="st5" width="7.7" height="13.9"/>
				<rect x="1058.6" y="270.8" class="st5" width="7.7" height="21"/>
				<rect x="1072.3" y="264" class="st14" width="7.7" height="27.8"/>
			</g>
			<g>
				<path class="st5" d="M1031.1,268.3h-92.6c-0.6,0-1-0.5-1-1l0,0c0-0.6,0.5-1,1-1h92.6c0.6,0,1,0.5,1,1l0,0
					C1032.2,267.9,1031.7,268.3,1031.1,268.3z"/>
				<path class="st5" d="M1031.1,274.9h-92.6c-0.6,0-1-0.5-1-1l0,0c0-0.6,0.5-1,1-1h92.6c0.6,0,1,0.5,1,1l0,0
					C1032.2,274.4,1031.7,274.9,1031.1,274.9z"/>
				<path class="st5" d="M1031.1,281.5h-92.6c-0.6,0-1-0.5-1-1l0,0c0-0.6,0.5-1,1-1h92.6c0.6,0,1,0.5,1,1l0,0
					C1032.2,281,1031.7,281.5,1031.1,281.5z"/>
				<path class="st5" d="M1031.5,288.1h-93.3c-0.4,0-0.7-0.3-0.7-0.7v-0.7c0-0.4,0.3-0.7,0.7-0.7h93.3c0.4,0,0.7,0.3,0.7,0.7v0.7
					C1032.2,287.8,1031.9,288.1,1031.5,288.1z"/>
				<path class="st14" d="M979.2,288.1h-41c-0.4,0-0.7-0.3-0.7-0.7v-0.7c0-0.4,0.3-0.7,0.7-0.7h41c0.4,0,0.7,0.3,0.7,0.7v0.7
					C979.8,287.8,979.5,288.1,979.2,288.1z"/>
				<path class="st14" d="M1013.9,281.5h-40.3c-0.6,0-1-0.5-1-1l0,0c0-0.6,0.5-1,1-1h40.3c0.6,0,1,0.5,1,1l0,0
					C1015,281,1014.5,281.5,1013.9,281.5z"/>
				<path class="st14" d="M976.2,274.9h-23.7c-0.6,0-1-0.5-1-1l0,0c0-0.6,0.5-1,1-1h23.7c0.6,0,1,0.5,1,1l0,0
					C977.3,274.4,976.8,274.9,976.2,274.9z"/>
				<path class="st14" d="M1017.5,268.3h-23.7c-0.6,0-1-0.5-1-1l0,0c0-0.6,0.5-1,1-1h23.7c0.6,0,1,0.5,1,1l0,0
					C1018.5,267.9,1018.1,268.3,1017.5,268.3z"/>
			</g>
		</g>
	</g>
	<path class="st15" d="M613.5,121.6c-7.8,0-14.1,6.2-14.3,13.9l-81.7,11.1c-2.7-11.8-13.2-20.6-25.8-20.6
		c-14.6,0-26.4,11.8-26.4,26.4c0,1.3,0.1,2.6,0.3,3.9l-58.1,13.9c-1.7-3.3-5.1-5.6-9-5.6c-3.4,0-6.3,1.6-8.2,4.2L346,150.4
		c0.3-1.3,0.5-2.7,0.5-4.1c0-9-7.3-16.3-16.3-16.3c-9,0-16.3,7.3-16.3,16.3c0,9,7.3,16.3,16.3,16.3c5.9,0,11.1-3.2,14-7.9l44.2,18.5
		c-0.1,0.5-0.1,1.1-0.1,1.7c0,5.6,4.5,10.1,10.1,10.1c5.6,0,10.1-4.5,10.1-10.1c0,0,0,0,0,0l58.1-13.9c3.5,10.5,13.4,18,25.1,18
		c14.6,0,26.4-11.8,26.4-26.4c0-0.4,0-0.8,0-1.2l81.7-11.1c1.8,5.9,7.3,10.1,13.7,10.1c7.9,0,14.3-6.4,14.3-14.3
		C627.9,128,621.4,121.6,613.5,121.6z"/>
	<g>
		<g>
			<path class="st13" d="M735.2,565c0,5.4,4.3,9.7,9.7,9.7h208.8c5.4,0,9.7-4.3,9.7-9.7v-99.4H735.2V565z"/>
			<path class="st14" d="M953.7,449.6H744.9c-5.4,0-9.7,4.3-9.7,9.7v6.2h228.2v-6.2C963.4,454,959.1,449.6,953.7,449.6z"/>
		</g>
		<path class="st5" d="M903,485.5H751.8c-0.7,0-1.3-0.6-1.3-1.3v-4.5c0-0.7,0.6-1.3,1.3-1.3H903c0.7,0,1.3,0.6,1.3,1.3v4.5
			C904.3,484.9,903.7,485.5,903,485.5z"/>
		<path class="st5" d="M820.4,501.2h-69.1c-0.5,0-0.9-0.4-0.9-0.9V495c0-0.5,0.4-0.9,0.9-0.9h69.1c0.5,0,0.9,0.4,0.9,0.9v5.4
			C821.3,500.8,820.9,501.2,820.4,501.2z"/>
		<path class="st5" d="M925,517H751.8c-0.8,0-1.4-0.6-1.4-1.4v-4.4c0-0.8,0.6-1.4,1.4-1.4H925c0.8,0,1.4,0.6,1.4,1.4v4.4
			C926.4,516.3,925.8,517,925,517z"/>
		<path class="st5" d="M849.4,548.4h-97.9c-0.6,0-1.1-0.5-1.1-1.1v-5c0-0.6,0.5-1.1,1.1-1.1h97.9c0.6,0,1.1,0.5,1.1,1.1v5
			C850.5,547.9,850,548.4,849.4,548.4z"/>
		<path class="st5" d="M797.6,564.1h-46.5c-0.4,0-0.7-0.3-0.7-0.7v-5.7c0-0.4,0.3-0.7,0.7-0.7h46.5c0.4,0,0.7,0.3,0.7,0.7v5.7
			C798.4,563.8,798,564.1,797.6,564.1z"/>
		<path class="st10" d="M945.1,532.7H751.9c-0.8,0-1.5-0.7-1.5-1.5V527c0-0.8,0.7-1.5,1.5-1.5h193.2c0.8,0,1.5,0.7,1.5,1.5v4.2
			C946.6,532,946,532.7,945.1,532.7z"/>
	</g>
	<g>
		<g>
			<circle class="st5" cx="599.2" cy="189.4" r="4.5"/>
			<circle class="st5" cx="619.8" cy="189.4" r="4.5"/>
			<circle class="st5" cx="640.3" cy="189.4" r="4.5"/>
			<circle class="st5" cx="660.9" cy="189.4" r="4.5"/>
		</g>
		<g>
			<circle class="st5" cx="599.2" cy="205.7" r="4.5"/>
			<circle class="st5" cx="619.8" cy="205.7" r="4.5"/>
			<circle class="st5" cx="640.3" cy="205.7" r="4.5"/>
			<circle class="st5" cx="660.9" cy="205.7" r="4.5"/>
		</g>
		<g>
			
				<ellipse transform="matrix(0.2298 -0.9732 0.9732 0.2298 245.3857 754.205)" class="st5" cx="599.2" cy="222.1" rx="4.5" ry="4.5"/>
			
				<ellipse transform="matrix(0.1602 -0.9871 0.9871 0.1602 301.2715 798.2489)" class="st5" cx="619.8" cy="222.1" rx="4.5" ry="4.5"/>
			
				<ellipse transform="matrix(0.1602 -0.9871 0.9871 0.1602 318.5447 818.5511)" class="st5" cx="640.3" cy="222.1" rx="4.5" ry="4.5"/>
			
				<ellipse transform="matrix(0.1602 -0.9871 0.9871 0.1602 335.8179 838.8533)" class="st5" cx="660.9" cy="222.1" rx="4.5" ry="4.5"/>
		</g>
		<g>
			<circle class="st5" cx="599.2" cy="238.4" r="4.5"/>
			<circle class="st5" cx="619.8" cy="238.4" r="4.5"/>
			<circle class="st5" cx="640.3" cy="238.4" r="4.5"/>
			<circle class="st5" cx="660.9" cy="238.4" r="4.5"/>
		</g>
		<g>
			<circle class="st5" cx="599.2" cy="254.7" r="4.5"/>
			<circle class="st5" cx="619.8" cy="254.7" r="4.5"/>
			<circle class="st5" cx="640.3" cy="254.7" r="4.5"/>
			<circle class="st5" cx="660.9" cy="254.7" r="4.5"/>
		</g>
		<g>
			<circle class="st5" cx="599.2" cy="271.1" r="4.5"/>
			<circle class="st5" cx="619.8" cy="271.1" r="4.5"/>
			<circle class="st5" cx="640.3" cy="271.1" r="4.5"/>
			<circle class="st5" cx="660.9" cy="271.1" r="4.5"/>
		</g>
		<g>
			<circle class="st5" cx="599.2" cy="287.4" r="4.5"/>
			<circle class="st5" cx="619.8" cy="287.4" r="4.5"/>
			<circle class="st5" cx="640.3" cy="287.4" r="4.5"/>
			<circle class="st5" cx="660.9" cy="287.4" r="4.5"/>
		</g>
	</g>
	<g>
		<g>
			
				<ellipse transform="matrix(0.9994 -3.505994e-02 3.505994e-02 0.9994 -13.0598 14.4332)" class="st5" cx="405" cy="379.6" rx="6.1" ry="6.1"/>
			
				<ellipse transform="matrix(0.9994 -3.505994e-02 3.505994e-02 0.9994 -14.0369 14.4504)" class="st5" cx="405" cy="407.5" rx="6.1" ry="6.1"/>
			
				<ellipse transform="matrix(0.9994 -3.505994e-02 3.505994e-02 0.9994 -15.0139 14.4675)" class="st5" cx="405" cy="435.3" rx="6.1" ry="6.1"/>
			
				<ellipse transform="matrix(0.9994 -3.505994e-02 3.505994e-02 0.9994 -15.991 14.4846)" class="st5" cx="405" cy="463.2" rx="6.1" ry="6.1"/>
		</g>
		<g>
			
				<ellipse transform="matrix(0.9991 -4.188504e-02 4.188504e-02 0.9991 -15.5636 16.3707)" class="st5" cx="382.9" cy="379.6" rx="6.1" ry="6.1"/>
			
				<ellipse transform="matrix(0.9991 -4.188504e-02 4.188504e-02 0.9991 -16.7309 16.3952)" class="st5" cx="382.9" cy="407.5" rx="6.1" ry="6.1"/>
			
				<ellipse transform="matrix(0.9991 -4.188504e-02 4.188504e-02 0.9991 -17.8981 16.4196)" class="st5" cx="382.9" cy="435.3" rx="6.1" ry="6.1"/>
			
				<ellipse transform="matrix(0.9991 -4.188504e-02 4.188504e-02 0.9991 -19.0654 16.4441)" class="st5" cx="382.9" cy="463.2" rx="6.1" ry="6.1"/>
		</g>
		<g>
			<circle class="st5" cx="360.8" cy="379.6" r="6.1"/>
			<circle class="st5" cx="360.8" cy="407.5" r="6.1"/>
			<circle class="st5" cx="360.8" cy="435.3" r="6.1"/>
			<circle class="st5" cx="360.8" cy="463.2" r="6.1"/>
		</g>
		<g>
			
				<ellipse transform="matrix(5.153412e-02 -0.9987 0.9987 5.153412e-02 -57.8948 698.2423)" class="st5" cx="338.7" cy="379.6" rx="6.1" ry="6.1"/>
			
				<ellipse transform="matrix(5.153412e-02 -0.9987 0.9987 5.153412e-02 -85.7265 724.6749)" class="st5" cx="338.7" cy="407.5" rx="6.1" ry="6.1"/>
			
				<ellipse transform="matrix(5.153412e-02 -0.9987 0.9987 5.153412e-02 -113.5583 751.1074)" class="st5" cx="338.7" cy="435.3" rx="6.1" ry="6.1"/>
			
				<ellipse transform="matrix(5.153412e-02 -0.9987 0.9987 5.153412e-02 -141.39 777.5399)" class="st5" cx="338.7" cy="463.2" rx="6.1" ry="6.1"/>
		</g>
		<g>
			<circle class="st5" cx="316.5" cy="379.6" r="6.1"/>
			<circle class="st5" cx="316.5" cy="407.5" r="6.1"/>
			<circle class="st5" cx="316.5" cy="435.3" r="6.1"/>
			<circle class="st5" cx="316.5" cy="463.2" r="6.1"/>
		</g>
		<g>
			
				<ellipse transform="matrix(0.9997 -2.303640e-02 2.303640e-02 0.9997 -8.6665 6.8829)" class="st5" cx="294.4" cy="379.6" rx="6.1" ry="6.1"/>
			
				<ellipse transform="matrix(0.9997 -2.303640e-02 2.303640e-02 0.9997 -9.3085 6.8903)" class="st5" cx="294.4" cy="407.5" rx="6.1" ry="6.1"/>
			
				<ellipse transform="matrix(0.9997 -2.303640e-02 2.303640e-02 0.9997 -9.9505 6.8977)" class="st5" cx="294.4" cy="435.3" rx="6.1" ry="6.1"/>
			
				<ellipse transform="matrix(0.9997 -2.303640e-02 2.303640e-02 0.9997 -10.5925 6.9051)" class="st5" cx="294.4" cy="463.2" rx="6.1" ry="6.1"/>
		</g>
		<g>
			
				<ellipse transform="matrix(0.9997 -2.262467e-02 2.262467e-02 0.9997 -8.5186 6.2577)" class="st5" cx="272.3" cy="379.6" rx="6.1" ry="6.1"/>
			
				<ellipse transform="matrix(0.9997 -2.262467e-02 2.262467e-02 0.9997 -9.1492 6.2648)" class="st5" cx="272.3" cy="407.5" rx="6.1" ry="6.1"/>
			
				<ellipse transform="matrix(0.9997 -2.262467e-02 2.262467e-02 0.9997 -9.7797 6.2719)" class="st5" cx="272.3" cy="435.3" rx="6.1" ry="6.1"/>
			
				<ellipse transform="matrix(0.9997 -2.262467e-02 2.262467e-02 0.9997 -10.4102 6.2791)" class="st5" cx="272.3" cy="463.2" rx="6.1" ry="6.1"/>
		</g>
	</g>
	<g>
		<g>
			<path class="st8" d="M542.3,501.9c0,0,13.8,24.4,17.2,61.4s-5.5,57.4-5.5,57.4H431.3c0,0,6.6-102.4,18.5-125L542.3,501.9z"/>
			<g>
				<g>
					<defs>
						<path id="XMLID_143_" d="M457.9,348.9c0,0-36.1,56-30.9,58.4c5.2,2.4,23.5,8.1,23.5,8.1L457.9,348.9z"/>
					</defs>
					<use xlink:href="#XMLID_143_"  style="overflow:visible;fill:#C69C6D;"/>
					<clipPath id="XMLID_00000076589014287542546160000018033341754035575692_">
						<use xlink:href="#XMLID_143_"  style="overflow:visible;"/>
					</clipPath>
					<path style="clip-path:url(#XMLID_00000076589014287542546160000018033341754035575692_);fill:#FFFFFF;" d="M426.5,395.6
						c1.6,0.3,33.7,9.8,34.3,11.8c0.6,2-4.1,17.2-5.9,16.3c-1.9-0.9-33.1-10.3-33.1-13.7S426.5,395.6,426.5,395.6z"/>
					<path style="opacity:0.36;clip-path:url(#XMLID_00000076589014287542546160000018033341754035575692_);fill:#8C6239;" d="
						M440.2,417.3c0,0,9.7-55.9,16-65.2c6.3-9.3-0.4,69.2-0.4,69.2L440.2,417.3z"/>
				</g>
				<g>
					<defs>
						<path id="XMLID_142_" d="M553.3,327.7L553.3,327.7c-13.7-10.5-22.4-13.6-22.4-13.6l-34.1,8.9c0,0-26.4,6.6-38.9,25.9
							c-12.5,19.3-11.4,122.5-14.1,152c-1.8,19.9,94.2,15.7,103.3,11.2c5.4-2.7,11.4-41.3,15.9-77.5l18.6-1
							C581.5,433.6,594.1,354.3,553.3,327.7z"/>
					</defs>
					<use xlink:href="#XMLID_142_"  style="overflow:visible;fill:#C69C6D;"/>
					<clipPath id="XMLID_00000002384312772212915590000000376449095385012920_">
						<use xlink:href="#XMLID_142_"  style="overflow:visible;"/>
					</clipPath>
					<path style="clip-path:url(#XMLID_00000002384312772212915590000000376449095385012920_);fill:#FFFFFF;" d="M584.7,421.4
						c0,0-13.6-1.8-23,0s-37,2.5-37,2.5s-3.5,12.9,0.2,14.1c3.7,1.2,35.3-0.2,37.6-0.2c2.3,0,20.5,2.1,22,0
						C585.9,435.6,584.7,421.4,584.7,421.4z"/>
				</g>
				<g>
					<g>
						<g>
							<defs>
								<path id="XMLID_141_" d="M505.6,218.6c-4.5,0.6-9.1,1.2-13.4,2.7c-4.3,1.5-8.4,4-10.9,7.8c-3.7,5.5-3.8,12.7-6.7,18.6
									c-3.6,7.4-11.3,12-15.2,19.2c-2.2,4-3.1,8.8-2.2,13.3c1.2,6.1,5.6,11.3,10.8,14.7c5.2,3.4,11.3,5.3,17.4,6.9
									c12.1,3.2,24.5,5.5,36.9,6.9c4.6-10.4,8.2-21.1,11.2-32.1c3.8-13.5,6.2-28.2,1.3-41.3c-1.3-3.5-3.2-6.8-5.8-9.4
									C523.4,220.2,513.7,217.6,505.6,218.6z"/>
							</defs>
							<use xlink:href="#XMLID_141_"  style="overflow:visible;fill:#333333;"/>
							<clipPath id="XMLID_00000129912689689384551100000006798907907734973352_">
								<use xlink:href="#XMLID_141_"  style="overflow:visible;"/>
							</clipPath>
							<path style="opacity:0.24;clip-path:url(#XMLID_00000129912689689384551100000006798907907734973352_);fill:#1C056D;" d="
								M482.6,236.3c0,0-26,45.4-9.8,57.9c16.2,12.5,32.9-2.3,32.9-2.3l2.5-57.2L482.6,236.3z"/>
						</g>
						<g>
							<defs>
								<path id="XMLID_140_" d="M537.8,237.4c-3.3-6.2-18.1-15.4-31.6-15.8c-7.6-0.2-14.6,4.3-17.8,11.2
									c-7.2,15.7-16.6,52.6-5.7,58.7c4.9,2.7,9.2,2.2,13.6,1.1c-1,10.3-4.9,35.6-3.1,38.3c6.6,10.1,32-3.7,37.9-8
									c5.9-4.3-9.9-43-9.9-43C525.5,273.8,542.4,246,537.8,237.4z"/>
							</defs>
							<use xlink:href="#XMLID_140_"  style="overflow:visible;fill:#FE8E9C;"/>
							<clipPath id="XMLID_00000158024788499234082930000015044134979453259662_">
								<use xlink:href="#XMLID_140_"  style="overflow:visible;"/>
							</clipPath>
							<path style="clip-path:url(#XMLID_00000158024788499234082930000015044134979453259662_);fill:#E57492;" d="M494.3,293.5
								c0,0,8.9-3.6,16.6-8.4c0,0-6.7,21.4-20.1,20.9L494.3,293.5"/>
							<path style="clip-path:url(#XMLID_00000158024788499234082930000015044134979453259662_);fill:#E57492;" d="M479,246.7
								c0.7-0.2,6.2,1,16.3-7.3c0,0,3.7,5.4,16.2-2.3l1.9-10.4l-25.8-3.4L479,246.7z"/>
						</g>
						<path class="st7" d="M498.3,248c0,0-17.7,9.7-16.4,12.3c1.3,2.6,13.9-1,15.1-0.3c1.3,0.6-2.5,3.7-4.3,3.6
							c-1.7-0.1-13.8,0.2-13.8-3C479,257.3,484.6,252.7,498.3,248z"/>
						<path class="st8" d="M500.2,235.6c-0.3,0-0.7-0.1-1-0.2c-0.8-0.4-0.9-1.5-0.6-2.3c0.2-0.8,0.6-1.6,0.6-2.5
							c-4.6,6-12.2,8.8-19.7,9.9c-0.4,0.1-0.8,0.1-1.1-0.2c-0.1-0.1-0.2-0.3-0.2-0.5c-2.3-7.8-0.4-16.7,4.9-22.9
							c2.6-3.1,5.8-5.5,9.3-7.4c9.7-5.5,21.7-7.8,32.2-4c3.4,1.2,6.7,3.2,8.6,6.3c0.7,1.1,1.2,2.4,1.2,3.7c0,2.1-1.4,4-2.9,5.3
							c-1.9,1.7-4.3,2.9-6.7,3.7c-1.2,0.4-2.4,0.8-3.6,1.2c-0.8,0.2-1.4,0.6-1.9,1.2c-1.5,1.7-2.9,3.3-4.7,4.6
							c-1.9,1.4-4.1,2.5-6.4,3.2c-2.3,0.7-4.7,1.1-7.1,1C500.8,235.6,500.5,235.6,500.2,235.6z"/>
						<path class="st5" d="M481.9,270.2c0,0,8.2,4.6,17.9,0c0,0-5.5,7.6-11.5,7.2C480.6,276.9,481.9,270.2,481.9,270.2z"/>
					</g>
					<path class="st8" d="M512.1,222.4c0,0-8.6,13.2-2.9,25.7c5.7,12.4,2.9,54.2,2.9,54.2s22.3,0.5,31.9-7.3c9.6-7.8,0-19.5,0-19.5
						s6.7,13.2,6.7,17.1c0,3.9,20.2-6.4,19.5-23.7c-0.8-17.3-11.9-55.6-37-57.2C508.2,210.1,512.1,222.4,512.1,222.4z"/>
				</g>
				<g>
					<path class="st5" d="M498.9,334.4c0,0,0.2,20.3,12.6,18.7c12.4-1.5,27.6-24,24.7-36.6l-5.2-2.4
						C530.9,314.1,519.2,333,498.9,334.4z"/>
					<path class="st5" d="M498.9,334.4c0,0-12.1,15.2-17.3,10.6c-5.2-4.6,1.7-16.8,1.7-16.8l9.7-4.5
						C492.9,323.6,492.4,332.9,498.9,334.4z"/>
				</g>
				<path class="st11" d="M562.9,434.6c0,0-35.9,3.9-37.1,0s6.5-57.6,6.5-57.6s-17.8,61.2-14.7,68.5c3.2,7.4,42.7,8.2,42.7,8.2
					L562.9,434.6z"/>
				<g>
					
						<ellipse transform="matrix(8.521441e-02 -0.9964 0.9964 8.521441e-02 86.9981 819.7443)" class="st5" cx="489.9" cy="362.5" rx="4.5" ry="2.7"/>
					<path class="st5" d="M487.4,392.2c-0.2,2.5-1.6,4.4-3.1,4.3c-1.5-0.1-2.5-2.3-2.3-4.8s1.6-4.4,3.1-4.3
						C486.6,387.5,487.6,389.7,487.4,392.2z"/>
					
						<ellipse transform="matrix(8.521615e-02 -0.9964 0.9964 8.521615e-02 18.7222 863.1998)" class="st5" cx="479.5" cy="421.4" rx="4.5" ry="2.7"/>
					<path class="st5" d="M476.9,451.1c-0.2,2.5-1.6,4.4-3.1,4.3c-1.5-0.1-2.5-2.3-2.3-4.8c0.2-2.5,1.6-4.4,3.1-4.3
						C476.1,446.5,477.1,448.6,476.9,451.1z"/>
					
						<ellipse transform="matrix(8.521698e-02 -0.9964 0.9964 8.521698e-02 -49.5531 906.6555)" class="st5" cx="469" cy="480.3" rx="4.5" ry="2.7"/>
				</g>
			</g>
			<g>
				<g>
					<defs>
						<path id="XMLID_139_" d="M449.6,585.3h-97.1c-2.4,0-5.1-1.9-6.1-4.3L321,516.5c-0.9-2.4,0.2-4.3,2.6-4.3h97.1
							c2.4,0,5.1,1.9,6.1,4.3l25.5,64.5C453.2,583.4,452,585.3,449.6,585.3z"/>
					</defs>
					<use xlink:href="#XMLID_139_"  style="overflow:visible;fill:#999999;"/>
					<clipPath id="XMLID_00000131338670739195319330000003264117912891939747_">
						<use xlink:href="#XMLID_139_"  style="overflow:visible;"/>
					</clipPath>
					<path style="opacity:0.3;clip-path:url(#XMLID_00000131338670739195319330000003264117912891939747_);fill:#333333;" d="
						M431.3,522.5c0,0-56.2,49.9-89.4,55.1l1.3,9.6h116.3l0.9-5L431.3,522.5z"/>
				</g>
				<path class="st8" d="M330.2,520.1c-1,1-2.8,1-3.9-0.1s-1.2-2.8-0.1-3.9c1-1,2.8-1,3.9,0.1C331.2,517.4,331.2,519.1,330.2,520.1z
					"/>
			</g>
			<g>
				<g>
					<defs>
						<path id="XMLID_138_" d="M432.7,407c0,0-6.2,19.2-10.4,29.5c-1.4,3.4-80.9-65.8-80.9-65.8L330,382.2
							c0,0,72.9,103.8,93.9,103.8c14.3,0,21.5-10.5,21.5-10.5l5.2-60L432.7,407z"/>
					</defs>
					<use xlink:href="#XMLID_138_"  style="overflow:visible;fill:#FE8E9C;"/>
					<clipPath id="XMLID_00000129201655176330499430000005668781252641231744_">
						<use xlink:href="#XMLID_138_"  style="overflow:visible;"/>
					</clipPath>
					<path style="clip-path:url(#XMLID_00000129201655176330499430000005668781252641231744_);fill:#E57492;" d="M427.8,413
						c0,0,7.4,33.2,22.3,40.8l8.6-42l-28-7.6L427.8,413z"/>
				</g>
				<path class="st7" d="M323.4,347.9c0,0-12-6.1-13.5-6.5c-1.5-0.4-15.1-1.7-14.9-1.1c0.1,0.6-0.4,3.9,2.3,4.8s10.4,1.9,10.8,2.2
					c0.1,0,0.3,0.2,0.7,0.5c-2.2-0.1-14.9,1.1-14.7,1.6c0.2,0.5,0.3,3.9,3.2,4.3c2.9,0.4,10.6-0.1,11.1,0.2
					c0.5,0.2,12.7,6.6,15.9,6.2c3.2-0.5,8-4.4,8-4.4L323.4,347.9z"/>
				<path class="st12" d="M341.4,370.8c0,0-6.4-21.2-9.1-24.9c-2.6-3.7-30.9-17.3-30.9-17.3s-2.1,3.5,0.3,5.8
					c1.2,1.1,6.1,4.8,11,8.4c5.5,4,11.5,10.4,11.5,10.4s-25-0.6-24.6,0.7c0.3,1.3,2.1,5.4,5.9,6.2c3.8,0.8,11.6,0.5,13.5,4.2
					c2,3.8,0.5,10.6,11,17.8C330,382.2,341.1,374.6,341.4,370.8z"/>
			</g>
			<g>
				<g>
					<defs>
						<path id="XMLID_137_" d="M576.8,433.9c0,0-3.8,46.9-7.8,55.8c-2.9,6.3-114,65.4-114,65.4l-11.2-15.7c0,0,84.7-65.4,84.7-66.9
							s2.1-36.4,2.1-36.4L576.8,433.9z"/>
					</defs>
					<use xlink:href="#XMLID_137_"  style="overflow:visible;fill:#FE8E9C;"/>
					<clipPath id="XMLID_00000037692213963010890920000005119650880545321634_">
						<use xlink:href="#XMLID_137_"  style="overflow:visible;"/>
					</clipPath>
					<path style="clip-path:url(#XMLID_00000037692213963010890920000005119650880545321634_);fill:#E57492;" d="M527.8,450.5
						c0,0,40.8,6.9,52.1,3.3l2.3-25.5h-56.3L527.8,450.5z"/>
				</g>
				<path class="st12" d="M447.8,536.3c0,0-8.1-0.1-11.6,0.4c-3.5,0.6-16.9,9.5-16.6,9.8c0.2,0.2,2.5,3,4.6,2.4l13.3-4.7
					c0,0-11.6,8.7-12.8,8.9c-1.1,0.2-19.5,3.1-19.5,4c0,0.9,0.3,4.6,5.1,4.2c4.8-0.4,17-2,18.8-2.4c1.8-0.4-25.1,3.9-24.9,4.4
					c0.1,0.5,0.6,4,2.6,4.1s22.4-1.2,23.7-1.7c1.3-0.5-17.4,4.2-17.2,4.5s-0.4,2.5,2.7,2.7s17.6-2.2,18.4-2.4
					c0.7-0.1,7.5-5.1,7.5-5.1s-7.1,7.1-8.3,7.5c-1.3,0.4-9.1,2.4-8.5,3.6c0.5,1,3.2,1.3,6.2,0.9c3-0.4,7.3-1.2,10.3-3.5
					c3-2.3,16.1-20.2,16.1-20.2L447.8,536.3z"/>
			</g>
		</g>
		<g>
			<path class="st13" d="M381.9,358.3H206.2c-12.4,0-22.5-10.1-22.5-22.5v-90.3c0-12.4,10.1-22.5,22.5-22.5h175.7
				c12.4,0,22.5,10.1,22.5,22.5v90.3C404.4,348.2,394.4,358.3,381.9,358.3z"/>
			<path class="st14" d="M250.3,242.8h-48.9c-1.4,0-2.5-1.1-2.5-2.5v-2.8c0-1.4,1.1-2.5,2.5-2.5h48.9c1.4,0,2.5,1.1,2.5,2.5v2.8
				C252.8,241.7,251.7,242.8,250.3,242.8z"/>
			<path class="st5" d="M231.5,253.6h-30.1c-1.4,0-2.5-1.1-2.5-2.5v-2.8c0-1.4,1.1-2.5,2.5-2.5h30.1c1.4,0,2.5,1.1,2.5,2.5v2.8
				C234,252.5,232.9,253.6,231.5,253.6z"/>
			<g>
				<g>
					<polygon class="st24" points="201.6,348.3 231.8,315 238.7,324.9 256.6,308.2 267.5,315 291.2,275.7 310.2,309.6 324.6,282.7 
						341.3,312 352.9,304.5 368.2,320.3 386.3,348.3 					"/>
					<path class="st14" d="M386.6,348.5h-185c-1.6,0-2.9-1.3-2.9-2.9v-80.9c0-1.6,1.3-2.9,2.9-2.9h185c1.6,0,2.9,1.3,2.9,2.9v80.9
						C389.5,347.2,388.2,348.5,386.6,348.5z M201.6,262.2c-1.4,0-2.5,1.1-2.5,2.5v80.9c0,1.4,1.1,2.5,2.5,2.5h185
						c1.4,0,2.5-1.1,2.5-2.5v-80.9c0-1.4-1.1-2.5-2.5-2.5H201.6z"/>
				</g>
				<rect x="198.9" y="275.9" class="st14" width="190.4" height="0.3"/>
				<rect x="198.9" y="290.5" class="st14" width="190.4" height="0.3"/>
				<rect x="198.9" y="305" class="st14" width="190.4" height="0.3"/>
				<rect x="198.9" y="319.6" class="st14" width="190.4" height="0.3"/>
				<rect x="198.9" y="334.2" class="st14" width="190.4" height="0.3"/>
			</g>
			<g>
				<path class="st14" d="M311.3,256.5h-1.9c-1,0-1.7-0.8-1.7-1.7v-5.5c0-1,0.8-1.7,1.7-1.7h1.9c1,0,1.7,0.8,1.7,1.7v5.5
					C313,255.7,312.2,256.5,311.3,256.5z"/>
				<path class="st5" d="M320.7,256.5h-1.9c-1,0-1.7-0.8-1.7-1.7v-10.4c0-1,0.8-1.7,1.7-1.7h1.9c1,0,1.7,0.8,1.7,1.7v10.4
					C322.4,255.7,321.7,256.5,320.7,256.5z"/>
				<path class="st5" d="M330.2,256.5h-1.9c-1,0-1.7-0.8-1.7-1.7v-14c0-1,0.8-1.7,1.7-1.7h1.9c1,0,1.7,0.8,1.7,1.7v14
					C331.9,255.7,331.1,256.5,330.2,256.5z"/>
				<path class="st14" d="M377.3,256.2h-1.9c-1,0-1.7-0.8-1.7-1.7v-3.2c0-1,0.8-1.7,1.7-1.7h1.9c1,0,1.7,0.8,1.7,1.7v3.2
					C379,255.4,378.2,256.2,377.3,256.2z"/>
				<path class="st5" d="M387.6,256.2h-1.9c-1,0-1.7-0.8-1.7-1.7v-10.1c0-1,0.8-1.7,1.7-1.7h1.9c1,0,1.7,0.8,1.7,1.7v10.1
					C389.3,255.4,388.5,256.2,387.6,256.2z"/>
				<path class="st5" d="M339.6,256.5h-1.9c-1,0-1.7-0.8-1.7-1.7v-19.2c0-1,0.8-1.7,1.7-1.7h1.9c1,0,1.7,0.8,1.7,1.7v19.2
					C341.4,255.7,340.6,256.5,339.6,256.5z"/>
				<path class="st14" d="M349.1,256.5h-1.9c-1,0-1.7-0.8-1.7-1.7v-1.9c0-1,0.8-1.7,1.7-1.7h1.9c1,0,1.7,0.8,1.7,1.7v1.9
					C350.8,255.7,350,256.5,349.1,256.5z"/>
				<path class="st5" d="M358.5,256.5h-1.9c-1,0-1.7-0.8-1.7-1.7v-19.2c0-1,0.8-1.7,1.7-1.7h1.9c1,0,1.7,0.8,1.7,1.7v19.2
					C360.3,255.7,359.5,256.5,358.5,256.5z"/>
				<path class="st5" d="M368,256.5h-1.9c-1,0-1.7-0.8-1.7-1.7v-14c0-1,0.8-1.7,1.7-1.7h1.9c1,0,1.7,0.8,1.7,1.7v14
					C369.7,255.7,368.9,256.5,368,256.5z"/>
			</g>
		</g>
	</g>
	<path class="st14" d="M1061.5,622.1H190.4c-0.8,0-1.4-0.6-1.4-1.4s0.6-1.4,1.4-1.4h871.1c0.8,0,1.4,0.6,1.4,1.4
		S1062.3,622.1,1061.5,622.1z"/>
</g>
</svg>
