<?xml version="1.0" encoding="utf-8"?>
<!-- Generator: Adobe Illustrator 26.0.0, SVG Export Plug-In . SVG Version: 6.00 Build 0)  -->
<svg version="1.1" id="Layer_1" xmlns="http://www.w3.org/2000/svg" xmlns:xlink="http://www.w3.org/1999/xlink" x="0px" y="0px"
	 viewBox="0 0 1280 673" style="enable-background:new 0 0 1280 673;" xml:space="preserve">
<g id="BACKGROUND">
	<rect x="27.08" y="23.51" style="fill:#82D9E0;" width="499.96" height="500.03"/>
</g>
<g id="OBJECTS">
	<rect x="0.33" style="fill:#FBF8E8;" width="1279.33" height="673"/>
	<g>
		<g>
			<path style="fill:#F9F5E4;" d="M864.49,333.68h-0.3c-1.55,0-2.82-1.27-2.82-2.82l0,0c0-1.55,1.27-2.82,2.82-2.82h0.3
				c1.55,0,2.82,1.27,2.82,2.82l0,0C867.31,332.42,866.04,333.68,864.49,333.68z"/>
			<path style="fill:#F9F5E4;" d="M847.51,295.73h-0.37c-1.93,0-3.52-1.58-3.52-3.52l0,0c0-1.93,1.58-3.52,3.52-3.52h0.37
				c1.93,0,3.52,1.58,3.52,3.52l0,0C851.03,294.14,849.45,295.73,847.51,295.73z"/>
			<path style="fill:#F9F5E4;" d="M863.79,427.88h-0.37c-1.93,0-3.52-1.58-3.52-3.52l0,0c0-1.93,1.58-3.52,3.52-3.52h0.37
				c1.93,0,3.52,1.58,3.52,3.52l0,0C867.31,426.3,865.73,427.88,863.79,427.88z"/>
			<path style="fill:#F9F5E4;" d="M857.09,375.87h-0.3c-1.55,0-2.82-1.27-2.82-2.82l0,0c0-1.55,1.27-2.82,2.82-2.82h0.3
				c1.55,0,2.82,1.27,2.82,2.82l0,0C859.91,374.6,858.64,375.87,857.09,375.87z"/>
			<path style="fill:#F9F5E4;" d="M412.53,495.37h-0.37c-1.93,0-3.52-1.58-3.52-3.52l0,0c0-1.93,1.58-3.52,3.52-3.52h0.37
				c1.93,0,3.52,1.58,3.52,3.52l0,0C416.05,493.79,414.46,495.37,412.53,495.37z"/>
			<path style="fill:#F9F5E4;" d="M409.57,416.63h-0.37c-1.93,0-3.52-1.58-3.52-3.52l0,0c0-1.93,1.58-3.51,3.52-3.51h0.37
				c1.93,0,3.52,1.58,3.52,3.51l0,0C413.08,415.05,411.5,416.63,409.57,416.63z"/>
			<path style="fill:#FFF8EA;" d="M498.8,298.47h-13.83c-4.28,0-7.78-3.5-7.78-7.78l0,0c0-4.28,3.5-7.78,7.78-7.78h13.83
				c4.28,0,7.78,3.5,7.78,7.78l0,0C506.58,294.96,503.08,298.47,498.8,298.47z"/>
			<g>
				<path style="fill:#D4B269;" d="M832.55,630.33H491.72c-10.33,0-18.78-8.45-18.78-18.78V122.02c0-10.33,8.45-18.78,18.78-18.78
					h340.83c10.33,0,18.78,8.45,18.78,18.78v489.53C851.33,621.89,842.88,630.33,832.55,630.33z"/>
				<path style="fill:#443244;" d="M813.1,614.84H512.05c-9.28,0-16.86-7.6-16.86-16.86V150.93c0-9.28,7.6-16.86,16.86-16.86h301.04
					c9.28,0,16.86,7.6,16.86,16.86v447.05C829.97,607.26,822.37,614.84,813.1,614.84z"/>
				<rect x="507.85" y="127.94" style="fill:#F9F5F4;" width="309.76" height="470.05"/>
				<path style="fill:#A0A0A0;" d="M786.59,133.23H535.14c-4.76,0-8.65-3.89-8.65-8.65l0,0c0-4.76,3.89-8.65,8.65-8.65h251.44
					c4.76,0,8.65,3.89,8.65,8.65l0,0C795.24,129.33,791.35,133.23,786.59,133.23z"/>
				<path style="fill:#ADB6C0;" d="M780.99,115.35c-1.55-21.82-12.34-38.88-25.07-38.73L563.6,79c-12.73,0.16-23.05,17.48-24,39.33
					L780.99,115.35z"/>
				<path style="opacity:0.27;fill:#E86625;enable-background:new    ;" d="M670.84,116.71l110.15-1.36
					c-1.49-17.31-12.22-30.83-24.96-30.67l-85.2,1.05v30.98H670.84z"/>
				<ellipse style="fill:#737373;" cx="664.18" cy="77.1" rx="22.94" ry="21.79"/>
				<path style="fill:#AFAFAF;" d="M674.14,77.1c0,5.23-4.46,9.46-9.96,9.46c-5.49,0-9.96-4.24-9.96-9.46s4.46-9.46,9.96-9.46
					C669.67,67.64,674.14,71.88,674.14,77.1z"/>
				<path style="fill:#9D9D9D;" d="M635.54,94.68h-75.9c-2.32,0-4.21-1.89-4.21-4.21l0,0c0-2.32,1.89-4.21,4.21-4.21h75.9
					c2.32,0,4.21,1.89,4.21,4.21l0,0C639.77,92.78,637.86,94.68,635.54,94.68z"/>
				<polygon style="fill:#F9F5E4;" points="554.87,70.85 559.87,79.54 569.01,84.3 559.87,89.05 554.87,97.75 549.86,89.05 
					540.72,84.3 549.86,79.54 				"/>
				<path style="opacity:0.58;fill:#7F7F7F;enable-background:new    ;" d="M769.63,261.99H553.32c-1.55,0-2.82-1.27-2.82-2.82l0,0
					c0-1.55,1.27-2.82,2.82-2.82h216.31c1.55,0,2.82,1.27,2.82,2.82l0,0C772.44,260.72,771.18,261.99,769.63,261.99z"/>
				<path style="opacity:0.58;fill:#7F7F7F;enable-background:new    ;" d="M769.63,281.67H553.32c-1.55,0-2.82-1.27-2.82-2.82l0,0
					c0-1.55,1.27-2.82,2.82-2.82h216.31c1.55,0,2.82,1.27,2.82,2.82l0,0C772.44,280.4,771.18,281.67,769.63,281.67z"/>
				<path style="opacity:0.58;fill:#7F7F7F;enable-background:new    ;" d="M769.63,302.76H553.32c-1.55,0-2.82-1.27-2.82-2.82l0,0
					c0-1.55,1.27-2.82,2.82-2.82h216.31c1.55,0,2.82,1.27,2.82,2.82l0,0C772.44,301.49,771.18,302.76,769.63,302.76z"/>
				<path style="opacity:0.58;fill:#7F7F7F;enable-background:new    ;" d="M769.63,322.44H553.32c-1.55,0-2.82-1.27-2.82-2.82l0,0
					c0-1.55,1.27-2.82,2.82-2.82h216.31c1.55,0,2.82,1.27,2.82,2.82l0,0C772.44,321.17,771.18,322.44,769.63,322.44z"/>
				<path style="opacity:0.58;fill:#7F7F7F;enable-background:new    ;" d="M662.63,342.12h-110c-0.76,0-1.39-0.62-1.39-1.39v-2.93
					c0-0.76,0.62-1.39,1.39-1.39h110c0.76,0,1.39,0.62,1.39,1.39v2.93C664.01,341.49,663.4,342.12,662.63,342.12z"/>
				<path style="opacity:0.58;fill:#7F7F7F;enable-background:new    ;" d="M763.71,443.34H547.4c-1.55,0-2.82-1.27-2.82-2.82l0,0
					c0-1.55,1.27-2.82,2.82-2.82h216.31c1.55,0,2.82,1.27,2.82,2.82l0,0C766.53,442.07,765.26,443.34,763.71,443.34z"/>
				<path style="opacity:0.58;fill:#7F7F7F;enable-background:new    ;" d="M763.71,463.02H547.4c-1.55,0-2.82-1.27-2.82-2.82l0,0
					c0-1.55,1.27-2.82,2.82-2.82h216.31c1.55,0,2.82,1.27,2.82,2.82l0,0C766.53,461.77,765.26,463.02,763.71,463.02z"/>
				<path style="opacity:0.58;fill:#7F7F7F;enable-background:new    ;" d="M763.71,484.11H547.4c-1.55,0-2.82-1.27-2.82-2.82l0,0
					c0-1.55,1.27-2.82,2.82-2.82h216.31c1.55,0,2.82,1.27,2.82,2.82l0,0C766.53,482.85,765.26,484.11,763.71,484.11z"/>
				<path style="opacity:0.58;fill:#7F7F7F;enable-background:new    ;" d="M763.71,503.8H547.4c-1.55,0-2.82-1.27-2.82-2.82l0,0
					c0-1.55,1.27-2.82,2.82-2.82h216.31c1.55,0,2.82,1.27,2.82,2.82l0,0C766.53,502.54,765.26,503.8,763.71,503.8z"/>
				<path style="opacity:0.58;fill:#7F7F7F;enable-background:new    ;" d="M656.71,523.48h-110c-0.76,0-1.39-0.62-1.39-1.39v-2.93
					c0-0.76,0.62-1.39,1.39-1.39h110c0.76,0,1.39,0.62,1.39,1.39v2.93C658.1,522.86,657.47,523.48,656.71,523.48z"/>
				<path style="fill:#F9F5E4;" d="M520.84,69.37h-0.37c-1.93,0-3.52-1.58-3.52-3.51l0,0c0-1.93,1.58-3.52,3.52-3.52h0.37
					c1.93,0,3.52,1.58,3.52,3.52l0,0C524.36,67.79,522.78,69.37,520.84,69.37z"/>
				<path style="fill:#F9F5E4;" d="M585.17,67.97h-0.3c-1.55,0-2.82-1.27-2.82-2.82l0,0c0-1.55,1.27-2.82,2.82-2.82h0.3
					c1.55,0,2.82,1.27,2.82,2.82l0,0C587.98,66.7,586.72,67.97,585.17,67.97z"/>
				<path style="fill:#F9F5E4;" d="M545.29,51.09h-0.44c-2.32,0-4.21-1.89-4.21-4.21l0,0c0-2.32,1.89-4.21,4.21-4.21h0.44
					c2.32,0,4.21,1.89,4.21,4.21l0,0C549.52,49.2,547.61,51.09,545.29,51.09z"/>
				<path style="fill:#F9F5E4;" d="M508.23,93.27h-0.3c-1.55,0-2.82-1.27-2.82-2.82l0,0c0-1.55,1.27-2.82,2.82-2.82h0.3
					c1.55,0,2.82,1.27,2.82,2.82l0,0C511.04,92.01,509.77,93.27,508.23,93.27z"/>
				
					<rect x="669.59" y="516.26" style="opacity:0.58;fill:none;stroke:#7F7F7F;stroke-miterlimit:10;enable-background:new    ;" width="50.13" height="50.13"/>
				
					<rect x="730.95" y="515.39" style="opacity:0.58;fill:none;stroke:#7F7F7F;stroke-miterlimit:10;enable-background:new    ;" width="50.13" height="50.13"/>
				<g>
					<g>
						<path style="fill:#7C7C7C;" d="M555.39,172.6h-3.35v-1.96h9.08v1.96h-3.34v9.08h-2.39V172.6z"/>
						<path style="fill:#7C7C7C;" d="M564.66,179.13l-0.86,2.55h-2.35l3.75-11.04h3l3.91,11.04h-2.51l-0.91-2.55H564.66z
							 M568.18,177.17c-0.78-2.33-1.28-3.82-1.55-4.81h-0.02c-0.27,1.09-0.82,2.82-1.45,4.81H568.18z"/>
						<path style="fill:#7C7C7C;" d="M579.48,181.68l-2.36-3.89h-0.02l-2.42,3.89h-2.57l3.67-5.56l-3.57-5.48h2.77l2.23,3.66h0.02
							l2.31-3.66h2.53l-3.55,5.26l3.72,5.78H579.48z"/>
						<path style="fill:#7C7C7C;" d="M589.58,177.26v4.42h-2.33v-11.04h4.85c2.41,0,3.7,1.33,3.7,3.03c0,1.48-0.81,2.28-1.6,2.61
							c0.55,0.2,1.37,0.77,1.37,2.75v0.54c0,0.74,0.01,1.59,0.16,2.1h-2.26c-0.19-0.48-0.23-1.31-0.23-2.48v-0.16
							c0-1.21-0.3-1.78-2.08-1.78H589.58z M589.58,175.36h2c1.31,0,1.81-0.5,1.81-1.42c0-0.9-0.59-1.4-1.75-1.4h-2.06V175.36z"/>
						<path style="fill:#7C7C7C;" d="M605.43,176.92h-5.28v2.8h5.82l-0.28,1.96h-7.85v-11.04h7.83v1.96h-5.51v2.36h5.28V176.92z"/>
						<path style="fill:#7C7C7C;" d="M609.34,178.44c0.25,1.11,1.05,1.59,2.32,1.59c1.27,0,1.82-0.5,1.82-1.31
							c0-0.9-0.53-1.29-2.42-1.73c-3-0.71-3.75-1.8-3.75-3.29c0-1.92,1.44-3.23,4.05-3.23c2.93,0,4.1,1.57,4.26,3.19h-2.4
							c-0.12-0.68-0.49-1.42-1.91-1.42c-0.97,0-1.55,0.4-1.55,1.18c0,0.77,0.47,1.08,2.25,1.49c3.21,0.76,3.91,1.95,3.91,3.51
							c0,2.02-1.52,3.4-4.44,3.4c-2.8,0-4.28-1.38-4.54-3.39H609.34z"/>
						<path style="fill:#7C7C7C;" d="M620.27,170.64v11.04h-2.39v-11.04H620.27z"/>
						<path style="fill:#7C7C7C;" d="M622.9,170.64h4.38c3.21,0,5.31,2.12,5.31,5.38c0,3.22-2.04,5.66-5.42,5.66h-4.28V170.64z
							 M625.28,179.75h1.79c2.12,0,3.05-1.57,3.05-3.72c0-1.8-0.88-3.46-3.04-3.46h-1.8V179.75z"/>
						<path style="fill:#7C7C7C;" d="M642.27,176.92h-5.28v2.8h5.82l-0.28,1.96h-7.85v-11.04h7.83v1.96h-5.51v2.36h5.28V176.92z"/>
						<path style="fill:#7C7C7C;" d="M644.56,181.68v-11.04h2.96c1.38,2.48,3.93,6.95,4.43,8.15h0.03
							c-0.12-1.15-0.12-3.07-0.12-4.88v-3.27h2.16v11.04h-2.8c-1.19-2.16-4.01-7.29-4.56-8.56h-0.03c0.08,0.97,0.11,3.23,0.11,5.21
							v3.36H644.56z"/>
						<path style="fill:#7C7C7C;" d="M666.01,178.28c-0.44,2.06-2,3.56-4.76,3.56c-3.5,0-5.15-2.48-5.15-5.62
							c0-3.03,1.71-5.74,5.27-5.74c2.94,0,4.36,1.72,4.63,3.57h-2.39c-0.23-0.85-0.82-1.7-2.32-1.7c-1.97,0-2.73,1.77-2.73,3.78
							c0,1.87,0.66,3.83,2.79,3.83c1.56,0,2.05-1.04,2.26-1.69H666.01z"/>
						<path style="fill:#7C7C7C;" d="M675.62,176.92h-5.28v2.8h5.82l-0.28,1.96h-7.85v-11.04h7.82v1.96h-5.51v2.36h5.28V176.92z"/>
						<path style="fill:#7C7C7C;" d="M691.16,178.28c-0.44,2.06-2,3.56-4.76,3.56c-3.5,0-5.15-2.48-5.15-5.62
							c0-3.03,1.71-5.74,5.27-5.74c2.94,0,4.36,1.72,4.63,3.57h-2.39c-0.23-0.85-0.82-1.7-2.32-1.7c-1.97,0-2.73,1.77-2.73,3.78
							c0,1.87,0.66,3.83,2.79,3.83c1.56,0,2.05-1.04,2.26-1.69H691.16z"/>
						<path style="fill:#7C7C7C;" d="M700.78,176.92h-5.28v2.8h5.82l-0.28,1.96h-7.85v-11.04h7.82v1.96h-5.51v2.36h5.28V176.92z"/>
						<path style="fill:#7C7C7C;" d="M705.4,177.26v4.42h-2.33v-11.04h4.85c2.41,0,3.7,1.33,3.7,3.03c0,1.48-0.81,2.28-1.6,2.61
							c0.55,0.2,1.37,0.77,1.37,2.75v0.54c0,0.74,0.01,1.59,0.16,2.1h-2.26c-0.19-0.48-0.23-1.31-0.23-2.48v-0.16
							c0-1.21-0.3-1.78-2.08-1.78H705.4z M705.4,175.36h2c1.31,0,1.81-0.5,1.81-1.42c0-0.9-0.59-1.4-1.75-1.4h-2.06V175.36z"/>
						<path style="fill:#7C7C7C;" d="M715.87,172.6h-3.35v-1.96h9.08v1.96h-3.34v9.08h-2.39V172.6z"/>
						<path style="fill:#7C7C7C;" d="M725.46,170.64v11.04h-2.39v-11.04H725.46z"/>
						<path style="fill:#7C7C7C;" d="M728.08,170.64h7.7v1.96h-5.37v2.7h5.03v1.96h-5.03v4.42h-2.33V170.64z"/>
						<path style="fill:#7C7C7C;" d="M739.87,170.64v11.04h-2.39v-11.04H739.87z"/>
						<path style="fill:#7C7C7C;" d="M751.86,178.28c-0.44,2.06-2,3.56-4.76,3.56c-3.5,0-5.15-2.48-5.15-5.62
							c0-3.03,1.71-5.74,5.27-5.74c2.94,0,4.36,1.72,4.63,3.57h-2.39c-0.23-0.85-0.82-1.7-2.32-1.7c-1.97,0-2.73,1.77-2.73,3.78
							c0,1.87,0.66,3.83,2.79,3.83c1.56,0,2.05-1.04,2.26-1.69H751.86z"/>
						<path style="fill:#7C7C7C;" d="M755.96,179.13l-0.86,2.55h-2.35l3.75-11.04h3l3.91,11.04h-2.51l-0.91-2.55H755.96z
							 M759.47,177.17c-0.78-2.33-1.28-3.82-1.55-4.81h-0.02c-0.27,1.09-0.82,2.82-1.45,4.81H759.47z"/>
						<path style="fill:#7C7C7C;" d="M767.1,172.6h-3.35v-1.96h9.08v1.96h-3.34v9.08h-2.39V172.6z"/>
						<path style="fill:#7C7C7C;" d="M781.9,176.92h-5.28v2.8h5.82l-0.28,1.96h-7.85v-11.04h7.82v1.96h-5.51v2.36h5.28V176.92z"/>
					</g>
				</g>
			</g>
		</g>
		<g>
			<g>
				<path style="fill:#EA9E24;" d="M397.31,464.24L397.31,464.24c2.34-2.91,1.87-7.2-1.04-9.54l-6.48-5.21
					c-2.91-2.34-7.2-1.87-9.54,1.04l0,0c-2.34,2.91-1.87,7.2,1.04,9.54l6.48,5.21C390.68,467.62,394.97,467.15,397.31,464.24z"/>
			</g>
			<g>
				<path style="fill:#F8DE6F;" d="M379.92,450.98l17.02,13.68c-2.4,2.53-6.41,2.85-9.18,0.63l-6.48-5.21
					C378.52,457.86,377.96,453.87,379.92,450.98z"/>
			</g>
			<g>
				<path style="fill:#0F293A;" d="M521.86,572.22l8.38-10.43c1.87-2.33,1.5-5.76-0.83-7.63L401.48,451.31
					c-2.33-1.87-5.76-1.5-7.63,0.83l-8.39,10.43c-1.87,2.33-1.5,5.76,0.83,7.63l127.93,102.86
					C516.55,574.93,519.98,574.56,521.86,572.22z"/>
			</g>
			<g>
				<path style="fill:#1C3E51;" d="M386.21,461.93c0.26-0.51,0.56-1.01,0.94-1.47l1.24-1.55l136.4,109.66l-1.24,1.55
					c-0.37,0.46-0.79,0.87-1.24,1.23L386.21,461.93z"/>
			</g>
			<g>
				<path style="fill:#1C3E51;" d="M385.37,465.48l133.66,107.46c-2.35,0.54-4.91,0.05-6.92-1.57L388.39,471.9
					C386.38,470.27,385.35,467.88,385.37,465.48z"/>
			</g>
			<g>
				<path style="fill:#EAF2F5;" d="M514.16,571.61c0.01-0.24,5.7-7.14,6.91-8.6c1.17-1.49,6.68-8.53,6.91-8.59
					c0,0,9.83,7.34,16.35,27.19l-4.34-3.39l4.24,3.51C523.44,579.64,514.16,571.61,514.16,571.61z"/>
			</g>
			<g>
				<path style="fill:#A5A7A8;" d="M525.52,577.58c-7.74-2.86-11.35-5.97-11.35-5.97c0-0.08,0.62-0.88,1.49-1.96L525.52,577.58z"/>
			</g>
			<g>
				<path style="fill:#A5A7A8;" d="M517.71,567.09c0.33-0.4,0.65-0.8,0.97-1.19l18.43,14.81c-1.15-0.21-2.25-0.45-3.3-0.69
					L517.71,567.09z"/>
			</g>
			<g>
				<path style="fill:#A5A7A8;" d="M520.77,563.38c0.12-0.14,0.22-0.26,0.3-0.36c1.17-1.49,6.68-8.53,6.91-8.59
					c0,0,9.83,7.34,16.35,27.19l-4.34-3.39l4.24,3.51c-0.24-0.02-0.48-0.05-0.71-0.08L520.77,563.38z"/>
			</g>
			<g>
				<path style="fill:#5F6466;" d="M540.03,580.61c-0.01-0.05,0.95-1.19,1.15-1.43c0.19-0.25,1.1-1.43,1.15-1.43
					c0,0,2.49,1.91,4.8,6.2l-1.11-0.87l1.09,0.89C542.43,582.64,540.03,580.61,540.03,580.61z"/>
			</g>
			<g>
				<path style="fill:#EA9E24;" d="M476.31,542.09l15.36-19.11c0.6-0.75,0.48-1.86-0.27-2.46l0,0c-0.75-0.6-1.86-0.48-2.46,0.27
					l-15.36,19.11c-0.6,0.75-0.48,1.86,0.27,2.46l0,0C474.59,542.96,475.7,542.84,476.31,542.09z"/>
			</g>
			<g>
				<path style="fill:#EA9E24;" d="M516.24,572.79l12.9-16.04c0.98-1.22,0.79-3.02-0.43-4l0,0c-1.22-0.98-3.02-0.79-4,0.43
					l-12.9,16.04c-0.98,1.22-0.79,3.02,0.43,4l0,0C513.45,574.2,515.25,574.01,516.24,572.79z"/>
			</g>
			<g>
				<path style="fill:#EA9E24;" d="M403.28,484.77l16.18-20.13c0.53-0.66,0.42-1.63-0.23-2.15l0,0c-0.66-0.53-1.63-0.42-2.15,0.23
					l-16.19,20.13c-0.53,0.66-0.42,1.63,0.23,2.15l0,0C401.78,485.55,402.75,485.43,403.28,484.77z"/>
			</g>
			<g>
				<path style="fill:#EA9E24;" d="M395.95,490.4c2.26,1.82,5.57,1.46,7.39-0.8c1.82-2.26,1.46-5.57-0.8-7.39
					c-2.26-1.82-5.57-1.46-7.39,0.8C393.32,485.27,393.68,488.59,395.95,490.4z"/>
			</g>
			<g>
				<path style="fill:#EA9E24;" d="M455.6,539.84c3.46-4.3,1.35-10.89-2.53-15.8c-3.82-4.84-13.9-7.96-24.57-11.26
					c-12.91-4-27.53-8.52-30.47-16.18c-1.08-2.82-0.54-5.99,1.65-9.67c0.46-0.78,0.21-1.79-0.57-2.25s-1.79-0.21-2.25,0.57
					c-2.71,4.54-3.35,8.76-1.9,12.53c3.51,9.14,18.28,13.71,32.57,18.14c10.17,3.15,19.78,6.12,22.96,10.16
					c2.24,2.84,5.54,9.06,2.01,12.27c-0.67,0.61-0.72,1.65-0.11,2.32c0.61,0.67,1.65,0.72,2.32,0.11
					C455.04,540.49,455.34,540.18,455.6,539.84z"/>
			</g>
			<g>
				<path style="fill:#EA9E24;" d="M451.44,544.02c1.98,1.59,4.87,1.28,6.46-0.7c1.59-1.98,1.28-4.87-0.7-6.46s-4.87-1.28-6.46,0.7
					C449.15,539.53,449.47,542.43,451.44,544.02z"/>
			</g>
		</g>
		<circle style="fill:#FFFFFF;" cx="437.84" cy="595.15" r="3.74"/>
		<circle style="fill:#FFFFFF;" cx="370.45" cy="526.26" r="6.74"/>
		<circle style="fill:#FFFFFF;" cx="416.12" cy="549.47" r="2.99"/>
		<circle style="fill:#FFFFFF;" cx="348.74" cy="474.6" r="2.99"/>
		<circle style="fill:#FFFFFF;" cx="872.1" cy="403.46" r="6.74"/>
		<circle style="fill:#FFFFFF;" cx="846.64" cy="355.55" r="2.25"/>
		<circle style="fill:#FFFFFF;" cx="917.02" cy="354.06" r="3.74"/>
		<circle style="fill:#FFFFFF;" cx="932.75" cy="311.38" r="1.5"/>
		<circle style="fill:#FFFFFF;" cx="436.34" cy="265.71" r="2.25"/>
		<circle style="fill:#FFFFFF;" cx="452.06" cy="302.4" r="2.99"/>
		<path style="opacity:0.76;fill:#FFF8EA;enable-background:new    ;" d="M533.67,371.27h-4.49c-5.35,0-9.73-4.38-9.73-9.73l0,0
			c0-5.35,4.38-9.73,9.73-9.73h4.49c5.35,0,9.73,4.38,9.73,9.73l0,0C543.41,366.9,539.03,371.27,533.67,371.27z"/>
		<path style="opacity:0.76;fill:#FFF8EA;enable-background:new    ;" d="M788.99,482.09h-4.49c-5.35,0-9.73-4.38-9.73-9.73l0,0
			c0-5.35,4.38-9.73,9.73-9.73h4.49c5.35,0,9.73,4.38,9.73,9.73l0,0C798.72,477.71,794.34,482.09,788.99,482.09z"/>
	</g>
</g>
<g id="DESIGNED_BY_FREEPIK">
</g>
</svg>
