<?xml version="1.0" encoding="utf-8"?>
<!-- Generator: Adobe Illustrator 26.0.0, SVG Export Plug-In . SVG Version: 6.00 Build 0)  -->
<svg version="1.1" id="Слой_1" xmlns="http://www.w3.org/2000/svg" xmlns:xlink="http://www.w3.org/1999/xlink" x="0px" y="0px"
	 viewBox="0 0 5023.95 1999.96" style="enable-background:new 0 0 5023.95 1999.96;" xml:space="preserve">
<rect style="fill:#F9F6E6;" width="5023.95" height="1999.96"/>
<g>
	<path style="opacity:0.13;fill:#FBB040;" d="M1129.9,1875.05c0,0-327.97-286.64-264.22-758.63
		c66.01-488.72,413.03-748.73,865.76-650.05c370.05,80.67,608.45,28.92,991.13-201.66c627.53-378.12,1436.35,31.24,1224.76,763.87
		c-102.4,354.54,327.35,529.73-32.37,847.22L1129.9,1875.05z"/>
	<g>
		<path style="fill:#D1D3D4;" d="M3069.44,602.07c0,0,203.72-205.91,264-161.31S3069.44,602.07,3069.44,602.07z"/>
		<path style="fill:#D1D3D4;" d="M3055.45,640.91c0,0,385.01-186.6,480.17-97.02c95.16,89.58-104.65,84.25-178.83,76.16
			C3282.61,611.96,3055.45,640.91,3055.45,640.91z"/>
		<path style="fill:#D1D3D4;" d="M3037.75,598.64c0,0,1.54-9.88,3.6-24.34c4.03-28.2,10.07-73.83,10.65-97.51
			c0.88-35.82,28.87-62.09,61.56-26.64c32.68,35.45-63.97,138.31-63.97,138.31L3037.75,598.64z"/>
	</g>
	<path style="fill:#D1D3D4;" d="M2026.99,953.19c17.83-57.9,115.82-36.25,115.82-36.25s63.45,104.57,82.85,107.67
		c19.4,3.1-36.79-100-36.79-100c37.87-2.36,132.46,47.21,132.46,47.21s-10.18,119.1,9.38,117.34c19.56-1.77,3.64-105.92,3.64-105.92
		c36.15,12.21,68.77,55.99,68.77,55.99c40.23,70.86-52.84,118.86-52.84,118.86s-2.64,41.35,21.3,89.71l0,0
		c0,0,5.47,8.96,10.82,24.07l-9.96-0.34c-0.72-2.7-1.53-5.31-2.44-7.82c0-0.02,0-0.03-0.02-0.05c-0.01-0.04-0.03-0.07-0.04-0.11
		c-0.63-1.56-1.53-3.78-2.66-6.49c0,0,0-0.01,0-0.01c0-0.01-0.01-0.01-0.01-0.01c-2.84-6.06-4.74-10.53-5.93-13.75
		c0-0.01-0.01-0.02-0.01-0.03c-8.47-19.01-20.77-43.82-29.35-49.23c0,0,1.16-1.51,2.29-4.49c-0.73,1.43-1.49,2.93-2.29,4.49
		c-18.3,35.94-103.73,39.1-150.88,27.73c-47.15-11.37-25.99-24.05,0.32-44.91c26.31-20.86,79.69-13.29,95.81-21.27
		c16.12-7.98-6.72-17.3-38.46-15.95c-31.74,1.35-48.65,32.46-99.95,35.57c-51.3,3.11-86.96-94.4-86.96-94.4
		c34.93,12.17,98.91-5.14,101.76-17.23c2.85-12.09-90.93-14.09-105.42-18.25C2033.71,1041.18,2009.15,1011.09,2026.99,953.19z"/>
	<path style="fill:#D1D3D4;" d="M3522.14,1025.94c-18.05-46.69-97.56-23.17-97.56-23.17s-46.25,89.86-62.05,93.54
		c-15.81,3.68,24.54-84.55,24.54-84.55c-31.35,0.25-106.45,46.58-106.45,46.58s15.29,97.58-0.94,97.26
		c-16.23-0.32-9.13-87.09-9.13-87.09c-29.09,12.16-53.45,50.13-53.45,50.13c-29.06,60.73,50.43,94.91,50.43,94.91
		s4.57,33.93-12.36,75.18v0c0,0-3.99,7.71-7.53,20.46l8.19-0.86c0.44-2.27,0.95-4.47,1.56-6.59c0-0.02,0-0.03,0.01-0.04
		c0.01-0.03,0.02-0.06,0.03-0.09c0.43-1.32,1.05-3.21,1.82-5.51c0,0,0-0.01,0-0.01c0,0,0.01-0.01,0-0.01
		c1.99-5.16,3.3-8.95,4.09-11.68c0-0.01,0.01-0.02,0.01-0.02c5.89-16.16,14.58-37.32,21.34-42.27c0,0-1.04-1.18-2.15-3.57
		c0.68,1.14,1.4,2.33,2.15,3.57c17.16,28.56,87.76,26.22,125.96,14.13c38.2-12.1,20.03-21.33-2.86-37
		c-22.9-15.67-66.45-6.34-80.2-11.99c-13.75-5.64,4.54-14.64,30.78-15.37c26.24-0.72,41.98,23.94,84.44,23.54
		c42.46-0.4,66.21-82.84,66.21-82.84c-28.09,12.05-81.82,1.49-84.87-8.31c-3.05-9.8,74.14-16.88,85.83-21.14
		C3521.68,1098.86,3540.19,1072.63,3522.14,1025.94z"/>
	<path style="fill:#D1D3D4;" d="M2081.46,405.54c46.2-89.8,200.69-25.62,200.69-25.62s73.56,190.17,104.48,200.93
		c30.93,10.77-31.14-174.87-31.14-174.87c62.84,7.2,203.59,116.21,203.59,116.21s-51.54,192.49-18.92,195.32
		c32.62,2.82,36.94-172.77,36.94-172.77c55.75,30.61,96.5,112.01,96.5,112.01c45.3,128.06-121.47,179.62-121.47,179.62
		s-16.42,67.1,8.72,153.46c0,0,0,0,0,0s6.35,16.31,10.72,42.66l-16.24-3.47c-0.4-4.64-0.96-9.16-1.71-13.55
		c0.01-0.03,0-0.05-0.02-0.08c-0.01-0.06-0.02-0.13-0.03-0.19c-0.58-2.75-1.41-6.66-2.48-11.44c0-0.01,0-0.01,0-0.02
		c0-0.01-0.01-0.01-0.01-0.02c-2.88-10.77-4.7-18.67-5.72-24.3c0-0.02-0.01-0.03-0.01-0.05c-8.35-33.67-21.27-77.98-33.78-89.37
		c0,0,2.34-2.14,5.07-6.71c-1.62,2.14-3.3,4.37-5.07,6.71c-40.54,53.63-181.68,33.84-255.73,1.39
		c-74.05-32.45-35.62-47.07,13.66-73.61c49.28-26.54,134.67,1.49,163.45-6.89c28.79-8.38-5.97-30.35-58.45-37.42
		c-52.48-7.07-89.34,39.04-174.44,29.16c-85.11-9.89-115.11-180.36-115.11-180.36c53.77,30.19,163.83,20.49,172.05,1.48
		c8.22-19.01-145.12-49.72-167.68-60.77C2066.78,551.92,2035.27,495.34,2081.46,405.54z"/>
	<g>
		<rect x="2316.3" y="537.13" style="fill:#FFFFFF;" width="989.27" height="1337.78"/>
		<rect x="2347.18" y="563.17" style="fill:#E6E7E8;" width="918.95" height="1278.3"/>
		<g>
			<defs>
				<rect id="SVGID_1_" x="2409.92" y="650.26" width="240.74" height="240.74"/>
			</defs>
			<use xlink:href="#SVGID_1_"  style="overflow:visible;fill:#FFFFFF;"/>
			<clipPath id="SVGID_00000103256296817676620810000012073109680285408909_">
				<use xlink:href="#SVGID_1_"  style="overflow:visible;"/>
			</clipPath>
			<g style="clip-path:url(#SVGID_00000103256296817676620810000012073109680285408909_);">
				<polygon style="fill:#88A0E2;" points="2610.23,1123.82 2419.88,1123.82 2556.34,817.85 2603.55,923.62 2620.8,1026.48 				"/>
				<path style="fill:#FFFFFF;" d="M2461.6,825.76l30.49-7.91l29.62-10.5c0,0,17.19,8.21,29.44,10.5
					c13.34,2.48,57.85,76.85,57.85,79.96c0,3.11-34.81,224.51-34.81,224.51h-168.05L2461.6,825.76z"/>
				<path style="fill:#FFB27D;" d="M2545.03,829.92c-15.08,2.6-37.07-1.06-52.97-12.08c7.7-17.24,11.01-30.93,12.28-39.8
					c0.07-0.47,0.13-0.93,0.19-1.37c0.59-4.6,0.59-7.73,0.4-9.17l38.82,0.91c0,0,10.5,5.1,10.42,8.45
					c-0.04,1.79-0.07,3.51-0.07,5.15c-0.03,4.47,0.06,8.37,0.22,11.72c0.48,10.91,2.03,24.12,2.03,24.12
					S2560.26,827.3,2545.03,829.92z"/>
				<path style="fill:#E2915A;" d="M2554.31,793.72c-29.54,5-46.24-11.47-49.97-15.68c-0.53-0.6-0.8-0.96-0.8-0.96
					c0.31-0.15,0.64-0.28,0.99-0.41c11.05-4.18,36.24-1.95,50,3.46C2554.5,784.59,2554.16,790.37,2554.31,793.72z"/>
				<path style="fill:#FFB27D;" d="M2493.47,764.72c10,26.98,45.82,19.85,61.06,15.41c4.29-1.24,6.95-2.28,6.95-2.28
					c4.7-2.17,6.11-10.42,5.63-20.82c-0.95-20.58-9.27-49.59-13.97-56.57c-7.09-10.49-18.86-21.13-53.55-5.99
					C2464.88,709.63,2480.64,730.15,2493.47,764.72z"/>
				<path style="fill:#233862;" d="M2549.86,676.55c-12.3-9.06-23.26-11.04-31.25-11.15c-23.63-0.31-41.97,11.64-42.07,11.7
					c-27.34,18.13-31.15,42.1-9.37,74.65c23.04,34.42,37.08,26.85,37.08,26.85s-2.69-0.86-4.4-12.54c-0.1-0.66-0.17-1.22-0.22-1.7
					c-0.26-2.41-1.51-4.65-3.57-5.93c-4.24-2.64-7.75-12.26-5.15-15.55c3.14-3.97,9.05-0.83,11.26,2c1.84,1.95,4.58,2.27,6.74,0.31
					c8.2-7.42,0.21-18.03,7.77-26.67c7.57-8.65,52.95-4.76,55.93-30.28C2572.62,688.25,2561.27,684.97,2549.86,676.55z"/>
				<path style="fill:#BCBEC0;" d="M2556.34,817.85c0,0,47.68,98.37,53.89,174.33c6.22,75.96,0,131.65,0,131.65
					s31-74.13,33.94-161.96c1.31-39.04-4.95-109.72-18.21-122.22C2619.49,833.53,2600.08,827.71,2556.34,817.85z"/>
				<path style="fill:#BCBEC0;" d="M2503.24,947.93c-0.15,11.23-0.59,22.98-1.39,35.13c-2.8,42.67-10.08,90.43-25.27,139.25h-156.03
					c0,0,19.33-47,42.69-98.08c4.09-8.95,8.31-18.02,12.56-26.98c17.26-36.37,35.2-71,48.32-88.49
					c34.81-46.42,67.97-90.9,67.97-90.9S2504.28,871.09,2503.24,947.93z"/>
				<path style="fill:#9DB0F4;" d="M2460.42,1018.4c0,0-32.04,12.71-97.18,5.83c4.09-8.95,8.31-18.02,12.56-26.98L2460.42,1018.4z"
					/>
				<path style="fill:#9DB0F4;" d="M2503.24,947.93c-0.15,11.23-0.59,22.98-1.39,35.13c-21-1.14-96.08-5.27-95.73-6.34
					c0.41-1.24,6.95-29.84,6.95-29.84s63.12,15.33,90.05,0L2503.24,947.93z"/>
				<path style="fill:#FFB27D;" d="M2473.85,981.69c0,0,22.38-13.29,32.74-12.65c10.36,0.63,26.94,3.95,29.42,12.65
					c2.49,8.7-3.73,4.46-17.61,7.16c-8.19,1.6-13.2,13.35-23.83,14.39c-4.15,0.4-20.72-2.9-20.72-2.9V981.69z"/>
				<path style="fill:#BCBEC0;" d="M2492.09,817.85c0,0-57.28,6.77-72.2,20.86c-25.23,23.83-91.59,113.94-85.03,153.46
					c4.35,26.23,125.57,26.23,125.57,26.23s14.97-9.7,20.47-18.47c11.19-17.82,7.32-30.89,7.32-30.89l-74.97-25.48
					c0,0,36.57-35.45,64.75-37.3C2498.61,904.91,2492.09,817.85,2492.09,817.85z"/>
			</g>
		</g>
		<g>
			<g>
				<rect x="2714.36" y="798.12" style="fill:#BCBEC0;" width="301.67" height="6.05"/>
				<rect x="2714.36" y="826.37" style="fill:#BCBEC0;" width="301.67" height="6.05"/>
				<rect x="2714.36" y="854.96" style="fill:#BCBEC0;" width="301.67" height="6.05"/>
			</g>
			<rect x="2714.36" y="632.26" style="fill:#FFFFFF;" width="92.3" height="92.3"/>
			<rect x="2899.03" y="704.37" style="fill:#BCBEC0;" width="116.99" height="10.65"/>
			<rect x="2873.56" y="729.3" style="fill:#BCBEC0;" width="142.47" height="10.65"/>
		</g>
		<g>
			<g>
				<g>
					<defs>
						
							<rect id="SVGID_00000022554739086808380930000014421685599498307508_" x="2409.92" y="1334.18" width="240.74" height="240.74"/>
					</defs>
					<use xlink:href="#SVGID_00000022554739086808380930000014421685599498307508_"  style="overflow:visible;fill:#FFFFFF;"/>
					<clipPath id="SVGID_00000118355833772929749200000011432106131264715149_">
						<use xlink:href="#SVGID_00000022554739086808380930000014421685599498307508_"  style="overflow:visible;"/>
					</clipPath>
					<g style="clip-path:url(#SVGID_00000118355833772929749200000011432106131264715149_);">
						<path style="fill:#BCBEC0;" d="M2458.44,1509.67l30.49-7.91l29.62-10.5c0,0,17.19,8.21,29.44,10.5
							c13.34,2.48,57.85,76.85,57.85,79.96c0,3.11,1.24,226.02,1.24,226.02l-204.11-1.51L2458.44,1509.67z"/>
						<path style="fill:#FFB27D;" d="M2541.88,1513.83c-15.09,2.6-37.07-1.06-52.97-12.08c7.7-17.24,11.01-30.92,12.28-39.8
							c0.07-0.47,0.13-0.93,0.19-1.37c0.59-4.6,0.59-7.73,0.4-9.17l38.82,0.9c0,0,10.5,5.1,10.42,8.45
							c-0.04,1.79-0.07,3.51-0.07,5.15c-0.03,4.47,0.06,8.37,0.22,11.72c0.48,10.91,2.03,24.12,2.03,24.12
							S2557.11,1511.21,2541.88,1513.83z"/>
						<path style="fill:#E2915A;" d="M2551.16,1477.64c-29.54,5-46.24-11.47-49.97-15.68c-0.53-0.6-0.8-0.96-0.8-0.96
							c0.31-0.15,0.64-0.28,0.99-0.41c11.05-4.18,36.24-1.95,50,3.46C2551.34,1468.51,2551,1474.29,2551.16,1477.64z"/>
						<path style="fill:#FFB27D;" d="M2490.31,1448.64c10,26.98,45.82,19.85,61.06,15.41c4.29-1.24,6.95-2.28,6.95-2.28
							c4.71-2.17,6.11-10.42,5.63-20.82c-0.94-20.58-9.27-49.59-13.97-56.57c-7.09-10.49-18.86-21.13-53.55-5.99
							C2461.72,1393.55,2477.49,1414.07,2490.31,1448.64z"/>
						<path style="fill:#A9453D;" d="M2546.7,1360.47c-12.3-9.06-23.26-11.04-31.25-11.15c-23.63-0.31-41.97,11.64-42.07,11.7
							c-27.34,18.13-31.15,42.1-9.37,74.65c23.04,34.42,37.09,26.85,37.09,26.85s-2.69-0.86-4.4-12.54c-0.1-0.66-0.17-1.22-0.22-1.7
							c-0.26-2.41-1.51-4.65-3.57-5.93c-4.24-2.64-7.75-12.26-5.15-15.55c3.14-3.98,9.05-0.83,11.26,2
							c1.84,1.95,4.58,2.27,6.74,0.31c8.2-7.41,0.21-18.02,7.77-26.67c7.57-8.65,52.95-4.76,55.93-30.28
							C2569.47,1372.16,2558.12,1368.88,2546.7,1360.47z"/>
						<path style="fill:#BCBEC0;" d="M2553.18,1501.76c0,0,47.68,98.37,53.89,174.33c6.22,75.96,0,131.65,0,131.65
							s31-74.13,33.94-161.96c1.31-39.04-4.95-109.72-18.21-122.22C2616.34,1517.45,2596.92,1511.62,2553.18,1501.76z"/>
						<path style="fill:#BCBEC0;" d="M2488.93,1501.76L2488.93,1501.76L2488.93,1501.76c0,0-57.28,6.77-72.2,20.86
							c-25.23,23.83-91.59,113.94-85.03,153.46c1.45,8.77,35.43,35.54,54.11,39.42c4.73,37.19-6.99,92.22-6.99,92.22l94.61-1.51
							c15.19-48.82,22.47-96.57,25.27-139.25c0.8-12.15,1.23-23.89,1.39-35.13C2501.13,1555.01,2488.93,1501.76,2488.93,1501.76z"/>
						<path style="fill:#808285;" d="M2496.4,1491.61c0,0,23.97,19.6,38.17,23.02c0,0-13.19,6.98-54.61-11.62
							C2479.97,1503.01,2485.95,1492.92,2496.4,1491.61z"/>
						<path style="fill:#808285;" d="M2551.97,1489.6c0,0,2.72,8.17,6.92,13.46c0,0-3.69,13.06-24.32,11.57
							C2534.57,1514.63,2552.78,1501.56,2551.97,1489.6z"/>
						<path style="fill:#808285;" d="M2518.29,1506.98l28.44-3.47c0,0-0.89,16.68-9.45,23.33
							C2534.16,1529.26,2517.93,1509.94,2518.29,1506.98z"/>
						<path style="fill:#808285;" d="M2530.97,1517.15c0,0,6.54,119.02,3.45,171.65c-1.71,29.08-5.93,71-5.25,75.06
							c0.68,4.06,19.99,22.99,19.99,22.99s19-17.7,19.46-25.36c0.45-7.66,5.86-119.02-27.86-245.58
							C2539.59,1511.58,2530.97,1517.15,2530.97,1517.15z"/>
					</g>
					<path style="clip-path:url(#SVGID_00000118355833772929749200000011432106131264715149_);fill:#C5D7FF;" d="M2493.86,1489.6
						c0,0-7.3,0.5-20.15,15.38c0,0,20.74,17.81,39.67,22.32c0,0-0.78-13.81,4.91-20.31L2493.86,1489.6z"/>
					<path style="clip-path:url(#SVGID_00000118355833772929749200000011432106131264715149_);fill:#C5D7FF;" d="M2551.97,1489.6
						l-9.96,14.76c0,0,10.14,7.61,13.52,16.74c0,0,6.97-11.36,6.36-17.35C2561.89,1503.75,2557.2,1491.4,2551.97,1489.6z"/>
				</g>
			</g>
			<g>
				<g>
					<rect x="2714.36" y="1506.03" style="fill:#BCBEC0;" width="318.93" height="6.05"/>
					<rect x="2714.36" y="1534.28" style="fill:#BCBEC0;" width="318.93" height="6.05"/>
					<rect x="2714.36" y="1562.87" style="fill:#BCBEC0;" width="318.93" height="6.05"/>
				</g>
				<rect x="2714.36" y="1340.17" style="fill:#FFFFFF;" width="92.3" height="92.3"/>
				<rect x="2909.6" y="1412.28" style="fill:#BCBEC0;" width="123.68" height="10.65"/>
				<rect x="2882.67" y="1437.22" style="fill:#BCBEC0;" width="150.62" height="10.65"/>
			</g>
		</g>
		<g>
			<g>
				<rect x="2409.92" y="986.5" style="fill:#FFFFFF;" width="240.74" height="240.74"/>
				<g>
					<g>
						<g>
							<path style="fill:#233862;" d="M2555.3,1007.07c-14.76-4.1-35.12-0.68-38.49-0.41c-40.33,3.2-51.6,65.27-49.26,82.82
								c4.33,32.35-11.46,40.85-30.82,65.89c-21.12,27.31-23.68,52.6-16.82,71.86h102.4c21.96-19.31,51.96-45.79,70.79-62.19
								c2.62-0.97,4.99-2.2,7.11-3.68C2641.37,1132.99,2591.05,1016.98,2555.3,1007.07z"/>
							<path style="fill:#FFB27D;" d="M2558.49,1154.46c0.18,0.07-16.75,10.27-30.15,7.5c-12.6-2.59-25.41-19.63-25.24-19.68
								c5.18-1.37,9.93-7.19,7.87-38.16l2.4,0.32l40.37,5.38c0,0-0.11,12.61,0.61,24.43
								C2554.95,1144.17,2556.15,1153.54,2558.49,1154.46z"/>
							<path style="fill:#ED975D;" d="M2553.74,1109.81c0,0-0.11,12.61,0.61,24.43c-22.35,0.78-35.43-18.83-40.98-29.81
								L2553.74,1109.81z"/>
							<path style="fill:#FFB27D;" d="M2561.9,1120.54c0,0-52.74,4.21-54.85-28.68c-2.11-32.88-10.34-54.49,23.24-58.56
								c33.58-4.08,40.94,8.05,44.31,18.85C2577.97,1062.96,2575.57,1118.59,2561.9,1120.54z"/>
							<path style="fill:#233862;" d="M2568.96,1035.1c0,0-26.69,35.37-48.51,42.47c-21.82,7.11-31.82,1.77-31.82,1.77
								s10.79-13.77,14.89-33.1c1.21-5.7,5.37-10.33,10.93-12.05C2530.09,1029.37,2560.16,1022.21,2568.96,1035.1z"/>
							<path style="fill:#233862;" d="M2547.9,1037c0,0,13.27,8.24,18.43,15.36c4.98,6.87,9.91,24.82,8.81,32.61
								c0,0,9.91-36.95-3.27-51.01C2557.9,1019.06,2547.9,1037,2547.9,1037z"/>
							<path style="fill:#BCBEC0;" d="M2606.2,1170.55c-0.93-3.42-3.08-6.48-6-9.18c-13.85-12.92-44.97-18.19-44.97-18.19v0.01
								c0,0-0.01,0.12-0.07,0.34v0.03c-0.45,1.66-2.81,8.33-13.31,8.33c-7.09,0-17.88-3.06-34.28-12.74
								c-0.08-0.05-0.16-0.09-0.24-0.15c-0.01-0.01-0.03,0-0.03-0.01v-0.01c0,0-43.12,2.65-58.03,23.47
								c-8.1,11.29-19.26,36.77-28.56,64.8h200.96C2614.78,1202,2608.37,1178.48,2606.2,1170.55z"/>
						</g>
					</g>
				</g>
			</g>
			<g>
				<g>
					<rect x="2714.36" y="1155.92" style="fill:#BCBEC0;" width="313.03" height="6.05"/>
					<rect x="2714.36" y="1184.17" style="fill:#BCBEC0;" width="313.03" height="6.05"/>
					<rect x="2714.36" y="1212.76" style="fill:#BCBEC0;" width="313.03" height="6.05"/>
				</g>
				<rect x="2714.36" y="990.06" style="fill:#FFFFFF;" width="92.3" height="92.3"/>
				<rect x="2885.52" y="1062.17" style="fill:#BCBEC0;" width="130.5" height="10.65"/>
				<rect x="2857.1" y="1087.1" style="fill:#BCBEC0;" width="158.92" height="10.65"/>
			</g>
			<polygon style="fill:#233862;" points="2731.81,1028.26 2760.51,1067.83 2794.7,1004.59 2755.02,1040.66 			"/>
		</g>
		<g>
			<rect x="2573.43" y="1700.8" style="fill:#BCBEC0;" width="316.76" height="5.31"/>
			<rect x="2573.43" y="1726.18" style="fill:#BCBEC0;" width="316.76" height="5.31"/>
			<rect x="2573.43" y="1756.88" style="fill:#BCBEC0;" width="316.76" height="5.31"/>
		</g>
		<g>
			<path style="fill:#BCBEC0;" d="M2441.63,1712.13c4.26-6,8.72-16.53,5.34-23.95c-3.1-6.81-9.22-3.66-13.38,0.29
				c-6.21,5.88-9.73,13.97-12.38,21.95c-3.23,9.73-5.87,19.88-6.92,30.1c-0.85,8.22-1.4,20.9,3.89,27.92
				c4.5,5.96,11.73,1.07,16.72-1.73c15.75-8.83,28.87-22.94,32.51-41.01c0.47-2.33-2.41-4.46-4.24-2.47
				c-3.62,3.93-6.04,8.73-6.19,14.16c-0.08,2.98,0.19,7.71,3.78,8.57c4.22,1.01,7.51-4.85,9.33-7.65
				c3.66-5.63,5.89-11.94,6.99-18.53c-1.63-0.45-3.26-0.9-4.89-1.35c-0.7,4.8,0.16,13.35,7.28,11.87c6.74-1.4,7.3-12.98,7.51-18.17
				c0.11-2.82-4.42-3.51-4.98-0.67c-0.93,4.69-0.89,9.29,0.6,13.87c0.75,2.31,1.88,4.34,2.98,6.5c1.07,1.72,1.98,3.52,2.73,5.41
				c1.59,3.88,0.22,5.53-4.1,4.95c-0.5,1.24-1.01,2.48-1.52,3.72c11.95-4.7,24.94-11.16,25.6-25.66c0.15-3.26-4.92-3.26-5.07,0
				c-0.54,11.9-12.3,17.01-21.87,20.77c-1.58,0.62-2.32,2.15-1.52,3.73c2.78,5.49,10.42,4.93,13-0.52c1.71-3.61,0.9-7.55-0.71-11.03
				c-3.23-7-6.83-12.27-5.22-20.4c-1.66-0.23-3.32-0.45-4.98-0.67c-0.11,2.74-0.36,5.43-1.12,8.09c-0.21,0.96-0.53,1.88-0.93,2.77
				c-0.8,3.16-1.72,2.09-2.77-3.21c0.46-3.17-4.35-4.59-4.89-1.35c-1.03,6.19-3.03,12.04-6.48,17.32c-1.57,2.4-3.89,7.21-3.66,1.64
				c0.17-4.15,1.95-7.59,4.7-10.58c-1.41-0.82-2.83-1.64-4.24-2.47c-2.39,11.85-9.03,21.89-18.19,29.67
				c-4.37,3.71-10.04,8.32-15.57,10.21c-2.14,0.73-5.6,0.91-7.49-0.93c-0.75-0.73-1.02-3.57-1.24-4.59
				c-0.86-4.02-1.13-8.15-1.04-12.25c0.28-12.94,3.89-26.5,8.47-38.57c2.2-5.79,5.17-11.55,9.72-15.84c5.77-5.45,5.8,3.21,4.96,7.16
				c-0.81,3.82-2.64,7.21-4.89,10.36C2435.36,1712.24,2439.76,1714.77,2441.63,1712.13L2441.63,1712.13z"/>
		</g>
	</g>
	<path style="fill:#2E3552;" d="M4163.51,1878.64H906.14c-1.64,0-2.98-1.34-2.98-2.98v-2.31c0-1.64,1.34-2.98,2.98-2.98h3257.37
		c1.64,0,2.98,1.34,2.98,2.98v2.31C4166.49,1877.3,4165.15,1878.64,4163.51,1878.64z"/>
	<g>
		<g>
			<path style="fill:#FFB27D;" d="M3014.03,1857.22c-0.91,12.42-18.44,12.56-38.33,10.25c-19.89-2.31-14.6,2.73-42.45,3.11
				c-27.85,0.39-37.45-8.82-38.79-12.8c-1.2-3.53,12.21-6.5,26.56-10c1.8-0.43,3.62-0.89,5.43-1.35
				c16.18-4.11,26.89-16.22,40.73-26.79c13.11-10.02,30.02-46.26,30.02-46.26l38.04-1.72c0,0-16.02,32.49-22.04,46.5
				c-3.54,8.24-2.03,18.36-0.49,26.13C3013.53,1848.52,3014.36,1852.84,3014.03,1857.22z"/>
			<path style="fill:#233862;" d="M2975.7,1867.46c-19.89-2.31-14.6,2.73-42.45,3.11c-27.85,0.39-37.45-8.82-38.79-12.8
				c-1.2-3.53,12.21-6.5,26.56-10l0.17,0.26c0,0,17.93,9.62,40.86,7.32c18.69-1.87,37.76-9.67,50.66-11.07
				c0.82,4.23,1.65,8.55,1.32,12.92C3013.12,1869.64,2995.59,1869.77,2975.7,1867.46z"/>
		</g>
		<g>
			<path style="fill:#FFB27D;" d="M3276.76,1859.79c-0.9,12.42-18.43,12.57-38.32,10.29c-19.89-2.29-14.6,2.74-42.45,3.16
				c-27.85,0.42-37.45-8.78-38.81-12.76c-1.2-3.53,12.2-6.52,26.55-10.02c1.8-0.43,3.61-0.89,5.43-1.35
				c16.18-4.13,26.88-16.25,40.71-26.84c13.1-10.03,0.01-69.4,0.01-69.4l41.84-4.07c0,0-2.01,49.99-1.98,72.72
				c0.01,8.97,4.14,17.59,5.68,25.36C3276.26,1851.1,3277.08,1855.42,3276.76,1859.79z"/>
			<path style="fill:#233862;" d="M3238.44,1870.08c-19.89-2.29-14.6,2.74-42.45,3.16c-27.85,0.42-37.45-8.78-38.81-12.76
				c-1.2-3.53,12.2-6.52,26.55-10.02l0.17,0.26c0,0,17.94,9.61,40.87,7.28c18.69-1.89,37.75-9.71,50.65-11.12
				c0.83,4.23,1.65,8.54,1.33,12.92C3275.86,1872.22,3258.33,1872.37,3238.44,1870.08z"/>
		</g>
		<path style="fill:#A9453D;" d="M3154.65,833.64c-7.2-29.63,3.24-43.42,12.66-50.77c4.47-10.9,9.57-18.76,14.78-21.73
			c9.51-5.41,20.9-6,28.88-5.52c-2.05-2.12-6.09-2.89-6.09-2.89c4.94-0.74,15.98,4.17,15.98,4.17
			c68.75-26.49,79.56,74.74,78.11,98.26c-1.43,23.52-1.24,51.22,34.53,69.75c68.25,35.36-22.68,168.6-22.68,168.6
			c1.73-19.01-85.96-119.3-131.71-149.34c-11.14-16.4-15.1-45.36-15.39-47.64c1.92,22.97,5.85,35.85,9.36,43.1
			C3152.22,920.43,3149.13,874.35,3154.65,833.64z"/>
		<path style="fill:#FFB27D;" d="M3181.81,945.66c-0.23,0.1,22.09,11.69,38.88,7.1c15.79-4.31,26.11-24.78,25.89-24.83
			c-6.69-1.33-8.61-10.52-8.47-50.01l-3.02,0.6l-50.83,10.07c0,0,1.16,16,1.19,31.07C3185.47,932.3,3184.71,944.31,3181.81,945.66z"
			/>
		<path style="fill:#ED975D;" d="M3184.25,888.58c0,0,1.16,16,1.19,31.07c28.45-0.8,43.48-26.75,49.64-41.13L3184.25,888.58z"/>
		<path style="fill:#D2B069;" d="M2977.42,1793.52c-2.49,7.81,3.11,15.86,11.3,16.25l19.86,0.93l21.01,0.64
			c5.26,0.16,10.28-2.13,13.6-6.21c16.77-20.58,68.4-89.15,99.71-188.79c0.88-2.79,1.81-5.62,2.79-8.49
			c20.68-60.3,63.56-136,86.15-204.52c3.6-10.91,6.82-21.19,9.72-30.91c0.93-3.11,1.83-6.17,2.69-9.18
			c16.65-57.85,21.47-95.84,25.92-136.42l-163.15,1.31C3107.03,1228.13,3072.69,1495.1,2977.42,1793.52z"/>
		<path style="fill:#FFFFFF;" d="M3129.87,1134.38c0.41,77.64-11.39,110.95-11.39,110.95s69.86,35.49,152.88,9.37
			c0.98-0.31,59.4-16.85,59.4-16.85c-1.39-3.14-12.93-55.09-14.29-57.97c-17.53-37.64-22.31-53.45-24.39-65.02
			c-3.86-21.61-3.94-43.96-2.02-65.04c5.07-55.81,20.13-102.15,20.13-102.15c-22.62-5.15-43.81-14.19-67.35-23.02
			c-5.42,6.74-21.97,13.8-36.33,13.48c-16.54-0.36-21.9-7.44-21.04-15.17c-17.62,9.81-31.69,19.07-31.69,19.07
			c-14.98,26.02-45.36,51.28-47.56,91.19C3105.69,1043.03,3129.86,1132.21,3129.87,1134.38z"/>
		<path style="fill:#5F9AA8;" d="M3270.19,1143.04c7.13,10.09,20.81,71.45,54.82,79.16c-17.53-43.73-30.84-62.9-32.92-76.34
			c-3.86-25.1-3.94-51.06-2.02-75.56c-11.39-19.96-19.89-33.64-19.89-33.64c-0.89-3.23-18.1-56.42-23.61-8.87
			C3241.08,1075.34,3262.22,1131.75,3270.19,1143.04z"/>
		<path style="fill:#FFB27D;" d="M3174.75,902.85c0,0,67.3,1.11,67.35-40.81c0.05-41.92,8.76-70.01-34.2-72.5
			c-42.97-2.48-51.34,13.51-54.75,27.5C3149.72,831.03,3157.24,901.48,3174.75,902.85z"/>
		<path style="fill:#A9453D;" d="M3177.24,788.52c0,0,18.43,49.18,46.71,56.46c28.28,7.27,40.55-0.31,40.55-0.31
			s-21.69-17.23-26.19-47.31C3238.3,797.36,3191.14,765.11,3177.24,788.52z"/>
		<path style="fill:#A9453D;" d="M3181.81,792.51c0,0-13.76,10.98-17.12,21.66c-3.36,10.68-4.86,32.65-11.27,31.91
			c0,0-13.88-33.43,1.72-52.34C3171.68,773.68,3181.81,792.51,3181.81,792.51z"/>
		<polygon style="fill:#FFB27D;" points="3068.85,1188.27 3037.06,1285.19 3055.19,1292.46 3107.75,1206.83 		"/>
		<path style="fill:#808285;" d="M3154.56,936.31c0,0-37.48,14.87-48.33,38.06c-10.85,23.19-27.27,178.73-33.82,194.71
			c-6.54,15.97-11.46,28.62-11.46,28.62s18.9,15.92,37.9,17.09C3117.86,1215.97,3154.56,936.31,3154.56,936.31z"/>
		<path style="fill:#808285;" d="M3185.48,922.95c0,0-38.94,96.2-40.08,115.66c-1.14,19.47-4.58,318.35-4.58,318.35
			s2.29,13.74-24.05,8.02c-26.34-5.73-33.21-11.45-33.21-11.45s25.19-184.37,18.32-248.5c-6.87-64.13,52.68-168.72,52.68-168.72
			L3185.48,922.95z"/>
		<path style="fill:#C49A6C;" d="M3008.58,1810.7l22.81,0.7c4.08,0.13,7.98-1.63,10.58-4.78c15.33-18.57,68.82-88.09,100.93-190.28
			c0.88-2.79,1.81-5.62,2.79-8.49c20.68-60.3,63.56-136,86.15-204.52c3.6-10.91,6.82-21.19,9.72-30.91
			c0.93-3.11,1.83-6.17,2.69-9.18l-24.03-18.23c0,0-72.13,116.81-94.46,226.73C3106.38,1667.23,3028.69,1782.13,3008.58,1810.7z"/>
		<path style="fill:#D2B069;" d="M3217.74,1581.99c-0.39,50.57,2.01,163.29,8.16,218.39c0.56,5.04,4.83,8.85,9.9,8.85h17.02
			c7.18,0,12.54-0.05,16.11-0.1c3.09-0.05,5.72-2.26,6.32-5.29c16.93-86.14,29.04-157.71,37.91-219.55
			c7.42-51.76,14.02-96.14,19.09-134.34c5.11-38.44,8.66-70.63,9.93-97.83c0.19-4.28,0.34-8.45,0.42-12.49
			c0.08-4.07,0.1-8.02,0.07-11.85l-140.97-13.74C3203.48,1407.68,3217.97,1550.92,3217.74,1581.99z"/>
		<path style="fill:#C49A6C;" d="M3252.82,1809.22c6.45,0,11.43-0.04,14.97-0.09c3.75-0.05,6.95-2.73,7.68-6.41
			c16.81-85.65,28.86-156.87,37.7-218.44c7.42-51.76,14.02-96.14,19.09-134.34c5.11-38.44,8.66-70.63,9.93-97.83l-51.73,30.43
			c0,0,33.02,11.65,20.42,99.82S3270.36,1796.74,3252.82,1809.22z"/>
		<path style="fill:#808285;" d="M3246.17,1351.24c0,0,9.93,35.88,44.28,31.3c34.36-4.58,83.21-25.19,83.21-25.19
			s-14.68-46.39-32.94-107.34c-22.1-73.78-49.46-168.9-62.35-228.89c-3.62-16.81-6.09-30.85-7.01-40.91l-28.5-55.3
			c0,0-42.5,95.38-44.79,119.43C3195.78,1068.38,3246.17,1351.24,3246.17,1351.24z"/>
		<path style="fill:#FFB27D;" d="M3280.47,1040.75l-37.62-115.84c0.1,0.05,47.51,14.11,71.36,26.15c0,0,14.91,19.22,24.13,63.55
			c0,0,9.74,106.45-12.01,145.38c0,0-68.71,13.74-178.65-24.05v-25.19c0,0,120.24,6.3,144.86,9.16L3280.47,1040.75z"/>
		<path style="fill:#939598;" d="M3247.69,1094.72c1.53,38.94,10.7,114.52,92.38,154.97c0.22,0.1,0.43,0.22,0.65,0.31
			c-22.1-73.78-49.46-168.9-62.35-228.89C3263.37,1043.53,3246.86,1073.29,3247.69,1094.72z"/>
		<path style="fill:#808285;" d="M3242.85,924.91c0,0,69.73,4.91,86.53,42.32c16.8,37.41,22.14,161.85,0.76,198.49
			c0,0-29.43,8.38-81.48-1.35c-0.64-0.12-1.28-0.24-1.92-0.37c0,0-16.61-40.65-1.72-48.67c0,0,43.9,2.29,39.32-12.21
			C3279.76,1088.62,3242.85,924.91,3242.85,924.91z"/>
		<g>
			<path style="fill:#A9453D;" d="M3068.02,1126.32l2.05,6.6l114.43-35.6c0,0,1.53-1.74,0.77-4.05c-0.83-2.55-2.83-2.55-2.83-2.55
				L3068.02,1126.32z"/>
			<polygon style="fill:#A9453D;" points="3059.74,1132.56 3068.02,1126.32 3070.07,1132.92 			"/>
		</g>
		<path style="fill:#FFB27D;" d="M3041.58,1282.54c0,0-29.03,16.04-32.85,28.26c-3.82,12.22-1.2,37.81,3.41,37.43
			c4.61-0.38,11.48-27.5,15.3-29.41c3.82-1.91,9.17-7.63,9.17-3.44c0,4.2-3.82,11.84-1.91,12.98c1.91,1.15,8.02-10.69,12.22-12.98
			c4.2-2.29,5.97-21.18,10.05-26.25C3061.06,1284.06,3041.58,1282.54,3041.58,1282.54z"/>
		<path style="fill:#FFB27D;" d="M3147.68,1110.75c0,0-25.96-15.99-36.85-13.53c-10.89,2.46-38.64,22.56-25.29,26.91
			c13.35,4.35,24.16-0.21,29.29,2.95c5.13,3.16,8.92,8.94,32.85,8.86C3171.61,1135.87,3147.68,1110.75,3147.68,1110.75z"/>
	</g>
	<g>
		<g>
			<g>
				<rect x="1740.42" y="1274.91" style="fill:#C3D2FF;" width="460.27" height="548.82"/>
				<g>
					
						<rect x="1970.23" y="1563.59" transform="matrix(-0.9009 0.434 -0.434 -0.9009 4560.1846 2224.7319)" style="fill:#B0C3F4;" width="111.74" height="138.82"/>
					<polygon style="fill:#B0C3F4;" points="2200.69,1561.04 2200.69,1721.34 2180.75,1709.82 2157.57,1696.44 2138.9,1685.66 
						2133.1,1682.32 2121.16,1675.42 2128.68,1662.4 2170.57,1589.86 2190.58,1555.2 					"/>
					
						<rect x="1998.19" y="1622.87" transform="matrix(-0.3779 0.9258 -0.9258 -0.3779 4397.1152 430.1216)" style="fill:#B0C3F4;" width="111.74" height="138.82"/>
					
						<rect x="1870.14" y="1632.59" transform="matrix(-0.8112 0.5848 -0.5848 -0.8112 4483.6763 1956.2522)" style="fill:#B0C3F4;" width="111.74" height="138.82"/>
					<polygon style="fill:#B0C3F4;" points="2200.69,1636.48 2200.69,1779.29 2178.74,1796.77 2117.7,1720.07 2115.16,1716.89 
						2109.54,1709.82 2109.15,1709.34 2128.28,1694.12 2128.29,1694.11 2138.9,1685.66 2195.15,1640.89 					"/>
					<polygon style="fill:#B0C3F4;" points="2200.69,1652.39 2200.69,1675.67 2157.57,1696.44 2129.82,1709.82 2119.93,1714.58 
						2115.16,1716.89 2109.14,1719.79 2104.34,1709.82 2089.68,1679.41 2069.93,1638.42 2048.88,1594.71 2065.75,1586.59 
						2149.54,1546.22 2170.57,1589.86 2195.15,1640.89 					"/>
					<rect x="1840.1" y="1709.82" style="fill:#B0C3F4;" width="360.59" height="113.24"/>
				</g>
				
					<rect x="1627.8" y="1274.91" transform="matrix(-1 -1.224647e-16 1.224647e-16 -1 3702.8577 3098.6414)" style="fill:#D7E1FF;" width="447.26" height="548.82"/>
				<g>
					
						<rect x="1757.93" y="1563.59" transform="matrix(-0.9009 0.434 -0.434 -0.9009 4156.6318 2316.8792)" style="fill:#E3EBFF;" width="111.74" height="138.82"/>
					
						<rect x="1916.44" y="1583.91" transform="matrix(-0.7778 -0.6285 0.6285 -0.7778 2467.3455 4178.8784)" style="fill:#E3EBFF;" width="111.74" height="138.82"/>
					
						<rect x="1785.89" y="1622.87" transform="matrix(-0.3779 0.9258 -0.9258 -0.3779 4104.5918 626.6876)" style="fill:#E9EFFF;" width="111.74" height="138.82"/>
					
						<rect x="1657.84" y="1632.59" transform="matrix(-0.8112 0.5848 -0.5848 -0.8112 4099.1719 2080.3984)" style="fill:#E9EFFF;" width="111.74" height="138.82"/>
					
						<rect x="1930.09" y="1640.41" transform="matrix(-0.6228 -0.7824 0.7824 -0.6228 1885.0566 4328.478)" style="fill:#E9EFFF;" width="111.74" height="138.82"/>
					
						<rect x="1861.17" y="1563.59" transform="matrix(-0.9009 0.434 -0.434 -0.9009 4352.8813 2272.0674)" style="fill:#E9EFFF;" width="111.74" height="138.82"/>
					
						<rect x="1627.8" y="1709.82" transform="matrix(-1 -1.224647e-16 1.224647e-16 -1 3702.8577 3532.8875)" style="fill:#E9EFFF;" width="447.26" height="113.24"/>
				</g>
				<polygon style="fill:#E3EBFF;" points="2075.07,1582.1 2048.88,1594.71 2075.06,1649.06 				"/>
			</g>
			<rect x="1627.8" y="1274.91" style="fill:#808285;" width="447.26" height="95.26"/>
			<rect x="2075.06" y="1274.91" style="fill:#939598;" width="127.24" height="95.26"/>
			<g>
				<g>
					<path style="fill:#FFFFFF;" d="M1668.93,1334.84l-11.93-26.79h5.28l9.61,22.5h-1.6l9.61-22.5h5.09l-11.93,26.79H1668.93z"/>
					<path style="fill:#FFFFFF;" d="M1684.7,1334.84l12.12-26.79h4.1l12.27,26.79h-4.98l-3.27-7.52l1.98,1.33h-16.07l2.05-1.33
						l-3.27,7.52H1684.7z M1698.84,1313.29l-5.36,12.69l-0.99-1.18h12.77l-0.8,1.18l-5.47-12.69H1698.84z"/>
					<path style="fill:#FFFFFF;" d="M1722.47,1334.84v-22.76h-8.85v-4.03h22.61v4.03h-8.85v22.76H1722.47z"/>
					<path style="fill:#FFFFFF;" d="M1750.1,1334.84v-26.79h11.7c2.94,0,5.21,0.7,6.82,2.09c1.61,1.39,2.41,3.33,2.41,5.81
						c0,1.65-0.36,3.05-1.08,4.22c-0.72,1.17-1.75,2.06-3.1,2.68c-1.34,0.62-2.93,0.93-4.75,0.93l0.53-0.72h1.29
						c1.06,0,2.01,0.28,2.85,0.84c0.84,0.56,1.52,1.41,2.05,2.55l3.91,8.4h-5.4l-3.95-8.7c-0.35-0.89-0.89-1.47-1.61-1.75
						c-0.72-0.28-1.59-0.42-2.6-0.42H1755v10.87H1750.1z M1755,1320.36h6c1.72,0,3.03-0.36,3.93-1.08c0.9-0.72,1.35-1.78,1.35-3.17
						c0-1.39-0.45-2.44-1.35-3.15s-2.21-1.06-3.93-1.06h-6V1320.36z"/>
					<path style="fill:#FFFFFF;" d="M1776.77,1334.84v-26.79h18.05v3.84h-13.34v7.41h12.46v3.88h-12.46v7.79h13.34v3.88H1776.77z"/>
					<path style="fill:#FFFFFF;" d="M1812.3,1335.22c-3.01,0-5.55-0.56-7.6-1.67c-2.05-1.11-3.6-2.7-4.64-4.75
						c-1.04-2.05-1.56-4.48-1.56-7.3c0-2.84,0.56-5.29,1.67-7.35c1.12-2.06,2.72-3.66,4.81-4.79c2.09-1.13,4.6-1.69,7.54-1.69
						c1.95,0,3.66,0.26,5.13,0.78c1.47,0.52,2.76,1.27,3.88,2.26l-1.63,3.8c-0.81-0.63-1.58-1.14-2.32-1.52
						c-0.74-0.38-1.5-0.65-2.28-0.82c-0.79-0.16-1.7-0.25-2.74-0.25c-2.94,0-5.16,0.83-6.67,2.49c-1.51,1.66-2.26,4.03-2.26,7.12
						s0.72,5.45,2.15,7.07c1.43,1.62,3.68,2.43,6.75,2.43c1.04,0,2.08-0.1,3.13-0.3c1.05-0.2,2.08-0.49,3.1-0.87l-0.91,2.05v-8.02
						h-6.27v-3.57h10.34v12.88c-1.24,0.63-2.72,1.13-4.45,1.48S1814.03,1335.22,1812.3,1335.22z"/>
					<path style="fill:#FFFFFF;" d="M1827.5,1334.84v-26.79h4.9v26.79H1827.5z"/>
					<path style="fill:#FFFFFF;" d="M1847.64,1335.22c-2.15,0-4.14-0.27-5.95-0.82c-1.81-0.54-3.36-1.3-4.66-2.26l1.52-3.84
						c0.86,0.61,1.76,1.12,2.7,1.54s1.94,0.74,3,0.95c1.06,0.22,2.19,0.32,3.38,0.32c2,0,3.45-0.33,4.33-0.99
						c0.89-0.66,1.33-1.52,1.33-2.58c0-0.94-0.3-1.65-0.91-2.15c-0.61-0.49-1.7-0.91-3.27-1.23l-4.29-0.87
						c-2.46-0.51-4.29-1.36-5.51-2.55s-1.82-2.79-1.82-4.79c0-1.67,0.44-3.13,1.33-4.37s2.13-2.2,3.72-2.89
						c1.6-0.68,3.46-1.03,5.59-1.03c1.9,0,3.66,0.27,5.28,0.82s2.98,1.32,4.07,2.34l-1.52,3.65c-1.09-0.91-2.28-1.59-3.57-2.03
						c-1.29-0.44-2.74-0.67-4.33-0.67c-1.8,0-3.2,0.35-4.2,1.04c-1,0.7-1.5,1.65-1.5,2.87c0,0.94,0.31,1.69,0.93,2.24
						c0.62,0.56,1.68,0.99,3.17,1.29l4.26,0.84c2.53,0.51,4.41,1.34,5.62,2.49c1.22,1.15,1.82,2.7,1.82,4.66c0,1.6-0.43,3-1.29,4.2
						c-0.86,1.2-2.08,2.14-3.65,2.81C1851.66,1334.88,1849.8,1335.22,1847.64,1335.22z"/>
					<path style="fill:#FFFFFF;" d="M1869.11,1334.84v-22.76h-8.85v-4.03h22.61v4.03h-8.85v22.76H1869.11z"/>
					<path style="fill:#FFFFFF;" d="M1886.33,1334.84v-26.79h11.7c2.94,0,5.21,0.7,6.82,2.09c1.61,1.39,2.41,3.33,2.41,5.81
						c0,1.65-0.36,3.05-1.08,4.22c-0.72,1.17-1.75,2.06-3.1,2.68c-1.34,0.62-2.93,0.93-4.75,0.93l0.53-0.72h1.29
						c1.06,0,2.01,0.28,2.85,0.84c0.84,0.56,1.52,1.41,2.05,2.55l3.91,8.4h-5.4l-3.95-8.7c-0.35-0.89-0.89-1.47-1.61-1.75
						c-0.72-0.28-1.59-0.42-2.6-0.42h-4.18v10.87H1886.33z M1891.23,1320.36h6c1.72,0,3.03-0.36,3.93-1.08
						c0.9-0.72,1.35-1.78,1.35-3.17c0-1.39-0.45-2.44-1.35-3.15s-2.21-1.06-3.93-1.06h-6V1320.36z"/>
					<path style="fill:#FFFFFF;" d="M1910.04,1334.84l12.12-26.79h4.1l12.27,26.79h-4.98l-3.27-7.52l1.98,1.33h-16.07l2.05-1.33
						l-3.27,7.52H1910.04z M1924.17,1313.29l-5.36,12.69l-0.99-1.18h12.77l-0.8,1.18l-5.47-12.69H1924.17z"/>
					<path style="fill:#FFFFFF;" d="M1947.81,1334.84v-22.76h-8.85v-4.03h22.61v4.03h-8.85v22.76H1947.81z"/>
					<path style="fill:#FFFFFF;" d="M1965.02,1334.84v-26.79h4.9v26.79H1965.02z"/>
					<path style="fill:#FFFFFF;" d="M1974.94,1321.42c0-2.81,0.51-5.24,1.54-7.3s2.5-3.64,4.43-4.77s4.22-1.69,6.88-1.69
						c2.63,0,4.92,0.56,6.84,1.69c1.92,1.13,3.41,2.72,4.46,4.77c1.05,2.05,1.58,4.47,1.58,7.26c0,2.81-0.53,5.25-1.58,7.32
						c-1.05,2.06-2.54,3.67-4.46,4.81c-1.93,1.14-4.21,1.71-6.84,1.71c-2.66,0-4.95-0.57-6.86-1.71c-1.91-1.14-3.39-2.74-4.43-4.81
						C1975.46,1326.64,1974.94,1324.21,1974.94,1321.42z M1980.07,1321.42c0,3.01,0.65,5.37,1.94,7.07s3.22,2.55,5.78,2.55
						c2.48,0,4.4-0.85,5.74-2.55s2.01-4.05,2.01-7.07c0-3.04-0.66-5.4-1.99-7.07c-1.33-1.67-3.25-2.51-5.76-2.51
						c-2.56,0-4.48,0.84-5.78,2.51C1980.72,1316.03,1980.07,1318.38,1980.07,1321.42z"/>
					<path style="fill:#FFFFFF;" d="M2005.72,1334.84v-26.79h3.69l15.54,20.1h-0.99v-20.1h4.56v26.79h-3.69l-15.5-20.1h0.95v20.1
						H2005.72z"/>
				</g>
			</g>
		</g>
		<rect x="2052.38" y="1823.06" style="fill:#2B478B;" width="22.69" height="47.51"/>
		<rect x="2178.06" y="1823.06" style="fill:#2B478B;" width="22.69" height="47.51"/>
		<rect x="1627.83" y="1823.06" style="fill:#2B478B;" width="22.69" height="47.51"/>
	</g>
	<g>
		
			<rect x="1793" y="1014.44" transform="matrix(-0.9966 0.0821 -0.0821 -0.9966 3829.1414 2078.8218)" style="fill:#FFFFFF;" width="157.61" height="207.47"/>
		
			<rect x="1800.29" y="1021.28" transform="matrix(-0.9966 0.0821 -0.0821 -0.9966 3829.2791 2078.356)" style="fill:#E7EDFF;" width="143.2" height="193.34"/>
		<g>
			
				<rect x="1811.77" y="1114.46" transform="matrix(-0.9966 0.0821 -0.0821 -0.9966 3783.5437 2074.4678)" style="fill:#BCBEC0;" width="74.65" height="1.22"/>
			
				<rect x="1812.24" y="1120.15" transform="matrix(-0.9966 0.0821 -0.0821 -0.9966 3784.949 2085.8035)" style="fill:#BCBEC0;" width="74.65" height="1.22"/>
			
				<rect x="1812.71" y="1125.92" transform="matrix(-0.9966 0.0821 -0.0821 -0.9966 3786.3555 2097.3052)" style="fill:#BCBEC0;" width="74.65" height="1.23"/>
		</g>
		
			<rect x="1811.97" y="1095.59" transform="matrix(-0.9966 0.0821 -0.0821 -0.9966 3748.0291 2039.6931)" style="fill:#BCBEC0;" width="40.19" height="2.69"/>
		
			<rect x="1811.95" y="1102.23" transform="matrix(-0.9966 0.0821 -0.0821 -0.9966 3757.2888 2052.5913)" style="fill:#BCBEC0;" width="48.94" height="2.69"/>
		<g>
			
				<rect x="1900.2" y="1087.31" transform="matrix(-0.9966 0.0821 -0.0821 -0.9966 3918.9888 2047.7368)" style="fill:#FFFFFF;" width="34.34" height="34.34"/>
			<polygon style="fill:#233862;" points="1927.16,1099.88 1918.99,1113.34 1906.34,1093.94 1920.03,1104.47 			"/>
		</g>
		<g>
			
				<rect x="1817.32" y="1182.4" transform="matrix(-0.9966 0.0821 -0.0821 -0.9966 3800.199 2209.697)" style="fill:#BCBEC0;" width="74.65" height="1.23"/>
			
				<rect x="1817.79" y="1188.1" transform="matrix(-0.9966 0.0821 -0.0821 -0.9966 3801.6033 2221.0344)" style="fill:#BCBEC0;" width="74.65" height="1.23"/>
			
				<rect x="1818.27" y="1193.86" transform="matrix(-0.9966 0.0821 -0.0821 -0.9966 3803.0239 2232.5059)" style="fill:#BCBEC0;" width="74.65" height="1.22"/>
		</g>
		
			<rect x="1817.52" y="1163.53" transform="matrix(-0.9966 0.0822 -0.0822 -0.9966 3764.7244 2174.8445)" style="fill:#BCBEC0;" width="40.19" height="2.69"/>
		
			<rect x="1817.51" y="1170.18" transform="matrix(-0.9966 0.0821 -0.0821 -0.9966 3773.9583 2187.7927)" style="fill:#BCBEC0;" width="48.94" height="2.69"/>
		<g>
			
				<rect x="1905.75" y="1155.26" transform="matrix(-0.9966 0.0821 -0.0821 -0.9966 3935.6592 2182.9387)" style="fill:#FFFFFF;" width="34.34" height="34.34"/>
			<polygon style="fill:#233862;" points="1932.71,1167.82 1924.54,1181.28 1911.89,1161.88 1925.58,1172.42 			"/>
		</g>
		<g>
			
				<rect x="1804.86" y="1059.28" transform="matrix(-0.9966 0.0821 -0.0821 -0.9966 3765.1956 1964.8984)" style="fill:#BCBEC0;" width="74.65" height="1.22"/>
			
				<rect x="1805.33" y="1064.98" transform="matrix(-0.9966 0.0821 -0.0821 -0.9966 3766.5986 1976.2369)" style="fill:#BCBEC0;" width="74.65" height="1.22"/>
			
				<rect x="1805.8" y="1070.74" transform="matrix(-0.9966 0.0821 -0.0821 -0.9966 3768.0356 1987.676)" style="fill:#BCBEC0;" width="74.65" height="1.23"/>
		</g>
		
			<rect x="1805.06" y="1040.41" transform="matrix(-0.9966 0.0821 -0.0821 -0.9966 3729.6953 1930.0951)" style="fill:#BCBEC0;" width="40.19" height="2.69"/>
		
			<rect x="1805.04" y="1047.06" transform="matrix(-0.9966 0.0821 -0.0821 -0.9966 3738.9548 1942.993)" style="fill:#BCBEC0;" width="48.94" height="2.69"/>
		<g>
			
				<rect x="1893.29" y="1032.14" transform="matrix(-0.9966 0.0821 -0.0821 -0.9966 3900.6545 1938.1396)" style="fill:#FFFFFF;" width="34.34" height="34.34"/>
			<polygon style="fill:#233862;" points="1920.24,1044.7 1912.08,1058.17 1899.42,1038.76 1913.12,1049.3 			"/>
		</g>
	</g>
	<g>
		<path style="fill:#FFB27D;" d="M1772.3,1049.87c2.72-1.92,4.84-6.2,7.63-9.39c2.08-2.37,6.02-4.66,6.02-4.66s0.41,5.56,0.83,10.05
			c8.25-3.08,20.66-5.92,40.47-2.11c3.97,0.76,7.56,3.02,9.75,6.41c2.02,3.15,2.77,7.08-2.28,10.22
			c-10.11,6.29-7.18,2.52-21.23,11.67c-14.05,9.15-31.25,11.49-41.53,5.07l-13.79-2.3l-1.71-22.69
			C1756.45,1052.14,1764.31,1051.21,1772.3,1049.87z"/>
		<path style="fill:#FFB27D;" d="M1410.88,859.6c0,0,32.51,38.57,73.92,22.44c0,0,8.91-21.54,9.03-37.42
			c0.01-1.95,0.04-3.85,0.07-5.65c0.22-17.88,0.82-27.92,0.82-27.92s-0.01,0-0.04-0.01c-1.88-0.79-63.3-26-63.25-23.91
			C1432.49,835.5,1410.88,859.6,1410.88,859.6z"/>
		<path style="fill:#ED975D;" d="M1437.61,798.66c5.92,10.98,26.24,32.45,56.3,40.3c0.22-17.88,0.82-27.92,0.82-27.92
			s-0.01,0-0.04-0.01C1492.99,810.58,1435.85,795.43,1437.61,798.66z"/>
		<path style="fill:#FFB27D;" d="M1507.59,809.19c0,0-69.07,16.24-78.52-26.93c-9.45-43.17-24.73-70.14,18.97-82.33
			c43.7-12.19,55.9,2.4,62.56,16.04C1517.26,729.6,1525.31,803.85,1507.59,809.19z"/>
		<path style="fill:#A9453D;" d="M1431.44,794.02c-0.94,0.6-15.8,5.17-43.95-50.9c-4.42-8.8-7.43-27.84,2.87-44.66
			c10.3-16.82,46.82-30.05,77.15-35.81c30.34-5.76,37.62,11.32,44.77,28.47c7.5,18.01,29.16,32.84,29.16,32.84
			c-26.16,14.61-57.67-6.29-68.59-2.85c-10.92,3.44-14.77,20.64-15.59,26.16c-0.82,5.52-2.08,10.1-15.8,5.17
			c-13.73-4.93-6.21,19.45-4.01,24.12C1437.45,776.55,1439.31,788.97,1431.44,794.02z"/>
		<g>
			<path style="fill:#2C3A64;" d="M1253.52,1870.5h-41.82c-8.77,0-18.51-8.78-20.95-24.85c-2.44-16.08-20.46-24.85-24.36-38.01
				c-3.9-13.16,16.08-31.68,16.08-31.68l3.34-4.29l3.47-4.48l33.13,7.79c0,0,0.82,7.89,1.33,17.94c0.35,7.25,0.55,15.64,0.13,23
				c-0.98,17.54,4.91,36.43,20.5,39.85C1259.97,1859.18,1253.52,1870.5,1253.52,1870.5z"/>
			<path style="fill:#2C3A64;" d="M1544.66,1870.5H1433.8c-1.06-0.21-1.87-0.44-2.35-0.68c-7.4-3.71-5.08-32.04-4.19-40.8
				c0.17-1.62,0.29-2.57,0.29-2.57s38.98-31.18,44.34-7.3c0.17,0.74,0.37,1.48,0.57,2.19v0.01c6.77,22.34,37.02,32.48,54.49,35.31
				C1540.31,1858.83,1543.77,1866.61,1544.66,1870.5z"/>
			<path style="fill:#808285;" d="M1522.32,1231.23c0,0-5.92,73.86-12.88,162.65c-9.46,120.61-20.83,268.75-21.96,296.82
				c-1.94,48.73-9.75,126.69-9.75,126.69s-18.51,18.52-55.55,10.72c0,0-33.01-111.28-42.43-229.02c-0.15-1.93-0.29-3.87-0.44-5.82
				c-8.77-119.86-22.41-372.26-22.41-372.26L1522.32,1231.23z"/>
			<path style="fill:#939598;" d="M1522.32,1231.23c0,0-5.92,73.86-12.88,162.65l-129.69,205.2c-0.15-1.93-0.29-3.87-0.44-5.82
				c-8.77-119.86-22.41-372.26-22.41-372.26L1522.32,1231.23z"/>
			<path style="fill:#808285;" d="M1495.28,1240c0,0-106.71,267.5-176.87,393.21c-70.16,125.71-92.09,160.79-92.09,160.79
				s-40.2-16.08-43.85-27.04c0,0,26.83-242.69,73.82-301.85c26.55-33.43,57.74-133.75,59.2-168.83c1.46-35.08,9.5-104.51,9.5-104.51
				L1495.28,1240z"/>
		</g>
		<g>
			<path style="fill:#FFB27D;" d="M1251.93,1191.4l-1.13,17.2c0,0,11.35,30.56-20.44,46.24c0,0-13.61,5.49-14.16-5.1
				c-0.55-10.59,1.19-6.61,0.08-21.53c-1.11-14.92,4.76-29.01,14.63-33.76l8.1-9.34L1251.93,1191.4z"/>
			<path style="fill:#C49A6C;" d="M1239.52,1203.93c11.81,3.79,13.7,2.93,13.7,2.93s57.49-104.66,63.31-114.24
				c5.82-9.58,122.05-117.36,122.05-117.36l-29.87-111.38c0,0-132.2,171.19-146.47,195.75c-23.59,40.59-37.41,134.87-37.41,134.87
				S1230.24,1200.95,1239.52,1203.93z"/>
		</g>
		<path style="fill:#D2B069;" d="M1544.84,1018.99c-0.41,22.87-1.74,48.59-3.54,74.7c-0.11,1.55-0.22,3.1-0.33,4.65
			c-1.15,16.18-6.06,72.61-6.32,74.89c-5.83,59.23-11.94,106.03-13.07,106.75c-1.35,0.9-2.88,1.35-4.55,1.16
			c-15.53-1.95-61.88,1.57-99.82-6.68c-32.02-6.75-59.59-19.56-88.8-36.82c-3.88-2.29-12.72-8.36-12-12.9
			c0.71-4.99,2.01-12.19,3.67-21.25c5.76-31.51,15.69-85.7,19.08-149.13c0.66-11.81,1.62-23.48,2.86-34.96
			c3.26-29.88,8.47-58.27,15.47-83.48c13.01-46.84,32.13-82.72,56.11-96.75c3.13-1.76,20,8.97,35.48,18.91
			c14.3,9.17,29.36,11.71,44,10.43l12.89,14.25c15.61,18.14,32.23,42.3,36.76,76.63c0.34,2.54,0.63,5.23,0.88,8.1
			C1544.89,981.46,1545.19,999.16,1544.84,1018.99z"/>
		<path style="fill:#C49A6C;" d="M1544.84,1018.99c-0.41,22.87-1.74,48.59-3.54,74.7c-0.11,1.55-0.22,3.1-0.33,4.65
			c-88.73-55.54-102.39-157.16-102.39-157.16c43.65,1.91,78.33,11.95,105.05,26.3C1544.89,981.46,1545.19,999.16,1544.84,1018.99z"
			/>
		<path style="fill:#D2B069;" d="M1769.02,1062.73c0.91-13.16-5.9-15.35-5.9-15.35s-133.78-24.24-145.15-27.82
			c-11.37-3.58-108.61-104.73-108.61-104.73s-37.27-42.04-67.79-32.75c-26.52,8.07-36.89,28.75-40.42,48.46
			c-4.21,23.49,6.62,47.12,26.96,59.59c45.65,28,137.05,83.17,158.58,89.48c47.91,14.05,176.63,1.13,176.63,1.13
			S1768.3,1073.07,1769.02,1062.73z"/>
	</g>
	<g>
		<g>
			<path style="fill:#D1D3D4;" d="M1793.14,880.78h-118.79V761.99h118.79V880.78z M1679.29,875.84h108.92V766.92h-108.92V875.84z"/>
		</g>
		<polygon style="fill:#D1D3D4;" points="1694.26,807.28 1732.9,860.54 1778.92,775.41 1725.51,823.97 		"/>
	</g>
	<g>
		<g>
			<path style="fill:#D1D3D4;" d="M1968.44,737.16h-118.79V618.37h118.79V737.16z M1854.58,732.23h108.92V623.31h-108.92V732.23z"/>
		</g>
		<polygon style="fill:#D1D3D4;" points="1869.55,663.66 1908.19,716.92 1954.22,631.8 1900.81,680.35 		"/>
	</g>
	<g>
		<path style="fill:#FFB27D;" d="M3796.52,1119.07c0,0-2.73-27.09,11.44-26.17c14.17,0.93,17.92,7.43,16.34,12.63
			c-1.58,5.21-15.36,22.43-15.36,22.43L3796.52,1119.07z"/>
		<path style="fill:#808285;" d="M3774.38,1263.1c-24.72,0.99-74.26-13.52-92.95-21.2c-17.75-7.29-33.11-15.1-46.21-22.74
			c-3.52-2.04-6.87-4.08-10.06-6.09c-33.72-21.27-49.42-39.71-49.42-39.71s63.21-54.65,88.71-40.34
			c29.91,16.79,81.49,71.05,90.2,65.48c9.81-6.27,37.18-83.17,37.18-83.17c18.02-3.43,21.92,10.2,21.92,10.2
			S3809.47,1261.69,3774.38,1263.1z"/>
		<path style="fill:#233862;" d="M3669.99,1837.33c0,0-2.59,29.97,3.75,33.09l81.08-0.17c0,0,0-9.36-13.02-11.44
			c-13.02-2.08-35.9-9.7-39.77-26.69C3698.14,1815.14,3669.99,1837.33,3669.99,1837.33z"/>
		<path style="fill:#D2B069;" d="M3729.51,1474.57c-0.4,19.6-1.34,39.81-3.19,57.98c-8.76,86.21-11.83,190.38-13.09,210.46
			c-2.18,34.86-9.07,90.56-9.07,90.56s-13.66,12.97-40.29,6.78c0,0-22.06-80.22-26.99-164.68c-0.08-1.39-0.15-2.78-0.22-4.17
			c-0.57-11.17-1.17-23.94-1.78-37.7c-4.06-92.22-8.46-229.22-8.46-229.22l101.75-23.89
			C3728.17,1380.68,3730.51,1425.71,3729.51,1474.57z"/>
		<path style="fill:#C49A6C;" d="M3729.51,1474.57c-25.79,44.49-74.94,126.45-94.62,159.22c-4.06-92.22-8.46-229.22-8.46-229.22
			l101.75-23.89C3728.17,1380.68,3730.51,1425.71,3729.51,1474.57z"/>
		<path style="fill:#FFB27D;" d="M3517.29,1460.08c0,0-6.31,24.76-5.28,30.27c1.03,5.5,7.2,24.14,11.04,28.77
			c3.85,4.63,4-20.1,6.56-23.99c2.56-3.88,1.17,9.23,3.22,10.3c2.05,1.07,5.46-9.93,6.99-13.84c1.52-3.9-5.46-17.49-6.11-27.22
			C3533.06,1454.63,3517.29,1460.08,3517.29,1460.08z"/>
		<path style="fill:#233862;" d="M3468,1803.26c0,0-14.43,13.17-11.62,22.53c2.82,9.36,15.84,15.6,17.6,27.03
			c1.76,11.44,8.8,17.68,15.13,17.68c6.34,0,30.21,0,30.21,0s4.66-8.05-6.6-10.47c-11.26-2.43-15.51-15.87-14.81-28.34
			c0.7-12.48-1.06-29.11-1.06-29.11l-23.94-5.54L3468,1803.26z"/>
		<path style="fill:#D2B069;" d="M3712.14,1406.66c0,0-95.25,203.79-145.93,293.21c-50.68,89.42-66.52,114.37-66.52,114.37
			s-29.04-11.44-31.68-19.24c0,0,19.38-172.63,53.33-214.71c19.18-23.78,41.71-95.14,42.77-120.09
			c1.06-24.95,23.31-84.51,23.31-84.51L3712.14,1406.66z"/>
		<path style="fill:#808285;" d="M3729.89,1396.05c0,0-31.01,33.38-83.72,43.46c-23.13,4.43-70.08,8.7-81.72-7.76
			c-2.73-3.87-2.76-9.59-2.15-18.53c1.57-23.23,7.41-68.14-18.97-158.39c-2.46-8.4-4.11-16.45-5.07-24.12
			c-5.76-46.17,13.71-78.94,36.58-93.56c55.76-35.67,83.01-11.03,83.01-11.03s31.92,14.92,46.51,58.39
			C3733.51,1271.47,3729.89,1396.05,3729.89,1396.05z"/>
		<path style="fill:#FFB27D;" d="M3591.43,1127.83c0,0,31.92,10.35,61.04-1.62c0,0,5.62-2.94,1.02-9.27c0.5-6.1,0.4-5.54,0.46-10.01
			c0.36-10.32-0.16-16.11-0.16-16.11l-21.45-13.98l-20.35-13.39C3617.27,1105.75,3591.43,1127.83,3591.43,1127.83z"/>
		<path style="fill:#ED985F;" d="M3613.09,1079.71c0,0,15.27,22.76,40.86,27.22c0.36-10.32-0.32-20.87-0.32-20.87l-21.29-9.21
			L3613.09,1079.71z"/>
		<path style="fill:#FFB27D;" d="M3672.85,1085.39c0,0-51.67,19.28-63.17-12.55c-11.5-31.84-25.91-50.79,6.6-64.44
			c32.5-13.66,43.33-3.8,49.8,5.89C3672.54,1023.97,3685.99,1079.55,3672.85,1085.39z"/>
		<path style="fill:#2C3A64;" d="M3577.49,1011.97c-0.59-0.46-1.8-0.69-4.32-0.33c0,0,1.74-1.64,4.39-2.23
			c-0.16-3.56,0.47-10.05,6.13-12.71c0,0-2.86,2.34-2.55,6.1c5.5-8.45,19.26-16.52,60.82-21.37c54.77-6.4,43.82,31.64,37.65,37.14
			c-6.17,5.5-25.97-2.32-38.78,1.28c-12.8,3.6-11.56,22.89-15.47,26.34s-3.07-1.45-9.57-2.97c-6.5-1.52-5.12,8.49-2.12,14.58
			c3,6.09-3.53,16.2-3.53,16.2s0,0-10.05-7.29c-10.05-7.29-25.34-43.57-23.16-52.37C3577.11,1013.55,3577.3,1012.76,3577.49,1011.97
			z"/>
		<path style="fill:#939598;" d="M3562.3,1413.22c1.57-23.23,7.41-68.14-18.97-158.39c-2.46-8.4-4.11-16.45-5.07-24.12l0.01,0
			c19.6-6.46,55.31,7.91,55.31,7.91S3601.97,1357.92,3562.3,1413.22z"/>
		<path style="fill:#808285;" d="M3577.17,1135.68c0,0-40.46,22.92-54.3,74.04c-11.34,41.89-28.88,104.2-30.99,123.69
			c-2.11,19.49,21.39,133.58,21.39,133.58s3.32,2.42,11.44,0.79c7.77-1.55,11.39-6.81,11.39-6.81s5.62-76.04,4.17-111.94
			c-0.6-14.92,69.05-109.25,106.65-121.4C3661.69,1222.86,3577.17,1135.68,3577.17,1135.68z"/>
		<path style="fill:#939598;" d="M3605.19,1108.54c0,0-6.75,3.3-19.86,20.73c0,0,24.4,30.6,59.61,26.6c0,0-4.34-15.86-4.12-25.93
			C3640.83,1129.95,3611.39,1126.67,3605.19,1108.54z"/>
		<path style="fill:#939598;" d="M3640.83,1129.95c0,0,18.81,4.91,23.32,18.43c0,0,3.99-11.63,0.47-18.2
			c-3.51-6.57-11.14-13.24-11.14-13.24S3656.06,1125.25,3640.83,1129.95z"/>
		<g>
			<g>
				<path style="fill:#FFFFFF;" d="M3899.71,1054.44c0,0-69.71-1.98-150.15,12.83l-8.4-21.18l-9.22-23.2
					c0,0,80.76-34.77,129.3-83.18L3899.71,1054.44z"/>
				<path style="fill:#808285;" d="M3860.14,938.59l40.02,118.14l0,0c5.85-1.73,9.05-8.02,7.01-13.77l-35.22-99.26
					C3870.24,938.88,3864.81,936.53,3860.14,938.59L3860.14,938.59z"/>
				<path style="fill:#D7E1FF;" d="M3899.71,1054.44c0,0-69.71-1.98-150.15,12.83l-8.4-21.18
					C3816.74,1030.66,3899.71,1054.44,3899.71,1054.44z"/>
				<path style="fill:#808285;" d="M3771.8,1063.01l-21.78,3.83c0.33,0.01-20.23,4-26.97-14.23c-0.62-1.25-1.01-2.48-1.29-3.93
					c-5.24-22.72,7.23-26.91,7.23-26.91l28.03-10.92l8.91,31.52c0,0,0,0,0,0.11L3771.8,1063.01z"/>
				<path style="fill:#939598;" d="M3771.8,1063.01l-21.78,3.83c0.33,0.01-20.23,4-26.97-14.23c12.32-8.96,42.88-10.24,42.88-10.24
					s0,0,0,0.11L3771.8,1063.01z"/>
			</g>
			<path style="fill:#D7E1FF;" d="M3821.93,1142.38L3821.93,1142.38c-7.78,1.56-15.42-3.54-16.98-11.32l-13.78-68.95
				c-1.56-7.78,3.54-15.42,11.32-16.98l0,0c7.78-1.55,15.42,3.54,16.98,11.32l13.78,68.95
				C3834.81,1133.18,3829.72,1140.82,3821.93,1142.38z"/>
		</g>
		<path style="fill:#FFB27D;" d="M3820.08,1075.61c0,0-10.66,4.25-8.7,8.94c1.95,4.69,15.5,11.14,17.64,7.44
			C3831.15,1088.29,3826.78,1071.65,3820.08,1075.61z"/>
		<path style="fill:#FFB27D;" d="M3796.32,1114.8c0,0-2.01-10.9-2.14-15.91c-0.13-5.01-1.57-8.79-0.4-8.93
			c1.18-0.14,1.83,0.73,2.31,2.34c0.48,1.61,3.39,11.34,3.39,11.34l-0.93,9.64L3796.32,1114.8z"/>
	</g>
</g>
</svg>
