<?xml version="1.0" encoding="utf-8"?>
<!-- Generator: Adobe Illustrator 26.0.0, SVG Export Plug-In . SVG Version: 6.00 Build 0)  -->
<svg version="1.1" xmlns="http://www.w3.org/2000/svg" xmlns:xlink="http://www.w3.org/1999/xlink" x="0px" y="0px"
	 viewBox="0 0 6117.99 2435.48" style="enable-background:new 0 0 6117.99 2435.48;" xml:space="preserve">
<g id="Background">
</g>
<g id="Illustration">
	<rect x="0" y="0" style="fill:#F9F6E6;" width="6117.99" height="2435.48"/>
	<g>
		<path style="opacity:0.13;fill:#FBB040;" d="M5291.74,1609.53c-472.89,526.23-1732.56,821.03-2824.95,741.51
			c-177.75-12.94-665.07-51.48-1096.52-233.33C539.69,1767.65,362.07,1074.49,1032.07,586
			c487.64-355.53,1361.79-557.07,2192.4-546.99c178.91,2.17,864.58,15.55,1467.17,250.38c88.51,34.49,283.72,116.45,459.66,246.48
			C5564.42,841.19,5599.93,1266.58,5291.74,1609.53z"/>
		<g>
			<path style="fill:#999999;" d="M1973.41,62.42c-3.84-11.84,9.97-21.57,19.95-14.13c101.33,75.57,350.58,308.03,346.9,764.2
				c-4.61,572.34,136.4,764.96,297.06,873.97c0,0-207.74-36.24-357.97-230.88C1910.48,977.69,2041.62,272.97,1973.41,62.42z"/>
			<path style="fill:#999999;" d="M2063.12,230.82c18.6,61.54,35.97,123.42,51.06,185.84c15.41,62.33,28.93,125.11,40.47,188.21
				c11.3,63.14,21.41,126.49,28.81,190.17c7.69,63.64,12.64,127.55,17.38,191.72c5.1,64.11,9.87,128.73,21.27,193.05
				c11.32,64.2,30.48,128.08,60.75,186.57c7.56,14.57,15.42,29.07,24.05,42.95c8.38,14.05,17.38,27.74,26.62,41.25
				c18.63,26.95,39.07,52.71,61.34,76.83c44.66,48.14,96.62,89.45,152.5,123.05c5.88,3.54,13.52,1.64,17.05-4.25
				c3.47-5.78,1.7-13.24-3.93-16.86l-0.04-0.03c-13.36-8.56-26.61-17.26-39.42-26.52c-6.48-4.53-12.75-9.34-19.1-14.02
				c-6.17-4.92-12.53-9.61-18.54-14.71c-24.38-20.02-47.33-41.72-68.56-65.01c-42.64-46.33-78.58-99.27-107.6-155.09
				c-14.2-28.08-26.3-57.16-36.12-87.07c-9.8-29.92-17.32-60.64-23.09-91.81c-11.55-62.38-16.8-126.3-22.36-190.37
				c-5.64-64.08-11.76-128.43-20.51-192.44c-4.29-32.01-9.15-63.94-14.58-95.76c-2.62-15.93-5.56-31.8-8.46-47.68
				c-3.06-15.85-6.2-31.68-9.47-47.48c-13.2-63.18-28.33-125.93-45.41-188.11c-17.38-62.1-36.41-123.72-57.77-184.5
				c-0.61-1.74-2.51-2.65-4.25-2.04C2063.52,227.3,2062.61,229.12,2063.12,230.82z"/>
		</g>
		<g>
			<g>
				<path style="fill:#999999;" d="M2250.75,1784.34c-7.46,21.69-34.64,28.72-51.87,13.58c-95.09-83.52-342.58-343.96-325.85-780.54
					c14.12-368.67-13.25-569.91-32.01-660.41c-3.97-19.14,18.8-32.21,33.36-19.17C2034.97,481.67,2520.89,998.35,2250.75,1784.34z"
					/>
				<path style="fill:#999999;" d="M2219.7,1785.03c-0.47,0.32-0.97,0.6-1.52,0.84c-4.54,1.97-9.81-0.11-11.78-4.65
					c-2.23-5.14-223.21-520.19-226.73-1033.68c-0.03-4.94,3.95-8.98,8.89-9.02c4.95-0.03,8.98,3.95,9.02,8.9
					c3.49,509.75,223.03,1021.56,225.25,1026.67C2224.57,1778.08,2223.17,1782.65,2219.7,1785.03z"/>
			</g>
		</g>
		<g>
			<g>
				<g style="opacity:0.3;">
					
						<linearGradient id="SVGID_1_" gradientUnits="userSpaceOnUse" x1="-5460.0547" y1="5624.8452" x2="-5049.1567" y2="5624.8452" gradientTransform="matrix(-0.6183 -0.7859 0.7859 -0.6183 -4318.4404 -16.9554)">
						<stop  offset="0" style="stop-color:#B37CFF"/>
						<stop  offset="1" style="stop-color:#F895E7"/>
					</linearGradient>
					<path style="fill:url(#SVGID_1_);" d="M3600.2,689.15c2.25,2.86,2.02,7.02-0.65,9.61c-5.84,5.67-12.01,11.17-18.34,16.35
						c-3.08,2.52-7.62,2.07-10.14-1.01c-0.03-0.04-0.06-0.07-0.09-0.11c-2.42-3.08-1.94-7.54,1.1-10.03
						c6.01-4.92,11.87-10.15,17.42-15.53c2.85-2.77,7.41-2.71,10.19,0.15C3599.88,688.76,3600.05,688.95,3600.2,689.15z
						 M3550.6,727.58c0.17,0.22,0.34,0.46,0.49,0.7c2.08,3.39,1.01,7.83-2.39,9.9c-6.97,4.26-14.2,8.27-21.47,11.91
						c-3.56,1.78-7.87,0.35-9.67-3.22c-1.78-3.56-0.34-7.89,3.22-9.66c6.91-3.46,13.77-7.27,20.4-11.32
						C3544.33,723.97,3548.37,724.75,3550.6,727.58z M3493.76,754.14c0.5,0.63,0.89,1.36,1.16,2.16c1.27,3.77-0.76,7.86-4.53,9.12
						c-7.73,2.6-15.67,4.9-23.6,6.82c-3.87,0.94-7.76-1.44-8.7-5.3c-0.94-3.87,1.43-7.76,5.3-8.7c7.53-1.83,15.07-4.01,22.41-6.48
						C3488.77,750.77,3491.93,751.81,3493.76,754.14z M3432.4,767.33c0.82,1.04,1.36,2.32,1.5,3.74c0.39,3.96-2.5,7.49-6.46,7.88
						c-8.12,0.8-16.37,1.27-24.53,1.38c-3.97,0.05-7.24-3.13-7.3-7.11c-0.05-3.98,3.13-7.24,7.11-7.3c7.75-0.1,15.58-0.54,23.3-1.31
						C3428.56,764.35,3430.93,765.46,3432.4,767.33z M3369.64,766.49c1.15,1.46,1.74,3.36,1.49,5.35c-0.5,3.95-4.1,6.75-8.04,6.25
						c-8.08-1.01-16.23-2.39-24.21-4.09c-3.89-0.82-6.38-4.65-5.55-8.54c0.83-3.89,4.65-6.38,8.54-5.55
						c7.59,1.62,15.34,2.92,23.01,3.89C3366.83,764.05,3368.51,765.06,3369.64,766.49z M3308.63,751.8c1.49,1.89,2,4.49,1.12,6.92
						c-1.36,3.74-5.49,5.67-9.23,4.32c-7.66-2.78-15.31-5.92-22.71-9.34c-3.61-1.67-5.19-5.95-3.52-9.56
						c1.67-3.61,5.95-5.18,9.56-3.52c7.04,3.25,14.29,6.24,21.58,8.88C3306.74,749.97,3307.83,750.78,3308.63,751.8z
						 M3131.94,554.95c0.62,0.78,1.08,1.71,1.33,2.74c1.84,7.52,4.03,15.06,6.52,22.4c1.27,3.77-0.75,7.86-4.51,9.13
						c-3.77,1.28-7.86-0.74-9.13-4.51c-2.62-7.74-4.93-15.68-6.87-23.59c-0.95-3.87,1.42-7.76,5.28-8.71
						C3127.4,551.71,3130.25,552.8,3131.94,554.95z M3252.43,723.97c1.85,2.35,2.1,5.7,0.39,8.35c-2.15,3.35-6.61,4.31-9.96,2.16
						c-6.86-4.41-13.6-9.18-20.05-14.17c-3.14-2.45-3.73-6.96-1.29-10.11c2.43-3.15,6.96-3.73,10.11-1.29
						c6.13,4.74,12.53,9.26,19.04,13.46C3251.36,722.82,3251.95,723.36,3252.43,723.97z M3153.64,613.83
						c0.29,0.37,0.56,0.78,0.78,1.22c3.48,6.92,7.3,13.78,11.36,20.39c2.08,3.39,1.02,7.83-2.37,9.91
						c-3.39,2.08-7.84,1.03-9.91-2.37c-4.27-6.96-8.3-14.18-11.96-21.46c-1.79-3.55-0.35-7.89,3.2-9.67
						C3147.86,610.29,3151.57,611.19,3153.64,613.83z M3203.86,684.29c2.25,2.86,2.02,7.01-0.64,9.6
						c-2.85,2.78-7.41,2.72-10.19-0.13c-5.69-5.83-11.2-11.99-16.38-18.3c-0.03-0.04-0.07-0.08-0.1-0.12
						c-2.42-3.07-1.94-7.53,1.09-10.02c3.08-2.53,7.61-2.08,10.14,1c4.92,5.99,10.16,11.84,15.56,17.38
						C3203.53,683.89,3203.7,684.09,3203.86,684.29z"/>
					
						<linearGradient id="SVGID_00000122686697611960375880000004268108897192432820_" gradientUnits="userSpaceOnUse" x1="-5029.1826" y1="5516.623" x2="-5005.1855" y2="5516.623" gradientTransform="matrix(-0.6183 -0.7859 0.7859 -0.6183 -4318.4404 -16.9554)">
						<stop  offset="0" style="stop-color:#B37CFF"/>
						<stop  offset="1" style="stop-color:#F895E7"/>
					</linearGradient>
					<path style="fill:url(#SVGID_00000122686697611960375880000004268108897192432820_);" d="M3124.41,504.93
						c0.88,1.11,1.44,2.5,1.53,4.02c0.22,3.71,0.52,7.47,0.89,11.19c0.4,3.96-2.49,7.49-6.45,7.88c-3.96,0.4-7.49-2.49-7.88-6.45
						c-0.39-3.91-0.71-7.87-0.94-11.77c-0.23-3.97,2.8-7.38,6.77-7.62C3120.77,502.04,3123,503.14,3124.41,504.93z"/>
				</g>
				<g style="opacity:0.3;">
					
						<linearGradient id="SVGID_00000127010248151475506800000005064776940284188068_" gradientUnits="userSpaceOnUse" x1="-4904.626" y1="5699.9961" x2="-4888.1587" y2="5699.9961" gradientTransform="matrix(-0.6183 -0.7859 0.7859 -0.6183 -4318.4404 -16.9554)">
						<stop  offset="0" style="stop-color:#B37CFF"/>
						<stop  offset="1" style="stop-color:#F895E7"/>
					</linearGradient>
					<path style="fill:url(#SVGID_00000127010248151475506800000005064776940284188068_);" d="M3198.11,298.05
						c2.15,2.73,2.06,6.7-0.37,9.33c-2.52,2.73-5.02,5.56-7.44,8.4c-2.58,3.03-7.12,3.4-10.15,0.83c-3.04-2.59-3.4-7.12-0.83-10.15
						c2.55-3,5.18-5.98,7.84-8.85c2.7-2.92,7.26-3.11,10.18-0.41C3197.62,297.47,3197.88,297.75,3198.11,298.05z"/>
					
						<linearGradient id="SVGID_00000035516897995455695420000015451232744020090009_" gradientUnits="userSpaceOnUse" x1="-5307.8735" y1="5887.3057" x2="-4884.6396" y2="5887.3057" gradientTransform="matrix(-0.6183 -0.7859 0.7859 -0.6183 -4318.4404 -16.9554)">
						<stop  offset="0" style="stop-color:#B37CFF"/>
						<stop  offset="1" style="stop-color:#F895E7"/>
					</linearGradient>
					<path style="fill:url(#SVGID_00000035516897995455695420000015451232744020090009_);" d="M3624.75,314.48
						c2.05,2.6,4.06,5.25,6.04,7.95c2.35,3.21,1.66,7.72-1.55,10.07c-3.21,2.35-7.74,1.65-10.07-1.55
						c-4.56-6.22-9.36-12.23-14.33-17.95c-2.61-3.01-2.29-7.55,0.71-10.16c3-2.61,7.55-2.29,10.16,0.71
						C3618.79,307.09,3621.83,310.76,3624.75,314.48z M3651.14,354.56c0.25,0.32,0.48,0.66,0.67,1.03
						c3.83,7.06,7.41,14.37,10.63,21.71c1.6,3.64-0.06,7.89-3.7,9.49c-3.64,1.6-7.91-0.06-9.49-3.7
						c-3.06-6.97-6.46-13.91-10.1-20.63c-1.9-3.5-0.6-7.87,2.89-9.77C3645.17,350.99,3649.01,351.85,3651.14,354.56z
						 M3588.92,276.74c2.1,2.67,2.07,6.54-0.24,9.19c-2.62,3-7.17,3.3-10.17,0.69c-5.73-5.01-11.75-9.84-17.91-14.36
						c-3.2-2.36-3.9-6.86-1.54-10.07c2.36-3.21,6.87-3.9,10.07-1.54c6.48,4.76,12.82,9.85,18.86,15.12
						C3588.33,276.06,3588.64,276.39,3588.92,276.74z M3674.45,411.76c0.57,0.72,1,1.56,1.27,2.49c2.19,7.73,4.07,15.64,5.6,23.52
						c0.76,3.91-1.8,7.68-5.7,8.44c-3.91,0.76-7.69-1.79-8.44-5.7c-1.45-7.48-3.24-14.99-5.31-22.33c-1.09-3.83,1.14-7.81,4.97-8.89
						C3669.71,408.47,3672.69,409.54,3674.45,411.76z M3538.23,241.52c1.72,2.19,2.08,5.28,0.67,7.89c-1.89,3.5-6.27,4.8-9.77,2.9
						c-6.69-3.62-13.63-7.01-20.62-10.07c-3.65-1.59-5.31-5.84-3.71-9.49c1.59-3.64,5.84-5.31,9.48-3.71
						c7.37,3.22,14.67,6.78,21.71,10.6C3536.89,240.13,3537.64,240.78,3538.23,241.52z M3481.04,218.29
						c1.38,1.75,1.93,4.11,1.27,6.42c-1.08,3.83-5.07,6.05-8.89,4.97c-7.34-2.08-14.86-3.87-22.33-5.33
						c-3.91-0.76-6.45-4.54-5.69-8.45c0.76-3.91,4.54-6.45,8.45-5.69c7.87,1.53,15.78,3.42,23.5,5.61
						C3478.87,216.24,3480.13,217.13,3481.04,218.29z M3420.15,208.07c1.05,1.33,1.63,3.03,1.53,4.86c-0.22,3.97-3.63,7.01-7.6,6.78
						c-7.62-0.43-15.35-0.55-22.96-0.34c-3.98,0.11-7.29-3.02-7.4-7.01c-0.11-3.98,3.03-7.29,7.01-7.4
						c8.01-0.22,16.14-0.1,24.16,0.36C3417.04,205.45,3418.92,206.5,3420.15,208.07z M3358.48,211.37c0.73,0.92,1.24,2.03,1.44,3.27
						c0.65,3.92-2.01,7.63-5.93,8.28c-7.53,1.25-15.09,2.83-22.47,4.7c-3.86,0.98-7.78-1.36-8.76-5.21
						c-0.98-3.86,1.35-7.78,5.21-8.75c7.78-1.97,15.74-3.64,23.67-4.95C3354.33,208.27,3356.91,209.38,3358.48,211.37z
						 M3299.02,228.14c0.41,0.52,0.75,1.1,1.01,1.74c1.5,3.68-0.27,7.89-3.96,9.38c-7.05,2.87-14.07,6.07-20.88,9.53
						c-3.55,1.8-7.89,0.38-9.69-3.15c-1.8-3.55-0.39-7.88,3.16-9.69c7.16-3.64,14.55-7.02,21.98-10.04
						C3293.69,224.69,3297.09,225.68,3299.02,228.14z M3244.73,257.55c0.09,0.12,0.18,0.24,0.26,0.36
						c2.26,3.27,1.45,7.76-1.82,10.02c-4.62,3.2-9.19,6.57-13.59,10.04c-1.59,1.25-3.17,2.53-4.73,3.81
						c-3.07,2.53-7.61,2.09-10.14-0.99c-2.62-3.06-2.09-7.61,0.99-10.14c1.64-1.35,3.3-2.68,4.98-4c4.63-3.64,9.45-7.2,14.3-10.56
						C3238.12,253.9,3242.4,254.58,3244.73,257.55z"/>
					
						<linearGradient id="SVGID_00000115477997373862781200000011031715101238749336_" gradientUnits="userSpaceOnUse" x1="-5350.0601" y1="5976.5103" x2="-5326.3691" y2="5976.5103" gradientTransform="matrix(-0.6183 -0.7859 0.7859 -0.6183 -4318.4404 -16.9554)">
						<stop  offset="0" style="stop-color:#B37CFF"/>
						<stop  offset="1" style="stop-color:#F895E7"/>
					</linearGradient>
					<path style="fill:url(#SVGID_00000115477997373862781200000011031715101238749336_);" d="M3684.59,472.87
						c0.89,1.13,1.45,2.52,1.53,4.06c0.21,3.89,0.34,7.87,0.39,11.81c0.05,3.98-3.13,7.24-7.11,7.29c-3.98,0.05-7.24-3.13-7.29-7.11
						c-0.05-3.74-0.17-7.52-0.37-11.21c-0.22-3.97,2.83-7.37,6.8-7.58C3680.97,469.99,3683.19,471.09,3684.59,472.87z"/>
				</g>
				<g>
					<path style="fill:#B3B3B3;" d="M3612.91,516.89c0.31-1.4-0.3-2.85-1.52-3.6l-34.89-21.48c-0.2-19.14-3.45-38.38-9.93-56.97
						l25.53-32.02c0.9-1.12,0.98-2.69,0.21-3.9l-26.34-41.5c-0.77-1.21-2.23-1.8-3.62-1.47l-39.84,9.48
						c-14.07-13.78-30.1-24.91-47.33-33.23l-4.59-40.72c-0.16-1.43-1.21-2.6-2.61-2.91L3420,277.85c-1.4-0.31-2.85,0.3-3.6,1.52
						l-21.48,34.89c-19.14,0.2-38.38,3.45-56.97,9.93l-32.02-25.53c-1.12-0.9-2.69-0.98-3.9-0.21l-41.5,26.34
						c-1.21,0.77-1.8,2.22-1.47,3.62l9.48,39.84c-13.78,14.07-24.91,30.1-33.23,47.33l-40.72,4.59c-1.43,0.16-2.59,1.21-2.91,2.61
						l-10.71,47.97c-0.31,1.4,0.3,2.85,1.52,3.6l34.89,21.48c0.2,19.14,3.45,38.38,9.93,56.97l-25.53,32.02
						c-0.9,1.12-0.98,2.69-0.21,3.9l26.34,41.5c0.77,1.21,2.22,1.8,3.62,1.47l39.84-9.48c14.07,13.78,30.1,24.91,47.33,33.23
						l4.59,40.72c0.16,1.43,1.21,2.6,2.61,2.91l47.97,10.71c1.4,0.31,2.85-0.3,3.6-1.52l21.48-34.89
						c19.14-0.2,38.38-3.45,56.97-9.93l32.02,25.53c1.12,0.9,2.69,0.98,3.9,0.21l41.5-26.34c1.21-0.77,1.8-2.22,1.47-3.62
						l-9.48-39.84c13.78-14.07,24.91-30.1,33.23-47.33l40.72-4.59c1.43-0.16,2.59-1.21,2.91-2.61L3612.91,516.89z"/>
					<path style="opacity:0.56;fill:#FFFFFF;" d="M3435.79,463.3c14.89,18.93,14.07,46.48-2.97,64.48
						c-18.73,19.79-50.06,20.65-69.84,1.92c-9.59-9.07-15.06-21.33-15.43-34.52c-0.36-13.19,4.43-25.74,13.5-35.32
						c18.73-19.79,50.06-20.65,69.84-1.92C3432.68,459.63,3434.32,461.42,3435.79,463.3z M3367.11,517.19
						c1.15,1.46,2.41,2.85,3.79,4.15c15.17,14.36,39.19,13.69,53.55-1.47c14.36-15.17,13.71-39.2-1.47-53.55
						c-15.17-14.36-39.19-13.69-53.55,1.47c-6.96,7.35-10.63,16.97-10.35,27.08C3359.3,503.09,3362.12,510.84,3367.11,517.19z"/>
					<path style="opacity:0.56;fill:#FFFFFF;" d="M3491.25,418.39c2.56,3.25,4.97,6.65,7.21,10.19l0,0c0.71,1.11,1.4,2.24,2.07,3.38
						c3.31,5.6,6.17,11.46,8.53,17.48c0.03,0.08,0.06,0.16,0.1,0.25c0.09,0.23,0.18,0.47,0.27,0.7c0.18,0.45,0.34,0.91,0.51,1.37
						c0.44,1.2,0.04,2.51-0.92,3.26c-0.23,0.18-0.5,0.33-0.79,0.44c-1.49,0.55-3.15-0.22-3.7-1.71
						c-2.83-7.68-6.51-15.11-10.94-22.08c-21.97-34.62-59.41-53.6-97.66-53.67c-21.27-0.04-42.8,5.77-62.05,17.99
						c-3.38,2.14-6.62,4.44-9.72,6.88c-20.87,16.42-35.33,39.32-41.19,65.59c-6.74,30.17-1.33,61.15,15.24,87.25
						c34.22,53.89,105.85,69.87,159.71,35.68c3.32-2.11,6.52-4.38,9.59-6.79c13.31-10.47,24.18-23.74,31.78-38.9
						c0.2-0.39,0.47-0.72,0.79-0.97c0.85-0.67,2.04-0.83,3.07-0.31c1.42,0.72,2,2.44,1.28,3.87c-7.98,15.91-19.39,29.84-33.37,40.84
						c-3.22,2.54-6.58,4.92-10.07,7.13c-56.56,35.9-131.78,19.08-167.67-37.45c-17.39-27.4-23.07-59.92-16-91.59
						c6.16-27.57,21.34-51.62,43.25-68.85c3.26-2.56,6.66-4.97,10.2-7.22c27.4-17.39,59.93-23.07,91.59-16
						C3449.96,381.28,3474.01,396.47,3491.25,418.39z"/>
				</g>
			</g>
			<g>
				<g style="opacity:0.3;">
					
						<linearGradient id="SVGID_00000114049965019853718850000008509528835542236310_" gradientUnits="userSpaceOnUse" x1="-5704.4761" y1="5967.0649" x2="-5692.7642" y2="5967.0649" gradientTransform="matrix(-0.6183 -0.7859 0.7859 -0.6183 -4318.4404 -16.9554)">
						<stop  offset="0" style="stop-color:#B37CFF"/>
						<stop  offset="1" style="stop-color:#F895E7"/>
					</linearGradient>
					<path style="fill:url(#SVGID_00000114049965019853718850000008509528835542236310_);" d="M3901.39,764.97
						c1.19,1.51,1.3,3.68,0.12,5.33c-2.19,3.08-4.5,6.13-6.88,9.07c-1.54,1.91-4.34,2.21-6.26,0.67c-1.92-1.54-2.21-4.34-0.67-6.26
						c2.26-2.8,4.47-5.71,6.56-8.65c1.42-2,4.2-2.47,6.2-1.04C3900.83,764.35,3901.13,764.65,3901.39,764.97z"/>
					
						<linearGradient id="SVGID_00000011028576606637815470000006337963534976528555_" gradientUnits="userSpaceOnUse" x1="-5709.2168" y1="5835.4917" x2="-5479.6709" y2="5835.4917" gradientTransform="matrix(-0.6183 -0.7859 0.7859 -0.6183 -4318.4404 -16.9554)">
						<stop  offset="0" style="stop-color:#B37CFF"/>
						<stop  offset="1" style="stop-color:#F895E7"/>
					</linearGradient>
					<path style="fill:url(#SVGID_00000011028576606637815470000006337963534976528555_);" d="M3879.07,790.91
						c1.39,1.77,1.25,4.35-0.41,5.95c-4.68,4.52-9.64,8.85-14.75,12.87c-1.08,0.85-2.16,1.68-3.26,2.51
						c-1.97,1.48-4.76,0.92-6.23-0.88c-1.48-1.96-1.08-4.75,0.88-6.23c1.05-0.79,2.09-1.59,3.12-2.4
						c4.87-3.83,9.61-7.96,14.07-12.27c1.77-1.71,4.58-1.66,6.29,0.11C3878.87,790.68,3878.97,790.8,3879.07,790.91z M3842.16,818.7
						c0.13,0.17,0.25,0.34,0.36,0.53c1.23,2.13,0.5,4.85-1.63,6.08c-6.83,3.94-13.96,7.5-21.19,10.56
						c-2.26,0.96-4.88-0.11-5.83-2.36c-0.96-2.26,0.1-4.87,2.36-5.83c6.9-2.92,13.71-6.32,20.22-10.08
						C3838.39,816.49,3840.82,816.99,3842.16,818.7z M3799.62,836.71c0.35,0.44,0.62,0.96,0.78,1.54c0.67,2.36-0.71,4.82-3.07,5.49
						c-7.57,2.14-15.37,3.84-23.16,5.03c-2.43,0.37-4.7-1.29-5.07-3.73c-0.37-2.43,1.3-4.7,3.72-5.07
						c7.43-1.14,14.86-2.75,22.08-4.8C3796.7,834.68,3798.54,835.34,3799.62,836.71z M3753.96,843.71c0.57,0.72,0.92,1.63,0.95,2.62
						c0.07,2.46-1.87,4.51-4.32,4.58c-7.88,0.22-15.85-0.04-23.68-0.79c-2.45-0.23-4.24-2.41-4-4.85c0.23-2.45,2.4-4.24,4.85-4.01
						c7.46,0.71,15.06,0.96,22.58,0.75C3751.8,841.97,3753.11,842.64,3753.96,843.71z M3707.97,839.35c0.8,1.01,1.15,2.36,0.85,3.71
						c-0.53,2.4-2.9,3.91-5.3,3.38c-7.69-1.7-15.35-3.89-22.76-6.51c-2.32-0.82-3.53-3.36-2.71-5.68c0.82-2.32,3.36-3.53,5.68-2.71
						c7.07,2.5,14.38,4.59,21.72,6.21C3706.47,837.99,3707.35,838.57,3707.97,839.35z M3664.43,823.95
						c1.03,1.31,1.28,3.15,0.48,4.74c-1.1,2.2-3.77,3.09-5.97,1.99c-7.05-3.52-13.94-7.51-20.48-11.86
						c-2.05-1.37-2.6-4.13-1.24-6.17c1.36-2.05,4.12-2.6,6.17-1.24c6.24,4.15,12.81,7.96,19.53,11.31
						C3663.53,823.03,3664.04,823.45,3664.43,823.95z M3626,798.39c1.29,1.64,1.28,4.01-0.13,5.65c-1.6,1.86-4.41,2.07-6.28,0.47
						c-5.95-5.12-11.65-10.69-16.96-16.54c-1.62-1.85-1.51-4.64,0.31-6.29c1.82-1.65,4.63-1.51,6.28,0.31
						c5.06,5.58,10.5,10.89,16.17,15.77C3625.62,797.96,3625.82,798.17,3626,798.39z M3582.84,744.45c0.16,0.2,0.3,0.42,0.43,0.66
						c3.06,5.72,6.48,11.37,10.18,16.8c0.56,0.83,1.11,1.63,1.68,2.42c1.42,2.01,0.94,4.78-1.07,6.2c-2.01,1.42-4.85,0.97-6.2-1.07
						c-0.6-0.85-1.19-1.7-1.77-2.57c-3.86-5.67-7.45-11.6-10.66-17.6c-1.16-2.17-0.34-4.86,1.83-6.02
						C3579.18,742.25,3581.53,742.79,3582.84,744.45z"/>
				</g>
				<g style="opacity:0.3;">
					
						<linearGradient id="SVGID_00000000186003246905806600000000693133982375039402_" gradientUnits="userSpaceOnUse" x1="-5606.7773" y1="6055.5444" x2="-5344.7871" y2="6055.5444" gradientTransform="matrix(-0.6183 -0.7859 0.7859 -0.6183 -4318.4404 -16.9554)">
						<stop  offset="0" style="stop-color:#B37CFF"/>
						<stop  offset="1" style="stop-color:#F895E7"/>
					</linearGradient>
					<path style="fill:url(#SVGID_00000000186003246905806600000000693133982375039402_);" d="M3894.35,537.95
						c1.5,1.91,1.19,4.68-0.7,6.21c-1.91,1.54-4.71,1.25-6.26-0.66c-4.65-5.75-9.69-11.27-14.98-16.4c-1.74-1.72-1.81-4.53-0.1-6.29
						c1.71-1.77,4.53-1.8,6.29-0.1c5.55,5.38,10.83,11.17,15.7,17.2C3894.32,537.92,3894.34,537.94,3894.35,537.95z M3907.56,556.49
						c0.1,0.13,0.19,0.26,0.28,0.4c4.11,6.56,7.87,13.44,11.16,20.45c1.04,2.23,0.09,4.87-2.13,5.92c-2.23,1.05-4.88,0.08-5.92-2.13
						c-3.14-6.69-6.73-13.25-10.65-19.52c-1.3-2.08-0.67-4.83,1.41-6.13C3903.66,554.25,3906.18,554.72,3907.56,556.49z
						 M3861.73,506.33c1.22,1.55,1.3,3.78,0.05,5.43c-1.48,1.96-4.27,2.35-6.23,0.87c-5.91-4.46-12.13-8.6-18.51-12.3
						c-2.12-1.25-2.85-3.96-1.61-6.08c1.23-2.12,3.96-2.85,6.08-1.61c6.68,3.88,13.21,8.22,19.4,12.9
						C3861.23,505.77,3861.5,506.04,3861.73,506.33z M3926.88,597.63c0.31,0.4,0.56,0.86,0.73,1.36c2.42,7.36,4.4,14.95,5.9,22.55
						c0.48,2.41-1.09,4.75-3.51,5.23c-2.4,0.47-4.74-1.1-5.22-3.51c-1.43-7.25-3.32-14.48-5.62-21.5c-0.76-2.33,0.51-4.85,2.84-5.61
						C3923.82,595.56,3925.75,596.21,3926.88,597.63z M3822.44,483.53c0.97,1.24,1.26,2.96,0.6,4.5c-0.97,2.26-3.58,3.31-5.84,2.34
						c-6.79-2.91-13.82-5.43-20.92-7.49c-2.36-0.69-3.72-3.16-3.03-5.52c0.69-2.36,3.16-3.72,5.52-3.03
						c7.44,2.17,14.81,4.81,21.93,7.85C3821.41,482.5,3822,482.97,3822.44,483.53z M3778.83,470.83c0.75,0.95,1.1,2.19,0.9,3.47
						c-0.4,2.42-2.69,4.07-5.11,3.67c-7.3-1.2-14.74-1.96-22.11-2.27c-2.46-0.1-4.36-2.18-4.26-4.63c0.1-2.46,2.18-4.36,4.63-4.26
						c7.72,0.33,15.52,1.12,23.18,2.38C3777.2,469.38,3778.17,469.98,3778.83,470.83z M3733.42,468.94c0.52,0.67,0.87,1.49,0.93,2.4
						c0.2,2.45-1.63,4.59-4.08,4.79c-7.38,0.58-14.78,1.63-22.01,3.1c-2.4,0.49-4.76-1.06-5.25-3.47c-0.49-2.41,1.06-4.76,3.47-5.25
						c7.58-1.54,15.34-2.64,23.08-3.25C3731.12,467.13,3732.53,467.81,3733.42,468.94z"/>
					
						<linearGradient id="SVGID_00000084519369327082181870000017323770107244133271_" gradientUnits="userSpaceOnUse" x1="-5635.5771" y1="6071.9297" x2="-5617.6597" y2="6071.9297" gradientTransform="matrix(-0.6183 -0.7859 0.7859 -0.6183 -4318.4404 -16.9554)">
						<stop  offset="0" style="stop-color:#B37CFF"/>
						<stop  offset="1" style="stop-color:#F895E7"/>
					</linearGradient>
					<path style="fill:url(#SVGID_00000084519369327082181870000017323770107244133271_);" d="M3935.69,642.43
						c0.53,0.67,0.87,1.51,0.94,2.43c0.27,3.8,0.43,7.62,0.48,11.36c0.03,2.46-1.94,4.48-4.39,4.51c-2.45,0.02-4.47-1.94-4.51-4.39
						c-0.04-3.57-0.2-7.22-0.46-10.84c-0.18-2.45,1.67-4.58,4.12-4.76C3933.4,640.63,3934.81,641.31,3935.69,642.43z"/>
				</g>
				<g>
					<path style="fill:#C69C6D;" d="M3888.23,675.06c0.21-0.94-0.2-1.91-1.02-2.41l-23.35-14.37c-0.13-12.8-2.31-25.68-6.65-38.12
						l17.08-21.43c0.6-0.75,0.66-1.8,0.14-2.61l-17.63-27.77c-0.52-0.81-1.49-1.21-2.42-0.98l-26.66,6.34
						c-9.41-9.22-20.14-16.67-31.67-22.24l-3.07-27.25c-0.11-0.95-0.81-1.74-1.75-1.95l-32.1-7.17c-0.94-0.21-1.91,0.2-2.41,1.02
						l-14.37,23.35c-12.8,0.13-25.68,2.31-38.12,6.65l-21.43-17.08c-0.75-0.6-1.8-0.66-2.61-0.14l-27.77,17.63
						c-0.81,0.52-1.21,1.49-0.98,2.42l6.34,26.66c-9.22,9.41-16.67,20.14-22.24,31.67l-27.25,3.07c-0.95,0.11-1.74,0.81-1.95,1.75
						l-7.17,32.1c-0.21,0.94,0.2,1.91,1.02,2.41l23.35,14.37c0.13,12.8,2.31,25.68,6.65,38.12l-17.08,21.43
						c-0.6,0.75-0.66,1.8-0.14,2.61l17.63,27.77c0.52,0.81,1.49,1.21,2.42,0.98l26.66-6.34c9.41,9.22,20.14,16.67,31.67,22.24
						l3.07,27.25c0.11,0.96,0.81,1.74,1.75,1.95l32.1,7.17c0.94,0.21,1.91-0.2,2.41-1.02l14.37-23.35
						c12.8-0.13,25.68-2.31,38.12-6.65l21.43,17.08c0.75,0.6,1.8,0.66,2.61,0.14l27.77-17.63c0.81-0.52,1.21-1.49,0.98-2.42
						l-6.34-26.66c9.22-9.41,16.67-20.14,22.24-31.67l27.25-3.07c0.96-0.11,1.74-0.81,1.95-1.75L3888.23,675.06z"/>
					<path style="opacity:0.56;fill:#FFFFFF;" d="M3770.21,638.87c4.44,5.64,6.94,12.53,7.14,19.83c0.25,8.99-3.02,17.53-9.2,24.06
						c-12.75,13.47-34.09,14.06-47.57,1.31c-13.47-12.8-14.06-34.1-1.31-47.58c6.18-6.53,14.53-10.26,23.51-10.51
						c8.99-0.25,17.53,3.02,24.06,9.2C3768.06,636.35,3769.19,637.58,3770.21,638.87z M3724.24,674.93
						c0.74,0.94,1.56,1.84,2.45,2.69c9.92,9.38,25.61,8.95,35-0.97c4.54-4.8,6.95-11.09,6.77-17.69c-0.18-6.61-2.93-12.75-7.73-17.3
						l0,0c-4.8-4.54-11.09-6.95-17.7-6.77c-6.61,0.18-12.76,2.93-17.3,7.73C3717.19,651.63,3716.78,665.44,3724.24,674.93z"/>
					<path style="opacity:0.56;fill:#FFFFFF;" d="M3808.85,607.66c1.74,2.21,3.38,4.53,4.92,6.96c3.06,4.82,5.63,9.95,7.65,15.27
						c0.09,0.24,0.18,0.48,0.27,0.72c0.69,1.85,0.06,3.87-1.42,5.04c-0.36,0.28-0.77,0.51-1.22,0.68c-2.3,0.85-4.85-0.34-5.71-2.64
						c-1.84-4.98-4.22-9.79-7.08-14.29l0,0c-0.16-0.25-0.32-0.49-0.48-0.74c-6.87-10.59-16.11-19.07-26.92-24.93
						c-5.87-3.18-12.2-5.59-18.86-7.15c-0.05-0.01-0.11-0.03-0.16-0.04c-0.17-0.04-0.33-0.08-0.5-0.11
						c-19.53-4.36-39.59-0.86-56.48,9.87c-2.19,1.39-4.29,2.87-6.29,4.45c-13.51,10.63-22.87,25.46-26.67,42.46
						c-4.36,19.53-0.85,39.59,9.87,56.48c10.72,16.88,27.39,28.6,46.91,32.96c19.53,4.36,39.59,0.86,56.48-9.87
						c2.15-1.36,4.22-2.83,6.21-4.4c8.62-6.78,15.65-15.37,20.57-25.18c0.3-0.6,0.72-1.11,1.22-1.5c1.31-1.03,3.16-1.28,4.75-0.48
						c2.19,1.11,3.08,3.77,1.98,5.97c-5.51,10.97-13.38,20.59-23.02,28.17c-2.23,1.75-4.54,3.39-6.95,4.92
						c-18.9,12-41.34,15.92-63.19,11.04c-21.85-4.88-40.49-17.96-52.48-36.88c-12-18.9-15.92-41.34-11.04-63.19
						c4.25-19.02,14.72-35.61,29.84-47.5c2.24-1.77,4.59-3.43,7.04-4.98C3734.69,565.55,3782.61,574.3,3808.85,607.66z"/>
				</g>
			</g>
		</g>
		<g>
			<g>
				<path style="fill:#D2B069;" d="M2003.67,1893.27c0,20.64,16.9,37.53,37.56,37.53h2031.3c20.66,0,37.56-16.89,37.56-37.53
					L4127,725.94c0-20.64-24.32-60.93-68.88-57.91l-1985.21-51.37c-25.92-0.67-50.99,9.31-69.34,27.6
					c-18.36,18.3-28.4,43.31-27.79,69.21L2003.67,1893.27z"/>
				<path style="fill:#D1D3D4;" d="M2040.76,1857.27c0,19.55,15.99,35.54,35.54,35.54h1947.25c19.55,0,35.54-15.99,35.54-35.54
					l15.95-1059.71c-1.88-63.77-57.79-86.69-91.68-85.34l-1902.64-51.04c-18.21-0.49-35.82,6.53-48.72,19.39
					c-12.9,12.87-19.99,30.47-19.54,48.69L2040.76,1857.27z"/>
				<g>
					<path style="fill:#FFFFFF;" d="M4038.04,1353.83c-0.03,0-0.05,0-0.08,0c-2.88-0.04-5.18-2.41-5.13-5.29l1.26-85.94
						c0.04-2.85,2.37-5.13,5.2-5.13c0.03,0,0.05,0,0.08,0c2.88,0.04,5.18,2.41,5.13,5.29l-1.26,85.94
						C4043.21,1351.55,4040.88,1353.83,4038.04,1353.83z"/>
					<path style="fill:#FFFFFF;" d="M4041.14,1143.23c-0.03,0-0.05,0-0.08,0c-2.88-0.04-5.18-2.41-5.13-5.29l4.83-329.16
						c-0.09-19.55-6.02-35.16-17.64-46.29c-21.68-20.77-56.11-19.71-57.56-19.64l-608.13-16.31c-2.87-0.07-5.14-2.47-5.07-5.34
						c0.08-2.87,2.28-5.32,5.35-5.06l607.76,16.31c3.78-0.22,40.43-0.86,64.84,22.53c13.73,13.16,20.75,31.28,20.85,53.87
						l-4.83,329.26C4046.3,1140.95,4043.98,1143.23,4041.14,1143.23z"/>
				</g>
				<path style="fill:#D2B069;" d="M1844.54,2027.7h2383.51c3.11,0,5.65-2.54,5.65-5.65v-91.26c0-3.11-2.54-5.65-5.65-5.65H1844.54
					c-3.11,0-5.65,2.54-5.65,5.65v91.26C1838.89,2025.16,1841.43,2027.7,1844.54,2027.7z"/>
			</g>
		</g>
		<g>
			<g>
				<g>
					<path style="fill:#D2B069;" d="M2827.08,1257.38l-73.97-230.6h57.11l27.9,97.63c8.07,27.42,15.07,53.52,20.82,82.28h0.72
						c5.83-27.69,13.28-55.08,21.13-81.46l29.27-98.45h55.46l-77.54,230.6H2827.08z"/>
					<path style="fill:#D2B069;" d="M3025.23,1198.17l-16.28,59.21h-53.91l70.37-230.6h68.23l71.79,230.6h-56.17l-17.73-59.21
						H3025.23z M3083.81,1159.33l-14.36-49c-3.96-13.63-8.05-30.91-11.59-44.41h-0.72c-3.39,13.56-6.86,31.07-10.56,44.46
						l-13.79,48.95H3083.81z"/>
					<path style="fill:#D2B069;" d="M3212.33,1070.55h-62.23v-43.77h177.48v43.77h-63.11v186.83h-52.14V1070.55z"/>
				</g>
				<g>
					<path style="fill:#FF0000;" d="M2555.96,1295.53c7.07-1.15,16.27-1.83,25.89-1.83c16.11,0,26.64,2.97,34.78,9.12
						c8.82,6.58,14.36,16.94,14.36,31.96c0,16.28-5.89,27.53-14.04,34.41c-8.93,7.45-22.62,11-39.17,11
						c-9.98,0-17.09-0.6-21.81-1.25V1295.53z M2575.13,1364.84c1.68,0.31,4.36,0.33,6.7,0.33c17.39,0.15,28.82-9.46,28.82-29.76
						c0.04-17.65-10.29-26.92-26.8-26.92c-4.2,0-7.02,0.36-8.72,0.73V1364.84z"/>
					<path style="fill:#FF0000;" d="M2694.11,1343.37h-31.25v20.2h34.94v15.73h-54.14v-84.93h52.32v15.73h-33.12v17.69h31.25
						V1343.37z"/>
					<path style="fill:#D2B069;" d="M2710.94,1295.53c6.17-1.04,15.31-1.83,25.52-1.83c12.6,0,21.42,1.92,27.48,6.73
						c5.07,4.02,7.86,9.99,7.86,17.8c0,10.76-7.69,18.25-14.99,20.87v0.4c5.89,2.38,9.21,8.01,11.35,15.81
						c2.62,9.61,5.19,20.68,6.85,23.97h-19.66c-1.3-2.46-3.42-9.28-5.84-19.8c-2.37-10.61-5.93-13.45-13.84-13.55h-5.71v33.35
						h-19.03V1295.53z M2729.96,1332.05h7.52c9.53,0,15.23-4.86,15.23-12.24c0-7.77-5.33-11.75-14.1-11.8c-4.6,0-7.29,0.3-8.64,0.64
						V1332.05z"/>
					<path style="fill:#D2B069;" d="M2836.11,1343.37h-31.25v20.2h34.94v15.73h-54.14v-84.93h52.32v15.73h-33.12v17.69h31.25
						V1343.37z"/>
					<path style="fill:#D2B069;" d="M2923.85,1375.37c-5.95,2.06-17.16,4.77-28.36,4.77c-15.52,0-26.71-3.89-34.53-11.39
						c-7.79-7.38-12.06-18.44-12.01-30.92c0.1-28.25,20.68-44.32,48.5-44.32c10.97,0,19.41,2.08,23.61,4.08l-4.02,15.39
						c-4.71-2.03-10.42-3.6-19.76-3.6c-16.01,0-28.18,9-28.18,27.47c0,17.54,11.07,27.81,26.79,27.81c4.34,0,7.86-0.5,9.39-1.2
						v-17.85h-13.13v-14.98h31.69V1375.37z"/>
					<path style="fill:#D2B069;" d="M2958.07,1294.36v84.93h-19.2v-84.93H2958.07z"/>
					<path style="fill:#D2B069;" d="M2975.4,1359.47c5.09,2.73,13.07,5.33,21.29,5.33c8.82,0,13.5-3.66,13.5-9.25
						c0-5.22-4.05-8.29-14.22-11.87c-14.17-5.02-23.43-12.75-23.43-25.15c0-14.48,12.16-25.49,32.12-25.49
						c9.68,0,16.68,1.92,21.69,4.27l-4.24,15.4c-3.37-1.61-9.48-4.03-17.73-4.03c-8.36,0-12.35,3.87-12.35,8.21
						c0,5.39,4.71,7.78,15.72,11.94c15.04,5.62,22,13.42,22,25.43c0,14.18-10.86,26.35-34.24,26.35c-9.62,0-19.26-2.62-23.99-5.28
						L2975.4,1359.47z"/>
					<path style="fill:#D2B069;" d="M3059.21,1310.48h-22.92v-16.12h65.37v16.12h-23.24v68.81h-19.2V1310.48z"/>
					<path style="fill:#D2B069;" d="M3111.86,1295.53c6.17-1.04,15.31-1.83,25.52-1.83c12.6,0,21.42,1.92,27.48,6.73
						c5.07,4.02,7.86,9.99,7.86,17.8c0,10.76-7.69,18.25-14.99,20.87v0.4c5.89,2.38,9.21,8.01,11.35,15.81
						c2.62,9.61,5.19,20.68,6.85,23.97h-19.66c-1.31-2.46-3.42-9.28-5.84-19.8c-2.37-10.61-5.93-13.45-13.83-13.55h-5.71v33.35
						h-19.03V1295.53z M3130.89,1332.05h7.52c9.53,0,15.22-4.86,15.22-12.24c0-7.77-5.33-11.75-14.1-11.8c-4.6,0-7.29,0.3-8.65,0.64
						V1332.05z"/>
					<path style="fill:#D2B069;" d="M3207.39,1357.49l-5.99,21.81h-19.86l25.92-84.93h25.13l26.44,84.93h-20.69l-6.53-21.81H3207.39
						z M3228.97,1343.18l-5.29-18.05c-1.46-5.02-2.96-11.39-4.27-16.35h-0.27c-1.25,5-2.53,11.44-3.89,16.38l-5.08,18.03H3228.97z"
						/>
					<path style="fill:#D2B069;" d="M3276.3,1310.48h-22.92v-16.12h65.37v16.12h-23.24v68.81h-19.2V1310.48z"/>
					<path style="fill:#D2B069;" d="M3348.16,1294.36v84.93h-19.2v-84.93H3348.16z"/>
					<path style="fill:#D2B069;" d="M3442.53,1335.98c0,27.86-16.82,44.7-41.65,44.7c-25.18,0-40-19.05-40-43.27
						c0-25.39,16.33-44.43,41.34-44.43C3428.29,1292.98,3442.53,1312.48,3442.53,1335.98z M3381.18,1337.04
						c0,16.64,7.84,28.37,20.65,28.37c12.98,0,20.4-12.27,20.4-28.78c0-15.31-7.24-28.38-20.45-28.38
						C3388.78,1308.25,3381.18,1320.53,3381.18,1337.04z"/>
					<path style="fill:#D2B069;" d="M3455.2,1379.29v-84.93h22.37l17.63,31.15c5.09,8.9,10.05,19.53,13.88,29.13l0.33-0.04
						c-1.18-11.23-1.55-22.65-1.55-35.48v-24.76h17.63v84.93h-20.12l-18.21-32.71c-5.06-9.16-10.64-20.05-14.76-30l-0.42,0.04
						c0.59,11.25,0.84,23.27,0.84,37.14v25.53H3455.2z"/>
				</g>
			</g>
			<path style="fill:#FFFFFF;" d="M3045.5,1856.61c-315.08,0-571.41-256.33-571.41-571.41s256.33-571.41,571.41-571.41
				s571.41,256.33,571.41,571.41S3360.58,1856.61,3045.5,1856.61z M3045.5,759.72c-289.75,0-525.48,235.73-525.48,525.48
				c0,289.75,235.73,525.48,525.48,525.48s525.48-235.73,525.48-525.48C3570.98,995.45,3335.25,759.72,3045.5,759.72z"/>
			
				<rect x="2499.18" y="1257.98" transform="matrix(0.7245 -0.6893 0.6893 0.7245 -45.0771 2449.1143)" style="fill:#FFFFFF;" width="1083.98" height="45.93"/>
		</g>
		<g>
			
				<linearGradient id="SVGID_00000103248345484315015370000010341229324033878948_" gradientUnits="userSpaceOnUse" x1="-9395.6035" y1="2347.8562" x2="-9250.8545" y2="2347.8562" gradientTransform="matrix(-1 0 0 1 -5199.6118 0)">
				<stop  offset="0" style="stop-color:#53D8FF"/>
				<stop  offset="1" style="stop-color:#3840F7"/>
			</linearGradient>
			<path style="fill:url(#SVGID_00000103248345484315015370000010341229324033878948_);" d="M4055.33,2340.85
				c24.8,2.14,67.83,5.63,101.76,7.12c20.4,0.9,32.14-1.1,38.9-3.81c-0.01,0.76-0.03,1.48-0.06,2.15c-0.16,3.57-3.06,6.43-6.67,6.63
				c-64.11,3.58-115.09,1.24-133.25,0.13c-3.75-0.23-5.99-4.31-4.07-7.51C4052.9,2343.97,4054.07,2342.4,4055.33,2340.85z"/>
			
				<linearGradient id="SVGID_00000022528549411190381510000002076934766103678352_" gradientUnits="userSpaceOnUse" x1="-9395.6113" y1="2319.4873" x2="-9254.9424" y2="2319.4873" gradientTransform="matrix(-1 0 0 1 -5199.6118 0)">
				<stop  offset="0" style="stop-color:#2B3582"/>
				<stop  offset="1" style="stop-color:#150E42"/>
			</linearGradient>
			<path style="fill:url(#SVGID_00000022528549411190381510000002076934766103678352_);" d="M4157.09,2347.97
				c-33.93-1.49-76.97-4.98-101.76-7.12c24.38-29.91,101.76-50.07,101.76-50.07h21.85c15.03,21.67,17.21,42.3,17.04,53.38
				C4189.23,2346.87,4177.49,2348.87,4157.09,2347.97z"/>
			
				<linearGradient id="SVGID_00000066482049011066863860000003995678130495593871_" gradientUnits="userSpaceOnUse" x1="-9382.2393" y1="2279.8806" x2="-9341.4668" y2="2279.8806" gradientTransform="matrix(-1 0 0 1 -5199.6118 0)">
				<stop  offset="0" style="stop-color:#F9B776"/>
				<stop  offset="1" style="stop-color:#F47960"/>
			</linearGradient>
			<path style="fill:url(#SVGID_00000066482049011066863860000003995678130495593871_);" d="M4182.63,2255.1l-2.05,40.47
				c-0.22,4.38-3.5,8.07-7.89,8.69c-4.37,0.62-10.22,0.7-16.42-1.36c-3.82-1.27-6.65-4.48-7.35-8.41l-7.07-39.4H4182.63z"/>
			<g>
				
					<linearGradient id="SVGID_00000003804662147353519650000002665367781693996698_" gradientUnits="userSpaceOnUse" x1="-9653.96" y1="2383.7493" x2="-9598.4902" y2="2383.7493" gradientTransform="matrix(-1 0 0 1 -5199.6118 0)">
					<stop  offset="0" style="stop-color:#53D8FF"/>
					<stop  offset="1" style="stop-color:#3840F7"/>
				</linearGradient>
				<path style="fill:url(#SVGID_00000003804662147353519650000002665367781693996698_);" d="M4436.29,2387.54
					c10.75-1.94,15.62-9.16,17.66-16.88c0.01,0.07,0.03,0.14,0.04,0.21c1.58,8.14-2.09,16.58-9.42,20.59
					c-8.86,4.85-18.55,5.68-26.08,5.28c-8.07-0.43-15.48-4.75-19.55-11.66l-0.06-0.1
					C4406.98,2390.17,4418.35,2390.78,4436.29,2387.54z"/>
				
					<linearGradient id="SVGID_00000093894147746279801550000016964879037888505249_" gradientUnits="userSpaceOnUse" x1="-9653.5566" y1="2328.5498" x2="-9572.1377" y2="2328.5498" gradientTransform="matrix(-1 0 0 1 -5199.6118 0)">
					<stop  offset="0" style="stop-color:#2B3582"/>
					<stop  offset="1" style="stop-color:#150E42"/>
				</linearGradient>
				<path style="fill:url(#SVGID_00000093894147746279801550000016964879037888505249_);" d="M4385.58,2267.57h18.02
					c27.45-0.73,44.69,74.11,50.34,103.09c-2.04,7.72-6.91,14.94-17.66,16.88c-17.93,3.23-29.31,2.62-37.41-2.56
					c-14.83-25.22-22.19-62.17-25.72-83.73C4369.14,2276.73,4385.58,2267.57,4385.58,2267.57z"/>
			</g>
			
				<linearGradient id="SVGID_00000086672763126965631360000005791602268934726017_" gradientUnits="userSpaceOnUse" x1="-9611.2363" y1="2258.6194" x2="-9562.5088" y2="2258.6194" gradientTransform="matrix(-1 0 0 1 -5199.6118 0)">
				<stop  offset="0" style="stop-color:#F9B776"/>
				<stop  offset="1" style="stop-color:#F47960"/>
			</linearGradient>
			<path style="fill:url(#SVGID_00000086672763126965631360000005791602268934726017_);" d="M4401.29,2230.01l10.01,39.81
				c1.23,4.88-1.11,9.93-5.62,12.24c-5.6,2.87-13.48,5.89-20.73,5.02c-3.41-0.41-6.24-2.81-7.36-6.02l-14.69-41.88L4401.29,2230.01z
				"/>
			<path style="fill:#D2B069;" d="M4049.23,1705.74c0,0,89.44,559.07,87.97,562.14c0,0,24.7,11.23,51.63,1.43
				c0,0-8.09-298.86-27.04-413.45c0,0,152.64,267.12,201.11,400.22c0,0,25.28-3.01,46.21-16.79c0,0-164.35-480.81-208.2-544.85
				L4049.23,1705.74z"/>
			
				<linearGradient id="SVGID_00000101824426402863839700000000401011176572086675_" gradientUnits="userSpaceOnUse" x1="4409.2954" y1="987.2168" x2="4146.0425" y2="1770.9917">
				<stop  offset="0" style="stop-color:#CE1567"/>
				<stop  offset="1" style="stop-color:#7A1DBC"/>
			</linearGradient>
			<path style="fill:url(#SVGID_00000101824426402863839700000000401011176572086675_);" d="M4158.21,1852.95
				c0.48,0,0.96-0.13,1.4-0.4c1.24-0.78,1.61-2.4,0.84-3.64l-33.42-53.39c-0.39-0.62-1.01-1.05-1.72-1.19l-24.6-4.95
				c-1.44-0.28-2.82,0.64-3.11,2.07c-0.29,1.43,0.64,2.82,2.07,3.11l23.48,4.72l32.82,52.42
				C4156.47,1852.51,4157.33,1852.95,4158.21,1852.95z"/>
			
				<linearGradient id="SVGID_00000162335108902978727260000006566003501107243139_" gradientUnits="userSpaceOnUse" x1="-8941.0117" y1="1232.2267" x2="-9134" y2="1483.2987" gradientTransform="matrix(-1 0 0 1 -5199.6118 0)">
				<stop  offset="0" style="stop-color:#F9B776"/>
				<stop  offset="1" style="stop-color:#F47960"/>
			</linearGradient>
			<path style="fill:url(#SVGID_00000162335108902978727260000006566003501107243139_);" d="M3638.8,1158.29
				c0,0,60.35,13.31,97.06,30.26c7.29,3.37,13.11,9.25,16.42,16.51c10.98,24.05,43.82,84.35,107.52,113.13
				c-9.17,12.18-23.94,37.5-30.38,80.07c-38.26-28.48-71.29-76.03-87.14-154.02c0,0-12.07,6.56-27.14-0.75
				c-7.96-3.87-17.15-9.35-24.05-13.66c-6.87-4.3-11.99-10.97-13.98-18.77c-2.63-10.3-1.08-19.36-1.08-29.07l-31.02-9.61
				C3645.01,1172.37,3635.68,1168.85,3638.8,1158.29z"/>
			<path style="fill:#999999;" d="M3829.42,1398.26c6.43-42.57,21.21-67.89,30.38-80.07c39.57,17.88,91.05,23.59,156.59,0.88
				c6.04-2.09,12.34-3.32,18.73-3.69c34.89-2.05,149.88-5.78,245.03,25.66c20.02,6.62,36.24,21.42,44.6,40.6
				c25.74,59.07,67.41,193.58-48.27,261.5c-8.89-22.07-19.15-39.8-27.92-52.83c18.63-31.42,24.15-74.34-8.91-130.23
				c-24.11,65.09-35.42,160.07-37.78,202.1c-0.78,13.84,1.65,27.65,7.08,40.43l0.59,1.39c1.16,2.73-0.44,5.88-3.36,6.53
				c-65.12,14.63-132.86,10.65-153.1,8.98c-3.61-0.3-6.61-2.88-7.44-6.38c-31.67-133.44-31.74-224.46-23.99-282
				C3992.04,1437.74,3901.45,1451.87,3829.42,1398.26z"/>
			
				<linearGradient id="SVGID_00000021801109217923327200000000959162244593647033_" gradientUnits="userSpaceOnUse" x1="3774.4084" y1="822.6475" x2="4229.1162" y2="1821.808">
				<stop  offset="0" style="stop-color:#FDF53F"/>
				<stop  offset="1" style="stop-color:#D93C65"/>
			</linearGradient>
			<path style="fill:url(#SVGID_00000021801109217923327200000000959162244593647033_);" d="M4021.53,1434.71
				c1.31,0,2.44-0.97,2.62-2.29c7.44-56.18,22.58-80.7,22.73-80.94c0.78-1.23,0.41-2.86-0.82-3.65c-1.23-0.77-2.86-0.41-3.64,0.82
				c-0.65,1.02-15.9,25.57-23.51,83.08c-0.19,1.45,0.83,2.77,2.27,2.96C4021.3,1434.7,4021.42,1434.71,4021.53,1434.71z"/>
			
				<linearGradient id="SVGID_00000008123561298170144050000014101594774621078913_" gradientUnits="userSpaceOnUse" x1="-9371.1777" y1="1394.4982" x2="-9350.0645" y2="1283.6541" gradientTransform="matrix(-1 0 0 1 -5199.6118 0)">
				<stop  offset="0" style="stop-color:#F9B776"/>
				<stop  offset="1" style="stop-color:#F47960"/>
			</linearGradient>
			<path style="fill:url(#SVGID_00000008123561298170144050000014101594774621078913_);" d="M4182.25,1237.64
				c0,0,6.59,69.66,12.39,90.27c0.88,3.13-0.48,6.42-3.32,8.05c-9.85,5.63-33.46,14.8-65.76-1.03c-5.23-2.56-8.38-8.02-8.13-13.79
				l2.85-67.31L4182.25,1237.64z"/>
			<g>
				
					<linearGradient id="SVGID_00000039123822984985226970000005915386733972391078_" gradientUnits="userSpaceOnUse" x1="-9314.0488" y1="1191.1342" x2="-9434.5127" y2="1283.3073" gradientTransform="matrix(-1 0 0 1 -5199.6118 0)">
					<stop  offset="0" style="stop-color:#F9B776"/>
					<stop  offset="1" style="stop-color:#F47960"/>
				</linearGradient>
				<path style="fill:url(#SVGID_00000039123822984985226970000005915386733972391078_);" d="M4118.85,1148.53
					c0,0-21.07,48.41-22.49,73.81c-1.42,25.41-6.89,41.89,22.49,47.01c29.38,5.12,54.12-9.52,67.53-34.83c0,0,21.01-39,16.29-54.97
					C4197.97,1163.58,4118.85,1148.53,4118.85,1148.53z"/>
				
					<linearGradient id="SVGID_00000063608711526224309190000009483667970135168180_" gradientUnits="userSpaceOnUse" x1="-9398.8496" y1="1118.1533" x2="-9286.6572" y2="1262.6014" gradientTransform="matrix(-1 0 0 1 -5199.6118 0)">
					<stop  offset="0" style="stop-color:#2B3582"/>
					<stop  offset="1" style="stop-color:#150E42"/>
				</linearGradient>
				<path style="fill:url(#SVGID_00000063608711526224309190000009483667970135168180_);" d="M4176.35,1216.33l-1.67-0.74
					c-2.13-0.94-3.04-3.47-1.97-5.54c4.14-8,12.22-26.35,1.79-30.62c-13.45-5.51-66.7-16.38-78.19-35.27
					c-11.04-18.16-1.26-41.61,13.45-48.28c0.98-0.45,2.14-0.09,2.65,0.86l1.23,2.32c0.84,1.59,3.18,1.35,3.68-0.38
					c0.48-1.66,2.68-1.98,3.59-0.52c3.53,5.65,13.07,14.82,38.57,19.53c36.24,6.69,60.2,21.36,60.8,46.4
					c0.04,1.59,1.73,2.48,3.09,1.65c2.68-1.63,6.96-2.4,12.68,2.42c9.95,8.37,5.88,30.08-15.94,47.94c-1.04,0.85-1.03,2.47,0.09,3.2
					c3.96,2.57,9.85,8.7-5.43,16.87c-15.8,8.45-27.6,7.76-32.15,7c-1.13-0.19-1.86-1.28-1.61-2.4l4.85-22.01
					c0.27-1.25-0.67-2.43-1.95-2.43H4176.35z"/>
				
					<linearGradient id="SVGID_00000038382059907204259990000015836837303478122666_" gradientUnits="userSpaceOnUse" x1="-9328.9902" y1="1171.6058" x2="-9449.4541" y2="1263.7791" gradientTransform="matrix(-1 0 0 1 -5199.6118 0)">
					<stop  offset="0" style="stop-color:#F9B776"/>
					<stop  offset="1" style="stop-color:#F47960"/>
				</linearGradient>
				<path style="fill:url(#SVGID_00000038382059907204259990000015836837303478122666_);" d="M4175.44,1220.97
					c0,0,8.04-30.92,21.9-22.25c13.86,8.67-7.19,34.65-18.34,35.8L4175.44,1220.97z"/>
			</g>
			<path style="fill:#F8A570;" d="M3726.18,1237.05c0.58,0,1.17-0.19,1.66-0.59c1.13-0.92,1.3-2.58,0.38-3.72
				c-2.28-2.81-22.54-27.57-30.34-31.98c-2.84-1.6-4.53-3.26-4.89-4.79c-0.17-0.73-0.06-1.55,0.35-2.49l23.8,4.77l13.48,11.57
				c1.1,0.95,2.77,0.83,3.72-0.28c0.95-1.11,0.82-2.77-0.28-3.73l-14.01-12.02c-0.34-0.29-0.76-0.49-1.2-0.58l-26.34-5.28
				c-1.06-0.21-2.12,0.23-2.71,1.11c-1.93,2.86-2.57,5.53-1.95,8.14c0.73,3.09,3.16,5.76,7.43,8.18
				c5.87,3.32,22.81,23.29,28.84,30.71C3724.65,1236.71,3725.41,1237.05,3726.18,1237.05z"/>
			
				<linearGradient id="SVGID_00000021082338506321841000000004552020519239535275_" gradientUnits="userSpaceOnUse" x1="-9258.3633" y1="1473.2416" x2="-9342.6787" y2="1599.7146" gradientTransform="matrix(-1 0 0 1 -5199.6118 0)">
				<stop  offset="0" style="stop-color:#F9B776"/>
				<stop  offset="1" style="stop-color:#F47960"/>
			</linearGradient>
			<path style="fill:url(#SVGID_00000021082338506321841000000004552020519239535275_);" d="M4176.46,1676.61l-93.14,1.15
				l32.6-30.69c8.1-7.63,20.47-8.86,29.82-2.8c5.48,3.55,11.42,8.37,16.56,14.76c0,0,58.1-21.23,86.27-68.74
				c8.77,13.03,19.03,30.77,27.92,52.83C4251.23,1657.95,4218.5,1669.61,4176.46,1676.61z"/>
			<g>
				
					<linearGradient id="SVGID_00000001665464975389584160000014249630786129820084_" gradientUnits="userSpaceOnUse" x1="-522.2592" y1="1841.6226" x2="-712.7397" y2="1893.8284" gradientTransform="matrix(0.9988 -0.0494 0.0494 0.9988 4637.1792 -239.2948)">
					<stop  offset="0" style="stop-color:#2B3582"/>
					<stop  offset="1" style="stop-color:#150E42"/>
				</linearGradient>
				<path style="fill:url(#SVGID_00000001665464975389584160000014249630786129820084_);" d="M4166.42,1688.62
					c-0.18,0.01-0.36,0.01-0.54,0.01l-236.44-0.26c-5.84,0-10.58-4.7-10.57-10.48c0.01-5.79,4.77-10.56,10.6-10.46l236.44,0.26
					c5.84,0,10.58,4.7,10.57,10.48C4176.47,1683.78,4172.01,1688.35,4166.42,1688.62z"/>
				
					<linearGradient id="SVGID_00000072273145395454453850000001921486610444670620_" gradientUnits="userSpaceOnUse" x1="-734.9108" y1="1504.3688" x2="-869.2708" y2="1646.3789" gradientTransform="matrix(1 0 0 1 4683.124 0)">
					<stop  offset="0" style="stop-color:#2B3582"/>
					<stop  offset="1" style="stop-color:#150E42"/>
				</linearGradient>
				<path style="fill:url(#SVGID_00000072273145395454453850000001921486610444670620_);" d="M3716.9,1476.22h196.9
					c14.53,0,27.75,8.29,33.94,21.29l91.03,190.98h-244.7c-9.36,0-17.77-5.66-21.21-14.27l-70.59-176.73
					C3698.2,1487.29,3705.8,1476.22,3716.9,1476.22z"/>
				
					<linearGradient id="SVGID_00000126295356782683197110000001858912770482174878_" gradientUnits="userSpaceOnUse" x1="-816.3839" y1="1539.8629" x2="-877.1186" y2="1631.3224" gradientTransform="matrix(1 0 0 1 4683.124 0)">
					<stop  offset="0" style="stop-color:#53D8FF"/>
					<stop  offset="1" style="stop-color:#3840F7"/>
				</linearGradient>
				<path style="fill:url(#SVGID_00000126295356782683197110000001858912770482174878_);" d="M3855.62,1574.14
					c4.27,13.12,1.11,25.86-7.04,28.45c-8.16,2.6-18.23-5.93-22.49-19.05c-4.27-13.12-1.11-25.86,7.04-28.45
					C3841.28,1552.5,3851.35,1561.03,3855.62,1574.14z"/>
			</g>
		</g>
	</g>
</g>
</svg>
