<?xml version="1.0" encoding="utf-8"?>
<!-- Generator: Adobe Illustrator 26.0.0, SVG Export Plug-In . SVG Version: 6.00 Build 0)  -->
<svg version="1.1" id="Layer_1" xmlns="http://www.w3.org/2000/svg" xmlns:xlink="http://www.w3.org/1999/xlink" x="0px" y="0px"
	 viewBox="0 0 5023.95 1999.96" style="enable-background:new 0 0 5023.95 1999.96;" xml:space="preserve">
<rect style="fill:#F9F6E6;" width="5023.95" height="1999.96"/>
<g>
	<path style="opacity:0.13;fill:#FBB040;" d="M1.34,3851.92c0,0-327.97-286.64-264.22-758.63
		c66.01-488.72,413.03-748.73,865.76-650.05c370.05,80.67,608.45,28.92,991.13-201.66c627.53-378.12,1436.35,31.24,1224.76,763.87
		c-102.4,354.54,327.35,529.73-32.37,847.22L1.34,3851.92z"/>
	<g>
		<path style="fill:#D1D3D4;" d="M1940.87,2578.94c0,0,203.72-205.91,264-161.31C2265.15,2462.22,1940.87,2578.94,1940.87,2578.94z"
			/>
		<path style="fill:#D1D3D4;" d="M1926.88,2617.78c0,0,385.01-186.6,480.17-97.02c95.16,89.58-104.65,84.25-178.83,76.16
			C2154.05,2588.83,1926.88,2617.78,1926.88,2617.78z"/>
		<path style="fill:#D1D3D4;" d="M1909.19,2575.51c0,0,1.54-9.88,3.6-24.34c4.03-28.2,10.07-73.83,10.65-97.51
			c0.88-35.82,28.87-62.09,61.56-26.64c32.68,35.45-63.97,138.31-63.97,138.31L1909.19,2575.51z"/>
	</g>
	<path style="fill:#D1D3D4;" d="M898.42,2930.06c17.83-57.9,115.82-36.25,115.82-36.25s63.45,104.57,82.85,107.67
		c19.4,3.1-36.79-100-36.79-100c37.87-2.36,132.46,47.21,132.46,47.21s-10.18,119.1,9.38,117.34c19.56-1.77,3.64-105.92,3.64-105.92
		c36.15,12.21,68.77,55.99,68.77,55.99c40.23,70.86-52.84,118.86-52.84,118.86s-2.64,41.35,21.3,89.71l0,0
		c0,0,5.47,8.96,10.82,24.07l-9.96-0.34c-0.72-2.7-1.53-5.31-2.44-7.82c0-0.02,0-0.03-0.02-0.05c-0.01-0.04-0.03-0.07-0.04-0.11
		c-0.63-1.56-1.53-3.78-2.66-6.49c0,0,0-0.01,0-0.01c0-0.01-0.01-0.01-0.01-0.01c-2.84-6.06-4.74-10.53-5.93-13.75
		c0-0.01-0.01-0.02-0.01-0.03c-8.47-19.01-20.77-43.82-29.35-49.23c0,0,1.16-1.51,2.29-4.49c-0.73,1.43-1.49,2.93-2.29,4.49
		c-18.3,35.94-103.73,39.1-150.88,27.73c-47.15-11.37-25.99-24.05,0.32-44.91c26.31-20.86,79.69-13.29,95.81-21.27
		c16.12-7.98-6.72-17.3-38.46-15.95c-31.74,1.35-48.65,32.46-99.95,35.57c-51.3,3.11-86.96-94.4-86.96-94.4
		c34.93,12.17,98.91-5.14,101.76-17.23c2.85-12.09-90.93-14.09-105.42-18.25C905.15,3018.05,880.59,2987.95,898.42,2930.06z"/>
	<path style="fill:#D1D3D4;" d="M2393.57,3002.81c-18.05-46.69-97.56-23.18-97.56-23.18s-46.25,89.86-62.05,93.54
		c-15.81,3.68,24.54-84.55,24.54-84.55c-31.35,0.25-106.45,46.58-106.45,46.58s15.29,97.58-0.94,97.26
		c-16.23-0.32-9.13-87.09-9.13-87.09c-29.09,12.16-53.45,50.13-53.45,50.13c-29.06,60.73,50.43,94.91,50.43,94.91
		s4.57,33.93-12.36,75.18v0c0,0-3.99,7.71-7.53,20.46l8.19-0.86c0.44-2.27,0.95-4.47,1.56-6.59c0-0.02,0-0.03,0.01-0.04
		c0.01-0.03,0.02-0.06,0.03-0.09c0.43-1.32,1.05-3.21,1.82-5.51c0,0,0-0.01,0-0.01c0,0,0.01-0.01,0-0.01
		c1.99-5.16,3.3-8.95,4.09-11.68c0-0.01,0.01-0.02,0.01-0.02c5.89-16.16,14.58-37.32,21.34-42.27c0,0-1.04-1.18-2.15-3.57
		c0.68,1.14,1.4,2.33,2.15,3.57c17.16,28.56,87.76,26.22,125.96,14.13c38.2-12.1,20.03-21.33-2.86-37
		c-22.9-15.67-66.45-6.34-80.2-11.99c-13.75-5.64,4.54-14.64,30.78-15.37c26.24-0.72,41.98,23.94,84.44,23.54
		c42.46-0.4,66.21-82.84,66.21-82.84c-28.09,12.05-81.82,1.49-84.87-8.31c-3.05-9.8,74.14-16.88,85.83-21.14
		C2393.12,3075.73,2411.62,3049.5,2393.57,3002.81z"/>
	<path style="fill:#D1D3D4;" d="M952.9,2382.41c46.2-89.8,200.69-25.62,200.69-25.62s73.56,190.17,104.48,200.93
		c30.93,10.77-31.14-174.87-31.14-174.87c62.84,7.2,203.59,116.21,203.59,116.21s-51.54,192.49-18.92,195.32
		c32.62,2.82,36.94-172.77,36.94-172.77c55.75,30.61,96.5,112.01,96.5,112.01c45.3,128.06-121.47,179.62-121.47,179.62
		s-16.42,67.1,8.72,153.46c0,0,0,0,0,0s6.35,16.31,10.72,42.66l-16.24-3.47c-0.4-4.64-0.96-9.16-1.71-13.55
		c0.01-0.03,0-0.05-0.02-0.08c-0.01-0.06-0.02-0.13-0.03-0.19c-0.58-2.75-1.41-6.66-2.48-11.44c0-0.01,0-0.01,0-0.02
		c0-0.01-0.01-0.01-0.01-0.02c-2.88-10.77-4.7-18.67-5.72-24.3c0-0.02-0.01-0.03-0.01-0.05c-8.35-33.67-21.27-77.98-33.78-89.37
		c0,0,2.34-2.14,5.07-6.71c-1.62,2.14-3.3,4.37-5.07,6.71c-40.54,53.63-181.68,33.84-255.73,1.39
		c-74.05-32.45-35.62-47.07,13.66-73.61c49.28-26.54,134.67,1.49,163.45-6.89c28.79-8.38-5.97-30.35-58.45-37.42
		c-52.48-7.07-89.34,39.04-174.44,29.16S956.4,2599.13,956.4,2599.13c53.77,30.19,163.83,20.49,172.05,1.48
		c8.22-19.01-145.12-49.72-167.68-60.77C938.21,2528.79,906.7,2472.21,952.9,2382.41z"/>
	<g>
		<rect x="1187.73" y="2514" style="fill:#FFFFFF;" width="989.27" height="1337.78"/>
		<rect x="1218.61" y="2540.04" style="fill:#E6E7E8;" width="918.95" height="1278.3"/>
		<g>
			<defs>
				<rect id="SVGID_1_" x="1281.35" y="2627.13" width="240.74" height="240.74"/>
			</defs>
			<use xlink:href="#SVGID_1_"  style="overflow:visible;fill:#FFFFFF;"/>
			<clipPath id="SVGID_00000042015959804382718770000011455280277488368786_">
				<use xlink:href="#SVGID_1_"  style="overflow:visible;"/>
			</clipPath>
			<g style="clip-path:url(#SVGID_00000042015959804382718770000011455280277488368786_);">
				<polygon style="fill:#88A0E2;" points="1481.67,3100.69 1291.32,3100.69 1427.77,2794.72 1474.99,2900.49 1492.23,3003.35 				
					"/>
				<path style="fill:#FFFFFF;" d="M1333.03,2802.63l30.49-7.91l29.62-10.5c0,0,17.19,8.21,29.44,10.5
					c13.34,2.48,57.85,76.85,57.85,79.96c0,3.11-34.81,224.51-34.81,224.51h-168.05L1333.03,2802.63z"/>
				<path style="fill:#FFB27D;" d="M1416.47,2806.79c-15.08,2.6-37.07-1.06-52.97-12.08c7.7-17.24,11.01-30.93,12.28-39.8
					c0.07-0.47,0.13-0.93,0.19-1.37c0.59-4.6,0.59-7.73,0.4-9.17l38.82,0.91c0,0,10.5,5.1,10.42,8.45
					c-0.04,1.79-0.07,3.51-0.07,5.15c-0.03,4.47,0.06,8.37,0.22,11.72c0.48,10.91,2.03,24.12,2.03,24.12
					S1431.7,2804.17,1416.47,2806.79z"/>
				<path style="fill:#E2915A;" d="M1425.75,2770.59c-29.54,5-46.24-11.47-49.97-15.68c-0.53-0.6-0.8-0.96-0.8-0.96
					c0.31-0.15,0.64-0.28,0.99-0.41c11.05-4.18,36.24-1.95,50,3.46C1425.93,2761.46,1425.59,2767.24,1425.75,2770.59z"/>
				<path style="fill:#FFB27D;" d="M1364.9,2741.59c10,26.98,45.82,19.85,61.06,15.41c4.29-1.24,6.95-2.28,6.95-2.28
					c4.7-2.17,6.11-10.42,5.63-20.82c-0.95-20.58-9.27-49.59-13.97-56.57c-7.09-10.49-18.86-21.13-53.55-5.99
					C1336.31,2686.5,1352.08,2707.02,1364.9,2741.59z"/>
				<path style="fill:#233862;" d="M1421.29,2653.42c-12.3-9.06-23.26-11.04-31.25-11.15c-23.63-0.31-41.97,11.64-42.07,11.7
					c-27.34,18.13-31.15,42.1-9.37,74.65c23.04,34.42,37.08,26.85,37.08,26.85s-2.69-0.86-4.4-12.54c-0.1-0.66-0.17-1.22-0.22-1.7
					c-0.26-2.41-1.51-4.65-3.57-5.93c-4.24-2.64-7.75-12.26-5.15-15.55c3.14-3.97,9.05-0.83,11.26,2c1.84,1.95,4.58,2.27,6.74,0.31
					c8.2-7.42,0.21-18.03,7.77-26.67s52.95-4.76,55.93-30.28C1444.06,2665.12,1432.71,2661.84,1421.29,2653.42z"/>
				<path style="fill:#BCBEC0;" d="M1427.77,2794.72c0,0,47.68,98.37,53.89,174.33c6.22,75.96,0,131.65,0,131.65
					s31-74.13,33.94-161.96c1.31-39.04-4.95-109.72-18.21-122.22C1490.93,2810.4,1471.51,2804.58,1427.77,2794.72z"/>
				<path style="fill:#BCBEC0;" d="M1374.68,2924.8c-0.15,11.23-0.59,22.98-1.39,35.13c-2.8,42.67-10.08,90.43-25.27,139.25h-156.03
					c0,0,19.33-47,42.69-98.08c4.09-8.95,8.31-18.02,12.56-26.98c17.26-36.37,35.2-71,48.32-88.49
					c34.81-46.42,67.97-90.9,67.97-90.9S1375.72,2847.96,1374.68,2924.8z"/>
				<path style="fill:#9DB0F4;" d="M1331.85,2995.27c0,0-32.04,12.71-97.18,5.83c4.09-8.95,8.31-18.02,12.56-26.98L1331.85,2995.27z
					"/>
				<path style="fill:#9DB0F4;" d="M1374.68,2924.8c-0.15,11.23-0.59,22.98-1.39,35.13c-21-1.14-96.08-5.27-95.73-6.34
					c0.41-1.24,6.95-29.84,6.95-29.84s63.12,15.33,90.05,0L1374.68,2924.8z"/>
				<path style="fill:#FFB27D;" d="M1345.28,2958.56c0,0,22.38-13.29,32.74-12.65c10.36,0.63,26.94,3.95,29.42,12.65
					c2.49,8.7-3.73,4.46-17.61,7.16c-8.19,1.6-13.2,13.35-23.83,14.39c-4.15,0.4-20.72-2.9-20.72-2.9V2958.56z"/>
				<path style="fill:#BCBEC0;" d="M1363.52,2794.72c0,0-57.28,6.77-72.2,20.86c-25.23,23.83-91.59,113.94-85.03,153.46
					c4.35,26.23,125.57,26.23,125.57,26.23s14.97-9.7,20.47-18.47c11.19-17.82,7.32-30.89,7.32-30.89l-74.97-25.48
					c0,0,36.57-35.45,64.75-37.3C1370.04,2881.78,1363.52,2794.72,1363.52,2794.72z"/>
			</g>
		</g>
		<g>
			<g>
				<rect x="1585.79" y="2774.99" style="fill:#BCBEC0;" width="301.67" height="6.05"/>
				<rect x="1585.79" y="2803.24" style="fill:#BCBEC0;" width="301.67" height="6.05"/>
				<rect x="1585.79" y="2831.83" style="fill:#BCBEC0;" width="301.67" height="6.05"/>
			</g>
			<rect x="1585.79" y="2609.13" style="fill:#FFFFFF;" width="92.3" height="92.3"/>
			<rect x="1770.47" y="2681.24" style="fill:#BCBEC0;" width="116.99" height="10.65"/>
			<rect x="1744.99" y="2706.17" style="fill:#BCBEC0;" width="142.47" height="10.65"/>
		</g>
		<g>
			<g>
				<g>
					<defs>
						
							<rect id="SVGID_00000091733241995576966010000015840041955659834257_" x="1281.35" y="3311.05" width="240.74" height="240.74"/>
					</defs>
					<use xlink:href="#SVGID_00000091733241995576966010000015840041955659834257_"  style="overflow:visible;fill:#FFFFFF;"/>
					<clipPath id="SVGID_00000063608179200447441900000003444936478479888831_">
						<use xlink:href="#SVGID_00000091733241995576966010000015840041955659834257_"  style="overflow:visible;"/>
					</clipPath>
					<g style="clip-path:url(#SVGID_00000063608179200447441900000003444936478479888831_);">
						<path style="fill:#BCBEC0;" d="M1329.87,3486.54l30.49-7.91l29.62-10.5c0,0,17.19,8.21,29.44,10.5
							c13.34,2.48,57.85,76.85,57.85,79.96c0,3.11,1.24,226.02,1.24,226.02l-204.11-1.51L1329.87,3486.54z"/>
						<path style="fill:#FFB27D;" d="M1413.31,3490.7c-15.08,2.6-37.07-1.06-52.97-12.08c7.7-17.24,11.01-30.92,12.28-39.8
							c0.07-0.47,0.13-0.93,0.19-1.37c0.59-4.6,0.59-7.73,0.4-9.17l38.82,0.9c0,0,10.5,5.1,10.42,8.45
							c-0.04,1.79-0.07,3.51-0.07,5.15c-0.03,4.47,0.06,8.37,0.22,11.72c0.48,10.91,2.03,24.12,2.03,24.12
							S1428.54,3488.08,1413.31,3490.7z"/>
						<path style="fill:#E2915A;" d="M1422.59,3454.51c-29.54,5-46.24-11.47-49.97-15.68c-0.53-0.6-0.8-0.96-0.8-0.96
							c0.31-0.15,0.64-0.28,0.99-0.41c11.05-4.18,36.24-1.95,50,3.46C1422.78,3445.38,1422.44,3451.16,1422.59,3454.51z"/>
						<path style="fill:#FFB27D;" d="M1361.74,3425.51c10,26.98,45.82,19.85,61.06,15.41c4.29-1.24,6.95-2.28,6.95-2.28
							c4.71-2.17,6.11-10.42,5.63-20.82c-0.94-20.58-9.27-49.59-13.97-56.57c-7.09-10.49-18.86-21.13-53.55-5.99
							C1333.16,3370.42,1348.92,3390.94,1361.74,3425.51z"/>
						<path style="fill:#A9453D;" d="M1418.13,3337.34c-12.3-9.06-23.26-11.04-31.25-11.15c-23.63-0.31-41.97,11.64-42.07,11.7
							c-27.34,18.13-31.15,42.1-9.37,74.66c23.04,34.42,37.09,26.85,37.09,26.85s-2.69-0.86-4.4-12.54c-0.1-0.66-0.17-1.22-0.22-1.7
							c-0.26-2.41-1.51-4.65-3.57-5.93c-4.24-2.64-7.75-12.26-5.15-15.55c3.14-3.98,9.05-0.83,11.26,2
							c1.84,1.95,4.58,2.27,6.74,0.31c8.2-7.41,0.21-18.02,7.77-26.67c7.57-8.65,52.95-4.76,55.93-30.28
							C1440.9,3349.03,1429.55,3345.75,1418.13,3337.34z"/>
						<path style="fill:#BCBEC0;" d="M1424.62,3478.63c0,0,47.68,98.37,53.89,174.33c6.22,75.96,0,131.65,0,131.65
							s31-74.13,33.94-161.96c1.31-39.04-4.95-109.72-18.21-122.22C1487.77,3494.32,1468.36,3488.49,1424.62,3478.63z"/>
						<path style="fill:#BCBEC0;" d="M1360.37,3478.63L1360.37,3478.63L1360.37,3478.63c0,0-57.28,6.77-72.2,20.86
							c-25.23,23.83-91.59,113.94-85.03,153.46c1.45,8.77,35.43,35.54,54.11,39.42c4.73,37.19-6.99,92.22-6.99,92.22l94.61-1.51
							c15.19-48.82,22.47-96.57,25.27-139.25c0.8-12.15,1.23-23.89,1.39-35.13C1372.56,3531.88,1360.37,3478.63,1360.37,3478.63z"/>
						<path style="fill:#808285;" d="M1367.83,3468.48c0,0,23.97,19.6,38.17,23.02c0,0-13.19,6.98-54.61-11.62
							C1351.4,3479.88,1357.38,3469.78,1367.83,3468.48z"/>
						<path style="fill:#808285;" d="M1423.4,3466.47c0,0,2.72,8.17,6.92,13.46c0,0-3.69,13.06-24.32,11.57
							C1406.01,3491.5,1424.22,3478.43,1423.4,3466.47z"/>
						<path style="fill:#808285;" d="M1389.72,3483.85l28.44-3.47c0,0-0.89,16.68-9.45,23.33
							C1405.59,3506.13,1389.36,3486.81,1389.72,3483.85z"/>
						<path style="fill:#808285;" d="M1402.4,3494.02c0,0,6.54,119.02,3.45,171.65c-1.71,29.08-5.93,71-5.25,75.06
							c0.68,4.06,19.99,22.99,19.99,22.99s19-17.7,19.46-25.36c0.45-7.66,5.86-119.02-27.86-245.58
							C1411.03,3488.45,1402.4,3494.02,1402.4,3494.02z"/>
					</g>
					<path style="clip-path:url(#SVGID_00000063608179200447441900000003444936478479888831_);fill:#C5D7FF;" d="M1365.29,3466.47
						c0,0-7.3,0.5-20.15,15.38c0,0,20.74,17.81,39.67,22.32c0,0-0.78-13.81,4.91-20.31L1365.29,3466.47z"/>
					<path style="clip-path:url(#SVGID_00000063608179200447441900000003444936478479888831_);fill:#C5D7FF;" d="M1423.4,3466.47
						l-9.96,14.76c0,0,10.14,7.61,13.52,16.74c0,0,6.97-11.36,6.36-17.35C1433.33,3480.62,1428.63,3468.27,1423.4,3466.47z"/>
				</g>
			</g>
			<g>
				<g>
					<rect x="1585.79" y="3482.9" style="fill:#BCBEC0;" width="318.93" height="6.05"/>
					<rect x="1585.79" y="3511.15" style="fill:#BCBEC0;" width="318.93" height="6.05"/>
					<rect x="1585.79" y="3539.74" style="fill:#BCBEC0;" width="318.93" height="6.05"/>
				</g>
				<rect x="1585.79" y="3317.04" style="fill:#FFFFFF;" width="92.3" height="92.3"/>
				<rect x="1781.04" y="3389.15" style="fill:#BCBEC0;" width="123.68" height="10.65"/>
				<rect x="1754.1" y="3414.08" style="fill:#BCBEC0;" width="150.62" height="10.65"/>
			</g>
		</g>
		<g>
			<g>
				<rect x="1281.35" y="2963.37" style="fill:#FFFFFF;" width="240.74" height="240.74"/>
				<g>
					<g>
						<g>
							<path style="fill:#233862;" d="M1426.73,2983.94c-14.76-4.1-35.12-0.68-38.49-0.41c-40.33,3.2-51.6,65.27-49.26,82.82
								c4.33,32.35-11.46,40.84-30.82,65.89c-21.13,27.31-23.68,52.6-16.82,71.86h102.39c21.96-19.31,51.96-45.79,70.79-62.19
								c2.62-0.97,4.99-2.2,7.11-3.68C1512.8,3109.86,1462.49,2993.85,1426.73,2983.94z"/>
							<path style="fill:#FFB27D;" d="M1429.92,3131.33c0.18,0.07-16.75,10.27-30.15,7.5c-12.6-2.59-25.41-19.63-25.24-19.68
								c5.18-1.37,9.93-7.19,7.87-38.16l2.4,0.32l40.37,5.38c0,0-0.11,12.61,0.61,24.43
								C1426.38,3121.04,1427.58,3130.41,1429.92,3131.33z"/>
							<path style="fill:#ED975D;" d="M1425.18,3086.68c0,0-0.11,12.61,0.61,24.43c-22.35,0.78-35.43-18.83-40.98-29.8
								L1425.18,3086.68z"/>
							<path style="fill:#FFB27D;" d="M1433.34,3097.41c0,0-52.74,4.21-54.85-28.68c-2.11-32.88-10.34-54.49,23.24-58.56
								c33.58-4.08,40.94,8.05,44.31,18.85C1449.41,3039.83,1447,3095.46,1433.34,3097.41z"/>
							<path style="fill:#233862;" d="M1440.39,3011.97c0,0-26.69,35.37-48.51,42.47c-21.82,7.11-31.82,1.77-31.82,1.77
								s10.79-13.77,14.89-33.1c1.21-5.7,5.37-10.33,10.93-12.05C1401.52,3006.24,1431.59,2999.08,1440.39,3011.97z"/>
							<path style="fill:#233862;" d="M1419.33,3013.87c0,0,13.27,8.24,18.43,15.36c4.98,6.87,9.91,24.82,8.81,32.61
								c0,0,9.91-36.95-3.27-51.01C1429.34,2995.93,1419.33,3013.87,1419.33,3013.87z"/>
							<path style="fill:#BCBEC0;" d="M1477.64,3147.42c-0.93-3.42-3.08-6.48-6-9.18c-13.85-12.92-44.97-18.19-44.97-18.19v0.01
								c0,0-0.01,0.12-0.07,0.34v0.03c-0.45,1.66-2.81,8.33-13.31,8.33c-7.09,0-17.88-3.06-34.28-12.74
								c-0.08-0.05-0.16-0.09-0.24-0.15c-0.01-0.01-0.03,0-0.03-0.01v-0.01c0,0-43.12,2.65-58.03,23.47
								c-8.1,11.29-19.26,36.77-28.56,64.8h200.96C1486.21,3178.87,1479.8,3155.35,1477.64,3147.42z"/>
						</g>
					</g>
				</g>
			</g>
			<g>
				<g>
					<rect x="1585.79" y="3132.79" style="fill:#BCBEC0;" width="313.03" height="6.05"/>
					<rect x="1585.79" y="3161.04" style="fill:#BCBEC0;" width="313.03" height="6.05"/>
					<rect x="1585.79" y="3189.63" style="fill:#BCBEC0;" width="313.03" height="6.05"/>
				</g>
				<rect x="1585.79" y="2966.93" style="fill:#FFFFFF;" width="92.3" height="92.3"/>
				<rect x="1756.96" y="3039.04" style="fill:#BCBEC0;" width="130.5" height="10.65"/>
				<rect x="1728.53" y="3063.97" style="fill:#BCBEC0;" width="158.92" height="10.65"/>
			</g>
			<polygon style="fill:#233862;" points="1603.24,3005.13 1631.94,3044.7 1666.13,2981.46 1626.46,3017.53 			"/>
		</g>
		<g>
			<rect x="1444.86" y="3677.66" style="fill:#BCBEC0;" width="316.76" height="5.31"/>
			<rect x="1444.86" y="3703.05" style="fill:#BCBEC0;" width="316.76" height="5.31"/>
			<rect x="1444.86" y="3733.75" style="fill:#BCBEC0;" width="316.76" height="5.31"/>
		</g>
		<g>
			<path style="fill:#BCBEC0;" d="M1313.07,3689c4.26-6,8.72-16.53,5.34-23.95c-3.1-6.81-9.22-3.66-13.38,0.29
				c-6.21,5.88-9.73,13.97-12.38,21.95c-3.23,9.73-5.87,19.88-6.92,30.1c-0.85,8.22-1.4,20.9,3.89,27.92
				c4.5,5.96,11.73,1.07,16.72-1.73c15.75-8.83,28.87-22.94,32.51-41.01c0.47-2.33-2.41-4.46-4.24-2.47
				c-3.62,3.93-6.04,8.73-6.19,14.16c-0.08,2.98,0.19,7.71,3.78,8.57c4.22,1.01,7.51-4.85,9.33-7.65
				c3.66-5.63,5.89-11.94,6.99-18.53c-1.63-0.45-3.26-0.9-4.89-1.35c-0.7,4.8,0.16,13.35,7.28,11.87c6.73-1.4,7.3-12.98,7.51-18.17
				c0.11-2.82-4.42-3.51-4.98-0.67c-0.93,4.69-0.89,9.29,0.6,13.87c0.75,2.31,1.88,4.34,2.98,6.5c1.07,1.72,1.98,3.52,2.73,5.41
				c1.59,3.88,0.22,5.53-4.1,4.95c-0.5,1.24-1.01,2.48-1.52,3.72c11.95-4.7,24.94-11.16,25.6-25.66c0.15-3.26-4.92-3.26-5.07,0
				c-0.54,11.9-12.3,17.01-21.87,20.77c-1.58,0.62-2.32,2.15-1.52,3.73c2.78,5.49,10.42,4.93,13-0.52c1.71-3.61,0.9-7.55-0.71-11.03
				c-3.23-7-6.83-12.27-5.22-20.4c-1.66-0.23-3.32-0.45-4.98-0.67c-0.11,2.74-0.36,5.43-1.12,8.09c-0.21,0.96-0.53,1.88-0.93,2.77
				c-0.8,3.16-1.72,2.09-2.77-3.21c0.46-3.17-4.35-4.59-4.89-1.35c-1.03,6.19-3.03,12.04-6.48,17.32c-1.57,2.4-3.89,7.21-3.66,1.64
				c0.17-4.15,1.95-7.59,4.7-10.58c-1.41-0.82-2.83-1.64-4.24-2.47c-2.39,11.85-9.03,21.89-18.19,29.67
				c-4.37,3.71-10.04,8.32-15.57,10.21c-2.14,0.73-5.6,0.91-7.49-0.93c-0.75-0.73-1.02-3.57-1.24-4.59
				c-0.86-4.02-1.13-8.15-1.04-12.25c0.28-12.94,3.89-26.5,8.47-38.57c2.2-5.79,5.17-11.55,9.72-15.84c5.77-5.45,5.8,3.21,4.96,7.16
				c-0.81,3.82-2.64,7.21-4.88,10.36C1306.79,3689.11,1311.19,3691.64,1313.07,3689L1313.07,3689z"/>
		</g>
	</g>
	<path style="fill:#2E3552;" d="M3034.95,3855.51H-222.43c-1.64,0-2.98-1.34-2.98-2.98v-2.31c0-1.64,1.34-2.98,2.98-2.98h3257.37
		c1.64,0,2.98,1.34,2.98,2.98v2.31C3037.92,3854.17,3036.58,3855.51,3034.95,3855.51z"/>
	<g>
		<g>
			<path style="fill:#FFB27D;" d="M1885.46,3834.09c-0.91,12.42-18.44,12.56-38.33,10.25c-19.89-2.31-14.6,2.73-42.45,3.11
				c-27.85,0.39-37.45-8.82-38.79-12.8c-1.2-3.53,12.21-6.5,26.56-10c1.8-0.43,3.62-0.89,5.43-1.35
				c16.18-4.11,26.89-16.22,40.73-26.79c13.11-10.02,30.02-46.26,30.02-46.26l38.04-1.72c0,0-16.02,32.49-22.04,46.5
				c-3.54,8.24-2.03,18.36-0.49,26.13C1884.97,3825.39,1885.79,3829.71,1885.46,3834.09z"/>
			<path style="fill:#233862;" d="M1847.14,3844.33c-19.89-2.31-14.6,2.73-42.45,3.11c-27.85,0.39-37.45-8.82-38.79-12.8
				c-1.2-3.53,12.21-6.5,26.56-10l0.17,0.26c0,0,17.93,9.62,40.86,7.32c18.69-1.87,37.76-9.67,50.66-11.07
				c0.82,4.23,1.65,8.55,1.32,12.92C1884.55,3846.51,1867.02,3846.64,1847.14,3844.33z"/>
		</g>
		<g>
			<path style="fill:#FFB27D;" d="M2148.19,3836.66c-0.9,12.42-18.43,12.57-38.32,10.29c-19.89-2.29-14.6,2.74-42.45,3.16
				c-27.85,0.42-37.45-8.78-38.81-12.76c-1.2-3.53,12.2-6.52,26.55-10.02c1.8-0.43,3.61-0.89,5.43-1.35
				c16.18-4.13,26.88-16.25,40.71-26.84c13.1-10.03,0.01-69.4,0.01-69.4l41.84-4.07c0,0-2.01,49.99-1.98,72.72
				c0.01,8.97,4.14,17.59,5.68,25.36C2147.69,3827.97,2148.52,3832.29,2148.19,3836.66z"/>
			<path style="fill:#233862;" d="M2109.88,3846.95c-19.89-2.29-14.6,2.74-42.45,3.16c-27.85,0.42-37.45-8.78-38.81-12.76
				c-1.2-3.53,12.2-6.52,26.55-10.02l0.17,0.26c0,0,17.94,9.61,40.87,7.28c18.69-1.89,37.75-9.71,50.65-11.12
				c0.83,4.23,1.65,8.54,1.33,12.92C2147.29,3849.09,2129.77,3849.24,2109.88,3846.95z"/>
		</g>
		<path style="fill:#A9453D;" d="M2026.08,2810.51c-7.2-29.62,3.24-43.42,12.66-50.77c4.47-10.9,9.57-18.76,14.78-21.73
			c9.51-5.41,20.9-6,28.88-5.52c-2.05-2.12-6.09-2.89-6.09-2.89c4.94-0.74,15.98,4.17,15.98,4.17
			c68.75-26.49,79.56,74.74,78.11,98.26c-1.43,23.52-1.24,51.22,34.53,69.75c68.25,35.36-22.68,168.6-22.68,168.6
			c1.73-19.01-85.96-119.3-131.71-149.34c-11.14-16.4-15.1-45.36-15.39-47.64c1.92,22.97,5.85,35.85,9.36,43.1
			C2023.65,2897.3,2020.56,2851.22,2026.08,2810.51z"/>
		<path style="fill:#FFB27D;" d="M2053.24,2922.53c-0.23,0.1,22.09,11.69,38.88,7.1c15.79-4.31,26.11-24.78,25.89-24.83
			c-6.69-1.33-8.61-10.52-8.47-50.01l-3.02,0.6l-50.83,10.07c0,0,1.16,16,1.19,31.07
			C2056.91,2909.17,2056.14,2921.18,2053.24,2922.53z"/>
		<path style="fill:#ED975D;" d="M2055.68,2865.45c0,0,1.16,16,1.19,31.07c28.45-0.8,43.48-26.75,49.64-41.13L2055.68,2865.45z"/>
		<path style="fill:#D2B069;" d="M1848.86,3770.39c-2.49,7.81,3.11,15.86,11.3,16.25l19.86,0.93l21.01,0.64
			c5.26,0.16,10.28-2.13,13.6-6.21c16.77-20.58,68.4-89.15,99.71-188.79c0.88-2.79,1.81-5.62,2.79-8.49
			c20.68-60.3,63.56-136,86.15-204.51c3.6-10.91,6.82-21.19,9.72-30.91c0.93-3.11,1.83-6.17,2.69-9.18
			c16.65-57.85,21.47-95.84,25.92-136.42l-163.15,1.31C1978.47,3205,1944.12,3471.97,1848.86,3770.39z"/>
		<path style="fill:#FFFFFF;" d="M2001.31,3111.25c0.41,77.64-11.39,110.95-11.39,110.95s69.86,35.49,152.88,9.37
			c0.98-0.31,59.4-16.85,59.4-16.85c-1.39-3.14-12.93-55.09-14.29-57.97c-17.53-37.64-22.31-53.45-24.39-65.02
			c-3.86-21.6-3.94-43.96-2.02-65.04c5.06-55.81,20.13-102.15,20.13-102.15c-22.62-5.15-43.81-14.19-67.35-23.02
			c-5.42,6.74-21.97,13.8-36.33,13.48c-16.54-0.36-21.9-7.44-21.04-15.17c-17.62,9.81-31.69,19.07-31.69,19.07
			c-14.98,26.02-45.36,51.28-47.56,91.2C1977.13,3019.89,2001.3,3109.08,2001.31,3111.25z"/>
		<path style="fill:#5F9AA8;" d="M2141.62,3119.91c7.13,10.09,20.81,71.45,54.82,79.16c-17.53-43.73-30.84-62.9-32.92-76.34
			c-3.86-25.1-3.94-51.06-2.02-75.56c-11.39-19.96-19.89-33.64-19.89-33.64c-0.89-3.23-18.1-56.42-23.61-8.87
			C2112.51,3052.21,2133.65,3108.62,2141.62,3119.91z"/>
		<path style="fill:#FFB27D;" d="M2046.18,2879.72c0,0,67.3,1.11,67.35-40.81c0.05-41.92,8.76-70.01-34.2-72.5
			c-42.97-2.48-51.34,13.51-54.75,27.5C2021.15,2807.9,2028.68,2878.35,2046.18,2879.72z"/>
		<path style="fill:#A9453D;" d="M2048.67,2765.39c0,0,18.43,49.18,46.71,56.46c28.28,7.27,40.55-0.31,40.55-0.31
			s-21.69-17.23-26.19-47.31C2109.73,2774.22,2062.57,2741.98,2048.67,2765.39z"/>
		<path style="fill:#A9453D;" d="M2053.24,2769.38c0,0-13.76,10.98-17.12,21.66c-3.36,10.68-4.86,32.65-11.27,31.91
			c0,0-13.88-33.43,1.72-52.34C2043.12,2750.55,2053.24,2769.38,2053.24,2769.38z"/>
		<polygon style="fill:#FFB27D;" points="1940.29,3165.14 1908.5,3262.06 1926.63,3269.33 1979.19,3183.7 		"/>
		<path style="fill:#808285;" d="M2025.99,2913.18c0,0-37.48,14.87-48.33,38.06c-10.85,23.19-27.27,178.73-33.82,194.71
			c-6.54,15.97-11.46,28.62-11.46,28.62s18.9,15.92,37.9,17.09C1989.29,3192.84,2025.99,2913.18,2025.99,2913.18z"/>
		<path style="fill:#808285;" d="M2056.91,2899.82c0,0-38.94,96.2-40.08,115.66c-1.14,19.47-4.58,318.35-4.58,318.35
			s2.29,13.74-24.05,8.02c-26.34-5.73-33.21-11.45-33.21-11.45s25.19-184.37,18.32-248.5s52.68-168.72,52.68-168.72L2056.91,2899.82
			z"/>
		<path style="fill:#C49A6C;" d="M1880.02,3787.57l22.81,0.7c4.08,0.13,7.98-1.63,10.58-4.78c15.34-18.57,68.82-88.09,100.93-190.28
			c0.88-2.79,1.81-5.62,2.79-8.49c20.68-60.3,63.56-136,86.15-204.51c3.6-10.91,6.82-21.19,9.72-30.91
			c0.93-3.11,1.83-6.17,2.69-9.18l-24.03-18.23c0,0-72.13,116.81-94.46,226.73C1977.82,3644.1,1900.13,3759,1880.02,3787.57z"/>
		<path style="fill:#D2B069;" d="M2089.17,3558.86c-0.39,50.57,2.01,163.29,8.16,218.39c0.56,5.04,4.83,8.85,9.9,8.85h17.02
			c7.18,0,12.54-0.05,16.11-0.1c3.09-0.05,5.72-2.26,6.32-5.29c16.93-86.14,29.04-157.71,37.91-219.55
			c7.42-51.76,14.02-96.14,19.09-134.34c5.11-38.44,8.66-70.63,9.93-97.83c0.19-4.28,0.34-8.45,0.42-12.49
			c0.08-4.07,0.1-8.02,0.07-11.85l-140.97-13.74C2074.91,3384.55,2089.4,3527.79,2089.17,3558.86z"/>
		<path style="fill:#C49A6C;" d="M2124.26,3786.09c6.45,0,11.43-0.04,14.97-0.09c3.75-0.05,6.95-2.73,7.68-6.41
			c16.81-85.65,28.86-156.87,37.7-218.44c7.42-51.76,14.02-96.14,19.09-134.34c5.11-38.44,8.66-70.63,9.93-97.83l-51.73,30.43
			c0,0,33.02,11.65,20.42,99.82C2169.71,3547.41,2141.79,3773.61,2124.26,3786.09z"/>
		<path style="fill:#808285;" d="M2117.6,3328.11c0,0,9.93,35.88,44.28,31.3c34.36-4.58,83.21-25.19,83.21-25.19
			s-14.68-46.39-32.94-107.34c-22.1-73.78-49.46-168.9-62.35-228.89c-3.62-16.81-6.09-30.85-7.01-40.91l-28.5-55.3
			c0,0-42.5,95.38-44.79,119.43C2067.22,3045.25,2117.6,3328.11,2117.6,3328.11z"/>
		<path style="fill:#FFB27D;" d="M2151.91,3017.62l-37.62-115.84c0.1,0.05,47.51,14.11,71.36,26.15c0,0,14.91,19.22,24.13,63.55
			c0,0,9.74,106.45-12.01,145.38c0,0-68.71,13.74-178.65-24.05v-25.19c0,0,120.24,6.3,144.86,9.16L2151.91,3017.62z"/>
		<path style="fill:#939598;" d="M2119.13,3071.59c1.53,38.94,10.7,114.52,92.38,154.97c0.22,0.1,0.43,0.22,0.65,0.31
			c-22.1-73.78-49.46-168.9-62.35-228.89C2134.8,3020.4,2118.29,3050.15,2119.13,3071.59z"/>
		<path style="fill:#808285;" d="M2114.29,2901.78c0,0,69.73,4.91,86.53,42.32c16.8,37.41,22.14,161.85,0.76,198.49
			c0,0-29.43,8.38-81.48-1.35c-0.64-0.12-1.28-0.24-1.92-0.37c0,0-16.61-40.65-1.72-48.67c0,0,43.9,2.29,39.32-12.21
			C2151.19,3065.49,2114.29,2901.78,2114.29,2901.78z"/>
		<g>
			<path style="fill:#A9453D;" d="M1939.45,3103.19l2.05,6.6l114.43-35.6c0,0,1.53-1.74,0.77-4.05c-0.83-2.55-2.83-2.55-2.83-2.55
				L1939.45,3103.19z"/>
			<polygon style="fill:#A9453D;" points="1931.18,3109.43 1939.45,3103.19 1941.5,3109.79 			"/>
		</g>
		<path style="fill:#FFB27D;" d="M1913.01,3259.41c0,0-29.03,16.04-32.85,28.26c-3.82,12.22-1.2,37.81,3.41,37.43
			c4.61-0.38,11.48-27.5,15.3-29.41c3.82-1.91,9.17-7.64,9.17-3.44s-3.82,11.84-1.91,12.98c1.91,1.15,8.02-10.69,12.22-12.98
			c4.2-2.29,5.97-21.18,10.05-26.25C1932.49,3260.93,1913.01,3259.41,1913.01,3259.41z"/>
		<path style="fill:#FFB27D;" d="M2019.12,3087.62c0,0-25.96-15.99-36.85-13.53c-10.89,2.46-38.64,22.56-25.29,26.91
			c13.35,4.35,24.16-0.21,29.29,2.95c5.13,3.16,8.92,8.94,32.85,8.86C2043.04,3112.74,2019.12,3087.62,2019.12,3087.62z"/>
	</g>
	<g>
		<g>
			<g>
				<rect x="611.86" y="3251.78" style="fill:#C3D2FF;" width="460.27" height="548.82"/>
				<g>
					
						<rect x="841.66" y="3540.46" transform="matrix(-0.9009 0.434 -0.434 -0.9009 3272.9592 6472.3945)" style="fill:#B0C3F4;" width="111.74" height="138.82"/>
					<polygon style="fill:#B0C3F4;" points="1072.13,3537.91 1072.13,3698.21 1052.19,3686.69 1029.01,3673.31 1010.34,3662.53 
						1004.53,3659.19 992.6,3652.29 1000.11,3639.27 1042,3566.73 1062.01,3532.07 					"/>
					
						<rect x="869.62" y="3599.74" transform="matrix(-0.3779 0.9258 -0.9258 -0.3779 4672.2915 4198.9688)" style="fill:#B0C3F4;" width="111.74" height="138.82"/>
					
						<rect x="741.57" y="3609.46" transform="matrix(-0.8112 0.5848 -0.5848 -0.8112 3595.7493 6196.6958)" style="fill:#B0C3F4;" width="111.74" height="138.82"/>
					<polygon style="fill:#B0C3F4;" points="1072.13,3613.35 1072.13,3756.16 1050.18,3773.64 989.13,3696.94 986.6,3693.76 
						980.97,3686.69 980.58,3686.21 999.72,3670.99 999.73,3670.98 1010.34,3662.53 1066.59,3617.76 					"/>
					<polygon style="fill:#B0C3F4;" points="1072.13,3629.26 1072.13,3652.54 1029.01,3673.31 1001.26,3686.69 991.37,3691.45 
						986.6,3693.76 980.57,3696.65 975.78,3686.69 961.12,3656.28 941.37,3615.29 920.31,3571.58 937.18,3563.46 1020.97,3523.09 
						1042,3566.73 1066.59,3617.76 					"/>
					<rect x="711.53" y="3686.69" style="fill:#B0C3F4;" width="360.59" height="113.24"/>
				</g>
				
					<rect x="499.23" y="3251.78" transform="matrix(-1 -1.224647e-16 1.224647e-16 -1 1445.7257 7052.3804)" style="fill:#D7E1FF;" width="447.26" height="548.82"/>
				<g>
					
						<rect x="629.36" y="3540.46" transform="matrix(-0.9009 0.434 -0.434 -0.9009 2869.406 6564.542)" style="fill:#E3EBFF;" width="111.74" height="138.82"/>
					
						<rect x="787.87" y="3560.78" transform="matrix(-0.7778 -0.6285 0.6285 -0.7778 -781.47 6984.1299)" style="fill:#E3EBFF;" width="111.74" height="138.82"/>
					
						<rect x="657.32" y="3599.74" transform="matrix(-0.3779 0.9258 -0.9258 -0.3779 4379.7573 4395.543)" style="fill:#E9EFFF;" width="111.74" height="138.82"/>
					
						<rect x="529.28" y="3609.46" transform="matrix(-0.8112 0.5848 -0.5848 -0.8112 3211.252 6320.8413)" style="fill:#E9EFFF;" width="111.74" height="138.82"/>
					
						<rect x="801.52" y="3617.28" transform="matrix(-0.6228 -0.7824 0.7824 -0.6228 -1493.048 6653.5576)" style="fill:#E9EFFF;" width="111.74" height="138.82"/>
					
						<rect x="732.6" y="3540.46" transform="matrix(-0.9009 0.434 -0.434 -0.9009 3065.656 6519.73)" style="fill:#E9EFFF;" width="111.74" height="138.82"/>
					
						<rect x="499.23" y="3686.69" transform="matrix(-1 -1.224647e-16 1.224647e-16 -1 1445.7257 7486.6265)" style="fill:#E9EFFF;" width="447.26" height="113.24"/>
				</g>
				<polygon style="fill:#E3EBFF;" points="946.5,3558.97 920.31,3571.58 946.49,3625.93 				"/>
			</g>
			<rect x="499.23" y="3251.78" style="fill:#808285;" width="447.26" height="95.26"/>
			<rect x="946.49" y="3251.78" style="fill:#939598;" width="127.24" height="95.26"/>
			<g>
				<g>
					<path style="fill:#FFFFFF;" d="M540.37,3311.71l-11.93-26.79h5.28l9.61,22.5h-1.6l9.61-22.5h5.09l-11.93,26.79H540.37z"/>
					<path style="fill:#FFFFFF;" d="M556.14,3311.71l12.12-26.79h4.1l12.27,26.79h-4.98l-3.27-7.52l1.98,1.33h-16.07l2.05-1.33
						l-3.27,7.52H556.14z M570.27,3290.16l-5.36,12.69l-0.99-1.18h12.77l-0.8,1.18l-5.47-12.69H570.27z"/>
					<path style="fill:#FFFFFF;" d="M593.91,3311.71v-22.76h-8.85v-4.03h22.61v4.03h-8.85v22.76H593.91z"/>
					<path style="fill:#FFFFFF;" d="M621.53,3311.71v-26.79h11.7c2.94,0,5.21,0.7,6.82,2.09c1.61,1.39,2.41,3.33,2.41,5.81
						c0,1.65-0.36,3.05-1.08,4.22c-0.72,1.17-1.75,2.06-3.1,2.68c-1.34,0.62-2.93,0.93-4.75,0.93l0.53-0.72h1.29
						c1.06,0,2.01,0.28,2.85,0.84c0.84,0.56,1.52,1.41,2.05,2.55l3.91,8.4h-5.4l-3.95-8.7c-0.35-0.89-0.89-1.47-1.61-1.75
						c-0.72-0.28-1.59-0.42-2.6-0.42h-4.18v10.87H621.53z M626.43,3297.23h6c1.72,0,3.03-0.36,3.93-1.08
						c0.9-0.72,1.35-1.78,1.35-3.17c0-1.39-0.45-2.44-1.35-3.15s-2.21-1.06-3.93-1.06h-6V3297.23z"/>
					<path style="fill:#FFFFFF;" d="M648.21,3311.71v-26.79h18.05v3.84h-13.34v7.41h12.46v3.88h-12.46v7.79h13.34v3.88H648.21z"/>
					<path style="fill:#FFFFFF;" d="M683.74,3312.09c-3.01,0-5.55-0.56-7.6-1.67c-2.05-1.11-3.6-2.7-4.64-4.75
						c-1.04-2.05-1.56-4.48-1.56-7.3c0-2.84,0.56-5.29,1.67-7.35c1.12-2.06,2.72-3.66,4.81-4.79c2.09-1.13,4.6-1.69,7.54-1.69
						c1.95,0,3.66,0.26,5.13,0.78c1.47,0.52,2.76,1.27,3.88,2.26l-1.63,3.8c-0.81-0.63-1.58-1.14-2.32-1.52
						c-0.74-0.38-1.5-0.65-2.28-0.82c-0.79-0.16-1.7-0.25-2.74-0.25c-2.94,0-5.16,0.83-6.67,2.49c-1.51,1.66-2.26,4.03-2.26,7.12
						s0.72,5.45,2.15,7.07c1.43,1.62,3.68,2.43,6.75,2.43c1.04,0,2.08-0.1,3.13-0.3c1.05-0.2,2.08-0.49,3.1-0.87l-0.91,2.05v-8.02
						h-6.27v-3.57h10.34v12.88c-1.24,0.63-2.72,1.13-4.45,1.48S685.46,3312.09,683.74,3312.09z"/>
					<path style="fill:#FFFFFF;" d="M698.94,3311.71v-26.79h4.9v26.79H698.94z"/>
					<path style="fill:#FFFFFF;" d="M719.08,3312.09c-2.15,0-4.14-0.27-5.95-0.82c-1.81-0.54-3.36-1.3-4.66-2.26l1.52-3.84
						c0.86,0.61,1.76,1.12,2.7,1.54s1.94,0.74,3,0.95c1.06,0.22,2.19,0.32,3.38,0.32c2,0,3.45-0.33,4.33-0.99
						c0.89-0.66,1.33-1.52,1.33-2.58c0-0.94-0.3-1.65-0.91-2.15c-0.61-0.49-1.7-0.91-3.27-1.23l-4.29-0.87
						c-2.46-0.51-4.29-1.36-5.51-2.55s-1.82-2.79-1.82-4.79c0-1.67,0.44-3.13,1.33-4.37s2.13-2.2,3.72-2.89
						c1.6-0.68,3.46-1.03,5.59-1.03c1.9,0,3.66,0.27,5.28,0.82s2.98,1.32,4.07,2.34l-1.52,3.65c-1.09-0.91-2.28-1.59-3.57-2.03
						c-1.29-0.44-2.74-0.67-4.33-0.67c-1.8,0-3.2,0.35-4.2,1.04c-1,0.7-1.5,1.65-1.5,2.87c0,0.94,0.31,1.69,0.93,2.24
						c0.62,0.56,1.68,0.99,3.17,1.29l4.26,0.84c2.53,0.51,4.41,1.34,5.62,2.49c1.22,1.15,1.82,2.7,1.82,4.66c0,1.6-0.43,3-1.29,4.2
						c-0.86,1.2-2.08,2.14-3.65,2.81C723.09,3311.75,721.23,3312.09,719.08,3312.09z"/>
					<path style="fill:#FFFFFF;" d="M740.55,3311.71v-22.76h-8.85v-4.03h22.61v4.03h-8.85v22.76H740.55z"/>
					<path style="fill:#FFFFFF;" d="M757.76,3311.71v-26.79h11.7c2.94,0,5.21,0.7,6.82,2.09c1.61,1.39,2.41,3.33,2.41,5.81
						c0,1.65-0.36,3.05-1.08,4.22c-0.72,1.17-1.75,2.06-3.1,2.68c-1.34,0.62-2.93,0.93-4.75,0.93l0.53-0.72h1.29
						c1.06,0,2.01,0.28,2.85,0.84c0.84,0.56,1.52,1.41,2.05,2.55l3.91,8.4h-5.4l-3.95-8.7c-0.35-0.89-0.89-1.47-1.61-1.75
						c-0.72-0.28-1.59-0.42-2.6-0.42h-4.18v10.87H757.76z M762.66,3297.23h6c1.72,0,3.03-0.36,3.93-1.08
						c0.9-0.72,1.35-1.78,1.35-3.17c0-1.39-0.45-2.44-1.35-3.15s-2.21-1.06-3.93-1.06h-6V3297.23z"/>
					<path style="fill:#FFFFFF;" d="M781.47,3311.71l12.12-26.79h4.1l12.27,26.79h-4.98l-3.27-7.52l1.98,1.33h-16.07l2.05-1.33
						l-3.27,7.52H781.47z M795.61,3290.16l-5.36,12.69l-0.99-1.18h12.77l-0.8,1.18l-5.47-12.69H795.61z"/>
					<path style="fill:#FFFFFF;" d="M819.24,3311.71v-22.76h-8.85v-4.03H833v4.03h-8.85v22.76H819.24z"/>
					<path style="fill:#FFFFFF;" d="M836.46,3311.71v-26.79h4.9v26.79H836.46z"/>
					<path style="fill:#FFFFFF;" d="M846.38,3298.29c0-2.81,0.51-5.24,1.54-7.3s2.5-3.64,4.43-4.77s4.22-1.69,6.88-1.69
						c2.63,0,4.92,0.56,6.84,1.69c1.92,1.13,3.41,2.72,4.46,4.77c1.05,2.05,1.58,4.47,1.58,7.26c0,2.81-0.53,5.25-1.58,7.32
						c-1.05,2.06-2.54,3.67-4.46,4.81c-1.93,1.14-4.21,1.71-6.84,1.71c-2.66,0-4.95-0.57-6.86-1.71c-1.91-1.14-3.39-2.74-4.43-4.81
						C846.89,3303.5,846.38,3301.08,846.38,3298.29z M851.5,3298.29c0,3.01,0.65,5.37,1.94,7.07s3.22,2.55,5.78,2.55
						c2.48,0,4.4-0.85,5.74-2.55s2.01-4.05,2.01-7.07c0-3.04-0.66-5.4-1.99-7.07c-1.33-1.67-3.25-2.51-5.76-2.51
						c-2.56,0-4.48,0.84-5.78,2.51C852.15,3292.9,851.5,3295.25,851.5,3298.29z"/>
					<path style="fill:#FFFFFF;" d="M877.15,3311.71v-26.79h3.69l15.54,20.1h-0.99v-20.1h4.56v26.79h-3.69l-15.5-20.1h0.95v20.1
						H877.15z"/>
				</g>
			</g>
		</g>
		<rect x="923.82" y="3799.93" style="fill:#2B478B;" width="22.69" height="47.51"/>
		<rect x="1049.49" y="3799.93" style="fill:#2B478B;" width="22.69" height="47.51"/>
		<rect x="499.26" y="3799.93" style="fill:#2B478B;" width="22.69" height="47.51"/>
	</g>
	<g>
		
			<rect x="664.44" y="2991.31" transform="matrix(-0.9966 0.0821 -0.0821 -0.9966 1738.2036 6118.5811)" style="fill:#FFFFFF;" width="157.61" height="207.47"/>
		
			<rect x="671.72" y="2998.15" transform="matrix(-0.9966 0.0821 -0.0821 -0.9966 1738.3412 6118.1152)" style="fill:#E7EDFF;" width="143.2" height="193.34"/>
		<g>
			
				<rect x="683.2" y="3091.33" transform="matrix(-0.9966 0.0821 -0.0821 -0.9966 1692.6259 6114.2368)" style="fill:#BCBEC0;" width="74.65" height="1.22"/>
			
				<rect x="683.67" y="3097.02" transform="matrix(-0.9966 0.0821 -0.0821 -0.9966 1694.0309 6125.5723)" style="fill:#BCBEC0;" width="74.65" height="1.22"/>
			
				<rect x="684.15" y="3102.79" transform="matrix(-0.9966 0.0821 -0.0821 -0.9966 1695.4039 6137.0581)" style="fill:#BCBEC0;" width="74.65" height="1.23"/>
		</g>
		
			<rect x="683.4" y="3072.46" transform="matrix(-0.9966 0.0821 -0.0821 -0.9966 1657.0707 6079.4429)" style="fill:#BCBEC0;" width="40.19" height="2.69"/>
		
			<rect x="683.39" y="3079.1" transform="matrix(-0.9966 0.0821 -0.0821 -0.9966 1666.3411 6092.3462)" style="fill:#BCBEC0;" width="48.94" height="2.69"/>
		<g>
			
				<rect x="771.63" y="3064.18" transform="matrix(-0.9966 0.0821 -0.0821 -0.9966 1828.0571 6087.499)" style="fill:#FFFFFF;" width="34.34" height="34.34"/>
			<polygon style="fill:#233862;" points="798.59,3076.75 790.42,3090.21 777.77,3070.81 791.46,3081.34 			"/>
		</g>
		<g>
			
				<rect x="688.76" y="3159.27" transform="matrix(-0.9966 0.0821 -0.0821 -0.9966 1709.2509 6249.4517)" style="fill:#BCBEC0;" width="74.65" height="1.23"/>
			
				<rect x="689.23" y="3164.97" transform="matrix(-0.9966 0.0821 -0.0821 -0.9966 1710.6531 6260.7881)" style="fill:#BCBEC0;" width="74.65" height="1.23"/>
			
				<rect x="689.7" y="3170.73" transform="matrix(-0.9966 0.0821 -0.0821 -0.9966 1712.0725 6272.2593)" style="fill:#BCBEC0;" width="74.65" height="1.22"/>
		</g>
		
			<rect x="688.96" y="3140.4" transform="matrix(-0.9966 0.0822 -0.0822 -0.9966 1673.8193 6214.6196)" style="fill:#BCBEC0;" width="40.19" height="2.69"/>
		
			<rect x="688.94" y="3147.04" transform="matrix(-0.9966 0.0821 -0.0821 -0.9966 1683.0104 6227.5474)" style="fill:#BCBEC0;" width="48.94" height="2.69"/>
		<g>
			
				<rect x="777.19" y="3132.13" transform="matrix(-0.9966 0.0821 -0.0821 -0.9966 1844.728 6222.7012)" style="fill:#FFFFFF;" width="34.34" height="34.34"/>
			<polygon style="fill:#233862;" points="804.15,3144.69 795.98,3158.15 783.32,3138.75 797.02,3149.29 			"/>
		</g>
		<g>
			
				<rect x="676.29" y="3036.15" transform="matrix(-0.9966 0.0821 -0.0821 -0.9966 1674.2473 6004.6533)" style="fill:#BCBEC0;" width="74.65" height="1.22"/>
			
				<rect x="676.76" y="3041.85" transform="matrix(-0.9966 0.0821 -0.0821 -0.9966 1675.6472 6015.9902)" style="fill:#BCBEC0;" width="74.65" height="1.22"/>
			
				<rect x="677.24" y="3047.61" transform="matrix(-0.9966 0.0821 -0.0821 -0.9966 1677.1176 6027.4448)" style="fill:#BCBEC0;" width="74.65" height="1.23"/>
		</g>
		
			<rect x="676.49" y="3017.28" transform="matrix(-0.9966 0.0821 -0.0821 -0.9966 1638.7375 5969.8452)" style="fill:#BCBEC0;" width="40.19" height="2.69"/>
		
			<rect x="676.47" y="3023.93" transform="matrix(-0.9966 0.0821 -0.0821 -0.9966 1648.0076 5982.748)" style="fill:#BCBEC0;" width="48.94" height="2.69"/>
		<g>
			
				<rect x="764.72" y="3009.01" transform="matrix(-0.9966 0.0821 -0.0821 -0.9966 1809.7235 5977.9023)" style="fill:#FFFFFF;" width="34.34" height="34.34"/>
			<polygon style="fill:#233862;" points="791.68,3021.57 783.51,3035.04 770.86,3015.63 784.55,3026.17 			"/>
		</g>
	</g>
	<g>
		<path style="fill:#FFB27D;" d="M643.73,3026.74c2.72-1.92,4.84-6.2,7.63-9.39c2.08-2.37,6.02-4.66,6.02-4.66s0.41,5.56,0.83,10.05
			c8.25-3.08,20.66-5.92,40.47-2.11c3.97,0.76,7.56,3.02,9.75,6.41c2.02,3.15,2.77,7.08-2.28,10.22
			c-10.11,6.29-7.18,2.52-21.23,11.67c-14.05,9.15-31.25,11.49-41.53,5.07l-13.79-2.3l-1.71-22.69
			C627.89,3029.01,635.75,3028.08,643.73,3026.74z"/>
		<path style="fill:#FFB27D;" d="M282.32,2836.47c0,0,32.51,38.57,73.92,22.44c0,0,8.91-21.54,9.03-37.42
			c0.01-1.95,0.04-3.85,0.07-5.65c0.22-17.88,0.82-27.92,0.82-27.92s-0.01,0-0.04-0.01c-1.88-0.79-63.3-26-63.25-23.91
			C303.93,2812.37,282.32,2836.47,282.32,2836.47z"/>
		<path style="fill:#ED975D;" d="M309.04,2775.53c5.92,10.98,26.24,32.45,56.3,40.3c0.22-17.88,0.82-27.92,0.82-27.92
			s-0.01,0-0.04-0.01C364.42,2787.45,307.28,2772.3,309.04,2775.53z"/>
		<path style="fill:#FFB27D;" d="M379.03,2786.05c0,0-69.07,16.24-78.52-26.93c-9.45-43.17-24.73-70.14,18.97-82.33
			s55.9,2.4,62.56,16.04C388.7,2706.47,396.75,2780.72,379.03,2786.05z"/>
		<path style="fill:#A9453D;" d="M302.87,2770.89c-0.94,0.6-15.8,5.17-43.95-50.9c-4.42-8.8-7.43-27.84,2.87-44.66
			c10.3-16.82,46.82-30.05,77.15-35.81c30.34-5.76,37.62,11.32,44.77,28.47c7.5,18.01,29.16,32.84,29.16,32.84
			c-26.16,14.61-57.67-6.29-68.59-2.85c-10.92,3.44-14.77,20.64-15.59,26.16c-0.82,5.52-2.08,10.1-15.8,5.17
			c-13.73-4.93-6.21,19.45-4.01,24.11C308.88,2753.42,310.75,2765.84,302.87,2770.89z"/>
		<g>
			<path style="fill:#2C3A64;" d="M124.96,3847.37H83.13c-8.77,0-18.51-8.78-20.95-24.85c-2.44-16.08-20.46-24.85-24.36-38.01
				c-3.9-13.16,16.08-31.68,16.08-31.68l3.34-4.29l3.47-4.48l33.13,7.79c0,0,0.82,7.89,1.33,17.94c0.35,7.25,0.55,15.64,0.13,23
				c-0.98,17.54,4.91,36.43,20.5,39.85C131.41,3836.05,124.96,3847.37,124.96,3847.37z"/>
			<path style="fill:#2C3A64;" d="M416.09,3847.37H305.24c-1.06-0.21-1.87-0.44-2.35-0.68c-7.4-3.71-5.08-32.04-4.19-40.8
				c0.17-1.62,0.29-2.57,0.29-2.57s38.98-31.18,44.34-7.3c0.17,0.74,0.37,1.48,0.57,2.19v0.01c6.77,22.34,37.02,32.48,54.49,35.31
				C411.74,3835.7,415.2,3843.48,416.09,3847.37z"/>
			<path style="fill:#808285;" d="M393.75,3208.1c0,0-5.92,73.86-12.88,162.65c-9.46,120.61-20.83,268.75-21.96,296.82
				c-1.94,48.73-9.75,126.69-9.75,126.69s-18.51,18.52-55.55,10.72c0,0-33.01-111.28-42.43-229.02c-0.15-1.93-0.29-3.87-0.44-5.82
				c-8.77-119.86-22.41-372.26-22.41-372.26L393.75,3208.1z"/>
			<path style="fill:#939598;" d="M393.75,3208.1c0,0-5.92,73.86-12.88,162.65l-129.69,205.2c-0.15-1.93-0.29-3.87-0.44-5.82
				c-8.77-119.86-22.41-372.26-22.41-372.26L393.75,3208.1z"/>
			<path style="fill:#808285;" d="M366.71,3216.87c0,0-106.71,267.5-176.87,393.21c-70.16,125.71-92.09,160.79-92.09,160.79
				s-40.2-16.08-43.85-27.04c0,0,26.83-242.69,73.82-301.85c26.55-33.43,57.74-133.75,59.2-168.83c1.46-35.08,9.5-104.51,9.5-104.51
				L366.71,3216.87z"/>
		</g>
		<g>
			<path style="fill:#FFB27D;" d="M123.37,3168.27l-1.13,17.2c0,0,11.35,30.56-20.44,46.24c0,0-13.61,5.49-14.16-5.1
				c-0.55-10.59,1.19-6.61,0.08-21.53c-1.11-14.92,4.76-29.01,14.63-33.76l8.1-9.34L123.37,3168.27z"/>
			<path style="fill:#C49A6C;" d="M110.95,3180.8c11.81,3.79,13.7,2.93,13.7,2.93s57.49-104.66,63.31-114.24
				c5.82-9.58,122.05-117.36,122.05-117.36l-29.87-111.38c0,0-132.2,171.19-146.47,195.75c-23.59,40.59-37.41,134.87-37.41,134.87
				S101.67,3177.82,110.95,3180.8z"/>
		</g>
		<path style="fill:#D2B069;" d="M416.28,2995.86c-0.41,22.87-1.74,48.59-3.54,74.7c-0.11,1.55-0.22,3.1-0.33,4.65
			c-1.15,16.18-6.06,72.61-6.32,74.89c-5.83,59.23-11.94,106.03-13.07,106.75c-1.35,0.9-2.88,1.35-4.55,1.16
			c-15.53-1.95-61.88,1.57-99.82-6.68c-32.02-6.75-59.59-19.56-88.8-36.82c-3.88-2.29-12.72-8.36-12-12.9
			c0.71-4.99,2.01-12.19,3.67-21.25c5.76-31.51,15.69-85.7,19.08-149.13c0.66-11.81,1.62-23.48,2.86-34.96
			c3.26-29.88,8.47-58.27,15.47-83.48c13.01-46.84,32.13-82.72,56.11-96.75c3.13-1.76,20,8.97,35.48,18.91
			c14.3,9.17,29.36,11.71,44,10.43l12.89,14.25c15.61,18.14,32.23,42.3,36.76,76.63c0.34,2.54,0.63,5.23,0.88,8.1
			C416.32,2958.33,416.63,2976.03,416.28,2995.86z"/>
		<path style="fill:#C49A6C;" d="M416.28,2995.86c-0.41,22.87-1.74,48.59-3.54,74.7c-0.11,1.55-0.22,3.1-0.33,4.65
			c-88.73-55.54-102.39-157.16-102.39-157.16c43.65,1.91,78.33,11.95,105.05,26.3C416.32,2958.33,416.63,2976.03,416.28,2995.86z"/>
		<path style="fill:#D2B069;" d="M640.46,3039.6c0.91-13.16-5.9-15.35-5.9-15.35s-133.78-24.24-145.15-27.82
			c-11.37-3.58-108.61-104.73-108.61-104.73s-37.27-42.04-67.79-32.75c-26.52,8.07-36.89,28.75-40.42,48.46
			c-4.21,23.49,6.62,47.12,26.96,59.59c45.65,28,137.05,83.17,158.57,89.48c47.91,14.05,176.63,1.13,176.63,1.13
			S639.74,3049.94,640.46,3039.6z"/>
	</g>
	<g>
		<g>
			<path style="fill:#D1D3D4;" d="M664.58,2857.65H545.79v-118.79h118.79V2857.65z M550.72,2852.71h108.92v-108.92H550.72V2852.71z"
				/>
		</g>
		<polygon style="fill:#D1D3D4;" points="565.69,2784.14 604.33,2837.41 650.36,2752.28 596.95,2800.84 		"/>
	</g>
	<g>
		<g>
			<path style="fill:#D1D3D4;" d="M839.87,2714.03H721.08v-118.79h118.79V2714.03z M726.02,2709.1h108.92v-108.92H726.02V2709.1z"/>
		</g>
		<polygon style="fill:#D1D3D4;" points="740.99,2640.53 779.62,2693.79 825.65,2608.67 772.24,2657.22 		"/>
	</g>
	<g>
		<path style="fill:#FFB27D;" d="M2667.96,3095.94c0,0-2.73-27.09,11.44-26.17c14.17,0.93,17.92,7.43,16.34,12.63
			c-1.58,5.21-15.36,22.43-15.36,22.43L2667.96,3095.94z"/>
		<path style="fill:#808285;" d="M2645.82,3239.97c-24.72,0.99-74.26-13.52-92.95-21.2c-17.75-7.29-33.11-15.1-46.21-22.74
			c-3.52-2.04-6.87-4.08-10.06-6.09c-33.72-21.27-49.42-39.71-49.42-39.71s63.21-54.65,88.71-40.34
			c29.91,16.79,81.49,71.05,90.2,65.48c9.81-6.27,37.18-83.17,37.18-83.17c18.02-3.43,21.92,10.2,21.92,10.2
			S2680.91,3238.56,2645.82,3239.97z"/>
		<path style="fill:#233862;" d="M2541.42,3814.2c0,0-2.59,29.97,3.75,33.09l81.08-0.17c0,0,0-9.36-13.02-11.44
			c-13.02-2.08-35.9-9.7-39.77-26.69C2569.58,3792.01,2541.42,3814.2,2541.42,3814.2z"/>
		<path style="fill:#D2B069;" d="M2600.95,3451.44c-0.4,19.6-1.34,39.81-3.19,57.98c-8.76,86.21-11.83,190.38-13.09,210.46
			c-2.18,34.86-9.07,90.56-9.07,90.56s-13.66,12.97-40.29,6.78c0,0-22.06-80.22-26.99-164.68c-0.08-1.39-0.15-2.78-0.22-4.17
			c-0.57-11.17-1.17-23.94-1.78-37.7c-4.06-92.22-8.46-229.22-8.46-229.22l101.75-23.89
			C2599.61,3357.55,2601.95,3402.58,2600.95,3451.44z"/>
		<path style="fill:#C49A6C;" d="M2600.95,3451.44c-25.79,44.49-74.94,126.45-94.62,159.22c-4.06-92.22-8.46-229.22-8.46-229.22
			l101.75-23.89C2599.61,3357.55,2601.95,3402.58,2600.95,3451.44z"/>
		<path style="fill:#FFB27D;" d="M2388.72,3436.95c0,0-6.31,24.76-5.28,30.27c1.03,5.5,7.2,24.14,11.04,28.77
			c3.85,4.63,4-20.1,6.56-23.99c2.56-3.88,1.17,9.23,3.22,10.3c2.05,1.07,5.46-9.93,6.99-13.84c1.52-3.9-5.46-17.49-6.11-27.22
			C2404.5,3431.5,2388.72,3436.95,2388.72,3436.95z"/>
		<path style="fill:#233862;" d="M2339.44,3780.13c0,0-14.43,13.17-11.62,22.53c2.82,9.36,15.84,15.6,17.6,27.03
			c1.76,11.44,8.8,17.68,15.13,17.68c6.34,0,30.21,0,30.21,0s4.66-8.05-6.6-10.47c-11.26-2.43-15.51-15.87-14.81-28.34
			c0.7-12.48-1.06-29.11-1.06-29.11l-23.94-5.54L2339.44,3780.13z"/>
		<path style="fill:#D2B069;" d="M2583.57,3383.53c0,0-95.25,203.79-145.93,293.21c-50.69,89.42-66.52,114.37-66.52,114.37
			s-29.04-11.44-31.68-19.24c0,0,19.38-172.63,53.33-214.71c19.18-23.78,41.71-95.14,42.77-120.09
			c1.06-24.95,23.31-84.51,23.31-84.51L2583.57,3383.53z"/>
		<path style="fill:#808285;" d="M2601.32,3372.92c0,0-31.01,33.38-83.72,43.46c-23.13,4.43-70.08,8.71-81.72-7.76
			c-2.73-3.87-2.76-9.59-2.15-18.53c1.57-23.23,7.41-68.14-18.97-158.39c-2.46-8.4-4.11-16.45-5.07-24.12
			c-5.76-46.17,13.71-78.94,36.58-93.56c55.76-35.67,83.01-11.03,83.01-11.03s31.92,14.92,46.51,58.39
			C2604.95,3248.34,2601.32,3372.92,2601.32,3372.92z"/>
		<path style="fill:#FFB27D;" d="M2462.87,3104.7c0,0,31.92,10.35,61.04-1.62c0,0,5.62-2.94,1.02-9.27c0.5-6.1,0.4-5.54,0.46-10.01
			c0.36-10.32-0.16-16.1-0.16-16.1l-21.45-13.98l-20.35-13.39C2488.71,3082.62,2462.87,3104.7,2462.87,3104.7z"/>
		<path style="fill:#ED985F;" d="M2484.52,3056.58c0,0,15.27,22.76,40.86,27.22c0.36-10.32-0.32-20.87-0.32-20.87l-21.29-9.21
			L2484.52,3056.58z"/>
		<path style="fill:#FFB27D;" d="M2544.28,3062.26c0,0-51.67,19.28-63.17-12.55c-11.5-31.84-25.91-50.79,6.6-64.44
			c32.5-13.66,43.33-3.8,49.8,5.89C2543.98,3000.84,2557.43,3056.42,2544.28,3062.26z"/>
		<path style="fill:#2C3A64;" d="M2448.93,2988.84c-0.59-0.46-1.8-0.69-4.31-0.33c0,0,1.74-1.64,4.39-2.23
			c-0.16-3.56,0.47-10.05,6.13-12.71c0,0-2.86,2.34-2.55,6.1c5.5-8.45,19.26-16.52,60.82-21.37c54.77-6.4,43.82,31.64,37.65,37.14
			c-6.17,5.5-25.97-2.32-38.78,1.28c-12.8,3.6-11.57,22.89-15.47,26.34c-3.9,3.45-3.07-1.45-9.57-2.97
			c-6.5-1.52-5.12,8.49-2.12,14.58c3,6.09-3.53,16.2-3.53,16.2s0,0-10.05-7.29c-10.05-7.29-25.34-43.57-23.16-52.37
			C2448.54,2990.42,2448.73,2989.63,2448.93,2988.84z"/>
		<path style="fill:#939598;" d="M2433.73,3390.09c1.57-23.23,7.41-68.14-18.97-158.39c-2.46-8.4-4.11-16.45-5.07-24.12l0.01,0
			c19.6-6.46,55.31,7.91,55.31,7.91S2473.4,3334.79,2433.73,3390.09z"/>
		<path style="fill:#808285;" d="M2448.6,3112.55c0,0-40.46,22.92-54.3,74.04c-11.34,41.89-28.88,104.2-30.99,123.69
			s21.39,133.58,21.39,133.58s3.32,2.42,11.44,0.79c7.77-1.55,11.39-6.81,11.39-6.81s5.62-76.04,4.17-111.94
			c-0.6-14.92,69.05-109.25,106.65-121.4C2533.12,3199.73,2448.6,3112.55,2448.6,3112.55z"/>
		<path style="fill:#939598;" d="M2476.63,3085.41c0,0-6.75,3.3-19.86,20.73c0,0,24.4,30.6,59.61,26.6c0,0-4.34-15.86-4.12-25.93
			C2512.27,3106.82,2482.83,3103.54,2476.63,3085.41z"/>
		<path style="fill:#939598;" d="M2512.27,3106.82c0,0,18.81,4.91,23.32,18.43c0,0,3.99-11.63,0.47-18.2
			c-3.51-6.57-11.14-13.24-11.14-13.24S2527.49,3102.12,2512.27,3106.82z"/>
		<g>
			<g>
				<path style="fill:#FFFFFF;" d="M2771.15,3031.31c0,0-69.71-1.98-150.15,12.83l-8.4-21.18l-9.22-23.2
					c0,0,80.76-34.77,129.3-83.18L2771.15,3031.31z"/>
				<path style="fill:#808285;" d="M2731.57,2915.46l40.02,118.14l0,0c5.85-1.73,9.05-8.02,7.01-13.77l-35.22-99.26
					C2741.68,2915.75,2736.24,2913.4,2731.57,2915.46L2731.57,2915.46z"/>
				<path style="fill:#D7E1FF;" d="M2771.15,3031.31c0,0-69.71-1.98-150.15,12.83l-8.4-21.18
					C2688.18,3007.53,2771.15,3031.31,2771.15,3031.31z"/>
				<path style="fill:#808285;" d="M2643.24,3039.88l-21.78,3.83c0.33,0.01-20.23,4-26.97-14.23c-0.62-1.25-1.01-2.48-1.29-3.93
					c-5.24-22.72,7.23-26.91,7.23-26.91l28.03-10.92l8.91,31.52c0,0,0,0,0,0.11L2643.24,3039.88z"/>
				<path style="fill:#939598;" d="M2643.24,3039.88l-21.78,3.83c0.33,0.01-20.23,4-26.97-14.23c12.32-8.96,42.88-10.24,42.88-10.24
					s0,0,0,0.11L2643.24,3039.88z"/>
			</g>
			<path style="fill:#D7E1FF;" d="M2693.37,3119.24L2693.37,3119.24c-7.78,1.56-15.42-3.54-16.98-11.32l-13.78-68.95
				c-1.56-7.78,3.54-15.42,11.32-16.98l0,0c7.78-1.55,15.42,3.54,16.98,11.32l13.78,68.95
				C2706.24,3110.05,2701.15,3117.69,2693.37,3119.24z"/>
		</g>
		<path style="fill:#FFB27D;" d="M2691.51,3052.48c0,0-10.66,4.25-8.7,8.94c1.95,4.69,15.5,11.14,17.64,7.44
			C2702.59,3065.16,2698.21,3048.52,2691.51,3052.48z"/>
		<path style="fill:#FFB27D;" d="M2667.75,3091.67c0,0-2.01-10.9-2.14-15.91c-0.13-5.01-1.57-8.79-0.4-8.93
			c1.18-0.14,1.83,0.73,2.31,2.34c0.48,1.61,3.39,11.34,3.39,11.34l-0.93,9.64L2667.75,3091.67z"/>
	</g>
</g>
<g>
	<path style="opacity:0.13;fill:#FBB040;" d="M1228.1,1834.34h2573.18l-291.51-1144.7c-29.82-117.11-145-191.34-263.98-170.12
		L1595.87,813.8c-98.08,17.49-175.63,92.93-195.84,190.48L1228.1,1834.34z"/>
	<g>
		<g>
			<defs>
				<path id="XMLID_58_" d="M2179.71,1831.18c0,0,249.63,7.06,334.68-132.36c0,0-168.06,5.34-227.59,33.13
					c0,0,150.82-63.5,187.87-194.48c0,0-128.59-15.88-237.61,103.19c0,0,44.45-95.26-41.54-214.33
					c-94.41,155.29-92.5,238.68-62.18,404.85H2179.71z"/>
			</defs>
			<use xlink:href="#XMLID_58_"  style="overflow:visible;fill:#A7BD37;"/>
			<clipPath id="XMLID_00000121258455939000194290000005242884990068703161_">
				<use xlink:href="#XMLID_58_"  style="overflow:visible;"/>
			</clipPath>
			<path style="clip-path:url(#XMLID_00000121258455939000194290000005242884990068703161_);fill:#3E5409;" d="M2189.32,1533.37
				c0,0-26.92,227.64,66.09,298.62c93.01,70.98,0,0,0,0l-126.06,18.36l-24.48-321.88L2189.32,1533.37z"/>
			<path style="clip-path:url(#XMLID_00000121258455939000194290000005242884990068703161_);fill:#3E5409;" d="M2113.72,1805.15
				c-2.43,0.02-2.7-3.93-0.07-4c89.05-3.34,193.05-31.48,264.61-54.5c81.03-24.49,133.48-52.44,137.97-48.62
				C2449.17,1734.9,2229.03,1802.93,2113.72,1805.15z"/>
			<path style="clip-path:url(#XMLID_00000121258455939000194290000005242884990068703161_);fill:#3E5409;" d="M2133.75,1782.46
				c60.72-75.03,339.96-248.01,342.6-246.06C2475.32,1543.27,2207.36,1706.82,2133.75,1782.46z"/>
		</g>
		<g>
			<g>
				<defs>
					<path id="XMLID_59_" d="M2508.63,1311.19l-116.6-209.69c1.68-20.97,1.66-42.73,0-63.7l-0.01,0
						c-50.52-524.77-834.79-461.3-798.1,66.85l-0.03,0c16.84,125.46,122.92,458.07,123.07,464.64c0,0-31.95,261.88-31.95,261.88
						h494.69l-7.38-261.88c155.51,8.31,230.65-16.99,219.69-190.14h76.63C2502.47,1380.21,2525.95,1340.23,2508.63,1311.19z
						 M2183.53,1067.18c-5.66,0-11.11-0.88-16.23-2.51v63.46c0,18.6-15.07,33.67-33.67,33.67h-92.57
						c29.83,32.41,4.17,89.93-40.57,88.41c-44.72,1.51-70.41-56.01-40.57-88.41h-92.57c-18.6,0-33.67-15.07-33.67-33.67v-63.46
						c-91.83,21.04-91.77-123.09,0-102.02v-63.46c0-18.59,15.07-33.67,33.67-33.67h92.57c-29.83-32.41-4.17-89.93,40.57-88.41
						c44.72-1.52,70.41,56.01,40.57,88.41h92.57c18.6,0,33.67,15.07,33.67,33.67v63.46
						C2245.89,941.09,2264.95,1063.92,2183.53,1067.18z"/>
				</defs>
				<use xlink:href="#XMLID_59_"  style="overflow:visible;fill:#D2B069;"/>
				<clipPath id="XMLID_00000076571175807937414450000001784106642294532011_">
					<use xlink:href="#XMLID_59_"  style="overflow:visible;"/>
				</clipPath>
				<path style="clip-path:url(#XMLID_00000076571175807937414450000001784106642294532011_);fill:#C69C6D;" d="M2172.33,1569.3
					h-150.95c0,0,41.49,126.56,193.61,126.56L2172.33,1569.3"/>
				<path style="clip-path:url(#XMLID_00000076571175807937414450000001784106642294532011_);fill:#C69C6D;" d="M1657.35,1364.69
					c0,0,239.72,189.21,282.36,489.99h-228.95L1657.35,1364.69"/>
			</g>
			<g>
				<defs>
					<path id="XMLID_56_" d="M2183.53,960.13c-5.66,0-11.11,0.88-16.23,2.51v-63.46c0-18.59-15.07-33.67-33.67-33.67h-92.57
						c29.83-32.41,4.17-89.93-40.57-88.41c-44.72-1.52-70.41,56.01-40.57,88.41h-92.57c-18.6,0-33.67,15.07-33.67,33.67v63.46
						c-91.83-21.04-91.77,123.08,0,102.02v63.46c0,18.6,15.07,33.67,33.67,33.67h92.57c-29.83,32.41-4.17,89.93,40.57,88.41
						c44.72,1.51,70.41-56.01,40.57-88.41h92.57c18.6,0,33.67-15.07,33.67-33.67v-63.46
						C2245.89,1086.22,2264.95,963.4,2183.53,960.13z"/>
				</defs>
				<use xlink:href="#XMLID_56_"  style="overflow:visible;fill:#998675;"/>
				<clipPath id="XMLID_00000128482651284602022600000010027075221833925819_">
					<use xlink:href="#XMLID_56_"  style="overflow:visible;"/>
				</clipPath>
				<path style="clip-path:url(#XMLID_00000128482651284602022600000010027075221833925819_);fill:#C69C6D;" d="M2198.12,965.59
					c-5.66,0-11.11,0.88-16.23,2.51v-63.46c0-18.59-15.07-33.67-33.67-33.67h-92.57c29.83-32.41,4.17-89.93-40.57-88.41
					c-44.72-1.51-70.41,56.01-40.57,88.41h-92.57c-18.6,0-33.67,15.07-33.67,33.67v63.46c-91.83-21.04-91.77,123.08,0,102.02v63.46
					c0,18.6,15.07,33.67,33.67,33.67h92.57c-29.83,32.41-4.17,89.93,40.57,88.41c44.72,1.51,70.41-56.01,40.57-88.41h92.57
					c18.6,0,33.67-15.07,33.67-33.67v-63.46C2260.48,1091.68,2279.54,968.85,2198.12,965.59z"/>
				<path style="clip-path:url(#XMLID_00000128482651284602022600000010027075221833925819_);fill:#808285;" d="M1875.73,949.31
					c-44.89,76.69-1.07,188.63,56.51,313.67h157.93c0,0,21.81-202.42,0-283.57L1875.73,949.31z"/>
			</g>
		</g>
		<g>
			<defs>
				<path id="XMLID_57_" d="M1685.02,1831.18c0,0-291.72-55.03-355.55-244.42c0,0,163.86,17.03,274.5,88.62
					c0,0-156.21-56.95-165.97-234.31c0,0,196.27,72.81,247.02,195.05c0,0-115.22-138.1-118.47-297.56
					c129.72,110.91,279.53,271.59,255.46,492.61H1685.02z"/>
			</defs>
			<use xlink:href="#XMLID_57_"  style="overflow:visible;fill:#A7BD37;"/>
			<clipPath id="XMLID_00000079479996857824950620000010199367885533821368_">
				<use xlink:href="#XMLID_57_"  style="overflow:visible;"/>
			</clipPath>
			<path style="clip-path:url(#XMLID_00000079479996857824950620000010199367885533821368_);fill:#3E5409;" d="M1719.76,1478.8
				c66.58,185.8,137.07,399.61-198.77,317.81c0,0,139.79,56.79,144.16,55.7s212.96-4.37,212.96-4.37S1869.38,1526.85,1719.76,1478.8
				z"/>
			<path style="clip-path:url(#XMLID_00000079479996857824950620000010199367885533821368_);fill:#3E5409;" d="M1822.01,1833.18
				c-94.13-235.17-257.92-490.34-256.54-496.29C1569.16,1335.76,1737.73,1600.87,1822.01,1833.18z"/>
			<path style="clip-path:url(#XMLID_00000079479996857824950620000010199367885533821368_);fill:#3E5409;" d="M1822.01,1833.18
				c-13.34,21.44-368.81-344.58-385.24-393.69c6.85-0.55,60.07,76.28,141.07,163.82
				C1645.99,1685.63,1760.65,1786.09,1822.01,1833.18z"/>
			<path style="clip-path:url(#XMLID_00000079479996857824950620000010199367885533821368_);fill:#3E5409;" d="M1822.01,1833.18
				c-99.06-13.68-440.07-204.33-494.25-247.47c6.28-2.86,86.38,53.79,194.09,110.8C1615.49,1753.26,1759.42,1810.57,1822.01,1833.18
				z"/>
		</g>
	</g>
	<g>
		<g>
			<defs>
				<path id="XMLID_66_" d="M3053.21,630.16c-24.08,28.48-6.32,69.6-15.06,102.65c-4.6,17.42-16.03,32.29-21.8,49.36
					c-9.51,28.17-1.66,61.44,19.44,82.39c34.32,33.61,87.13,31.2,131.24,22.84c24.49-5.94,83.27-12.06,87.53-41.5
					c8.67-31.28,10.22-69.42-13.36-94.56c-8.34-8.82-19.2-14.93-27.63-23.66c-29.73-29.05-21.53-86.96-60.67-108.39
					c-13.68-6.73-29.08-3.68-43.32-0.79c-6.13,0.94-11.73-1.08-17.73-1.95C3077.82,614.52,3062.65,619.4,3053.21,630.16z"/>
			</defs>
			<use xlink:href="#XMLID_66_"  style="overflow:visible;fill:#38385D;"/>
			<clipPath id="XMLID_00000173873833547439644900000000679486182770384810_">
				<use xlink:href="#XMLID_66_"  style="overflow:visible;"/>
			</clipPath>
		</g>
		<g>
			<path style="fill:#38385D;" d="M2999.28,897.68c-114.93,168.74-78.79,121.3-263.35,195.88l23.38,55.93
				c28.23-10.23,197.07-41.92,216.11-64.07c0,0,70.86-58.61,70.86-58.61L2999.28,897.68z"/>
			<g>
				<path style="fill:#38385D;" d="M3063.73,1790.1l-60.67,20.7c-11.08,3.78-19.8,12.47-23.62,23.54l0,0h133.12
					c4.33-19.34,7.03-27.19-5.63-44.23H3063.73z"/>
				<g>
					<defs>
						<path id="XMLID_60_" d="M3106.92,1790.1L3106.92,1790.1c0,0,50.14-298.45,21.52-406.11l-89.71,3.75l24.99,402.36
							C3063.73,1790.1,3084.35,1801.54,3106.92,1790.1z"/>
					</defs>
					<use xlink:href="#XMLID_60_"  style="overflow:visible;fill:#FFB6A6;"/>
					<clipPath id="XMLID_00000129895612793694244240000002294688260642569640_">
						<use xlink:href="#XMLID_60_"  style="overflow:visible;"/>
					</clipPath>
					<path style="clip-path:url(#XMLID_00000129895612793694244240000002294688260642569640_);fill:#FF8370;" d="M3019.97,1497.76
						c0,0,41.01,7.65,124.57-10.19l-2.24-61.17l-109.59,1.7L3019.97,1497.76z"/>
				</g>
			</g>
			<g>
				<path style="fill:#38385D;" d="M3225.8,1775.84l-56.03,31.14c-10.24,5.69-17.27,15.79-19.06,27.36l0,0l131-23.64
					c0.79-19.95,2.17-27.85-13.4-42.53L3225.8,1775.84z"/>
				<g>
					<defs>
						<path id="XMLID_61_" d="M3268.3,1768.17L3268.3,1768.17c0,0-3.65-302.62-50.93-403.48l-87.62,19.62l96.04,391.53
							C3225.8,1775.84,3248.12,1783.43,3268.3,1768.17z"/>
					</defs>
					<use xlink:href="#XMLID_61_"  style="overflow:visible;fill:#FFB6A6;"/>
					<clipPath id="XMLID_00000143585250820093212450000017750547040713790364_">
						<use xlink:href="#XMLID_61_"  style="overflow:visible;"/>
					</clipPath>
					<path style="clip-path:url(#XMLID_00000143585250820093212450000017750547040713790364_);fill:#FF8370;" d="M3130.82,1495.91
						c0,0,41.71,0.24,120.78-32.15l-13.06-59.8l-107.55,21.13L3130.82,1495.91z"/>
				</g>
			</g>
			<g>
				<defs>
					<path id="XMLID_64_" d="M3047.05,1111.97h179.45c0,0,39.15,47.9,22.33,114.93c-4.18,16.66-4.63,34.03-1.28,50.88l31.57,158.99
						c0,0-131.49,52.44-269.16,17.69L3047.05,1111.97z"/>
				</defs>
				<use xlink:href="#XMLID_64_"  style="overflow:visible;fill:#808285;"/>
				<clipPath id="XMLID_00000046331800329872872220000005463440782369989539_">
					<use xlink:href="#XMLID_64_"  style="overflow:visible;"/>
				</clipPath>
				<path style="clip-path:url(#XMLID_00000046331800329872872220000005463440782369989539_);fill:#1A1A35;" d="M3024.86,1152.87
					c0,0,141.21,2.42,213.83-46.8l-202.53-4.84L3024.86,1152.87z"/>
			</g>
			<path style="fill:#FFB6A6;" d="M3050.34,1074.28l-3.29,37.7h179.45c0,0-11.99-14.55-11.31-37.7H3050.34z"/>
			<path style="fill:#FF5C3D;" d="M3153.06,811.66c0,0,97.67,31.96,108.21,58.88c10.53,26.92-34.77,222.58-34.77,222.58h-187.76
				c0,0-17.6-193.78-17.95-209.39c-0.75-33.51,80.08-68.66,80.08-68.66L3153.06,811.66z"/>
			<g>
				<g>
					<defs>
						<path id="XMLID_62_" d="M3055.53,707.31c26-143.99,160.98-39.85,91.55,57.76c1.07,23.96,20.03,71.94-18.01,76.81
							c-34.15,1.62-29.83-34-31.14-57.28C3071.32,777.82,3052.77,745.11,3055.53,707.31z"/>
					</defs>
					<use xlink:href="#XMLID_62_"  style="overflow:visible;fill:#FFB6A6;"/>
					<clipPath id="XMLID_00000106857978678231547730000007526080360157863824_">
						<use xlink:href="#XMLID_62_"  style="overflow:visible;"/>
					</clipPath>
					<path style="clip-path:url(#XMLID_00000106857978678231547730000007526080360157863824_);fill:#FF8370;" d="M3147.08,765.07
						c0,0-15.18,17.71-41.84,19.37c0,0,29.42,10.7,49.4,2.25L3147.08,765.07"/>
					<path style="clip-path:url(#XMLID_00000106857978678231547730000007526080360157863824_);fill:#FFFFFF;" d="M3086.9,766.42
						c-1.01-0.19,22.7-15.44,22.7-15.44S3108.36,770.37,3086.9,766.42z"/>
					<path style="clip-path:url(#XMLID_00000106857978678231547730000007526080360157863824_);fill:#FF8370;" d="M3061.55,666.73
						c0,0-6.55,30.13,19.1,48.96c0,0-1.3-19.48,5.52-36.04c12.28,41.12,54.92,23.16,72.4,50c0,0-7-33.12-22.17-44.48
						s-37.9-39.93-37.9-39.93S3070.38,646.66,3061.55,666.73z"/>
				</g>
				<path style="fill:#FFB6A6;" d="M3061.55,836.19c32.88,37.52,110.07,21.87,136.14-7.58
					C3146.13,804.63,3114.58,800.06,3061.55,836.19z"/>
			</g>
			<g>
				<g>
					<defs>
						<path id="XMLID_65_" d="M3094.64,1061.75c7.52-34.12,7.52-69.56,0-103.68h-44.9c-4.38-16.04-10.74-31.27-18.81-45.39
							l31.76-31.76c-18.17-28.74-44.57-55.15-73.32-73.32l-31.76,31.76c-14.12-8.07-29.35-14.43-45.39-18.81v-44.9
							c-34.12-7.52-69.56-7.52-103.68,0v44.9c-16.04,4.38-31.27,10.74-45.39,18.81l-31.76-31.76
							c-28.74,18.17-55.15,44.57-73.32,73.32l31.76,31.76c-8.07,14.12-14.43,29.35-18.81,45.39h-44.9
							c-7.52,34.12-7.52,69.56,0,103.68h44.9c4.38,16.04,10.74,31.27,18.81,45.39l-31.76,31.76c18.17,28.74,44.57,55.15,73.32,73.32
							l31.76-31.76c14.12,8.07,29.35,14.43,45.39,18.81v44.9c34.12,7.52,69.56,7.52,103.68,0v-44.9
							c16.04-4.38,31.27-10.74,45.39-18.81l31.76,31.76c28.74-18.17,55.15-44.57,73.32-73.32l-31.76-31.76
							c8.07-14.12,14.43-29.35,18.81-45.39H3094.64z M2860.39,1134.37c-163.6-2.79-163.58-246.15,0.01-248.92
							C3023.99,888.24,3023.97,1131.6,2860.39,1134.37z"/>
					</defs>
					<use xlink:href="#XMLID_65_"  style="overflow:visible;fill:#D2B069;"/>
					<clipPath id="XMLID_00000058561339002722532190000001614070806267028354_">
						<use xlink:href="#XMLID_65_"  style="overflow:visible;"/>
					</clipPath>
					<path style="clip-path:url(#XMLID_00000058561339002722532190000001614070806267028354_);fill:#C69C6D;" d="M2990.76,1026
						c0,0,3.75,20.03,15.36,21.48s71.38-15.09,71.38-15.09l-0.87-17.41L2990.76,1026"/>
				</g>
				<path style="fill:#998675;" d="M2869.39,885.45c-163.6,2.79-163.58,246.15,0.01,248.92
					C3032.99,1131.57,3032.97,888.22,2869.39,885.45z M2874.1,1064.47c-71.73-1.23-71.72-107.92,0-109.13
					C2945.83,956.57,2945.82,1063.26,2874.1,1064.47z"/>
			</g>
			<path style="fill:#D1D3D4;" d="M3261.27,870.55l43.9,126.41c6.86,19.76,1.25,41.71-14.25,55.76h0
				c-11.56,10.47-27.19,15.22-42.62,12.95l-180.63-26.63l3.79-56.43l155.04,11.96C3226.5,994.57,3216.69,900.02,3261.27,870.55z"/>
			<g>
				<defs>
					<path id="XMLID_63_" d="M3071,989.46c0,0-40.98-21-51.17-19.05c-10.2,1.95,16.92,16.84,16.05,19.05
						c-0.87,2.21-54.01,2.86-55.97,7.85c-1.95,4.99,14.32,43.82,26.25,41.87c11.93-1.95,62.26-11.27,62.26-11.27L3071,989.46z"/>
				</defs>
				<use xlink:href="#XMLID_63_"  style="overflow:visible;fill:#FFB6A6;"/>
				<clipPath id="XMLID_00000085251973223875675300000001891719343441646474_">
					<use xlink:href="#XMLID_63_"  style="overflow:visible;"/>
				</clipPath>
				<path style="clip-path:url(#XMLID_00000085251973223875675300000001891719343441646474_);fill:#FF8370;" d="M3063.08,979.63
					c-2.83,36.86-1.35,41.98-35.32,61.81l52.98-11.35l2.52-41.63L3063.08,979.63z"/>
			</g>
		</g>
		<path style="fill:#38385D;" d="M3089.05,657.22c-4.22,28.05,23.15,46.09,46.65,53.33c-1.89-3.92-3.79-7.85-5.68-11.77
			c27.29,17.34,23.76,40.5,22.89,68.81c39.11-25.17,37.32-86.66,7.68-118.55c-12.75-13.54-31.88-22.24-50.59-20.96
			C3098.11,631.98,3090.95,645.46,3089.05,657.22z"/>
		<path style="fill:#38385D;" d="M3088.04,633.99c-20.68,13.7-21.78,43.43-15.67,65.47c3.93-20.96,13.67-39.35,23.62-58.21
			C3093.45,639.02,3090.58,636.22,3088.04,633.99z"/>
	</g>
	<g>
		<g>
			<g>
				<g>
					<g>
						<defs>
							<path id="XMLID_184_" d="M1981.25,610.62l64.61,13.99l106.81-56.94l55.89,113.65l-94.24,54.63
								c5,71.61-12.63,268.76-12.63,268.76c-114.84,58.17-244.46-61.95-244.46-61.95C1871.62,909.54,1865.82,650.29,1981.25,610.62"
								/>
						</defs>
						<use xlink:href="#XMLID_184_"  style="overflow:visible;fill:#F85C3D;"/>
						<clipPath id="XMLID_00000039122138523615279270000005896965949318234294_">
							<use xlink:href="#XMLID_184_"  style="overflow:visible;"/>
						</clipPath>
						<path style="clip-path:url(#XMLID_00000039122138523615279270000005896965949318234294_);fill:#D1D3D4;" d="M2043.16,616.38
							c0,0,66.89,86.79,72.97,140.97c6.08,54.18,0,0,0,0l104.48-70.21l-59.15-134.33L2043.16,616.38z"/>
					</g>
					<g>
						<g>
							<g>
								<g>
									<defs>
										<path id="XMLID_67_" d="M2046.02,654.14l4.8-39.65c18.82,1.32,41.66,2.17,41.18-22.94c0,0-9.58-92.93-9.58-92.93
											l-89.06-0.77l-12.12,112.76L2046.02,654.14z"/>
									</defs>
									<use xlink:href="#XMLID_67_"  style="overflow:visible;fill:#FFB6A6;"/>
									<clipPath id="XMLID_00000059290665564280238880000012680551895418796452_">
										<use xlink:href="#XMLID_67_"  style="overflow:visible;"/>
									</clipPath>
									<path style="clip-path:url(#XMLID_00000059290665564280238880000012680551895418796452_);fill:#FF8370;" d="
										M2050.83,614.49c0,0-19.08-3.78-26.36-24.28c0,0-1.73,37.05,27.98,44.58L2050.83,614.49"/>
									<path style="clip-path:url(#XMLID_00000059290665564280238880000012680551895418796452_);fill:#FFFFFF;" d="
										M2077.32,587.83c-0.8-0.02-22.42-2.15-28.8-17.05c0,0,0.99,26.32,15.69,27.15
										C2078.91,598.76,2077.32,587.83,2077.32,587.83z"/>
									<path style="clip-path:url(#XMLID_00000059290665564280238880000012680551895418796452_);fill:#FF8370;" d="
										M2089.76,537.88c0,0-18.85-6.11-26.25-12.59l9.75,14.13c0,0-28.31-2.89-43.82-22.96l-12.74,11.68l5.05-28.07l73.5,19.52
										L2089.76,537.88z"/>
								</g>
							</g>
						</g>
						<path style="fill:#38385D;" d="M2023.18,505.15c0,0,10.02,10.6,36.63,21.43l-11.42-14.21c0,0,24.28,16.78,46.49,16.1
							l-12.93-18.85c0,0,24.85,23.46,53.93-7.48c0,0-47.24-56.41-98.96-53.47c-51.72,2.94-79.4,38.04-72.51,59.98
							c3.38,10.75,20.52,68.79,20.52,68.79l28.65-40.69c0,0-9.78,4.98-13.88,0.92c-4.11-4.06-4.78-22.71-1.49-25.95
							c12.97-12.76,18.49,16.4,18.49,16.4L2023.18,505.15z"/>
					</g>
				</g>
			</g>
		</g>
		<path style="fill:#D1D3D4;" d="M2015.7,669.9l162.04,107.2l-75.2,115.69C1973.78,808.66,1934.78,833.61,2015.7,669.9z"/>
		<g>
			<g>
				<defs>
					<path id="XMLID_185_" d="M2162.02,586.68c14.01-6.92,40.6-15.6,50.88-27.79c0,0,119.89-134.45,119.89-134.45l29.95,31.89
						l-94.87,156.69c-11.74,22.88-46.45,39.13-67.05,52.54L2162.02,586.68z"/>
				</defs>
				<use xlink:href="#XMLID_185_"  style="overflow:visible;fill:#FFB6A6;"/>
				<clipPath id="XMLID_00000088093199750177580710000007190720358154387605_">
					<use xlink:href="#XMLID_185_"  style="overflow:visible;"/>
				</clipPath>
				<path style="clip-path:url(#XMLID_00000088093199750177580710000007190720358154387605_);fill:#FF8370;" d="M2169.06,576
					c0,0,31.42,54.46,72.39,73.54l-52.75,37.6l-44.89-101L2169.06,576z"/>
			</g>
			<g>
				<defs>
					<path id="XMLID_187_" d="M2684.36,335.66c-5.45,0-10.7,0.85-15.64,2.42v-61.15c0-17.92-14.53-32.44-32.44-32.44h-89.2
						c28.74-31.23,4.01-86.65-39.09-85.19c-43.09-1.46-67.84,53.97-39.09,85.19h-89.2c-17.92,0-32.44,14.52-32.44,32.44v61.15
						c-88.48-20.27-88.42,118.6,0,98.31v61.15c0,17.92,14.53,32.44,32.44,32.44h89.2c-28.74,31.23-4.01,86.65,39.09,85.19
						c43.09,1.46,67.84-53.97,39.09-85.19h89.2c17.92,0,32.44-14.52,32.44-32.44v-61.15
						C2744.45,457.16,2762.81,338.8,2684.36,335.66z"/>
				</defs>
				<use xlink:href="#XMLID_187_"  style="overflow:visible;fill:#D2B069;"/>
				<clipPath id="XMLID_00000124122319863835691280000002840664901063337620_">
					<use xlink:href="#XMLID_187_"  style="overflow:visible;"/>
				</clipPath>
				<path style="clip-path:url(#XMLID_00000124122319863835691280000002840664901063337620_);fill:#C69C6D;" d="M2375.26,230.07
					c-10.75,162.91,72.32,273.3,231.09,314.92l-67.79,91.75l-140.71-54.4l-14.38-42.11l-40.92-12.32l-62.51-90.64l-24.96-90.13
					L2375.26,230.07z"/>
			</g>
			<path style="fill:#FFB6A6;" d="M2323.32,438.14c0,0,40.78-18.34,44.04-15.63c3.25,2.71-2.19,14.18-4.62,15.63
				c-2.43,1.45-23.03,14.19-23.03,14.19L2323.32,438.14z"/>
			<path style="fill:#FF8370;" d="M2347.26,447.66c0,0-21.14,20.71,0,34.22V447.66z"/>
		</g>
		<g>
			<g>
				<defs>
					<path id="XMLID_186_" d="M2162.02,801.28c16.15,10.15,34.06,19.22,53.27,21.11c0,0,195.46,23.95,195.46,23.95l-4.32,39.11
						l-203.54,10.88c-28.34,3.23-60.95-14.53-86.17-25.36L2162.02,801.28z"/>
				</defs>
				<use xlink:href="#XMLID_186_"  style="overflow:visible;fill:#FFB6A6;"/>
				<clipPath id="XMLID_00000016764103539472938570000014054333114061990331_">
					<use xlink:href="#XMLID_186_"  style="overflow:visible;"/>
				</clipPath>
				<path style="clip-path:url(#XMLID_00000016764103539472938570000014054333114061990331_);fill:#FF8370;" d="M2113.59,886.68
					c-8.83-6.2-16.11-11.32-16.11-11.32l56.48-85.63l23.84,12.85c0,0-34.58,74.04-33.31,105.8
					C2144.49,908.39,2127.2,896.24,2113.59,886.68z"/>
			</g>
			<path style="fill:#FFB6A6;" d="M2406.36,845.8c0,0,51.17-21.23,53.65-16.89c2.48,4.34-19.53,15.5-18.29,18.29
				c1.24,2.79,51.45,11.47,51.76,15.19c0.31,3.72-28.21,31.92-30.38,32.23c-2.17,0.31-59.19-9.03-59.19-9.03L2406.36,845.8z"/>
		</g>
	</g>
	<path style="fill:#D2B069;" d="M3801.28,1834.34l-76.35-299.82c0,0-13.56-105.45-204.92-158.71c0,0,10.49,99.25,69.33,169.43
		c-50.92-26.44-123.15-49.49-209.91-37.37c0,0,29.62,134.18,156.2,190.96c-54.23-12.14-126.69-22.29-184.85-8.82
		c0,0,35.68,55.83,94.48,97.28c-55.72,21.73-106.06,45.09-106.06,45.09h316.63L3801.28,1834.34z"/>
	<path style="fill:#38385C;" d="M3846.53,1839.09c-4.78-4.74-2670.38,9.09-2669.35-4.74
		C1170.71,1829.55,3875.85,1816.67,3846.53,1839.09z"/>
	<g>
		<path style="fill:#D2B069;" d="M1977.85,334.72h-206.67c-15.18,0-27.49,12.31-27.49,27.49c2.36,24.23-11.56,77.62,27.49,78.23
			c0,0,146.57,0,146.57,0l28.5,26.73c4.35,4.08,11.46,0.99,11.46-4.96v-21.77c21.88,1.2,46.19,0.42,47.64-27.49
			C2003,388.75,2016.89,335.31,1977.85,334.72z"/>
		<g>
			<path style="fill:#FFFFFF;" d="M1803.05,388.29c0.15,10.16-15.81,10.16-15.66,0C1787.23,378.13,1803.2,378.12,1803.05,388.29z"/>
			<path style="fill:#FFFFFF;" d="M1859.29,388.29c0.15,10.16-15.81,10.16-15.66,0C1843.47,378.13,1859.43,378.13,1859.29,388.29z"
				/>
			<path style="fill:#FFFFFF;" d="M1910.47,388.29c0.15,10.16-15.81,10.16-15.66,0C1894.65,378.13,1910.62,378.13,1910.47,388.29z"
				/>
			<path style="fill:#FFFFFF;" d="M1961.65,388.29c0.15,10.16-15.81,10.16-15.66,0C1945.84,378.13,1961.8,378.13,1961.65,388.29z"/>
		</g>
	</g>
	<g>
		<path style="fill:#FFFFFF;" d="M1701.78,1244.57h-194.45c-10.66,0-19.31-8.64-19.31-19.31v-58.44c0-10.66,8.64-19.31,19.31-19.31
			h194.45c10.66,0,19.31,8.64,19.31,19.31v58.44C1721.08,1235.92,1712.44,1244.57,1701.78,1244.57z"/>
		<g>
			<rect x="1519.62" y="1165.47" style="fill:#CCCCCC;" width="169.85" height="13.8"/>
			<rect x="1519.62" y="1189.14" style="fill:#CCCCCC;" width="169.85" height="13.8"/>
			<rect x="1519.62" y="1212.81" style="fill:#CCCCCC;" width="80.84" height="13.8"/>
		</g>
	</g>
	<g>
		<path style="fill:#FFFFFF;" d="M3426.59,1383.79h-289.02c-15.85,0-28.7-12.85-28.7-28.7v-86.86c0-15.85,12.85-28.7,28.7-28.7
			h289.02c15.85,0,28.7,12.85,28.7,28.7v86.86C3455.29,1370.95,3442.44,1383.79,3426.59,1383.79z"/>
		<g>
			<rect x="3155.86" y="1266.22" style="fill:#CCCCCC;" width="252.46" height="20.52"/>
			<rect x="3155.86" y="1301.41" style="fill:#CCCCCC;" width="252.46" height="20.52"/>
			<rect x="3155.86" y="1336.59" style="fill:#CCCCCC;" width="120.15" height="20.52"/>
		</g>
	</g>
	<g style="opacity:0.43;">
		<path style="fill:#D2B069;" d="M2923.08,1604.6h28.8v-51.86h-31.43c-3.69-13.79-9.9-27.1-18.09-38.76l23.66-23.66l-36.67-36.67
			l-24.97,24.97c-11.51-6.89-24.35-11.95-37.45-14.74v-36.09h-51.86v36.09c-13.1,2.79-25.94,7.85-37.45,14.74l-24.97-24.97
			l-36.67,36.67l23.66,23.66c-8.18,11.66-14.4,24.97-18.09,38.76h-31.43v51.86h28.8c2.44,15.29,7.92,30.28,15.88,43.59l-18.83,18.83
			l36.67,36.67l17.51-17.51c13.38,9.39,28.91,16.17,44.91,19.57v23.8h51.86v-23.8c16-3.4,31.53-10.17,44.91-19.57l17.51,17.51
			l36.67-36.67l-18.83-18.83C2915.16,1634.88,2920.64,1619.89,2923.08,1604.6z M2801.01,1672.7c-116.16-3.5-116.13-172.28,0-175.76
			C2917.17,1500.44,2917.14,1669.22,2801.01,1672.7z"/>
		<path style="fill:#D2B069;" d="M2645.62,1506.14h10.21v-18.39h-11.15c-1.31-4.89-3.51-9.61-6.42-13.75l8.39-8.39l-13.01-13.01
			l-8.86,8.86c-4.08-2.44-8.64-4.24-13.28-5.23v-12.8h-18.39v12.8c-4.65,0.99-9.2,2.78-13.28,5.23l-8.86-8.86l-13.01,13.01
			l8.39,8.39c-2.9,4.14-5.11,8.86-6.42,13.75h-11.15v18.39h10.21c0.86,5.42,2.81,10.74,5.63,15.46l-6.68,6.68l13.01,13.01l6.21-6.21
			c4.75,3.33,10.25,5.73,15.93,6.94v8.44h18.39v-8.44c5.67-1.21,11.18-3.61,15.93-6.94l6.21,6.21l13.01-13.01l-6.68-6.68
			C2642.81,1516.88,2644.75,1511.56,2645.62,1506.14z M2602.32,1530.29c-41.11-1.01-41.1-61.34,0-62.34
			C2643.43,1468.96,2643.42,1529.29,2602.32,1530.29z"/>
	</g>
</g>
</svg>
