<?xml version="1.0" encoding="utf-8"?>
<!-- Generator: Adobe Illustrator 21.0.0, SVG Export Plug-In . SVG Version: 6.00 Build 0)  -->
<svg version="1.1" id="Capa_1" xmlns="http://www.w3.org/2000/svg" xmlns:xlink="http://www.w3.org/1999/xlink" x="0px" y="0px"
	 viewBox="0 0 31.7 31.7" style="enable-background:new 0 0 31.7 31.7;" xml:space="preserve">
<style type="text/css">
	.st0{fill:#D2AC67;}
</style>
<g>
	<g>
		<polygon class="st0" points="4.8,21.1 3.6,18.5 3.6,30.2 16.1,30.2 16.1,29 4.8,29 		"/>
		<path class="st0" d="M21.6,8.2v0.6h1.2V6.4l-5-5H3.6v3.4h1.2V2.7h11.7v5.5L21.6,8.2L21.6,8.2z M17.8,3.1l3.8,3.8V7h-3.8V3.1z"/>
		<path class="st0" d="M29.9,9.9l-10.7,0c0,0-0.1,0-0.2,0c-0.9,0-1.9,0.5-1.9,2.1v18.3h14.7V11.9C31.7,10.5,30.5,10,29.9,9.9z
			 M30.7,29.2H18V11.9c0-0.3,0-1,1-1c0,0,0.1,0,0.1,0l10.7,0c0.2,0,1,0.3,1,1L30.7,29.2L30.7,29.2z"/>
		<rect x="19.1" y="17.8" class="st0" width="4.6" height="1.3"/>
		<rect x="24.9" y="17.8" class="st0" width="4.6" height="1.3"/>
		<rect x="19.2" y="20.2" class="st0" width="1.9" height="2"/>
		<rect x="21.9" y="20.2" class="st0" width="1.9" height="2"/>
		<rect x="24.8" y="20.2" class="st0" width="1.9" height="2"/>
		<rect x="27.7" y="20.2" class="st0" width="1.9" height="2"/>
		<rect x="19.2" y="23" class="st0" width="1.9" height="2"/>
		<rect x="21.9" y="23" class="st0" width="1.9" height="2"/>
		<rect x="24.7" y="23" class="st0" width="1.9" height="2"/>
		<rect x="27.6" y="23" class="st0" width="1.9" height="2"/>
		<rect x="19.1" y="25.7" class="st0" width="1.9" height="2"/>
		<rect x="21.9" y="25.7" class="st0" width="1.9" height="2"/>
		<rect x="24.8" y="25.7" class="st0" width="1.9" height="2"/>
		<rect x="27.6" y="25.7" class="st0" width="1.9" height="2"/>
		<path class="st0" d="M29.5,12.6H19.1v3.8h10.4C29.5,16.4,29.5,12.6,29.5,12.6z M24.8,15.5h-0.5v-1.1h-0.4V14c0.1,0,0.1,0,0.2,0
			c0.1,0,0.1,0,0.2-0.1c0,0,0.1-0.1,0.1-0.1c0-0.1,0-0.1,0.1-0.2h0.4V15.5z M26.9,15.5h-1.5c0-0.1,0-0.2,0-0.3
			c0-0.1,0.1-0.1,0.1-0.2c0-0.1,0.1-0.1,0.1-0.1c0,0,0.1-0.1,0.2-0.1c0.1,0,0.1-0.1,0.2-0.1c0.1,0,0.1-0.1,0.2-0.1c0,0,0,0,0.1,0
			c0,0,0.1,0,0.1-0.1c0,0,0,0,0.1-0.1c0,0,0-0.1,0-0.1c0-0.1,0-0.1-0.1-0.2s-0.1,0-0.2,0c-0.1,0-0.2,0-0.2,0.1
			c0,0.1-0.1,0.2-0.1,0.3h-0.5c0-0.1,0-0.2,0-0.3c0-0.1,0.1-0.2,0.1-0.3c0.1-0.1,0.1-0.1,0.2-0.2s0.2-0.1,0.3-0.1c0.1,0,0.2,0,0.3,0
			c0.1,0,0.2,0.1,0.2,0.1c0.1,0,0.1,0.1,0.1,0.2c0,0.1,0.1,0.2,0.1,0.3c0,0.1,0,0.2-0.1,0.3c0,0.1-0.1,0.2-0.2,0.2
			c-0.1,0.1-0.2,0.1-0.3,0.2c-0.1,0.1-0.2,0.1-0.3,0.2v0h0.8L26.9,15.5L26.9,15.5z M28.5,15.1c0,0.1-0.1,0.1-0.1,0.2
			c-0.1,0.1-0.1,0.1-0.2,0.1c-0.1,0-0.2,0.1-0.4,0.1c-0.1,0-0.2,0-0.3,0c-0.1,0-0.2-0.1-0.2-0.1c-0.1,0-0.1-0.1-0.1-0.2
			c0-0.1-0.1-0.1-0.1-0.2c0-0.1,0-0.1,0-0.1c0,0,0-0.1,0-0.1h0.5c0,0.1,0,0.2,0.1,0.2c0,0,0.1,0.1,0.1,0.1c0,0,0.1,0,0.1,0
			c0.1,0,0.1,0,0.2,0c0,0,0.1-0.1,0.1-0.2c0,0,0-0.1,0-0.1s0,0-0.1-0.1c0,0,0,0-0.1,0c0,0-0.1,0-0.1,0c0,0-0.1,0-0.1,0
			c0,0,0,0-0.1,0v-0.4c0,0,0,0,0.1,0c0,0,0.1,0,0.1,0c0,0,0.1,0,0.1,0c0,0,0.1,0,0.1,0c0,0,0,0,0.1-0.1c0,0,0-0.1,0-0.1
			c0,0,0-0.1,0-0.1s0,0-0.1-0.1c0,0,0,0-0.1,0c0,0-0.1,0-0.1,0c0,0-0.1,0-0.1,0s-0.1,0-0.1,0c0,0,0,0-0.1,0.1c0,0,0,0.1,0,0.1h-0.5
			c0-0.1,0-0.2,0.1-0.3c0-0.1,0.1-0.1,0.2-0.2c0.1-0.1,0.1-0.1,0.2-0.1c0.1,0,0.2,0,0.3,0c0.1,0,0.2,0,0.3,0.1
			c0.1,0,0.2,0.1,0.2,0.1c0.1,0.1,0.1,0.1,0.1,0.2c0,0.1,0,0.1,0,0.1c0,0.1,0,0.2,0,0.2c0,0.1-0.1,0.1-0.1,0.1s-0.1,0-0.1,0
			c0,0,0,0,0,0v0c0,0,0,0,0,0s0,0,0.1,0s0,0,0.1,0c0,0,0,0,0.1,0.1c0,0,0,0.1,0.1,0.1c0,0,0,0.1,0,0.2C28.6,14.9,28.6,15,28.5,15.1z
			"/>
		<path class="st0" d="M11.4,26.7l-0.1-5.9L5.9,9.6l0,0L4.2,6L0,8l1.7,3.6l0,0l5.4,11.1L11.4,26.7z M8.9,22.7L9,21.4l1.2,0.6
			l0.6-1.6l0.2,0.4l0,3.4l-1,0.5l-2.4-2.2L7.2,22L8.9,22.7z M1.8,9.8L1.2,8.4l2.7-1.3l0.6,1.3L1.8,9.8z"/>
	</g>
</g>
</svg>
