<?xml version="1.0" encoding="utf-8"?>
<!-- Generator: Adobe Illustrator 21.0.0, SVG Export Plug-In . SVG Version: 6.00 Build 0)  -->
<svg version="1.1" id="Layer_1" xmlns="http://www.w3.org/2000/svg" xmlns:xlink="http://www.w3.org/1999/xlink" x="0px" y="0px"
	 viewBox="0 0 953.4 301" style="enable-background:new 0 0 953.4 301;" xml:space="preserve">
<style type="text/css">
	.st0{fill-rule:evenodd;clip-rule:evenodd;fill:#B1B2B3;}
	.st1{fill-rule:evenodd;clip-rule:evenodd;fill:#D7B46A;}
	.st2{fill-rule:evenodd;clip-rule:evenodd;fill:#D2AD68;}
	.st3{fill-rule:evenodd;clip-rule:evenodd;fill:#A9ABAF;}
</style>
<g>
	<g>
		<g>
			<path class="st0" d="M243.7,199.2c-18.7,46.6-64.1,79.3-117.1,79.3C56.5,278.5,0,221.5,0,151.4c0-18,3.7-35,10.1-50.5l115.3-1.8
				l-9.7,12.9l-14.5,34.6c20.1,17.5,34.8,8.5,45.4-20.7l18.4-1.4l47.9,46.1l0,0c12,10.4-3,23.1-11.1,14.5l-29-28.8
				c-2.1-0.5-3.5,0.5-4.1,2.3l28.8,28.6c3.7,3.5,3.7,9.2,0.2,12.7l0,0c-3.5,3.5-9.2,3.7-12.9,0l-28.8-28.6c-0.2-0.2-0.7-0.7-0.9-0.9
				l0,0c-2.3-1.2-4.1,0.9-3.2,3l24.4,24.2c3.5,3.5,3.7,9.2,0,12.9l0,0c-3.5,3.5-9.2,3.5-12.7,0l-15.4-15.2c0,0-2.5-2.5-3.2-3.2
				c0-0.5,0-0.9,0-1.2c0.2-3.2-0.7-6.5-2.8-8.8c0-0.2,0-0.2-0.2-0.5c-0.2-0.5-0.7-0.7-1.2-1.2c0,0-0.2,0-0.2-0.2
				c-1.4-1.2-3-2.1-5.1-2.5l0,0c-3-0.7-5.8-0.5-8.5,0.7v0.2l0,0l0,0h-0.2l0,0l0,0h-0.2v0.2h-0.2l0,0h-0.2v0.2h-0.2l0,0l0,0h-0.2v0.2
				h-0.2l0,0v0.2h-0.2l0,0l0,0h-0.2v0.2l0,0c0,0,0,0-0.2,0l0,0l0,0v0.2h-0.2l0,0l0,0l0,0l0,0c-0.2,0.2-0.2,0.2-0.2,0.2l0,0H124v0.2
				l0,0c0,0,0,0-0.2,0l0,0l0,0v0.2l0,0h-0.2l0,0l0,0c0,0.2-0.2,0.2-0.2,0.2l0,0c0,0.2-0.2,0.2-0.2,0.5l0,0l0,0h-0.2l0,0
				c0,0,0,0.2-0.2,0.2l0,0l0,0c0,0,0,0,0,0.2l0,0l0,0h-0.2l0,0c0,0.2,0,0.2-0.2,0.2l0.5-0.9c0-0.2,0-0.2,0-0.2v-0.2v-0.2l0,0
				c0-0.2,0-0.2,0.2-0.2V180l0,0v-0.2v-0.2l0,0v-0.2v-0.2v-0.2l0,0v-0.2l0,0v-0.2v-0.2V178l0,0v-0.2l0,0c0-0.2,0-0.2,0-0.2v-0.2V177
				l0,0c0-0.2,0-0.2,0-0.2v-0.2c0,0,0,0,0-0.2l0,0v-0.2v-0.2l0,0v-0.2l0,0l-0.2-0.2v-0.2l0,0V175v-0.2l0,0l-0.2-0.2l0,0v-0.2V174
				l0,0v-0.2c-0.2,0-0.2,0-0.2-0.2l0,0c0-0.2-0.2-0.5-0.2-0.7l0,0v-0.2h-0.2c0-0.2,0-0.2,0-0.2l0,0v-0.2l-0.2-0.2l0,0v-0.2h-0.2
				v-0.2l0,0l-0.2-0.2c0,0,0,0,0-0.2l0,0c0,0-0.2,0-0.2-0.2l0,0c-0.2-0.5-0.7-0.9-1.2-1.4l0,0c0-0.2-0.2-0.2-0.2-0.2l0,0
				c0-0.2,0-0.2-0.2-0.2l0,0c0-0.2,0-0.2-0.2-0.2l0,0v-0.2h-0.2c0,0,0,0,0-0.2h-0.2c0,0,0,0,0-0.2h-0.2c-0.5-0.2-0.9-0.7-1.6-1.2
				l0,0c0,0,0,0-0.2,0l0,0c0,0,0-0.2-0.2-0.2l0,0h-0.2l0,0c0-0.2-0.2-0.2-0.2-0.2l0,0c-0.2,0-0.2,0-0.2,0l0,0
				c-0.2-0.2-0.2-0.2-0.2-0.2H115c0,0,0,0-0.2,0l0,0l0,0c-0.5-0.2-0.9-0.5-1.4-0.5l0,0c-1.6-0.5-3-0.5-4.4-0.5l0,0h-0.2l0,0
				c-0.5,0-0.7,0.2-1.2,0.2l0,0c-0.2,0-0.7,0.2-1.2,0.2l0,0c-0.2,0.2-0.5,0.2-0.7,0.2v0.2h-0.2l0,0h-0.2l0,0
				c-0.2,0.2-0.5,0.2-0.5,0.2l0,0l-0.2,0.2l0,0h-0.2l0,0h-0.2v0.2H104h-0.2v0.2l0,0h-0.2l0,0l-0.2,0.2l0,0H103v0.2h-0.2l0,0
				l-0.2,0.2l0,0l0,0h-0.2v0.2h-0.2l0,0l0,0l0,0c0,0.2-0.2,0.2-0.2,0.2l0,0l-0.2,0.2l0,0l0,0l-0.2,0.2l0,0l0,0h-0.2v0.2l0,0l0,0
				l-0.2,0.2l0,0h-0.2v0.2l0,0h-0.2v0.2l0,0l0,0l0,0c-0.2,0.2-0.2,0.2-0.2,0.2l0,0l-0.2,0.2l0,0v0.2h-0.2c0,0,0,0,0,0.2l0,0
				c0,0-0.2,0-0.2,0.2l0,0l0,0l-0.2,0.2l0,0v0.2h-0.2l0,0c0,0.2,0,0.2,0,0.2c0-5.5-3.9-10.6-9.7-12.2c-5.3-1.2-10.6,0.9-13.6,5.1
				c0,0,0-0.2-0.2-0.2l0,0l0,0l0,0v-0.2l0,0l0,0l0,0l0,0v-0.2l0,0v-0.2l0,0l0,0l0,0l0,0h-0.2v-0.2l0,0l0,0l0,0l0,0l0,0l0,0l0,0V163
				l0,0l0,0l0,0l0,0l0,0l0,0v-0.2h-0.2l0,0l0,0l0,0l0,0v-0.2l0,0l0,0l0,0l0,0l0,0v-0.2l0,0l-0.2-0.2l0,0l0,0v-0.2l0,0l-0.2-0.2l0,0
				l0,0v-0.2h-0.2l0,0v-0.2l0,0v-0.2h-0.2l0,0v-0.2l0,0v-0.2H74l0,0v-0.2c0,0,0,0-0.2,0l0,0V160l0,0v-0.2h-0.2l0,0v-0.2l0,0h-0.2
				v-0.2l0,0h-0.2c0-0.2,0-0.2,0-0.2l0,0l-0.2-0.2l0,0l0,0l0,0l-0.2-0.2l0,0l0,0l-0.2-0.2l0,0l0,0v-0.2h-0.2v-0.2h-0.2l0,0v-0.2
				h-0.2l0,0l0,0l-0.2-0.2l0,0l0,0l-0.2-0.2l0,0l0,0l0,0L71,157l0,0l0,0h-0.2v-0.2h-0.2l0,0l0,0l-0.2-0.2l0,0h-0.2l0,0v-0.2l0,0
				h-0.2l0,0l0,0l-0.2-0.2l0,0h-0.2l0,0l0,0l-0.2-0.2l0,0h-0.2l0,0v-0.2l0,0c-0.2,0-0.2,0-0.5,0l0,0l-0.2-0.2l0,0H68l0,0h-0.2v-0.2
				h-0.2l0,0c0,0,0,0-0.2,0l0,0l0,0l-0.2-0.2l0,0h-0.2l0,0l0,0h-0.2l0,0l-0.2-0.2l0,0h-0.2c0,0,0,0-0.2,0l0,0
				c-6.9-1.8-14.3,2.8-15.9,9.7l-2.5,11.3H29.7c11.1,44,56.2,77.2,110.4,77.2c37.8,0,69.8-12.2,90.1-37.1
				C233.7,211.4,238.8,205.6,243.7,199.2L243.7,199.2z M89.4,159.3L89.4,159.3L89.4,159.3z M144.1,195.9c-0.9,6.9-2.8,13.4-6.2,18.7
				l4.8,5.5l3.2,3c3.5,3.7,9.2,3.7,12.7,0l0,0c3.7-3.5,3.5-9.2,0-12.7l-10.4-10.4L144.1,195.9z"/>
			<path class="st1" d="M127.5,22.6c33.9-1.4,64.8,13.1,87.6,36.2c14.8,14.8,26.3,33.4,32.7,53.5c9.5,28.4,7.6,55.3-2.3,83.4
				c-11.3-11.8-22.8-22.8-34.6-34.1l-43.8-42.4l-22.6,1.8c-4.4,8.1-11.1,24.4-20.1,27.7c-5.3,2.1-14.1,0.5-18.2-3.9l12-28.4
				c1.4-2.8,7.1-11.1,9.7-13.1c3-2.5,7.1-3.9,13.1-4.1c4.1-0.2,8.8,0,13.1,0h56.7C187.9,68,148.2,47.7,109,47.7
				c-39,0-72.8,21.7-95.9,46.1C34.8,55.1,66.6,25.1,127.5,22.6z"/>
		</g>
		<path class="st1" d="M112,171L112,171c5.3,1.2,8.3,6.7,6.9,12l-4.4,16.4c-1.4,5.3-6.9,8.5-12.2,7.1l0,0c-5.3-1.2-8.3-6.7-6.9-11.8
			l4.4-16.6C101.2,172.9,106.7,169.7,112,171z"/>
		<path class="st1" d="M88.1,164.6L88.1,164.6c5.3,1.2,8.5,6.7,7.1,12l-4.4,16.6c-1.4,5.5-7.1,8.8-12.4,7.4l0,0
			c-5.3-1.4-8.5-6.7-7.1-12l4.6-16.8C77.2,166.4,82.8,163.2,88.1,164.6z"/>
		<path class="st1" d="M65,159.3L65,159.3c5.1,1.2,8.3,6.5,7.1,11.5l-2.8,12.4c-1.4,5.3-6.5,8.3-11.5,7.1l0,0
			c-5.1-1.4-8.3-6.7-7.1-11.8l3-12.4C54.9,161.1,59.9,157.9,65,159.3z"/>
		<path class="st1" d="M133.9,182.3L133.9,182.3c5.1,1.2,8.1,6.2,6.7,11.3l-2.1,8.1l-0.9,3.7c-3.2,12.2-21.7,7.6-18.4-4.4l0.7-3
			l2.3-8.8C123.6,184.2,128.9,181,133.9,182.3z"/>
	</g>
	<path class="st2" d="M394.7,171.1h-44.3l-6.4,21.4h-40l47.7-129.9h42.8L442,192.5h-41L394.7,171.1L394.7,171.1z M386.4,143
		l-13.8-46.7L358.7,143H386.4L386.4,143z M459.9,62.6h51.6l19.7,79.1l19.7-79.1h51.4v129.9h-32V93.5l-24.7,99.1h-29l-24.6-99.1v99.1
		h-32V62.6L459.9,62.6z M717.5,139.3l34.3,10.6c-2.3,9.9-5.9,18.1-10.9,24.7c-5,6.6-11.1,11.6-18.5,15c-7.3,3.4-16.7,5.1-28,5.1
		c-13.8,0-25-2.1-33.8-6.1c-8.7-4.1-16.2-11.3-22.6-21.7c-6.3-10.3-9.5-23.6-9.5-39.7c0-21.5,5.6-38,16.7-49.5
		c11.2-11.5,26.9-17.3,47.4-17.3c16,0,28.5,3.3,37.7,9.9c9.1,6.6,15.9,16.8,20.3,30.5l-34.5,7.8c-1.2-3.9-2.5-6.8-3.8-8.6
		c-2.2-3.1-4.9-5.4-8-7c-3.2-1.7-6.7-2.5-10.6-2.5c-8.9,0-15.7,3.7-20.4,10.9c-3.6,5.4-5.4,13.9-5.4,25.5c0,14.4,2.1,24.2,6.4,29.6
		c4.3,5.3,10.3,8,18,8c7.5,0,13.2-2.1,17-6.5C713,153.8,715.8,147.5,717.5,139.3L717.5,139.3z M854.5,171.1h-44.3l-6.4,21.4h-39.9
		l47.7-129.9h42.8l47.5,129.9h-41L854.5,171.1L854.5,171.1z M846.3,143l-13.8-46.7L818.5,143H846.3z"/>
	<g>
		<path class="st3" d="M272.3,232.9c0,0.1,0,0.2-0.1,0.3c-0.1,0.1-0.2,0.2-0.4,0.3c-0.2,0.1-0.5,0.1-0.8,0.2c-0.3,0-0.7,0.1-1.2,0.1
			c-0.5,0-0.9,0-1.2-0.1c-0.3,0-0.6-0.1-0.8-0.2c-0.2-0.1-0.3-0.2-0.4-0.3c-0.1-0.1-0.1-0.2-0.1-0.3v-23.6c0-0.1,0-0.2,0.1-0.3
			c0.1-0.1,0.2-0.2,0.4-0.3c0.2-0.1,0.5-0.1,0.8-0.2c0.3,0,0.7-0.1,1.2-0.1c0.5,0,0.9,0,1.2,0.1c0.3,0,0.6,0.1,0.8,0.2
			c0.2,0.1,0.3,0.2,0.4,0.3c0.1,0.1,0.1,0.2,0.1,0.3V232.9L272.3,232.9z M298.3,231.8c0,0.3-0.1,0.6-0.2,0.8
			c-0.1,0.2-0.2,0.4-0.4,0.6c-0.2,0.2-0.4,0.3-0.6,0.3c-0.2,0.1-0.5,0.1-0.7,0.1h-2.2c-0.5,0-0.8,0-1.2-0.1
			c-0.3-0.1-0.6-0.3-0.9-0.5c-0.3-0.2-0.5-0.6-0.8-1c-0.3-0.4-0.5-0.9-0.9-1.6l-6.2-11.7c-0.4-0.7-0.7-1.4-1.1-2.3
			c-0.4-0.8-0.7-1.6-1-2.3h0c0.1,0.9,0.1,1.8,0.1,2.8c0,0.9,0,1.9,0,2.8v13.1c0,0.1,0,0.2-0.1,0.3c-0.1,0.1-0.2,0.2-0.4,0.3
			c-0.2,0.1-0.4,0.1-0.7,0.2c-0.3,0-0.7,0.1-1.1,0.1c-0.5,0-0.8,0-1.1-0.1c-0.3,0-0.5-0.1-0.7-0.2c-0.2-0.1-0.3-0.2-0.3-0.3
			c-0.1-0.1-0.1-0.2-0.1-0.3v-22.4c0-0.6,0.2-1.1,0.5-1.4c0.3-0.3,0.8-0.5,1.3-0.5h2.7c0.5,0,0.9,0,1.2,0.1c0.3,0.1,0.6,0.2,0.9,0.4
			c0.3,0.2,0.5,0.5,0.7,0.8c0.2,0.3,0.5,0.8,0.7,1.3l4.8,9.1c0.3,0.6,0.6,1.1,0.8,1.6c0.3,0.5,0.5,1.1,0.8,1.6
			c0.3,0.5,0.5,1.1,0.8,1.6c0.2,0.5,0.5,1,0.7,1.5h0c0-0.9-0.1-1.8-0.1-2.8c0-1,0-1.9,0-2.8v-11.7c0-0.1,0-0.2,0.1-0.3
			c0.1-0.1,0.2-0.2,0.4-0.3c0.2-0.1,0.4-0.1,0.7-0.2c0.3,0,0.7,0,1.1,0c0.4,0,0.8,0,1.1,0c0.3,0,0.5,0.1,0.7,0.2
			c0.2,0.1,0.3,0.2,0.3,0.3c0.1,0.1,0.1,0.2,0.1,0.3V231.8L298.3,231.8z M320.3,210.7c0,0.4,0,0.7,0,1c0,0.3-0.1,0.5-0.1,0.6
			c-0.1,0.2-0.1,0.3-0.2,0.4c-0.1,0.1-0.2,0.1-0.3,0.1h-6.2v20.1c0,0.1,0,0.2-0.1,0.3c-0.1,0.1-0.2,0.2-0.4,0.3
			c-0.2,0.1-0.5,0.1-0.8,0.2c-0.3,0-0.7,0.1-1.2,0.1c-0.5,0-0.9,0-1.2-0.1c-0.3,0-0.6-0.1-0.8-0.2c-0.2-0.1-0.3-0.2-0.4-0.3
			c-0.1-0.1-0.1-0.2-0.1-0.3v-20.1H302c-0.1,0-0.2,0-0.3-0.1c-0.1-0.1-0.2-0.2-0.2-0.4c-0.1-0.2-0.1-0.4-0.1-0.6c0-0.3,0-0.6,0-1
			c0-0.4,0-0.7,0-1c0-0.3,0.1-0.5,0.1-0.6c0.1-0.2,0.1-0.3,0.2-0.3c0.1-0.1,0.2-0.1,0.3-0.1h17.6c0.1,0,0.2,0,0.3,0.1
			c0.1,0.1,0.2,0.2,0.2,0.3c0.1,0.2,0.1,0.4,0.1,0.6C320.3,210,320.3,210.3,320.3,210.7L320.3,210.7z M338,231.5c0,0.4,0,0.7,0,0.9
			c0,0.3-0.1,0.5-0.1,0.6c-0.1,0.2-0.1,0.3-0.2,0.3c-0.1,0.1-0.2,0.1-0.3,0.1h-12.5c-0.4,0-0.8-0.1-1.1-0.4
			c-0.3-0.3-0.4-0.7-0.4-1.2v-21.8c0-0.6,0.1-1,0.4-1.2c0.3-0.2,0.6-0.4,1.1-0.4h12.5c0.1,0,0.2,0,0.3,0.1c0.1,0.1,0.2,0.2,0.2,0.3
			c0.1,0.2,0.1,0.4,0.1,0.6c0,0.3,0,0.6,0,1c0,0.4,0,0.7,0,0.9c0,0.3-0.1,0.5-0.1,0.6c-0.1,0.2-0.1,0.3-0.2,0.3
			c-0.1,0.1-0.2,0.1-0.3,0.1h-8.9v6.1h7.5c0.1,0,0.2,0,0.3,0.1c0.1,0.1,0.2,0.2,0.2,0.3c0.1,0.1,0.1,0.3,0.1,0.6c0,0.3,0,0.6,0,0.9
			c0,0.4,0,0.7,0,0.9c0,0.2-0.1,0.4-0.1,0.6c-0.1,0.2-0.1,0.3-0.2,0.3c-0.1,0.1-0.2,0.1-0.3,0.1h-7.5v7h9c0.1,0,0.2,0,0.3,0.1
			c0.1,0.1,0.2,0.2,0.2,0.3c0.1,0.2,0.1,0.4,0.1,0.6C338,230.9,338,231.2,338,231.5L338,231.5z M361.9,212.5c0,0.4,0,0.7,0,1
			c0,0.3-0.1,0.5-0.1,0.6c-0.1,0.2-0.1,0.3-0.2,0.3c-0.1,0.1-0.2,0.1-0.3,0.1c-0.2,0-0.4-0.1-0.8-0.3c-0.4-0.2-0.9-0.5-1.5-0.8
			c-0.6-0.3-1.3-0.5-2.2-0.8c-0.9-0.2-1.8-0.3-3-0.3c-1.2,0-2.3,0.2-3.3,0.6c-1,0.4-1.8,1-2.5,1.8c-0.7,0.8-1.2,1.7-1.6,2.8
			c-0.4,1.1-0.6,2.3-0.6,3.6c0,1.4,0.2,2.7,0.6,3.8c0.4,1.1,0.9,2,1.6,2.7c0.7,0.7,1.5,1.3,2.5,1.7c1,0.4,2,0.6,3.2,0.6
			c0.6,0,1.1-0.1,1.7-0.2c0.6-0.1,1.1-0.3,1.5-0.6v-5.8h-4.7c-0.2,0-0.4-0.1-0.5-0.4c-0.1-0.3-0.2-0.8-0.2-1.5c0-0.4,0-0.7,0-0.9
			c0-0.2,0.1-0.4,0.1-0.6c0.1-0.2,0.1-0.3,0.2-0.3c0.1-0.1,0.2-0.1,0.3-0.1h8.4c0.2,0,0.4,0,0.5,0.1c0.2,0.1,0.3,0.2,0.4,0.3
			c0.1,0.1,0.2,0.3,0.3,0.5c0.1,0.2,0.1,0.4,0.1,0.7v9.9c0,0.4-0.1,0.7-0.2,1c-0.1,0.3-0.4,0.5-0.8,0.7c-0.4,0.2-0.9,0.3-1.6,0.5
			c-0.6,0.2-1.3,0.3-1.9,0.5c-0.7,0.1-1.3,0.2-2,0.3c-0.7,0.1-1.3,0.1-2,0.1c-2,0-3.8-0.3-5.4-0.9c-1.6-0.6-2.9-1.4-4-2.5
			c-1.1-1.1-1.9-2.4-2.5-4c-0.6-1.6-0.9-3.3-0.9-5.3c0-2,0.3-3.9,0.9-5.5c0.6-1.6,1.5-3,2.6-4.2c1.1-1.1,2.5-2,4.1-2.6
			c1.6-0.6,3.4-0.9,5.3-0.9c1.1,0,2.1,0.1,3,0.2c0.9,0.2,1.7,0.3,2.3,0.5c0.7,0.2,1.2,0.4,1.6,0.7c0.4,0.3,0.7,0.5,0.9,0.6
			c0.2,0.2,0.3,0.4,0.4,0.8C361.9,211.3,361.9,211.8,361.9,212.5L361.9,212.5z M385.6,232.9c0,0.1,0,0.3-0.1,0.4
			c-0.1,0.1-0.2,0.2-0.4,0.2c-0.2,0.1-0.5,0.1-0.8,0.1c-0.4,0-0.9,0-1.5,0c-0.5,0-1,0-1.3,0c-0.3,0-0.6-0.1-0.8-0.1
			c-0.2-0.1-0.3-0.2-0.4-0.3c-0.1-0.1-0.1-0.2-0.2-0.4l-2.3-5.6c-0.3-0.6-0.5-1.2-0.8-1.7c-0.3-0.5-0.5-0.9-0.9-1.2
			c-0.3-0.3-0.7-0.6-1.1-0.7c-0.4-0.2-0.9-0.3-1.4-0.3h-1.6v9.5c0,0.1,0,0.2-0.1,0.3c-0.1,0.1-0.2,0.2-0.4,0.3
			c-0.2,0.1-0.4,0.1-0.8,0.2c-0.3,0-0.7,0.1-1.2,0.1c-0.5,0-0.9,0-1.2-0.1c-0.3,0-0.6-0.1-0.8-0.2c-0.2-0.1-0.3-0.2-0.4-0.3
			c-0.1-0.1-0.1-0.2-0.1-0.3v-22.7c0-0.6,0.1-1,0.4-1.2c0.3-0.2,0.6-0.4,1.1-0.4h6.5c0.7,0,1.2,0,1.6,0c0.4,0,0.8,0.1,1.2,0.1
			c1,0.1,1.9,0.4,2.7,0.7c0.8,0.3,1.5,0.8,2,1.4c0.6,0.6,1,1.2,1.3,2c0.3,0.8,0.4,1.6,0.4,2.6c0,0.8-0.1,1.6-0.3,2.3
			c-0.2,0.7-0.5,1.3-0.9,1.8c-0.4,0.5-0.9,1-1.5,1.4c-0.6,0.4-1.3,0.7-2.1,1c0.4,0.2,0.7,0.4,1.1,0.7c0.3,0.3,0.6,0.6,0.9,0.9
			c0.3,0.4,0.6,0.8,0.8,1.3c0.3,0.5,0.5,1,0.7,1.6l2.1,4.9c0.2,0.5,0.3,0.8,0.4,1.1C385.5,232.6,385.6,232.8,385.6,232.9
			L385.6,232.9z M379,216c0-0.8-0.2-1.5-0.6-2.1c-0.4-0.6-1-1-1.8-1.2c-0.3-0.1-0.5-0.1-0.9-0.2c-0.3,0-0.8-0.1-1.4-0.1h-2.3v7.1
			h2.6c0.7,0,1.3-0.1,1.9-0.3c0.5-0.2,1-0.4,1.4-0.7c0.4-0.3,0.6-0.7,0.8-1.1C378.9,217,379,216.5,379,216L379,216z M394.4,232.9
			c0,0.1,0,0.2-0.1,0.3c-0.1,0.1-0.2,0.2-0.4,0.3c-0.2,0.1-0.5,0.1-0.8,0.2c-0.3,0-0.7,0.1-1.2,0.1c-0.5,0-0.9,0-1.2-0.1
			c-0.3,0-0.6-0.1-0.8-0.2c-0.2-0.1-0.3-0.2-0.4-0.3c-0.1-0.1-0.1-0.2-0.1-0.3v-23.6c0-0.1,0-0.2,0.1-0.3c0.1-0.1,0.2-0.2,0.4-0.3
			c0.2-0.1,0.5-0.1,0.8-0.2c0.3,0,0.7-0.1,1.2-0.1c0.5,0,0.9,0,1.2,0.1c0.3,0,0.6,0.1,0.8,0.2c0.2,0.1,0.3,0.2,0.4,0.3
			c0.1,0.1,0.1,0.2,0.1,0.3V232.9L394.4,232.9z M416.4,210.7c0,0.4,0,0.7,0,1c0,0.3-0.1,0.5-0.1,0.6c-0.1,0.2-0.1,0.3-0.2,0.4
			c-0.1,0.1-0.2,0.1-0.3,0.1h-6.2v20.1c0,0.1,0,0.2-0.1,0.3c-0.1,0.1-0.2,0.2-0.4,0.3c-0.2,0.1-0.5,0.1-0.8,0.2
			c-0.3,0-0.7,0.1-1.2,0.1c-0.5,0-0.9,0-1.2-0.1c-0.3,0-0.6-0.1-0.8-0.2c-0.2-0.1-0.3-0.2-0.4-0.3c-0.1-0.1-0.1-0.2-0.1-0.3v-20.1
			h-6.2c-0.1,0-0.2,0-0.3-0.1c-0.1-0.1-0.2-0.2-0.2-0.4c-0.1-0.2-0.1-0.4-0.1-0.6c0-0.3,0-0.6,0-1c0-0.4,0-0.7,0-1
			c0-0.3,0.1-0.5,0.1-0.6c0.1-0.2,0.1-0.3,0.2-0.3c0.1-0.1,0.2-0.1,0.3-0.1h17.6c0.1,0,0.2,0,0.3,0.1c0.1,0.1,0.2,0.2,0.2,0.3
			c0.1,0.2,0.1,0.4,0.1,0.6C416.4,210,416.4,210.3,416.4,210.7L416.4,210.7z M429.4,224.1v8.8c0,0.1,0,0.2-0.1,0.3
			c-0.1,0.1-0.2,0.2-0.4,0.3c-0.2,0.1-0.5,0.1-0.8,0.2c-0.3,0-0.7,0.1-1.2,0.1c-0.5,0-0.9,0-1.2-0.1c-0.3,0-0.6-0.1-0.8-0.2
			c-0.2-0.1-0.3-0.2-0.4-0.3c-0.1-0.1-0.1-0.2-0.1-0.3v-8.8l-6.8-13.6c-0.2-0.5-0.4-0.8-0.5-1.1c-0.1-0.3,0-0.5,0.1-0.6
			c0.1-0.1,0.4-0.2,0.8-0.3c0.4,0,0.9,0,1.7,0c0.6,0,1.1,0,1.4,0c0.4,0,0.6,0.1,0.8,0.1c0.2,0.1,0.4,0.2,0.5,0.3
			c0.1,0.1,0.2,0.3,0.3,0.4l2.8,6.1c0.3,0.6,0.5,1.2,0.8,1.9c0.3,0.7,0.5,1.3,0.8,2.1h0c0.2-0.7,0.5-1.4,0.7-2
			c0.3-0.7,0.5-1.3,0.8-1.9l2.7-6.1c0.1-0.2,0.1-0.4,0.2-0.5c0.1-0.1,0.2-0.2,0.4-0.3c0.2-0.1,0.5-0.1,0.8-0.2c0.3,0,0.8,0,1.3,0
			c0.7,0,1.3,0,1.7,0c0.4,0,0.7,0.1,0.8,0.3c0.2,0.1,0.2,0.3,0.1,0.6c-0.1,0.3-0.2,0.6-0.5,1.1L429.4,224.1L429.4,224.1z
			 M462.2,239.8c0,0.1,0,0.2-0.1,0.3c-0.1,0.1-0.2,0.2-0.4,0.3c-0.2,0.1-0.4,0.1-0.7,0.2c-0.3,0-0.7,0-1.1,0c-0.4,0-0.8,0-1.1,0
			c-0.3,0-0.5-0.1-0.7-0.2c-0.2-0.1-0.3-0.2-0.4-0.3c-0.1-0.1-0.1-0.2-0.1-0.3v-33.3c0-0.1,0-0.2,0.1-0.3c0.1-0.1,0.2-0.2,0.4-0.3
			c0.2-0.1,0.4-0.1,0.7-0.2c0.3,0,0.7-0.1,1.1-0.1c0.4,0,0.8,0,1.1,0.1c0.3,0,0.5,0.1,0.7,0.2c0.2,0.1,0.3,0.2,0.4,0.3
			c0.1,0.1,0.1,0.2,0.1,0.3V239.8L462.2,239.8z M502.6,229.8c0,0.3,0,0.6,0,0.8c0,0.2-0.1,0.4-0.1,0.6c0,0.2-0.1,0.3-0.2,0.4
			c-0.1,0.1-0.2,0.2-0.3,0.4c-0.1,0.1-0.4,0.3-0.8,0.6c-0.4,0.2-0.9,0.4-1.5,0.7c-0.6,0.2-1.3,0.4-2,0.5c-0.8,0.1-1.6,0.2-2.4,0.2
			c-1.7,0-3.2-0.3-4.6-0.8c-1.4-0.5-2.5-1.3-3.5-2.4c-1-1-1.7-2.3-2.2-3.9c-0.5-1.6-0.8-3.4-0.8-5.5c0-2.1,0.3-4,0.8-5.6
			c0.6-1.6,1.4-3,2.4-4.1c1-1.1,2.2-2,3.7-2.5c1.4-0.6,3-0.9,4.7-0.9c0.7,0,1.4,0.1,2,0.2c0.6,0.1,1.2,0.3,1.8,0.5
			c0.5,0.2,1,0.4,1.5,0.6c0.4,0.3,0.7,0.5,0.9,0.6c0.2,0.2,0.3,0.3,0.4,0.4c0.1,0.1,0.1,0.3,0.2,0.4c0,0.2,0.1,0.4,0.1,0.6
			c0,0.2,0,0.5,0,0.9c0,0.4,0,0.7,0,1c0,0.3-0.1,0.5-0.1,0.7c-0.1,0.2-0.1,0.3-0.2,0.4c-0.1,0.1-0.2,0.1-0.3,0.1
			c-0.2,0-0.4-0.1-0.7-0.3c-0.3-0.2-0.7-0.5-1.1-0.8c-0.5-0.3-1-0.5-1.7-0.7c-0.6-0.2-1.4-0.3-2.3-0.3c-1,0-1.9,0.2-2.6,0.6
			c-0.8,0.4-1.4,1-2,1.7c-0.5,0.8-1,1.7-1.2,2.7c-0.3,1.1-0.4,2.3-0.4,3.6c0,1.5,0.2,2.7,0.5,3.8c0.3,1.1,0.7,2,1.3,2.6
			c0.6,0.7,1.2,1.2,2,1.5c0.8,0.3,1.7,0.5,2.7,0.5c0.9,0,1.7-0.1,2.3-0.3c0.7-0.2,1.2-0.4,1.7-0.7c0.5-0.3,0.9-0.5,1.2-0.7
			c0.3-0.2,0.5-0.3,0.7-0.3c0.1,0,0.2,0,0.3,0.1c0.1,0.1,0.1,0.2,0.2,0.3c0,0.2,0.1,0.4,0.1,0.6
			C502.6,228.9,502.6,229.3,502.6,229.8L502.6,229.8z M528.4,220.8c0,2.1-0.3,3.9-0.8,5.5c-0.5,1.6-1.3,3-2.3,4.2
			c-1,1.1-2.3,2-3.8,2.6c-1.5,0.6-3.2,0.9-5.2,0.9c-1.9,0-3.6-0.3-5.1-0.8c-1.4-0.5-2.7-1.3-3.6-2.3c-1-1-1.7-2.4-2.2-4
			c-0.5-1.6-0.7-3.5-0.7-5.7c0-2,0.3-3.8,0.8-5.4c0.5-1.6,1.3-3,2.3-4.1c1-1.1,2.3-2,3.8-2.6c1.5-0.6,3.2-0.9,5.2-0.9
			c1.9,0,3.6,0.3,5,0.7c1.4,0.5,2.7,1.3,3.6,2.3c1,1,1.7,2.3,2.2,3.9C528.2,216.8,528.4,218.6,528.4,220.8L528.4,220.8z M523.1,221
			c0-1.3-0.1-2.5-0.3-3.6c-0.2-1.1-0.6-2-1-2.8c-0.5-0.8-1.2-1.4-2-1.8c-0.8-0.4-1.8-0.6-3.1-0.6c-1.2,0-2.3,0.2-3.1,0.7
			c-0.8,0.5-1.5,1.1-2,1.9c-0.5,0.8-0.9,1.7-1.1,2.7c-0.2,1.1-0.3,2.2-0.3,3.3c0,1.4,0.1,2.6,0.3,3.7c0.2,1.1,0.6,2,1,2.8
			c0.5,0.8,1.1,1.4,2,1.8c0.8,0.4,1.9,0.6,3.1,0.6c1.2,0,2.3-0.2,3.1-0.7c0.8-0.5,1.5-1.1,2-1.9c0.5-0.8,0.9-1.7,1.1-2.8
			C523,223.4,523.1,222.2,523.1,221L523.1,221z M553.3,231.8c0,0.3-0.1,0.6-0.2,0.8c-0.1,0.2-0.2,0.4-0.4,0.6
			c-0.2,0.2-0.4,0.3-0.6,0.3c-0.2,0.1-0.5,0.1-0.7,0.1h-2.2c-0.5,0-0.8,0-1.2-0.1c-0.3-0.1-0.6-0.3-0.9-0.5c-0.3-0.2-0.5-0.6-0.8-1
			c-0.3-0.4-0.5-0.9-0.9-1.6l-6.2-11.7c-0.4-0.7-0.7-1.4-1.1-2.3c-0.4-0.8-0.7-1.6-1-2.3h0c0.1,0.9,0.1,1.8,0.1,2.8
			c0,0.9,0,1.9,0,2.8v13.1c0,0.1,0,0.2-0.1,0.3c-0.1,0.1-0.2,0.2-0.4,0.3c-0.2,0.1-0.4,0.1-0.7,0.2c-0.3,0-0.7,0.1-1.1,0.1
			c-0.5,0-0.8,0-1.1-0.1c-0.3,0-0.5-0.1-0.7-0.2c-0.2-0.1-0.3-0.2-0.3-0.3c-0.1-0.1-0.1-0.2-0.1-0.3v-22.4c0-0.6,0.2-1.1,0.5-1.4
			c0.3-0.3,0.8-0.5,1.3-0.5h2.7c0.5,0,0.9,0,1.2,0.1c0.3,0.1,0.6,0.2,0.9,0.4c0.3,0.2,0.5,0.5,0.7,0.8c0.2,0.3,0.5,0.8,0.7,1.3
			l4.8,9.1c0.3,0.6,0.6,1.1,0.8,1.6c0.3,0.5,0.5,1.1,0.8,1.6c0.3,0.5,0.5,1.1,0.8,1.6c0.2,0.5,0.5,1,0.7,1.5h0
			c0-0.9-0.1-1.8-0.1-2.8c0-1,0-1.9,0-2.8v-11.7c0-0.1,0-0.2,0.1-0.3c0.1-0.1,0.2-0.2,0.4-0.3c0.2-0.1,0.4-0.1,0.7-0.2
			c0.3,0,0.7,0,1.1,0c0.4,0,0.8,0,1.1,0c0.3,0,0.5,0.1,0.7,0.2c0.2,0.1,0.3,0.2,0.3,0.3c0.1,0.1,0.1,0.2,0.1,0.3V231.8L553.3,231.8z
			 M572.7,210.7c0,0.4,0,0.7,0,1c0,0.3-0.1,0.5-0.2,0.6c-0.1,0.2-0.2,0.3-0.2,0.3c-0.1,0.1-0.2,0.1-0.3,0.1h-8.2v6.7h7.7
			c0.1,0,0.2,0,0.3,0.1c0.1,0.1,0.2,0.2,0.2,0.3c0.1,0.2,0.1,0.4,0.2,0.6c0,0.3,0.1,0.6,0.1,1c0,0.4,0,0.7-0.1,1
			c0,0.3-0.1,0.5-0.2,0.6c-0.1,0.2-0.2,0.3-0.2,0.4c-0.1,0.1-0.2,0.1-0.3,0.1h-7.7v9.3c0,0.1,0,0.3-0.1,0.4
			c-0.1,0.1-0.2,0.2-0.4,0.3c-0.2,0.1-0.5,0.1-0.8,0.2c-0.3,0-0.7,0.1-1.2,0.1c-0.5,0-0.9,0-1.2-0.1c-0.3,0-0.6-0.1-0.8-0.2
			c-0.2-0.1-0.3-0.2-0.4-0.3c-0.1-0.1-0.1-0.2-0.1-0.4v-22.6c0-0.6,0.1-1,0.4-1.2c0.3-0.2,0.6-0.4,1.1-0.4H572c0.1,0,0.2,0,0.3,0.1
			c0.1,0.1,0.2,0.2,0.2,0.3c0.1,0.2,0.1,0.4,0.2,0.6C572.7,210,572.7,210.3,572.7,210.7L572.7,210.7z M581.9,232.9
			c0,0.1,0,0.2-0.1,0.3c-0.1,0.1-0.2,0.2-0.4,0.3c-0.2,0.1-0.5,0.1-0.8,0.2c-0.3,0-0.7,0.1-1.2,0.1c-0.5,0-0.9,0-1.2-0.1
			c-0.3,0-0.6-0.1-0.8-0.2c-0.2-0.1-0.3-0.2-0.4-0.3c-0.1-0.1-0.1-0.2-0.1-0.3v-23.6c0-0.1,0-0.2,0.1-0.3c0.1-0.1,0.2-0.2,0.4-0.3
			c0.2-0.1,0.5-0.1,0.8-0.2c0.3,0,0.7-0.1,1.2-0.1c0.5,0,0.9,0,1.2,0.1c0.3,0,0.6,0.1,0.8,0.2c0.2,0.1,0.3,0.2,0.4,0.3
			c0.1,0.1,0.1,0.2,0.1,0.3V232.9L581.9,232.9z M608.1,220.7c0,2.3-0.3,4.2-0.9,5.9c-0.6,1.6-1.5,2.9-2.6,4c-1.1,1-2.5,1.8-4.1,2.3
			c-1.6,0.5-3.5,0.7-5.7,0.7h-6c-0.4,0-0.8-0.1-1.1-0.4c-0.3-0.3-0.4-0.7-0.4-1.2v-21.8c0-0.6,0.1-1,0.4-1.2
			c0.3-0.2,0.6-0.4,1.1-0.4h6.4c2.2,0,4.1,0.3,5.7,0.8c1.6,0.5,2.9,1.3,3.9,2.3c1.1,1,1.9,2.3,2.4,3.8
			C607.8,217,608.1,218.7,608.1,220.7L608.1,220.7z M602.8,220.9c0-1.2-0.1-2.3-0.4-3.3c-0.3-1-0.7-1.9-1.3-2.6
			c-0.6-0.7-1.4-1.3-2.3-1.7c-1-0.4-2.2-0.6-3.8-0.6h-2.6v16.9h2.6c1.4,0,2.6-0.2,3.5-0.5c0.9-0.4,1.7-0.9,2.4-1.6
			c0.6-0.7,1.1-1.6,1.4-2.7C602.6,223.6,602.8,222.3,602.8,220.9L602.8,220.9z M627,231.5c0,0.4,0,0.7,0,0.9c0,0.3-0.1,0.5-0.1,0.6
			c-0.1,0.2-0.1,0.3-0.2,0.3c-0.1,0.1-0.2,0.1-0.3,0.1h-12.5c-0.4,0-0.8-0.1-1.1-0.4c-0.3-0.3-0.4-0.7-0.4-1.2v-21.8
			c0-0.6,0.1-1,0.4-1.2c0.3-0.2,0.6-0.4,1.1-0.4h12.5c0.1,0,0.2,0,0.3,0.1c0.1,0.1,0.2,0.2,0.2,0.3c0.1,0.2,0.1,0.4,0.1,0.6
			c0,0.3,0,0.6,0,1c0,0.4,0,0.7,0,0.9c0,0.3-0.1,0.5-0.1,0.6c-0.1,0.2-0.1,0.3-0.2,0.3c-0.1,0.1-0.2,0.1-0.3,0.1h-8.9v6.1h7.5
			c0.1,0,0.2,0,0.3,0.1c0.1,0.1,0.2,0.2,0.2,0.3c0.1,0.1,0.1,0.3,0.1,0.6c0,0.3,0,0.6,0,0.9c0,0.4,0,0.7,0,0.9
			c0,0.2-0.1,0.4-0.1,0.6c-0.1,0.2-0.1,0.3-0.2,0.3c-0.1,0.1-0.2,0.1-0.3,0.1h-7.5v7h9c0.1,0,0.2,0,0.3,0.1c0.1,0.1,0.2,0.2,0.2,0.3
			c0.1,0.2,0.1,0.4,0.1,0.6C627,230.9,627,231.2,627,231.5z"/>
		<path class="st3" d="M652,231.8c0,0.3-0.1,0.6-0.2,0.8c-0.1,0.2-0.2,0.4-0.4,0.6c-0.2,0.2-0.4,0.3-0.6,0.3
			c-0.2,0.1-0.5,0.1-0.7,0.1H648c-0.5,0-0.8,0-1.2-0.1c-0.3-0.1-0.6-0.3-0.9-0.5c-0.3-0.2-0.5-0.6-0.8-1c-0.3-0.4-0.5-0.9-0.9-1.6
			l-6.2-11.7c-0.4-0.7-0.7-1.4-1.1-2.3c-0.4-0.8-0.7-1.6-1-2.3h0c0.1,0.9,0.1,1.8,0.1,2.8c0,0.9,0,1.9,0,2.8v13.1
			c0,0.1,0,0.2-0.1,0.3c-0.1,0.1-0.2,0.2-0.4,0.3c-0.2,0.1-0.4,0.1-0.7,0.2c-0.3,0-0.7,0.1-1.1,0.1c-0.5,0-0.8,0-1.1-0.1
			c-0.3,0-0.5-0.1-0.7-0.2c-0.2-0.1-0.3-0.2-0.3-0.3c-0.1-0.1-0.1-0.2-0.1-0.3v-22.4c0-0.6,0.2-1.1,0.5-1.4c0.3-0.3,0.8-0.5,1.3-0.5
			h2.7c0.5,0,0.9,0,1.2,0.1c0.3,0.1,0.6,0.2,0.9,0.4c0.3,0.2,0.5,0.5,0.7,0.8c0.2,0.3,0.5,0.8,0.7,1.3l4.8,9.1
			c0.3,0.6,0.6,1.1,0.8,1.6c0.3,0.5,0.5,1.1,0.8,1.6c0.3,0.5,0.5,1.1,0.8,1.6c0.2,0.5,0.5,1,0.7,1.5h0c0-0.9-0.1-1.8-0.1-2.8
			c0-1,0-1.9,0-2.8v-11.7c0-0.1,0-0.2,0.1-0.3c0.1-0.1,0.2-0.2,0.4-0.3c0.2-0.1,0.4-0.1,0.7-0.2s0.7,0,1.1,0c0.4,0,0.8,0,1.1,0
			c0.3,0,0.5,0.1,0.7,0.2c0.2,0.1,0.3,0.2,0.3,0.3c0.1,0.1,0.1,0.2,0.1,0.3V231.8L652,231.8z M674,210.7c0,0.4,0,0.7,0,1
			c0,0.3-0.1,0.5-0.1,0.6c-0.1,0.2-0.1,0.3-0.2,0.4c-0.1,0.1-0.2,0.1-0.3,0.1h-6.2v20.1c0,0.1,0,0.2-0.1,0.3
			c-0.1,0.1-0.2,0.2-0.4,0.3c-0.2,0.1-0.5,0.1-0.8,0.2c-0.3,0-0.7,0.1-1.2,0.1c-0.5,0-0.9,0-1.2-0.1c-0.3,0-0.6-0.1-0.8-0.2
			c-0.2-0.1-0.3-0.2-0.4-0.3c-0.1-0.1-0.1-0.2-0.1-0.3v-20.1h-6.2c-0.1,0-0.2,0-0.3-0.1c-0.1-0.1-0.2-0.2-0.2-0.4
			c-0.1-0.2-0.1-0.4-0.1-0.6c0-0.3,0-0.6,0-1c0-0.4,0-0.7,0-1c0-0.3,0.1-0.5,0.1-0.6c0.1-0.2,0.1-0.3,0.2-0.3
			c0.1-0.1,0.2-0.1,0.3-0.1h17.6c0.1,0,0.2,0,0.3,0.1c0.1,0.1,0.2,0.2,0.2,0.3c0.1,0.2,0.1,0.4,0.1,0.6C674,210,674,210.3,674,210.7
			L674,210.7z M682.1,232.9c0,0.1,0,0.2-0.1,0.3c-0.1,0.1-0.2,0.2-0.4,0.3c-0.2,0.1-0.5,0.1-0.8,0.2c-0.3,0-0.7,0.1-1.2,0.1
			c-0.5,0-0.9,0-1.2-0.1c-0.3,0-0.6-0.1-0.8-0.2c-0.2-0.1-0.3-0.2-0.4-0.3c-0.1-0.1-0.1-0.2-0.1-0.3v-23.6c0-0.1,0-0.2,0.1-0.3
			c0.1-0.1,0.2-0.2,0.4-0.3c0.2-0.1,0.5-0.1,0.8-0.2c0.3,0,0.7-0.1,1.2-0.1c0.5,0,0.9,0,1.2,0.1c0.3,0,0.6,0.1,0.8,0.2
			c0.2,0.1,0.3,0.2,0.4,0.3c0.1,0.1,0.1,0.2,0.1,0.3V232.9L682.1,232.9z M708,231.7c0.2,0.5,0.3,0.8,0.3,1.1c0,0.3,0,0.5-0.2,0.6
			c-0.1,0.1-0.4,0.2-0.8,0.3c-0.4,0-0.9,0-1.5,0c-0.7,0-1.2,0-1.5,0c-0.4,0-0.6-0.1-0.8-0.1c-0.2-0.1-0.3-0.1-0.4-0.2
			c-0.1-0.1-0.1-0.2-0.2-0.4l-1.6-5h-9.4l-1.6,4.9c-0.1,0.2-0.1,0.3-0.2,0.5c-0.1,0.1-0.2,0.2-0.4,0.3c-0.2,0.1-0.4,0.1-0.8,0.1
			c-0.3,0-0.8,0-1.3,0c-0.6,0-1.1,0-1.4-0.1c-0.3,0-0.6-0.1-0.7-0.3c-0.1-0.2-0.2-0.4-0.1-0.6c0-0.3,0.1-0.6,0.3-1.1l7.7-22.1
			c0.1-0.2,0.2-0.4,0.3-0.5c0.1-0.1,0.3-0.2,0.5-0.3c0.2-0.1,0.5-0.1,0.9-0.1c0.4,0,0.9,0,1.6,0c0.8,0,1.4,0,1.8,0
			c0.5,0,0.8,0.1,1.1,0.1c0.3,0.1,0.4,0.2,0.5,0.3c0.1,0.1,0.2,0.3,0.3,0.6L708,231.7L708,231.7z M696.5,213.3L696.5,213.3L693,224
			h7L696.5,213.3L696.5,213.3z M725.2,231.4c0,0.4,0,0.7,0,1c0,0.3-0.1,0.5-0.1,0.7c-0.1,0.2-0.1,0.3-0.2,0.4
			c-0.1,0.1-0.2,0.1-0.3,0.1H713c-0.4,0-0.8-0.1-1.1-0.4c-0.3-0.3-0.4-0.7-0.4-1.2v-22.7c0-0.1,0-0.2,0.1-0.3
			c0.1-0.1,0.2-0.2,0.4-0.3c0.2-0.1,0.5-0.1,0.8-0.2c0.3,0,0.7-0.1,1.2-0.1c0.5,0,0.9,0,1.2,0.1c0.3,0,0.6,0.1,0.8,0.2
			s0.3,0.2,0.4,0.3c0.1,0.1,0.1,0.2,0.1,0.3v20.1h7.8c0.1,0,0.2,0,0.3,0.1c0.1,0.1,0.2,0.2,0.2,0.3c0.1,0.2,0.1,0.4,0.1,0.6
			C725.1,230.7,725.2,231,725.2,231.4L725.2,231.4z M733.2,232.9c0,0.1,0,0.2-0.1,0.3c-0.1,0.1-0.2,0.2-0.4,0.3
			c-0.2,0.1-0.5,0.1-0.8,0.2c-0.3,0-0.7,0.1-1.2,0.1c-0.5,0-0.9,0-1.2-0.1c-0.3,0-0.6-0.1-0.8-0.2c-0.2-0.1-0.3-0.2-0.4-0.3
			c-0.1-0.1-0.1-0.2-0.1-0.3v-23.6c0-0.1,0-0.2,0.1-0.3c0.1-0.1,0.2-0.2,0.4-0.3c0.2-0.1,0.5-0.1,0.8-0.2c0.3,0,0.7-0.1,1.2-0.1
			c0.5,0,0.9,0,1.2,0.1c0.3,0,0.6,0.1,0.8,0.2c0.2,0.1,0.3,0.2,0.4,0.3c0.1,0.1,0.1,0.2,0.1,0.3V232.9L733.2,232.9z M755.3,210.7
			c0,0.4,0,0.7,0,1c0,0.3-0.1,0.5-0.1,0.6c-0.1,0.2-0.1,0.3-0.2,0.4c-0.1,0.1-0.2,0.1-0.3,0.1h-6.2v20.1c0,0.1,0,0.2-0.1,0.3
			c-0.1,0.1-0.2,0.2-0.4,0.3c-0.2,0.1-0.5,0.1-0.8,0.2c-0.3,0-0.7,0.1-1.2,0.1c-0.5,0-0.9,0-1.2-0.1c-0.3,0-0.6-0.1-0.8-0.2
			c-0.2-0.1-0.3-0.2-0.4-0.3c-0.1-0.1-0.1-0.2-0.1-0.3v-20.1h-6.2c-0.1,0-0.2,0-0.3-0.1c-0.1-0.1-0.2-0.2-0.2-0.4
			c-0.1-0.2-0.1-0.4-0.1-0.6c0-0.3,0-0.6,0-1c0-0.4,0-0.7,0-1c0-0.3,0.1-0.5,0.1-0.6c0.1-0.2,0.1-0.3,0.2-0.3
			c0.1-0.1,0.2-0.1,0.3-0.1h17.6c0.1,0,0.2,0,0.3,0.1c0.1,0.1,0.2,0.2,0.2,0.3c0.1,0.2,0.1,0.4,0.1,0.6
			C755.2,210,755.3,210.3,755.3,210.7L755.3,210.7z M768.3,224.1v8.8c0,0.1,0,0.2-0.1,0.3c-0.1,0.1-0.2,0.2-0.4,0.3
			c-0.2,0.1-0.5,0.1-0.8,0.2c-0.3,0-0.7,0.1-1.2,0.1c-0.5,0-0.9,0-1.2-0.1c-0.3,0-0.6-0.1-0.8-0.2c-0.2-0.1-0.3-0.2-0.4-0.3
			c-0.1-0.1-0.1-0.2-0.1-0.3v-8.8l-6.8-13.6c-0.2-0.5-0.4-0.8-0.5-1.1c-0.1-0.3,0-0.5,0.1-0.6c0.1-0.1,0.4-0.2,0.8-0.3
			c0.4,0,0.9,0,1.7,0c0.6,0,1.1,0,1.4,0c0.4,0,0.6,0.1,0.8,0.1c0.2,0.1,0.4,0.2,0.5,0.3c0.1,0.1,0.2,0.3,0.3,0.4l2.8,6.1
			c0.3,0.6,0.5,1.2,0.8,1.9c0.3,0.7,0.5,1.3,0.8,2.1h0c0.2-0.7,0.5-1.4,0.7-2c0.3-0.7,0.5-1.3,0.8-1.9l2.7-6.1
			c0.1-0.2,0.1-0.4,0.2-0.5c0.1-0.1,0.2-0.2,0.4-0.3c0.2-0.1,0.5-0.1,0.8-0.2c0.3,0,0.8,0,1.3,0c0.7,0,1.3,0,1.7,0
			c0.4,0,0.7,0.1,0.8,0.3c0.2,0.1,0.2,0.3,0.1,0.6c-0.1,0.3-0.2,0.6-0.5,1.1L768.3,224.1L768.3,224.1z M801.1,239.8
			c0,0.1,0,0.2-0.1,0.3c-0.1,0.1-0.2,0.2-0.4,0.3c-0.2,0.1-0.4,0.1-0.7,0.2c-0.3,0-0.7,0-1.1,0c-0.4,0-0.8,0-1.1,0
			c-0.3,0-0.5-0.1-0.7-0.2c-0.2-0.1-0.3-0.2-0.4-0.3c-0.1-0.1-0.1-0.2-0.1-0.3v-33.3c0-0.1,0-0.2,0.1-0.3c0.1-0.1,0.2-0.2,0.4-0.3
			c0.2-0.1,0.4-0.1,0.7-0.2c0.3,0,0.7-0.1,1.1-0.1c0.4,0,0.8,0,1.1,0.1c0.3,0,0.5,0.1,0.7,0.2c0.2,0.1,0.3,0.2,0.4,0.3
			c0.1,0.1,0.1,0.2,0.1,0.3V239.8L801.1,239.8z M840.8,210.7c0,0.4,0,0.7,0,1c0,0.3-0.1,0.5-0.1,0.6c-0.1,0.2-0.1,0.3-0.2,0.4
			c-0.1,0.1-0.2,0.1-0.3,0.1h-6.2v20.1c0,0.1,0,0.2-0.1,0.3c-0.1,0.1-0.2,0.2-0.4,0.3c-0.2,0.1-0.5,0.1-0.8,0.2
			c-0.3,0-0.7,0.1-1.2,0.1c-0.5,0-0.9,0-1.2-0.1c-0.3,0-0.6-0.1-0.8-0.2c-0.2-0.1-0.3-0.2-0.4-0.3c-0.1-0.1-0.1-0.2-0.1-0.3v-20.1
			h-6.2c-0.1,0-0.2,0-0.3-0.1c-0.1-0.1-0.2-0.2-0.2-0.4c-0.1-0.2-0.1-0.4-0.1-0.6c0-0.3,0-0.6,0-1c0-0.4,0-0.7,0-1
			c0-0.3,0.1-0.5,0.1-0.6c0.1-0.2,0.1-0.3,0.2-0.3c0.1-0.1,0.2-0.1,0.3-0.1h17.6c0.1,0,0.2,0,0.3,0.1c0.1,0.1,0.2,0.2,0.2,0.3
			c0.1,0.2,0.1,0.4,0.1,0.6C840.8,210,840.8,210.3,840.8,210.7L840.8,210.7z M848.9,232.9c0,0.1,0,0.2-0.1,0.3
			c-0.1,0.1-0.2,0.2-0.4,0.3c-0.2,0.1-0.5,0.1-0.8,0.2c-0.3,0-0.7,0.1-1.2,0.1c-0.5,0-0.9,0-1.2-0.1c-0.3,0-0.6-0.1-0.8-0.2
			c-0.2-0.1-0.3-0.2-0.4-0.3c-0.1-0.1-0.1-0.2-0.1-0.3v-23.6c0-0.1,0-0.2,0.1-0.3c0.1-0.1,0.2-0.2,0.4-0.3c0.2-0.1,0.5-0.1,0.8-0.2
			c0.3,0,0.7-0.1,1.2-0.1c0.5,0,0.9,0,1.2,0.1c0.3,0,0.6,0.1,0.8,0.2c0.2,0.1,0.3,0.2,0.4,0.3c0.1,0.1,0.1,0.2,0.1,0.3V232.9
			L848.9,232.9z M883.4,232.9c0,0.1,0,0.2-0.1,0.3c-0.1,0.1-0.2,0.2-0.4,0.3c-0.2,0.1-0.4,0.1-0.7,0.2c-0.3,0-0.7,0.1-1.2,0.1
			c-0.5,0-0.9,0-1.2-0.1c-0.3,0-0.6-0.1-0.7-0.2c-0.2-0.1-0.3-0.2-0.4-0.3c-0.1-0.1-0.1-0.2-0.1-0.3v-20.3h0l-7.2,20.3
			c-0.1,0.2-0.1,0.3-0.3,0.4c-0.1,0.1-0.3,0.2-0.5,0.3c-0.2,0.1-0.5,0.1-0.8,0.1c-0.3,0-0.7,0-1.1,0c-0.4,0-0.8,0-1.1,0
			c-0.3,0-0.6-0.1-0.8-0.2c-0.2-0.1-0.4-0.2-0.5-0.3c-0.1-0.1-0.2-0.2-0.2-0.4l-7-20.3h0v20.3c0,0.1,0,0.2-0.1,0.3
			c-0.1,0.1-0.2,0.2-0.4,0.3c-0.2,0.1-0.4,0.1-0.8,0.2c-0.3,0-0.7,0.1-1.2,0.1c-0.5,0-0.9,0-1.2-0.1c-0.3,0-0.6-0.1-0.7-0.2
			c-0.2-0.1-0.3-0.2-0.4-0.3c-0.1-0.1-0.1-0.2-0.1-0.3v-22.2c0-0.7,0.2-1.2,0.5-1.5c0.3-0.3,0.8-0.5,1.4-0.5h3.3
			c0.6,0,1.1,0,1.5,0.1c0.4,0.1,0.8,0.3,1.1,0.5c0.3,0.2,0.6,0.5,0.8,0.9c0.2,0.4,0.4,0.8,0.5,1.4l5.4,14.9h0.1l5.6-14.8
			c0.2-0.5,0.3-1,0.5-1.4c0.2-0.4,0.4-0.7,0.7-0.9c0.3-0.2,0.6-0.4,0.9-0.5c0.4-0.1,0.8-0.1,1.3-0.1h3.4c0.3,0,0.6,0,0.9,0.1
			c0.3,0.1,0.5,0.2,0.6,0.4c0.2,0.2,0.3,0.4,0.4,0.6c0.1,0.3,0.1,0.5,0.1,0.9V232.9L883.4,232.9z M903.6,231.5c0,0.4,0,0.7,0,0.9
			c0,0.3-0.1,0.5-0.1,0.6c-0.1,0.2-0.1,0.3-0.2,0.3c-0.1,0.1-0.2,0.1-0.3,0.1h-12.5c-0.4,0-0.8-0.1-1.1-0.4
			c-0.3-0.3-0.4-0.7-0.4-1.2v-21.8c0-0.6,0.1-1,0.4-1.2c0.3-0.2,0.6-0.4,1.1-0.4h12.5c0.1,0,0.2,0,0.3,0.1c0.1,0.1,0.2,0.2,0.2,0.3
			c0.1,0.2,0.1,0.4,0.1,0.6c0,0.3,0,0.6,0,1c0,0.4,0,0.7,0,0.9c0,0.3-0.1,0.5-0.1,0.6c-0.1,0.2-0.1,0.3-0.2,0.3
			c-0.1,0.1-0.2,0.1-0.3,0.1h-8.9v6.1h7.5c0.1,0,0.2,0,0.3,0.1c0.1,0.1,0.2,0.2,0.2,0.3c0.1,0.1,0.1,0.3,0.1,0.6c0,0.3,0,0.6,0,0.9
			c0,0.4,0,0.7,0,0.9c0,0.2-0.1,0.4-0.1,0.6c-0.1,0.2-0.1,0.3-0.2,0.3c-0.1,0.1-0.2,0.1-0.3,0.1h-7.5v7h9c0.1,0,0.2,0,0.3,0.1
			c0.1,0.1,0.2,0.2,0.2,0.3c0.1,0.2,0.1,0.4,0.1,0.6C903.6,230.9,903.6,231.2,903.6,231.5L903.6,231.5z M921.8,231.4
			c0,0.4,0,0.7,0,1c0,0.3-0.1,0.5-0.1,0.7c-0.1,0.2-0.1,0.3-0.2,0.4c-0.1,0.1-0.2,0.1-0.3,0.1h-11.4c-0.4,0-0.8-0.1-1.1-0.4
			c-0.3-0.3-0.4-0.7-0.4-1.2v-22.7c0-0.1,0-0.2,0.1-0.3c0.1-0.1,0.2-0.2,0.4-0.3c0.2-0.1,0.5-0.1,0.8-0.2c0.3,0,0.7-0.1,1.2-0.1
			c0.5,0,0.9,0,1.2,0.1c0.3,0,0.6,0.1,0.8,0.2c0.2,0.1,0.3,0.2,0.4,0.3c0.1,0.1,0.1,0.2,0.1,0.3v20.1h7.8c0.1,0,0.2,0,0.3,0.1
			c0.1,0.1,0.2,0.2,0.2,0.3c0.1,0.2,0.1,0.4,0.1,0.6C921.8,230.7,921.8,231,921.8,231.4L921.8,231.4z M931.4,224.1l6.8-13.6
			c0.2-0.5,0.4-0.8,0.5-1.1c0.1-0.3,0-0.5-0.1-0.6c-0.1-0.1-0.4-0.2-0.8-0.3c-0.4,0-1,0-1.7,0c-0.6,0-1,0-1.3,0
			c-0.3,0-0.6,0.1-0.8,0.2c-0.2,0.1-0.3,0.2-0.4,0.3c-0.1,0.1-0.2,0.3-0.2,0.5l-2.7,6.1c-0.2,0.6-0.5,1.2-0.8,1.9
			c-0.3,0.7-0.5,1.3-0.7,2h0c-0.3-0.7-0.5-1.4-0.8-2.1c-0.3-0.7-0.5-1.3-0.8-1.9l-2.8-6.1c-0.1-0.2-0.2-0.3-0.3-0.4
			c-0.1-0.1-0.3-0.2-0.5-0.3c-0.2-0.1-0.5-0.1-0.8-0.1c-0.4,0-0.8,0-1.4,0c-0.7,0-1.3,0-1.7,0c-0.4,0-0.7,0.1-0.8,0.3
			c-0.2,0.1-0.2,0.3-0.1,0.6c0.1,0.3,0.2,0.6,0.5,1.1l6.8,13.6v8.8c0,0.1,0,0.2,0.1,0.3c0.1,0.1,0.2,0.2,0.4,0.3
			c0.2,0.1,0.5,0.1,0.8,0.2c0.3,0,0.7,0.1,1.2,0.1c0.5,0,0.9,0,1.2-0.1c0.3,0,0.6-0.1,0.8-0.2c0.2-0.1,0.3-0.2,0.4-0.3
			c0.1-0.1,0.1-0.2,0.1-0.3V224.1z"/>
	</g>
</g>
</svg>
