<?xml version="1.0" encoding="utf-8"?>
<!-- Generator: Adobe Illustrator 21.0.0, SVG Export Plug-In . SVG Version: 6.00 Build 0)  -->
<svg version="1.1" id="Layer_1" xmlns="http://www.w3.org/2000/svg" xmlns:xlink="http://www.w3.org/1999/xlink" x="0px" y="0px"
	 viewBox="0 0 1920 710" style="enable-background:new 0 0 1920 710;" xml:space="preserve">
<style type="text/css">
	.st0{fill:url(#SVGID_1_);}
	.st1{fill:url(#SVGID_2_);}
	.st2{fill:url(#SVGID_3_);}
	.st3{fill:#FFFFFF;}
	.st4{fill:#EEC55E;}
	.st5{fill:#E4E4E4;}
	.st6{fill:#425CA9;}
	.st7{fill:#768EC8;}
	.st8{fill:#DFDFDE;}
	.st9{fill:url(#SVGID_4_);}
	.st10{fill:url(#SVGID_5_);}
	.st11{fill:url(#SVGID_6_);}
	.st12{fill:#637CBD;}
	.st13{fill:#EDBD5E;}
	.st14{fill:#F3F3F3;}
	.st15{fill:url(#SVGID_7_);}
	.st16{fill:#373A57;}
	.st17{fill:#DDA888;}
	.st18{fill:#E7B96B;}
	.st19{fill:#E19735;}
	.st20{fill:#EAC482;}
	.st21{fill:#F7F8F8;}
	.st22{fill:#2B2C41;}
	.st23{fill:#2F3048;}
	.st24{fill:#7393CC;}
	.st25{fill:#232536;}
	.st26{fill:#C7C5CE;}
	.st27{fill:#DCA787;}
	.st28{fill:#B68B72;}
	.st29{fill:#9D9CA3;}
	.st30{fill:#E7E4EF;}
	.st31{fill:#3F4366;}
	.st32{fill:url(#SVGID_8_);}
	.st33{fill:url(#SVGID_9_);}
	.st34{fill:url(#SVGID_10_);}
	.st35{fill:url(#SVGID_11_);}
	.st36{fill:url(#SVGID_12_);}
	.st37{fill:url(#SVGID_13_);}
	.st38{fill:url(#SVGID_14_);}
	.st39{fill:url(#SVGID_15_);}
	.st40{fill:url(#SVGID_16_);}
	.st41{fill:url(#SVGID_17_);}
	.st42{fill:url(#SVGID_18_);}
	.st43{fill:url(#SVGID_19_);}
	.st44{fill:url(#SVGID_20_);}
	.st45{fill:url(#SVGID_21_);}
	.st46{fill:url(#SVGID_22_);}
	.st47{fill:url(#SVGID_23_);}
	.st48{fill:url(#SVGID_24_);}
	.st49{fill:url(#SVGID_25_);}
	.st50{fill:#212232;}
	.st51{fill:#252638;}
	.st52{fill:#2E2F46;}
	.st53{fill:#C8BCB4;}
	.st54{fill:#DCA586;}
	.st55{fill:#E6D8D1;}
	.st56{fill:#414467;}
	.st57{fill:#242636;}
	.st58{fill:#997762;}
	.st59{fill:#6E59A6;}
	.st60{fill:#C38856;}
	.st61{fill:#2D3D54;}
	.st62{fill:#2C2D43;}
	.st63{fill:#CFC3BC;}
	.st64{fill:#F2E3DB;}
	.st65{fill:#CC4A4A;}
	.st66{fill:#EBB65D;}
	.st67{fill:url(#SVGID_26_);}
</style>
<linearGradient id="SVGID_1_" gradientUnits="userSpaceOnUse" x1="1937.838" y1="679.1036" x2="1312.7736" y2="318.2224">
	<stop  offset="0" style="stop-color:#A7A9AC"/>
	<stop  offset="1" style="stop-color:#808285"/>
</linearGradient>
<path class="st0" d="M1920,171.6V710h-789.9c7.7-9.1,13.2-18.9,18.5-27.9c15-25.4,64.4-71.6,149.2-48.2
	c82.8,22.8,121.6-24.9,121.5-64.6c0-3.9-0.4-7.7-1.1-11.4c-8.3-41.1-54.3-78.9-87-109.7c-32.7-30.8-40.2-73-28.8-108.9
	c15.9-49.8,102.8-104.8,208.3-62.8c112.1,44.5,215.4,75.9,321.2,4.9C1883.1,247.1,1908,205.4,1920,171.6z"/>
<linearGradient id="SVGID_2_" gradientUnits="userSpaceOnUse" x1="1401.686" y1="710" x2="1401.686" y2="-118">
	<stop  offset="0" style="stop-color:#A7A9AC"/>
	<stop  offset="1" style="stop-color:#808285"/>
</linearGradient>
<path class="st1" d="M883.4,0c9.3,12.3,16.8,28.1,23.1,47.8c22.2,69.7,46.6,127.8,101.5,92.9c54.9-34.8,104.7-5.5,106.2,55
	c2.8,107-89,147.2-77.8,233.9c13.7,106,158.3,133.4,299.7,116.3c28-3.4,55.8-8.5,82.5-15.1c117.4-29,336.1-32.1,471.2,179.2h30.1V0
	H883.4z"/>
<g>
	
		<radialGradient id="SVGID_3_" cx="-4556.5469" cy="1136.0487" r="1093.5092" gradientTransform="matrix(0.25 0 0 0.25 2488.5259 -142.9736)" gradientUnits="userSpaceOnUse">
		<stop  offset="0.1602" style="stop-color:#9EC0E5"/>
		<stop  offset="0.5806" style="stop-color:#7DA9DA"/>
		<stop  offset="1" style="stop-color:#707DBC"/>
	</radialGradient>
	<path class="st2" d="M1713.7,350.5c0,127.2-103.1,230.3-230.3,230.3c-105,0-193.6-70.3-221.3-166.4c-5.9-20.3-9-41.7-9-63.9
		c0-127.2,103.1-230.3,230.3-230.3c4.6,0,9.2,0.1,13.8,0.4C1617.9,127.7,1713.7,227.9,1713.7,350.5z"/>
	<path class="st3" d="M1710.4,389.7c-3.8,22-10.6,42.8-19.9,61.9c0,0,0,0,0,0s-3.8-30.7-7.8-32.5c-4-1.7-12.2-4.5-10.2-21.5
		c2.1-17-3.1-42.2-18.6-42.5c-15.5-0.3-11,23-11,23s-25.5,42.1-26.8,39.3c-1.2-2.9-2.5-25.8-2.5-25.8s-23.4-45.5-22.5-52.3
		c0.9-6.8-2.5-9.1,2.5-14.7c5.1-5.6,13.2-9.5,13.2-9.5l0.1-15.4l8.4-8.5l14.4-8c0,0,13.2-1,21.9-6.3c8.7-5.3,19.9-4.5,17-12.8
		c0,0-5-6.1-7.4-12.3c-2.4-6.2-15.8-11.8-17.9-14.7c-2.1-3,0.3-9.4-8-16.3c-8.4-7-6.2-4.3-12.2-9.6c-6-5.4-19.6-17.3-20.4-22.6
		c-0.8-5.4-5.9-26.2-21.8-29.8C1565,154.9,1562,134,1562,134C1665,171.2,1729.7,278,1710.4,389.7z"/>
	<path class="st3" d="M1685.3,461.3c-39.1,71.2-114,117.6-196.6,119.4l25.2-20c0,0,3-12.1,4.5-16.2c1.6-4.1,18.5-31.6,18.5-31.6
		s-1.1-23.5,0.9-35.5c2.1-12.1,12.7-18.4,19.7-33.4c6.9-15.1,41.3-7.9,49.6-10.7l27.7,6.4l20.8,14.4
		C1655.7,454,1672,458.1,1685.3,461.3z"/>
	<path class="st3" d="M1461.6,227.6c-7.9,15.3-28.2,36.6-28.2,36.6s-2.2,12.5-15.4,18.1c-13.3,5.6,33.2,46.3,17.7,52.3
		c-15.5,6-22.5,16.2-22.5,16.2s-17,17-18.3,19.5c-1.3,2.6-26.3,14.9-31.2,18c-4.9,3.1-1,6.1-25.8,12.1c-24.7,6-27.6,12.5-35.2,20.9
		c-7.6,8.3-16.6,9.8-16.6,9.8s-13.8-4.6-24-16.7c-5.9-20.3-9-41.7-9-63.9c0-127.2,103.1-230.3,230.3-230.3c4.6,0,9.2,0.1,13.8,0.4
		c-8.9,6.4-39,28.1-48.5,39.8c-11.2,13.9-1.1,36.6,5.1,41.2C1460.1,206.3,1469.6,212.3,1461.6,227.6z"/>
	<path class="st3" d="M1468.7,198.9c0,0,17.7,16.7,10.4,26c-7.3,9.3-21.6,22.6-18.5,27c3.1,4.4,15.9,14,27.3,13
		c11.4-1,25.5-14.3,36.3-23c10.7-8.7,27.3-6.1,30-8c2.7-1.9,7.7-12.2-4.2-20.8c-11.9-8.7-17.3-13.8-23-17.9
		C1521.3,191.1,1455.5,185,1468.7,198.9z"/>
	<path class="st3" d="M1427.3,573.8c-8.4-2.1-16.6-4.7-24.6-7.6c-60.1-22.4-106.9-68.6-131.2-125.5c0,0,20.4,7.1,46.2,3
		c25.8-4.2,46.6-4.7,63.3,10.3c16.7,15-8.4,23.7,2.1,43.6c10.5,19.9,15.7,10.3,26.1,34.5C1413.5,541.9,1422.1,558.2,1427.3,573.8z"
		/>
	<g>
		<g>
			<polygon class="st4" points="1500.7,445.7 1356.1,301.2 1249.7,407.5 1225.4,383.2 1356.1,252.5 1500.7,397.1 1624.6,273.2 
				1648.9,297.5 			"/>
		</g>
		<g>
			<polygon class="st4" points="1677.2,329.9 1708.6,212.8 1591.5,244.1 			"/>
		</g>
	</g>
	<polygon class="st4" points="1446.1,209.1 1416.2,217.1 1424.1,225 1393,256.1 1356.1,219.2 1322.7,252.6 1328.9,258.8 
		1356.1,231.6 1393,268.6 1430.3,231.2 1438.1,239 	"/>
	<path class="st5" d="M1593.8,138.7c-1.4,0-2.7,0.3-4,0.8c-3.1-5.6-9.1-9.4-15.9-9.4c-5.7,0-10.8,2.6-14.1,6.8
		c-1.6-0.8-3.5-1.2-5.4-1.2c-7,0-12.6,5.6-12.6,12.6h14h11.2h17.2h7.9h11.3C1603.4,143,1599.1,138.7,1593.8,138.7z"/>
	<path class="st5" d="M1261.1,331c-1.4,0-2.7,0.3-4,0.9c-3.1-5.6-9.1-9.4-15.9-9.4c-5.7,0-10.8,2.6-14.1,6.8
		c-1.6-0.8-3.5-1.2-5.4-1.2c-7,0-12.6,5.6-12.6,12.6h14h11.2h17.2h7.9h11.3C1270.7,335.3,1266.4,331,1261.1,331z"/>
	<path class="st5" d="M1422.4,133.3c-2.2,0-4.2,0.8-5.8,2c-2.7-5.4-8.2-9.1-14.7-9.1c-5.9,0-11.1,3.2-14,7.9
		c-0.8-0.2-1.5-0.3-2.4-0.3c-1.7,0-3.3,0.5-4.7,1.3c-2.5-3.8-6.8-6.4-11.7-6.4c-7.6,0-13.8,6.2-13.8,13.8h21.4h6.3h2.5h8.8h18.7h5.2
		h13.4C1431.7,137.5,1427.6,133.3,1422.4,133.3z"/>
	<g>
		<g>
			<g>
				<path class="st3" d="M1798.8,196c-12.1-5.7-26-2.7-34.7,6.5c-2.1,2.2-3.9,4.8-5.3,7.7c-4.2,8.9-3.7,18.7,0.5,26.8
					c2.9,5.6,7.6,10.3,13.7,13.2c0.6,0.3,1.2,0.6,1.8,0.8c2.8,1.1,5.7,1.8,8.6,2c12.1,1,24.1-5.5,29.6-17.1
					C1820.1,221,1813.7,203.1,1798.8,196z M1806.3,232.8c-4.1,8.7-13.1,13.5-22.2,12.8c-2.2-0.2-4.3-0.7-6.4-1.5
					c-0.5-0.2-0.9-0.4-1.4-0.6c-4.6-2.2-8.1-5.7-10.3-9.9c-3.2-6-3.5-13.4-0.4-20.1c1-2.2,2.4-4.1,4-5.8c6.5-6.9,17-9.2,26-4.9
					C1806.8,208.1,1811.6,221.5,1806.3,232.8z"/>
			</g>
		</g>
		<g>
			<g>
				<path class="st6" d="M1766,233.6l-6.7,3.5c-4.2-8.1-4.7-17.9-0.5-26.8c1.4-2.9,3.2-5.5,5.3-7.7l5.5,5.2c-1.6,1.7-2.9,3.6-4,5.8
					C1762.4,220.2,1762.8,227.6,1766,233.6z"/>
			</g>
		</g>
		<g>
			<g>
				<path class="st7" d="M1777.7,244.1l-2.8,7c-0.6-0.2-1.2-0.5-1.8-0.8c-6.1-2.9-10.8-7.6-13.7-13.2l6.7-3.5
					c2.2,4.2,5.7,7.7,10.3,9.9C1776.8,243.7,1777.2,243.9,1777.7,244.1z"/>
			</g>
		</g>
		<g>
			<g>
				<path class="st7" d="M1783.5,253.1c-2.9-0.2-5.8-0.9-8.6-2l2.8-7c2.1,0.8,4.3,1.3,6.4,1.5L1783.5,253.1z"/>
			</g>
		</g>
	</g>
	<g>
		<polygon class="st7" points="1776.7,272.9 1720.7,272.9 1720.7,271.8 1775.6,271.8 1775.6,248 1776.7,248 		"/>
	</g>
	<g>
		<rect x="1720.7" y="260.2" class="st8" width="29.5" height="6.7"/>
	</g>
	<g>
		<g>
			<rect x="1731.6" y="297.7" class="st3" width="10.7" height="70.7"/>
		</g>
		<g>
			<rect x="1758.1" y="312.1" class="st3" width="10.7" height="56.4"/>
		</g>
		<g>
			<rect x="1784.6" y="301.5" class="st3" width="10.7" height="67"/>
		</g>
		<g>
			
				<radialGradient id="SVGID_4_" cx="-2889.2605" cy="2087.4639" r="328.3855" gradientTransform="matrix(0.25 0 0 0.25 2488.5259 -142.9736)" gradientUnits="userSpaceOnUse">
				<stop  offset="0.1602" style="stop-color:#9EC0E5"/>
				<stop  offset="0.5806" style="stop-color:#7DA9DA"/>
				<stop  offset="1" style="stop-color:#707DBC"/>
			</radialGradient>
			<rect x="1731.6" y="324.1" class="st9" width="10.7" height="44.4"/>
		</g>
		<g>
			
				<radialGradient id="SVGID_5_" cx="-2889.2725" cy="2087.4639" r="328.3515" gradientTransform="matrix(0.25 0 0 0.25 2488.5259 -142.9736)" gradientUnits="userSpaceOnUse">
				<stop  offset="0.1602" style="stop-color:#9EC0E5"/>
				<stop  offset="0.5806" style="stop-color:#7DA9DA"/>
				<stop  offset="1" style="stop-color:#707DBC"/>
			</radialGradient>
			<rect x="1758.1" y="333.1" class="st10" width="10.7" height="35.4"/>
		</g>
		<g>
			
				<radialGradient id="SVGID_6_" cx="-2889.2715" cy="2087.4639" r="328.3479" gradientTransform="matrix(0.25 0 0 0.25 2488.5259 -142.9736)" gradientUnits="userSpaceOnUse">
				<stop  offset="0.1602" style="stop-color:#9EC0E5"/>
				<stop  offset="0.5806" style="stop-color:#7DA9DA"/>
				<stop  offset="1" style="stop-color:#707DBC"/>
			</radialGradient>
			<rect x="1784.6" y="326.4" class="st11" width="10.7" height="42"/>
		</g>
	</g>
	<g>
		<g>
			<rect x="1153.3" y="230.4" class="st12" width="67.9" height="6.7"/>
		</g>
		<g>
			<rect x="1153.3" y="248.3" class="st3" width="67.9" height="6.7"/>
		</g>
		<g>
			<rect x="1153.3" y="266.3" class="st3" width="67.9" height="6.7"/>
		</g>
	</g>
	<g>
		<g>
			<rect x="1235" y="230.4" class="st12" width="11.3" height="6.7"/>
		</g>
		<g>
			<rect x="1235" y="248.3" class="st3" width="11.3" height="6.7"/>
		</g>
		<g>
			<rect x="1235" y="266.3" class="st3" width="11.3" height="6.7"/>
		</g>
	</g>
	<g>
		<path class="st13" d="M1497.3,45.4c-0.4-0.4-0.9-0.9-1.7-1.4c-0.7-0.5-1.6-1-2.6-1.4c-1-0.4-2-0.8-3.2-1.2
			c-1.2-0.3-2.4-0.5-3.6-0.6l0,13.2l1.2,0.3c2.3,0.6,4.4,1.2,6.2,1.9c1.8,0.7,3.4,1.5,4.7,2.5c1.3,1,2.3,2.2,3,3.6
			c0.7,1.4,1,3.2,1,5.2c0,2.3-0.4,4.2-1.2,5.8c-0.8,1.6-1.9,2.9-3.4,4c-1.4,1.1-3.1,1.8-5,2.4c-1.9,0.5-3.9,0.8-6.1,0.8l0,6.7
			l-3.3,0l0-6.8c-3.1-0.2-6-0.8-8.7-1.8c-2.8-1-5.3-2.4-7.6-4.2l3.3-6.1c0.5,0.5,1.1,1.1,2,1.7c0.9,0.6,1.9,1.2,3.1,1.7
			c1.2,0.6,2.5,1,3.9,1.5c1.4,0.4,2.9,0.7,4.4,0.9l0-13.2c-0.3-0.1-0.5-0.2-0.8-0.2c-0.3-0.1-0.5-0.1-0.8-0.2
			c-2.3-0.6-4.2-1.2-5.9-1.9c-1.7-0.7-3.1-1.5-4.2-2.4c-1.1-0.9-1.9-2-2.5-3.3c-0.6-1.3-0.9-2.8-0.8-4.6c0-2.1,0.4-3.9,1.1-5.5
			c0.7-1.6,1.8-3,3.1-4.2c1.3-1.2,2.9-2.1,4.6-2.7c1.8-0.7,3.7-1.1,5.8-1.2l0-6.4l3.3,0l0,6.4c2.8,0.2,5.3,0.7,7.6,1.7
			c2.3,0.9,4.4,2.1,6.2,3.4L1497.3,45.4z M1476.3,47c0,1.8,0.6,3.1,1.9,4c1.2,0.9,3.1,1.7,5.7,2.4l0-12.5c-2.6,0.1-4.5,0.7-5.7,1.8
			C1476.9,43.7,1476.3,45.1,1476.3,47z M1494.6,68.2c0-1.9-0.7-3.3-2.2-4.2c-1.5-1-3.6-1.8-6.2-2.6l0,12.6c2.7,0,4.8-0.5,6.3-1.5
			C1493.9,71.5,1494.6,70,1494.6,68.2z"/>
	</g>
	<g>
		<g>
			<path class="st13" d="M1849.9,307.4h-36c-1.4,0-2.6-1.5-2.6-3.4c0-1.9,1.2-3.4,2.6-3.4h36c1.4,0,2.6,1.5,2.6,3.4
				C1852.5,305.9,1851.3,307.4,1849.9,307.4z"/>
		</g>
		<g>
			<path class="st13" d="M1835.3,286v36c0,1.4-1.5,2.6-3.4,2.6c-1.9,0-3.4-1.2-3.4-2.6v-36c0-1.4,1.5-2.6,3.4-2.6
				C1833.7,283.4,1835.3,284.6,1835.3,286z"/>
		</g>
	</g>
	<g>
		<g>
			<path class="st13" d="M1388.1,82.2h-36c-1.4,0-2.6-1.5-2.6-3.4c0-1.9,1.2-3.4,2.6-3.4h36c1.4,0,2.6,1.5,2.6,3.4
				C1390.7,80.7,1389.5,82.2,1388.1,82.2z"/>
		</g>
		<g>
			<path class="st13" d="M1388.1,99.1h-36c-1.4,0-2.6-1.5-2.6-3.4c0-1.9,1.2-3.4,2.6-3.4h36c1.4,0,2.6,1.5,2.6,3.4
				C1390.7,97.6,1389.5,99.1,1388.1,99.1z"/>
		</g>
	</g>
	<g>
		<path class="st13" d="M1176.4,336.8h-36c-1.4,0-2.6-1.5-2.6-3.4c0-1.9,1.2-3.4,2.6-3.4h36c1.4,0,2.6,1.5,2.6,3.4
			C1179,335.3,1177.8,336.8,1176.4,336.8z"/>
	</g>
	<g>
		<path class="st13" d="M1584.4,83.8c-1.4,0-2.7-0.2-3.8-0.7c-1.2-0.5-2.2-1.1-3.1-1.9c-0.9-0.8-1.6-1.7-2.1-2.8
			c-0.5-1.1-0.8-2.2-0.8-3.5c0-1.2,0.3-2.4,0.8-3.5c0.5-1.1,1.2-2,2.1-2.8c0.9-0.8,1.9-1.4,3.1-1.9c1.2-0.5,2.5-0.7,3.8-0.7
			c1.3,0,2.6,0.2,3.8,0.7c1.2,0.5,2.2,1.1,3.1,1.9c0.9,0.8,1.6,1.7,2.1,2.8s0.8,2.3,0.8,3.5c0,1.3-0.3,2.4-0.8,3.5
			c-0.5,1.1-1.2,2-2.1,2.8c-0.9,0.8-1.9,1.4-3.1,1.9C1587,83.5,1585.8,83.8,1584.4,83.8z M1578,105.6l16.6-19.4L1610,66l3.6,3.2
			l-16.1,19l-15.9,20.5L1578,105.6z M1584.4,79.8c0.6,0,1.1-0.1,1.6-0.4c0.5-0.3,0.9-0.6,1.3-1.1c0.4-0.5,0.7-1,0.9-1.6
			c0.2-0.6,0.3-1.2,0.3-1.9c0-1.4-0.4-2.5-1.2-3.5c-0.8-1-1.8-1.4-2.9-1.4c-0.6,0-1.1,0.1-1.6,0.4c-0.5,0.3-0.9,0.6-1.3,1.1
			c-0.4,0.5-0.7,1-0.9,1.6c-0.2,0.6-0.3,1.2-0.3,1.9c0,1.4,0.4,2.6,1.2,3.5C1582.3,79.3,1583.3,79.8,1584.4,79.8z M1607.2,108.9
			c-1.4,0-2.7-0.2-3.8-0.7c-1.2-0.5-2.2-1.1-3.1-1.9c-0.9-0.8-1.6-1.7-2.1-2.8c-0.5-1.1-0.8-2.3-0.8-3.5c0-1.3,0.3-2.4,0.8-3.5
			c0.5-1.1,1.2-2,2.1-2.8c0.9-0.8,1.9-1.4,3.1-1.9c1.2-0.5,2.5-0.7,3.8-0.7c1.4,0,2.7,0.2,3.8,0.7c1.2,0.5,2.2,1.1,3.1,1.9
			c0.9,0.8,1.6,1.7,2.1,2.8c0.5,1.1,0.7,2.3,0.7,3.5c0,1.3-0.2,2.4-0.7,3.5c-0.5,1.1-1.2,2-2.1,2.8c-0.9,0.8-1.9,1.4-3.1,1.9
			C1609.8,108.7,1608.6,108.9,1607.2,108.9z M1607.2,105c0.6,0,1.1-0.1,1.6-0.4c0.5-0.3,0.9-0.6,1.3-1.1c0.4-0.5,0.7-1,0.9-1.6
			c0.2-0.6,0.3-1.2,0.3-1.9c0-0.7-0.1-1.4-0.4-2c-0.2-0.6-0.5-1.1-0.9-1.6c-0.4-0.5-0.8-0.8-1.3-1.1c-0.5-0.3-1-0.4-1.6-0.4
			c-0.6,0-1.1,0.1-1.6,0.4c-0.5,0.3-0.9,0.6-1.3,1.1c-0.4,0.5-0.7,1-0.9,1.6c-0.2,0.6-0.3,1.2-0.3,1.9c0,1.4,0.4,2.5,1.2,3.5
			C1605.1,104.5,1606,105,1607.2,105z"/>
	</g>
	<g>
		<g>
			<rect x="1655.4" y="101" class="st14" width="0.6" height="66.8"/>
		</g>
		<g>
			<rect x="1700.7" y="101" class="st14" width="0.6" height="66.8"/>
		</g>
		<g>
			<rect x="1746" y="101" class="st14" width="0.6" height="66.8"/>
		</g>
		<g>
			<rect x="1791.3" y="101" class="st14" width="0.6" height="66.8"/>
		</g>
		<g>
			<rect x="1836.6" y="101" class="st14" width="0.6" height="66.8"/>
		</g>
		<rect x="1655.7" y="171.8" class="st3" width="7.2" height="2.3"/>
		<rect x="1655.7" y="92.8" class="st3" width="10.9" height="1.7"/>
		<rect x="1655.7" y="96" class="st3" width="15.4" height="1.7"/>
		<rect x="1700.5" y="92.8" class="st3" width="12.7" height="1.7"/>
		<rect x="1700.5" y="96" class="st3" width="8.1" height="1.7"/>
		<rect x="1746.6" y="92.8" class="st3" width="7.9" height="1.7"/>
		<rect x="1746.6" y="96" class="st3" width="9.2" height="1.7"/>
		<rect x="1791.9" y="92.8" class="st3" width="11.5" height="1.7"/>
		<rect x="1791.9" y="96" class="st3" width="9.2" height="1.7"/>
		<rect x="1836.9" y="92.8" class="st3" width="6.9" height="1.7"/>
		<rect x="1836.9" y="96" class="st3" width="5.5" height="1.7"/>
		<rect x="1701" y="171.8" class="st3" width="7.2" height="2.3"/>
		<rect x="1746.6" y="171.8" class="st3" width="7.2" height="2.3"/>
		<rect x="1791.9" y="171.8" class="st3" width="7.2" height="2.3"/>
		<rect x="1837.2" y="171.8" class="st3" width="7.2" height="2.3"/>
		<g>
			
				<radialGradient id="SVGID_7_" cx="-2968.8359" cy="1104.5779" r="259.6788" gradientTransform="matrix(0.25 0 0 0.25 2488.5259 -142.9736)" gradientUnits="userSpaceOnUse">
				<stop  offset="0.1602" style="stop-color:#9EC0E5"/>
				<stop  offset="0.5806" style="stop-color:#7DA9DA"/>
				<stop  offset="1" style="stop-color:#707DBC"/>
			</radialGradient>
			<path class="st15" d="M1821.2,148c-14.1,0-26.4-6.1-39.2-12.5c-15.8-7.9-32.2-16-53.9-13.8c-13.9,1.4-22.6,7.1-30.3,12.1
				c-7,4.5-13.6,8.5-22.5,8.8c-14.4,0.5-19.4-5.6-19.5-6v-3.9l0,0l0,0c0,0.1,3.2,7,19.5,6.9c8,0,14-3.9,20.9-8.4
				c8-5.2,17-11.1,31.7-12.6c22.7-2.3,39.4,6,55.6,14.1c16.9,8.4,33.1,16.3,53.6,9.5v3.2C1831.1,147.5,1826.4,148,1821.2,148z"/>
		</g>
		<g>
			<path class="st3" d="M1736.4,147.2c-10.4,0-18.7-7-26.8-13.9c-6.1-5.2-12.5-10.5-19.9-13.2c-22.4-8-33.9,6.6-34,6.7v-4.5
				c0.1-0.2,2.2-2.8,8.1-5.4c5.4-2.3,14.4-4.2,26.9,0.2c7.9,2.8,14.5,8.3,20.8,13.7c12.9,10.9,24,20.4,43.3,5.6
				c14.6-11.2,28.4-21.9,42-25.8c13.3-3.8,27.1-1,40.1,11.9l-0.1,4c-27.5-27.7-51-10.1-80.2,12.2
				C1749,145,1742.4,147.2,1736.4,147.2z"/>
		</g>
	</g>
	<g>
		<g>
			<g>
				<path class="st3" d="M1301.2,107.1c-6.7-20.6-25.3-34-45.7-35c-4.9-0.2-9.8,0.2-14.8,1.5c-1.1,0.3-2.2,0.6-3.3,0.9
					c-10.9,3.5-19.8,10.4-25.9,19.1c-8.8,12.6-11.8,29-6.7,44.7c1.7,5.2,4.1,9.9,7.1,14.1c12.5,17.3,35.2,25.4,56.6,18.5
					C1295.2,162.2,1309.8,133.7,1301.2,107.1z M1264.7,158.8c-16.1,5.2-33.1-0.9-42.4-13.9c-2.3-3.1-4.1-6.7-5.4-10.6
					c-3.8-11.8-1.6-24.1,5-33.5c4.6-6.5,11.2-11.7,19.4-14.3c0.8-0.3,1.6-0.5,2.4-0.7c3.7-0.9,7.4-1.3,11.1-1.1
					c15.3,0.7,29.3,10.8,34.3,26.3C1295.5,130.9,1284.6,152.3,1264.7,158.8z"/>
			</g>
		</g>
		<g>
			<g>
				<path class="st6" d="M1221.9,100.8l-10.4-7.3c-8.8,12.6-11.8,29-6.7,44.7c1.7,5.2,4.1,9.9,7.1,14.1l10.3-7.4
					c-2.3-3.1-4.1-6.7-5.4-10.6C1213.1,122.5,1215.3,110.2,1221.9,100.8z"/>
			</g>
		</g>
		<g>
			<g>
				<path class="st12" d="M1243.8,85.8l-3.1-12.3c-1.1,0.3-2.2,0.6-3.3,0.9c-10.9,3.5-19.8,10.4-25.9,19.1l10.4,7.3
					c4.6-6.5,11.2-11.7,19.4-14.3C1242.1,86.3,1242.9,86,1243.8,85.8z"/>
			</g>
		</g>
		<g>
			<g>
				<path class="st7" d="M1255.4,72.1c-4.9-0.2-9.8,0.2-14.8,1.5l3.1,12.3c3.7-0.9,7.4-1.3,11.1-1.1L1255.4,72.1z"/>
			</g>
		</g>
	</g>
	<g>
		<polygon class="st13" points="1253,209.2 1325.9,209.2 1325.9,208.1 1254.1,208.1 1254.1,173.4 1253,173.4 		"/>
	</g>
	<g>
		
			<rect x="1275.7" y="196.5" transform="matrix(-1 -1.224647e-16 1.224647e-16 -1 2601.6006 399.5984)" class="st8" width="50.2" height="6.7"/>
	</g>
	<g>
		<g>
			<path class="st16" d="M1790.6,435.3c0,0,1.4,24.9-3.2,28.5c-2.1,1.7-7.1,2.2-12.5,2.2c-1.8,0-3.6-0.1-5.4-0.1c0,0,0,0,0,0
				c-7.1-0.4-13.4-1.3-13.4-1.3s-18.3,0.9-17.4-10.4c0,0,2.1-3.4,4.9-4.2c2.5-0.7,14.1,1.3,16.1,1.4c2.2,0.1,17.8,3.6,18.5,3.3
				c0.7-0.2,2.5-6.4,2.6-10.5c0.2-5.9,0.1-11.4,0.1-11.4L1790.6,435.3z"/>
		</g>
		<g>
			<g>
				<path class="st17" d="M1782.8,427.2c0,0-1,4.2,0,5.4c0.9,1.2,1.3-0.3,1.3-0.3s-0.4,1.5,0.7,2c1.2,0.5,1.6-1.3,1.6-1.3
					s0,1.2,1.3,1.3c1.3,0.1,1.3-1.5,1.3-1.5s0.9,1.8,2,0.5c1.8-2.1,1.1-5.2,1.1-5.2s-0.2-0.7-1.5-0.7c0,0-0.5-1.8-2.5-1.1
					c0,0-1.6-1.5-2.6,0C1785.4,426.3,1783.6,424.8,1782.8,427.2z"/>
			</g>
		</g>
		<g>
			
				<ellipse transform="matrix(0.985 -0.1728 0.1728 0.985 -42.1368 310.8193)" class="st18" cx="1764" cy="397.4" rx="54.1" ry="54.1"/>
			<path class="st18" d="M1776.5,450l-18.7-106.3c28.2-3.3,54.4,16,59.4,44.4C1822.2,416.4,1804.1,443.5,1776.5,450z"/>
			<path class="st18" d="M1710.7,406.7c-4.4-24.9,9.1-48.9,31.2-58.7l18.1,103.3C1735.9,449.6,1715.1,431.7,1710.7,406.7z"/>
			
				<ellipse transform="matrix(2.604013e-02 -0.9997 0.9997 2.604013e-02 1320.7709 2150.4277)" class="st19" cx="1764" cy="397.4" rx="41.1" ry="41.1"/>
			<g>
				<path class="st20" d="M1763.3,380.7c-0.5,0-1.2,0.1-2,0.3c-0.8,0.2-1.7,0.5-2.6,0.9c-0.9,0.4-1.9,0.9-2.9,1.5
					c-1,0.6-1.9,1.3-2.7,2.1l9,8.5l1-0.7c1.9-1.2,3.6-2.2,5.3-3.1c1.7-0.8,3.2-1.4,4.7-1.6c1.5-0.2,3-0.1,4.4,0.3
					c1.4,0.4,2.8,1.3,4.2,2.6c1.5,1.5,2.6,3,3.2,4.6c0.6,1.6,0.8,3.2,0.6,4.9c-0.2,1.7-0.7,3.3-1.6,5c-0.9,1.6-2,3.2-3.3,4.7
					l4.6,4.3l-2.1,2.3l-4.7-4.4c-2.1,2-4.4,3.6-6.9,4.8c-2.5,1.3-5.1,2.1-7.8,2.5l-2.1-6.2c0.7,0,1.5-0.1,2.5-0.3c1-0.2,2-0.6,3.2-1
					c1.1-0.5,2.3-1,3.5-1.7c1.2-0.7,2.4-1.5,3.5-2.5l-9-8.5c-0.2,0.1-0.4,0.3-0.7,0.4c-0.2,0.1-0.4,0.3-0.7,0.4
					c-1.9,1.2-3.6,2.1-5.1,2.8c-1.5,0.7-3,1.2-4.3,1.3c-1.4,0.2-2.6,0-3.9-0.4c-1.2-0.4-2.5-1.2-3.7-2.4c-1.4-1.3-2.5-2.8-3.1-4.3
					c-0.6-1.5-0.9-3.1-0.9-4.8c0-1.7,0.4-3.3,1.1-4.9c0.7-1.6,1.7-3.2,2.9-4.8l-4.4-4.2l2.1-2.3l4.4,4.2c1.9-1.8,3.9-3.2,6.1-4.2
					c2.1-1,4.3-1.7,6.3-2.1L1763.3,380.7z M1750.9,396.2c1.2,1.2,2.5,1.6,4,1.3c1.4-0.3,3.2-1.1,5.3-2.4l-8.6-8.1
					c-1.6,1.9-2.4,3.6-2.5,5.1C1749,393.7,1749.6,395,1750.9,396.2z M1777.3,397.2c-1.3-1.2-2.7-1.6-4.3-1.2
					c-1.6,0.4-3.5,1.3-5.8,2.6l8.7,8.1c1.7-1.9,2.7-3.7,3-5.3C1779,399.9,1778.5,398.4,1777.3,397.2z"/>
			</g>
			<path class="st21" d="M1784.9,447.2c22.8-9.6,36.7-33.9,32.3-59.2c-4.4-25.3-25.9-43.4-50.5-44.7L1784.9,447.2z"/>
			<path class="st21" d="M1760,451.3L1741.9,348c4-1.8,8.2-3.1,12.7-3.9c1.1-0.2,2.1-0.3,3.2-0.5l18.7,106.3c-1,0.2-2.1,0.5-3.2,0.7
				C1768.8,451.4,1764.4,451.6,1760,451.3z"/>
		</g>
		<path class="st22" d="M1693.6,671.7c0,0-1.5,3.7-2.8,5.2c-1.3,1.5-6.3,4.1-6.3,8.5c0,4.7,8.4,3.4,11.7,3.2
			c3.3-0.2,3.5-2.7,4.9-5.4c1.4-2.7,2.8-2.2,3-4.4c0.3-2.2-1.1-7-1.1-7L1693.6,671.7z"/>
		<g>
			<path class="st22" d="M1759.3,672.5c0,0,4.6,4.8,9.2,5.8c4.6,1,7.9,2.3,7.9,5c0,2.8-13.4,4.6-18.7,1.8c-7.9-4.2-8.7-2.9-9.6-5
				c-0.9-2.1,1.1-7.6,1-8.3C1749.1,671.1,1759.3,672.5,1759.3,672.5z"/>
		</g>
		<g>
			<path class="st23" d="M1758.8,533.8c0,0,4.8,34.9,6.8,46.7c2.3,13.8,3.1,25.2,3.7,32.3c0.8,9-7.6,57.3-7.1,59.9
				c0.6,2.6-15.2-1.1-15.2-1.1s4.9-57.5,2.5-67.1c-2.2-8.9-10.3-48.1-12.3-45.6c-2,2.4-14.8,45.4-16.3,52.4c-1.5,7-16.1,62-16.1,62
				s-10.9,2.3-13.6,0.1c0,0,9.5-50.5,10.5-63.7c0.4-5,3.3-59.8,11.8-82.1C1718,516.1,1758.8,533.8,1758.8,533.8z"/>
		</g>
		<g>
			<path class="st24" d="M1695.6,533.2c0,0,6,1.8,8.5,1.4c2.5-0.5,1.2-31.1,1.3-37.5c0.1-5.2,2.9-18.8,2.9-18.8s0,0,0,0c0,0,0,0,0,0
				c0,0,0,0,0,0c0.3,1,4.1,15.2,4.2,22c0.1,7.1-0.9,34.1-0.9,34.1l10.5,1l30.3,0.7l6.3-0.7c0,0-0.8-11.6-1-17.1
				c-0.2-3.5-0.9-9.7-0.7-15.8c0,0-0.1-6.4,0.5-9.2c0.1-12.2,0.8-24.3,0.8-24.3c0.4-5.5,0.7-10.7,0.9-15.5c-1.3-0.7-2.9-1.5-4.2-2.1
				c-4-1.9-9.5-4.4-13.1-6.1c-2.1-1-4.1-1.7-4.1-1.7s-14.2-1.4-15.4-1.3c-0.4,0-2.1,0.6-4.5,1.5c-5,1.9-14.7,5.8-16.3,6.9
				c-2.3,1.6-7.1,40.2-7.3,42.9C1694,498.6,1695.6,533.2,1695.6,533.2z"/>
		</g>
		<path class="st25" d="M1757.8,530.6c0,0-20.8,1.8-39,0v6c0,0,27.3,3.9,39.9-1.1L1757.8,530.6z"/>
		<g>
			<path class="st16" d="M1740.1,444.6c0,0,3.4,7.9,5.9,25.7c1,6.8,2.8,18.3,4.1,30v0c1,9.2,3.4,18.7,4.1,25.8
				c0.8,7.3,3.1,28.9,3.1,28.9l5.7-3.6c0.8-0.8,1.9-1.7,1.6-2.8c-1.6-5-4.6-21.7-6.3-36.3c0,0,0,0,0,0c-0.1-0.7-0.2-1.4-0.2-2.1
				c0,0,0-0.1,0-0.1c-0.3-2.9-0.6-5.7-0.8-8.2c-0.2-2,0-3.9,0.3-5.7c0.8-13.1,1.2-26.8,1.2-26.8c0.4-5.6,1.5-12.9,1.6-17.8
				c-2-0.3-3.4-0.5-5-1C1755.3,450.4,1744.1,446.2,1740.1,444.6z"/>
		</g>
		<path class="st26" d="M1739,448.7c0,0,0.4,5.4-4.2,5.6c-4.6,0.1-8.2-4.3-8.2-4.3l7.6,2l4.6-3.9L1739,448.7z"/>
		<g>
			<path class="st27" d="M1732.8,407.1c0,0,10.5,1.8,8.8,18.3c-1.8,16.5-11.1,15-11.7,15c-0.6,0-9.4,0.2-9.8-20
				C1720,420.4,1719.9,405.5,1732.8,407.1z"/>
		</g>
		<g>
			<path class="st27" d="M1737.4,435.6c0,0,0,6.8,0.3,8.3c0.3,1.6-8.5,6.2-14.1,0.8c0,0,1.1-7.4,0.8-10
				C1724,432,1737.4,435.6,1737.4,435.6z"/>
		</g>
		<g>
			<path class="st27" d="M1741.6,421.5c0,0,1.2-1.2,1.6,0c0.4,1.3-1.5,6.6-1.7,7.1c0,0-0.2,0.5-0.5,0.2
				C1740.7,428.6,1741.6,421.5,1741.6,421.5z"/>
		</g>
		<g>
			<path class="st27" d="M1720.1,420.3c0,0-1.1-1.3-1.6,0c-0.5,1.2,1.2,6.8,1.4,7.1c0,0,0.4,0.6,0.6,0.3
				C1720.9,427.4,1720.1,420.3,1720.1,420.3z"/>
		</g>
		<g>
			<path class="st23" d="M1742.4,419.3c-0.4,2.3-0.7,3.9-0.7,3.9l-1.5,2c0,0,0.1-4.4-0.1-5.1c-0.1-0.3-0.2-0.7-0.3-1.2
				c-0.2-0.8-0.4-1.8-0.5-2.1c-0.2-0.5-9-3.1-16.9,0.5c0,0,0.1,0.7,0.1,1.4c0,0.9-0.1,1.9-0.5,2c-0.8,0.3-0.4,5.2-0.4,5.2l-1.2-1.4
				c0,0-0.4-2.6-0.7-5.5c0,0,0,0,0,0c-0.1-0.7-0.2-1.4-0.2-2.1c-0.2-3,0.1-8.3,4-11.5c2.6-1.1,6.8-2.1,13.7,0.1c0,0,1.6,0.1,2,0.5
				C1743.3,410.8,1742.4,419.3,1742.4,419.3z"/>
		</g>
		<path class="st28" d="M1725.1,438.2c0,0,1.7,2.3,5.6,2.2c3.9-0.1,5.6-2.1,5.6-2.1s-1.8,3.9-5.6,3.8
			C1726.9,442.1,1725.1,438.2,1725.1,438.2z"/>
		<path class="st29" d="M1738.1,449l-3.9,2.9c0,0,3.3-7,3.4-9.8L1738.1,449z"/>
		<polygon class="st30" points="1737.5,442.1 1740.2,444.6 1743,453 1738.1,449 		"/>
		<path class="st27" d="M1737,444.6c0,0-1.1,3.8-2.9,7.3c0,0-4.1-3.6-5.4-4.9C1727.4,445.7,1737,444.6,1737,444.6z"/>
		<path class="st29" d="M1729.9,447.9l4.3,4c0,0-5.1-0.3-6.1-1.2L1729.9,447.9z"/>
		<path class="st30" d="M1724.1,440.5c0,0,3.5,5.6,5.7,7.4l-3.8,6.4l-6.1-11.2L1724.1,440.5z"/>
		<g>
			<path class="st16" d="M1705.8,497.4c-0.4,5.9,2.1,38.7-0.4,39.1c-2.5,0.5-11.7-1.6-11.7-1.6s-1.2-35.3-0.8-39
				c0.3-2.7,4.6-43.1,6.8-44.8c1.3-0.9,11-4.4,15.8-6.3c0.9-0.3,3.6-1.5,4.4-1.8c1,1.1,9.8,21.8,10.6,37.9
				c0.3,4.9-0.9,15.2-1.8,23.7c-0.9,9-2,16.1-2.7,23.6c-1.5,14.9-2.5,26.7-2.5,26.7l-14.8-6.6c-2.4-1.2-5.7-6.1-4.8-8.6
				c3.4-9.6,7.7-25.9,7.7-34.3c0,0-1.6-20.6-3-25.1C1708.7,480.3,1706.3,489.8,1705.8,497.4z"/>
		</g>
		<path class="st17" d="M1693.6,551.8c0,0-0.5-1.2-0.5-1.9c0,0,0.2-1.2,0.2-2c0-0.3,0-0.5,0-0.6c0-0.6-0.3-2,0.1-3.5
			c0.3-1.5,2.1-6.8,2.1-6.8l4.7,0.7l4.1-0.6c0,0,3.1,9,2.9,10.4c0,0.1,0,0.3-0.1,0.4c-0.3,1.2-1,2-1.2,2.6c-0.1,0.2-1,2.5-1.7,2.7
			c-1,0.3-1.7,0.1-2.3-0.3c0,0-1.9,0.5-3.1,0c0,0-1.7,0.5-3-0.6C1696.1,552.3,1694.3,552.6,1693.6,551.8z"/>
		<g>
			<path class="st16" d="M1706.2,513.9l-0.2,26c0,0-5.2-0.2-12.4-2.9l-0.5-36.7L1706.2,513.9z"/>
		</g>
		<rect x="1733.2" y="531" class="st31" width="9.8" height="7.3"/>
	</g>
	<g>
		<linearGradient id="SVGID_8_" gradientUnits="userSpaceOnUse" x1="1558.5586" y1="669.4866" x2="1663.9709" y2="669.4866">
			<stop  offset="0" style="stop-color:#E69147"/>
			<stop  offset="1" style="stop-color:#F1CC53"/>
		</linearGradient>
		<rect x="1558.6" y="663.1" class="st32" width="105.4" height="12.8"/>
		<linearGradient id="SVGID_9_" gradientUnits="userSpaceOnUse" x1="1555.2551" y1="656.6889" x2="1660.6669" y2="656.6889">
			<stop  offset="0" style="stop-color:#DB8438"/>
			<stop  offset="1" style="stop-color:#E4C04B"/>
		</linearGradient>
		<rect x="1555.3" y="650.3" class="st33" width="105.4" height="12.8"/>
		<linearGradient id="SVGID_10_" gradientUnits="userSpaceOnUse" x1="1552.913" y1="643.8918" x2="1658.3248" y2="643.8918">
			<stop  offset="0" style="stop-color:#E69147"/>
			<stop  offset="1" style="stop-color:#F1CC53"/>
		</linearGradient>
		<rect x="1552.9" y="637.5" class="st34" width="105.4" height="12.8"/>
		<linearGradient id="SVGID_11_" gradientUnits="userSpaceOnUse" x1="1557.2158" y1="631.0948" x2="1662.6282" y2="631.0948">
			<stop  offset="0" style="stop-color:#DB8438"/>
			<stop  offset="1" style="stop-color:#E4C04B"/>
		</linearGradient>
		<rect x="1557.2" y="624.7" class="st35" width="105.4" height="12.8"/>
		<g>
			<linearGradient id="SVGID_12_" gradientUnits="userSpaceOnUse" x1="1551.3125" y1="618.318" x2="1656.7247" y2="618.318">
				<stop  offset="0" style="stop-color:#DB8438"/>
				<stop  offset="1" style="stop-color:#E4C04B"/>
			</linearGradient>
			<rect x="1551.3" y="611.9" class="st36" width="105.4" height="12.8"/>
			<linearGradient id="SVGID_13_" gradientUnits="userSpaceOnUse" x1="1549.1626" y1="605.52" x2="1654.5748" y2="605.52">
				<stop  offset="0" style="stop-color:#E69147"/>
				<stop  offset="1" style="stop-color:#F1CC53"/>
			</linearGradient>
			<rect x="1549.2" y="599.1" class="st37" width="105.4" height="12.8"/>
			<linearGradient id="SVGID_14_" gradientUnits="userSpaceOnUse" x1="1551.3125" y1="592.723" x2="1656.7247" y2="592.723">
				<stop  offset="0" style="stop-color:#DB8438"/>
				<stop  offset="1" style="stop-color:#E4C04B"/>
			</linearGradient>
			<rect x="1551.3" y="586.3" class="st38" width="105.4" height="12.8"/>
			<linearGradient id="SVGID_15_" gradientUnits="userSpaceOnUse" x1="1553.1138" y1="579.926" x2="1658.5256" y2="579.926">
				<stop  offset="0" style="stop-color:#E69147"/>
				<stop  offset="1" style="stop-color:#F1CC53"/>
			</linearGradient>
			<rect x="1553.1" y="573.5" class="st39" width="105.4" height="12.8"/>
			<linearGradient id="SVGID_16_" gradientUnits="userSpaceOnUse" x1="1549.8113" y1="567.1282" x2="1655.2216" y2="567.1282">
				<stop  offset="0" style="stop-color:#DB8438"/>
				<stop  offset="1" style="stop-color:#E4C04B"/>
			</linearGradient>
			<rect x="1549.8" y="560.7" class="st40" width="105.4" height="12.8"/>
			<linearGradient id="SVGID_17_" gradientUnits="userSpaceOnUse" x1="1547.4677" y1="554.3304" x2="1652.8799" y2="554.3304">
				<stop  offset="0" style="stop-color:#E69147"/>
				<stop  offset="1" style="stop-color:#F1CC53"/>
			</linearGradient>
			<rect x="1547.5" y="547.9" class="st41" width="105.4" height="12.8"/>
			<linearGradient id="SVGID_18_" gradientUnits="userSpaceOnUse" x1="1551.771" y1="541.5334" x2="1657.1827" y2="541.5334">
				<stop  offset="0" style="stop-color:#DB8438"/>
				<stop  offset="1" style="stop-color:#E4C04B"/>
			</linearGradient>
			<rect x="1551.8" y="535.1" class="st42" width="105.4" height="12.8"/>
			
				<linearGradient id="SVGID_19_" gradientUnits="userSpaceOnUse" x1="2326.7571" y1="-1111.8951" x2="2432.6265" y2="-1111.8951" gradientTransform="matrix(0.9754 0.2204 -0.2204 0.9754 -952.0862 1089.3334)">
				<stop  offset="0" style="stop-color:#E69147"/>
				<stop  offset="1" style="stop-color:#F1CC53"/>
			</linearGradient>
			<polygon class="st43" points="1666.7,536.9 1561.3,534.4 1561.6,521.6 1667,524.1 			"/>
		</g>
	</g>
	<g>
		<linearGradient id="SVGID_20_" gradientUnits="userSpaceOnUse" x1="1418.1381" y1="657.6102" x2="1525.8683" y2="657.6102">
			<stop  offset="0" style="stop-color:#E69147"/>
			<stop  offset="1" style="stop-color:#F1CC53"/>
		</linearGradient>
		<rect x="1418.1" y="651.1" class="st44" width="107.7" height="13.1"/>
		<linearGradient id="SVGID_21_" gradientUnits="userSpaceOnUse" x1="1422.0671" y1="644.5313" x2="1529.7974" y2="644.5313">
			<stop  offset="0" style="stop-color:#DB8438"/>
			<stop  offset="1" style="stop-color:#E4C04B"/>
		</linearGradient>
		<rect x="1422.1" y="638" class="st45" width="107.7" height="13.1"/>
		<linearGradient id="SVGID_22_" gradientUnits="userSpaceOnUse" x1="1419.8704" y1="631.452" x2="1527.6021" y2="631.452">
			<stop  offset="0" style="stop-color:#E69147"/>
			<stop  offset="1" style="stop-color:#F1CC53"/>
		</linearGradient>
		<rect x="1419.9" y="624.9" class="st46" width="107.7" height="13.1"/>
		<linearGradient id="SVGID_23_" gradientUnits="userSpaceOnUse" x1="1422.0671" y1="618.3735" x2="1529.7974" y2="618.3735">
			<stop  offset="0" style="stop-color:#DB8438"/>
			<stop  offset="1" style="stop-color:#E4C04B"/>
		</linearGradient>
		<rect x="1422.1" y="611.8" class="st47" width="107.7" height="13.1"/>
		<linearGradient id="SVGID_24_" gradientUnits="userSpaceOnUse" x1="1423.9067" y1="605.2943" x2="1531.639" y2="605.2943">
			<stop  offset="0" style="stop-color:#E69147"/>
			<stop  offset="1" style="stop-color:#F1CC53"/>
		</linearGradient>
		<rect x="1423.9" y="598.8" class="st48" width="107.7" height="13.1"/>
		<linearGradient id="SVGID_25_" gradientUnits="userSpaceOnUse" x1="1426.6702" y1="670.1477" x2="1534.4003" y2="670.1477">
			<stop  offset="0" style="stop-color:#DB8438"/>
			<stop  offset="1" style="stop-color:#E4C04B"/>
		</linearGradient>
		<rect x="1426.7" y="663.6" class="st49" width="107.7" height="13.1"/>
	</g>
	<g>
		<g>
			<g>
				<path class="st17" d="M1402.9,526.5c0,0,3.9,1.4,5.6-0.3c1.4-1.4,4.3-2.3,5.1-2.6c1.2-0.4,4.4-2.8,4.8-1.3
					c0.5,1.5-5.1,4.3-6.1,5.1c-1,0.8,4.8,2.1,5.6,3.1c0.9,1.1-1.8,10.6-5.6,9.2c-3.9-1.3-7.2-5.3-7.9-5.4c-0.7-0.1-2.9-0.9-2.9-0.9
					L1402.9,526.5z"/>
			</g>
		</g>
		<g>
			<g>
				<path class="st17" d="M1417.1,530c0,0,11.6,4.9,12.1,5.8c0.5,1,0.2,1.6-0.9,1.2c-1.1-0.4-11.4-4.4-11.4-4.4s12.8,8.1,13.4,8.8
					c0.3,0.4-0.2,1.6-0.8,1.5c-0.6-0.2-13.7-7.4-13.7-7.4s11.9,7.5,12.2,8.3c0.3,0.6-0.5,1.6-1.4,1.1c-0.9-0.5-12.4-6.9-12.4-6.9
					s8.3,6,8.2,6.8c-0.1,0.5-0.5,1.6-2.6-0.1c-2.1-1.6-7.5-4.9-7.5-4.9L1417.1,530z"/>
			</g>
		</g>
		<path class="st23" d="M1350.6,470.1c0,0,15.8,23.7,24.8,32.4c2.8,2.7,31.1,21.9,32.2,23c1.1,1.1-2.8,10.5-2.8,10.5
			s-36.2-20.9-38.3-22.2c-2.1-1.3-28.4-31.4-29.6-35.6c-1.3-4.2-0.8-9.1,3.4-11C1346.4,464.6,1350.6,470.1,1350.6,470.1z"/>
		<g>
			
				<ellipse transform="matrix(0.985 -0.1728 0.1728 0.985 -68.2655 257.056)" class="st18" cx="1442.1" cy="520.6" rx="55.3" ry="55.3"/>
			<path class="st18" d="M1454.9,574.4l-19.1-108.8c28.9-3.3,55.7,16.4,60.8,45.4C1501.7,540,1483.2,567.7,1454.9,574.4z"/>
			<path class="st18" d="M1387.6,530.1c-4.5-25.5,9.3-50,31.9-60.1l18.6,105.7C1413.4,574,1392.1,555.7,1387.6,530.1z"/>
			
				<ellipse transform="matrix(2.602057e-02 -0.9997 0.9997 2.602057e-02 884.2146 1948.6843)" class="st19" cx="1442.1" cy="520.6" rx="42.1" ry="42.1"/>
			<g>
				<path class="st20" d="M1457.7,515.1c-0.2-0.5-0.6-1.1-1.2-1.7c-0.6-0.7-1.2-1.3-2-2c-0.8-0.7-1.7-1.3-2.7-2
					c-1-0.6-2-1.1-3.2-1.6l-3.7,12.2l1,0.6c2,1.1,3.7,2.3,5.2,3.4c1.5,1.1,2.7,2.3,3.6,3.6c0.9,1.3,1.5,2.6,1.7,4.1
					c0.3,1.5,0.1,3.2-0.5,5.1c-0.6,2.1-1.5,3.7-2.7,5c-1.2,1.2-2.6,2.2-4.2,2.7c-1.6,0.6-3.4,0.9-5.3,0.8c-1.9,0-3.8-0.3-5.9-0.9
					l-1.9,6.2l-3.1-0.9l1.9-6.3c-2.8-1-5.3-2.4-7.6-4.1c-2.3-1.7-4.2-3.7-5.8-6l4.7-4.7c0.3,0.6,0.8,1.3,1.4,2.1
					c0.7,0.8,1.5,1.6,2.4,2.5c0.9,0.8,2,1.7,3.2,2.4c1.2,0.8,2.5,1.5,3.8,2.1l3.7-12.2c-0.2-0.1-0.4-0.3-0.7-0.4
					c-0.2-0.1-0.5-0.3-0.7-0.4c-1.9-1.2-3.6-2.3-4.9-3.4c-1.4-1.1-2.4-2.2-3.2-3.4c-0.8-1.2-1.2-2.4-1.4-3.7c-0.2-1.3,0-2.8,0.5-4.4
					c0.6-1.9,1.4-3.5,2.5-4.8c1.1-1.3,2.4-2.3,4-3c1.5-0.7,3.2-1.1,5-1.2c1.8-0.1,3.7,0,5.7,0.5l1.8-5.9l3.1,0.9l-1.8,5.9
					c2.5,0.9,4.7,2.1,6.6,3.7c1.9,1.5,3.5,3.1,4.8,4.8L1457.7,515.1z M1437.8,510.7c-0.5,1.6-0.3,3.1,0.6,4.2
					c0.9,1.2,2.4,2.4,4.6,3.8l3.5-11.6c-2.4-0.6-4.4-0.6-5.8,0.1C1439.3,507.9,1438.3,509.1,1437.8,510.7z M1448.9,535.4
					c0.5-1.7,0.2-3.2-0.9-4.5c-1.1-1.3-2.8-2.7-5-4.1l-3.5,11.6c2.5,0.7,4.6,0.8,6.2,0.3C1447.4,538.2,1448.4,537.1,1448.9,535.4z"
					/>
			</g>
			<path class="st21" d="M1463.6,571.6c23.3-9.8,37.6-34.7,33-60.6c-4.5-25.9-26.5-44.5-51.7-45.7L1463.6,571.6z"/>
			<path class="st21" d="M1438.1,575.8L1419.6,470c4.1-1.8,8.4-3.2,13-4c1.1-0.2,2.2-0.3,3.3-0.5l19.1,108.8
				c-1.1,0.3-2.1,0.5-3.2,0.7C1447.1,575.9,1442.6,576.1,1438.1,575.8z"/>
		</g>
		<g>
			<path class="st50" d="M1296.1,665.2c0,0,1.8,0.8,4.4,2.2c2.6,1.4,5.6,2.9,9.4,3.2c3.7,0.3,7.6,1.6,7.4,5.2
				c-0.3,3.6-12.2,4.7-23.4,2.7c-11.2-2-11.4-2.2-11.5-3.1c-0.1-0.9,0.8-9.7,1.2-10.1C1284.1,664.9,1296.1,665.2,1296.1,665.2z"/>
		</g>
		<g>
			<path class="st51" d="M1297.1,661.2c0,0-0.8,4-0.9,4.5c0,0.5-13.5,2.7-12.8,0c0.8-2.9,4.9-8.7,4.9-8.7L1297.1,661.2z"/>
		</g>
		<g>
			<path class="st52" d="M1345.4,568.6c-1.1-11-37.7-34.8-39.4-24.4c-1.8,10.4,13.3,34.3,14.3,42.1c0.9,7.8,0.2,9.8-5.8,16.6
				c-5.9,6.7-30.8,56.5-30.8,56.5c0.7,3.8,13.8,5,14.1,4.1c0.4-0.8,35.6-47.4,37.5-49.2c1.9-1.8,8.9-9.7,9.9-13.6
				c0.7-2.5,1.8-13.3,1.1-20.9C1346.4,579.9,1345.6,569.5,1345.4,568.6z"/>
		</g>
		<g>
			<path class="st50" d="M1367.1,664.7c0,0,2.4,0.4,5.1,1.8c2.7,1.4,6.4,3.8,10.2,4.1c3.8,0.3,8.1,1.8,7.9,5.4
				c-0.3,3.6-12.8,4.6-24.2,2.6c-11.4-2-11.6-2.3-11.7-3.1c-0.1-0.9,0.3-7.7,1-9.4C1355.5,665.5,1367.1,664.7,1367.1,664.7z"/>
		</g>
		<g>
			<path class="st51" d="M1370.9,661.8c0,0-1.1,3.3-0.8,3.8c0.3,0.5-15.2,1.7-14.8,0.5c0.2-0.7,2.4-5.4,3.5-7.9
				C1359.8,656.1,1370.9,661.8,1370.9,661.8z"/>
		</g>
		<g>
			<path class="st52" d="M1356.1,539.6c0,0,42.4,32.1,47.1,38.7c4.7,6.6-0.6,16.3-1.3,19.5c-0.7,3.2-30.4,60.2-30.7,65.7
				c0,0-12.9,1.8-16.3-2.4c0,0,18.8-54.9,21.9-65.2c3-10.3-10.5-11.9-18.8-15.6c-8.3-3.7-44.9-25.2-47.1-33.3
				c-1.9-7.4,0-12.9,0-12.9S1321.1,527.4,1356.1,539.6z"/>
		</g>
		<g>
			<path class="st53" d="M1359.6,460.9c0,0,3.2,14,2.4,21.7c-0.8,7.7-8.7,27.3-9.3,31.6c-0.6,4.3,3.4,25.4,3.4,25.4l-47.6,7.2
				c0,0,0.1-12.3,1.8-27c1.7-14.6,7.3-26.2,9.2-34.5c6.6-28.2,30.7-32.2,30.7-32.2L1359.6,460.9z"/>
		</g>
		<g>
			<path class="st54" d="M1382.6,429.5c0,0,3.1,7.5,1.1,8.4c-1.7,0.7,1,8.1,1.3,9.3c0.3,1.2-3.1,1.7-3.8,2.3
				c-0.8,0.7-3.8,9.5-6.5,9.5c-2.7,0-14.5-5.5-17.5-9.4c-3-3.8-4.1-19.7-1.1-26.1C1358.9,417.2,1377.1,416.4,1382.6,429.5z"/>
		</g>
		<g>
			<path class="st54" d="M1366.7,456.2c0,0-0.4,0.7-1,1.8c-0.3,0.4-0.5,1-0.8,1.5c-0.2,0.4-0.5,0.9-0.7,1.4c-1.6,3-3.4,6.6-3.8,8.4
				c-0.7,3.4-8.6-15.8-8.6-15.8s5.7-9.9,10.2-21.7C1366.4,419.8,1366.7,456.2,1366.7,456.2z"/>
		</g>
		<g>
			<path class="st52" d="M1383.2,431.2c0,0,4.7-7.3-1.8-13.7c-6.5-6.4-20.7,2.2-22.2,2.4c-1.5,0.2-9.8-0.1-7.3,15.1
				c2.2,13.2,2.9,12.8,2.9,12.8s3.3-6.2,5-7.2c2.6-1.5,7.8-0.5,7.8-0.5s-1.8-6.9,2.2-7.5C1373.9,432.1,1379.4,429.3,1383.2,431.2z"
				/>
		</g>
		<g>
			<path class="st54" d="M1363.9,435.8c-0.3-1-1-5-4.6-3c-3.6,2,1.1,9.9,1.7,10.1C1361.5,443,1366,443.8,1363.9,435.8z"/>
		</g>
		<g>
			<path class="st55" d="M1352.6,451.9c0,0,4.9,11.5,9.1,15.4l-2,6.8l-9.6-20.9L1352.6,451.9z"/>
		</g>
		<polygon class="st56" points="1356.1,539.6 1355.3,535.2 1308.6,542 1308.5,546.8 		"/>
		<g>
			<path class="st16" d="M1358.3,487.8c-1.2,2.5-2.4,5-3.4,7.5v0c-2.4,5.5-4.5,11.2-6.4,16.7c-0.7,2-1.3,3.9-1.9,5.8
				c-7.3,23-21.6,38.9-21.6,38.9s-18.7-3.5-22.7-7.1c0,0,4.1-26.9,12.8-52.3c0.7-2,1.4-3.9,2.1-5.8c0,0,0,0,0,0
				c6.5-25,18.7-38.3,33.1-38.3C1350.4,453.5,1364.6,474.9,1358.3,487.8z"/>
		</g>
		<path class="st16" d="M1314.3,499.2c0,0-6.1,26.6-21.6,47.6c-2.1,2.8,20.3,7.2,20.3,7.2L1314.3,499.2z"/>
		<path class="st57" d="M1335.6,478.5c-6.3,5.5-20.6,18.9-20.6,18.9c0.7-2,1.4-3.9,2.1-5.8c0,0,0,0,0,0
			C1322,487.5,1335.4,478.6,1335.6,478.5z"/>
		<path class="st58" d="M1366.7,456.2c0,0-0.4,0.7-1,1.8c-0.3,0.4-0.5,1-0.8,1.5c-6-5.5-7.2-9.2-7.2-9.3
			C1360.4,452.7,1366.7,456.2,1366.7,456.2z"/>
		<g>
			<g>
				<path class="st59" d="M1361.9,473.9c0,0-4.3,16.6-18.9,16.3c-13.1-0.3-32.7,4.2-39.4,8.6l-8.3,5.8l2.7-8.6c0,0,6.9-13.3,45-7.6
					c0,0,11.5,3.4,17.4-16.5C1360.4,471.9,1362.2,473.1,1361.9,473.9z"/>
			</g>
		</g>
		<path class="st59" d="M1361.7,467.6c0,0,0.7,4.7,0.2,6.4c-0.2,0.6-2-0.4-2-0.4L1361.7,467.6z"/>
		<g>
			<path class="st54" d="M1416.7,518.1c0,0,1,0.8,2.1,0.8c1.8-0.1,3.9-2.1,5.8-0.3c2,1.8-1.9,9.6-3.3,10.5c-1.4,0.9-4.8-0.6-8.4-4.8
				C1409.2,520.1,1416.7,518.1,1416.7,518.1z"/>
		</g>
		<g>
			<path class="st54" d="M1423.8,518.1c0,0,3.7,1.2,7.7,3c3.5,1.6,7.6,4.1,7.2,5c-0.6,1.3-3.8-1.1-7.3-2.4c-3.3-1.3-2.9-0.4-2.9-0.4
				s-0.1-0.2,3.2,1.8c3.6,2.2,7.3,4.8,7,5.5c-0.4,0.9-0.5,1-1.9,0.4c0.8,0.5,0.7,0.8,0.5,1.1c-1,1.7-6.7-0.7-9-1.7
				c1.8,0.8,3,1.5,1.7,2.2c-1.5,0.8-9.5-3.1-12.5-4.2C1414.3,527.3,1423.8,518.1,1423.8,518.1z"/>
		</g>
		<path class="st16" d="M1353.4,461.5c0,0,18.5,25.1,28.8,34.1c3.2,2.8,35.6,20.5,36.9,21.6c1.2,1.1-3,13.5-3,13.5
			s-40.6-21-42.9-22.3c-2.4-1.3-34.6-37.7-36.2-42.2c-1.6-4.5,0.7-5,5.2-7.3C1348.4,455.6,1353.4,461.5,1353.4,461.5z"/>
	</g>
	<g>
		<g>
			<g>
				<g>
					<path class="st60" d="M1216.4,407.4c0,0,9.3,4.6,7,16.9c-2.3,12.4-3.3,14.1-0.7,18.9c2.6,4.8,5.6,25.5,3.3,29.4
						c-2.3,3.9-28.7-17.2-32.3-34.9c-3.7-17.7,2.3-25.6,4.4-28.5C1200.1,406.2,1208.1,403.2,1216.4,407.4z"/>
				</g>
			</g>
		</g>
		<g>
			<path class="st16" d="M1218.9,452.1c0,0,4.7,1,7.4,4.9c1.9,2.7,2,8.8,2.3,9.9c0.3,1.1,3.8,14,3.8,14l-9.9,6.6L1218.9,452.1z"/>
		</g>
		<g>
			<path class="st61" d="M1255.4,672.7c0,0,6.4,8.7,5.6,10c-0.9,1.4-7.7,1.6-11.8,0c-4.1-1.6-4.2-11.7-6.1-16.1
				c-0.8-1.8,0.9-7.2,3.2-7.6c2.4-0.4,4.9,0.8,4.9,0.8S1248.8,666,1255.4,672.7z"/>
		</g>
		<g>
			<g>
				<path class="st54" d="M1251.3,659.7c0,0,1.4,3.7,1.9,7.2c0.4,2.9,4.6,9.1,4.4,9.9c-0.2,0.8-5.5,1.5-7.7-0.5
					c-2.2-2-3.6-7.9-4-11.4c-0.4-3.3-1-4.9-1-4.9S1249.2,657.6,1251.3,659.7z"/>
			</g>
		</g>
		<g>
			<path class="st61" d="M1199.3,672.9c0,0,6.2,8.5,5.3,9.9c-0.9,1.4-7.7,1.6-11.8,0c-4.1-1.6-4.2-11.7-6.1-16.1
				c-0.8-1.8,0.9-7.2,3.2-7.6c2.3-0.4,5.1,0.8,5.1,0.8S1192.7,666.1,1199.3,672.9z"/>
		</g>
		<g>
			<g>
				<path class="st54" d="M1195.1,659.9c0,0,0.5,4,1.3,6.9c0.8,2.8,5,9.3,4.8,10.1c-0.2,0.8-5.5,1.5-7.7-0.5c-2.2-2-3.8-7.9-4-11.4
					c-0.2-3.5,0.5-5.9,0.5-5.9S1193.1,657.7,1195.1,659.9z"/>
			</g>
		</g>
		<g>
			<g>
				<path class="st54" d="M1226.2,518.7c0,0,5.5,25.7,6.8,32.2c1.3,6.5,4.8,37.8,5.2,43.2c0.4,5.3,5.8,25.4,5.5,27.3
					c-0.3,1.9,8,40.2,8,40.2s-2.8,2.3-5.8,0.2c-1.5-1.1-18.1-35.8-18.1-45.3c0-13.2-9.7-30.3-11-33.3c-11.7-27.4-9.4-35.7-10.9-37.5
					c-1.5-1.8-1.7,1.1-2.5,5c-0.9,3.9-2.8,38-3.9,42.3c-1.1,4.3-0.3,18.9-0.9,26.3c-0.6,7.4-3.4,40.7-3.4,40.7s-2.2,3.4-5.2,0.1
					c-0.7-0.7-5.2-37.1-5.4-45.9c-0.1-8.8-0.3-20.8-0.5-24.6c-2.4-36.3-8.1-41.5,1-67.2C1202.1,474.2,1226.2,518.7,1226.2,518.7z"/>
			</g>
		</g>
		<g>
			<path class="st62" d="M1189.1,511.5c0,0-15.7,22-9,68.9c0,0,37.4,5.1,57.4-5.9c0,0-8.3-48.3-11.3-55.9
				C1223.2,511.2,1189.1,511.5,1189.1,511.5z"/>
		</g>
		<g>
			<polygon class="st61" points="1242.9,665.9 1242.9,675 1244.1,675 1244.1,668 			"/>
		</g>
		<g>
			<polygon class="st61" points="1186.6,665.9 1186.6,675 1187.8,675 1187.8,668 			"/>
		</g>
		<g>
			<path class="st55" d="M1210.2,448.9c0,0,5.8,2.7,7.8,3.1c2,0.4,9.8,10.6,11.2,14.3c1.4,3.7,0,9.3-2.8,15.8
				c-2.8,6.5-0.2,8.7-1.5,15.2c-1.3,6.5-2.4,20.3-2.2,24c0.2,3.6-32.6,4.3-40.1-2.3c0,0,7.5-11.3,8.5-12.9c1-1.6,0.2-10.4-0.7-12.7
				c-0.9-2.3-6.8-21.4-6.8-21.4s-4.8-14.7-0.5-18.1c3.8-2.9,14.1-4,16-4.6C1201,448.6,1206.4,448.3,1210.2,448.9z"/>
		</g>
		<g>
			<path class="st63" d="M1212,461.8l3.5-4.1l-3.1-10.9C1212.5,446.8,1211.5,452.9,1212,461.8z"/>
		</g>
		<g>
			<path class="st54" d="M1213,442.2c0,0-0.2,1.5-0.3,3.5c-0.1,0.9-0.2,1.9-0.3,2.9c-0.2,2.9-0.4,6.1-0.3,7.7c0,0-6,6-12.9-7.1
				c0,0,2.9-5.4,0.7-12.8C1197.7,429.1,1213,442.2,1213,442.2z"/>
		</g>
		<g>
			<polygon class="st54" points="1212,456.3 1212,461.8 1205.1,456.6 			"/>
		</g>
		<g>
			<polygon class="st63" points="1212,461.8 1209.2,458.3 1199.5,448.6 1196.3,451.6 			"/>
		</g>
		<g>
			<path class="st16" d="M1198.1,449.5c0,0,8.1,12.4,8.5,17.8c0.4,5.4-3,46.1-5.8,59.2c-2.7,13.1-22.5-1.5-22.5-1.5
				s13.3-21.5,8.2-38.7c-5.1-17.2-6.9-24.1-6.9-24.1s1.8-9.6,8-10.9C1193,450.1,1198.1,449.5,1198.1,449.5z"/>
		</g>
		<g>
			<path class="st16" d="M1229.8,467.9c0,0,1.4,5.2-4.3,16.7c0,0,0.1,14.7,0.3,19.3c0.2,4.6,3.4,21.1,3.4,21.1l-7.8,4.2
				c-1.1,0.7-2.6-0.3-2.4-1.6c1.6-13.2,6.8-63.4-4.4-76.8l4.5,1.3C1219,452.1,1227.1,458.7,1229.8,467.9z"/>
		</g>
		<g>
			<polygon class="st64" points="1215.6,457.7 1220,458.9 1212.5,446.8 			"/>
		</g>
		<g>
			<polygon class="st64" points="1209.2,458.3 1205.1,463.6 1196.8,449.7 1199.7,448.1 			"/>
		</g>
		
			<rect x="1220.3" y="477.4" transform="matrix(0.7845 -0.6201 0.6201 0.7845 -38.3582 861.8427)" class="st65" width="1.5" height="17.4"/>
		<path class="st54" d="M1214.4,491.8c0,0,1,0,1.7-0.5c1.2-0.9,1.6-3.1,3.7-2.9c2.1,0.2,3,6.6,2.5,7.9c-0.5,1.2-3.4,1.8-7.6,1
			C1210.4,496.5,1214.4,491.8,1214.4,491.8z"/>
		<path class="st54" d="M1219,488.5c0,0,3-1,6.4-1.8c3-0.6,6.6-0.9,6.9-0.3c0.4,0.6-2.9,1.1-5.9,1.9c-2.7,0.8-2.1,1.1-2.1,1.1
			s-0.2-0.1,2.9-0.4c3.3-0.3,6.8-0.3,7.1,0.4c0.2,0.3,0.1,0.5-1.1,0.8c0.7,0,0.8,0.2,0.9,0.4c0.1,1.5-4.7,2.7-6.6,3.2
			c1.5-0.4,2.6-0.5,2.1,0.5c-0.6,1.1-7.5,2.5-10,3.3C1216.9,498.4,1219,488.5,1219,488.5z"/>
		<path class="st16" d="M1188.7,451.5c-2-0.7-8,1.5-9,7.6c-1,6.1-1.4,13-2.4,16.3c-0.9,3.3-3.4,18-1.3,19.2c2,1.2,5.9,2.3,11.2,2.3
			c5.6,0,27.1,1,27.1,1l1.3-7.6c0,0-8.2-0.4-12.4-1.1c-3.8-0.6-9-2.2-15.2-2.9c0,0,1.3-9.1,2.3-11.6
			C1191.3,472.1,1197.9,454.5,1188.7,451.5z"/>
		<g>
			<polygon class="st66" points="1216.3,503.6 1237.9,499.3 1254,464.9 1230.9,467.3 			"/>
		</g>
		<g>
			<g>
				<path class="st54" d="M1240.7,493.5c0,0,1.2-1.1,2.2-2.6c1.1-1.5,4.5-7.4,4.2-7.8c-0.3-0.4-5.5-0.5-6.4,0.3
					c-0.9,0.8,0.9,1.2,0.9,1.2s-2.8,0.3-2.6,1.1c0.2,0.8,1.9,0.6,1.9,0.6s-2.3,0.4-1.9,1.1c0.3,0.7,1.4,0.7,1.4,0.7s-2,0.3-1.8,1
					c0.2,0.8,3.4,1.5,3,2.1C1241.2,491.8,1240.7,493.5,1240.7,493.5z"/>
			</g>
		</g>
		<g>
			<g>
				<g>
					<path class="st27" d="M1215,408.7c0,0,13.5,4.2,6.2,27.6c-7.3,23.3-25.8-2.7-23.9-16.9C1199.3,405.2,1215,408.7,1215,408.7z"/>
				</g>
			</g>
		</g>
		<g>
			<g>
				<g>
					<path class="st60" d="M1222.6,422.4c0,0-6.7,6.6-18,7.4c0,0-4.3,5.1-4.7,7.1c0,0-10-17.1,2.3-27.3
						C1214.6,399.2,1227.1,418.1,1222.6,422.4z"/>
				</g>
			</g>
		</g>
		<g>
			<g>
				<g>
					<path class="st27" d="M1204.8,430.2c-0.1-1.7-1.1-5.6-3.7-4.5c-2.5,1.1,0.2,8.9,1.8,8.5C1202.9,434.2,1205,434.3,1204.8,430.2z
						"/>
				</g>
			</g>
		</g>
		<path class="st58" d="M1212.6,445.7c-0.1,0.9-0.2,1.9-0.3,2.9h0c-7.8-3.9-9-9.4-9-9.6C1208.9,446.2,1212.6,445.7,1212.6,445.7z"/>
	</g>
</g>
<linearGradient id="SVGID_26_" gradientUnits="userSpaceOnUse" x1="137" y1="-140" x2="137" y2="-317.262">
	<stop  offset="0" style="stop-color:#A7A9AC"/>
	<stop  offset="1" style="stop-color:#808285"/>
</linearGradient>
<rect x="-97" y="-292" class="st67" width="468" height="152"/>
</svg>
