<?xml version="1.0" encoding="utf-8"?>
<!-- Generator: Adobe Illustrator 21.0.0, SVG Export Plug-In . SVG Version: 6.00 Build 0)  -->
<svg version="1.1" id="Layer_1" xmlns="http://www.w3.org/2000/svg" xmlns:xlink="http://www.w3.org/1999/xlink" x="0px" y="0px"
	 viewBox="0 0 326.4 79.4" style="enable-background:new 0 0 326.4 79.4;" xml:space="preserve">
<style type="text/css">
	.st0{fill-rule:evenodd;clip-rule:evenodd;fill:#A7A9AC;}
	.st1{fill-rule:evenodd;clip-rule:evenodd;fill:#D2AB67;}
	.st2{fill:#D2AB67;}
	.st3{fill:#A7A9AC;}
	.st4{fill:#999999;}
</style>
<g>
	<g>
		<path class="st0" d="M75.3,54.7c-5.8,14.4-19.8,24.5-36.2,24.5C17.5,79.2,0,61.6,0,40c0-5.6,1.1-10.8,3.1-15.6l35.6-0.6l-3,4
			l-4.5,10.7c6.2,5.4,10.8,2.6,14-6.4l5.7-0.4l14.8,14.2l0,0c3.7,3.2-0.9,7.1-3.4,4.5l-9-8.9c-0.6-0.1-1.1,0.1-1.3,0.7l8.9,8.8
			c1.1,1.1,1.1,2.8,0.1,3.9l0,0c-1.1,1.1-2.8,1.1-4,0l-8.9-8.8c-0.1-0.1-0.2-0.2-0.3-0.3l0,0c-0.7-0.4-1.3,0.3-1,0.9l7.6,7.5
			c1.1,1.1,1.1,2.8,0,4l0,0c-1.1,1.1-2.8,1.1-3.9,0l-4.8-4.7c0,0-0.8-0.8-1-1c0-0.1,0-0.3,0-0.4c0.1-1-0.2-2-0.9-2.7
			c0-0.1,0-0.1-0.1-0.1c-0.1-0.1-0.2-0.2-0.4-0.4c0,0-0.1,0-0.1-0.1c-0.4-0.4-0.9-0.6-1.6-0.8l0,0c-0.9-0.2-1.8-0.1-2.6,0.2v0.1l0,0
			l0,0h-0.1l0,0l0,0h-0.1v0.1H39l0,0H39v0.1h-0.1l0,0l0,0h-0.1v0.1h-0.1l0,0v0.1h-0.1l0,0l0,0h-0.1v0.1l0,0c0,0,0,0-0.1,0l0,0l0,0
			v0.1h-0.1l0,0l0,0l0,0l0,0c-0.1,0.1-0.1,0.1-0.1,0.1l0,0h-0.1v0.1l0,0c0,0,0,0-0.1,0l0,0l0,0V49l0,0h-0.1l0,0l0,0
			c0,0.1-0.1,0.1-0.1,0.1l0,0c0,0.1-0.1,0.1-0.1,0.1l0,0l0,0H38l0,0c0,0,0,0.1-0.1,0.1l0,0l0,0c0,0,0,0,0,0.1l0,0l0,0h-0.1l0,0
			c0,0.1,0,0.1-0.1,0.1l0.1-0.3c0-0.1,0-0.1,0-0.1V49v-0.1l0,0c0-0.1,0-0.1,0.1-0.1v-0.1l0,0v-0.1v-0.1l0,0v-0.1v-0.1v-0.1l0,0v-0.1
			l0,0v-0.1v-0.1v-0.1l0,0v-0.1l0,0c0-0.1,0-0.1,0-0.1v-0.1v-0.1l0,0c0-0.1,0-0.1,0-0.1v-0.1c0,0,0,0,0-0.1l0,0v-0.1v-0.1l0,0v-0.1
			l0,0l-0.1-0.1v-0.1l0,0v-0.1v-0.1l0,0l-0.1-0.1l0,0V47v-0.1l0,0v-0.1c-0.1,0-0.1,0-0.1-0.1l0,0c0-0.1-0.1-0.1-0.1-0.2l0,0v-0.1
			h-0.1c0-0.1,0-0.1,0-0.1l0,0v-0.1l-0.1-0.1l0,0v-0.1h-0.1v-0.1l0,0l-0.1-0.1c0,0,0,0,0-0.1l0,0c0,0-0.1,0-0.1-0.1l0,0
			c-0.1-0.1-0.2-0.3-0.4-0.4l0,0c0-0.1-0.1-0.1-0.1-0.1l0,0c0-0.1,0-0.1-0.1-0.1l0,0c0-0.1,0-0.1-0.1-0.1l0,0v-0.1h-0.1
			c0,0,0,0,0-0.1h-0.1c0,0,0,0,0-0.1h-0.1c-0.1-0.1-0.3-0.2-0.5-0.4l0,0c0,0,0,0-0.1,0l0,0c0,0,0-0.1-0.1-0.1l0,0h-0.1l0,0
			c0-0.1-0.1-0.1-0.1-0.1l0,0c-0.1,0-0.1,0-0.1,0l0,0c-0.1-0.1-0.1-0.1-0.1-0.1h-0.1c0,0,0,0-0.1,0l0,0l0,0
			c-0.1-0.1-0.3-0.1-0.4-0.1l0,0c-0.5-0.1-0.9-0.1-1.4-0.1l0,0h-0.1l0,0c-0.1,0-0.2,0.1-0.4,0.1l0,0c-0.1,0-0.2,0.1-0.4,0.1l0,0
			c-0.1,0.1-0.1,0.1-0.2,0.1v0.1h-0.1l0,0h-0.1l0,0c-0.1,0.1-0.1,0.1-0.1,0.1l0,0l-0.1,0.1l0,0h-0.1l0,0h-0.1v0.1h-0.1h-0.1v0.1l0,0
			H32l0,0l-0.1,0.1l0,0h-0.1v0.1h-0.1l0,0L31.7,45l0,0l0,0h-0.1v0.1h-0.1l0,0l0,0l0,0c0,0.1-0.1,0.1-0.1,0.1l0,0l-0.1,0.1l0,0l0,0
			l-0.1,0.1l0,0l0,0h-0.1v0.1l0,0l0,0l-0.1,0.1l0,0h-0.1v0.1l0,0h-0.1v0.1l0,0l0,0l0,0C31,45.7,31,45.7,31,45.7l0,0l-0.1,0.1l0,0
			v0.1h-0.1c0,0,0,0,0,0.1l0,0c0,0-0.1,0-0.1,0.1l0,0l0,0L30.7,46l0,0v0.1h-0.1l0,0c0,0.1,0,0.1,0,0.1c0-1.7-1.2-3.3-3-3.8
			c-1.6-0.4-3.3,0.3-4.2,1.6c0,0,0-0.1-0.1-0.1l0,0l0,0l0,0v-0.1l0,0l0,0l0,0l0,0v-0.1l0,0v-0.1l0,0l0,0l0,0l0,0h-0.1v-0.1l0,0l0,0
			l0,0l0,0l0,0l0,0l0,0v-0.1l0,0l0,0l0,0l0,0l0,0l0,0v-0.1h-0.1l0,0l0,0l0,0l0,0v-0.1l0,0l0,0l0,0l0,0l0,0v-0.1l0,0l-0.1-0.1l0,0
			l0,0v-0.1l0,0l-0.1-0.1l0,0l0,0V43H23l0,0v-0.1l0,0v-0.1h-0.1l0,0v-0.1l0,0v-0.1h-0.1l0,0v-0.1c0,0,0,0-0.1,0l0,0v-0.1l0,0v-0.1
			h-0.1l0,0v-0.1l0,0h-0.1v-0.1l0,0h-0.1c0-0.1,0-0.1,0-0.1l0,0l-0.1-0.1l0,0l0,0l0,0l-0.1-0.1l0,0l0,0l-0.1-0.1l0,0l0,0V42h-0.1
			v-0.1h-0.1l0,0v-0.1h-0.1l0,0l0,0l-0.1-0.1l0,0l0,0L22,41.7l0,0l0,0l0,0l-0.1-0.1l0,0l0,0h-0.1v-0.1h-0.1l0,0l0,0l-0.1-0.1l0,0
			h-0.1l0,0v-0.1l0,0h-0.1l0,0l0,0l-0.1-0.1l0,0h-0.1l0,0l0,0l-0.1-0.1l0,0h-0.1l0,0v-0.1l0,0c-0.1,0-0.1,0-0.1,0l0,0l-0.1-0.1l0,0
			H21l0,0h-0.1v-0.1h-0.1l0,0c0,0,0,0-0.1,0l0,0l0,0L20.7,41l0,0h-0.1l0,0l0,0h-0.1l0,0l-0.1-0.1l0,0h-0.1c0,0,0,0-0.1,0l0,0
			c-2.1-0.6-4.4,0.9-4.9,3l-0.8,3.5H9.2C12.6,61,26.6,71.3,43.3,71.3c11.7,0,21.6-3.8,27.9-11.5C72.2,58.5,73.8,56.7,75.3,54.7
			L75.3,54.7z M27.6,42.4L27.6,42.4L27.6,42.4z M44.5,53.7c-0.3,2.1-0.9,4.1-1.9,5.8l1.5,1.7l1,0.9c1.1,1.1,2.8,1.1,3.9,0l0,0
			c1.1-1.1,1.1-2.8,0-3.9L45.8,55L44.5,53.7z"/>
		<path class="st1" d="M39.4,0.1c10.5-0.4,20,4.1,27.1,11.2c4.6,4.6,8.1,10.3,10.1,16.5c2.9,8.8,2.4,17.1-0.7,25.8
			c-3.5-3.6-7.1-7.1-10.7-10.5L51.7,30l-7,0.6c-1.4,2.5-3.4,7.6-6.2,8.5c-1.6,0.6-4.3,0.1-5.6-1.2l3.7-8.8c0.4-0.9,2.2-3.4,3-4.1
			c0.9-0.8,2.2-1.2,4.1-1.3c1.3-0.1,2.7,0,4.1,0h17.5C58.1,14.2,45.8,7.9,33.7,7.9c-12,0-22.5,6.7-29.6,14.2
			C10.8,10.2,20.6,0.9,39.4,0.1z"/>
	</g>
	<path class="st1" d="M34.6,46L34.6,46c1.6,0.4,2.6,2.1,2.1,3.7l-1.4,5.1c-0.4,1.6-2.1,2.6-3.8,2.2l0,0c-1.6-0.4-2.6-2.1-2.1-3.6
		l1.4-5.1C31.3,46.6,33,45.6,34.6,46z"/>
	<path class="st1" d="M27.2,44L27.2,44c1.6,0.4,2.6,2.1,2.2,3.7l-1.4,5.1c-0.4,1.7-2.2,2.7-3.8,2.3l0,0c-1.6-0.4-2.6-2.1-2.2-3.7
		l1.4-5.2C23.9,44.6,25.6,43.6,27.2,44z"/>
	<path class="st1" d="M20.1,42.4L20.1,42.4c1.6,0.4,2.6,2,2.2,3.6l-0.9,3.8c-0.4,1.6-2,2.6-3.6,2.2l0,0c-1.6-0.4-2.6-2.1-2.2-3.6
		l0.9-3.8C17,42.9,18.5,41.9,20.1,42.4z"/>
	<path class="st1" d="M41.4,49.5L41.4,49.5c1.6,0.4,2.5,1.9,2.1,3.5l-0.6,2.5l-0.3,1.1c-1,3.8-6.7,2.4-5.7-1.4l0.2-0.9l0.7-2.7
		C38.2,50.1,39.8,49.1,41.4,49.5z"/>
</g>
<g>
	<path class="st2" d="M96.2,29.2h-5.3l9.3-19.9h4.1l9.4,19.9h-5.2l-6.7-15.7h1.1L96.2,29.2z M95.2,25.1l2-3.9h9.8l2,3.9H95.2z"/>
	<path class="st2" d="M115,29.2V9.3h4.1l6.8,15.6h-1.7L131,9.3h4.1v19.9h-4.6l0-12l1.1,0.3l-4.8,11.7h-3.3l-4.9-11.7l1.1-0.3v12H115
		z"/>
	<path class="st2" d="M148.4,29.4c-2.1,0-3.9-0.4-5.4-1.3c-1.5-0.8-2.7-2-3.5-3.6s-1.2-3.3-1.2-5.4c0-2,0.4-3.8,1.2-5.3
		c0.8-1.5,2-2.7,3.5-3.6c1.5-0.8,3.3-1.3,5.4-1.3c1.3,0,2.6,0.2,3.8,0.6s2.2,0.9,3,1.6l-1.6,3.7c-0.9-0.6-1.7-1.1-2.5-1.3
		s-1.7-0.4-2.5-0.4c-1.6,0-2.8,0.5-3.7,1.5c-0.9,1-1.3,2.5-1.3,4.5s0.4,3.5,1.3,4.6c0.9,1,2.1,1.5,3.7,1.5c0.9,0,1.7-0.1,2.5-0.4
		s1.7-0.7,2.5-1.3l1.6,3.7c-0.7,0.7-1.7,1.2-3,1.6S149.7,29.4,148.4,29.4z"/>
	<path class="st2" d="M160.5,29.2h-5.3l9.3-19.9h4.1l9.4,19.9h-5.2l-6.7-15.7h1.1L160.5,29.2z M159.6,25.1l2-3.9h9.8l2,3.9H159.6z"
		/>
	<path class="st2" d="M190.2,29.2h-5.3l9.3-19.9h4.1l9.4,19.9h-5.2l-6.7-15.7h1.1L190.2,29.2z M189.2,25.1l2-3.9h9.8l2,3.9H189.2z"
		/>
	<path class="st2" d="M217.5,29.4c-2.9,0-5.1-0.7-6.6-2.2c-1.5-1.5-2.2-3.6-2.2-6.5V9.3h5.1V21c0,1.4,0.3,2.5,1,3.3
		c0.6,0.8,1.6,1.2,2.8,1.2c1.2,0,2.1-0.4,2.7-1.2c0.6-0.8,1-1.9,1-3.3V9.3h5.2v11.5c0,2.8-0.8,4.9-2.3,6.4S220.4,29.4,217.5,29.4z"
		/>
	<path class="st2" d="M229.8,29.2V9.3h8.1c2.2,0,4.1,0.4,5.7,1.2c1.6,0.8,2.8,1.9,3.7,3.4s1.3,3.3,1.3,5.3c0,2.1-0.4,3.9-1.3,5.4
		c-0.8,1.5-2.1,2.6-3.6,3.4s-3.5,1.2-5.7,1.2H229.8z M235.1,25h2.5c1.9,0,3.4-0.5,4.4-1.4c1-1,1.4-2.4,1.4-4.4
		c0-3.8-1.9-5.7-5.8-5.7h-2.5V25z"/>
	<path class="st2" d="M251.7,29.2V9.3h5.3v19.9H251.7z"/>
	<path class="st2" d="M265,29.2V13.5H259V9.3h17.2v4.3h-5.9v15.7H265z"/>
	<path class="st2" d="M278.4,29.2V9.3h5.3v19.9H278.4z"/>
	<path class="st2" d="M287.2,29.2V9.3h3.8l9.9,12.3l-0.9,0.7v-13h5v19.9h-3.9l-9.8-12.3l0.8-0.7v13H287.2z"/>
	<path class="st2" d="M318.7,29.4c-2.2,0-4.1-0.4-5.7-1.2c-1.6-0.8-2.8-2-3.7-3.5s-1.3-3.4-1.3-5.5c0-2.1,0.4-3.9,1.3-5.4
		c0.9-1.5,2.1-2.7,3.6-3.5s3.4-1.2,5.5-1.2c1.4,0,2.8,0.2,4.1,0.6c1.3,0.4,2.3,0.9,3.1,1.5l-1.7,3.7c-0.9-0.6-1.8-1-2.7-1.3
		c-0.8-0.3-1.7-0.4-2.7-0.4c-1.8,0-3.1,0.5-4,1.5c-0.9,1-1.3,2.5-1.3,4.6c0,2.1,0.5,3.7,1.4,4.7c0.9,1,2.3,1.5,4.2,1.5
		c0.6,0,1.2,0,1.8-0.1s1.3-0.2,1.9-0.4l-1.1,1.5v-4.9h-3.5v-3.6h8.2v10c-0.7,0.3-1.5,0.6-2.3,0.8c-0.8,0.2-1.7,0.4-2.6,0.5
		C320.6,29.4,319.7,29.4,318.7,29.4z"/>
</g>
<path class="st3" d="M93.9,45.6v-7.7h-2.9v-1.7h7.8v1.7H96v7.7H93.9z"/>
<path class="st3" d="M99.7,45.6h-2l4.2-9.4h1.6l4.2,9.4h-2l-3.2-7.8h0.5L99.7,45.6z M99.6,43.5l0.8-1.6h4.6l0.8,1.6H99.6z"/>
<polygon class="st4" points="112.9,40.8 116.3,36.2 114,36.2 111.7,39.3 109.5,36.2 107.2,36.2 110.6,40.8 107.1,45.6 109.5,45.6 
	111.7,42.3 114,45.6 116.4,45.6 "/>
<path class="st3" d="M121.6,45.6h-2l4.2-9.4h1.6l4.2,9.4h-2l-3.2-7.8h0.5L121.6,45.6z M121.5,43.5l0.8-1.6h4.6l0.8,1.6H121.5z"/>
<path class="st3" d="M134.6,45.7c-1,0-1.8-0.2-2.5-0.6c-0.7-0.4-1.3-0.9-1.6-1.7c-0.4-0.7-0.6-1.6-0.6-2.6c0-1,0.2-1.8,0.6-2.6
	c0.4-0.7,0.9-1.3,1.6-1.7c0.7-0.4,1.5-0.6,2.5-0.6c0.7,0,1.3,0.1,1.8,0.3c0.6,0.2,1,0.4,1.4,0.8l-0.6,1.5c-0.4-0.3-0.9-0.5-1.3-0.7
	c-0.4-0.1-0.8-0.2-1.3-0.2c-0.9,0-1.5,0.3-2,0.8c-0.4,0.5-0.7,1.3-0.7,2.4c0,1.1,0.2,1.9,0.7,2.4c0.5,0.5,1.2,0.8,2.1,0.8
	c0.3,0,0.7,0,1-0.1c0.3-0.1,0.6-0.1,1-0.3l-0.4,0.7v-2.6h-1.8v-1.4h3.6V45c-0.3,0.2-0.6,0.3-1,0.4s-0.8,0.2-1.2,0.2
	S135,45.7,134.6,45.7z"/>
<path class="st3" d="M139.7,45.6v-9.4h6.3v1.6h-4.3V40h4.1v1.6h-4.1V44h4.3v1.6H139.7z"/>
<path class="st3" d="M147.4,45.6v-9.4h1.5l4.9,6.5l-0.4,0.3v-6.7h1.9v9.4h-1.5l-4.9-6.5l0.3-0.3v6.7H147.4z"/>
<path class="st3" d="M161.5,45.7c-0.9,0-1.7-0.2-2.4-0.6c-0.7-0.4-1.2-1-1.6-1.7c-0.4-0.7-0.6-1.6-0.6-2.6c0-1,0.2-1.8,0.6-2.5
	c0.4-0.7,0.9-1.3,1.6-1.7s1.5-0.6,2.4-0.6c0.6,0,1.2,0.1,1.7,0.3c0.5,0.2,1,0.5,1.4,0.8l-0.6,1.5c-0.4-0.3-0.8-0.5-1.2-0.7
	s-0.8-0.2-1.2-0.2c-0.8,0-1.4,0.3-1.9,0.8c-0.4,0.5-0.7,1.3-0.7,2.4s0.2,1.8,0.7,2.4s1.1,0.8,1.9,0.8c0.4,0,0.8-0.1,1.2-0.2
	c0.4-0.1,0.8-0.4,1.2-0.7l0.6,1.5c-0.4,0.3-0.8,0.6-1.4,0.8C162.6,45.6,162.1,45.7,161.5,45.7z"/>
<path class="st3" d="M168,45.6v-4.2l0.4,1.2l-4.2-6.4h2.3l2.8,4.5h-0.5l2.8-4.5h2.3l-4.2,6.4l0.4-1.2v4.2H168z"/>
<path class="st3" d="M180.5,45.7c-0.7,0-1.2-0.1-1.7-0.3c-0.5-0.2-0.9-0.5-1.1-0.9c-0.3-0.4-0.4-0.9-0.4-1.4c0-0.7,0.2-1.3,0.6-1.7
	s1.1-0.9,2-1.4c0.4-0.2,0.8-0.4,1.1-0.6c0.3-0.2,0.5-0.4,0.6-0.5c0.1-0.2,0.2-0.4,0.2-0.6c0-0.3-0.1-0.5-0.2-0.6
	c-0.2-0.2-0.4-0.2-0.6-0.2c-0.3,0-0.5,0.1-0.7,0.3c-0.2,0.2-0.3,0.4-0.3,0.7c0,0.1,0,0.3,0.1,0.4s0.2,0.3,0.3,0.5
	c0.1,0.2,0.3,0.4,0.6,0.7l3.1,3.2c0.3,0.3,0.6,0.6,1,0.8c0.4,0.2,0.7,0.4,1.2,0.5l-0.9,1.4c-0.5-0.1-0.9-0.3-1.2-0.5
	c-0.4-0.2-0.7-0.5-1-0.8l-3.7-3.8c-0.2-0.2-0.4-0.5-0.6-0.7c-0.2-0.2-0.3-0.5-0.3-0.7c-0.1-0.2-0.1-0.5-0.1-0.7
	c0-0.5,0.1-0.9,0.3-1.2s0.5-0.6,0.9-0.8c0.4-0.2,0.9-0.3,1.4-0.3c0.7,0,1.3,0.2,1.7,0.6c0.4,0.4,0.7,0.9,0.7,1.5
	c0,0.4-0.1,0.7-0.3,1.1c-0.2,0.3-0.5,0.6-0.8,0.9c-0.4,0.3-0.8,0.6-1.4,0.8c-0.4,0.2-0.7,0.3-0.9,0.5s-0.4,0.4-0.5,0.6
	c-0.1,0.2-0.2,0.5-0.2,0.7c0,0.4,0.1,0.7,0.4,0.9s0.6,0.3,1,0.3c0.6,0,1.1-0.2,1.5-0.6c0.5-0.4,0.8-0.9,1.1-1.5
	c0.3-0.7,0.5-1.4,0.5-2.2h1.6c0,0.8-0.2,1.6-0.4,2.3c-0.3,0.7-0.6,1.3-1,1.9c-0.4,0.5-0.9,0.9-1.5,1.2
	C181.7,45.5,181.1,45.7,180.5,45.7z"/>
<path class="st3" d="M190.3,45.6v-9.4h4.2c0.9,0,1.7,0.2,2.2,0.7c0.6,0.4,0.8,1,0.8,1.8c0,0.5-0.1,1-0.4,1.4s-0.7,0.7-1.2,0.8v-0.1
	c0.6,0.1,1,0.4,1.4,0.8c0.3,0.4,0.5,0.9,0.5,1.5c0,0.8-0.3,1.4-0.9,1.9c-0.6,0.5-1.4,0.7-2.3,0.7H190.3z M192.2,40h1.9
	c0.5,0,0.9-0.1,1.1-0.3c0.2-0.2,0.4-0.5,0.4-0.8c0-0.4-0.1-0.7-0.4-0.9c-0.2-0.2-0.6-0.3-1.1-0.3h-1.9V40z M192.2,44h2.1
	c0.5,0,0.9-0.1,1.2-0.3s0.4-0.5,0.4-0.9c0-0.4-0.1-0.7-0.4-0.9c-0.2-0.2-0.6-0.3-1.2-0.3h-2.1V44z"/>
<path class="st3" d="M203.1,45.7c-1.3,0-2.3-0.3-2.9-1s-1-1.7-1-3v-5.5h2v5.6c0,0.8,0.2,1.3,0.5,1.7c0.3,0.4,0.8,0.6,1.5,0.6
	c0.6,0,1.1-0.2,1.4-0.6c0.3-0.4,0.5-1,0.5-1.7v-5.6h2v5.5c0,1.3-0.3,2.3-1,3C205.3,45.4,204.4,45.7,203.1,45.7z"/>
<path class="st3" d="M212,45.7c-0.5,0-0.9,0-1.4-0.1c-0.4-0.1-0.9-0.2-1.2-0.4c-0.4-0.2-0.7-0.4-1-0.6l0.7-1.5
	c0.5,0.3,0.9,0.6,1.4,0.7c0.5,0.2,1,0.2,1.5,0.2c0.6,0,1-0.1,1.3-0.3c0.3-0.2,0.5-0.5,0.5-0.8c0-0.2-0.1-0.4-0.2-0.5
	c-0.1-0.1-0.3-0.3-0.6-0.4c-0.3-0.1-0.7-0.2-1.1-0.3c-0.6-0.1-1.1-0.3-1.5-0.4c-0.4-0.2-0.8-0.4-1-0.6s-0.5-0.5-0.6-0.8
	c-0.1-0.3-0.2-0.6-0.2-1c0-0.6,0.2-1.1,0.5-1.5c0.3-0.4,0.7-0.8,1.3-1.1c0.5-0.3,1.2-0.4,1.9-0.4c0.4,0,0.9,0,1.3,0.1
	c0.4,0.1,0.8,0.2,1.2,0.4c0.3,0.2,0.6,0.4,0.9,0.6l-0.6,1.5c-0.4-0.3-0.8-0.6-1.3-0.7s-0.9-0.2-1.4-0.2c-0.5,0-0.9,0.1-1.2,0.3
	c-0.3,0.2-0.5,0.5-0.5,0.9c0,0.2,0.1,0.4,0.2,0.5c0.1,0.1,0.3,0.3,0.6,0.4c0.3,0.1,0.7,0.2,1.1,0.3c0.6,0.1,1.1,0.3,1.5,0.4
	c0.4,0.2,0.8,0.4,1,0.6c0.3,0.2,0.5,0.5,0.6,0.8c0.1,0.3,0.2,0.6,0.2,1c0,0.6-0.1,1.1-0.4,1.5c-0.3,0.4-0.7,0.8-1.3,1
	C213.5,45.6,212.8,45.7,212,45.7z"/>
<path class="st3" d="M217.2,45.6v-9.4h2v9.4H217.2z"/>
<path class="st3" d="M221.1,45.6v-9.4h1.5l4.9,6.5l-0.4,0.3v-6.7h1.9v9.4h-1.5l-4.9-6.5l0.3-0.3v6.7H221.1z"/>
<path class="st3" d="M230.8,45.6v-9.4h6.3v1.6h-4.3V40h4.1v1.6h-4.1V44h4.3v1.6H230.8z"/>
<path class="st3" d="M241.6,45.7c-0.5,0-0.9,0-1.4-0.1c-0.4-0.1-0.9-0.2-1.2-0.4c-0.4-0.2-0.7-0.4-1-0.6l0.7-1.5
	c0.5,0.3,0.9,0.6,1.4,0.7c0.5,0.2,1,0.2,1.5,0.2c0.6,0,1-0.1,1.3-0.3c0.3-0.2,0.5-0.5,0.5-0.8c0-0.2-0.1-0.4-0.2-0.5
	c-0.1-0.1-0.3-0.3-0.6-0.4c-0.3-0.1-0.7-0.2-1.1-0.3c-0.6-0.1-1.1-0.3-1.5-0.4s-0.8-0.4-1-0.6s-0.5-0.5-0.6-0.8
	c-0.1-0.3-0.2-0.6-0.2-1c0-0.6,0.2-1.1,0.5-1.5c0.3-0.4,0.7-0.8,1.3-1.1c0.5-0.3,1.2-0.4,1.9-0.4c0.4,0,0.9,0,1.3,0.1
	c0.4,0.1,0.8,0.2,1.2,0.4c0.4,0.2,0.6,0.4,0.9,0.6l-0.6,1.5c-0.4-0.3-0.8-0.6-1.3-0.7s-0.9-0.2-1.4-0.2c-0.5,0-0.9,0.1-1.2,0.3
	c-0.3,0.2-0.5,0.5-0.5,0.9c0,0.2,0.1,0.4,0.2,0.5s0.3,0.3,0.6,0.4c0.3,0.1,0.7,0.2,1.1,0.3c0.6,0.1,1.1,0.3,1.5,0.4
	c0.4,0.2,0.8,0.4,1,0.6c0.3,0.2,0.5,0.5,0.6,0.8c0.1,0.3,0.2,0.6,0.2,1c0,0.6-0.1,1.1-0.4,1.5s-0.7,0.8-1.3,1
	C243.1,45.6,242.4,45.7,241.6,45.7z"/>
<path class="st3" d="M250,45.7c-0.5,0-0.9,0-1.4-0.1c-0.4-0.1-0.9-0.2-1.2-0.4c-0.4-0.2-0.7-0.4-1-0.6l0.7-1.5
	c0.5,0.3,0.9,0.6,1.4,0.7c0.5,0.2,1,0.2,1.5,0.2c0.6,0,1-0.1,1.3-0.3c0.3-0.2,0.5-0.5,0.5-0.8c0-0.2-0.1-0.4-0.2-0.5
	c-0.1-0.1-0.3-0.3-0.6-0.4c-0.3-0.1-0.7-0.2-1.1-0.3c-0.6-0.1-1.1-0.3-1.5-0.4s-0.8-0.4-1-0.6s-0.5-0.5-0.6-0.8
	c-0.1-0.3-0.2-0.6-0.2-1c0-0.6,0.2-1.1,0.5-1.5c0.3-0.4,0.7-0.8,1.3-1.1c0.5-0.3,1.2-0.4,1.9-0.4c0.4,0,0.9,0,1.3,0.1
	c0.4,0.1,0.8,0.2,1.2,0.4c0.4,0.2,0.6,0.4,0.9,0.6l-0.6,1.5c-0.4-0.3-0.8-0.6-1.3-0.7s-0.9-0.2-1.4-0.2c-0.5,0-0.9,0.1-1.2,0.3
	c-0.3,0.2-0.5,0.5-0.5,0.9c0,0.2,0.1,0.4,0.2,0.5s0.3,0.3,0.6,0.4c0.3,0.1,0.7,0.2,1.1,0.3c0.6,0.1,1.1,0.3,1.5,0.4
	c0.4,0.2,0.8,0.4,1,0.6c0.3,0.2,0.5,0.5,0.6,0.8c0.1,0.3,0.2,0.6,0.2,1c0,0.6-0.1,1.1-0.4,1.5s-0.7,0.8-1.3,1
	C251.5,45.6,250.8,45.7,250,45.7z"/>
<path class="st3" d="M259.8,45.6h-2l4.2-9.4h1.6l4.2,9.4h-2l-3.2-7.8h0.5L259.8,45.6z M259.7,43.5l0.8-1.6h4.6l0.8,1.6H259.7z"/>
<path class="st3" d="M268.6,45.6v-9.4h3.5c1,0,1.9,0.2,2.6,0.6c0.7,0.4,1.3,0.9,1.6,1.6c0.4,0.7,0.6,1.5,0.6,2.5
	c0,1-0.2,1.8-0.6,2.5s-0.9,1.2-1.6,1.6c-0.7,0.4-1.6,0.6-2.6,0.6H268.6z M270.6,43.9h1.4c1,0,1.7-0.3,2.2-0.8
	c0.5-0.5,0.7-1.3,0.7-2.3c0-2-1-3-2.9-3h-1.4V43.9z"/>
<path class="st3" d="M281.3,45.6l-4.1-9.4h2.1l3.1,7.5h-0.6l3.2-7.5h2l-4.1,9.4H281.3z"/>
<path class="st3" d="M287.7,45.6v-9.4h2v9.4H287.7z"/>
<path class="st3" d="M294.8,45.7c-0.5,0-0.9,0-1.4-0.1c-0.4-0.1-0.9-0.2-1.2-0.4c-0.4-0.2-0.7-0.4-1-0.6l0.7-1.5
	c0.5,0.3,0.9,0.6,1.4,0.7c0.5,0.2,1,0.2,1.5,0.2c0.6,0,1-0.1,1.3-0.3c0.3-0.2,0.5-0.5,0.5-0.8c0-0.2-0.1-0.4-0.2-0.5
	c-0.1-0.1-0.3-0.3-0.6-0.4c-0.3-0.1-0.7-0.2-1.1-0.3c-0.6-0.1-1.1-0.3-1.5-0.4s-0.8-0.4-1-0.6s-0.5-0.5-0.6-0.8
	c-0.1-0.3-0.2-0.6-0.2-1c0-0.6,0.2-1.1,0.5-1.5c0.3-0.4,0.7-0.8,1.3-1.1c0.5-0.3,1.2-0.4,1.9-0.4c0.4,0,0.9,0,1.3,0.1
	c0.4,0.1,0.8,0.2,1.2,0.4c0.4,0.2,0.6,0.4,0.9,0.6l-0.6,1.5c-0.4-0.3-0.8-0.6-1.3-0.7s-0.9-0.2-1.4-0.2c-0.5,0-0.9,0.1-1.2,0.3
	c-0.3,0.2-0.5,0.5-0.5,0.9c0,0.2,0.1,0.4,0.2,0.5s0.3,0.3,0.6,0.4c0.3,0.1,0.7,0.2,1.1,0.3c0.6,0.1,1.1,0.3,1.5,0.4
	c0.4,0.2,0.8,0.4,1,0.6c0.3,0.2,0.5,0.5,0.6,0.8c0.1,0.3,0.2,0.6,0.2,1c0,0.6-0.1,1.1-0.4,1.5s-0.7,0.8-1.3,1
	C296.2,45.6,295.6,45.7,294.8,45.7z"/>
<path class="st3" d="M304.2,45.7c-0.9,0-1.7-0.2-2.4-0.6c-0.7-0.4-1.2-1-1.5-1.7c-0.4-0.7-0.5-1.6-0.5-2.6c0-1,0.2-1.8,0.5-2.6
	c0.4-0.7,0.9-1.3,1.5-1.7c0.7-0.4,1.5-0.6,2.4-0.6c0.9,0,1.7,0.2,2.4,0.6c0.7,0.4,1.2,1,1.5,1.7c0.4,0.7,0.5,1.6,0.5,2.6
	c0,1-0.2,1.8-0.5,2.6c-0.4,0.7-0.9,1.3-1.5,1.7C305.9,45.5,305.1,45.7,304.2,45.7z M304.2,44.1c0.8,0,1.4-0.3,1.8-0.8
	c0.4-0.6,0.7-1.4,0.7-2.4c0-1.1-0.2-1.9-0.7-2.4s-1-0.8-1.8-0.8c-0.8,0-1.4,0.3-1.8,0.8s-0.7,1.3-0.7,2.4c0,1.1,0.2,1.9,0.7,2.4
	C302.8,43.8,303.4,44.1,304.2,44.1z"/>
<path class="st3" d="M310.2,45.6v-9.4h4.1c1.1,0,1.9,0.2,2.4,0.7c0.5,0.5,0.8,1.2,0.8,2c0,0.8-0.3,1.5-0.8,2
	c-0.6,0.5-1.4,0.8-2.4,0.8l1.1-0.2c0.3,0,0.6,0.1,0.9,0.3c0.3,0.2,0.5,0.5,0.6,0.9l1.1,2.9h-2.1l-1.2-3.1c-0.1-0.3-0.2-0.4-0.5-0.5
	c-0.2-0.1-0.4-0.1-0.7-0.1h-1.3v3.8H310.2z M312.2,40.2h1.8c0.6,0,1-0.1,1.3-0.3c0.3-0.2,0.4-0.5,0.4-0.9c0-0.4-0.1-0.7-0.4-0.9
	c-0.3-0.2-0.7-0.3-1.3-0.3h-1.8V40.2z"/>
<path class="st3" d="M322.4,45.7c-0.5,0-0.9,0-1.4-0.1c-0.4-0.1-0.9-0.2-1.2-0.4c-0.4-0.2-0.7-0.4-1-0.6l0.7-1.5
	c0.5,0.3,0.9,0.6,1.4,0.7c0.5,0.2,1,0.2,1.5,0.2c0.6,0,1-0.1,1.3-0.3c0.3-0.2,0.5-0.5,0.5-0.8c0-0.2-0.1-0.4-0.2-0.5
	c-0.1-0.1-0.3-0.3-0.6-0.4c-0.3-0.1-0.7-0.2-1.1-0.3c-0.6-0.1-1.1-0.3-1.5-0.4s-0.8-0.4-1-0.6s-0.5-0.5-0.6-0.8
	c-0.1-0.3-0.2-0.6-0.2-1c0-0.6,0.2-1.1,0.5-1.5c0.3-0.4,0.7-0.8,1.3-1.1c0.5-0.3,1.2-0.4,1.9-0.4c0.4,0,0.9,0,1.3,0.1
	c0.4,0.1,0.8,0.2,1.2,0.4c0.4,0.2,0.6,0.4,0.9,0.6l-0.6,1.5c-0.4-0.3-0.8-0.6-1.3-0.7s-0.9-0.2-1.4-0.2c-0.5,0-0.9,0.1-1.2,0.3
	c-0.3,0.2-0.5,0.5-0.5,0.9c0,0.2,0.1,0.4,0.2,0.5s0.3,0.3,0.6,0.4c0.3,0.1,0.7,0.2,1.1,0.3c0.6,0.1,1.1,0.3,1.5,0.4
	c0.4,0.2,0.8,0.4,1,0.6c0.3,0.2,0.5,0.5,0.6,0.8c0.1,0.3,0.2,0.6,0.2,1c0,0.6-0.1,1.1-0.4,1.5s-0.7,0.8-1.3,1
	C323.9,45.6,323.2,45.7,322.4,45.7z"/>
<g>
	<path class="st2" d="M91.7,62.3v-8.4h2.2v8.4H91.7z"/>
	<path class="st2" d="M95.4,62.3v-8.4H97l4.2,5.2l-0.4,0.3v-5.5h2.1v8.4h-1.6l-4.1-5.2l0.3-0.3v5.5H95.4z"/>
	<path class="st2" d="M106.3,62.3v-6.6h-2.5v-1.8h7.2v1.8h-2.5v6.6H106.3z"/>
	<path class="st2" d="M111.9,62.3v-8.4h6v1.7h-3.8v1.6h3.6v1.7h-3.6v1.7h3.8v1.7H111.9z"/>
	<path class="st2" d="M123.3,62.4c-0.9,0-1.7-0.2-2.4-0.5c-0.7-0.3-1.2-0.8-1.5-1.5s-0.5-1.4-0.5-2.3c0-0.9,0.2-1.6,0.5-2.3
		s0.9-1.1,1.5-1.5c0.7-0.3,1.4-0.5,2.3-0.5c0.6,0,1.2,0.1,1.7,0.2c0.5,0.2,1,0.4,1.3,0.6l-0.7,1.6c-0.4-0.3-0.8-0.4-1.1-0.5
		c-0.4-0.1-0.7-0.2-1.1-0.2c-0.7,0-1.3,0.2-1.7,0.6c-0.4,0.4-0.5,1.1-0.5,1.9c0,0.9,0.2,1.6,0.6,2c0.4,0.4,1,0.6,1.8,0.6
		c0.3,0,0.5,0,0.8-0.1c0.3,0,0.5-0.1,0.8-0.2l-0.5,0.6v-2.1H123v-1.5h3.4v4.2c-0.3,0.1-0.6,0.3-1,0.4c-0.3,0.1-0.7,0.2-1.1,0.2
		C124,62.4,123.7,62.4,123.3,62.4z"/>
	<path class="st2" d="M127.9,62.3v-8.4h3.9c1,0,1.8,0.2,2.3,0.7s0.8,1.1,0.8,1.9c0,0.8-0.3,1.4-0.8,1.8s-1.3,0.7-2.2,0.7l1-0.2
		c0.3,0,0.5,0.1,0.8,0.3c0.2,0.2,0.4,0.4,0.6,0.8l1,2.5h-2.3l-1.1-2.8c-0.1-0.2-0.2-0.3-0.4-0.4c-0.2-0.1-0.3-0.1-0.5-0.1h-0.8v3.3
		H127.9z M130,57.4h1.4c0.5,0,0.8-0.1,1-0.2s0.3-0.4,0.3-0.7c0-0.3-0.1-0.6-0.3-0.7c-0.2-0.1-0.6-0.2-1-0.2H130V57.4z"/>
	<path class="st2" d="M136.3,62.3v-8.4h2.2v8.4H136.3z"/>
	<path class="st2" d="M141.9,62.3v-6.6h-2.5v-1.8h7.2v1.8h-2.5v6.6H141.9z"/>
	<path class="st2" d="M149.8,62.3v-3.8l0.5,1.2l-4-5.8h2.5l2.4,3.8h-0.6l2.4-3.8h2.5l-4,5.8l0.4-1.2v3.8H149.8z"/>
	<path class="st2" d="M169.8,62.4c-0.9,0-1.6-0.2-2.3-0.5s-1.1-0.9-1.5-1.5c-0.3-0.6-0.5-1.4-0.5-2.3c0-0.9,0.2-1.6,0.5-2.2
		c0.3-0.6,0.8-1.1,1.5-1.5c0.6-0.4,1.4-0.5,2.3-0.5c0.5,0,1.1,0.1,1.6,0.2s0.9,0.4,1.2,0.7l-0.7,1.6c-0.4-0.3-0.7-0.4-1.1-0.6
		c-0.3-0.1-0.7-0.2-1.1-0.2c-0.7,0-1.2,0.2-1.5,0.6c-0.4,0.4-0.5,1.1-0.5,1.9s0.2,1.5,0.5,1.9c0.4,0.4,0.9,0.6,1.5,0.6
		c0.4,0,0.7-0.1,1.1-0.2c0.3-0.1,0.7-0.3,1.1-0.6l0.7,1.6c-0.3,0.3-0.7,0.5-1.2,0.7C170.9,62.3,170.4,62.4,169.8,62.4z"/>
	<path class="st2" d="M177.6,62.4c-0.9,0-1.6-0.2-2.2-0.5c-0.6-0.4-1.1-0.9-1.5-1.5s-0.5-1.4-0.5-2.3c0-0.9,0.2-1.6,0.5-2.3
		c0.3-0.6,0.8-1.1,1.5-1.5c0.6-0.3,1.4-0.5,2.2-0.5c0.9,0,1.6,0.2,2.2,0.5c0.6,0.3,1.1,0.8,1.4,1.5s0.5,1.4,0.5,2.3
		c0,0.9-0.2,1.6-0.5,2.3s-0.8,1.1-1.4,1.5C179.2,62.3,178.5,62.4,177.6,62.4z M177.6,60.7c0.6,0,1.1-0.2,1.5-0.7
		c0.4-0.4,0.5-1.1,0.5-2c0-0.9-0.2-1.5-0.5-1.9c-0.4-0.4-0.9-0.7-1.5-0.7c-0.6,0-1.1,0.2-1.5,0.6c-0.4,0.4-0.5,1.1-0.5,2
		c0,0.9,0.2,1.5,0.5,2C176.5,60.5,177,60.7,177.6,60.7z"/>
	<path class="st2" d="M183.1,62.3v-8.4h1.6l4.2,5.2l-0.4,0.3v-5.5h2.1v8.4H189l-4.1-5.2l0.3-0.3v5.5H183.1z"/>
	<path class="st2" d="M192.1,62.3v-8.4h5.9v1.7h-3.7v1.5h3.4v1.7h-3.4v3.4H192.1z"/>
	<path class="st2" d="M199,62.3v-8.4h2.2v8.4H199z"/>
	<path class="st2" d="M202.7,62.3v-8.4h3.4c0.9,0,1.7,0.2,2.4,0.5c0.7,0.3,1.2,0.8,1.5,1.4c0.4,0.6,0.5,1.4,0.5,2.2
		c0,0.9-0.2,1.6-0.5,2.3c-0.4,0.6-0.9,1.1-1.5,1.4c-0.7,0.3-1.5,0.5-2.4,0.5H202.7z M205,60.6h1.1c0.8,0,1.4-0.2,1.8-0.6
		s0.6-1,0.6-1.8c0-1.6-0.8-2.4-2.4-2.4H205V60.6z"/>
	<path class="st2" d="M211.9,62.3v-8.4h6v1.7h-3.8v1.6h3.6v1.7h-3.6v1.7h3.8v1.7H211.9z"/>
	<path class="st2" d="M219,62.3v-8.4h1.6l4.2,5.2l-0.4,0.3v-5.5h2.1v8.4h-1.6l-4.1-5.2l0.3-0.3v5.5H219z"/>
	<path class="st2" d="M229.9,62.3v-6.6h-2.5v-1.8h7.2v1.8h-2.5v6.6H229.9z"/>
	<path class="st2" d="M235.6,62.3v-8.4h2.2v8.4H235.6z"/>
	<path class="st2" d="M240.5,62.3h-2.2l3.9-8.4h1.7l3.9,8.4h-2.2l-2.8-6.6h0.5L240.5,62.3z M240.1,60.6l0.9-1.7h4.1l0.8,1.7H240.1z"
		/>
	<path class="st2" d="M248.3,62.3v-8.4h2.2v6.6h3.5v1.8H248.3z"/>
	<path class="st2" d="M255.2,62.3v-8.4h2.2v8.4H255.2z"/>
	<path class="st2" d="M260.8,62.3v-6.6h-2.5v-1.8h7.2v1.8H263v6.6H260.8z"/>
	<path class="st2" d="M268.7,62.3v-3.8l0.5,1.2l-4-5.8h2.5l2.4,3.8h-0.6l2.4-3.8h2.5l-4,5.8l0.4-1.2v3.8H268.7z"/>
	<path class="st2" d="M286.5,62.3v-6.6H284v-1.8h7.2v1.8h-2.5v6.6H286.5z"/>
	<path class="st2" d="M292.2,62.3v-8.4h2.2v8.4H292.2z"/>
	<path class="st2" d="M295.9,62.3v-8.4h1.7l2.9,6.6h-0.7l2.9-6.6h1.7v8.4h-1.9l0-5l0.4,0.1l-2,4.9h-1.4l-2.1-4.9l0.5-0.1v5H295.9z"
		/>
	<path class="st2" d="M305.9,62.3v-8.4h6v1.7h-3.8v1.6h3.6v1.7h-3.6v1.7h3.8v1.7H305.9z"/>
	<path class="st2" d="M313,62.3v-8.4h2.2v6.6h3.5v1.8H313z"/>
	<path class="st2" d="M320.3,62.3v-3.8l0.5,1.2l-4-5.8h2.5l2.4,3.8h-0.6l2.4-3.8h2.5l-4,5.8l0.4-1.2v3.8H320.3z"/>
</g>
<circle class="st3" cx="159.6" cy="58.9" r="2.4"/>
<circle class="st3" cx="279" cy="58.9" r="2.4"/>
</svg>
