<?xml version="1.0" encoding="utf-8"?>
<!-- Generator: Adobe Illustrator 21.0.0, SVG Export Plug-In . SVG Version: 6.00 Build 0)  -->
<svg version="1.1" id="Layer_1" xmlns="http://www.w3.org/2000/svg" xmlns:xlink="http://www.w3.org/1999/xlink" x="0px" y="0px"
	 viewBox="0 0 496 496" style="enable-background:new 0 0 496 496;" xml:space="preserve">
<style type="text/css">
	.st0{fill:#D2AC67;}
</style>
<path class="st0" d="M154.7,294.4c3.5,5.3,5.3,11.4,5.3,17.6c0,17.6-14.4,32-32,32c-6.3,0-12.4-1.8-17.6-5.3l-8.8,13.3
	c7.9,5.2,17,8,26.4,8c26.5,0,48-21.5,48-48c0-9.4-2.8-18.6-8-26.5L154.7,294.4z"/>
<path class="st0" d="M128,280c6.3,0,12.4,1.8,17.6,5.3l8.8-13.3c-7.9-5.2-17-8-26.4-8c-26.5,0-48,21.5-48,48c0,9.4,2.8,18.6,8,26.5
	l13.3-8.8c-3.5-5.3-5.3-11.4-5.3-17.6C96,294.4,110.4,280,128,280z"/>
<path class="st0" d="M288,336v48h32v-16h-16v-32H288z"/>
<path class="st0" d="M296,288c-20.2,0-40,7.1-55.7,19.9l10.1,12.4c10.7-8.8,23.8-14.2,37.5-15.8V320h16v-15.5
	c33.3,3.7,59.8,30.2,63.5,63.5H352v16h15.5c-1.5,13.7-7,26.8-15.8,37.6l12.4,10.1C376.9,416,384,396.2,384,376
	C384,327.5,344.5,288,296,288z"/>
<path class="st0" d="M304,447.5V432h-16v15.5c-33.3-3.7-59.8-30.2-63.5-63.5H240v-16h-15.5c1.5-13.7,7-26.8,15.8-37.6l-12.4-10.1
	C215.1,336,208,355.8,208,376c0,48.5,39.5,88,88,88c20.2,0,40-7.1,55.7-19.9l-10.1-12.4C330.8,440.5,317.7,446,304,447.5z"/>
<path class="st0" d="M448,368h-16V144h-48v150.7c-4.9-5.3-10.2-10.1-16-14.5V184h-48v74.4c-5.2-1.1-10.6-1.7-16-2V224h-48v39
	c-8,2.9-15.7,6.5-22.9,11c-1.6-4.5-3.4-8.8-5.5-13l12.6-17.7l-43.5-43.5L179,212.4c-5.3-2.7-10.9-5-16.7-6.9l-3.6-21.5H97.2
	l-3.6,21.5c-5.8,1.8-11.3,4.2-16.7,6.9l-17.7-12.7l-43.5,43.5L28.4,261c-2.7,5.3-5,10.9-6.9,16.7L0,281.2v61.6l21.5,3.6
	c1.8,5.8,4.2,11.3,6.9,16.7l-12.6,17.7l43.5,43.5L77,411.6c5.3,2.7,10.9,5,16.7,6.9l3.6,21.5h61.6l3.6-21.5
	c5.8-1.8,11.3-4.2,16.7-6.9l3.2,2.3C198.2,461.5,243.1,496,296,496c63.5,0,115.4-49.6,119.6-112H496V80h-48V368z M400,160h16v208
	h-0.4c-1.2-18.7-6.7-36.2-15.6-51.6V160z M336,200h16v70c-5.1-2.7-10.5-5-16-6.9V200z M272,240h16v16.4c-5.4,0.4-10.8,1-16,2V240z
	 M175.6,395.3c-7,4-14.5,7.1-22.4,9.3l-5,1.3l-3,18.1h-34.4l-3-18.1l-5-1.3c-7.9-2.1-15.5-5.3-22.4-9.3l-4.5-2.6L61,403.4L36.6,379
	l10.7-14.9l-2.6-4.5c-4-7-7.1-14.5-9.3-22.4l-1.3-5l-18.1-3v-34.4l18.1-3l1.3-5c2.2-7.9,5.3-15.5,9.3-22.4l2.6-4.5L36.6,245
	L61,220.6l14.9,10.7l4.5-2.6c7-4,14.5-7.1,22.4-9.3l5-1.3l3-18.1h34.4l3,18.1l5,1.3c7.9,2.1,15.5,5.3,22.4,9.3l4.5,2.6l14.9-10.7
	l24.4,24.4l-10.7,14.9l2.6,4.5c3.5,6,6.1,12.5,8.2,19.3c-4.7,3.9-9,8.2-13,12.7c-7.3-36.7-39.7-64.4-78.5-64.4
	c-44.1,0-80,35.9-80,80s35.9,80,80,80c17.5,0,34.3-5.9,48-16.2c0,0.1,0,0.1,0,0.2c0,6.2,0.6,12.2,1.5,18.2L175.6,395.3z
	 M191.8,316.7c-6,10.6-10.5,22.1-13.1,34.3c-12.1,15.7-30.9,25-50.7,25c-35.3,0-64-28.7-64-64s28.7-64,64-64s64,28.7,64,64
	C192,313.6,191.9,315.2,191.8,316.7z M296,480c-57.3,0-104-46.7-104-104s46.7-104,104-104s104,46.7,104,104S353.3,480,296,480z
	 M464,96h16v272h-16V96z"/>
<path class="st0" d="M448,0v16h17.2l-56.6,45.3L384,36.7l-37.7,37.7c-3.1-1.5-6.6-2.4-10.3-2.4c-13.2,0-24,10.8-24,24
	c0,4.1,1.2,8,3,11.4l-41.8,46.5c-2.8-1.2-5.9-1.8-9.2-1.8c-0.2,0-0.3,0-0.4,0l-32.2-85.8c5.2-4.4,8.6-10.9,8.6-18.3
	c0-13.2-10.8-24-24-24s-24,10.8-24,24c0,1.7,0.2,3.4,0.6,5L127,93.4c-4.1-3.3-9.3-5.4-15-5.4c-10.4,0-19.2,6.7-22.5,16H46.5
	C43.2,94.7,34.4,88,24,88C10.8,88,0,98.8,0,112s10.8,24,24,24c10.4,0,19.2-6.7,22.5-16h43c3.3,9.3,12.1,16,22.5,16
	c13.2,0,24-10.8,24-24c0-1.7-0.2-3.4-0.6-5L201,66.6c4.1,3.3,9.3,5.4,15,5.4c0.2,0,0.3,0,0.4,0l32.2,85.8
	c-5.2,4.4-8.6,10.9-8.6,18.3c0,13.2,10.8,24,24,24s24-10.8,24-24c0-4.1-1.1-8-3-11.4l41.8-46.5c2.8,1.2,5.9,1.8,9.2,1.8
	c13.2,0,24-10.8,24-24c0-3.7-0.9-7.2-2.4-10.3L384,59.3l23.4,23.4L480,24.6V48h16V0H448z M24,120c-4.4,0-8-3.6-8-8s3.6-8,8-8
	s8,3.6,8,8S28.4,120,24,120z M112,120c-4.4,0-8-3.6-8-8s3.6-8,8-8s8,3.6,8,8S116.4,120,112,120z M208,48c0-4.4,3.6-8,8-8s8,3.6,8,8
	s-3.6,8-8,8S208,52.4,208,48z M264,184c-4.4,0-8-3.6-8-8s3.6-8,8-8s8,3.6,8,8S268.4,184,264,184z M336,104c-4.4,0-8-3.6-8-8
	s3.6-8,8-8s8,3.6,8,8S340.4,104,336,104z"/>
</svg>
