<?xml version="1.0" encoding="utf-8"?>
<!-- Generator: Adobe Illustrator 21.0.0, SVG Export Plug-In . SVG Version: 6.00 Build 0)  -->
<svg version="1.1" id="Layer_1" xmlns="http://www.w3.org/2000/svg" xmlns:xlink="http://www.w3.org/1999/xlink" x="0px" y="0px"
	 viewBox="0 0 292 292" style="enable-background:new 0 0 292 292;" xml:space="preserve">
<style type="text/css">
	.st0{fill:#D2AC67;}
</style>
<g>
	<path class="st0" d="M215.6,18.3h-13.1V6c0-3.3-2.7-6-6-6h-101c-3.3,0-6,2.7-6,6v12.3H76.4c-3.3,0-6,2.7-6,6V286c0,3.3,2.7,6,6,6
		h54.2h30.7h54.2c3.3,0,6-2.7,6-6V24.3C221.6,20.9,218.9,18.3,215.6,18.3z M155.3,280h-18.7v-41.3h18.7V280z M209.6,280h-42.2v-47.3
		c0-3.3-2.7-6-6-6h-30.7c-3.3,0-6,2.7-6,6V280H82.4V30.3h127.2V280z M190.5,12v6.3h-89V12H190.5z"/>
	<path class="st0" d="M110.2,58.4c-3.3,0-6,2.7-6,6V73c0,3.3,2.7,6,6,6s6-2.7,6-6v-8.6C116.2,61.1,113.6,58.4,110.2,58.4z"/>
	<path class="st0" d="M134.1,58.4c-3.3,0-6,2.7-6,6V73c0,3.3,2.7,6,6,6s6-2.7,6-6v-8.6C140.1,61.1,137.4,58.4,134.1,58.4z"/>
	<path class="st0" d="M157.9,58.4c-3.3,0-6,2.7-6,6V73c0,3.3,2.7,6,6,6s6-2.7,6-6v-8.6C163.9,61.1,161.2,58.4,157.9,58.4z"/>
	<path class="st0" d="M181.7,58.4c-3.3,0-6,2.7-6,6V73c0,3.3,2.7,6,6,6s6-2.7,6-6v-8.6C187.7,61.1,185,58.4,181.7,58.4z"/>
	<path class="st0" d="M110.2,88.1c-3.3,0-6,2.7-6,6v8.6c0,3.3,2.7,6,6,6s6-2.7,6-6v-8.6C116.2,90.7,113.6,88.1,110.2,88.1z"/>
	<path class="st0" d="M134.1,88.1c-3.3,0-6,2.7-6,6v8.6c0,3.3,2.7,6,6,6s6-2.7,6-6v-8.6C140.1,90.7,137.4,88.1,134.1,88.1z"/>
	<path class="st0" d="M157.9,88.1c-3.3,0-6,2.7-6,6v8.6c0,3.3,2.7,6,6,6s6-2.7,6-6v-8.6C163.9,90.7,161.2,88.1,157.9,88.1z"/>
	<path class="st0" d="M181.7,88.1c-3.3,0-6,2.7-6,6v8.6c0,3.3,2.7,6,6,6s6-2.7,6-6v-8.6C187.7,90.7,185,88.1,181.7,88.1z"/>
	<path class="st0" d="M110.2,117.7c-3.3,0-6,2.7-6,6v8.6c0,3.3,2.7,6,6,6s6-2.7,6-6v-8.6C116.2,120.4,113.6,117.7,110.2,117.7z"/>
	<path class="st0" d="M134.1,117.7c-3.3,0-6,2.7-6,6v8.6c0,3.3,2.7,6,6,6s6-2.7,6-6v-8.6C140.1,120.4,137.4,117.7,134.1,117.7z"/>
	<path class="st0" d="M157.9,117.7c-3.3,0-6,2.7-6,6v8.6c0,3.3,2.7,6,6,6s6-2.7,6-6v-8.6C163.9,120.4,161.2,117.7,157.9,117.7z"/>
	<path class="st0" d="M181.7,117.7c-3.3,0-6,2.7-6,6v8.6c0,3.3,2.7,6,6,6s6-2.7,6-6v-8.6C187.7,120.4,185,117.7,181.7,117.7z"/>
	<path class="st0" d="M110.2,147.3c-3.3,0-6,2.7-6,6v8.6c0,3.3,2.7,6,6,6s6-2.7,6-6v-8.6C116.2,150,113.6,147.3,110.2,147.3z"/>
	<path class="st0" d="M134.1,147.3c-3.3,0-6,2.7-6,6v8.6c0,3.3,2.7,6,6,6s6-2.7,6-6v-8.6C140.1,150,137.4,147.3,134.1,147.3z"/>
	<path class="st0" d="M157.9,147.3c-3.3,0-6,2.7-6,6v8.6c0,3.3,2.7,6,6,6s6-2.7,6-6v-8.6C163.9,150,161.2,147.3,157.9,147.3z"/>
	<path class="st0" d="M181.7,147.3c-3.3,0-6,2.7-6,6v8.6c0,3.3,2.7,6,6,6s6-2.7,6-6v-8.6C187.7,150,185,147.3,181.7,147.3z"/>
	<path class="st0" d="M110.2,177c-3.3,0-6,2.7-6,6v8.6c0,3.3,2.7,6,6,6s6-2.7,6-6V183C116.2,179.7,113.6,177,110.2,177z"/>
	<path class="st0" d="M134.1,177c-3.3,0-6,2.7-6,6v8.6c0,3.3,2.7,6,6,6s6-2.7,6-6V183C140.1,179.7,137.4,177,134.1,177z"/>
	<path class="st0" d="M157.9,177c-3.3,0-6,2.7-6,6v8.6c0,3.3,2.7,6,6,6s6-2.7,6-6V183C163.9,179.7,161.2,177,157.9,177z"/>
	<path class="st0" d="M181.7,177c-3.3,0-6,2.7-6,6v8.6c0,3.3,2.7,6,6,6s6-2.7,6-6V183C187.7,179.7,185,177,181.7,177z"/>
</g>
</svg>
