<?xml version="1.0" encoding="utf-8"?>
<!-- Generator: Adobe Illustrator 21.0.0, SVG Export Plug-In . SVG Version: 6.00 Build 0)  -->
<svg version="1.1" xmlns="http://www.w3.org/2000/svg" xmlns:xlink="http://www.w3.org/1999/xlink" x="0px" y="0px"
	 viewBox="0 0 500 500" style="enable-background:new 0 0 500 500;" xml:space="preserve">
<style type="text/css">
	.st0{fill:#FFFFFF;}
	.st1{fill:#D6B469;}
	.st2{fill:none;stroke:#BF9655;stroke-width:2.175;stroke-miterlimit:10;}
	.st3{fill:#022035;}
	.st4{fill:#BF9655;}
	.st5{fill:#F9DBAA;}
	.st6{fill:#BAC3E5;}
	.st7{fill:#848687;}
	.st8{fill:#053256;}
	.st9{fill:#B1B2B3;}
	.st10{fill:#B7341A;}
	.st11{fill:#FF5A3C;}
	.st12{fill:#FF6757;}
	.st13{fill:#F9B7A6;}
	.st14{fill:#86294E;}
	.st15{fill:#CB5069;}
	.st16{fill:#935402;}
	.st17{fill:#201028;}
	.st18{clip-path:url(#SVGID_2_);}
	.st19{fill:#FFFBF6;}
	.st20{fill:#FFA1A1;}
	.st21{fill:#FCE2E4;}
	.st22{fill:#104478;}
	.st23{fill:none;stroke:#104478;stroke-width:0.5462;stroke-miterlimit:10;}
	
		.st24{fill:none;stroke:#B1B2B3;stroke-width:1.4386;stroke-linecap:round;stroke-linejoin:round;stroke-miterlimit:10;stroke-dasharray:4.9687;}
	.st25{fill:#154578;stroke:#B1B2B3;stroke-width:2.248;stroke-linecap:round;stroke-miterlimit:10;}
	.st26{fill:none;stroke:#B1B2B3;stroke-width:2.248;stroke-linecap:round;stroke-miterlimit:10;}
	.st27{fill:#967336;}
	.st28{fill:#BA964F;}
	.st29{fill:none;stroke:#FFFFFF;stroke-width:1.0924;stroke-miterlimit:10;}
	.st30{fill:none;stroke:#B7341A;stroke-width:0.9544;stroke-miterlimit:10;}
	.st31{fill:none;stroke:#FF5A3C;stroke-width:0.9544;stroke-miterlimit:10;}
	.st32{fill:#2B121C;}
	.st33{fill:#51313B;}
	.st34{fill:none;stroke:#2B121C;stroke-width:0.5462;stroke-linecap:round;stroke-miterlimit:10;}
	.st35{fill:#FCE3E4;}
	.st36{fill:#6D505B;}
	.st37{fill:#D3D3D3;}
	.st38{fill:#D3D3D3;stroke:#104478;stroke-width:1.3898;stroke-linecap:round;stroke-linejoin:round;stroke-miterlimit:10;}
	.st39{fill:#D3D3D3;stroke:#104478;stroke-width:1.3883;stroke-linecap:round;stroke-linejoin:round;stroke-miterlimit:10;}
</style>
<g id="BACKGROUND">
	<rect class="st0" width="500" height="500"/>
</g>
<g id="OBJECTS">
	<path class="st1" d="M247.1,241.8v-8c8.2-1.2,15.7-4.5,22-9.2l5.7,5.7c1.3,1.3,3.3,1.3,4.6,0l5.9-5.9c1.3-1.3,1.3-3.3,0-4.6
		l-5.7-5.7c4.7-6.3,7.9-13.8,9.1-22h8.1c1.8,0,3.2-1.4,3.2-3.2v-8.3c0-1.8-1.4-3.2-3.2-3.2h-8.1c-1.2-8.1-4.4-15.6-9.1-22l5.7-5.7
		c1.3-1.3,1.3-3.3,0-4.6l-5.9-5.9c-1.3-1.3-3.3-1.3-4.6,0l-5.7,5.7c-6.3-4.7-13.8-7.9-22-9.2v-8c0-1.8-1.4-3.2-3.2-3.2h-8.3
		c-1.8,0-3.2,1.4-3.2,3.2v8c-8.2,1.2-15.7,4.4-22.1,9.1l-5.6-5.6c-1.3-1.3-3.3-1.3-4.6,0l-5.9,5.9c-1.3,1.3-1.3,3.3,0,4.6l5.6,5.6
		c-4.7,6.4-8,13.9-9.2,22.1h-7.9c-1.8,0-3.2,1.4-3.2,3.2v8.3c0,1.8,1.4,3.2,3.2,3.2h7.9c1.2,8.2,4.4,15.7,9.2,22.1l-5.6,5.6
		c-1.3,1.3-1.3,3.3,0,4.6l5.9,5.9c1.3,1.3,3.3,1.3,4.6,0l5.6-5.6c6.4,4.7,13.9,7.9,22.1,9.1v8c0,1.8,1.4,3.2,3.2,3.2h8.3
		C245.7,245,247.1,243.6,247.1,241.8z M222.3,184.9c0-9.6,7.8-17.4,17.4-17.4c9.6,0,17.4,7.8,17.4,17.4c0,9.6-7.8,17.4-17.4,17.4
		C230.1,202.3,222.3,194.5,222.3,184.9z"/>
	<path class="st1" d="M301.2,307.5l2.8-6.5c7.1,1.9,14.3,1.9,21.1,0.4l2.6,6.6c0.6,1.5,2.2,2.2,3.7,1.6l6.8-2.7
		c1.5-0.6,2.2-2.2,1.6-3.7l-2.6-6.7c6.1-3.5,11.3-8.5,15.2-14.6l6.6,2.9c1.4,0.6,3.1,0,3.8-1.5l2.9-6.7c0.6-1.4,0-3.1-1.5-3.8
		l-6.6-2.9c1.9-7.1,2-14.3,0.4-21.1l6.7-2.6c1.5-0.6,2.2-2.2,1.6-3.7l-2.7-6.8c-0.6-1.5-2.2-2.2-3.7-1.6l-6.7,2.6
		c-3.5-6.1-8.4-11.3-14.6-15.2l2.8-6.5c0.6-1.4,0-3.1-1.5-3.8l-6.7-2.9c-1.4-0.6-3.1,0-3.8,1.5l-2.8,6.5c-7.1-1.9-14.3-2-21.2-0.4
		l-2.6-6.5c-0.6-1.5-2.2-2.2-3.7-1.6l-6.8,2.7c-1.5,0.6-2.2,2.2-1.6,3.7l2.6,6.5c-6.1,3.5-11.4,8.5-15.3,14.7l-6.4-2.8
		c-1.4-0.6-3.1,0-3.8,1.5l-2.9,6.7c-0.6,1.4,0,3.1,1.5,3.8l6.4,2.8c-1.9,7.1-2,14.4-0.4,21.2L266,271c-1.5,0.6-2.2,2.2-1.6,3.7
		l2.7,6.8c0.6,1.5,2.2,2.2,3.7,1.6l6.5-2.6c3.5,6.1,8.5,11.3,14.7,15.2l-2.8,6.5c-0.6,1.4,0,3.1,1.5,3.8l6.7,2.9
		C298.9,309.6,300.5,309,301.2,307.5z"/>
	<circle class="st2" cx="315.4" cy="258.6" r="30.1"/>
	<path class="st3" d="M333.5,304.3c0-0.4,0-0.8-0.1-1.1c0-0.1,0.1-0.2,0.1-0.2l0.7-2.3c0.2-0.7-0.2-1.3-0.9-1.5
		c-0.7-0.2-1.3,0.2-1.5,0.9l-0.1,0.4c0,0,0,0,0,0c-0.9-0.7-1.9-1.1-3-1.2l-0.8-3.1c-0.2-0.7-0.9-1.1-1.6-0.9
		c-0.7,0.2-1.1,0.9-0.9,1.6l0.8,3c-0.6,0.3-1.2,0.7-1.7,1.3c-0.2,0.2-0.3,0.4-0.4,0.6c0.4-0.1,0.7-0.2,1.1-0.2l2.6,6.6
		c0.6,1.5,2.2,2.2,3.7,1.6l6.8-2.7c0.9-0.4,1.5-1.1,1.7-2L333.5,304.3z"/>
	<g>
		<circle class="st1" cx="189.8" cy="298.7" r="51.3"/>
		<path class="st1" d="M199.5,360.6H180c-4.3,0-7.9-3.5-7.9-7.9V244.6c0-4.3,3.5-7.9,7.9-7.9h19.5c4.3,0,7.9,3.5,7.9,7.9v108.2
			C207.4,357.1,203.8,360.6,199.5,360.6z"/>
		<path class="st1" d="M152.9,349.4l-13.8-13.8c-3.1-3.1-3.1-8.1,0-11.1l76.5-76.5c3.1-3.1,8.1-3.1,11.1,0l13.8,13.8
			c3.1,3.1,3.1,8.1,0,11.1L164,349.4C160.9,352.4,155.9,352.4,152.9,349.4z"/>
		<path class="st1" d="M127.8,308.4V289c0-4.3,3.5-7.9,7.9-7.9h108.2c4.3,0,7.9,3.5,7.9,7.9v19.5c0,4.3-3.5,7.9-7.9,7.9H135.7
			C131.4,316.3,127.8,312.8,127.8,308.4z"/>
		<path class="st1" d="M139.1,261.8l13.8-13.8c3.1-3.1,8.1-3.1,11.1,0l76.5,76.5c3.1,3.1,3.1,8.1,0,11.1l-13.8,13.8
			c-3.1,3.1-8.1,3.1-11.1,0l-76.5-76.5C136,269.8,136,264.8,139.1,261.8z"/>
	</g>
	<circle class="st2" cx="189.8" cy="298.7" r="45.3"/>
	<circle class="st4" cx="189.8" cy="298.7" r="37.4"/>
	<path class="st3" d="M251.7,298.7c-4.8,0.1-9,1.9-10.1,4.6c-1.2,3,1.9,6.1,7,7.5c-0.1,1.3,0,2.6,0.2,3.7c1.7-1.4,2.8-3.6,2.8-6
		V298.7z"/>
	<path class="st3" d="M234,339.5l-0.4-3.2c-0.1-0.7-0.7-1.2-1.4-1.1c-0.7,0.1-1.2,0.7-1.1,1.4l0.4,3c-0.7,0.2-1.3,0.6-1.8,1.1
		c-1.8,1.7-2.1,4.5-0.8,6.5l7.1-7.1C235.3,339.8,234.6,339.6,234,339.5z"/>
	<path class="st3" d="M158.5,348c-0.4-0.4-1-0.5-1.5-0.3c-0.2-0.1-0.3-0.2-0.5-0.3l0.8-3c0.2-0.7-0.2-1.4-0.9-1.6
		c-0.7-0.2-1.4,0.2-1.6,0.9L154,347c-0.9,0.1-1.8,0.3-2.6,0.9l1.5,1.5c1.8,1.8,4.2,2.5,6.6,2.2c-0.1-0.7-0.3-1.4-0.7-2.1
		C158.9,349,158.9,348.4,158.5,348z"/>
	<g>
		<path class="st5" d="M113.4,302.3H79.1c-4.3,0-7.8-3.5-7.8-7.8v-10.1c0-4.3,3.5-7.8,7.8-7.8h34.3c4.3,0,7.8,3.5,7.8,7.8v10.1
			C121.2,298.8,117.7,302.3,113.4,302.3z"/>
		<polygon class="st5" points="99.5,300.5 109.6,309.4 109.6,299.3 		"/>
	</g>
	<g>
		<line class="st2" x1="82.9" y1="285.5" x2="107.2" y2="285.5"/>
		<line class="st2" x1="82.9" y1="292" x2="86.5" y2="292"/>
		<line class="st2" x1="91" y1="292" x2="94.6" y2="292"/>
		<line class="st2" x1="99.1" y1="292" x2="107.2" y2="292"/>
	</g>
	<g>
		<path class="st5" d="M242.3,297.6H214c-3.5,0-6.4-2.9-6.4-6.4v-14.6c0-3.5,2.9-6.4,6.4-6.4h28.3c3.5,0,6.4,2.9,6.4,6.4v14.6
			C248.7,294.8,245.9,297.6,242.3,297.6z"/>
		<polygon class="st5" points="230.9,296.2 239.2,303.5 239.2,295.2 		"/>
	</g>
	<line class="st2" x1="215.8" y1="287.3" x2="240.2" y2="287.3"/>
	<line class="st2" x1="224" y1="280.8" x2="232.1" y2="280.8"/>
	<g>
		<path class="st5" d="M346,284.9h-28.3c-3.5,0-6.4-2.9-6.4-6.4v-14.1c0-3.5,2.9-6.4,6.4-6.4H346c3.5,0,6.4,2.9,6.4,6.4v14.1
			C352.4,282,349.5,284.9,346,284.9z"/>
		<polygon class="st5" points="334.6,283.4 342.9,290.8 342.9,282.4 		"/>
	</g>
	<line class="st2" x1="319.5" y1="268" x2="343.9" y2="268"/>
	<line class="st2" x1="319.5" y1="274.5" x2="343.9" y2="274.5"/>
	<ellipse class="st6" cx="272" cy="468.2" rx="33.2" ry="5.6"/>
	<path class="st3" d="M271,379.9l-22,2.5l-2.1-18.5l17.9-2c6.2-0.7,11.8,3.8,12.5,10v0C277.9,375.9,275,379.5,271,379.9z"/>
	<polygon class="st7" points="263.7,469.5 257.1,469.5 246.1,363.5 262.6,363.5 	"/>
	<polygon class="st7" points="253.1,469.5 263.7,469.5 257.6,465.2 	"/>
	<polygon class="st8" points="292.7,469.5 286,469.5 256.8,363.5 272.4,363.5 	"/>
	<g>
		<polygon class="st9" points="296.1,469.5 285.9,469.5 291.6,465.2 		"/>
		<polygon class="st9" points="292.7,469.5 286,469.5 256.8,363.5 272.4,363.5 		"/>
		<g>
			<path class="st9" d="M275.2,378c1.6-1.5,2.5-3.7,2.2-6.1c-0.4-3.5-2.3-6.4-5-8.2L275.2,378z"/>
		</g>
	</g>
	<path class="st10" d="M253.2,336.1c-0.5-3.2-3.5-5.4-6.7-4.8l-4,0.6c-0.3,1.4-1,2.7-2.1,3.8l-9.9,9.9c0.3,0,0.7,0,1-0.1l16.8-2.7
		C251.6,342.2,253.7,339.2,253.2,336.1z"/>
	<path class="st11" d="M249.7,368.4h17.9c3,0,5.4-2.4,5.4-5.4v-28.7c0-1.6-1-3-2.4-3.5l-13.1-4.8l-10.8,4.7
		c-1.4,0.6-2.2,1.9-2.2,3.4v28.8C244.3,366,246.7,368.4,249.7,368.4z"/>
	<path class="st10" d="M268.6,334.4c-2.7-1.7-6.3-0.9-8.1,1.8l-6.7,10.5l-9.6-3.1v12.3l9.1,3c0.1,0,0.2,0,0.3,0.1
		c2.7,1.4,6,0.5,7.6-2.1l9.1-14.4C272.2,339.7,271.4,336.1,268.6,334.4z"/>
	<g>
		<g>
			<path class="st11" d="M251.4,357.3L251.4,357.3c2.5,2,6.2,1.5,8.2-1l10.5-13.4c2-2.5,1.5-6.2-1-8.2l0,0c-2.5-2-6.2-1.5-8.2,1
				l-10.5,13.4C248.4,351.6,248.8,355.3,251.4,357.3z"/>
			<path class="st11" d="M259.3,354.5L259.3,354.5c1.3-3-0.1-6.4-3-7.7l-15.6-6.8c-3-1.3-6.4,0.1-7.7,3l0,0c-1.3,3,0.1,6.4,3,7.7
				l15.6,6.8C254.5,358.8,258,357.4,259.3,354.5z"/>
		</g>
		<g>
			<path class="st12" d="M270.1,342.8c1.6-2.1,1.5-5.1-0.1-7.1c-0.8-1-1.9-1.7-3.1-2c-1.2-0.3-2.5-0.2-3.6,0.3
				c-0.6,0.2-1.1,0.6-1.5,1c-0.5,0.4-0.8,0.9-1.2,1.4l-2.4,3c-1.6,2-3.1,4.1-4.7,6.1l-0.1,0.2l-0.2-0.1c-3.5-1.5-7-3.1-10.5-4.7
				c-0.9-0.4-1.7-0.8-2.6-1.1c-0.9-0.3-1.8-0.4-2.8-0.2c-0.9,0.2-1.8,0.5-2.6,1.1c-0.7,0.6-1.4,1.3-1.8,2.2c0.4-0.9,1-1.7,1.7-2.3
				c0.7-0.6,1.6-1,2.6-1.2c1-0.2,2-0.1,2.9,0.2c0.9,0.3,1.8,0.7,2.7,1.1c3.5,1.5,7,3,10.5,4.5l-0.3,0.1c1.6-2,3.1-4.1,4.7-6.1l2.4-3
				c0.4-0.5,0.8-1,1.3-1.5c0.5-0.4,1.1-0.8,1.7-1.1c1.2-0.5,2.6-0.6,3.9-0.2c1.3,0.4,2.4,1.1,3.2,2.2
				C271.8,337.7,271.7,340.8,270.1,342.8z"/>
		</g>
		<g>
			
				<ellipse transform="matrix(0.7934 -0.6087 0.6087 0.7934 -159.6613 212.1358)" class="st13" cx="232.7" cy="341.3" rx="5.1" ry="5.1"/>
			<path class="st13" d="M236.3,341.5L236.3,341.5c0.6,0.3,1.3,0.1,1.7-0.5l1.2-2.1c0.3-0.6,0.1-1.3-0.5-1.7l0,0
				c-0.6-0.3-1.3-0.1-1.7,0.5l-1.2,2.1C235.4,340.5,235.7,341.2,236.3,341.5z"/>
			<path class="st13" d="M231.4,333.2l0.2,4.6c0,0.7,0.6,1.3,1.3,1.2l0,0c0.7,0,1.3-0.6,1.2-1.3l-0.2-4.6c0-0.7-0.6-1.3-1.3-1.2l0,0
				C231.9,331.9,231.3,332.5,231.4,333.2z"/>
		</g>
	</g>
	<path class="st13" d="M256.9,329.4L256.9,329.4c1.9,0,3.4-1.5,3.4-3.4v-9.6h-6.8v9.6C253.5,327.8,255,329.4,256.9,329.4z"/>
	<path d="M249.1,304.7c-0.8,4.8,2.3,9.3,6.9,10.1c4.6,0.8,9-2.3,9.9-7.1c0.8-4.8-2.3-9.3-6.9-10.1
		C254.3,296.7,249.9,299.9,249.1,304.7z"/>
	<path d="M248.8,307.5c-0.8,4.7,1.3,9.4,4.8,10.4c3.5,1,7-2,7.9-6.7c0.8-4.7-1.3-9.4-4.8-10.4C253.2,299.7,249.6,302.7,248.8,307.5z
		"/>
	<path d="M254.4,309.3c-1.5,3.3-0.5,7.1,2.2,8.5c2.7,1.3,6.1-0.3,7.6-3.6c1.5-3.3,0.5-7.1-2.2-8.5
		C259.3,304.4,255.9,306,254.4,309.3z"/>
	<path class="st13" d="M249.7,312.2c-0.8,3.7,1,7.3,4.1,8l0,0c3.1,0.7,6.2-1.8,7.1-5.5l0.6-2.9c0.8-3.7-1-7.3-4.1-8l0,0
		c-3.1-0.7-6.2,1.8-7.1,5.5L249.7,312.2z"/>
	<path d="M256.7,303.2c1.8-1.5,4.7-0.6,6.6,1.9c1.9,2.6,1.9,5.8,0.2,7.3c-1.8,1.5-4.7,0.6-6.6-1.9C255,308,254.9,304.7,256.7,303.2z
		"/>
	<g>
		<path class="st14" d="M250.9,313.8c0,0.4,0.4,0.7,0.9,0.8c0.5,0.1,0.9-0.2,0.9-0.6c0-0.4-0.4-0.7-0.9-0.8
			C251.2,313.2,250.9,313.4,250.9,313.8z"/>
	</g>
	<g>
		<g>
			<g>
				<path class="st13" d="M258.2,315.9l2.7,0.1c1,0,1.8-0.7,1.9-1.7l0,0c0-1-0.7-1.8-1.7-1.9l-0.8,0c-1.1,0-1.9,0.8-2,1.8
					L258.2,315.9z"/>
			</g>
		</g>
		
			<ellipse transform="matrix(0.1785 -0.9839 0.9839 0.1785 -94.9229 514.7322)" class="st15" cx="260.8" cy="314.2" rx="0.8" ry="0.8"/>
	</g>
	<g>
		<path class="st16" d="M253.3,311.4h2c0.2,0,0.4-0.2,0.4-0.4l0,0c0-0.2-0.2-0.4-0.4-0.4h-2c-0.2,0-0.4,0.2-0.4,0.4l0,0
			C253,311.2,253.1,311.4,253.3,311.4z"/>
		<circle class="st17" cx="254.1" cy="312.3" r="0.3"/>
	</g>
	<g>
		<path class="st16" d="M250.2,311.4h2c0.2,0,0.4-0.2,0.4-0.4l0,0c0-0.2-0.2-0.4-0.4-0.4h-2c-0.2,0-0.4,0.2-0.4,0.4l0,0
			C249.8,311.2,250,311.4,250.2,311.4z"/>
		<circle class="st17" cx="251" cy="312.3" r="0.3"/>
	</g>
	<path d="M241.7,300.9c-1.3,3.4,2.7,6.9,9,7.9c6.3,1,12.5-0.9,13.8-4.3c1.3-3.4-2.7-6.9-9-7.9C249.2,295.6,243,297.6,241.7,300.9z"
		/>
	<path class="st10" d="M256.9,329.3l-3.9,1.8c-0.8,0.4-1.7-0.3-1.4-1.1l1.7-6.3L256.9,329.3z"/>
	<path class="st11" d="M256.7,329.4l3.8,1.9c0.8,0.4,1.7-0.3,1.4-1.1l-1.7-6.3L256.7,329.4z"/>
	<g>
		<path class="st10" d="M256.7,329.4c1.1,0.3,2.1,0.7,3.1,1.1c0.3,0.1,0.5,0.2,0.8,0.3c0.3,0.1,0.3,0.1,0.5,0.1
			c0.3-0.1,0.4-0.3,0.4-0.6c-0.5-2.1-1-4.2-1.1-6.5c1,2,1.6,4.1,2.2,6.2c0.2,0.8-0.4,1.8-1.2,1.9c-0.4,0.1-0.9-0.1-1.1-0.2
			c-0.2-0.1-0.5-0.3-0.7-0.4C258.5,330.6,257.6,330.1,256.7,329.4z"/>
	</g>
	<g>
		<path class="st14" d="M252.9,318.5l-0.6,0c-0.9,0-1.7-0.8-1.7-1.7l0-1l4,0l0,1C254.6,317.8,253.8,318.5,252.9,318.5z"/>
		<g>
			<defs>
				<path id="SVGID_1_" d="M252.9,318.5l-0.6,0c-0.9,0-1.7-0.8-1.7-1.7l0-1l4,0l0,1C254.6,317.8,253.8,318.5,252.9,318.5z"/>
			</defs>
			<clipPath id="SVGID_2_">
				<use xlink:href="#SVGID_1_"  style="overflow:visible;"/>
			</clipPath>
			<g class="st18">
				<path class="st19" d="M252.8,317l-0.4,0c-0.7,0-1.2-0.6-1.2-1.2l0-0.8l2.9,0l0,0.8C254.1,316.4,253.5,317,252.8,317z"/>
				<path class="st15" d="M252.4,317.6l0.4,0c0.5,0,1,0.4,1,1l0,0.6l-2.3,0l0-0.6C251.5,318,251.9,317.5,252.4,317.6z"/>
			</g>
		</g>
	</g>
	<ellipse class="st6" cx="121.6" cy="468.2" rx="28.9" ry="5.6"/>
	<path class="st10" d="M130.2,378h-15.1c-4.1,0-7.5-3.4-7.5-7.5v-5.4h22.6V378z"/>
	<g>
		<polygon class="st7" points="119.1,469.5 125.6,469.5 131.7,363.5 115.7,363.5 		"/>
		<polygon class="st7" points="129.4,469.5 119.1,469.5 125,465.2 		"/>
	</g>
	<g>
		<g>
			<polygon class="st9" points="120.6,469.5 114.1,469.5 108.3,363.5 124.3,363.5 			"/>
		</g>
		<g>
			<path class="st9" d="M108.4,365.1h-0.8v5.4c0,1.6,0.5,3,1.3,4.2L108.4,365.1z"/>
		</g>
		<g>
			<polygon class="st9" points="124.3,469.5 114,469.5 119.9,465.2 			"/>
		</g>
	</g>
	<path class="st3" d="M141,337.5c-0.4,0.3-0.8,0.6-1.1,0.9l-2.8,3l-0.1-3c-0.1-3.2-2.8-5.7-6.1-5.6c-3.2,0.1-5.7,2.8-5.6,6.1l0.6,17
		c0.1,3.2,2.8,5.7,6.1,5.6c1.8-0.1,3.4-1,4.5-2.3c0.1-0.1,0.2-0.2,0.3-0.3l11.6-12.5c0.2-0.3,0.5-0.5,0.7-0.8L141,337.5z"/>
	<g>
		<g>
			<path class="st3" d="M129.9,328.6l-1.4,4.8l-4.5-3.5l-1.2-2.2l6-0.5C129.5,327.1,130.1,327.9,129.9,328.6z"/>
		</g>
	</g>
	<g>
		<path class="st8" d="M128.6,370h-16.6c-3,0-5.4-2.4-5.4-5.4l2.2-17.8c0-8.1,5.1-15.3,12.7-18l2.9-1.1c16.3,4.6,11.3,21.8,9.6,36.9
			C134,367.6,131.6,370,128.6,370z"/>
	</g>
	<path class="st3" d="M134.3,352.6c-0.4,0.1-0.6,0.6-0.6,1.2l-6.4-9.9c-1.7-2.6-5.3-3.4-8.1-1.9c-2.8,1.6-3.7,4.9-2,7.6l8.9,13.7
		c1.5,2.3,4.4,3.2,7,2.4c0.3,0,0.6-0.1,0.9-0.2c0-0.3,0.1-0.5,0.1-0.8l0.6-12.1C134.5,352.6,134.4,352.6,134.3,352.6z"/>
	<g>
		<ellipse transform="matrix(0.9762 -0.2167 0.2167 0.9762 -66.4467 33.9977)" cx="121.8" cy="320" rx="2" ry="2"/>
		<ellipse transform="matrix(0.9762 -0.2167 0.2167 0.9762 -66.6671 34.4188)" cx="123.6" cy="321.2" rx="2" ry="2"/>
		<ellipse transform="matrix(0.9762 -0.2167 0.2167 0.9762 -66.8059 34.95)" cx="126" cy="322.1" rx="1.6" ry="1.6"/>
		<ellipse transform="matrix(0.8922 -0.4516 0.4516 0.8922 -125.1996 92.124)" cx="130.4" cy="308.4" rx="1.5" ry="1.5"/>
		<ellipse transform="matrix(0.8922 -0.4516 0.4516 0.8922 -125.9992 92.8405)" cx="131.5" cy="310.4" rx="1.7" ry="1.7"/>
		<ellipse transform="matrix(0.8922 -0.4516 0.4516 0.8922 -127.1332 93.4531)" cx="132.2" cy="313.1" rx="1.7" ry="1.7"/>
	</g>
	<path class="st20" d="M124.7,331.9L124.7,331.9c-1.9-0.2-3.2-1.9-3-3.8l1.2-9.5l6.8,0.8l-1.2,9.5
		C128.3,330.9,126.5,332.2,124.7,331.9z"/>
	<path class="st20" d="M132.9,313c2.2,3.1,2,7.1-0.6,9l0,0c-2.6,1.8-6.4,0.8-8.7-2.3l-1.8-2.4c-2.2-3.1-2-7.1,0.6-9l0,0
		c2.6-1.8,6.4-0.8,8.7,2.3L132.9,313z"/>
	<g>
		<g>
			<ellipse transform="matrix(0.8593 -0.5114 0.5114 0.8593 -137.3509 107.5125)" cx="126.8" cy="303.4" rx="6.7" ry="6.7"/>
			<ellipse transform="matrix(0.8593 -0.5114 0.5114 0.8593 -140.7252 104.9011)" cx="120.3" cy="308.3" rx="2.9" ry="2.9"/>
			<ellipse transform="matrix(0.8593 -0.5114 0.5114 0.8593 -142.7639 104.6939)" cx="118.9" cy="311.9" rx="2.4" ry="2.4"/>
			<ellipse transform="matrix(0.8593 -0.5114 0.5114 0.8593 -139.4484 108.6182)" cx="127.7" cy="307.8" rx="1.7" ry="1.7"/>
			<ellipse transform="matrix(0.8593 -0.5114 0.5114 0.8593 -142.9678 106.0474)" cx="121.3" cy="312.9" rx="2.5" ry="2.5"/>
			<ellipse transform="matrix(0.8593 -0.5114 0.5114 0.8593 -143.9492 105.5784)" cx="120" cy="314.5" rx="2.8" ry="2.8"/>
			<ellipse transform="matrix(0.8593 -0.5114 0.5114 0.8593 -145.6369 106.986)" cx="121.7" cy="318.2" rx="3.1" ry="3.1"/>
		</g>
	</g>
	<g>
		<g>
			<g>
				<path class="st20" d="M126.6,319.8l-2.4,1.2c-0.9,0.4-2,0.1-2.4-0.8l0,0c-0.4-0.9-0.1-2,0.8-2.4l0.7-0.4
					c0.9-0.5,2.1-0.1,2.5,0.9L126.6,319.8z"/>
			</g>
		</g>
		
			<ellipse transform="matrix(0.8306 -0.5569 0.5569 0.8306 -156.8478 122.8913)" class="st15" cx="123.6" cy="319.3" rx="0.8" ry="0.8"/>
	</g>
	<path class="st10" d="M129,313l-1.8,0.8c-0.2,0.1-0.4,0-0.5-0.2l0,0c-0.1-0.2,0-0.4,0.2-0.5l1.8-0.8c0.2-0.1,0.4,0,0.5,0.2l0,0
		C129.3,312.7,129.2,313,129,313z"/>
	
		<ellipse transform="matrix(0.9166 -0.3997 0.3997 0.9166 -115.1153 77.789)" class="st17" cx="128.9" cy="314.9" rx="0.3" ry="0.3"/>
	<path class="st10" d="M131.9,311.8l-1.8,0.8c-0.2,0.1-0.4,0-0.5-0.2l0,0c-0.1-0.2,0-0.4,0.2-0.5l1.8-0.8c0.2-0.1,0.4,0,0.5,0.2l0,0
		C132.1,311.5,132.1,311.7,131.9,311.8z"/>
	
		<ellipse transform="matrix(0.9167 -0.3996 0.3996 0.9167 -114.3449 78.7944)" class="st17" cx="131.8" cy="313.6" rx="0.3" ry="0.3"/>
	<g>
		<path class="st15" d="M132.3,314.4c0.1,0.3-0.1,0.8-0.5,1.1c-0.4,0.3-0.9,0.2-1-0.2c-0.1-0.3,0.1-0.8,0.5-1.1
			C131.7,314,132.1,314,132.3,314.4z"/>
	</g>
	<path class="st21" d="M132.4,319.2L132.4,319.2c-1.1,0.4-2.4-0.1-2.8-1.2l-0.3-0.7l4-1.6l0.3,0.7
		C134.1,317.5,133.5,318.7,132.4,319.2z"/>
	<g>
		<polygon class="st8" points="128.8,328.8 126.1,334.8 122.1,330.7 121.2,328.3 		"/>
		<g>
			<path class="st3" d="M128.8,328.8c-0.8,2.1-1.6,4.1-2.5,6.1l-0.2,0.4l-0.3-0.3c-1.3-1.4-2.7-2.7-3.9-4.2l0,0l0,0
				c-0.3-0.8-0.5-1.6-0.7-2.4c0.3,0.8,0.7,1.5,1,2.3l0-0.1c1.4,1.3,2.8,2.6,4.1,4l-0.4,0.1C126.8,332.7,127.7,330.7,128.8,328.8z"/>
		</g>
	</g>
	<g>
		<g>
			<path class="st8" d="M134.8,364.2L134.8,364.2c-2.6,1.9-6.3,1.3-8.2-1.3l-10-13.8c-1.9-2.6-1.3-6.3,1.3-8.2l0,0
				c2.6-1.9,6.3-1.3,8.2,1.3l10,13.8C138,358.6,137.4,362.3,134.8,364.2z"/>
		</g>
		<g>
			<path class="st22" d="M125.9,341.8c0.9,1.1,1.8,2.2,2.7,3.3c0.9,1.1,1.7,2.2,2.6,3.4c0.8,1.1,1.7,2.3,2.5,3.4
				c0.8,1.2,1.6,2.3,2.4,3.5c-0.9-1.1-1.8-2.2-2.7-3.3c-0.9-1.1-1.7-2.2-2.6-3.4c-0.8-1.2-1.7-2.3-2.5-3.4
				C127.5,344.2,126.7,343,125.9,341.8z"/>
		</g>
	</g>
	<g>
		<path class="st8" d="M127.3,361.5L127.3,361.5c-1.3-2.9-0.1-6.4,2.9-7.8l15.5-7.1c2.9-1.3,6.4-0.1,7.8,2.9l0,0
			c1.3,2.9,0.1,6.4-2.9,7.8l-15.5,7.1C132.2,365.7,128.7,364.4,127.3,361.5z"/>
		<path class="st23" d="M133.8,352.1l11.8-5.4c2.9-1.3,6.4-0.1,7.8,2.9"/>
	</g>
	<g>
		<path class="st8" d="M133.6,353c-0.4-1-0.3-2,0.3-2.2c0.6-0.2,1.3,0.4,1.7,1.4"/>
		<path class="st22" d="M133.6,353c-0.2-0.3-0.4-0.7-0.4-1.2c0-0.4,0.1-1,0.6-1.2c0.6-0.2,1,0.2,1.3,0.5c0.3,0.3,0.4,0.7,0.5,1.1
			c-0.2-0.3-0.5-0.7-0.8-0.9c-0.3-0.2-0.6-0.4-0.9-0.3c-0.3,0.1-0.4,0.5-0.4,0.8C133.5,352.2,133.5,352.6,133.6,353z"/>
	</g>
	<g>
		<path class="st8" d="M137.2,351.6c-0.4-1-1.1-1.7-1.5-1.5c-0.5,0.2-0.5,1.1-0.1,2.1"/>
		<path class="st22" d="M137.2,351.6c-0.2-0.3-0.4-0.6-0.7-0.9c-0.2-0.2-0.6-0.5-0.8-0.4c-0.2,0-0.3,0.5-0.3,0.8
			c0,0.4,0,0.7,0.1,1.1c-0.2-0.3-0.4-0.7-0.4-1.1c0-0.2,0-0.4,0-0.6c0-0.2,0.2-0.5,0.4-0.6c0.3-0.1,0.6,0,0.7,0.1
			c0.2,0.1,0.3,0.3,0.4,0.4C137,350.8,137.2,351.2,137.2,351.6z"/>
	</g>
	<path class="st20" d="M157.7,346.7c0.2-0.5,0.1-1.1-0.3-1.4c-0.4-0.4-1-0.4-1.5-0.1c-0.2-0.1-0.3-0.1-0.5-0.2l0.5-3
		c0.1-0.7-0.3-1.4-1-1.5c-0.7-0.1-1.4,0.3-1.5,1l-0.6,3.2c-1.1,0.2-2.1,0.6-2.9,1.4c0,0,0,0,0,0l-0.2-0.4c-0.2-0.6-0.9-1-1.6-0.7
		c-0.6,0.2-1,0.9-0.7,1.6l0.9,2.2c0,0.1,0.1,0.2,0.1,0.2c-0.2,1.5,0.3,3.1,1.4,4.3c2,2,5.2,2,7.2,0
		C159,351.5,159.1,348.7,157.7,346.7z"/>
	<g>
		<path class="st24" d="M147.3,132.5c0.9,5.3,9,28,23.8,33.7c10.7,4.2,14.5-1.3,14.7-5.2c0.2-3.9-5.6-5.3-8.3,0.3
			c-1.3,2.8-0.8,8.5,2.6,13.8"/>
	</g>
	<g>
		<g>
			<path class="st1" d="M318.1,117.8h-14.7v-11.1c0-4,3.3-7.3,7.3-7.3l0,0c4,0,7.3,3.3,7.3,7.3V117.8z"/>
			<circle class="st1" cx="310.8" cy="94.3" r="6.8"/>
		</g>
		<g>
			<path class="st1" d="M354.3,122.4h-14.7v-11.1c0-4,3.3-7.3,7.3-7.3l0,0c4,0,7.3,3.3,7.3,7.3V122.4z"/>
			<circle class="st1" cx="347" cy="98.8" r="6.8"/>
		</g>
	</g>
	<path class="st25" d="M308.2,125.3h3.9c0.2,0,0.3,0.2,0.2,0.4l-3.9,3.9c-0.1,0.1-0.4,0-0.4-0.2v-3.9
		C308,125.4,308.1,125.3,308.2,125.3z"/>
	<path class="st25" d="M350,85.7h-3.9c-0.2,0-0.3-0.2-0.2-0.4l3.9-3.9c0.1-0.1,0.4,0,0.4,0.2v3.9C350.2,85.6,350.1,85.7,350,85.7z"
		/>
	<g>
		<path class="st26" d="M308.5,84.9c5.2-5.2,12.5-8.5,20.5-8.5s15.2,3.2,20.5,8.5"/>
		<path class="st26" d="M349.4,125.8c-5.2,5.2-12.5,8.5-20.5,8.5s-15.2-3.2-20.5-8.5"/>
	</g>
	<path class="st24" d="M284.8,103.2c0,0-8.2-7.9-20.4-12.5c-8.9-3.4-19.9-5.1-31.5-0.8c-27.5,10.2-25.4,27.2-19.2,35
		c6.2,7.8,19.8,0.6,15.3-14.6c-0.6-2.1-1.9-4.5-3.9-7c-24.2-32-84.7-10.3-77.9,29.3"/>
	<g>
		<path class="st24" d="M372,111.8c0,0,11.9,31.8-8.5,52.9c-2.5,2.6-5,4.8-7.4,6.6"/>
		<path class="st24" d="M356.1,171.2c-16.5,12.4-28.3,4.8-32.4-2.9c-4.7-8.8,7.4-18.4,19.5-8.2c9.1,7.7,15.8,34.6-0.7,59.6"/>
	</g>
	<path class="st27" d="M328.9,67.7L328.9,67.7c-2.3,0-4.2-1.9-4.2-4.2v-0.1h8.4v0.1C333.1,65.8,331.2,67.7,328.9,67.7z"/>
	<circle class="st1" cx="328.9" cy="43.8" r="12.4"/>
	<rect x="324.7" y="54.7" class="st28" width="8.4" height="8.7"/>
	<polyline class="st29" points="324.1,54.3 324.1,43.2 326.5,46.1 328.9,43.2 331.3,46.1 333.7,43.2 333.7,54.1 	"/>
	<path class="st28" d="M334.5,56.7h-11.2c-0.7,0-1.3-0.6-1.3-1.3v0c0-0.7,0.6-1.3,1.3-1.3h11.2c0.7,0,1.3,0.6,1.3,1.3v0
		C335.8,56.1,335.2,56.7,334.5,56.7z"/>
	<path class="st27" d="M334.5,59h-11.2c-0.7,0-1.3-0.6-1.3-1.3l0,0c0-0.7,0.6-1.3,1.3-1.3h11.2c0.7,0,1.3,0.6,1.3,1.3l0,0
		C335.8,58.4,335.2,59,334.5,59z"/>
	<path class="st28" d="M334.5,61.1h-11.2c-0.7,0-1.3-0.6-1.3-1.3l0,0c0-0.7,0.6-1.3,1.3-1.3h11.2c0.7,0,1.3,0.6,1.3,1.3l0,0
		C335.8,60.5,335.2,61.1,334.5,61.1z"/>
	<g>
		<path class="st24" d="M309.6,247.3c0.5-0.3,0.9-0.6,1.4-0.8c1.2-0.7,2.5-1.4,3.8-2c1.1-0.5,2.1-1,3.2-1.4"/>
		<path class="st24" d="M226.4,192.9c17.7,4.7,59.9,36.9,59.9,36.9c13.6,12.1,22.7,23.4,27,33.4c4.4,10,4,18.7-1.2,25.8
			c-5.2,7-14.6,4.5-20.7-1.8c-13-14.2,6.3-30.9,10.3-34.1"/>
	</g>
	
		<rect x="349.2" y="348.5" transform="matrix(-1 -1.224647e-16 1.224647e-16 -1 705.3187 774.9982)" class="st7" width="7" height="77.9"/>
	<path class="st7" d="M349.2,386.8L349.2,386.8c5.3,0,9.5-4.3,9.5-9.5v-36.1h-9.5V386.8z"/>
	
		<rect x="349.2" y="421" transform="matrix(-1 -1.224647e-16 1.224647e-16 -1 705.3187 847.5008)" class="st30" width="7" height="5.4"/>
	<polygon class="st10" points="343.3,426.5 356.2,426.5 356.2,421 	"/>
	
		<rect x="355.3" y="348.5" transform="matrix(-1 -1.224647e-16 1.224647e-16 -1 717.6078 774.9982)" class="st9" width="7" height="77.9"/>
	
		<rect x="355.3" y="421" transform="matrix(-1 -1.224647e-16 1.224647e-16 -1 717.6078 847.5008)" class="st31" width="7" height="5.4"/>
	<polygon class="st11" points="349.4,426.5 362.3,426.5 362.3,421 	"/>
	<path class="st9" d="M355.3,393.2L355.3,393.2c5.3,0,9.5-4.3,9.5-9.5v-36.1h-9.5V393.2z"/>
	<path class="st11" d="M348.1,373.9c0.1,0.9,29.4-1,29.4-1.9l-1.9-29.3c-0.5-8.1-7.5-14.3-15.6-13.7l0,0
		c-8.1,0.5-14.3,7.5-13.7,15.6L348.1,373.9z"/>
	<g>
		<path class="st32" d="M350.1,285.3c-1.9,2.5-4,4.7-6.3,6.7l5.8,13.3c0.9,2.1,3.4,3.1,5.6,2.2c2.1-0.9,3.1-3.4,2.2-5.6L350.1,285.3
			z"/>
		<g>
			
				<rect x="350" y="319.1" transform="matrix(-1 8.325697e-03 -8.325697e-03 -1 721.6137 656.0797)" class="st11" width="18.9" height="20.8"/>
			<path class="st11" d="M360.7,330.2L360.7,330.2c6.1-1.4,9.8-7.5,8.4-13.5L366,303c-0.6-2.7-3.3-4.4-6-3.7l-7,1.6
				c-5.6,1.3-9.1,6.9-7.8,12.5l1.9,8.4C348.5,327.8,354.6,331.6,360.7,330.2z"/>
			<path class="st11" d="M348.1,318.1l11.2-1.3l-0.9-7.7l-11.2,1.3c-2.1,0.2-3.7,2.2-3.4,4.3l0,0C344,316.8,346,318.4,348.1,318.1z"
				/>
			<g>
				<path class="st10" d="M343.8,314.7c0.3,1.4,1.4,2.5,2.7,2.9c0.7,0.2,1.3,0.2,2,0.1l2.2-0.3c2.9-0.3,5.8-0.6,8.7-0.6
					c-2.8,0.7-5.7,1.1-8.6,1.4l-2.2,0.2c-0.7,0.1-1.6,0.1-2.3-0.2C344.7,317.7,343.7,316.2,343.8,314.7z"/>
			</g>
		</g>
		<g>
			<ellipse transform="matrix(0.2437 -0.9699 0.9699 0.2437 -10.1887 565.6512)" cx="357.6" cy="289.4" rx="9.6" ry="9.6"/>
			<path d="M369.3,284.5c-5.5-1.5-11.2,1.7-12.7,7.3c-0.8,2.8-0.3,5.7,1.1,8l2.3-0.5c2.7-0.6,5.4,1.1,6,3.7l0.4,1.9
				c4.6,0.1,8.9-2.9,10.2-7.6C378.1,291.7,374.9,286,369.3,284.5z"/>
			<path class="st33" d="M351.3,287.9c-1.5,3.9-0.1,8.1,3.1,9.3l0,0c3.2,1.2,7.1-0.9,8.6-4.9l1.2-3.1c1.5-3.9,0.1-8.1-3.1-9.3l0,0
				c-3.2-1.2-7.1,0.9-8.6,4.9L351.3,287.9z"/>
			<ellipse transform="matrix(0.2635 -0.9647 0.9647 0.2635 -3.396 563.5246)" cx="367.4" cy="284" rx="10.4" ry="10.4"/>
			<g>
				<path class="st32" d="M351.3,289c-0.1,0.5,0.4,1.1,1.1,1.2c0.7,0.2,1.2-0.1,1.3-0.6c0.1-0.5-0.4-1.1-1.1-1.2
					C351.9,288.3,351.4,288.5,351.3,289z"/>
			</g>
			<g>
				<g>
					<g>
						<path class="st33" d="M359.9,293.6l2.8,1.1c1,0.4,2.1-0.1,2.5-1.1l0,0c0.4-1-0.1-2.1-1.1-2.5l-0.8-0.3
							c-1.1-0.4-2.3,0.1-2.7,1.2L359.9,293.6z"/>
					</g>
				</g>
				
					<ellipse transform="matrix(0.4961 -0.8683 0.8683 0.4961 -71.2602 462.8913)" class="st32" cx="363.2" cy="292.8" rx="0.9" ry="0.9"/>
			</g>
			
				<ellipse transform="matrix(0.25 -0.9682 0.9682 0.25 -12.6429 561.9871)" class="st32" cx="356.5" cy="289.2" rx="0.4" ry="0.4"/>
			
				<ellipse transform="matrix(0.2501 -0.9682 0.9682 0.2501 -13.9578 556.0262)" class="st32" cx="352" cy="287" rx="0.4" ry="0.4"/>
			<ellipse class="st33" cx="354.1" cy="307.5" rx="5.5" ry="4.8"/>
			<path class="st33" d="M354.4,306.7L354.4,306.7c1.9,0.2,3.6-1.1,3.8-3l1.1-9.5l-6.8-0.8l-1.1,9.5
				C351.1,304.8,352.5,306.5,354.4,306.7z"/>
			<ellipse transform="matrix(0.2635 -0.9647 0.9647 0.2635 -4.9219 550.9461)" cx="358.4" cy="278.7" rx="8.6" ry="8.6"/>
			<g>
				<line class="st34" x1="351.9" y1="291.6" x2="353.9" y2="292.5"/>
				<path class="st35" d="M353.9,292.5c-0.3,0.8-0.9,1-1.5,0.7c-0.6-0.2-0.9-0.8-0.5-1.6L353.9,292.5z"/>
			</g>
		</g>
		<path class="st10" d="M364,303.6c-1.3-2-3.9-2.5-5.8-1.2l-2.1,1.3c0,0-11.3,4.8-11.2,7.7c-0.8,0.8-1.3,2-1.2,3.3
			c0.2,1.5,1.2,2.7,2.5,3.2l0.3,1.5c0.4-0.1,0.8-0.2,1.1-0.4c0.4-0.1,0.9-0.3,1.3-0.6l13.8-9C364.8,308.2,365.3,305.6,364,303.6z"/>
		<g>
			<path class="st33" d="M347.8,316.1L347.8,316.1c1.4-1.8,1-4.3-0.7-5.7l-15.7-11.9c-1.8-1.4-4.3-1-5.7,0.7l0,0
				c-1.4,1.8-1,4.3,0.7,5.7l15.7,11.9C343.9,318.2,346.5,317.9,347.8,316.1z"/>
			<g>
				
					<ellipse transform="matrix(0.6391 -0.7691 0.7691 0.6391 -112.5389 362.2446)" class="st33" cx="329.7" cy="301" rx="5.1" ry="5.1"/>
				<path class="st33" d="M333.3,300.5L333.3,300.5c0.7,0.2,1.3-0.2,1.5-0.9l0.7-2.3c0.2-0.7-0.2-1.3-0.9-1.5l0,0
					c-0.7-0.2-1.3,0.2-1.5,0.9l-0.7,2.3C332.3,299.7,332.7,300.3,333.3,300.5z"/>
				<path class="st33" d="M326.7,293.5l1.2,4.4c0.2,0.7,0.9,1.1,1.6,0.9l0,0c0.7-0.2,1.1-0.9,0.9-1.6l-1.2-4.4
					c-0.2-0.7-0.9-1.1-1.6-0.9l0,0C326.9,292.1,326.5,292.8,326.7,293.5z"/>
			</g>
			<path class="st33" d="M341.9,315.1L341.9,315.1c1,2.1,3.6,2.9,5.7,1.9l14.7-7.4c2.1-1,2.9-3.6,1.9-5.7l0,0
				c-1-2.1-3.6-2.9-5.7-1.9l-14.7,7.4C341.7,310.5,340.9,313,341.9,315.1z"/>
			<g>
				<path class="st36" d="M334.6,301c1.8,1.2,3.5,2.5,5.3,3.8c1.7,1.3,3.5,2.6,5.2,3.9l-0.3,0c3.2-1.7,6.5-3.3,9.8-4.9l2.5-1.2
					l1.2-0.6c0.4-0.2,0.9-0.4,1.3-0.5c1.9-0.4,3.9,0.7,4.6,2.4c-0.9-1.6-2.8-2.5-4.5-2.1c-0.9,0.2-1.6,0.7-2.4,1.1l-2.4,1.3
					c-3.2,1.6-6.5,3.3-9.8,4.9l-0.1,0.1l-0.1-0.1c-1.7-1.3-3.4-2.6-5.1-4C338,303.7,336.3,302.4,334.6,301z"/>
			</g>
		</g>
	</g>
	<g>
		<ellipse class="st6" cx="369" cy="469.2" rx="46.1" ry="6.4"/>
		<g>
			<g>
				<path class="st3" d="M379.8,471.3L379.8,471.3c-1.7,0-3-1.3-3-3V403c0-1.7,1.3-3,3-3l0,0c1.7,0,3,1.3,3,3v65.3
					C382.8,470,381.5,471.3,379.8,471.3z"/>
				<path class="st3" d="M343,471.3L343,471.3c-1.7,0-3-1.3-3-3v-39.1c0-1.7,1.3-3,3-3l0,0c1.7,0,3,1.3,3,3v39.1
					C346,470,344.6,471.3,343,471.3z"/>
				<path class="st3" d="M381.3,433.3h-35.7c-2,0-3.5-1.6-3.5-3.5l0,0c0-2,1.6-3.5,3.5-3.5h35.7c2,0,3.5,1.6,3.5,3.5l0,0
					C384.9,431.7,383.3,433.3,381.3,433.3z"/>
				<path class="st8" d="M400.6,433.3h-33.7v-42.7c0-9.3,7.5-16.9,16.9-16.9l0,0c9.3,0,16.9,7.5,16.9,16.9V433.3z"/>
				<path class="st3" d="M392.3,427h-21v-36.4c0-5.8,4.7-10.5,10.5-10.5l0,0c5.8,0,10.5,4.7,10.5,10.5V427z"/>
				<path class="st8" d="M397.6,471.3L397.6,471.3c-1.7,0-3-1.3-3-3V403c0-1.7,1.3-3,3-3l0,0c1.7,0,3,1.3,3,3v65.3
					C400.6,470,399.2,471.3,397.6,471.3z"/>
			</g>
			<g>
				<path class="st8" d="M397,433.3h-35.7c-2,0-3.5-1.6-3.5-3.5l0,0c0-2,1.6-3.5,3.5-3.5H397c2,0,3.5,1.6,3.5,3.5l0,0
					C400.6,431.7,399,433.3,397,433.3z"/>
				<path class="st8" d="M360.7,471.3L360.7,471.3c-1.7,0-3-1.3-3-3v-39.1c0-1.7,1.3-3,3-3l0,0c1.7,0,3,1.3,3,3v39.1
					C363.7,470,362.4,471.3,360.7,471.3z"/>
			</g>
		</g>
	</g>
	<g>
		<path class="st37" d="M404.7,187.7c0,0.4-0.3,0.6-0.6,0.6h-3.2c-0.4,0-0.6-0.3-0.6-0.6c0-0.4,0.3-0.6,0.6-0.6h3.2
			C404.4,187.1,404.7,187.3,404.7,187.7z M398.3,187.7c0,0.4-0.3,0.6-0.6,0.6h-3.2c-0.4,0-0.6-0.3-0.6-0.6c0-0.4,0.3-0.6,0.6-0.6
			h3.2C398,187.1,398.3,187.3,398.3,187.7z M391.9,187.7c0,0.4-0.3,0.6-0.6,0.6h-1.8c-0.4,0-0.6-0.3-0.6-0.6c0-0.4,0.3-0.6,0.6-0.6
			h1.8C391.7,187.1,391.9,187.3,391.9,187.7z"/>
		<path class="st37" d="M146.3,80.7c0,0.4-0.3,0.6-0.6,0.6h-3.2c-0.4,0-0.6-0.3-0.6-0.6c0-0.4,0.3-0.6,0.6-0.6h3.2
			C146,80,146.3,80.3,146.3,80.7z M139.9,80.7c0,0.4-0.3,0.6-0.6,0.6h-3.2c-0.4,0-0.6-0.3-0.6-0.6c0-0.4,0.3-0.6,0.6-0.6h3.2
			C139.6,80,139.9,80.3,139.9,80.7z M133.5,80.7c0,0.4-0.3,0.6-0.6,0.6h-1.8c-0.4,0-0.6-0.3-0.6-0.6c0-0.4,0.3-0.6,0.6-0.6h1.8
			C133.2,80,133.5,80.3,133.5,80.7z"/>
		<circle class="st37" cx="435.8" cy="132.2" r="2.3"/>
		<g>
			<path class="st37" d="M394.3,101.1c-0.4,0-0.6,0.3-0.6,0.6v1.5c0,0.4,0.3,0.6,0.6,0.6c0.4,0,0.6-0.3,0.6-0.6v-1.5
				C395,101.4,394.7,101.1,394.3,101.1z"/>
			<path class="st37" d="M392.6,99.6h-1.5c-0.4,0-0.6,0.3-0.6,0.6c0,0.4,0.3,0.6,0.6,0.6h1.5c0.4,0,0.6-0.3,0.6-0.6
				C393.3,99.9,393,99.6,392.6,99.6z"/>
			<path class="st37" d="M394.3,96.5c-0.4,0-0.6,0.3-0.6,0.6v1.5c0,0.4,0.3,0.6,0.6,0.6c0.4,0,0.6-0.3,0.6-0.6v-1.5
				C395,96.8,394.7,96.5,394.3,96.5z"/>
			<path class="st37" d="M397.5,99.5H396c-0.4,0-0.6,0.3-0.6,0.6s0.3,0.6,0.6,0.6h1.5c0.4,0,0.6-0.3,0.6-0.6S397.8,99.5,397.5,99.5z
				"/>
		</g>
		<g>
			<path class="st37" d="M285.6,32.6c-0.4,0-0.6,0.3-0.6,0.6v1.5c0,0.4,0.3,0.6,0.6,0.6c0.4,0,0.6-0.3,0.6-0.6v-1.5
				C286.3,32.9,286,32.6,285.6,32.6z"/>
			<path class="st37" d="M283.9,31.1h-1.5c-0.4,0-0.6,0.3-0.6,0.6c0,0.4,0.3,0.6,0.6,0.6h1.5c0.4,0,0.6-0.3,0.6-0.6
				C284.6,31.4,284.3,31.1,283.9,31.1z"/>
			<path class="st37" d="M285.6,28c-0.4,0-0.6,0.3-0.6,0.6v1.5c0,0.4,0.3,0.6,0.6,0.6c0.4,0,0.6-0.3,0.6-0.6v-1.5
				C286.3,28.3,286,28,285.6,28z"/>
			<path class="st37" d="M288.8,31h-1.5c-0.4,0-0.6,0.3-0.6,0.6c0,0.4,0.3,0.6,0.6,0.6h1.5c0.4,0,0.6-0.3,0.6-0.6
				C289.4,31.3,289.1,31,288.8,31z"/>
		</g>
		<path class="st37" d="M87.7,141.5c0,0,0.5,3.6-3.7,3.5c0,0,3.6,0,3.5,3.4c0,0,0.3-2.6,3.6-3.2C91.1,145.1,88.4,145.8,87.7,141.5z"
			/>
		<path class="st37" d="M197.1,39c0,0,0.5,3.6-3.7,3.5c0,0,3.6,0,3.5,3.4c0,0,0.3-2.6,3.6-3.2C200.5,42.7,197.8,43.3,197.1,39z"/>
		<path class="st37" d="M315.8,176.6c0,0,0.3,2.2-2.2,2.1c0,0,2.2,0,2.1,2.1c0,0,0.2-1.6,2.2-2C317.9,178.9,316.2,179.2,315.8,176.6
			z"/>
		<path class="st37" d="M455.9,95.6h-14.2c-1.8,0-3.3-1.5-3.3-3.3c0-1.8,1.4-3.2,3.2-3.3c0-2.8,2.3-5,5.1-5c1.7,0,3.3,0.9,4.3,2.3
			c1.9-0.3,3.6,0.9,4.1,2.7h0.8c1.8,0,3.3,1.5,3.3,3.3C459.1,94.1,457.7,95.6,455.9,95.6z M441.7,90c-1.3,0-2.3,1-2.3,2.3
			c0,1.3,1,2.3,2.3,2.3h14.2c1.3,0,2.3-1,2.3-2.3c0-1.3-1-2.3-2.3-2.3h-1.6l-0.1-0.4c-0.2-1.5-1.7-2.6-3.4-2.2l-0.4,0.1l-0.2-0.3
			c-0.7-1.3-2.1-2.1-3.6-2.1c-2.3,0-4.1,1.8-4.1,4.1c0,0.1,0,0.2,0,0.4l0,0.5H441.7z"/>
		<path class="st37" d="M287,80.7h-1.4v-1.4c0-0.4-0.3-0.7-0.7-0.7c-0.4,0-0.7,0.3-0.7,0.7v1.4h-1.4c-0.4,0-0.7,0.3-0.7,0.7
			s0.3,0.7,0.7,0.7h1.4v1.4c0,0.4,0.3,0.7,0.7,0.7c0.4,0,0.7-0.3,0.7-0.7V82h1.4c0.4,0,0.7-0.3,0.7-0.7S287.4,80.7,287,80.7z"/>
		<path class="st37" d="M416.7,179.9c0,1.4-1.2,2.6-2.6,2.6c-1.4,0-2.6-1.2-2.6-2.6c0-1.4,1.2-2.6,2.6-2.6
			C415.5,177.4,416.7,178.5,416.7,179.9z M415.4,179.9c0-0.7-0.6-1.3-1.3-1.3c-0.7,0-1.3,0.6-1.3,1.3c0,0.7,0.6,1.3,1.3,1.3
			C414.8,181.2,415.4,180.7,415.4,179.9z"/>
		<path class="st37" d="M434.5,33c0,1.4-1.2,2.6-2.6,2.6c-1.4,0-2.6-1.2-2.6-2.6c0-1.4,1.2-2.6,2.6-2.6
			C433.3,30.5,434.5,31.6,434.5,33z M433.2,33c0-0.7-0.6-1.3-1.3-1.3c-0.7,0-1.3,0.6-1.3,1.3c0,0.7,0.6,1.3,1.3,1.3
			C432.6,34.3,433.2,33.8,433.2,33z"/>
		<path class="st37" d="M97,27c0,1.4-1.2,2.6-2.6,2.6c-1.4,0-2.6-1.2-2.6-2.6c0-1.4,1.2-2.6,2.6-2.6C95.8,24.4,97,25.6,97,27z
			 M95.7,27c0-0.7-0.6-1.3-1.3-1.3c-0.7,0-1.3,0.6-1.3,1.3c0,0.7,0.6,1.3,1.3,1.3C95.1,28.3,95.7,27.7,95.7,27z"/>
		<path class="st37" d="M452.4,228.7c-0.4,0-0.6,0.3-0.6,0.6v1.5c0,0.4,0.3,0.6,0.6,0.6c0.4,0,0.6-0.3,0.6-0.6v-1.5
			C453,229,452.7,228.7,452.4,228.7z"/>
		<path class="st37" d="M450.7,227.2h-1.5c-0.4,0-0.6,0.3-0.6,0.6c0,0.4,0.3,0.6,0.6,0.6h1.5c0.4,0,0.6-0.3,0.6-0.6
			C451.3,227.5,451.1,227.2,450.7,227.2z"/>
		<path class="st37" d="M452.4,224.2c-0.4,0-0.6,0.3-0.6,0.6v1.5c0,0.4,0.3,0.6,0.6,0.6c0.4,0,0.6-0.3,0.6-0.6v-1.5
			C453,224.5,452.7,224.2,452.4,224.2z"/>
		<path class="st37" d="M455.5,227.1H454c-0.4,0-0.6,0.3-0.6,0.6c0,0.4,0.3,0.6,0.6,0.6h1.5c0.4,0,0.6-0.3,0.6-0.6
			C456.2,227.4,455.9,227.1,455.5,227.1z"/>
		<g>
			<path class="st37" d="M465.9,142.2c0.4,0,0.6-0.3,0.6-0.6v-1.5c0-0.4-0.3-0.6-0.6-0.6c-0.4,0-0.6,0.3-0.6,0.6v1.5
				C465.3,141.9,465.5,142.2,465.9,142.2z"/>
			<path class="st37" d="M467.6,143.7h1.5c0.4,0,0.6-0.3,0.6-0.6s-0.3-0.6-0.6-0.6h-1.5c-0.4,0-0.6,0.3-0.6,0.6
				S467.2,143.7,467.6,143.7z"/>
			<path class="st37" d="M465.9,146.8c0.4,0,0.6-0.3,0.6-0.6v-1.5c0-0.4-0.3-0.6-0.6-0.6c-0.4,0-0.6,0.3-0.6,0.6v1.5
				C465.3,146.5,465.5,146.8,465.9,146.8z"/>
			<path class="st37" d="M462.7,143.8h1.5c0.4,0,0.6-0.3,0.6-0.6c0-0.4-0.3-0.6-0.6-0.6h-1.5c-0.4,0-0.6,0.3-0.6,0.6
				C462.1,143.5,462.4,143.8,462.7,143.8z"/>
		</g>
		<path class="st37" d="M447.4,252.9c0,0,0.5,3.6-3.7,3.5c0,0,3.6,0,3.5,3.4c0,0,0.3-2.6,3.6-3.2C450.8,256.6,448,257.2,447.4,252.9
			z"/>
		<path class="st37" d="M375.2,257.5c0,0,0.3,2.2-2.2,2.1c0,0,2.2,0,2.1,2.1c0,0,0.2-1.6,2.2-2C377.3,259.8,375.6,260.2,375.2,257.5
			z"/>
		<path class="st37" d="M456.4,206.1h-14.2c-1.8,0-3.3-1.5-3.3-3.3c0-1.8,1.4-3.2,3.2-3.3c0-2.8,2.3-5,5.1-5c1.7,0,3.3,0.9,4.3,2.3
			c1.9-0.3,3.6,0.9,4.1,2.7h0.8c1.8,0,3.3,1.5,3.3,3.3C459.7,204.6,458.2,206.1,456.4,206.1z M442.2,200.5c-1.3,0-2.3,1-2.3,2.3
			c0,1.3,1,2.3,2.3,2.3h14.2c1.3,0,2.3-1,2.3-2.3c0-1.3-1-2.3-2.3-2.3h-1.6l-0.1-0.4c-0.2-1.5-1.7-2.6-3.4-2.2l-0.4,0.1l-0.2-0.3
			c-0.7-1.3-2.1-2.1-3.6-2.1c-2.3,0-4.1,1.8-4.1,4.1c0,0.1,0,0.2,0,0.4l0,0.5H442.2z"/>
		<path class="st37" d="M280,59.5c0,0.4-0.3,0.6-0.6,0.6h-3.2c-0.4,0-0.6-0.3-0.6-0.6c0-0.4,0.3-0.6,0.6-0.6h3.2
			C279.7,58.9,280,59.1,280,59.5z M273.6,59.5c0,0.4-0.3,0.6-0.6,0.6h-3.2c-0.4,0-0.6-0.3-0.6-0.6c0-0.4,0.3-0.6,0.6-0.6h3.2
			C273.3,58.9,273.6,59.1,273.6,59.5z M267.2,59.5c0,0.4-0.3,0.6-0.6,0.6h-1.8c-0.4,0-0.6-0.3-0.6-0.6c0-0.4,0.3-0.6,0.6-0.6h1.8
			C266.9,58.9,267.2,59.1,267.2,59.5z"/>
		<path class="st37" d="M428.6,244.2h-1.4v-1.4c0-0.4-0.3-0.7-0.7-0.7c-0.4,0-0.7,0.3-0.7,0.7v1.4h-1.4c-0.4,0-0.7,0.3-0.7,0.7
			c0,0.4,0.3,0.7,0.7,0.7h1.4v1.4c0,0.4,0.3,0.7,0.7,0.7c0.4,0,0.7-0.3,0.7-0.7v-1.4h1.4c0.4,0,0.7-0.3,0.7-0.7
			C429.3,244.5,429,244.2,428.6,244.2z"/>
		<circle class="st37" cx="44.6" cy="146.2" r="2.3"/>
		<path class="st37" d="M104.2,118.2c-0.4,0-0.6,0.3-0.6,0.6v1.5c0,0.4,0.3,0.6,0.6,0.6c0.4,0,0.6-0.3,0.6-0.6v-1.5
			C104.8,118.5,104.6,118.2,104.2,118.2z"/>
		<path class="st37" d="M102.5,116.7H101c-0.4,0-0.6,0.3-0.6,0.6c0,0.4,0.3,0.6,0.6,0.6h1.5c0.4,0,0.6-0.3,0.6-0.6
			C103.2,117,102.9,116.7,102.5,116.7z"/>
		<path class="st37" d="M104.2,113.6c-0.4,0-0.6,0.3-0.6,0.6v1.5c0,0.4,0.3,0.6,0.6,0.6c0.4,0,0.6-0.3,0.6-0.6v-1.5
			C104.8,113.9,104.6,113.6,104.2,113.6z"/>
		<path class="st37" d="M107.4,116.6h-1.5c-0.4,0-0.6,0.3-0.6,0.6c0,0.4,0.3,0.6,0.6,0.6h1.5c0.4,0,0.6-0.3,0.6-0.6
			C108,116.9,107.7,116.6,107.4,116.6z"/>
		<path class="st37" d="M76.2,65.3c0,0,0.5,3.6-3.7,3.5c0,0,3.6,0,3.5,3.4c0,0,0.3-2.6,3.6-3.2C79.6,68.9,76.9,69.6,76.2,65.3z"/>
		<path class="st37" d="M72.6,95.6H58.4c-1.8,0-3.3-1.5-3.3-3.3c0-1.8,1.4-3.2,3.2-3.3c0-2.8,2.3-5,5.1-5c1.7,0,3.3,0.9,4.3,2.3
			c1.9-0.3,3.6,0.9,4.1,2.7h0.8c1.8,0,3.3,1.5,3.3,3.3C75.9,94.1,74.4,95.6,72.6,95.6z M58.4,90c-1.3,0-2.3,1-2.3,2.3
			c0,1.3,1,2.3,2.3,2.3h14.2c1.3,0,2.3-1,2.3-2.3c0-1.3-1-2.3-2.3-2.3h-1.6l-0.1-0.4c-0.2-1.5-1.7-2.6-3.4-2.2l-0.4,0.1L67,87.1
			c-0.7-1.3-2.1-2.1-3.6-2.1c-2.3,0-4.1,1.8-4.1,4.1c0,0.1,0,0.2,0,0.4l0,0.5H58.4z"/>
		<path class="st37" d="M126.2,37.1h-1.4v-1.4c0-0.4-0.3-0.7-0.7-0.7c-0.4,0-0.7,0.3-0.7,0.7v1.4H122c-0.4,0-0.7,0.3-0.7,0.7
			c0,0.4,0.3,0.7,0.7,0.7h1.4v1.4c0,0.4,0.3,0.7,0.7,0.7c0.4,0,0.7-0.3,0.7-0.7v-1.4h1.4c0.4,0,0.7-0.3,0.7-0.7
			C126.9,37.4,126.6,37.1,126.2,37.1z"/>
		<g>
			<path class="st37" d="M51.5,241.7c-0.4,0-0.6,0.3-0.6,0.6v1.5c0,0.4,0.3,0.6,0.6,0.6c0.4,0,0.6-0.3,0.6-0.6v-1.5
				C52.1,242,51.8,241.7,51.5,241.7z"/>
			<path class="st37" d="M49.8,240.2h-1.5c-0.4,0-0.6,0.3-0.6,0.6c0,0.4,0.3,0.6,0.6,0.6h1.5c0.4,0,0.6-0.3,0.6-0.6
				C50.4,240.5,50.2,240.2,49.8,240.2z"/>
			<path class="st37" d="M51.5,237.1c-0.4,0-0.6,0.3-0.6,0.6v1.5c0,0.4,0.3,0.6,0.6,0.6c0.4,0,0.6-0.3,0.6-0.6v-1.5
				C52.1,237.4,51.8,237.1,51.5,237.1z"/>
			<path class="st37" d="M54.6,240.1h-1.5c-0.4,0-0.6,0.3-0.6,0.6c0,0.4,0.3,0.6,0.6,0.6h1.5c0.4,0,0.6-0.3,0.6-0.6
				C55.3,240.4,55,240.1,54.6,240.1z"/>
		</g>
		<g>
			<path class="st37" d="M223.6,73.3c0.4,0,0.6-0.3,0.6-0.6v-1.5c0-0.4-0.3-0.6-0.6-0.6c-0.4,0-0.6,0.3-0.6,0.6v1.5
				C223,73.1,223.3,73.3,223.6,73.3z"/>
			<path class="st37" d="M225.3,74.8h1.5c0.4,0,0.6-0.3,0.6-0.6s-0.3-0.6-0.6-0.6h-1.5c-0.4,0-0.6,0.3-0.6,0.6
				S224.9,74.8,225.3,74.8z"/>
			<path class="st37" d="M223.6,77.9c0.4,0,0.6-0.3,0.6-0.6v-1.5c0-0.4-0.3-0.6-0.6-0.6c-0.4,0-0.6,0.3-0.6,0.6v1.5
				C223,77.6,223.3,77.9,223.6,77.9z"/>
			<path class="st37" d="M220.5,74.9h1.5c0.4,0,0.6-0.3,0.6-0.6c0-0.4-0.3-0.6-0.6-0.6h-1.5c-0.4,0-0.6,0.3-0.6,0.6
				C219.8,74.7,220.1,74.9,220.5,74.9z"/>
		</g>
		<path class="st37" d="M408.6,287.5c0,0,0.5,3.6-3.7,3.5c0,0,3.6,0,3.5,3.4c0,0,0.3-2.6,3.6-3.2
			C412.1,291.2,409.3,291.8,408.6,287.5z"/>
		<path class="st37" d="M99.8,267.4H85.6c-1.8,0-3.3-1.5-3.3-3.3c0-1.8,1.4-3.2,3.2-3.3c0-2.8,2.3-5,5.1-5c1.7,0,3.3,0.9,4.3,2.3
			c1.9-0.3,3.6,0.9,4.1,2.7h0.8c1.8,0,3.3,1.5,3.3,3.3C103,265.9,101.6,267.4,99.8,267.4z M85.6,261.8c-1.3,0-2.3,1-2.3,2.3
			c0,1.3,1,2.3,2.3,2.3h14.2c1.3,0,2.3-1,2.3-2.3c0-1.3-1-2.3-2.3-2.3h-1.6l-0.1-0.4c-0.2-1.5-1.7-2.6-3.4-2.2l-0.4,0.1l-0.2-0.3
			c-0.7-1.3-2.1-2.1-3.6-2.1c-2.3,0-4.1,1.8-4.1,4.1c0,0.1,0,0.2,0,0.4l0,0.5H85.6z"/>
		<path class="st37" d="M156,171.9c0,0.4-0.3,0.6-0.6,0.6h-3.2c-0.4,0-0.6-0.3-0.6-0.6c0-0.4,0.3-0.6,0.6-0.6h3.2
			C155.8,171.2,156,171.5,156,171.9z M149.7,171.9c0,0.4-0.3,0.6-0.6,0.6h-3.2c-0.4,0-0.6-0.3-0.6-0.6c0-0.4,0.3-0.6,0.6-0.6h3.2
			C149.4,171.2,149.7,171.5,149.7,171.9z M143.3,171.9c0,0.4-0.3,0.6-0.6,0.6h-1.8c-0.4,0-0.6-0.3-0.6-0.6c0-0.4,0.3-0.6,0.6-0.6
			h1.8C143,171.2,143.3,171.5,143.3,171.9z"/>
		<g>
			<path class="st37" d="M140.3,231.7h14.6c0.4,0,0.6-0.3,0.6-0.6c0-0.4-0.3-0.6-0.6-0.6h-14.6c-0.4,0-0.6,0.3-0.6,0.6
				C139.7,231.4,139.9,231.7,140.3,231.7z"/>
			<path class="st37" d="M159.6,231.7h2.9c0.4,0,0.6-0.3,0.6-0.6c0-0.4-0.3-0.6-0.6-0.6h-2.9c-0.4,0-0.6,0.3-0.6,0.6
				C158.9,231.4,159.2,231.7,159.6,231.7z"/>
			<path class="st37" d="M147.2,226.6c0-0.4,0.3-0.6,0.6-0.6h1.8c0.4,0,0.6,0.3,0.6,0.6c0,0.4-0.3,0.6-0.6,0.6h-1.8
				C147.4,227.2,147.2,226.9,147.2,226.6z M152.2,226.6c0-0.4,0.3-0.6,0.6-0.6h3.2c0.4,0,0.6,0.3,0.6,0.6c0,0.4-0.3,0.6-0.6,0.6
				h-3.2C152.5,227.2,152.2,226.9,152.2,226.6z M158.6,226.6c0-0.4,0.3-0.6,0.6-0.6h3.2c0.4,0,0.6,0.3,0.6,0.6
				c0,0.4-0.3,0.6-0.6,0.6h-3.2C158.9,227.2,158.6,226.9,158.6,226.6z"/>
		</g>
		<path class="st37" d="M49.5,287.3h-1.4v-1.4c0-0.4-0.3-0.7-0.7-0.7c-0.4,0-0.7,0.3-0.7,0.7v1.4h-1.4c-0.4,0-0.7,0.3-0.7,0.7
			c0,0.4,0.3,0.7,0.7,0.7h1.4v1.4c0,0.4,0.3,0.7,0.7,0.7c0.4,0,0.7-0.3,0.7-0.7v-1.4h1.4c0.4,0,0.7-0.3,0.7-0.7
			C50.2,287.6,49.9,287.3,49.5,287.3z"/>
		<path class="st37" d="M246.1,111.5h-1.4V110c0-0.4-0.3-0.7-0.7-0.7c-0.4,0-0.7,0.3-0.7,0.7v1.4h-1.4c-0.4,0-0.7,0.3-0.7,0.7
			c0,0.4,0.3,0.7,0.7,0.7h1.4v1.4c0,0.4,0.3,0.7,0.7,0.7c0.4,0,0.7-0.3,0.7-0.7v-1.4h1.4c0.4,0,0.7-0.3,0.7-0.7
			C246.8,111.8,246.5,111.5,246.1,111.5z"/>
		<g>
			<path class="st37" d="M86.6,213.4H72c-0.4,0-0.6,0.3-0.6,0.6c0,0.4,0.3,0.6,0.6,0.6h14.6c0.4,0,0.6-0.3,0.6-0.6
				C87.3,213.7,87,213.4,86.6,213.4z"/>
			<path class="st37" d="M67.4,213.4h-2.9c-0.4,0-0.6,0.3-0.6,0.6c0,0.4,0.3,0.6,0.6,0.6h2.9c0.4,0,0.6-0.3,0.6-0.6
				C68,213.7,67.7,213.4,67.4,213.4z"/>
			<path class="st37" d="M79.8,218.5c0,0.4-0.3,0.6-0.6,0.6h-1.8c-0.4,0-0.6-0.3-0.6-0.6c0-0.4,0.3-0.6,0.6-0.6h1.8
				C79.5,217.8,79.8,218.1,79.8,218.5z M74.8,218.5c0,0.4-0.3,0.6-0.6,0.6h-3.2c-0.4,0-0.6-0.3-0.6-0.6c0-0.4,0.3-0.6,0.6-0.6h3.2
				C74.5,217.8,74.8,218.1,74.8,218.5z M68.4,218.5c0,0.4-0.3,0.6-0.6,0.6h-3.2c-0.4,0-0.6-0.3-0.6-0.6c0-0.4,0.3-0.6,0.6-0.6h3.2
				C68.1,217.8,68.4,218.1,68.4,218.5z"/>
		</g>
		<g>
			<path class="st37" d="M396.1,44.1h-14.6c-0.4,0-0.6,0.3-0.6,0.6c0,0.4,0.3,0.6,0.6,0.6h14.6c0.4,0,0.6-0.3,0.6-0.6
				C396.7,44.4,396.4,44.1,396.1,44.1z"/>
			<path class="st37" d="M376.8,44.1H374c-0.4,0-0.6,0.3-0.6,0.6c0,0.4,0.3,0.6,0.6,0.6h2.9c0.4,0,0.6-0.3,0.6-0.6
				C377.5,44.4,377.2,44.1,376.8,44.1z"/>
			<path class="st37" d="M389.2,49.2c0,0.4-0.3,0.6-0.6,0.6h-1.8c-0.4,0-0.6-0.3-0.6-0.6c0-0.4,0.3-0.6,0.6-0.6h1.8
				C388.9,48.5,389.2,48.8,389.2,49.2z M384.2,49.2c0,0.4-0.3,0.6-0.6,0.6h-3.2c-0.4,0-0.6-0.3-0.6-0.6c0-0.4,0.3-0.6,0.6-0.6h3.2
				C383.9,48.5,384.2,48.8,384.2,49.2z M377.8,49.2c0,0.4-0.3,0.6-0.6,0.6H374c-0.4,0-0.6-0.3-0.6-0.6c0-0.4,0.3-0.6,0.6-0.6h3.2
				C377.5,48.5,377.8,48.8,377.8,49.2z"/>
		</g>
		<g>
			<path class="st38" d="M141.1,48.3C141.1,48.3,141.1,48.3,141.1,48.3C141.2,48.3,141.2,48.3,141.1,48.3L141.1,48.3z"/>
		</g>
		<g>
			<path class="st39" d="M45.9,176.8C45.9,176.8,45.9,176.8,45.9,176.8C46,176.8,46,176.8,45.9,176.8L45.9,176.8z"/>
		</g>
		<g>
			<g>
				<path class="st37" d="M114.2,183.2c0.1-0.2,0.4-0.3,0.6-0.2c0.4,0.2,0.8,0.4,1.3,0.2c0.6-0.3,0.8-1,0.4-1.6
					c-0.4-0.7-1.1-0.6-1.7-0.2c-0.2,0.1-0.5,0-0.6-0.2v-2.7h0h-0.9h-1.7c-0.2-0.1-0.4-0.4-0.2-0.6c0.4-0.6,0.4-1.3-0.2-1.7
					c-0.5-0.3-1.3-0.1-1.6,0.4c-0.2,0.5,0,0.9,0.2,1.3c0.1,0.2,0,0.5-0.2,0.6h-2.6v2.5c0,0.3-0.4,0.5-0.6,0.4
					c-0.6-0.4-1.3-0.4-1.7,0.2c-0.3,0.5-0.1,1.3,0.4,1.6c0.5,0.2,0.9,0,1.3-0.2c0.3-0.2,0.6,0,0.6,0.4v2.5h2.6
					c0.3-0.1,0.4-0.4,0.3-0.6c-0.2-0.4-0.4-0.8-0.2-1.3c0.3-0.6,1-0.8,1.6-0.4c0.7,0.4,0.6,1.1,0.2,1.7c-0.2,0.2,0,0.6,0.3,0.6h1.5
					h1h0V183.2z"/>
			</g>
			<g>
				<g>
					<path class="st37" d="M101.8,178.6c-0.2-0.1-0.3-0.4-0.2-0.6c0.2-0.4,0.4-0.8,0.2-1.3c-0.3-0.6-1-0.8-1.6-0.4
						c-0.7,0.4-0.6,1.1-0.2,1.7c0.1,0.2,0,0.5-0.2,0.6l-2.7,0v0l0,0.9l0,1.7c-0.1,0.2-0.4,0.4-0.6,0.2c-0.6-0.4-1.3-0.4-1.7,0.2
						c-0.3,0.5-0.1,1.3,0.4,1.6c0.5,0.2,0.9,0,1.3-0.2c0.2-0.1,0.5,0,0.6,0.2l0,2.6l2.5,0c0,0,0,0,0,0h0.2c0.2-0.1,0.3-0.4,0.2-0.6
						c-0.4-0.6-0.4-1.3,0.2-1.7c0.5-0.3,1.3-0.1,1.6,0.4c0.2,0.5,0,0.9-0.2,1.3c-0.1,0.2,0,0.5,0.2,0.6h0.2c0,0,0,0,0,0l2.5,0l0-2.6
						c-0.1-0.3-0.3-0.4-0.6-0.3c-0.4,0.2-0.8,0.4-1.2,0.2c-0.6-0.3-0.8-1-0.5-1.6c0.4-0.7,1.1-0.6,1.7-0.2c0.2,0.2,0.6,0,0.6-0.3
						l0-1.5l0-1v0L101.8,178.6z"/>
				</g>
			</g>
		</g>
		<g>
			<g>
				<path class="st37" d="M63.4,53c0.1-0.2,0.4-0.3,0.6-0.2c0.4,0.2,0.8,0.4,1.3,0.2c0.6-0.3,0.8-1,0.4-1.6
					c-0.4-0.7-1.1-0.6-1.7-0.2c-0.2,0.1-0.5,0-0.6-0.2v-2.7h0h-0.9h-1.7c-0.2-0.1-0.4-0.4-0.2-0.6c0.4-0.6,0.4-1.3-0.2-1.7
					c-0.5-0.3-1.3-0.1-1.6,0.4c-0.2,0.5,0,0.9,0.2,1.3c0.1,0.2,0,0.5-0.2,0.6h-2.6v2.5c0,0.3-0.4,0.5-0.6,0.4
					c-0.6-0.4-1.3-0.4-1.7,0.2c-0.3,0.5-0.1,1.3,0.4,1.6c0.5,0.2,0.9,0,1.3-0.2c0.3-0.2,0.6,0,0.6,0.4v2.5h2.6
					c0.3-0.1,0.4-0.4,0.3-0.6c-0.2-0.4-0.4-0.8-0.2-1.3c0.3-0.6,1-0.8,1.6-0.4c0.7,0.4,0.6,1.1,0.2,1.7c-0.2,0.2,0,0.6,0.3,0.6h1.5
					h1h0V53z"/>
			</g>
			<g>
				<g>
					<path class="st37" d="M51,48.3c-0.2-0.1-0.3-0.4-0.2-0.6c0.2-0.4,0.4-0.8,0.2-1.3c-0.3-0.6-1-0.8-1.6-0.4
						c-0.7,0.4-0.6,1.1-0.2,1.7c0.1,0.2,0,0.5-0.2,0.6l-2.7,0v0l0,0.9l0,1.7c-0.1,0.2-0.4,0.4-0.6,0.2c-0.6-0.4-1.3-0.4-1.7,0.2
						c-0.3,0.5-0.1,1.3,0.4,1.6c0.5,0.2,0.9,0,1.3-0.2c0.2-0.1,0.5,0,0.6,0.2l0,2.6l2.5,0c0,0,0,0,0,0H49c0.2-0.1,0.3-0.4,0.2-0.6
						c-0.4-0.6-0.4-1.3,0.2-1.7c0.5-0.3,1.3-0.1,1.6,0.4c0.2,0.5,0,0.9-0.2,1.3c-0.1,0.2,0,0.5,0.2,0.6l0.2,0c0,0,0,0,0,0l2.5,0
						l0-2.6c-0.1-0.3-0.3-0.4-0.6-0.3c-0.4,0.2-0.8,0.4-1.2,0.2c-0.6-0.3-0.8-1-0.5-1.6c0.4-0.7,1.1-0.6,1.7-0.2
						c0.2,0.2,0.6,0,0.6-0.3l0-1.5l0-1v0L51,48.3z"/>
				</g>
			</g>
		</g>
		<g>
			<g>
				<path class="st37" d="M397.8,226.2c0.1-0.2,0.4-0.3,0.6-0.2c0.4,0.2,0.8,0.4,1.3,0.2c0.6-0.3,0.8-1,0.4-1.6
					c-0.4-0.7-1.1-0.6-1.7-0.2c-0.2,0.1-0.5,0-0.6-0.2v-2.7h0h-0.9h-1.7c-0.2-0.1-0.4-0.4-0.2-0.6c0.4-0.6,0.4-1.3-0.2-1.7
					c-0.5-0.3-1.3-0.1-1.6,0.4c-0.2,0.5,0,0.9,0.2,1.3c0.1,0.2,0,0.5-0.2,0.6h-2.6v2.5c0,0.3-0.4,0.5-0.6,0.4
					c-0.6-0.4-1.3-0.4-1.7,0.2c-0.3,0.5-0.1,1.3,0.4,1.6c0.5,0.2,0.9,0,1.3-0.2c0.3-0.2,0.6,0,0.6,0.4v2.5h2.6
					c0.3-0.1,0.4-0.4,0.3-0.6c-0.2-0.4-0.4-0.8-0.2-1.3c0.3-0.6,1-0.8,1.6-0.4c0.7,0.4,0.6,1.1,0.2,1.7c-0.2,0.2,0,0.6,0.3,0.6h1.5
					h1h0V226.2z"/>
			</g>
			<g>
				<g>
					<path class="st37" d="M385.3,221.5c-0.2-0.1-0.3-0.4-0.2-0.6c0.2-0.4,0.4-0.8,0.2-1.3c-0.3-0.6-1-0.8-1.6-0.4
						c-0.7,0.4-0.6,1.1-0.2,1.7c0.1,0.2,0,0.5-0.2,0.6l-2.7,0v0l0,0.9l0,1.7c-0.1,0.2-0.4,0.4-0.6,0.2c-0.6-0.4-1.3-0.4-1.7,0.2
						c-0.3,0.5-0.1,1.3,0.4,1.6c0.5,0.2,0.9,0,1.3-0.2c0.2-0.1,0.5,0,0.6,0.2l0,2.6l2.5,0c0,0,0,0,0,0h0.2c0.2-0.1,0.3-0.4,0.2-0.6
						c-0.4-0.6-0.4-1.3,0.2-1.7c0.5-0.3,1.3-0.1,1.6,0.4c0.2,0.5,0,0.9-0.2,1.3c-0.1,0.2,0,0.5,0.2,0.6h0.2c0,0,0,0,0,0l2.5,0l0-2.6
						c-0.1-0.3-0.3-0.4-0.6-0.3c-0.4,0.2-0.8,0.4-1.2,0.2c-0.6-0.3-0.8-1-0.5-1.6c0.4-0.7,1.1-0.6,1.7-0.2c0.2,0.2,0.6,0,0.6-0.3
						l0-1.5l0-1v0L385.3,221.5z"/>
				</g>
			</g>
		</g>
		<g>
			<g>
				<path class="st37" d="M424.4,56c0.1-0.2,0.4-0.3,0.6-0.2c0.4,0.2,0.8,0.4,1.3,0.2c0.6-0.3,0.8-1,0.4-1.6
					c-0.4-0.7-1.1-0.6-1.7-0.2c-0.2,0.1-0.5,0-0.6-0.2v-2.7h0h-0.9h-1.7c-0.2-0.1-0.4-0.4-0.2-0.6c0.4-0.6,0.4-1.3-0.2-1.7
					c-0.5-0.3-1.3-0.1-1.6,0.4c-0.2,0.5,0,0.9,0.2,1.3c0.1,0.2,0,0.5-0.2,0.6h-2.6v2.5c0,0.3-0.4,0.5-0.6,0.4
					c-0.6-0.4-1.3-0.4-1.7,0.2c-0.3,0.5-0.1,1.3,0.4,1.6c0.5,0.2,0.9,0,1.3-0.2c0.3-0.2,0.6,0,0.6,0.4v2.5h2.6
					c0.3-0.1,0.4-0.4,0.3-0.6c-0.2-0.4-0.4-0.8-0.2-1.3c0.3-0.6,1-0.8,1.6-0.4c0.7,0.4,0.6,1.1,0.2,1.7c-0.2,0.2,0,0.6,0.3,0.6h1.5
					h1h0V56z"/>
			</g>
			<g>
				<g>
					<path class="st37" d="M411.9,51.3c-0.2-0.1-0.3-0.4-0.2-0.6c0.2-0.4,0.4-0.8,0.2-1.3c-0.3-0.6-1-0.8-1.6-0.4
						c-0.7,0.4-0.6,1.1-0.2,1.7c0.1,0.2,0,0.5-0.2,0.6l-2.7,0v0l0,0.9l0,1.7c-0.1,0.2-0.4,0.4-0.6,0.2c-0.6-0.4-1.3-0.4-1.7,0.2
						c-0.3,0.5-0.1,1.3,0.4,1.6c0.5,0.2,0.9,0,1.3-0.2c0.2-0.1,0.5,0,0.6,0.2l0,2.6l2.5,0c0,0,0,0,0,0h0.2c0.2-0.1,0.3-0.4,0.2-0.6
						c-0.4-0.6-0.4-1.3,0.2-1.7c0.5-0.3,1.3-0.1,1.6,0.4c0.2,0.5,0,0.9-0.2,1.3c-0.1,0.2,0,0.5,0.2,0.6l0.2,0c0,0,0,0,0,0l2.5,0
						l0-2.6c-0.1-0.3-0.3-0.4-0.6-0.3c-0.4,0.2-0.8,0.4-1.2,0.2c-0.6-0.3-0.8-1-0.5-1.6c0.4-0.7,1.1-0.6,1.7-0.2
						c0.2,0.2,0.6,0,0.6-0.3l0-1.5l0-1v0L411.9,51.3z"/>
				</g>
			</g>
		</g>
		<g>
			<g>
				<path class="st37" d="M243.4,52.6c0.1-0.2,0.4-0.3,0.6-0.2c0.4,0.2,0.8,0.4,1.3,0.2c0.6-0.3,0.8-1,0.4-1.6
					c-0.4-0.7-1.1-0.6-1.7-0.2c-0.2,0.1-0.5,0-0.6-0.2v-2.7h0h-0.9h-1.7c-0.2-0.1-0.4-0.4-0.2-0.6c0.4-0.6,0.4-1.3-0.2-1.7
					c-0.5-0.3-1.3-0.1-1.6,0.4c-0.2,0.5,0,0.9,0.2,1.3c0.1,0.2,0,0.5-0.2,0.6h-2.6v2.5c0,0.3-0.4,0.5-0.6,0.4
					c-0.6-0.4-1.3-0.4-1.7,0.2c-0.3,0.5-0.1,1.3,0.4,1.6c0.5,0.2,0.9,0,1.3-0.2c0.3-0.2,0.6,0,0.6,0.4v2.5h2.6
					c0.3-0.1,0.4-0.4,0.3-0.6c-0.2-0.4-0.4-0.8-0.2-1.3c0.3-0.6,1-0.8,1.6-0.4c0.7,0.4,0.6,1.1,0.2,1.7c-0.2,0.2,0,0.6,0.3,0.6h1.5
					h1h0V52.6z"/>
			</g>
			<g>
				<g>
					<path class="st37" d="M231,47.9c-0.2-0.1-0.3-0.4-0.2-0.6c0.2-0.4,0.4-0.8,0.2-1.3c-0.3-0.6-1-0.8-1.6-0.4
						c-0.7,0.4-0.6,1.1-0.2,1.7c0.1,0.2,0,0.5-0.2,0.6l-2.7,0v0l0,0.9l0,1.7c-0.1,0.2-0.4,0.4-0.6,0.2c-0.6-0.4-1.3-0.4-1.7,0.2
						c-0.3,0.5-0.1,1.3,0.4,1.6c0.5,0.2,0.9,0,1.3-0.2c0.2-0.1,0.5,0,0.6,0.2l0,2.6l2.5,0c0,0,0,0,0,0h0.2c0.2-0.1,0.3-0.4,0.2-0.6
						c-0.4-0.6-0.4-1.3,0.2-1.7c0.5-0.3,1.3-0.1,1.6,0.4c0.2,0.5,0,0.9-0.2,1.3c-0.1,0.2,0,0.5,0.2,0.6h0.2c0,0,0,0,0,0l2.5,0l0-2.6
						c-0.1-0.3-0.3-0.4-0.6-0.3c-0.4,0.2-0.8,0.4-1.2,0.2c-0.6-0.3-0.8-1-0.5-1.6c0.4-0.7,1.1-0.6,1.7-0.2c0.2,0.2,0.6,0,0.6-0.3
						l0-1.5l0-1v0L231,47.9z"/>
				</g>
			</g>
		</g>
	</g>
	<g>
		<path d="M50.9,123.4l8.4,25.2l8.3-25.2h8.7l-13.5,35.6h-6.9l-13.6-35.6H50.9z"/>
		<path d="M86.1,123.4h7.4l13,35.6h-8.4l-2.8-8H84.3l-2.7,8h-8.4L86.1,123.4z M94,145.3l-4.2-12.6l-4.3,12.6H94z"/>
		<path d="M133.6,130.6h-10.8v28.3h-8.2v-28.3h-10.9v-7.2h29.9V130.6z"/>
	</g>
	<g>
		<path d="M413.3,130.6h-10.8v28.3h-8.2v-28.3h-10.9v-7.2h29.9V130.6z"/>
		<path d="M423.5,123.4h7.4l13,35.6h-8.4l-2.8-8h-11.1l-2.7,8h-8.4L423.5,123.4z M431.3,145.3l-4.2-12.6l-4.3,12.6H431.3z"/>
		<path d="M452.5,123.4l7.8,12.3l7.8-12.3h8.9l-12.3,18l11.9,17.5h-8.9l-7.4-11.8l-7.4,11.8H444l11.9-17.5l-12.3-18H452.5z"/>
	</g>
	<g>
		<path d="M415,250v-31.1h7.2V250H415z"/>
		<path d="M451.9,225.2h-9.5V250h-7.2v-24.8h-9.5v-6.3h26.2V225.2z"/>
	</g>
	<g>
		<g>
			<path d="M395.1,329.5v-14.6h5.5c1.2,0,2.3,0.2,3.2,0.6c0.9,0.4,1.7,0.9,2.3,1.6c0.6,0.7,1.1,1.4,1.4,2.3c0.3,0.9,0.5,1.8,0.5,2.8
				c0,1.1-0.2,2.1-0.5,3c-0.3,0.9-0.8,1.7-1.5,2.3c-0.6,0.6-1.4,1.1-2.3,1.5c-0.9,0.3-1.9,0.5-3,0.5H395.1z M404.4,322.2
				c0-0.6-0.1-1.2-0.3-1.8c-0.2-0.5-0.4-1-0.8-1.4c-0.3-0.4-0.7-0.7-1.2-0.9c-0.5-0.2-1-0.3-1.6-0.3h-2.1v8.7h2.1
				c0.6,0,1.2-0.1,1.6-0.3s0.9-0.5,1.2-0.9c0.3-0.4,0.6-0.9,0.7-1.4C404.3,323.4,404.4,322.8,404.4,322.2z"/>
			<path d="M413.3,314.9h3l5.3,14.6h-3.5l-1.1-3.3h-4.6l-1.1,3.3H408L413.3,314.9z M416.5,323.9l-1.7-5.2l-1.8,5.2H416.5z"/>
			<path d="M432.8,317.9h-4.5v11.7H425v-11.7h-4.5v-3h12.3V317.9z"/>
			<path d="M437,314.9h3l5.3,14.6h-3.5l-1.1-3.3h-4.6l-1.1,3.3h-3.5L437,314.9z M440.2,323.9l-1.7-5.2l-1.8,5.2H440.2z"/>
			<path d="M399.1,339.6h3l5.3,14.6H404l-1.1-3.3h-4.6l-1.1,3.3h-3.5L399.1,339.6z M402.3,348.7l-1.7-5.2l-1.8,5.2H402.3z"/>
			<path d="M419,354.3h-3.3v-6.1c0-0.7-0.1-1.2-0.4-1.6c-0.3-0.3-0.6-0.5-1.1-0.5c-0.2,0-0.5,0-0.7,0.1c-0.2,0.1-0.5,0.2-0.7,0.4
				s-0.4,0.4-0.6,0.6s-0.3,0.5-0.4,0.8v6.2h-3.3v-10.8h3v1.8c0.4-0.6,1-1.1,1.7-1.5c0.7-0.4,1.6-0.5,2.5-0.5c0.7,0,1.3,0.1,1.7,0.4
				c0.4,0.3,0.8,0.6,1,1s0.4,0.8,0.5,1.3c0.1,0.5,0.1,0.9,0.1,1.4V354.3z"/>
			<path d="M424.3,354.5c-0.5,0-1-0.1-1.5-0.3c-0.5-0.2-0.9-0.4-1.2-0.7c-0.3-0.3-0.6-0.7-0.8-1.1c-0.2-0.4-0.3-0.9-0.3-1.4
				c0-0.5,0.1-1,0.3-1.5s0.5-0.8,1-1.1c0.4-0.3,0.9-0.6,1.5-0.7c0.6-0.2,1.2-0.3,1.9-0.3c0.5,0,0.9,0,1.3,0.1
				c0.4,0.1,0.8,0.2,1.1,0.3v-0.5c0-1.3-0.7-1.9-2.2-1.9c-0.6,0-1.2,0.1-1.7,0.3c-0.5,0.2-1.1,0.5-1.7,0.9l-1-2.1
				c0.7-0.5,1.5-0.8,2.2-1.1c0.8-0.2,1.6-0.4,2.5-0.4c1.6,0,2.9,0.4,3.8,1.2c0.9,0.8,1.3,1.9,1.3,3.4v2.8c0,0.3,0.1,0.6,0.2,0.7
				c0.1,0.1,0.3,0.2,0.5,0.2v2.8c-0.3,0.1-0.5,0.1-0.8,0.1s-0.4,0-0.6,0c-0.6,0-1.1-0.1-1.4-0.4c-0.3-0.2-0.5-0.6-0.6-1l-0.1-0.5
				c-0.5,0.6-1.1,1.1-1.7,1.4C425.7,354.3,425,354.5,424.3,354.5z M425.3,352.1c0.4,0,0.7-0.1,1-0.2c0.3-0.1,0.6-0.3,0.8-0.5
				c0.3-0.2,0.5-0.5,0.5-0.8v-1c-0.3-0.1-0.6-0.2-0.9-0.3s-0.6-0.1-0.9-0.1c-0.6,0-1.1,0.1-1.5,0.4c-0.4,0.3-0.6,0.6-0.6,1.1
				c0,0.4,0.2,0.7,0.5,1C424.4,352,424.8,352.1,425.3,352.1z"/>
			<path d="M433.3,339.2h3.3v11.2c0,0.8,0.4,1.2,1.1,1.2c0.2,0,0.3,0,0.5-0.1s0.4-0.1,0.5-0.2l0.4,2.5c-0.4,0.2-0.9,0.3-1.4,0.5
				c-0.5,0.1-1,0.2-1.5,0.2c-0.9,0-1.7-0.2-2.2-0.7c-0.5-0.5-0.8-1.2-0.8-2.1V339.2z"/>
			<path d="M440.1,355.9c0.3,0.1,0.5,0.2,0.8,0.2s0.5,0.1,0.6,0.1c0.4,0,0.7-0.1,0.9-0.4c0.2-0.3,0.4-0.8,0.6-1.5l-4.1-10.8h3.4
				l2.5,8l2.2-8h3.1l-4.1,12.6c-0.3,0.9-0.8,1.6-1.5,2.2c-0.7,0.6-1.6,0.8-2.6,0.8c-0.3,0-0.6,0-0.8-0.1c-0.3,0-0.6-0.1-0.9-0.2
				V355.9z"/>
			<path d="M455.4,354.5c-0.9,0-1.8-0.1-2.7-0.4c-0.9-0.3-1.6-0.7-2.3-1.3l1.2-2c0.7,0.5,1.3,0.8,1.9,1.1s1.2,0.4,1.8,0.4
				c0.4,0,0.8-0.1,1-0.2s0.4-0.4,0.4-0.7c0-0.3-0.1-0.5-0.4-0.7c-0.3-0.2-0.8-0.4-1.6-0.5c-0.7-0.2-1.3-0.4-1.8-0.6
				c-0.5-0.2-0.9-0.4-1.2-0.6c-0.3-0.2-0.5-0.5-0.7-0.8c-0.1-0.3-0.2-0.7-0.2-1.1c0-0.5,0.1-1.1,0.3-1.5c0.2-0.5,0.5-0.8,0.9-1.2
				s0.8-0.6,1.4-0.7c0.5-0.2,1.1-0.3,1.7-0.3c0.8,0,1.6,0.1,2.3,0.3c0.7,0.2,1.4,0.6,2,1.2l-1.3,2c-0.6-0.4-1.2-0.7-1.6-0.9
				c-0.5-0.2-0.9-0.3-1.4-0.3c-0.4,0-0.7,0.1-0.9,0.2c-0.2,0.1-0.4,0.4-0.4,0.7c0,0.3,0.1,0.5,0.4,0.7c0.3,0.2,0.8,0.3,1.5,0.5
				c0.8,0.2,1.4,0.4,1.9,0.6c0.5,0.2,1,0.4,1.3,0.7s0.6,0.5,0.7,0.9c0.2,0.3,0.2,0.7,0.2,1.2c0,1.1-0.4,1.9-1.2,2.6
				C457.8,354.2,456.7,354.5,455.4,354.5z"/>
			<path d="M461.4,342.2v-3h3.3v3H461.4z M461.4,354.3v-10.8h3.3v10.8H461.4z"/>
			<path d="M471.2,354.5c-0.9,0-1.8-0.1-2.7-0.4c-0.9-0.3-1.6-0.7-2.3-1.3l1.2-2c0.7,0.5,1.3,0.8,1.9,1.1s1.2,0.4,1.8,0.4
				c0.4,0,0.8-0.1,1-0.2s0.4-0.4,0.4-0.7c0-0.3-0.1-0.5-0.4-0.7c-0.3-0.2-0.8-0.4-1.6-0.5c-0.7-0.2-1.3-0.4-1.8-0.6
				c-0.5-0.2-0.9-0.4-1.2-0.6c-0.3-0.2-0.5-0.5-0.7-0.8c-0.1-0.3-0.2-0.7-0.2-1.1c0-0.5,0.1-1.1,0.3-1.5c0.2-0.5,0.5-0.8,0.9-1.2
				s0.8-0.6,1.4-0.7c0.5-0.2,1.1-0.3,1.7-0.3c0.8,0,1.6,0.1,2.3,0.3c0.7,0.2,1.4,0.6,2,1.2l-1.3,2c-0.6-0.4-1.2-0.7-1.6-0.9
				c-0.5-0.2-0.9-0.3-1.4-0.3c-0.4,0-0.7,0.1-0.9,0.2c-0.2,0.1-0.4,0.4-0.4,0.7c0,0.3,0.1,0.5,0.4,0.7c0.3,0.2,0.8,0.3,1.5,0.5
				c0.8,0.2,1.4,0.4,1.9,0.6c0.5,0.2,1,0.4,1.3,0.7s0.6,0.5,0.7,0.9c0.2,0.3,0.2,0.7,0.2,1.2c0,1.1-0.4,1.9-1.2,2.6
				C473.7,354.2,472.6,354.5,471.2,354.5z"/>
		</g>
	</g>
	<g>
		<g>
			<path d="M17.5,329.7h3l5.3,14.6h-3.5l-1.1-3.3h-4.6l-1.1,3.3h-3.5L17.5,329.7z M20.8,338.7l-1.7-5.2l-1.8,5.2H20.8z"/>
			<path d="M31.3,344.6c-0.7,0-1.4-0.1-2-0.4s-1.2-0.7-1.6-1.2c-0.5-0.5-0.8-1.1-1.1-1.8c-0.3-0.7-0.4-1.4-0.4-2.2
				c0-0.8,0.1-1.5,0.4-2.2c0.2-0.7,0.6-1.3,1-1.8c0.4-0.5,0.9-0.9,1.5-1.2c0.6-0.3,1.2-0.4,1.9-0.4c0.8,0,1.4,0.2,2,0.5
				s1.1,0.8,1.4,1.4v-6h3.3v11.3c0,0.3,0.1,0.6,0.2,0.7c0.1,0.1,0.3,0.2,0.5,0.2v2.8c-0.3,0.1-0.6,0.1-0.8,0.1s-0.4,0-0.6,0
				c-0.6,0-1-0.1-1.4-0.4s-0.6-0.6-0.6-1l-0.1-0.6c-0.4,0.7-0.9,1.2-1.6,1.5C32.7,344.4,32,344.6,31.3,344.6z M32.1,341.8
				c0.5,0,0.9-0.1,1.3-0.4c0.4-0.3,0.7-0.6,1-1.1V338c-0.2-0.5-0.5-1-1-1.3c-0.5-0.4-0.9-0.5-1.4-0.5c-0.4,0-0.7,0.1-1,0.2
				c-0.3,0.2-0.6,0.4-0.8,0.6s-0.4,0.6-0.5,0.9c-0.1,0.3-0.2,0.7-0.2,1.1c0,0.4,0.1,0.8,0.2,1.1c0.1,0.3,0.3,0.6,0.5,0.9
				s0.5,0.4,0.8,0.6C31.4,341.7,31.8,341.8,32.1,341.8z"/>
			<path d="M43,344.3l-3.8-10.8h3.4l2.4,8.2l2.4-8.2h3.1l-3.8,10.8H43z"/>
			<path d="M51.7,332.3v-3H55v3H51.7z M51.7,344.3v-10.8H55v10.8H51.7z"/>
			<path d="M61.5,344.6c-0.9,0-1.8-0.1-2.7-0.4c-0.9-0.3-1.6-0.7-2.3-1.3l1.2-2c0.7,0.5,1.3,0.8,1.9,1.1s1.2,0.4,1.8,0.4
				c0.4,0,0.8-0.1,1-0.2s0.4-0.4,0.4-0.7c0-0.3-0.1-0.5-0.4-0.7c-0.3-0.2-0.8-0.4-1.6-0.5c-0.7-0.2-1.3-0.4-1.8-0.6
				c-0.5-0.2-0.9-0.4-1.2-0.6c-0.3-0.2-0.5-0.5-0.7-0.8c-0.1-0.3-0.2-0.7-0.2-1.1c0-0.5,0.1-1.1,0.3-1.5c0.2-0.5,0.5-0.8,0.9-1.2
				s0.8-0.6,1.4-0.7c0.5-0.2,1.1-0.3,1.7-0.3c0.8,0,1.6,0.1,2.3,0.3c0.7,0.2,1.4,0.6,2,1.2l-1.3,2c-0.6-0.4-1.2-0.7-1.6-0.9
				c-0.5-0.2-0.9-0.3-1.4-0.3c-0.4,0-0.7,0.1-0.9,0.2c-0.2,0.1-0.4,0.4-0.4,0.7c0,0.3,0.1,0.5,0.4,0.7c0.3,0.2,0.8,0.3,1.5,0.5
				c0.8,0.2,1.4,0.4,1.9,0.6c0.5,0.2,1,0.4,1.3,0.7s0.6,0.5,0.7,0.9c0.2,0.3,0.2,0.7,0.2,1.2c0,1.1-0.4,1.9-1.2,2.6
				C64,344.2,62.9,344.6,61.5,344.6z"/>
			<path d="M72.7,344.6c-0.9,0-1.7-0.2-2.5-0.5c-0.7-0.3-1.3-0.7-1.8-1.2c-0.5-0.5-0.9-1.1-1.1-1.8c-0.3-0.7-0.4-1.4-0.4-2.1
				c0-0.7,0.1-1.5,0.4-2.1c0.3-0.7,0.6-1.3,1.1-1.8c0.5-0.5,1.1-0.9,1.8-1.2c0.7-0.3,1.5-0.5,2.5-0.5c0.9,0,1.7,0.2,2.5,0.5
				c0.7,0.3,1.3,0.7,1.8,1.2c0.5,0.5,0.9,1.1,1.1,1.8c0.3,0.7,0.4,1.4,0.4,2.1c0,0.7-0.1,1.5-0.4,2.1s-0.6,1.3-1.1,1.8
				c-0.5,0.5-1.1,0.9-1.8,1.2C74.4,344.4,73.6,344.6,72.7,344.6z M70.3,338.9c0,0.9,0.2,1.5,0.7,2.1c0.5,0.5,1,0.8,1.7,0.8
				c0.3,0,0.7-0.1,0.9-0.2s0.5-0.3,0.8-0.6s0.4-0.5,0.5-0.9s0.2-0.7,0.2-1.1c0-0.9-0.2-1.5-0.7-2c-0.5-0.5-1-0.8-1.7-0.8
				c-0.3,0-0.7,0.1-1,0.2c-0.3,0.1-0.5,0.3-0.8,0.6c-0.2,0.2-0.4,0.5-0.5,0.9C70.3,338.2,70.3,338.5,70.3,338.9z"/>
			<path d="M87,336.4c-0.8,0-1.5,0.1-2.2,0.4c-0.6,0.2-1.1,0.6-1.4,1.1v6.5h-3.3v-10.8h3v2.2c0.4-0.7,0.8-1.3,1.4-1.7
				c0.6-0.4,1.2-0.6,1.9-0.6c0.2,0,0.3,0,0.3,0c0.1,0,0.1,0,0.2,0V336.4z"/>
			<path d="M88.4,346c0.3,0.1,0.5,0.2,0.8,0.2s0.5,0.1,0.6,0.1c0.4,0,0.7-0.1,0.9-0.4c0.2-0.3,0.4-0.8,0.6-1.5l-4.1-10.8h3.4l2.5,8
				l2.2-8h3.1l-4.1,12.6c-0.3,0.9-0.8,1.6-1.5,2.2c-0.7,0.6-1.6,0.8-2.6,0.8c-0.3,0-0.6,0-0.8-0.1c-0.3,0-0.6-0.1-0.9-0.2V346z"/>
		</g>
	</g>
	<g>
		<g>
			<path d="M134,418.4v-14.6h3.4v11.7h7.1v3H134z"/>
			<path d="M145.8,406.3v-3h3.3v3H145.8z M145.8,418.4v-10.8h3.3v10.8H145.8z"/>
			<path d="M155.5,418.6c-0.7,0-1.3-0.1-1.9-0.4c-0.6-0.3-1.1-0.7-1.5-1.2c-0.4-0.5-0.7-1.1-1-1.8s-0.3-1.4-0.3-2.2
				c0-0.8,0.1-1.5,0.4-2.2c0.3-0.7,0.6-1.3,1.1-1.8c0.4-0.5,1-0.9,1.6-1.2c0.6-0.3,1.3-0.4,2-0.4c0.8,0,1.5,0.2,2.1,0.5
				s1.1,0.8,1.5,1.4v-1.8h2.9v11.3c0,0.3,0.1,0.6,0.2,0.7c0.1,0.1,0.3,0.2,0.7,0.2v2.8c-0.3,0.1-0.6,0.1-0.9,0.1c-0.3,0-0.6,0-0.9,0
				c-0.3,0-0.6-0.1-0.9-0.2c-0.3-0.1-0.5-0.2-0.7-0.4s-0.4-0.4-0.5-0.7c-0.1-0.3-0.2-0.5-0.2-0.9v-4
				C158.3,417.9,157.1,418.6,155.5,418.6z M156.7,415.8c0.5,0,0.9-0.1,1.3-0.4c0.4-0.3,0.7-0.6,1-1.1V412c-0.1-0.3-0.2-0.5-0.4-0.7
				c-0.2-0.2-0.4-0.4-0.6-0.6s-0.5-0.3-0.7-0.4c-0.2-0.1-0.5-0.1-0.7-0.1c-0.4,0-0.7,0.1-1,0.2c-0.3,0.2-0.6,0.4-0.8,0.6
				s-0.4,0.6-0.5,0.9c-0.1,0.3-0.2,0.7-0.2,1.1c0,0.8,0.2,1.5,0.7,2C155.3,415.5,156,415.8,156.7,415.8z"/>
			<path d="M167.9,418.6c-1.1,0-2-0.3-2.5-1c-0.6-0.7-0.9-1.7-0.9-3.1v-6.9h3.3v6.2c0,0.7,0.1,1.2,0.4,1.5c0.3,0.3,0.6,0.5,1.1,0.5
				c0.4,0,0.9-0.1,1.3-0.4s0.8-0.6,1.1-1.2v-6.7h3.3v7.1c0,0.3,0.1,0.6,0.2,0.7c0.1,0.1,0.3,0.2,0.5,0.2v2.8
				c-0.3,0.1-0.6,0.1-0.8,0.1s-0.4,0-0.6,0c-1.2,0-1.9-0.5-2-1.4l-0.1-0.7c-0.5,0.7-1.1,1.2-1.8,1.6
				C169.6,418.4,168.8,418.6,167.9,418.6z"/>
			<path d="M177.5,406.3v-3h3.3v3H177.5z M177.5,418.4v-10.8h3.3v10.8H177.5z"/>
			<path d="M187.6,418.6c-0.7,0-1.4-0.1-2-0.4s-1.2-0.7-1.6-1.2c-0.5-0.5-0.8-1.1-1.1-1.8c-0.3-0.7-0.4-1.4-0.4-2.2
				c0-0.8,0.1-1.5,0.4-2.2c0.2-0.7,0.6-1.3,1-1.8c0.4-0.5,0.9-0.9,1.5-1.2c0.6-0.3,1.2-0.4,1.9-0.4c0.8,0,1.4,0.2,2,0.5
				s1.1,0.8,1.4,1.4v-6h3.3v11.3c0,0.3,0.1,0.6,0.2,0.7c0.1,0.1,0.3,0.2,0.5,0.2v2.8c-0.3,0.1-0.6,0.1-0.8,0.1s-0.4,0-0.6,0
				c-0.6,0-1-0.1-1.4-0.4s-0.6-0.6-0.6-1l-0.1-0.6c-0.4,0.7-0.9,1.2-1.6,1.5C189,418.4,188.3,418.6,187.6,418.6z M188.4,415.8
				c0.5,0,0.9-0.1,1.3-0.4c0.4-0.3,0.7-0.6,1-1.1V412c-0.2-0.5-0.5-1-1-1.3c-0.5-0.4-0.9-0.5-1.4-0.5c-0.4,0-0.7,0.1-1,0.2
				c-0.3,0.2-0.6,0.4-0.8,0.6s-0.4,0.6-0.5,0.9c-0.1,0.3-0.2,0.7-0.2,1.1c0,0.4,0.1,0.8,0.2,1.1c0.1,0.3,0.3,0.6,0.5,0.9
				s0.5,0.4,0.8,0.6C187.7,415.7,188.1,415.8,188.4,415.8z"/>
			<path d="M199.6,418.6c-0.5,0-1-0.1-1.5-0.3c-0.5-0.2-0.9-0.4-1.2-0.7c-0.3-0.3-0.6-0.7-0.8-1.1c-0.2-0.4-0.3-0.9-0.3-1.4
				c0-0.5,0.1-1,0.3-1.5s0.5-0.8,1-1.1c0.4-0.3,0.9-0.6,1.5-0.7c0.6-0.2,1.2-0.3,1.9-0.3c0.5,0,0.9,0,1.3,0.1
				c0.4,0.1,0.8,0.2,1.1,0.3v-0.5c0-1.3-0.7-1.9-2.2-1.9c-0.6,0-1.2,0.1-1.7,0.3c-0.5,0.2-1.1,0.5-1.7,0.9l-1-2.1
				c0.7-0.5,1.5-0.8,2.2-1.1c0.8-0.2,1.6-0.4,2.5-0.4c1.6,0,2.9,0.4,3.8,1.2c0.9,0.8,1.3,1.9,1.3,3.4v2.8c0,0.3,0.1,0.6,0.2,0.7
				c0.1,0.1,0.3,0.2,0.5,0.2v2.8c-0.3,0.1-0.5,0.1-0.8,0.1s-0.4,0-0.6,0c-0.6,0-1.1-0.1-1.4-0.4c-0.3-0.2-0.5-0.6-0.6-1l-0.1-0.5
				c-0.5,0.6-1.1,1.1-1.7,1.4C201.1,418.4,200.3,418.6,199.6,418.6z M200.6,416.2c0.4,0,0.7-0.1,1-0.2c0.3-0.1,0.6-0.3,0.8-0.5
				c0.3-0.2,0.5-0.5,0.5-0.8v-1c-0.3-0.1-0.6-0.2-0.9-0.3s-0.6-0.1-0.9-0.1c-0.6,0-1.1,0.1-1.5,0.4c-0.4,0.3-0.6,0.6-0.6,1.1
				c0,0.4,0.2,0.7,0.5,1C199.7,416.1,200.1,416.2,200.6,416.2z"/>
			<path d="M215.5,417.8c-0.5,0.2-1,0.4-1.6,0.5s-1.2,0.2-1.8,0.2c-0.4,0-0.8-0.1-1.2-0.2s-0.7-0.3-1-0.5c-0.3-0.2-0.5-0.5-0.6-0.9
				c-0.2-0.4-0.2-0.8-0.2-1.3V410h-1.4v-2.5h1.4v-3.4h3.3v3.4h2.2v2.5h-2.2v4.5c0,0.4,0.1,0.6,0.3,0.8c0.2,0.2,0.4,0.2,0.7,0.2
				c0.2,0,0.5,0,0.8-0.1c0.3-0.1,0.5-0.2,0.7-0.3L215.5,417.8z"/>
			<path d="M216.8,406.3v-3h3.3v3H216.8z M216.8,418.4v-10.8h3.3v10.8H216.8z"/>
			<path d="M227.5,418.6c-0.9,0-1.7-0.2-2.5-0.5c-0.7-0.3-1.3-0.7-1.8-1.2c-0.5-0.5-0.9-1.1-1.1-1.8c-0.3-0.7-0.4-1.4-0.4-2.1
				c0-0.7,0.1-1.5,0.4-2.1c0.3-0.7,0.6-1.3,1.1-1.8c0.5-0.5,1.1-0.9,1.8-1.2c0.7-0.3,1.5-0.5,2.5-0.5c0.9,0,1.7,0.2,2.5,0.5
				c0.7,0.3,1.3,0.7,1.8,1.2c0.5,0.5,0.9,1.1,1.1,1.8c0.3,0.7,0.4,1.4,0.4,2.1c0,0.7-0.1,1.5-0.4,2.1s-0.6,1.3-1.1,1.8
				c-0.5,0.5-1.1,0.9-1.8,1.2C229.3,418.4,228.4,418.6,227.5,418.6z M225.1,413c0,0.9,0.2,1.5,0.7,2.1c0.5,0.5,1,0.8,1.7,0.8
				c0.3,0,0.7-0.1,0.9-0.2s0.5-0.3,0.8-0.6s0.4-0.5,0.5-0.9s0.2-0.7,0.2-1.1c0-0.9-0.2-1.5-0.7-2c-0.5-0.5-1-0.8-1.7-0.8
				c-0.3,0-0.7,0.1-1,0.2c-0.3,0.1-0.5,0.3-0.8,0.6c-0.2,0.2-0.4,0.5-0.5,0.9C225.2,412.2,225.1,412.5,225.1,413z"/>
			<path d="M245.4,418.4h-3.3v-6.1c0-0.7-0.1-1.2-0.4-1.6c-0.3-0.3-0.6-0.5-1.1-0.5c-0.2,0-0.5,0-0.7,0.1c-0.2,0.1-0.5,0.2-0.7,0.4
				s-0.4,0.4-0.6,0.6s-0.3,0.5-0.4,0.8v6.2h-3.3v-10.8h3v1.8c0.4-0.6,1-1.1,1.7-1.5c0.7-0.4,1.6-0.5,2.5-0.5c0.7,0,1.3,0.1,1.7,0.4
				c0.4,0.3,0.8,0.6,1,1s0.4,0.8,0.5,1.3c0.1,0.5,0.1,0.9,0.1,1.4V418.4z"/>
		</g>
	</g>
	<g>
		<path d="M25.2,213h7.4l13,35.6h-8.4l-2.8-8H23.4l-2.7,8h-8.4L25.2,213z M33.1,234.9l-4.2-12.6l-4.3,12.6H33.1z"/>
		<path d="M55.8,249.1c-2.7,0-4.8-0.8-6.1-2.5c-1.4-1.7-2.1-4.2-2.1-7.4v-16.8h8v15.1c0,1.6,0.3,2.8,1,3.7c0.6,0.9,1.5,1.3,2.7,1.3
			c1.1,0,2.1-0.3,3.1-0.9c1-0.6,1.9-1.6,2.7-3v-16.2h8v17.3c0,0.8,0.1,1.4,0.4,1.7c0.3,0.3,0.7,0.5,1.3,0.6v6.8
			c-0.8,0.2-1.4,0.3-2,0.3c-0.5,0-1,0.1-1.5,0.1c-2.9,0-4.5-1.1-4.9-3.4l-0.2-1.6c-1.2,1.7-2.7,3-4.5,3.8S58,249.1,55.8,249.1z"/>
		<path d="M90.2,249.1c-1.8,0-3.5-0.3-5-1s-2.8-1.6-3.9-2.9c-1.1-1.2-2-2.7-2.6-4.3c-0.6-1.7-0.9-3.5-0.9-5.4c0-1.9,0.3-3.7,0.9-5.4
			c0.6-1.7,1.4-3.1,2.4-4.3c1-1.2,2.3-2.2,3.7-2.9s3-1.1,4.7-1.1c1.8,0,3.5,0.4,5,1.3c1.5,0.9,2.6,2,3.4,3.5V212h8v27.5
			c0,0.8,0.1,1.4,0.4,1.7c0.3,0.3,0.7,0.5,1.3,0.6v6.8c-0.7,0.2-1.4,0.3-1.9,0.3c-0.5,0-1,0.1-1.5,0.1c-1.4,0-2.5-0.3-3.4-0.9
			c-0.9-0.6-1.4-1.4-1.5-2.5l-0.2-1.4c-0.9,1.6-2.2,2.9-3.8,3.7C93.7,248.7,92,249.1,90.2,249.1z M92.3,242.3c1.1,0,2.2-0.3,3.2-1
			c1-0.7,1.8-1.5,2.3-2.7v-5.5c-0.5-1.3-1.3-2.4-2.4-3.3c-1.1-0.9-2.3-1.3-3.5-1.3c-0.9,0-1.7,0.2-2.4,0.6c-0.7,0.4-1.3,0.9-1.9,1.5
			c-0.5,0.6-0.9,1.4-1.2,2.2c-0.3,0.8-0.4,1.7-0.4,2.7c0,1,0.2,1.9,0.5,2.7c0.3,0.8,0.8,1.6,1.3,2.2c0.6,0.6,1.2,1.1,2,1.4
			C90.6,242.1,91.4,242.3,92.3,242.3z"/>
		<path d="M112,219.3V212h8v7.3H112z M112,248.6v-26.3h8v26.3H112z"/>
		<path d="M142.6,247.2c-1.1,0.5-2.4,0.9-3.8,1.3c-1.4,0.4-2.8,0.6-4.3,0.6c-1,0-1.9-0.1-2.8-0.4c-0.9-0.3-1.7-0.7-2.3-1.2
			c-0.7-0.6-1.2-1.3-1.6-2.2c-0.4-0.9-0.6-2-0.6-3.3v-13.7h-3.4v-6.1h3.4v-8.4h8v8.4h5.4v6.1h-5.4v11c0,0.9,0.2,1.5,0.7,1.9
			c0.4,0.4,1,0.6,1.7,0.6c0.6,0,1.2-0.1,1.9-0.3c0.6-0.2,1.2-0.4,1.7-0.7L142.6,247.2z"/>
	</g>
	<g>
		<path d="M420.2,63.5v3h-10.3V51.8H420v3h-6.7v2.8h5.8v2.7h-5.8v3.1H420.2z"/>
		<path d="M424.3,55.6l2,3l0.2,0.4l0.2-0.4l1.9-3h3.4l-3.8,5.4l3.8,5.4h-3.4l-2-3l-0.2-0.4l-0.2,0.4l-2,3h-3.4l3.8-5.4l-3.8-5.4
			H424.3z"/>
		<path d="M432.1,61c0-0.7,0.1-1.5,0.4-2.1s0.6-1.3,1.1-1.8c0.5-0.5,1.1-0.9,1.8-1.2c0.7-0.3,1.5-0.5,2.5-0.5c1.3,0,2.3,0.3,3.2,0.8
			c0.9,0.5,1.5,1.2,1.9,2.1l-3.2,1c-0.4-0.7-1.1-1-1.9-1c-0.7,0-1.3,0.3-1.7,0.8c-0.5,0.5-0.7,1.2-0.7,2c0,0.4,0.1,0.8,0.2,1.2
			c0.1,0.4,0.3,0.6,0.5,0.9c0.2,0.2,0.5,0.4,0.8,0.6c0.3,0.1,0.6,0.2,0.9,0.2c0.4,0,0.8-0.1,1.1-0.3c0.3-0.2,0.6-0.5,0.8-0.8l3.2,1
			c-0.4,0.8-1,1.5-1.9,2.1s-1.9,0.8-3.2,0.8c-0.9,0-1.7-0.2-2.4-0.5c-0.7-0.3-1.3-0.7-1.8-1.2c-0.5-0.5-0.9-1.1-1.1-1.8
			C432.2,62.5,432.1,61.7,432.1,61z"/>
		<path d="M444.5,54.4v-3h3.3v3H444.5z M444.5,66.4V55.6h3.3v10.8H444.5z"/>
		<path d="M454.3,66.6c-0.9,0-1.8-0.1-2.7-0.4c-0.9-0.3-1.6-0.7-2.3-1.3l1.2-2c0.7,0.5,1.3,0.8,1.9,1.1s1.2,0.4,1.8,0.4
			c0.4,0,0.8-0.1,1-0.2c0.2-0.2,0.4-0.4,0.4-0.7s-0.1-0.5-0.4-0.7c-0.3-0.2-0.8-0.4-1.6-0.5c-0.7-0.2-1.3-0.4-1.8-0.6
			c-0.5-0.2-0.9-0.4-1.2-0.6c-0.3-0.2-0.5-0.5-0.7-0.8c-0.1-0.3-0.2-0.7-0.2-1.1c0-0.5,0.1-1.1,0.3-1.5c0.2-0.5,0.5-0.8,0.9-1.2
			c0.4-0.3,0.8-0.6,1.4-0.7c0.5-0.2,1.1-0.3,1.7-0.3c0.8,0,1.6,0.1,2.3,0.3c0.7,0.2,1.4,0.6,2,1.2l-1.3,2c-0.6-0.4-1.2-0.7-1.6-0.9
			c-0.5-0.2-0.9-0.3-1.4-0.3c-0.4,0-0.7,0.1-0.9,0.2c-0.2,0.1-0.4,0.4-0.4,0.7c0,0.3,0.1,0.5,0.4,0.7c0.3,0.2,0.8,0.3,1.5,0.5
			c0.8,0.2,1.4,0.4,1.9,0.6c0.5,0.2,1,0.4,1.3,0.7c0.3,0.3,0.6,0.5,0.7,0.9s0.2,0.7,0.2,1.2c0,1.1-0.4,1.9-1.2,2.6
			C456.7,66.3,455.6,66.6,454.3,66.6z"/>
		<path d="M465.5,66.6c-0.9,0-1.7-0.1-2.4-0.4c-0.7-0.3-1.3-0.7-1.8-1.2c-0.5-0.5-0.9-1.1-1.1-1.8c-0.3-0.7-0.4-1.4-0.4-2.1
			c0-0.8,0.1-1.5,0.4-2.2c0.3-0.7,0.6-1.3,1.1-1.8c0.5-0.5,1.1-0.9,1.8-1.2c0.7-0.3,1.5-0.5,2.5-0.5c0.9,0,1.7,0.2,2.5,0.5
			c0.7,0.3,1.3,0.7,1.8,1.2s0.9,1.1,1.1,1.8c0.3,0.7,0.4,1.4,0.4,2.1c0,0.2,0,0.4,0,0.6s0,0.3-0.1,0.5h-8c0.1,0.7,0.3,1.3,0.8,1.7
			c0.5,0.4,1,0.6,1.6,0.6c0.5,0,0.9-0.1,1.4-0.4s0.7-0.5,0.9-0.9l2.8,0.8c-0.4,0.9-1.1,1.5-2,2.1C467.8,66.4,466.7,66.6,465.5,66.6z
			 M467.8,60c-0.1-0.7-0.3-1.2-0.7-1.6s-1-0.6-1.6-0.6c-0.6,0-1.2,0.2-1.6,0.6c-0.4,0.4-0.7,0.9-0.7,1.6H467.8z"/>
	</g>
	<g>
		<path d="M185.7,20.7c0,0.6-0.1,1.2-0.4,1.6s-0.6,0.9-1.1,1.2s-1,0.5-1.6,0.7s-1.2,0.2-1.9,0.2h-7.1V9.8h8.1c0.5,0,1,0.1,1.4,0.3
			s0.8,0.5,1.1,0.9c0.3,0.4,0.5,0.7,0.7,1.2c0.2,0.4,0.2,0.9,0.2,1.4c0,0.7-0.2,1.4-0.5,2c-0.3,0.6-0.9,1.1-1.6,1.4
			c0.8,0.2,1.5,0.7,2,1.3C185.4,18.9,185.7,19.7,185.7,20.7z M177,12.7v3h3.3c0.4,0,0.7-0.1,1-0.4c0.3-0.2,0.4-0.6,0.4-1.2
			c0-0.5-0.1-0.9-0.4-1.1c-0.3-0.3-0.6-0.4-0.9-0.4H177z M182.2,20c0-0.5-0.1-0.8-0.4-1.2c-0.3-0.3-0.6-0.5-1-0.5H177v3.2h3.8
			c0.4,0,0.8-0.1,1.1-0.4C182.1,20.8,182.2,20.5,182.2,20z"/>
		<path d="M190.7,24.6c-1.1,0-2-0.3-2.5-1c-0.6-0.7-0.9-1.7-0.9-3.1v-6.9h3.3v6.2c0,0.7,0.1,1.2,0.4,1.5c0.3,0.4,0.6,0.5,1.1,0.5
			c0.4,0,0.9-0.1,1.3-0.4s0.8-0.6,1.1-1.2v-6.7h3.3v7.1c0,0.3,0.1,0.6,0.2,0.7c0.1,0.1,0.3,0.2,0.5,0.2v2.8
			c-0.3,0.1-0.6,0.1-0.8,0.1s-0.4,0-0.6,0c-1.2,0-1.9-0.5-2-1.4l-0.1-0.7c-0.5,0.7-1.1,1.2-1.8,1.6
			C192.4,24.5,191.6,24.6,190.7,24.6z"/>
		<path d="M204.6,24.6c-0.9,0-1.8-0.1-2.7-0.4c-0.9-0.3-1.6-0.7-2.3-1.3l1.2-2c0.7,0.5,1.3,0.8,1.9,1.1s1.2,0.4,1.8,0.4
			c0.4,0,0.8-0.1,1-0.2c0.2-0.2,0.4-0.4,0.4-0.7s-0.1-0.5-0.4-0.7c-0.3-0.2-0.8-0.4-1.6-0.5c-0.7-0.2-1.3-0.4-1.8-0.6
			c-0.5-0.2-0.9-0.4-1.2-0.6c-0.3-0.2-0.5-0.5-0.7-0.8c-0.1-0.3-0.2-0.7-0.2-1.1c0-0.5,0.1-1.1,0.3-1.5c0.2-0.5,0.5-0.8,0.9-1.2
			c0.4-0.3,0.8-0.6,1.4-0.7c0.5-0.2,1.1-0.3,1.7-0.3c0.8,0,1.6,0.1,2.3,0.3c0.7,0.2,1.4,0.6,2,1.2l-1.3,2c-0.6-0.4-1.2-0.7-1.6-0.9
			c-0.5-0.2-0.9-0.3-1.4-0.3c-0.4,0-0.7,0.1-0.9,0.2c-0.2,0.1-0.4,0.4-0.4,0.7c0,0.3,0.1,0.5,0.4,0.7c0.3,0.2,0.8,0.3,1.5,0.5
			c0.8,0.2,1.4,0.4,1.9,0.6c0.5,0.2,1,0.4,1.3,0.7c0.3,0.3,0.6,0.5,0.7,0.9s0.2,0.7,0.2,1.2c0,1.1-0.4,1.9-1.2,2.6
			C207,24.3,206,24.6,204.6,24.6z"/>
		<path d="M210.6,12.4v-3h3.3v3H210.6z M210.6,24.4V13.6h3.3v10.8H210.6z"/>
		<path d="M226.6,24.4h-3.3v-6.1c0-0.7-0.1-1.2-0.4-1.6c-0.3-0.3-0.6-0.5-1.1-0.5c-0.2,0-0.5,0-0.7,0.1s-0.5,0.2-0.7,0.4
			s-0.4,0.4-0.6,0.6s-0.3,0.5-0.4,0.8v6.2h-3.3V13.6h3v1.8c0.4-0.6,1-1.1,1.7-1.5c0.7-0.4,1.6-0.5,2.5-0.5c0.7,0,1.3,0.1,1.7,0.4
			c0.4,0.3,0.8,0.6,1,1s0.4,0.8,0.5,1.3c0.1,0.5,0.1,0.9,0.1,1.4V24.4z"/>
		<path d="M234,24.6c-0.9,0-1.7-0.1-2.4-0.4c-0.7-0.3-1.3-0.7-1.8-1.2c-0.5-0.5-0.9-1.1-1.1-1.8c-0.3-0.7-0.4-1.4-0.4-2.1
			c0-0.8,0.1-1.5,0.4-2.2c0.3-0.7,0.6-1.3,1.1-1.8c0.5-0.5,1.1-0.9,1.8-1.2c0.7-0.3,1.5-0.5,2.5-0.5c0.9,0,1.7,0.2,2.5,0.5
			c0.7,0.3,1.3,0.7,1.8,1.2s0.9,1.1,1.1,1.8c0.3,0.7,0.4,1.4,0.4,2.1c0,0.2,0,0.4,0,0.6s0,0.3-0.1,0.5h-8c0.1,0.7,0.3,1.3,0.8,1.7
			c0.5,0.4,1,0.6,1.6,0.6c0.5,0,0.9-0.1,1.4-0.4s0.7-0.5,0.9-0.9l2.8,0.8c-0.4,0.9-1.1,1.5-2,2.1C236.3,24.4,235.2,24.6,234,24.6z
			 M236.2,18c-0.1-0.7-0.3-1.2-0.7-1.6s-1-0.6-1.6-0.6c-0.6,0-1.2,0.2-1.6,0.6c-0.4,0.4-0.7,0.9-0.7,1.6H236.2z"/>
		<path d="M245.5,24.6c-0.9,0-1.8-0.1-2.7-0.4c-0.9-0.3-1.6-0.7-2.3-1.3l1.2-2c0.7,0.5,1.3,0.8,1.9,1.1s1.2,0.4,1.8,0.4
			c0.4,0,0.8-0.1,1-0.2c0.2-0.2,0.4-0.4,0.4-0.7s-0.1-0.5-0.4-0.7c-0.3-0.2-0.8-0.4-1.6-0.5c-0.7-0.2-1.3-0.4-1.8-0.6
			c-0.5-0.2-0.9-0.4-1.2-0.6c-0.3-0.2-0.5-0.5-0.7-0.8c-0.1-0.3-0.2-0.7-0.2-1.1c0-0.5,0.1-1.1,0.3-1.5c0.2-0.5,0.5-0.8,0.9-1.2
			c0.4-0.3,0.8-0.6,1.4-0.7c0.5-0.2,1.1-0.3,1.7-0.3c0.8,0,1.6,0.1,2.3,0.3c0.7,0.2,1.4,0.6,2,1.2l-1.3,2c-0.6-0.4-1.2-0.7-1.6-0.9
			c-0.5-0.2-0.9-0.3-1.4-0.3c-0.4,0-0.7,0.1-0.9,0.2c-0.2,0.1-0.4,0.4-0.4,0.7c0,0.3,0.1,0.5,0.4,0.7c0.3,0.2,0.8,0.3,1.5,0.5
			c0.8,0.2,1.4,0.4,1.9,0.6c0.5,0.2,1,0.4,1.3,0.7c0.3,0.3,0.6,0.5,0.7,0.9s0.2,0.7,0.2,1.2c0,1.1-0.4,1.9-1.2,2.6
			C247.9,24.3,246.9,24.6,245.5,24.6z"/>
		<path d="M255.8,24.6c-0.9,0-1.8-0.1-2.7-0.4c-0.9-0.3-1.6-0.7-2.3-1.3l1.2-2c0.7,0.5,1.3,0.8,1.9,1.1s1.2,0.4,1.8,0.4
			c0.4,0,0.8-0.1,1-0.2c0.2-0.2,0.4-0.4,0.4-0.7s-0.1-0.5-0.4-0.7c-0.3-0.2-0.8-0.4-1.6-0.5c-0.7-0.2-1.3-0.4-1.8-0.6
			c-0.5-0.2-0.9-0.4-1.2-0.6c-0.3-0.2-0.5-0.5-0.7-0.8c-0.1-0.3-0.2-0.7-0.2-1.1c0-0.5,0.1-1.1,0.3-1.5c0.2-0.5,0.5-0.8,0.9-1.2
			c0.4-0.3,0.8-0.6,1.4-0.7c0.5-0.2,1.1-0.3,1.7-0.3c0.8,0,1.6,0.1,2.3,0.3c0.7,0.2,1.4,0.6,2,1.2l-1.3,2c-0.6-0.4-1.2-0.7-1.6-0.9
			c-0.5-0.2-0.9-0.3-1.4-0.3c-0.4,0-0.7,0.1-0.9,0.2c-0.2,0.1-0.4,0.4-0.4,0.7c0,0.3,0.1,0.5,0.4,0.7c0.3,0.2,0.8,0.3,1.5,0.5
			c0.8,0.2,1.4,0.4,1.9,0.6c0.5,0.2,1,0.4,1.3,0.7c0.3,0.3,0.6,0.5,0.7,0.9s0.2,0.7,0.2,1.2c0,1.1-0.4,1.9-1.2,2.6
			C258.2,24.3,257.1,24.6,255.8,24.6z"/>
		<path d="M275.6,14.1c0-0.1-0.2-0.2-0.4-0.3c-0.2-0.2-0.6-0.3-0.9-0.5c-0.4-0.2-0.8-0.3-1.2-0.4c-0.4-0.1-0.9-0.2-1.3-0.2
			c-1.2,0-1.8,0.4-1.8,1.2c0,0.2,0.1,0.5,0.2,0.6c0.1,0.2,0.3,0.3,0.6,0.4c0.3,0.1,0.6,0.3,1,0.4s0.8,0.2,1.3,0.4
			c0.7,0.2,1.3,0.4,1.9,0.6c0.6,0.2,1,0.5,1.4,0.8s0.7,0.7,0.9,1.2s0.3,1.1,0.3,1.7c0,0.8-0.2,1.5-0.5,2.1c-0.3,0.6-0.7,1-1.2,1.4
			c-0.5,0.4-1.1,0.6-1.8,0.8s-1.3,0.2-2,0.2c-0.5,0-1.1,0-1.6-0.1c-0.6-0.1-1.1-0.2-1.6-0.4c-0.5-0.2-1.1-0.3-1.6-0.6
			c-0.5-0.2-1-0.5-1.4-0.8l1.5-2.9c0.1,0.1,0.2,0.2,0.5,0.4c0.3,0.2,0.7,0.4,1.1,0.6s0.9,0.4,1.5,0.5c0.5,0.2,1.1,0.2,1.7,0.2
			c1.2,0,1.8-0.4,1.8-1.1c0-0.3-0.1-0.5-0.3-0.7c-0.2-0.2-0.4-0.3-0.7-0.5c-0.3-0.1-0.7-0.3-1.1-0.4c-0.4-0.1-0.9-0.3-1.4-0.4
			c-0.7-0.2-1.3-0.4-1.8-0.7c-0.5-0.2-0.9-0.5-1.2-0.8c-0.3-0.3-0.6-0.7-0.7-1.1c-0.2-0.4-0.2-0.9-0.2-1.4c0-0.8,0.1-1.4,0.4-2
			c0.3-0.6,0.7-1.1,1.2-1.5c0.5-0.4,1.1-0.7,1.7-0.9s1.3-0.3,2.1-0.3c0.5,0,1,0,1.5,0.1c0.5,0.1,1,0.2,1.4,0.4
			c0.5,0.2,0.9,0.3,1.3,0.5c0.4,0.2,0.8,0.4,1.1,0.6L275.6,14.1z"/>
		<path d="M284.4,24.6c-0.9,0-1.7-0.1-2.4-0.4c-0.7-0.3-1.3-0.7-1.8-1.2c-0.5-0.5-0.9-1.1-1.1-1.8c-0.3-0.7-0.4-1.4-0.4-2.1
			c0-0.8,0.1-1.5,0.4-2.2c0.3-0.7,0.6-1.3,1.1-1.8c0.5-0.5,1.1-0.9,1.8-1.2c0.7-0.3,1.5-0.5,2.5-0.5c0.9,0,1.7,0.2,2.5,0.5
			c0.7,0.3,1.3,0.7,1.8,1.2s0.9,1.1,1.1,1.8c0.3,0.7,0.4,1.4,0.4,2.1c0,0.2,0,0.4,0,0.6s0,0.3-0.1,0.5h-8c0.1,0.7,0.3,1.3,0.8,1.7
			c0.5,0.4,1,0.6,1.6,0.6c0.5,0,0.9-0.1,1.4-0.4s0.7-0.5,0.9-0.9l2.8,0.8c-0.4,0.9-1.1,1.5-2,2.1C286.8,24.4,285.7,24.6,284.4,24.6z
			 M286.7,18c-0.1-0.7-0.3-1.2-0.7-1.6s-1-0.6-1.6-0.6c-0.6,0-1.2,0.2-1.6,0.6c-0.4,0.4-0.7,0.9-0.7,1.6H286.7z"/>
		<path d="M298.6,23.8c-0.5,0.2-1,0.4-1.6,0.5c-0.6,0.2-1.2,0.2-1.8,0.2c-0.4,0-0.8-0.1-1.2-0.2c-0.4-0.1-0.7-0.3-1-0.5
			c-0.3-0.2-0.5-0.5-0.6-0.9c-0.2-0.4-0.2-0.8-0.2-1.3v-5.6h-1.4v-2.5h1.4v-3.4h3.3v3.4h2.2v2.5h-2.2v4.5c0,0.4,0.1,0.6,0.3,0.8
			s0.4,0.2,0.7,0.2c0.2,0,0.5,0,0.8-0.1s0.5-0.2,0.7-0.3L298.6,23.8z"/>
		<path d="M303.2,24.6c-1.1,0-2-0.3-2.5-1c-0.6-0.7-0.9-1.7-0.9-3.1v-6.9h3.3v6.2c0,0.7,0.1,1.2,0.4,1.5c0.3,0.4,0.6,0.5,1.1,0.5
			c0.4,0,0.9-0.1,1.3-0.4s0.8-0.6,1.1-1.2v-6.7h3.3v7.1c0,0.3,0.1,0.6,0.2,0.7c0.1,0.1,0.3,0.2,0.5,0.2v2.8
			c-0.3,0.1-0.6,0.1-0.8,0.1s-0.4,0-0.6,0c-1.2,0-1.9-0.5-2-1.4l-0.1-0.7c-0.5,0.7-1.1,1.2-1.8,1.6
			C304.9,24.5,304.1,24.6,303.2,24.6z"/>
		<path d="M319.7,24.6c-0.8,0-1.5-0.2-2.1-0.5s-1.1-0.8-1.4-1.4v6.1h-3.3V13.6h2.9v1.8c0.4-0.6,0.9-1.1,1.5-1.4
			c0.6-0.3,1.3-0.5,2.1-0.5c0.7,0,1.4,0.1,2,0.4c0.6,0.3,1.1,0.7,1.6,1.2c0.4,0.5,0.8,1.1,1.1,1.8c0.3,0.7,0.4,1.4,0.4,2.2
			c0,0.8-0.1,1.6-0.4,2.2c-0.2,0.7-0.6,1.3-1,1.8c-0.4,0.5-0.9,0.9-1.5,1.2C321,24.5,320.3,24.6,319.7,24.6z M318.6,21.9
			c0.4,0,0.7-0.1,1-0.2c0.3-0.2,0.6-0.4,0.8-0.6c0.2-0.3,0.4-0.6,0.5-0.9c0.1-0.4,0.2-0.7,0.2-1.1c0-0.4-0.1-0.8-0.2-1.1
			c-0.1-0.3-0.3-0.6-0.5-0.9s-0.5-0.4-0.8-0.6c-0.3-0.1-0.7-0.2-1-0.2c-0.5,0-0.9,0.1-1.3,0.4c-0.4,0.3-0.7,0.6-1,1.1v2.2
			c0.2,0.5,0.6,1,1,1.4C317.6,21.7,318,21.9,318.6,21.9z"/>
	</g>
	<g>
		<g>
			<path d="M36.3,38h3l5.3,14.6h-3.5l-1.1-3.3h-4.6l-1.1,3.3H31L36.3,38z M39.5,47l-1.7-5.2L36.1,47H39.5z"/>
			<path d="M44.9,47.2c0-0.7,0.1-1.5,0.4-2.1s0.6-1.3,1.1-1.8c0.5-0.5,1.1-0.9,1.8-1.2c0.7-0.3,1.5-0.5,2.5-0.5
				c1.3,0,2.3,0.3,3.2,0.8c0.9,0.5,1.5,1.2,1.9,2.1l-3.2,1c-0.4-0.7-1.1-1-1.9-1c-0.7,0-1.3,0.3-1.7,0.8c-0.5,0.5-0.7,1.2-0.7,2
				c0,0.4,0.1,0.8,0.2,1.2c0.1,0.4,0.3,0.6,0.5,0.9c0.2,0.2,0.5,0.4,0.8,0.6c0.3,0.1,0.6,0.2,0.9,0.2c0.4,0,0.8-0.1,1.1-0.3
				c0.3-0.2,0.6-0.5,0.8-0.8l3.2,1c-0.4,0.8-1,1.5-1.9,2.1s-1.9,0.8-3.2,0.8c-0.9,0-1.7-0.2-2.4-0.5c-0.7-0.3-1.3-0.7-1.8-1.2
				c-0.5-0.5-0.9-1.1-1.1-1.8C45.1,48.6,44.9,47.9,44.9,47.2z"/>
			<path d="M56.6,47.2c0-0.7,0.1-1.5,0.4-2.1s0.6-1.3,1.1-1.8c0.5-0.5,1.1-0.9,1.8-1.2c0.7-0.3,1.5-0.5,2.5-0.5
				c1.3,0,2.3,0.3,3.2,0.8c0.9,0.5,1.5,1.2,1.9,2.1l-3.2,1c-0.4-0.7-1.1-1-1.9-1c-0.7,0-1.3,0.3-1.7,0.8c-0.5,0.5-0.7,1.2-0.7,2
				c0,0.4,0.1,0.8,0.2,1.2c0.1,0.4,0.3,0.6,0.5,0.9c0.2,0.2,0.5,0.4,0.8,0.6C61.7,50,62,50,62.4,50c0.4,0,0.8-0.1,1.1-0.3
				c0.3-0.2,0.6-0.5,0.8-0.8l3.2,1c-0.4,0.8-1,1.5-1.9,2.1s-1.9,0.8-3.2,0.8c-0.9,0-1.7-0.2-2.4-0.5c-0.7-0.3-1.3-0.7-1.8-1.2
				c-0.5-0.5-0.9-1.1-1.1-1.8C56.7,48.6,56.6,47.9,56.6,47.2z"/>
			<path d="M74,52.8c-0.9,0-1.7-0.2-2.5-0.5c-0.7-0.3-1.3-0.7-1.8-1.2c-0.5-0.5-0.9-1.1-1.1-1.8c-0.3-0.7-0.4-1.4-0.4-2.1
				s0.1-1.5,0.4-2.1c0.3-0.7,0.6-1.3,1.1-1.8c0.5-0.5,1.1-0.9,1.8-1.2c0.7-0.3,1.5-0.5,2.5-0.5c0.9,0,1.7,0.2,2.5,0.5
				s1.3,0.7,1.8,1.2s0.9,1.1,1.1,1.8c0.3,0.7,0.4,1.4,0.4,2.1s-0.1,1.5-0.4,2.1c-0.3,0.7-0.6,1.3-1.1,1.8s-1.1,0.9-1.8,1.2
				C75.8,52.7,74.9,52.8,74,52.8z M71.6,47.2c0,0.9,0.2,1.5,0.7,2.1s1,0.8,1.7,0.8c0.3,0,0.7-0.1,0.9-0.2c0.3-0.1,0.5-0.3,0.8-0.6
				c0.2-0.2,0.4-0.5,0.5-0.9c0.1-0.4,0.2-0.7,0.2-1.1c0-0.9-0.2-1.5-0.7-2.1c-0.5-0.5-1-0.8-1.7-0.8c-0.3,0-0.7,0.1-1,0.2
				c-0.3,0.1-0.5,0.3-0.8,0.6c-0.2,0.2-0.4,0.5-0.5,0.9C71.7,46.4,71.6,46.8,71.6,47.2z"/>
			<path d="M84.7,52.8c-1.1,0-2-0.3-2.5-1c-0.6-0.7-0.9-1.7-0.9-3.1v-6.9h3.3V48c0,0.7,0.1,1.2,0.4,1.5c0.3,0.4,0.6,0.5,1.1,0.5
				c0.4,0,0.9-0.1,1.3-0.4s0.8-0.6,1.1-1.2v-6.7h3.3v7.1c0,0.3,0.1,0.6,0.2,0.7c0.1,0.1,0.3,0.2,0.5,0.2v2.8
				c-0.3,0.1-0.6,0.1-0.8,0.1s-0.4,0-0.6,0c-1.2,0-1.9-0.5-2-1.4L89,50.7c-0.5,0.7-1.1,1.2-1.8,1.6C86.4,52.6,85.6,52.8,84.7,52.8z"
				/>
			<path d="M104.8,52.6h-3.3v-6.1c0-0.7-0.1-1.2-0.4-1.6c-0.3-0.3-0.6-0.5-1.1-0.5c-0.2,0-0.5,0-0.7,0.1s-0.5,0.2-0.7,0.4
				s-0.4,0.4-0.6,0.6s-0.3,0.5-0.4,0.8v6.2h-3.3V41.8h3v1.8c0.4-0.6,1-1.1,1.7-1.5c0.7-0.4,1.6-0.5,2.5-0.5c0.7,0,1.3,0.1,1.7,0.4
				c0.4,0.3,0.8,0.6,1,1s0.4,0.8,0.5,1.3c0.1,0.5,0.1,0.9,0.1,1.4V52.6z"/>
			<path d="M113.9,52c-0.5,0.2-1,0.4-1.6,0.5c-0.6,0.2-1.2,0.2-1.8,0.2c-0.4,0-0.8-0.1-1.2-0.2c-0.4-0.1-0.7-0.3-1-0.5
				c-0.3-0.2-0.5-0.5-0.6-0.9c-0.2-0.4-0.2-0.8-0.2-1.3v-5.6h-1.4v-2.5h1.4v-3.4h3.3v3.4h2.2v2.5h-2.2v4.5c0,0.4,0.1,0.6,0.3,0.8
				s0.4,0.2,0.7,0.2c0.2,0,0.5,0,0.8-0.1s0.5-0.2,0.7-0.3L113.9,52z"/>
			<path d="M115.1,40.5v-3h3.3v3H115.1z M115.1,52.6V41.8h3.3v10.8H115.1z"/>
			<path d="M131.1,52.6h-3.3v-6.1c0-0.7-0.1-1.2-0.4-1.6c-0.3-0.3-0.6-0.5-1.1-0.5c-0.2,0-0.5,0-0.7,0.1s-0.5,0.2-0.7,0.4
				s-0.4,0.4-0.6,0.6s-0.3,0.5-0.4,0.8v6.2h-3.3V41.8h3v1.8c0.4-0.6,1-1.1,1.7-1.5c0.7-0.4,1.6-0.5,2.5-0.5c0.7,0,1.3,0.1,1.7,0.4
				c0.4,0.3,0.8,0.6,1,1s0.4,0.8,0.5,1.3c0.1,0.5,0.1,0.9,0.1,1.4V52.6z"/>
			<path d="M137.5,52.6c-0.7,0-1.4-0.1-2-0.4s-1.1-0.7-1.5-1.2c-0.4-0.5-0.7-1.1-1-1.7c-0.2-0.7-0.3-1.4-0.3-2.1
				c0-0.8,0.1-1.5,0.4-2.2c0.2-0.7,0.6-1.3,1-1.8s1-0.9,1.6-1.2c0.6-0.3,1.3-0.4,2-0.4c0.8,0,1.5,0.2,2.2,0.5
				c0.6,0.4,1.1,0.8,1.5,1.5v-1.8h2.9v10.1c0,0.8-0.2,1.6-0.5,2.2c-0.3,0.7-0.7,1.2-1.3,1.7c-0.5,0.5-1.2,0.8-2,1.1
				c-0.8,0.2-1.6,0.4-2.5,0.4c-1.2,0-2.2-0.2-3-0.6s-1.5-0.9-2.2-1.6l1.8-1.8c0.4,0.5,0.9,0.8,1.5,1.1c0.6,0.3,1.2,0.4,1.9,0.4
				c0.4,0,0.8-0.1,1.1-0.2c0.4-0.1,0.7-0.3,0.9-0.5c0.3-0.2,0.5-0.5,0.6-0.9c0.2-0.4,0.2-0.8,0.2-1.3v-1.1c-0.3,0.6-0.8,1.1-1.4,1.4
				S138.2,52.6,137.5,52.6z M138.7,50c0.5,0,1-0.1,1.4-0.4c0.4-0.3,0.7-0.6,0.9-1.1v-2.3c-0.2-0.6-0.6-1-1-1.4
				c-0.5-0.3-0.9-0.5-1.4-0.5c-0.4,0-0.7,0.1-1,0.2c-0.3,0.2-0.5,0.4-0.8,0.6c-0.2,0.3-0.4,0.6-0.5,0.9s-0.2,0.7-0.2,1.1
				c0,0.4,0.1,0.8,0.2,1.1c0.1,0.3,0.3,0.6,0.5,0.9c0.2,0.2,0.5,0.4,0.8,0.6C137.9,50,138.3,50,138.7,50z"/>
		</g>
		<g>
			<path d="M35.9,76.5c0,0.6-0.1,1.2-0.4,1.6s-0.6,0.9-1.1,1.2s-1,0.5-1.6,0.7s-1.2,0.2-1.9,0.2h-7.1V65.6h8.1c0.5,0,1,0.1,1.4,0.3
				s0.8,0.5,1.1,0.9c0.3,0.4,0.5,0.7,0.7,1.2c0.2,0.4,0.2,0.9,0.2,1.4c0,0.7-0.2,1.4-0.5,2c-0.3,0.6-0.9,1.1-1.6,1.4
				c0.8,0.2,1.5,0.7,2,1.3C35.6,74.7,35.9,75.5,35.9,76.5z M27.2,68.5v3h3.3c0.4,0,0.7-0.1,1-0.4c0.3-0.2,0.4-0.6,0.4-1.2
				c0-0.5-0.1-0.9-0.4-1.1c-0.3-0.3-0.6-0.4-0.9-0.4H27.2z M32.4,75.8c0-0.5-0.1-0.8-0.4-1.2c-0.3-0.3-0.6-0.5-1-0.5h-3.9v3.2h3.8
				c0.4,0,0.8-0.1,1.1-0.4C32.3,76.7,32.4,76.3,32.4,75.8z"/>
			<path d="M42.8,80.5c-0.9,0-1.7-0.2-2.5-0.5c-0.7-0.3-1.3-0.7-1.8-1.2c-0.5-0.5-0.9-1.1-1.1-1.8c-0.3-0.7-0.4-1.4-0.4-2.1
				s0.1-1.5,0.4-2.1c0.3-0.7,0.6-1.3,1.1-1.8c0.5-0.5,1.1-0.9,1.8-1.2c0.7-0.3,1.5-0.5,2.5-0.5c0.9,0,1.7,0.2,2.5,0.5
				s1.3,0.7,1.8,1.2s0.9,1.1,1.1,1.8c0.3,0.7,0.4,1.4,0.4,2.1s-0.1,1.5-0.4,2.1c-0.3,0.7-0.6,1.3-1.1,1.8s-1.1,0.9-1.8,1.2
				C44.5,80.3,43.7,80.5,42.8,80.5z M40.3,74.8c0,0.9,0.2,1.5,0.7,2.1s1,0.8,1.7,0.8c0.3,0,0.7-0.1,0.9-0.2c0.3-0.1,0.5-0.3,0.8-0.6
				c0.2-0.2,0.4-0.5,0.5-0.9c0.1-0.4,0.2-0.7,0.2-1.1c0-0.9-0.2-1.5-0.7-2.1c-0.5-0.5-1-0.8-1.7-0.8c-0.3,0-0.7,0.1-1,0.2
				c-0.3,0.1-0.5,0.3-0.8,0.6c-0.2,0.2-0.4,0.5-0.5,0.9C40.4,74.1,40.3,74.4,40.3,74.8z"/>
			<path d="M55.3,80.5c-0.9,0-1.7-0.2-2.5-0.5c-0.7-0.3-1.3-0.7-1.8-1.2c-0.5-0.5-0.9-1.1-1.1-1.8c-0.3-0.7-0.4-1.4-0.4-2.1
				s0.1-1.5,0.4-2.1c0.3-0.7,0.6-1.3,1.1-1.8c0.5-0.5,1.1-0.9,1.8-1.2c0.7-0.3,1.5-0.5,2.5-0.5c0.9,0,1.7,0.2,2.5,0.5
				s1.3,0.7,1.8,1.2s0.9,1.1,1.1,1.8c0.3,0.7,0.4,1.4,0.4,2.1S61,76.3,60.7,77c-0.3,0.7-0.6,1.3-1.1,1.8s-1.1,0.9-1.8,1.2
				C57.1,80.3,56.2,80.5,55.3,80.5z M52.9,74.8c0,0.9,0.2,1.5,0.7,2.1s1,0.8,1.7,0.8c0.3,0,0.7-0.1,0.9-0.2c0.3-0.1,0.5-0.3,0.8-0.6
				c0.2-0.2,0.4-0.5,0.5-0.9c0.1-0.4,0.2-0.7,0.2-1.1c0-0.9-0.2-1.5-0.7-2.1c-0.5-0.5-1-0.8-1.7-0.8c-0.3,0-0.7,0.1-1,0.2
				c-0.3,0.1-0.5,0.3-0.8,0.6c-0.2,0.2-0.4,0.5-0.5,0.9C53,74.1,52.9,74.4,52.9,74.8z"/>
			<path d="M70,80.2l-2.8-4.3L66,77.1v3.2h-3.3v-15H66v8.7l3.6-4.5h3.5l-3.9,4.7l4.2,6.2H70z"/>
			<path d="M81.7,80.2l-2.8-4.3l-1.2,1.2v3.2h-3.3v-15h3.3v8.7l3.6-4.5h3.5L81,74.1l4.2,6.2H81.7z"/>
			<path d="M90.8,80.5c-0.9,0-1.7-0.1-2.4-0.4c-0.7-0.3-1.3-0.7-1.8-1.2c-0.5-0.5-0.9-1.1-1.1-1.8C85.1,76.4,85,75.7,85,75
				c0-0.8,0.1-1.5,0.4-2.2c0.3-0.7,0.6-1.3,1.1-1.8c0.5-0.5,1.1-0.9,1.8-1.2c0.7-0.3,1.5-0.5,2.5-0.5c0.9,0,1.7,0.2,2.5,0.5
				c0.7,0.3,1.3,0.7,1.8,1.2s0.9,1.1,1.1,1.8c0.3,0.7,0.4,1.4,0.4,2.1c0,0.2,0,0.4,0,0.6s0,0.3-0.1,0.5h-8c0.1,0.7,0.3,1.3,0.8,1.7
				c0.5,0.4,1,0.6,1.6,0.6c0.5,0,0.9-0.1,1.4-0.4s0.7-0.5,0.9-0.9l2.8,0.8c-0.4,0.9-1.1,1.5-2,2.1C93.1,80.2,92.1,80.5,90.8,80.5z
				 M93.1,73.8c-0.1-0.7-0.3-1.2-0.7-1.6s-1-0.6-1.6-0.6c-0.6,0-1.2,0.2-1.6,0.6c-0.4,0.4-0.7,0.9-0.7,1.6H93.1z"/>
			<path d="M103.3,80.5c-0.9,0-1.7-0.1-2.4-0.4c-0.7-0.3-1.3-0.7-1.8-1.2c-0.5-0.5-0.9-1.1-1.1-1.8c-0.3-0.7-0.4-1.4-0.4-2.1
				c0-0.8,0.1-1.5,0.4-2.2c0.3-0.7,0.6-1.3,1.1-1.8c0.5-0.5,1.1-0.9,1.8-1.2c0.7-0.3,1.5-0.5,2.5-0.5c0.9,0,1.7,0.2,2.5,0.5
				c0.7,0.3,1.3,0.7,1.8,1.2s0.9,1.1,1.1,1.8c0.3,0.7,0.4,1.4,0.4,2.1c0,0.2,0,0.4,0,0.6s0,0.3-0.1,0.5h-8c0.1,0.7,0.3,1.3,0.8,1.7
				c0.5,0.4,1,0.6,1.6,0.6c0.5,0,0.9-0.1,1.4-0.4s0.7-0.5,0.9-0.9l2.8,0.8c-0.4,0.9-1.1,1.5-2,2.1C105.6,80.2,104.5,80.5,103.3,80.5
				z M105.5,73.8c-0.1-0.7-0.3-1.2-0.7-1.6s-1-0.6-1.6-0.6c-0.6,0-1.2,0.2-1.6,0.6c-0.4,0.4-0.7,0.9-0.7,1.6H105.5z"/>
			<path d="M117.4,80.5c-0.8,0-1.5-0.2-2.1-0.5s-1.1-0.8-1.4-1.4v6.1h-3.3V69.4h2.9v1.8c0.4-0.6,0.9-1.1,1.5-1.4
				c0.6-0.3,1.3-0.5,2.1-0.5c0.7,0,1.4,0.1,2,0.4c0.6,0.3,1.1,0.7,1.6,1.2c0.4,0.5,0.8,1.1,1.1,1.8c0.3,0.7,0.4,1.4,0.4,2.2
				c0,0.8-0.1,1.6-0.4,2.2c-0.2,0.7-0.6,1.3-1,1.8c-0.4,0.5-0.9,0.9-1.5,1.2C118.7,80.3,118,80.5,117.4,80.5z M116.3,77.7
				c0.4,0,0.7-0.1,1-0.2c0.3-0.2,0.6-0.4,0.8-0.6c0.2-0.3,0.4-0.6,0.5-0.9c0.1-0.4,0.2-0.7,0.2-1.1c0-0.4-0.1-0.8-0.2-1.1
				c-0.1-0.3-0.3-0.6-0.5-0.9s-0.5-0.4-0.8-0.6c-0.3-0.1-0.7-0.2-1-0.2c-0.5,0-0.9,0.1-1.3,0.4c-0.4,0.3-0.7,0.6-1,1.1v2.2
				c0.2,0.5,0.6,1,1,1.4C115.3,77.5,115.7,77.7,116.3,77.7z"/>
			<path d="M123.7,68.2v-3h3.3v3H123.7z M123.7,80.2V69.4h3.3v10.8H123.7z"/>
			<path d="M139.7,80.2h-3.3v-6.1c0-0.7-0.1-1.2-0.4-1.6c-0.3-0.3-0.6-0.5-1.1-0.5c-0.2,0-0.5,0-0.7,0.1s-0.5,0.2-0.7,0.4
				s-0.4,0.4-0.6,0.6s-0.3,0.5-0.4,0.8v6.2h-3.3V69.4h3v1.8c0.4-0.6,1-1.1,1.7-1.5c0.7-0.4,1.6-0.5,2.5-0.5c0.7,0,1.3,0.1,1.7,0.4
				c0.4,0.3,0.8,0.6,1,1s0.4,0.8,0.5,1.3c0.1,0.5,0.1,0.9,0.1,1.4V80.2z"/>
			<path d="M146.1,80.3c-0.7,0-1.4-0.1-2-0.4s-1.1-0.7-1.5-1.2c-0.4-0.5-0.7-1.1-1-1.7c-0.2-0.7-0.3-1.4-0.3-2.1
				c0-0.8,0.1-1.5,0.4-2.2c0.2-0.7,0.6-1.3,1-1.8s1-0.9,1.6-1.2c0.6-0.3,1.3-0.4,2-0.4c0.8,0,1.5,0.2,2.2,0.5
				c0.6,0.4,1.1,0.8,1.5,1.5v-1.8h2.9v10.1c0,0.8-0.2,1.6-0.5,2.2c-0.3,0.7-0.7,1.2-1.3,1.7c-0.5,0.5-1.2,0.8-2,1.1
				c-0.8,0.2-1.6,0.4-2.5,0.4c-1.2,0-2.2-0.2-3-0.6s-1.5-0.9-2.2-1.6l1.8-1.8c0.4,0.5,0.9,0.8,1.5,1.1c0.6,0.3,1.2,0.4,1.9,0.4
				c0.4,0,0.8-0.1,1.1-0.2c0.4-0.1,0.7-0.3,0.9-0.5c0.3-0.2,0.5-0.5,0.6-0.9c0.2-0.4,0.2-0.8,0.2-1.3v-1.1c-0.3,0.6-0.8,1.1-1.4,1.4
				S146.8,80.3,146.1,80.3z M147.2,77.7c0.5,0,1-0.1,1.4-0.4c0.4-0.3,0.7-0.6,0.9-1.1v-2.3c-0.2-0.6-0.6-1-1-1.4
				c-0.5-0.3-0.9-0.5-1.4-0.5c-0.4,0-0.7,0.1-1,0.2c-0.3,0.2-0.5,0.4-0.8,0.6c-0.2,0.3-0.4,0.6-0.5,0.9s-0.2,0.7-0.2,1.1
				c0,0.4,0.1,0.8,0.2,1.1c0.1,0.3,0.3,0.6,0.5,0.9c0.2,0.2,0.5,0.4,0.8,0.6C146.5,77.6,146.9,77.7,147.2,77.7z"/>
		</g>
	</g>
</g>
</svg>
