<?xml version="1.0" encoding="utf-8"?>
<!-- Generator: Adobe Illustrator 21.0.0, SVG Export Plug-In . SVG Version: 6.00 Build 0)  -->
<svg version="1.1" id="Layer_1" xmlns="http://www.w3.org/2000/svg" xmlns:xlink="http://www.w3.org/1999/xlink" x="0px" y="0px"
	 viewBox="0 0 489.6 489.6" style="enable-background:new 0 0 489.6 489.6;" xml:space="preserve">
<style type="text/css">
	.st0{fill:#D2AC67;}
</style>
<g>
	<g>
		<path class="st0" d="M365.6,144.8c-12.3,0-24.2,1.8-35.4,5.2V35.4h-96.8L240.6,0h-150l6.8,35.4H0v454.2h330.2v-102
			c11.2,3.4,23.1,5.2,35.4,5.2c68.8,0,124-56.3,124-124C489.6,201,434.4,144.8,365.6,144.8L365.6,144.8z M215.6,20.8l-10.4,50H126
			l-9.4-50H215.6z M309.5,468.8h-0.1H20.8V56.3h80.7l6.8,35.4h113.5l7.2-35.4h80.3v102.1c-27.3,14-48.7,37.9-59.7,66.7H49v20.7
			h194.8c-1.4,7.4-2.2,15.1-2.2,22.9c0,13.4,2.2,26.4,6.2,38.5H49V328h208c12,21.8,30.3,39.7,52.5,51V468.8z M365.6,370.8
			c-57.3,0-103.1-46.9-103.1-103.1s46.9-103.1,103.1-103.1c57.3,0,103.1,46.9,103.1,103.1S422.9,370.8,365.6,370.8z"/>
		<rect x="49" y="143.8" class="st0" width="233.3" height="20.8"/>
		<rect x="49" y="388.6" class="st0" width="233.3" height="20.8"/>
		<polygon class="st0" points="418.3,230.2 403.6,215.4 366,253 328.4,215.4 313.7,230.2 351.3,267.7 313,306 327.7,320.8 
			366,282.5 404.3,320.8 419,306 380.7,267.7 		"/>
	</g>
</g>
</svg>
