<?xml version="1.0" encoding="utf-8"?>
<!-- Generator: Adobe Illustrator 21.0.0, SVG Export Plug-In . SVG Version: 6.00 Build 0)  -->
<svg version="1.1" id="Layer_1" xmlns="http://www.w3.org/2000/svg" xmlns:xlink="http://www.w3.org/1999/xlink" x="0px" y="0px"
	 viewBox="0 0 512 512" style="enable-background:new 0 0 512 512;" xml:space="preserve">
<style type="text/css">
	.st0{fill:#D2AC67;}
</style>
<g>
	<g>
		<path class="st0" d="M256,105.7c-27.6,0-50.1,22.5-50.1,50.1s22.5,50.1,50.1,50.1s50.1-22.5,50.1-50.1S283.6,105.7,256,105.7z
			 M256,172.5c-9.2,0-16.7-7.5-16.7-16.7s7.5-16.7,16.7-16.7c9.2,0,16.7,7.5,16.7,16.7C272.7,165,265.2,172.5,256,172.5z"/>
	</g>
</g>
<g>
	<g>
		<path class="st0" d="M511.1,451.1l-66.8-200.3c-2.3-6.8-8.7-11.4-15.8-11.4h-87c14.7-23.2,31.4-44.8,31.4-83.5
			C372.9,91.4,320.4,39,256,39S139.1,91.4,139.1,155.8c0,38.9,16.9,60.6,31.6,83.5H83.5c-7.2,0-13.6,4.6-15.8,11.4L0.9,451.1
			c-3.6,10.8,4.4,22,15.8,22h478.6C506.7,473,514.7,461.9,511.1,451.1z M256,72.4c46,0,83.5,37.4,83.5,83.5
			c0,15.9-4.5,31.3-12.9,44.6l-69.9,110.4L185.8,201c-8.7-13.5-13.3-29.1-13.3-45.2C172.5,109.8,210,72.4,256,72.4z M39.9,439.6
			L39.9,439.6l55.7-167h96.8l50.4,78.2c6.6,10.2,21.6,10.2,28.1-0.1l49.4-78h96.2l55.6,166.9L39.9,439.6L39.9,439.6z"/>
	</g>
</g>
</svg>
