<?xml version="1.0" encoding="utf-8"?>
<!-- Generator: Adobe Illustrator 21.0.0, SVG Export Plug-In . SVG Version: 6.00 Build 0)  -->
<svg version="1.1" id="Layer_1" xmlns="http://www.w3.org/2000/svg" xmlns:xlink="http://www.w3.org/1999/xlink" x="0px" y="0px"
	 viewBox="0 0 40.9 38.1" style="enable-background:new 0 0 40.9 38.1;" xml:space="preserve">
<style type="text/css">
	.st0{fill:#D6B469;}
</style>
<path class="st0" d="M-38.8,32.5v-2.7c2.7-0.4,5.2-1.5,7.3-3.1l1.9,1.9c0.4,0.4,1.1,0.4,1.5,0l2-2c0.4-0.4,0.4-1.1,0-1.5l-1.9-1.9
	c1.6-2.1,2.6-4.6,3-7.3h2.7c0.6,0,1.1-0.5,1.1-1.1v-2.8c0-0.6-0.5-1.1-1.1-1.1h-2.7c-0.4-2.7-1.5-5.2-3-7.3l1.9-1.9
	c0.4-0.4,0.4-1.1,0-1.5l-2-2c-0.4-0.4-1.1-0.4-1.5,0l-1.9,1.9c-2.1-1.6-4.6-2.6-7.3-3.1v-2.7c0-0.6-0.5-1.1-1.1-1.1h-2.8
	c-0.6,0-1.1,0.5-1.1,1.1v2.7c-2.7,0.4-5.2,1.5-7.4,3l-1.9-1.9c-0.4-0.4-1.1-0.4-1.5,0l-2,2c-0.4,0.4-0.4,1.1,0,1.5l1.9,1.9
	c-1.6,2.1-2.7,4.6-3.1,7.4h-2.6c-0.6,0-1.1,0.5-1.1,1.1v2.8c0,0.6,0.5,1.1,1.1,1.1h2.6c0.4,2.7,1.5,5.3,3.1,7.4l-1.9,1.9
	c-0.4,0.4-0.4,1.1,0,1.5l2,2c0.4,0.4,1.1,0.4,1.5,0l1.9-1.9c2.1,1.6,4.6,2.6,7.4,3v2.7c0,0.6,0.5,1.1,1.1,1.1h2.8
	C-39.2,33.5-38.8,33.1-38.8,32.5z M-47.1,13.5c0-3.2,2.6-5.8,5.8-5.8c3.2,0,5.8,2.6,5.8,5.8s-2.6,5.8-5.8,5.8
	C-44.5,19.3-47.1,16.7-47.1,13.5z"/>
<g>
	<path class="st0" d="M35.5,23.6c-0.5,0-0.9,0.4-0.9,0.9v7.8c0,1.5-1.2,2.6-2.7,2.7H7.1c-1.5,0-2.6-1.2-2.7-2.7v-23
		c0-1.5,1.2-2.6,2.7-2.7H15c0.5,0,0.9-0.4,0.9-0.9c0-0.5-0.4-0.9-0.9-0.9H7.1c-2.4,0-4.4,2-4.4,4.4v23c0,2.4,2,4.4,4.4,4.4h24.8
		c2.4,0,4.4-2,4.4-4.4v-7.8C36.3,23.9,35.9,23.6,35.5,23.6z"/>
	<path class="st0" d="M36,2.6c-1.6-1.6-4.1-1.6-5.6,0L14.6,18.3c-0.1,0.1-0.2,0.2-0.2,0.4l-2.1,7.5c-0.1,0.3,0,0.6,0.2,0.9
		c0.2,0.2,0.6,0.3,0.9,0.2l7.5-2.1c0.1,0,0.3-0.1,0.4-0.2L37,9.2c1.6-1.6,1.6-4.1,0-5.6L36,2.6z M16.5,18.9L29.4,6l4.2,4.2
		L20.7,23.1L16.5,18.9z M15.7,20.6l3.3,3.3l-4.6,1.3L15.7,20.6z M35.8,8l-0.9,0.9l-4.2-4.2l0.9-0.9c0.9-0.9,2.3-0.9,3.1,0l1,1
		C36.6,5.7,36.6,7.1,35.8,8z"/>
</g>
</svg>
