<?xml version="1.0" encoding="utf-8"?>
<!-- Generator: Adobe Illustrator 21.0.0, SVG Export Plug-In . SVG Version: 6.00 Build 0)  -->
<svg version="1.1" id="Layer_1" xmlns="http://www.w3.org/2000/svg" xmlns:xlink="http://www.w3.org/1999/xlink" x="0px" y="0px"
	 viewBox="0 0 40.9 38.1" style="enable-background:new 0 0 40.9 38.1;" xml:space="preserve">
<style type="text/css">
	.st0{fill:#D6B469;}
</style>
<path class="st0" d="M-38.8,32.5v-2.7c2.7-0.4,5.2-1.5,7.3-3.1l1.9,1.9c0.4,0.4,1.1,0.4,1.5,0l2-2c0.4-0.4,0.4-1.1,0-1.5l-1.9-1.9
	c1.6-2.1,2.6-4.6,3-7.3h2.7c0.6,0,1.1-0.5,1.1-1.1v-2.8c0-0.6-0.5-1.1-1.1-1.1h-2.7c-0.4-2.7-1.5-5.2-3-7.3l1.9-1.9
	c0.4-0.4,0.4-1.1,0-1.5l-2-2c-0.4-0.4-1.1-0.4-1.5,0l-1.9,1.9c-2.1-1.6-4.6-2.6-7.3-3.1v-2.7c0-0.6-0.5-1.1-1.1-1.1h-2.8
	c-0.6,0-1.1,0.5-1.1,1.1v2.7c-2.7,0.4-5.2,1.5-7.4,3l-1.9-1.9c-0.4-0.4-1.1-0.4-1.5,0l-2,2c-0.4,0.4-0.4,1.1,0,1.5l1.9,1.9
	c-1.6,2.1-2.7,4.6-3.1,7.4h-2.6c-0.6,0-1.1,0.5-1.1,1.1v2.8c0,0.6,0.5,1.1,1.1,1.1h2.6c0.4,2.7,1.5,5.3,3.1,7.4l-1.9,1.9
	c-0.4,0.4-0.4,1.1,0,1.5l2,2c0.4,0.4,1.1,0.4,1.5,0l1.9-1.9c2.1,1.6,4.6,2.6,7.4,3v2.7c0,0.6,0.5,1.1,1.1,1.1h2.8
	C-39.2,33.5-38.8,33.1-38.8,32.5z M-47.1,13.5c0-3.2,2.6-5.8,5.8-5.8c3.2,0,5.8,2.6,5.8,5.8s-2.6,5.8-5.8,5.8
	C-44.5,19.3-47.1,16.7-47.1,13.5z"/>
<g>
	<path class="st0" d="M19.3,11.4H7.4V7.8h11.8V11.4z M8.6,10.2h9.5V9H8.6V10.2z"/>
	<path class="st0" d="M13.3,33.9c-1.6,0-3-1.3-3-3V25c0-1.6,1.3-3,3-3c1.6,0,3,1.3,3,3v5.9C16.3,32.5,15,33.9,13.3,33.9z M13.3,23.2
		c-1,0-1.8,0.8-1.8,1.8v5.9c0,1,0.8,1.8,1.8,1.8c1,0,1.8-0.8,1.8-1.8V25C15.1,24,14.3,23.2,13.3,23.2z"/>
	<path class="st0" d="M11,27.3h4.7v1.2H11V27.3z"/>
	<path class="st0" d="M10.4,6.6c-1,0-1.8-0.8-1.8-1.8s0.8-1.8,1.8-1.8c1,0,1.8,0.8,1.8,1.8S11.4,6.6,10.4,6.6z M10.4,4.2
		c-0.3,0-0.6,0.3-0.6,0.6s0.3,0.6,0.6,0.6c0.3,0,0.6-0.3,0.6-0.6S10.7,4.2,10.4,4.2z"/>
	<path class="st0" d="M14.5,4.2c-1,0-1.8-0.8-1.8-1.8s0.8-1.8,1.8-1.8c1,0,1.8,0.8,1.8,1.8S15.5,4.2,14.5,4.2z M14.5,1.9
		c-0.3,0-0.6,0.3-0.6,0.6s0.3,0.6,0.6,0.6c0.3,0,0.6-0.3,0.6-0.6S14.9,1.9,14.5,1.9z"/>
	<path class="st0" d="M19.3,6.6c-1,0-1.8-0.8-1.8-1.8s0.8-1.8,1.8-1.8c1,0,1.8,0.8,1.8,1.8S20.2,6.6,19.3,6.6z M19.3,4.2
		c-0.3,0-0.6,0.3-0.6,0.6s0.3,0.6,0.6,0.6c0.3,0,0.6-0.3,0.6-0.6S19.6,4.2,19.3,4.2z"/>
	<path class="st0" d="M24.6,5.4c-1,0-1.8-0.8-1.8-1.8s0.8-1.8,1.8-1.8c1,0,1.8,0.8,1.8,1.8S25.6,5.4,24.6,5.4z M24.6,3.1
		c-0.3,0-0.6,0.3-0.6,0.6s0.3,0.6,0.6,0.6c0.3,0,0.6-0.3,0.6-0.6S24.9,3.1,24.6,3.1z"/>
	<path class="st0" d="M35.8,23.2H20.4c-1,0-1.8-0.8-1.8-1.8v-1.2c0-1,0.8-1.8,1.8-1.8h15.4c1,0,1.8,0.8,1.8,1.8v1.2
		C37.6,22.4,36.8,23.2,35.8,23.2z M20.4,19.6c-0.3,0-0.6,0.3-0.6,0.6v1.2c0,0.3,0.3,0.6,0.6,0.6h15.4c0.3,0,0.6-0.3,0.6-0.6v-1.2
		c0-0.3-0.3-0.6-0.6-0.6H20.4z"/>
	<path class="st0" d="M33.5,37.4H22.8c-1.6,0-3-1.3-3-3V22.6H21v11.8c0,1,0.8,1.8,1.8,1.8h10.7c1,0,1.8-0.8,1.8-1.8V22.6h1.2v11.8
		C36.4,36.1,35.1,37.4,33.5,37.4z"/>
	<path class="st0" d="M34.1,35H22.2V24.4h11.8V35z M23.4,33.9h9.5v-8.3h-9.5V33.9z"/>
	<path class="st0" d="M28.1,32.7c-2,0-3.6-1.3-3.6-3c0-1.6,1.6-3,3.6-3s3.6,1.3,3.6,3C31.7,31.3,30.1,32.7,28.1,32.7z M28.1,27.9
		c-1.3,0-2.4,0.8-2.4,1.8c0,1,1.1,1.8,2.4,1.8c1.3,0,2.4-0.8,2.4-1.8C30.5,28.7,29.5,27.9,28.1,27.9z"/>
	<path class="st0" d="M25.2,29.1h5.9v1.2h-5.9V29.1z"/>
	<path class="st0" d="M13.3,37.4c-0.5,0-0.9,0-1.3-0.1c-4.5-0.6-8-4.1-8.6-8.6c-0.5-3.7,1.1-7.4,4.2-9.6c1.4-1,2.3-2.6,2.3-4.2v-4.2
		H11v4.2c0,2-1,3.9-2.8,5.2c-2.7,1.9-4.1,5.2-3.7,8.5c0.5,3.9,3.7,7.1,7.6,7.6c0.8,0.1,1.6,0.1,2.4,0c2.1-0.3,4-1.3,5.5-2.9l0.9,0.8
		c-1.6,1.8-3.8,3-6.2,3.3C14.2,37.4,13.8,37.4,13.3,37.4z"/>
	<path class="st0" d="M18.9,20.4c-0.1-0.1-0.3-0.2-0.5-0.3c-1.7-1.2-2.8-3.1-2.8-5.2v-4.2h1.2v4.2c0,1.6,0.8,3.2,2.3,4.2
		c0.2,0.1,0.3,0.3,0.5,0.4L18.9,20.4z"/>
	<path class="st0" d="M16.3,14.9c-1.8,0-3-0.4-3.9-0.7c-0.7-0.2-1.3-0.4-2-0.4v-1.2c0.9,0,1.6,0.2,2.4,0.5c0.9,0.3,2,0.7,3.5,0.7
		V14.9z"/>
</g>
</svg>
