<?xml version="1.0" encoding="utf-8"?>
<!-- Generator: Adobe Illustrator 21.0.0, SVG Export Plug-In . SVG Version: 6.00 Build 0)  -->
<svg version="1.1" id="Layer_1" xmlns="http://www.w3.org/2000/svg" xmlns:xlink="http://www.w3.org/1999/xlink" x="0px" y="0px"
	 viewBox="0 0 40.9 38.1" style="enable-background:new 0 0 40.9 38.1;" xml:space="preserve">
<style type="text/css">
	.st0{fill:#D6B469;}
</style>
<path class="st0" d="M-38.8,32.5v-2.7c2.7-0.4,5.2-1.5,7.3-3.1l1.9,1.9c0.4,0.4,1.1,0.4,1.5,0l2-2c0.4-0.4,0.4-1.1,0-1.5l-1.9-1.9
	c1.6-2.1,2.6-4.6,3-7.3h2.7c0.6,0,1.1-0.5,1.1-1.1v-2.8c0-0.6-0.5-1.1-1.1-1.1h-2.7c-0.4-2.7-1.5-5.2-3-7.3l1.9-1.9
	c0.4-0.4,0.4-1.1,0-1.5l-2-2c-0.4-0.4-1.1-0.4-1.5,0l-1.9,1.9c-2.1-1.6-4.6-2.6-7.3-3.1v-2.7c0-0.6-0.5-1.1-1.1-1.1h-2.8
	c-0.6,0-1.1,0.5-1.1,1.1v2.7c-2.7,0.4-5.2,1.5-7.4,3l-1.9-1.9c-0.4-0.4-1.1-0.4-1.5,0l-2,2c-0.4,0.4-0.4,1.1,0,1.5l1.9,1.9
	c-1.6,2.1-2.7,4.6-3.1,7.4h-2.6c-0.6,0-1.1,0.5-1.1,1.1v2.8c0,0.6,0.5,1.1,1.1,1.1h2.6c0.4,2.7,1.5,5.3,3.1,7.4l-1.9,1.9
	c-0.4,0.4-0.4,1.1,0,1.5l2,2c0.4,0.4,1.1,0.4,1.5,0l1.9-1.9c2.1,1.6,4.6,2.6,7.4,3v2.7c0,0.6,0.5,1.1,1.1,1.1h2.8
	C-39.2,33.5-38.8,33.1-38.8,32.5z M-47.1,13.5c0-3.2,2.6-5.8,5.8-5.8c3.2,0,5.8,2.6,5.8,5.8s-2.6,5.8-5.8,5.8
	C-44.5,19.3-47.1,16.7-47.1,13.5z"/>
<g>
	<path class="st0" d="M36.8,8.1h-7.9V5.7c0-1.7-1.4-3-3-3H15c-1.7,0-3,1.4-3,3v2.4H4.1c-1,0-1.8,0.8-1.8,1.8v13.5
		c0,0.8,0.5,1.5,1.2,1.7v8.4c0,1,0.8,1.8,1.8,1.8h30.4c1,0,1.8-0.8,1.8-1.8v-8.4c0.7-0.3,1.2-0.9,1.2-1.7V9.9
		C38.7,8.9,37.8,8.1,36.8,8.1z M13.2,5.7c0-1,0.8-1.8,1.8-1.8h10.9c1,0,1.8,0.8,1.8,1.8v2.4h-1.2V5.7c0-0.3-0.3-0.6-0.6-0.6H15
		c-0.3,0-0.6,0.3-0.6,0.6v2.4h-1.2V5.7z M25.3,8.1h-9.7V6.3h9.7V8.1z M36.2,33.6c0,0.3-0.3,0.6-0.6,0.6H5.3c-0.3,0-0.6-0.3-0.6-0.6
		v-8.2L18,27.2v1.5c0,1,0.8,1.8,1.8,1.8h1.2c1,0,1.8-0.8,1.8-1.8v-1.5l13.4-1.8V33.6z M21.7,28.8c0,0.3-0.3,0.6-0.6,0.6h-1.2
		c-0.3,0-0.6-0.3-0.6-0.6v-3.6c0-0.3,0.3-0.6,0.6-0.6h1.2c0.3,0,0.6,0.3,0.6,0.6V28.8z M37.4,23.5c0,0.3-0.2,0.6-0.5,0.6l-0.2,0
		L22.9,26v-0.9c0-1-0.8-1.8-1.8-1.8h-1.2c-1,0-1.8,0.8-1.8,1.8V26L4,24.1c-0.3,0-0.5-0.3-0.5-0.6V9.9c0-0.3,0.3-0.6,0.6-0.6h32.8
		c0.3,0,0.6,0.3,0.6,0.6V23.5z"/>
</g>
</svg>
