<?xml version="1.0" encoding="utf-8"?>
<!-- Generator: Adobe Illustrator 21.0.0, SVG Export Plug-In . SVG Version: 6.00 Build 0)  -->
<svg version="1.1" id="Layer_1" xmlns="http://www.w3.org/2000/svg" xmlns:xlink="http://www.w3.org/1999/xlink" x="0px" y="0px"
	 viewBox="0 0 40.9 38.1" style="enable-background:new 0 0 40.9 38.1;" xml:space="preserve">
<style type="text/css">
	.st0{fill:#D6B469;}
</style>
<path class="st0" d="M-38.8,32.5v-2.7c2.7-0.4,5.2-1.5,7.3-3.1l1.9,1.9c0.4,0.4,1.1,0.4,1.5,0l2-2c0.4-0.4,0.4-1.1,0-1.5l-1.9-1.9
	c1.6-2.1,2.6-4.6,3-7.3h2.7c0.6,0,1.1-0.5,1.1-1.1v-2.8c0-0.6-0.5-1.1-1.1-1.1h-2.7c-0.4-2.7-1.5-5.2-3-7.3l1.9-1.9
	c0.4-0.4,0.4-1.1,0-1.5l-2-2c-0.4-0.4-1.1-0.4-1.5,0l-1.9,1.9c-2.1-1.6-4.6-2.6-7.3-3.1v-2.7c0-0.6-0.5-1.1-1.1-1.1h-2.8
	c-0.6,0-1.1,0.5-1.1,1.1v2.7c-2.7,0.4-5.2,1.5-7.4,3l-1.9-1.9c-0.4-0.4-1.1-0.4-1.5,0l-2,2c-0.4,0.4-0.4,1.1,0,1.5l1.9,1.9
	c-1.6,2.1-2.7,4.6-3.1,7.4h-2.6c-0.6,0-1.1,0.5-1.1,1.1v2.8c0,0.6,0.5,1.1,1.1,1.1h2.6c0.4,2.7,1.5,5.3,3.1,7.4l-1.9,1.9
	c-0.4,0.4-0.4,1.1,0,1.5l2,2c0.4,0.4,1.1,0.4,1.5,0l1.9-1.9c2.1,1.6,4.6,2.6,7.4,3v2.7c0,0.6,0.5,1.1,1.1,1.1h2.8
	C-39.2,33.5-38.8,33.1-38.8,32.5z M-47.1,13.5c0-3.2,2.6-5.8,5.8-5.8c3.2,0,5.8,2.6,5.8,5.8s-2.6,5.8-5.8,5.8
	C-44.5,19.3-47.1,16.7-47.1,13.5z"/>
<g>
	<g>
		<path class="st0" d="M21.4,17.3h-1.9c-0.3,0-0.6,0.3-0.6,0.6v2.3c0,0.3,0.3,0.6,0.6,0.6h1.9c0.3,0,0.6-0.3,0.6-0.6v-2.3
			C22,17.6,21.7,17.3,21.4,17.3z M21,19.8h-1.2v-1.6H21V19.8z"/>
	</g>
</g>
<g>
	<g>
		<path class="st0" d="M21.4,17.3h-1.9c-0.3,0-0.6,0.3-0.6,0.6v2.3c0,0.3,0.3,0.6,0.6,0.6h1.9c0.3,0,0.6-0.3,0.6-0.6v-2.3
			C22,17.6,21.7,17.3,21.4,17.3z M21,19.8h-1.2v-1.6H21V19.8z"/>
	</g>
</g>
<g>
	<g>
		<path class="st0" d="M21.4,17.3h-1.9c-0.3,0-0.6,0.3-0.6,0.6v2.3c0,0.3,0.3,0.6,0.6,0.6h1.9c0.3,0,0.6-0.3,0.6-0.6v-2.3
			C22,17.6,21.7,17.3,21.4,17.3z M21,19.8h-1.2v-1.6H21V19.8z"/>
	</g>
</g>
<g>
	<g>
		<path class="st0" d="M21.4,17.3h-1.9c-0.3,0-0.6,0.3-0.6,0.6v2.3c0,0.3,0.3,0.6,0.6,0.6h1.9c0.3,0,0.6-0.3,0.6-0.6v-2.3
			C22,17.6,21.7,17.3,21.4,17.3z M21,19.8h-1.2v-1.6H21V19.8z"/>
	</g>
</g>
<g>
	<g>
		<path class="st0" d="M21.4,17.3h-1.9c-0.3,0-0.6,0.3-0.6,0.6v2.3c0,0.3,0.3,0.6,0.6,0.6h1.9c0.3,0,0.6-0.3,0.6-0.6v-2.3
			C22,17.6,21.7,17.3,21.4,17.3z M21,19.8h-1.2v-1.6H21V19.8z"/>
	</g>
</g>
<g>
	<g>
		<path class="st0" d="M21.4,17.3h-1.9c-0.3,0-0.6,0.3-0.6,0.6v2.3c0,0.3,0.3,0.6,0.6,0.6h1.9c0.3,0,0.6-0.3,0.6-0.6v-2.3
			C22,17.6,21.7,17.3,21.4,17.3z M21,19.8h-1.2v-1.6H21V19.8z"/>
	</g>
</g>
<g>
	<g>
		<path class="st0" d="M21.4,17.3h-1.9c-0.3,0-0.6,0.3-0.6,0.6v2.3c0,0.3,0.3,0.6,0.6,0.6h1.9c0.3,0,0.6-0.3,0.6-0.6v-2.3
			C22,17.6,21.7,17.3,21.4,17.3z M21,19.8h-1.2v-1.6H21V19.8z"/>
	</g>
</g>
<g>
	<g>
		<path class="st0" d="M21.4,17.3h-1.9c-0.3,0-0.6,0.3-0.6,0.6v2.3c0,0.3,0.3,0.6,0.6,0.6h1.9c0.3,0,0.6-0.3,0.6-0.6v-2.3
			C22,17.6,21.7,17.3,21.4,17.3z M21,19.8h-1.2v-1.6H21V19.8z"/>
	</g>
</g>
<g>
	<g>
		<path class="st0" d="M21.4,17.3h-1.9c-0.3,0-0.6,0.3-0.6,0.6v2.3c0,0.3,0.3,0.6,0.6,0.6h1.9c0.3,0,0.6-0.3,0.6-0.6v-2.3
			C22,17.6,21.7,17.3,21.4,17.3z M21,19.8h-1.2v-1.6H21V19.8z"/>
	</g>
</g>
<g>
	<g>
		<path class="st0" d="M21.4,17.3h-1.9c-0.3,0-0.6,0.3-0.6,0.6v2.3c0,0.3,0.3,0.6,0.6,0.6h1.9c0.3,0,0.6-0.3,0.6-0.6v-2.3
			C22,17.6,21.7,17.3,21.4,17.3z M21,19.8h-1.2v-1.6H21V19.8z"/>
	</g>
</g>
<g>
	<g>
		<path class="st0" d="M36.3,25.1c-0.6-0.9-1.9-1.2-2.8-0.5l-1.3,0.9V4.6h0.1c0.4,0,0.6-0.3,0.6-0.6V2.7c0-0.4-0.3-0.6-0.6-0.6h-3.1
			c-0.3,0-0.5,0.2-0.5,0.5S28.9,3,29.2,3h2.8v0.6H18.3V3h7.8c0.3,0,0.5-0.2,0.5-0.5s-0.2-0.5-0.5-0.5H18c-0.4,0-0.6,0.3-0.6,0.6v1.2
			c0,0.4,0.3,0.6,0.6,0.6h0.2v6.2h-1V9.6c0-0.4-0.3-0.8-0.8-0.8h-3.7c-0.4,0-0.8,0.3-0.8,0.8v1.2h-0.7c-0.4,0-0.8,0.4-0.8,0.8v11.1
			c-0.2,0-0.4,0-0.6,0H9.2v-0.3c0-0.9-0.8-1.7-1.7-1.7H6c-0.9,0-1.7,0.8-1.7,1.7v6.9c0,0.3,0.2,0.5,0.5,0.5s0.5-0.2,0.5-0.5v-6.9
			c0-0.4,0.3-0.7,0.7-0.7h1.5c0.4,0,0.7,0.3,0.7,0.7v10.9c0,0.4-0.3,0.7-0.7,0.7H6c-0.4,0-0.7-0.3-0.7-0.7v-1c0-0.3-0.2-0.5-0.5-0.5
			s-0.5,0.2-0.5,0.5v1c0,0.9,0.8,1.7,1.7,1.7h1.5c0.9,0,1.7-0.8,1.7-1.7v0l6.7,2.5c0,0,0,0,0,0c0.3,0.1,0.6,0.1,0.9,0.1
			c0.2,0,0.3,0,0.5,0c0,0,0,0,0,0l9.9-1.4c0,0,0,0,0,0c0.8-0.1,1.6-0.5,2.3-1c0,0,0,0,0,0l6.4-5.8C36.7,27.1,36.8,25.9,36.3,25.1z
			 M19.2,4.6h12v21.5l-4,2.7l-1.4-0.1l0-0.3c0-0.3-0.1-0.5-0.2-0.7c0-0.1-0.1-0.2-0.1-0.2c-0.1-0.1-0.1-0.2-0.2-0.3
			c-0.2-0.2-0.3-0.5-0.6-0.6h1.4c0.3,0,0.6-0.3,0.6-0.6v-2.3c0-0.3-0.3-0.6-0.6-0.6h-1.9c-0.3,0-0.6,0.3-0.6,0.6v2.3
			c-0.1,0-0.2-0.1-0.4-0.1c0,0,0,0,0,0l-0.3,0v-2.2c0-0.3-0.3-0.6-0.6-0.6h-1.9c-0.3,0-0.6,0.3-0.6,0.6v1.8l-0.6-0.1L19.2,4.6
			L19.2,4.6z M24.6,25.5v-1.6h1.2v1.6H24.6z M22,23.9v1.6h-1.1l-0.1,0v-1.6H22z M13,9.8h3.2v1H13V9.8z M11.5,11.8L11.5,11.8h6.7v1.5
			h-5.5c-0.3,0-0.6,0.3-0.6,0.6v1.5c0,0.3,0.3,0.6,0.6,0.6h5.5v1.4h-5.5c-0.3,0-0.6,0.3-0.6,0.6v1.5c0,0.3,0.3,0.6,0.6,0.6h5.5v1.4
			h-5.5c-0.3,0-0.6,0.3-0.6,0.6V23c-0.1,0-0.2,0-0.2-0.1c0,0-0.1,0-0.1,0c0,0-0.1,0-0.1,0c0,0-0.1,0-0.1,0
			C11.5,22.8,11.5,11.8,11.5,11.8z M18.2,14.3v0.7h-5.1v-0.7H18.2z M18.2,18.2v0.7h-5.1v-0.7H18.2z M13.1,22.9v-0.7h5.1v0.7H13.1z
			 M18.2,23.8v1.3l-0.1,0c-0.3,0-0.6-0.1-0.9-0.2c-0.6-0.1-1.2-0.4-1.7-0.6c-0.1,0-0.1-0.1-0.2-0.1c-0.1-0.1-0.2-0.1-0.3-0.2
			c-0.1,0-0.2-0.1-0.3-0.1c0,0,0,0-0.1,0c0,0,0,0-0.1,0L18.2,23.8L18.2,23.8z M35.3,27l-6.4,5.8c-0.5,0.4-1.2,0.7-1.8,0.8L17.1,35
			c0,0,0,0,0,0c-0.3,0-0.6,0-0.9-0.1l-7-2.7v-8.6h0.8c0.4,0,0.7,0,1.1,0.1c0.1,0,0.1,0,0.2,0c0,0,0,0,0,0c0.2,0,0.4,0.1,0.5,0.1
			c0.1,0,0.1,0,0.2,0c0,0,0.1,0,0.1,0c0.1,0,0.1,0,0.2,0.1c0,0,0,0,0,0c0.5,0.1,1.1,0.4,1.6,0.6c0,0,0,0,0,0c0.1,0,0.1,0.1,0.2,0.1
			c0,0,0,0,0.1,0c0.1,0,0.2,0.1,0.2,0.1c0,0,0,0,0,0c0.2,0.1,0.4,0.2,0.6,0.3c0.9,0.5,1.9,0.8,2.9,0.9c0,0,0,0,0,0l0.7,0.1l0.6,0.1
			l1.3,0.2l0.3,0c0,0,0,0,0,0l2.3,0.3c0.9,0.1,1.6,0.9,1.7,1.8l0,0.2l-9.1-0.9c-0.3,0-0.5,0.2-0.5,0.4c0,0.3,0.2,0.5,0.4,0.5
			l9.6,0.9c0,0,0,0,0.1,0l1.9,0.1c0,0,0,0,0,0c0,0,0,0,0,0c0,0,0,0,0,0c0,0,0,0,0,0c0,0,0,0,0,0c0,0,0,0,0,0c0,0,0,0,0,0
			c0,0,0,0,0.1,0l4.4-2.9l0,0l2.1-1.4c0.5-0.3,1.1-0.2,1.4,0.3C35.8,26.1,35.7,26.7,35.3,27z"/>
	</g>
</g>
</svg>
