<?xml version="1.0" encoding="utf-8"?>
<!-- Generator: Adobe Illustrator 21.0.0, SVG Export Plug-In . SVG Version: 6.00 Build 0)  -->
<svg version="1.1" id="Layer_1" xmlns="http://www.w3.org/2000/svg" xmlns:xlink="http://www.w3.org/1999/xlink" x="0px" y="0px"
	 viewBox="0 0 40.9 38.1" style="enable-background:new 0 0 40.9 38.1;" xml:space="preserve">
<style type="text/css">
	.st0{fill:#D6B469;}
</style>
<path class="st0" d="M-38.8,32.5v-2.7c2.7-0.4,5.2-1.5,7.3-3.1l1.9,1.9c0.4,0.4,1.1,0.4,1.5,0l2-2c0.4-0.4,0.4-1.1,0-1.5l-1.9-1.9
	c1.6-2.1,2.6-4.6,3-7.3h2.7c0.6,0,1.1-0.5,1.1-1.1v-2.8c0-0.6-0.5-1.1-1.1-1.1h-2.7c-0.4-2.7-1.5-5.2-3-7.3l1.9-1.9
	c0.4-0.4,0.4-1.1,0-1.5l-2-2c-0.4-0.4-1.1-0.4-1.5,0l-1.9,1.9c-2.1-1.6-4.6-2.6-7.3-3.1v-2.7c0-0.6-0.5-1.1-1.1-1.1h-2.8
	c-0.6,0-1.1,0.5-1.1,1.1v2.7c-2.7,0.4-5.2,1.5-7.4,3l-1.9-1.9c-0.4-0.4-1.1-0.4-1.5,0l-2,2c-0.4,0.4-0.4,1.1,0,1.5l1.9,1.9
	c-1.6,2.1-2.7,4.6-3.1,7.4h-2.6c-0.6,0-1.1,0.5-1.1,1.1v2.8c0,0.6,0.5,1.1,1.1,1.1h2.6c0.4,2.7,1.5,5.3,3.1,7.4l-1.9,1.9
	c-0.4,0.4-0.4,1.1,0,1.5l2,2c0.4,0.4,1.1,0.4,1.5,0l1.9-1.9c2.1,1.6,4.6,2.6,7.4,3v2.7c0,0.6,0.5,1.1,1.1,1.1h2.8
	C-39.2,33.5-38.8,33.1-38.8,32.5z M-47.1,13.5c0-3.2,2.6-5.8,5.8-5.8c3.2,0,5.8,2.6,5.8,5.8s-2.6,5.8-5.8,5.8
	C-44.5,19.3-47.1,16.7-47.1,13.5z"/>
<g>
	<g>
		<g>
			<path class="st0" d="M37.1,10.9C37.1,10.9,37.1,10.9,37.1,10.9L37.1,10.9l-2.2-0.3c-0.3,0-0.5-0.3-0.5-0.6c0-0.1,0.1-0.3,0.2-0.4
				l1.8-1.3c0.3-0.2,0.3-0.5,0.1-0.8l-2-2.7c-0.2-0.3-0.5-0.3-0.8-0.1l-1.8,1.3c-0.3,0.2-0.6,0.1-0.8-0.1C31,5.7,31,5.6,31,5.4
				l0.3-2.2c0-0.3-0.2-0.6-0.5-0.6c0,0,0,0,0,0l-3.4-0.5c-0.3,0-0.6,0.2-0.6,0.5c0,0,0,0,0,0l-0.3,2.2c0,0.3-0.3,0.5-0.6,0.5
				c-0.1,0-0.3-0.1-0.4-0.2l-1.3-1.8c-0.2-0.3-0.5-0.3-0.8-0.1l-1.7,1.3c-0.8-0.1-1.6-0.1-2.3,0c-5.1,0.6-9,4.6-9.5,9.7
				c0,0.2,0,0.3,0,0.5H9.6c-0.3,0-0.5,0.2-0.6,0.5l-0.4,1.9l-1.6-1.1c-0.2-0.2-0.5-0.1-0.7,0.1l-1.7,1.7c-0.2,0.2-0.2,0.5-0.1,0.7
				l1.1,1.6l-1.9,0.4c-0.3,0.1-0.4,0.3-0.4,0.6v2.3c0,0.3,0.2,0.5,0.5,0.6L5.6,24l-1.1,1.6c-0.2,0.2-0.1,0.5,0.1,0.7L6.3,28
				c0.2,0.2,0.5,0.2,0.7,0.1L8.6,27L9,28.9c0.1,0.3,0.3,0.5,0.6,0.5h2.3c0.3,0,0.5-0.2,0.6-0.5l0.4-1.9l1.6,1.1
				c0.2,0.2,0.5,0.1,0.7-0.1l0.9-0.9v1.6c0,0.8,0.4,1.6,1.1,2v3.2c0,1.3,1,2.3,2.3,2.3h2.3c1.3,0,2.3-1,2.3-2.3v-3.2
				c0.7-0.4,1.1-1.1,1.1-2v-2.2c0-0.9,0.5-1.8,1.3-2.3c0.5-0.3,0.9-0.6,1.3-1L27,22.3c-0.4,0.3-0.8,0.6-1.2,0.9
				c-1.1,0.7-1.8,1.9-1.8,3.3v2.2c0,0.6-0.5,1.1-1.1,1.1h-4.5c-0.6,0-1.1-0.5-1.1-1.1v-2.3c0-1.3-0.7-2.5-1.8-3.2
				c-4.5-2.8-5.9-8.8-3-13.3c1.8-2.8,4.8-4.5,8.1-4.5c0,0,0,0,0,0.1c0,0.1,0,0.3,0.1,0.4l1.3,1.8c0.1,0.2,0.2,0.4,0,0.6
				c-0.1,0.2-0.3,0.3-0.6,0.3l-2.2-0.3c-0.3,0-0.6,0.2-0.6,0.5c0,0,0,0,0,0L18,12.2c0,0.3,0.2,0.6,0.5,0.6c0,0,0,0,0,0l2.2,0.3
				c0.3,0,0.5,0.3,0.5,0.6c0,0.1-0.1,0.3-0.2,0.4l-1.8,1.3c-0.3,0.2-0.3,0.5-0.1,0.8l2,2.7c0.2,0.3,0.5,0.3,0.8,0.1l1.8-1.3
				c0.3-0.2,0.6-0.1,0.8,0.1c0.1,0.1,0.1,0.3,0.1,0.4l-0.3,2.2c0,0.3,0.2,0.6,0.5,0.6c0,0,0,0,0,0l3.4,0.5c0,0,0.1,0,0.1,0
				c0.3,0,0.5-0.2,0.6-0.5L29,19c0-0.3,0.3-0.5,0.6-0.5c0.1,0,0.3,0.1,0.4,0.2l1.3,1.8c0.2,0.3,0.5,0.3,0.8,0.1l2.7-2
				c0.3-0.2,0.3-0.5,0.1-0.8L33.7,16c-0.1-0.2-0.2-0.4,0-0.6c0.1-0.2,0.3-0.3,0.6-0.3l2.2,0.3c0.3,0,0.6-0.2,0.6-0.5c0,0,0,0,0,0
				l0.5-3.4C37.6,11.3,37.4,11,37.1,10.9z M18.3,31.1h4.5v1.1h-4.5V31.1z M18.3,33.3h4.5v0.6c0,0.6-0.5,1.1-1.1,1.1h-2.3
				c-0.6,0-1.1-0.5-1.1-1.1V33.3z M13.7,23.5c0.3,0.3,0.6,0.5,1,0.7c0.5,0.3,0.9,0.9,1.1,1.5l-1.2,1.2l-1.2-0.8
				c-0.5-0.4-1.2-0.2-1.6,0.3c-0.1,0.1-0.1,0.3-0.2,0.4l-0.3,1.4H10l-0.3-1.4c-0.1-0.6-0.7-1-1.3-0.9c-0.1,0-0.3,0.1-0.4,0.2
				l-1.2,0.8l-1-1l0.8-1.2c0.4-0.5,0.2-1.2-0.3-1.6C6.2,23,6,23,5.9,22.9l-1.4-0.3v-1.4L5.9,21c0.6-0.1,1-0.7,0.9-1.3
				c0-0.1-0.1-0.3-0.2-0.4l-0.8-1.2l1-1L8,17.8c0.5,0.4,1.2,0.2,1.6-0.3c0.1-0.1,0.1-0.3,0.2-0.4l0.1-0.5c0.1,0.7,0.2,1.3,0.5,1.9
				c-1.9,0.2-3.2,1.9-3,3.8c0.2,1.9,1.9,3.2,3.8,3C12.2,25.2,13.2,24.5,13.7,23.5z M12.8,22.7c-0.4,1.2-1.7,1.8-2.9,1.4
				c-1.2-0.4-1.8-1.7-1.4-2.9c0.3-0.9,1.2-1.5,2.1-1.5c0,0,0,0,0,0C11.3,20.8,12,21.8,12.8,22.7z M36,14.2L34.4,14
				c-0.9-0.1-1.8,0.5-1.9,1.4c-0.1,0.4,0.1,0.9,0.3,1.3l1,1.3L32,19.4l-1-1.3c-0.6-0.8-1.6-0.9-2.4-0.3c-0.4,0.3-0.6,0.7-0.7,1.1
				l-0.2,1.7l-2.2-0.3l0.2-1.6c0.1-0.9-0.5-1.8-1.4-1.9c-0.4-0.1-0.9,0.1-1.3,0.3l-1.3,1l-1.4-1.8l1.3-1c0.8-0.6,0.9-1.6,0.3-2.4
				c-0.3-0.4-0.7-0.6-1.1-0.7l-1.6-0.2l0.3-2.2l1.6,0.2c0.9,0.1,1.8-0.5,1.9-1.4c0.1-0.4-0.1-0.9-0.3-1.3l-1-1.3l1.8-1.4l1,1.3
				c0.6,0.8,1.6,0.9,2.4,0.3c0.4-0.3,0.6-0.7,0.7-1.1l0.2-1.6l2.2,0.3l-0.2,1.6c-0.1,0.9,0.5,1.8,1.4,1.9c0.4,0.1,0.9-0.1,1.3-0.3
				l1.3-1l1.4,1.8l-1.3,1c-0.8,0.6-0.9,1.6-0.3,2.4c0.3,0.4,0.7,0.6,1.1,0.7l1.6,0.2L36,14.2z"/>
		</g>
	</g>
	<g>
		<g>
			<path class="st0" d="M27.8,7.3c-2.5,0-4.5,2-4.5,4.5s2,4.5,4.5,4.5s4.5-2,4.5-4.5C32.3,9.4,30.3,7.3,27.8,7.3z M27.8,15.3
				c-1.9,0-3.4-1.5-3.4-3.4s1.5-3.4,3.4-3.4c1.9,0,3.4,1.5,3.4,3.4C31.2,13.8,29.6,15.3,27.8,15.3z"/>
		</g>
	</g>
	<g>
		<g>
			<rect x="20" y="27.1" class="st0" width="1.1" height="1.7"/>
		</g>
	</g>
	<g>
		<g>
			<path class="st0" d="M18,21.5c-3.5-1.4-5.2-5.3-3.9-8.8c0.5-1.4,1.5-2.5,2.7-3.3l-0.6-1c-3.7,2.3-4.8,7.3-2.5,11
				c0.9,1.4,2.3,2.6,3.8,3.2c1.4,0.5,2.3,1.9,2.3,3.4h1.1C21.1,24,19.9,22.2,18,21.5z"/>
		</g>
	</g>
	<g>
		<g>
			<rect x="31.3" y="23.1" class="st0" width="4" height="1.1"/>
		</g>
	</g>
	<g>
		<g>
			<rect x="31.9" y="25.7" transform="matrix(0.6401 -0.7683 0.7683 0.6401 -9.7755 34.99)" class="st0" width="1.1" height="4.4"/>
		</g>
	</g>
	<g>
		<g>
			<rect x="27.9" y="27.6" class="st0" width="1.1" height="4"/>
		</g>
	</g>
	<g>
		<g>
			<rect x="4" y="11.2" transform="matrix(0.9701 -0.2425 0.2425 0.9701 -2.6566 1.8819)" class="st0" width="4.7" height="1.1"/>
		</g>
	</g>
	<g>
		<g>
			<rect x="6.6" y="4.5" transform="matrix(0.5812 -0.8137 0.8137 0.5812 -2.6148 8.7237)" class="st0" width="1.1" height="4.9"/>
		</g>
	</g>
	<g>
		<g>
			<rect x="10.3" y="2" transform="matrix(0.9688 -0.2477 0.2477 0.9688 -0.7378 2.8231)" class="st0" width="1.1" height="4.7"/>
		</g>
	</g>
</g>
</svg>
