<?xml version="1.0" encoding="utf-8"?>
<!-- Generator: Adobe Illustrator 21.0.0, SVG Export Plug-In . SVG Version: 6.00 Build 0)  -->
<svg version="1.1" id="Layer_1" xmlns="http://www.w3.org/2000/svg" xmlns:xlink="http://www.w3.org/1999/xlink" x="0px" y="0px"
	 viewBox="0 0 40.9 38.1" style="enable-background:new 0 0 40.9 38.1;" xml:space="preserve">
<style type="text/css">
	.st0{fill:#D6B469;}
</style>
<path class="st0" d="M-38.8,32.5v-2.7c2.7-0.4,5.2-1.5,7.3-3.1l1.9,1.9c0.4,0.4,1.1,0.4,1.5,0l2-2c0.4-0.4,0.4-1.1,0-1.5l-1.9-1.9
	c1.6-2.1,2.6-4.6,3-7.3h2.7c0.6,0,1.1-0.5,1.1-1.1v-2.8c0-0.6-0.5-1.1-1.1-1.1h-2.7c-0.4-2.7-1.5-5.2-3-7.3l1.9-1.9
	c0.4-0.4,0.4-1.1,0-1.5l-2-2c-0.4-0.4-1.1-0.4-1.5,0l-1.9,1.9c-2.1-1.6-4.6-2.6-7.3-3.1v-2.7c0-0.6-0.5-1.1-1.1-1.1h-2.8
	c-0.6,0-1.1,0.5-1.1,1.1v2.7c-2.7,0.4-5.2,1.5-7.4,3l-1.9-1.9c-0.4-0.4-1.1-0.4-1.5,0l-2,2c-0.4,0.4-0.4,1.1,0,1.5l1.9,1.9
	c-1.6,2.1-2.7,4.6-3.1,7.4h-2.6c-0.6,0-1.1,0.5-1.1,1.1v2.8c0,0.6,0.5,1.1,1.1,1.1h2.6c0.4,2.7,1.5,5.3,3.1,7.4l-1.9,1.9
	c-0.4,0.4-0.4,1.1,0,1.5l2,2c0.4,0.4,1.1,0.4,1.5,0l1.9-1.9c2.1,1.6,4.6,2.6,7.4,3v2.7c0,0.6,0.5,1.1,1.1,1.1h2.8
	C-39.2,33.5-38.8,33.1-38.8,32.5z M-47.1,13.5c0-3.2,2.6-5.8,5.8-5.8c3.2,0,5.8,2.6,5.8,5.8s-2.6,5.8-5.8,5.8
	C-44.5,19.3-47.1,16.7-47.1,13.5z"/>
<g>
	<path class="st0" d="M15.1,14.1c0.2,0.2,0.5,0.4,0.8,0.4c0.2,0,0.4-0.1,0.6-0.2c0.4-0.3,0.5-0.9,0.2-1.3c-0.6-0.8-1-1.9-1-2.9
		C15.6,9,16,7.9,16.7,7C17,6.6,17,6,16.6,5.7c-0.4-0.3-1-0.3-1.3,0.1c-1,1.2-1.5,2.7-1.5,4.3C13.7,11.5,14.2,13,15.1,14.1z"/>
	<path class="st0" d="M13.1,17c0.2,0,0.4-0.1,0.6-0.2c0.4-0.3,0.5-0.9,0.1-1.3c-1.2-1.5-1.9-3.4-1.9-5.4c0-2.1,0.7-4,2.1-5.6
		c0.3-0.4,0.3-1-0.1-1.3c-0.4-0.3-1-0.3-1.3,0.1C10.9,5.1,10,7.6,10,10.1c0,2.4,0.8,4.7,2.3,6.6C12.5,16.9,12.8,17,13.1,17z"/>
	<path class="st0" d="M25.3,10.1c0,1-0.3,2.1-1,2.9c-0.3,0.4-0.2,1,0.2,1.3c0.2,0.1,0.4,0.2,0.6,0.2c0.3,0,0.6-0.1,0.8-0.4
		c0.9-1.2,1.4-2.6,1.4-4c0-1.5-0.5-3.1-1.5-4.3c-0.3-0.4-0.9-0.5-1.3-0.1C23.9,6,23.9,6.6,24.2,7C24.9,7.9,25.3,9,25.3,10.1z"/>
	<path class="st0" d="M29,10.1c0,2-0.7,3.9-1.9,5.4c-0.3,0.4-0.3,1,0.1,1.3c0.2,0.1,0.4,0.2,0.6,0.2c0.3,0,0.5-0.1,0.7-0.3
		c1.5-1.9,2.3-4.2,2.3-6.6c0-2.5-0.9-4.9-2.5-6.8c-0.3-0.4-0.9-0.4-1.3-0.1c-0.4,0.3-0.4,0.9-0.1,1.3C28.3,6,29,8,29,10.1z"/>
	<path class="st0" d="M29.3,33.3h-2.7l-4.8-20.6c0.9-0.5,1.6-1.5,1.6-2.6c0-1.6-1.3-3-3-3c-1.6,0-3,1.3-3,3c0,1.1,0.6,2.1,1.6,2.6
		l-4.8,20.6h-2.7c-0.5,0-0.9,0.4-0.9,0.9c0,0.5,0.4,0.9,0.9,0.9h17.8c0.5,0,0.9-0.4,0.9-0.9C30.3,33.7,29.9,33.3,29.3,33.3z
		 M23,25.7l-3.6-2.2l2.7-1.6L23,25.7z M20.4,9c0.6,0,1.1,0.5,1.1,1.1c0,0.6-0.5,1.1-1.1,1.1c-0.6,0-1.1-0.5-1.1-1.1
		C19.4,9.5,19.9,9,20.4,9z M20.4,15l1.2,5l-2.7,1.6L20.4,15z M18.1,25l4.4,2.6l-5.9,3.5L18.1,25z M16.7,33.3l7.1-4.2l1,4.2H16.7z"/>
</g>
</svg>
