<?xml version="1.0" encoding="utf-8"?>
<!-- Generator: Adobe Illustrator 21.0.0, SVG Export Plug-In . SVG Version: 6.00 Build 0)  -->
<svg version="1.1" id="Layer_1" xmlns="http://www.w3.org/2000/svg" xmlns:xlink="http://www.w3.org/1999/xlink" x="0px" y="0px"
	 viewBox="0 0 40.9 38.1" style="enable-background:new 0 0 40.9 38.1;" xml:space="preserve">
<style type="text/css">
	.st0{fill:#D6B469;}
</style>
<path class="st0" d="M-38.8,32.5v-2.7c2.7-0.4,5.2-1.5,7.3-3.1l1.9,1.9c0.4,0.4,1.1,0.4,1.5,0l2-2c0.4-0.4,0.4-1.1,0-1.5l-1.9-1.9
	c1.6-2.1,2.6-4.6,3-7.3h2.7c0.6,0,1.1-0.5,1.1-1.1v-2.8c0-0.6-0.5-1.1-1.1-1.1h-2.7c-0.4-2.7-1.5-5.2-3-7.3l1.9-1.9
	c0.4-0.4,0.4-1.1,0-1.5l-2-2c-0.4-0.4-1.1-0.4-1.5,0l-1.9,1.9c-2.1-1.6-4.6-2.6-7.3-3.1v-2.7c0-0.6-0.5-1.1-1.1-1.1h-2.8
	c-0.6,0-1.1,0.5-1.1,1.1v2.7c-2.7,0.4-5.2,1.5-7.4,3l-1.9-1.9c-0.4-0.4-1.1-0.4-1.5,0l-2,2c-0.4,0.4-0.4,1.1,0,1.5l1.9,1.9
	c-1.6,2.1-2.7,4.6-3.1,7.4h-2.6c-0.6,0-1.1,0.5-1.1,1.1v2.8c0,0.6,0.5,1.1,1.1,1.1h2.6c0.4,2.7,1.5,5.3,3.1,7.4l-1.9,1.9
	c-0.4,0.4-0.4,1.1,0,1.5l2,2c0.4,0.4,1.1,0.4,1.5,0l1.9-1.9c2.1,1.6,4.6,2.6,7.4,3v2.7c0,0.6,0.5,1.1,1.1,1.1h2.8
	C-39.2,33.5-38.8,33.1-38.8,32.5z M-47.1,13.5c0-3.2,2.6-5.8,5.8-5.8c3.2,0,5.8,2.6,5.8,5.8s-2.6,5.8-5.8,5.8
	C-44.5,19.3-47.1,16.7-47.1,13.5z"/>
<g>
	<path class="st0" d="M31.5,17.8h1.4c1,0,1.9-0.8,1.9-1.9S33.9,14,32.9,14h-0.5c-0.1-1.3-0.4-2-0.7-2.6h1.2c1,0,1.9-0.8,1.9-1.9
		s-0.8-1.9-1.9-1.9H32c0.3-0.8,0.4-1.4-0.1-2.1C31.6,5,31,4.7,30.4,4.7c-0.8,0-1.5,0.5-1.8,1.3c-0.2,0.5-0.5,0.9-0.8,1.7h-2.2
		c0.1-0.1,0.1-0.3,0.2-0.4C26,6.7,25.9,6,25.6,5.5C25.2,5,24.6,4.7,24,4.7c-0.8,0-1.5,0.5-1.8,1.3c-0.1,0.2-0.2,0.5-0.3,0.7
		c-0.1,0.3-0.3,0.6-0.4,0.9h-2.2c0.1-0.1,0.1-0.3,0.2-0.4c0.2-0.6,0.1-1.2-0.2-1.7c-0.4-0.5-0.9-0.8-1.5-0.8c-0.8,0-1.5,0.5-1.8,1.3
		c-0.1,0.2-0.2,0.5-0.3,0.7c-0.1,0.3-0.3,0.6-0.4,0.9h-2.2c0.3-0.8,0.4-1.4-0.1-2.1c-0.4-0.5-0.9-0.8-1.5-0.8
		c-0.8,0-1.5,0.5-1.8,1.3C9.4,6.5,9,7,8.8,7.7H8c-1,0-1.9,0.8-1.9,1.9S7,11.4,8,11.4h3.8c0.1,0.1,0.1,0.2,0.2,0.3
		c0.3,0.6,0.7,1.3,0.7,2.7v0c0,0,0,0,0,0c0,0,0,0,0,0c0,2.5-1.2,2.8-1.2,4.6c0,0.5,0.1,0.9,0.2,1.3H9.4C9.3,20,9.3,19.5,9.3,19
		c0-2.6,1.2-2.7,1.2-4.6c0-0.8-0.2-1.3-0.5-1.8c-0.1-0.2-0.4-0.3-0.6-0.2c-0.2,0.1-0.3,0.4-0.2,0.6c0.2,0.3,0.3,0.6,0.3,1H8
		c-1,0-1.9,0.8-1.9,1.9S7,17.8,8,17.8h0.6c-0.1,0.8-0.2,1.8,0,2.6H8c-1,0-1.9,0.8-1.9,1.9c0,1,0.8,1.9,1.9,1.9h1.7
		c-0.1,0.9-0.7,1.4-1,2.6H8c-1,0-1.9,0.8-1.9,1.9S7,30.4,8,30.4h0.8c0.2,0.7,0.6,1.1,0.8,1.7c0.3,0.8,1,1.3,1.8,1.3
		c0.6,0,1.2-0.3,1.5-0.8c0.4-0.5,0.4-1.1,0.2-1.7c-0.1-0.1-0.1-0.3-0.2-0.4h2.2c0.2,0.7,0.6,1.1,0.8,1.7c0.3,0.8,1,1.3,1.8,1.3
		c0.6,0,1.2-0.3,1.5-0.8c0.4-0.5,0.4-1.1,0.2-1.7c-0.1-0.1-0.1-0.3-0.2-0.4h2.2c0.3,0.7,0.6,1.1,0.8,1.7c0.3,0.8,1,1.3,1.8,1.3
		c0.6,0,1.2-0.3,1.5-0.8c0.4-0.5,0.4-1.1,0.2-1.7c-0.1-0.1-0.1-0.3-0.2-0.4h2.2c0.3,0.7,0.6,1.1,0.8,1.7c0.3,0.8,1,1.3,1.8,1.3
		c0.6,0,1.2-0.3,1.5-0.8c0.5-0.7,0.4-1.4,0.1-2.1h0.9c1,0,1.9-0.8,1.9-1.9s-0.8-1.9-1.9-1.9h-1.2c0.3-0.6,0.7-1.3,0.7-2.6h0.5
		c1,0,1.9-0.8,1.9-1.9s-0.8-1.9-1.9-1.9h-1.4C31.1,19.4,31.1,18.6,31.5,17.8L31.5,17.8z M8,16.9c-0.6,0-1-0.5-1-1s0.5-1,1-1h1.6
		c-0.1,0.8-0.5,1.2-0.9,2.1H8z M33.9,15.9c0,0.6-0.5,1-1,1c-1.7,0-5.9,0-7.3,0c0.2-0.5,0.4-1.1,0.5-2.1h6.8
		C33.5,14.8,33.9,15.3,33.9,15.9z M19.8,23.3c0-0.9-0.3-1.6-0.5-2.1c0.2,0,8.4,0,8.5,0c0.3,0.9,0.7,1.3,0.9,2.1H19.8z M21.3,26.7H19
		c0.3-0.6,0.7-1.3,0.7-2.6h2.6C22.2,25,21.6,25.5,21.3,26.7z M15.8,26.7c0.3-1.1,1-1.6,1-3c0-1.4-0.7-1.9-1-3c0,0,0,0,0,0
		c-0.3-0.9-0.3-2.1-0.1-2.9h2.2C17.5,19,17.7,20,18.3,21c0.3,0.6,0.7,1.3,0.7,2.7c0,0,0,0,0,0c0,0,0,0,0,0v0c0,1.4-0.3,2-0.7,2.7
		c-0.1,0.1-0.1,0.2-0.2,0.3L15.8,26.7L15.8,26.7z M12.7,26.7c0.3-0.6,0.7-1.3,0.7-2.6H16c-0.1,0.9-0.7,1.4-1,2.6H12.7z M15.5,12.8
		c0.2,0.4,0.4,0.7,0.4,1.2h-2.6c-0.1-1.3-0.4-2-0.7-2.6H15C15.1,12,15.3,12.4,15.5,12.8z M13.4,14.8h8.9c-0.2,1.2-1.2,1.7-1.2,4.2
		c0,0.5,0,0.9,0.1,1.3h-2.4c-0.4-0.9-0.4-1.7,0-2.6h0.9c0.2,0,0.4-0.2,0.4-0.4c0-0.2-0.2-0.4-0.4-0.4c-0.7,0-6.1,0-6.9,0
		C13.2,16.4,13.4,15.8,13.4,14.8L13.4,14.8z M28.7,14h-2.6c-0.1-1.3-0.4-2-0.7-2.6h2.3C28,12.6,28.5,13.1,28.7,14L28.7,14z
		 M24.4,11.4c0.1,0.1,0.1,0.2,0.2,0.3c0.5,1,0.7,1.5,0.7,2.7c0,1.4-0.3,2-0.7,2.6c-0.6,1.1-0.8,2.1-0.3,3.3h-2.2
		C22,20,22,19.5,22,19c0-1.4,0.3-2,0.7-2.7c1.3-2.5,0-3.6-0.4-5L24.4,11.4L24.4,11.4z M21.3,11.4c0.3,1.2,0.9,1.7,1,2.6h-2.6
		c-0.1-1.3-0.4-2-0.7-2.6H21.3z M27.6,20.3h-2.4c-0.4-0.9-0.4-1.7,0-2.6h2.4C27.4,18.5,27.4,19.5,27.6,20.3L27.6,20.3z M33.9,9.5
		c0,0.6-0.5,1-1,1h-1.6c-0.1-0.2-0.1-0.5-0.1-0.8c0-0.5,0.1-0.9,0.3-1.3h1.4C33.5,8.5,33.9,9,33.9,9.5L33.9,9.5z M29.4,6.3
		c0.1-0.4,0.5-0.7,1-0.7c0.3,0,0.7,0.2,0.9,0.4c0.7,1-0.8,1.9-0.8,3.8c0,1.8,1.1,2.1,1.2,4.2h-2.1c-0.2-1.6-1.2-1.8-1.2-4.2
		C28.3,7.8,29,7.3,29.4,6.3z M27.5,10.6h-2.8c0,0,0,0,0,0h-3c0,0,0,0,0,0h-3c-0.1-0.2-0.1-0.5-0.1-0.8c0-0.5,0.1-0.9,0.3-1.3h2.9
		c0,0,0,0,0,0c0,0,0,0,0,0h3.2c0,0,0,0,0,0h2.6C27.5,9.2,27.5,9.9,27.5,10.6z M22.6,7.1c0.1-0.3,0.3-0.5,0.4-0.8
		c0.1-0.4,0.5-0.7,1-0.7c0.3,0,0.7,0.2,0.9,0.4c0.2,0.3,0.2,0.6,0.1,1c-0.1,0.3-0.2,0.5-0.3,0.7h-2.3C22.5,7.5,22.5,7.3,22.6,7.1z
		 M16.7,6.3c0.1-0.4,0.5-0.7,1-0.7c0.3,0,0.7,0.2,0.9,0.4c0.7,1-0.8,1.9-0.8,3.8c0,1.8,1.1,2.1,1.2,4.2h-2.1
		c-0.2-1.5-1.2-1.9-1.2-4.2C15.6,7.8,16.3,7.3,16.7,6.3L16.7,6.3z M10.3,6.3c0.1-0.4,0.5-0.7,1-0.7c0.3,0,0.7,0.2,0.9,0.4
		c0.4,0.5,0.1,1.1-0.2,1.7H9.7C9.9,7.2,10.2,6.8,10.3,6.3z M7,9.5c0-0.6,0.5-1,1-1h6.9c-0.1,0.7-0.1,1.4-0.1,2.1H8
		C7.4,10.6,7,10.1,7,9.5z M12.5,17.8h2.4c-0.1,0.8-0.2,1.8,0,2.6h-2.4C12.1,19.4,12.1,18.6,12.5,17.8z M7,22.2c0-0.6,0.5-1,1-1h7.1
		c0.3,0.9,0.7,1.3,0.9,2.1H8C7.4,23.3,7,22.8,7,22.2L7,22.2z M8,29.6c-0.6,0-1-0.5-1-1c0-0.6,0.5-1,1-1h0.5c0,0.2,0,0.5,0,0.8
		c0,0.5,0,0.9,0.1,1.3L8,29.6L8,29.6z M12.2,32.1c-0.2,0.3-0.5,0.4-0.9,0.4c-0.4,0-0.8-0.3-1-0.7c-0.4-1-1-1.5-1-3.5
		c0-2.4,1-2.6,1.2-4.2h2.1c-0.1,2.2-1.2,2.4-1.2,4.2c0,1.3,0.6,1.9,1,2.8C12.4,31.5,12.4,31.8,12.2,32.1z M18.6,31.1
		c0.1,0.3,0.1,0.7-0.1,1c-0.2,0.3-0.5,0.4-0.9,0.4c-0.4,0-0.8-0.3-1-0.7c-0.2-0.5-0.4-0.9-0.6-1.4h2.3
		C18.4,30.7,18.6,30.9,18.6,31.1L18.6,31.1z M12.5,29.6c-0.4-0.7-0.4-1.5-0.2-2.1h8.9c0,0.2,0,0.5,0,0.8c0,0.5,0,0.9,0.1,1.3
		C20,29.6,13.7,29.6,12.5,29.6z M24.9,32.1c-0.2,0.3-0.5,0.4-0.9,0.4c-0.4,0-0.8-0.3-1-0.7c-0.4-1-1-1.5-1-3.5c0-2.4,1-2.6,1.2-4.2
		h2.1c-0.1,1.1-0.4,1.7-0.7,2.2c-1.3,2.4-0.1,3.5,0.4,4.8C25.1,31.5,25.1,31.8,24.9,32.1z M31.2,32.1c-0.2,0.3-0.5,0.4-0.9,0.4
		c-0.4,0-0.8-0.3-1-0.7c-0.2-0.5-0.4-0.9-0.6-1.4H31C31.3,31,31.6,31.6,31.2,32.1z M33.9,28.6c0,0.6-0.5,1-1,1h-7.7
		c-0.2-0.4-0.3-0.7-0.3-1.3c0-0.3,0-0.6,0.1-0.8h6c0,0,0,0,0,0c0,0,0,0,0,0h1.9C33.5,27.5,33.9,28,33.9,28.6z M25.4,26.7
		c0.3-0.6,0.7-1.3,0.7-2.6h2.6c-0.1,0.4-0.2,0.7-0.3,1c-0.1,0.2,0,0.5,0.2,0.6c0.2,0.1,0.5,0,0.6-0.2c0.2-0.4,0.4-0.9,0.4-1.7
		c0-1.4-0.7-1.9-1-3c-0.3-1.1-0.3-2.1-0.1-2.9h2.2c-0.5,1.2-0.2,2.2,0.3,3.3c0.3,0.6,0.7,1.3,0.7,2.7c0,0,0,0,0,0c0,0,0,0,0,0v0
		c0,1.4-0.3,2-0.7,2.7c-0.1,0.1-0.1,0.2-0.2,0.3L25.4,26.7L25.4,26.7z M33.9,22.2c0,0.6-0.5,1-1,1h-0.5c0-0.9-0.3-1.6-0.5-2.1h0.9
		C33.5,21.2,33.9,21.7,33.9,22.2L33.9,22.2z"/>
</g>
</svg>
