<?xml version="1.0" encoding="utf-8"?>
<!-- Generator: Adobe Illustrator 21.0.0, SVG Export Plug-In . SVG Version: 6.00 Build 0)  -->
<svg version="1.1" id="Layer_1" xmlns="http://www.w3.org/2000/svg" xmlns:xlink="http://www.w3.org/1999/xlink" x="0px" y="0px"
	 viewBox="0 0 40.9 38.1" style="enable-background:new 0 0 40.9 38.1;" xml:space="preserve">
<style type="text/css">
	.st0{fill:#D6B469;}
</style>
<path class="st0" d="M-38.8,32.5v-2.7c2.7-0.4,5.2-1.5,7.3-3.1l1.9,1.9c0.4,0.4,1.1,0.4,1.5,0l2-2c0.4-0.4,0.4-1.1,0-1.5l-1.9-1.9
	c1.6-2.1,2.6-4.6,3-7.3h2.7c0.6,0,1.1-0.5,1.1-1.1v-2.8c0-0.6-0.5-1.1-1.1-1.1h-2.7c-0.4-2.7-1.5-5.2-3-7.3l1.9-1.9
	c0.4-0.4,0.4-1.1,0-1.5l-2-2c-0.4-0.4-1.1-0.4-1.5,0l-1.9,1.9c-2.1-1.6-4.6-2.6-7.3-3.1v-2.7c0-0.6-0.5-1.1-1.1-1.1h-2.8
	c-0.6,0-1.1,0.5-1.1,1.1v2.7c-2.7,0.4-5.2,1.5-7.4,3l-1.9-1.9c-0.4-0.4-1.1-0.4-1.5,0l-2,2c-0.4,0.4-0.4,1.1,0,1.5l1.9,1.9
	c-1.6,2.1-2.7,4.6-3.1,7.4h-2.6c-0.6,0-1.1,0.5-1.1,1.1v2.8c0,0.6,0.5,1.1,1.1,1.1h2.6c0.4,2.7,1.5,5.3,3.1,7.4l-1.9,1.9
	c-0.4,0.4-0.4,1.1,0,1.5l2,2c0.4,0.4,1.1,0.4,1.5,0l1.9-1.9c2.1,1.6,4.6,2.6,7.4,3v2.7c0,0.6,0.5,1.1,1.1,1.1h2.8
	C-39.2,33.5-38.8,33.1-38.8,32.5z M-47.1,13.5c0-3.2,2.6-5.8,5.8-5.8c3.2,0,5.8,2.6,5.8,5.8s-2.6,5.8-5.8,5.8
	C-44.5,19.3-47.1,16.7-47.1,13.5z"/>
<g>
	<g>
		<g>
			<path class="st0" d="M36.8,17.2l-1-3.9c0.3-0.1,0.5-0.3,0.5-0.6v-0.6c0-1.4-1.1-2.5-2.5-2.5h-4.5V8.3c0-0.7-0.6-1.2-1.2-1.2H5.2
				C4.6,7.1,4,7.6,4,8.3v10.8c0,0.3,0.3,0.6,0.6,0.6c0.3,0,0.6-0.3,0.6-0.6V8.3c0,0,0,0,0,0h22.8c0,0,0,0,0,0v10.8
				c0,0.3,0.3,0.6,0.6,0.6c0.3,0,0.6-0.3,0.6-0.6v-0.7h7c0,0,0,0,0,0c0,0,0,0,0,0c0.9,0,1.6,0.6,1.8,1.3h-1.8
				c-0.3,0-0.6,0.3-0.6,0.6v1.3c0,1,0.8,1.9,1.9,1.9h0.7v2.6h-1.6c-0.5-1.5-1.9-2.5-3.6-2.5c-1.6,0-3,1.1-3.6,2.5h-0.3v-4.5
				c0-0.3-0.3-0.6-0.6-0.6c-0.3,0-0.6,0.3-0.6,0.6v4.5H15.8c-0.5-1.5-1.9-2.5-3.6-2.5s-3,1.1-3.6,2.5H5.2c0,0,0,0,0,0v-1.3h2.6
				c0.3,0,0.6-0.3,0.6-0.6c0-0.3-0.3-0.6-0.6-0.6H2.1c-0.3,0-0.6,0.3-0.6,0.6c0,0.3,0.3,0.6,0.6,0.6H4V26c0,0.7,0.6,1.2,1.2,1.2h3.2
				c0,0,0,0,0,0c0,2.1,1.7,3.8,3.8,3.8s3.8-1.7,3.8-3.8c0,0,0,0,0,0h13.4c0,0,0,0,0,0c0,2.1,1.7,3.8,3.8,3.8s3.8-1.7,3.8-3.8
				c0,0,0,0,0,0h1.9c0.3,0,0.6-0.3,0.6-0.6v-6.3C39.4,18.8,38.3,17.5,36.8,17.2z M29.3,10.8h4.5c0.7,0,1.3,0.6,1.3,1.3v0h-5.8V10.8z
				 M29.3,17.2v-3.9h5.3l1,3.9H29.3L29.3,17.2z M12.2,29.9c-1.4,0-2.6-1.2-2.6-2.6s1.2-2.6,2.6-2.6s2.6,1.2,2.6,2.6
				S13.6,29.9,12.2,29.9z M33.1,29.9c-1.4,0-2.6-1.2-2.6-2.6s1.2-2.6,2.6-2.6c1.4,0,2.6,1.2,2.6,2.6S34.5,29.9,33.1,29.9z
				 M38.2,22.3h-0.7c-0.4,0-0.7-0.3-0.7-0.7v-0.7h1.3L38.2,22.3L38.2,22.3z"/>
		</g>
	</g>
	<g>
		<g>
			<path class="st0" d="M12.2,26.1c-0.7,0-1.2,0.6-1.2,1.2s0.6,1.2,1.2,1.2s1.2-0.6,1.2-1.2C13.4,26.6,12.9,26.1,12.2,26.1z"/>
		</g>
	</g>
	<g>
		<g>
			<path class="st0" d="M33.1,26.1c-0.7,0-1.2,0.6-1.2,1.2s0.6,1.2,1.2,1.2c0.7,0,1.2-0.6,1.2-1.2S33.8,26.1,33.1,26.1z"/>
		</g>
	</g>
	<g>
		<g>
			<path class="st0" d="M26.2,23.5h-8.9c-0.3,0-0.6,0.3-0.6,0.6c0,0.3,0.3,0.6,0.6,0.6h8.9c0.3,0,0.6-0.3,0.6-0.6
				C26.7,23.8,26.5,23.5,26.2,23.5z"/>
		</g>
	</g>
	<g>
		<g>
			<path class="st0" d="M10.9,21H3.3c-0.3,0-0.6,0.3-0.6,0.6c0,0.3,0.3,0.6,0.6,0.6h7.6c0.3,0,0.6-0.3,0.6-0.6
				C11.5,21.3,11.3,21,10.9,21z"/>
		</g>
	</g>
	<g>
		<g>
			<path class="st0" d="M22.1,12.9c-0.2-0.2-0.6-0.2-0.8,0L16,18.2l-2.7-2.7c-0.2-0.2-0.6-0.2-0.8,0c-0.2,0.2-0.2,0.6,0,0.8l3.2,3.2
				c0.1,0.1,0.3,0.2,0.4,0.2c0.2,0,0.3-0.1,0.4-0.2l5.7-5.7C22.4,13.5,22.4,13.2,22.1,12.9z"/>
		</g>
	</g>
</g>
</svg>
