<?xml version="1.0" encoding="utf-8"?>
<!-- Generator: Adobe Illustrator 21.0.0, SVG Export Plug-In . SVG Version: 6.00 Build 0)  -->
<svg version="1.1" id="_x33_0" xmlns="http://www.w3.org/2000/svg" xmlns:xlink="http://www.w3.org/1999/xlink" x="0px" y="0px"
	 viewBox="0 0 512 512" style="enable-background:new 0 0 512 512;" xml:space="preserve">
<style type="text/css">
	.st0{fill:#D2AC67;}
</style>
<g>
	<path class="st0" d="M106.3,394.3l96-96l11.3,11.3l-96,96L106.3,394.3z"/>
	<path class="st0" d="M128,344c13.2,0,24-10.8,24-24s-10.8-24-24-24s-24,10.8-24,24S114.8,344,128,344z M128,312c4.4,0,8,3.6,8,8
		s-3.6,8-8,8s-8-3.6-8-8S123.6,312,128,312z"/>
	<path class="st0" d="M192,360c-13.2,0-24,10.8-24,24s10.8,24,24,24s24-10.8,24-24S205.2,360,192,360z M192,392c-4.4,0-8-3.6-8-8
		s3.6-8,8-8s8,3.6,8,8S196.4,392,192,392z"/>
	<path class="st0" d="M464,8H240c-22.1,0-40,17.9-40,40v157.5c-12.8-3.5-26.1-5.5-40-5.5C76.2,200,8,268.2,8,352s68.2,152,152,152
		c57.8,0,108.1-32.4,133.8-80H464c22.1,0,40-17.9,40-40V48C504,25.9,486.1,8,464,8z M248,352c0,48.5-39.5,88-88,88s-88-39.5-88-88
		s39.5-88,88-88S248,303.5,248,352z M152,248.4c-22.7,1.7-43.3,10.7-59.6,24.7l-22.6-22.6c22.2-19.7,50.7-32.2,82.2-34.1L152,248.4
		L152,248.4z M81.1,284.4c-14,16.3-23,36.9-24.7,59.6h-32c1.8-31.5,14.4-60,34.1-82.2L81.1,284.4z M56.4,360
		c1.7,22.7,10.7,43.3,24.7,59.6l-22.6,22.6C38.8,420,26.2,391.5,24.4,360L56.4,360z M92.4,430.9c16.3,14,36.9,23,59.6,24.7v32
		c-31.5-1.8-60-14.4-82.2-34.1L92.4,430.9z M168,455.6c22.7-1.7,43.3-10.7,59.6-24.7l22.6,22.6c-22.2,19.7-50.7,32.2-82.2,34.1
		L168,455.6L168,455.6z M238.9,419.6c14-16.3,23-36.9,24.7-59.6h32c-1.8,31.5-14.4,60-34.1,82.2L238.9,419.6z M301.2,296H320
		c4.4,0,8,3.6,8,8v64c0,4.4-3.6,8-8,8h-10.1c1.3-7.8,2.1-15.8,2.1-24C312,332.2,308.1,313.4,301.2,296z M295.6,344h-32
		c-1.7-22.7-10.7-43.3-24.7-59.6l22.6-22.6C281.2,284,293.8,312.5,295.6,344L295.6,344z M248,228.3V176c0-4.4,3.6-8,8-8h64
		c4.4,0,8,3.6,8,8v64c0,4.4-3.6,8-8,8h-49.5C263.7,240.7,256.2,234.1,248,228.3L248,228.3z M250.2,250.5l-22.6,22.6
		c-16.3-14-36.9-23-59.6-24.7v-32C199.5,218.2,228,230.8,250.2,250.5L250.2,250.5z M488,384c0,13.2-10.8,24-24,24H301.2
		c2.1-5.2,3.8-10.5,5.3-16H320c13.2,0,24-10.8,24-24v-64c0-13.2-10.8-24-24-24h-26.2c-3-5.6-6.4-10.9-10.1-16H320
		c13.2,0,24-10.8,24-24v-64c0-13.2-10.8-24-24-24h-64c-13.2,0-24,10.8-24,24v42.2c-5.1-2.8-10.5-5.2-16-7.4V48c0-13.2,10.8-24,24-24
		h224c13.2,0,24,10.8,24,24L488,384z"/>
	<path class="st0" d="M448,40H256c-13.2,0-24,10.8-24,24v48c0,13.2,10.8,24,24,24h192c13.2,0,24-10.8,24-24V64
		C472,50.8,461.2,40,448,40z M456,112c0,4.4-3.6,8-8,8H256c-4.4,0-8-3.6-8-8V64c0-4.4,3.6-8,8-8h192c4.4,0,8,3.6,8,8V112z"/>
	<path class="st0" d="M448,152h-64c-13.2,0-24,10.8-24,24v64c0,13.2,10.8,24,24,24h64c13.2,0,24-10.8,24-24v-64
		C472,162.8,461.2,152,448,152z M456,240c0,4.4-3.6,8-8,8h-64c-4.4,0-8-3.6-8-8v-64c0-4.4,3.6-8,8-8h64c4.4,0,8,3.6,8,8V240z"/>
	<path class="st0" d="M448,280h-64c-13.2,0-24,10.8-24,24v64c0,13.2,10.8,24,24,24h64c13.2,0,24-10.8,24-24v-64
		C472,290.8,461.2,280,448,280z M456,368c0,4.4-3.6,8-8,8h-64c-4.4,0-8-3.6-8-8v-64c0-4.4,3.6-8,8-8h64c4.4,0,8,3.6,8,8V368z"/>
</g>
</svg>
