<?xml version="1.0" encoding="utf-8"?>
<!-- Generator: Adobe Illustrator 26.0.0, SVG Export Plug-In . SVG Version: 6.00 Build 0)  -->
<svg version="1.1" id="Layer_1" xmlns="http://www.w3.org/2000/svg" xmlns:xlink="http://www.w3.org/1999/xlink" x="0px" y="0px"
	 viewBox="0 0 1280 673" style="enable-background:new 0 0 1280 673;" xml:space="preserve">
<style type="text/css">
	.st0{fill:#FBF8E8;}
	.st1{opacity:0.51;}
	.st2{fill:#D0A967;}
	.st3{fill:#363E44;}
	.st4{fill:#FFFFFF;}
	.st5{fill:#F7F1EB;}
	.st6{fill:#D3BBA3;}
	.st7{fill:#F2E6DC;}
	.st8{fill:#E6D0BE;}
	.st9{fill:#D87355;}
	.st10{fill:#EFBC73;}
	.st11{fill:#8B865C;}
	.st12{fill:#9E6C5A;}
	.st13{fill:#E2A18D;}
	.st14{fill:#373E44;}
	.st15{fill:#84524D;}
	.st16{fill:#E0AA63;}
	.st17{fill:#D4B269;}
</style>
<rect x="0.3" class="st0" width="1279.3" height="673"/>
<g id="Illustration">
	<g id="Audit_service_1_">
		<g class="st1">
			<circle class="st2" cx="818.6" cy="336.5" r="289.9"/>
		</g>
		<g>
			<g>
				<g>
					<g>
						<path class="st3" d="M906.4,384.4c-0.4,0-0.7-0.3-0.7-0.7v-75.3c0-0.4,0.3-0.7,0.7-0.7c0.4,0,0.7,0.3,0.7,0.7v75.3
							C907.1,384.1,906.8,384.4,906.4,384.4z"/>
					</g>
					<g>
						<path class="st3" d="M836.7,561.3H538c-0.4,0-0.7-0.3-0.7-0.7V120.8c0-0.4,0.3-0.7,0.7-0.7h83c0.4,0,0.7,0.3,0.7,0.7
							c0,0.4-0.3,0.7-0.7,0.7h-82.3v438.4h298c0.4,0,0.7,0.3,0.7,0.7C837.4,561,837.1,561.3,836.7,561.3z"/>
					</g>
					<g>
						<path class="st3" d="M906.4,175.3c-0.4,0-0.7-0.3-0.7-0.7v-53.1h-87.7c-0.4,0-0.7-0.3-0.7-0.7c0-0.4,0.3-0.7,0.7-0.7h88.4
							c0.4,0,0.7,0.3,0.7,0.7v53.8C907.1,175,906.8,175.3,906.4,175.3z"/>
					</g>
				</g>
				<g>
					<g>
						<rect x="575.5" y="134.3" class="st4" width="293.4" height="394.8"/>
					</g>
					<g>
						<path class="st5" d="M758.6,97.6L758.6,97.6c0-23.8-19.3-43.2-43.2-43.2c-23.9,0-43.2,19.3-43.2,43.2l0,0h-47.4v56.9h181.1
							V97.6H758.6z M683.6,97.6c0-17.6,14.2-31.8,31.8-31.8c17.6,0,31.8,14.2,31.8,31.8l0,0H683.6L683.6,97.6z"/>
					</g>
					<g>
						<path class="st6" d="M812.7,148.4H631.7c-0.4,0-0.7-0.3-0.7-0.7V90.8c0-0.4,0.3-0.7,0.7-0.7h46.7
							c0.4-23.9,19.9-43.2,43.9-43.2c24,0,43.5,19.3,43.9,43.2h46.7c0.4,0,0.7,0.3,0.7,0.7v56.9
							C813.4,148.1,813.1,148.4,812.7,148.4z M632.4,147H812V91.5h-46.7c-0.4,0-0.7-0.3-0.7-0.7c0-23.4-19.1-42.5-42.5-42.5
							c-23.4,0-42.5,19.1-42.5,42.5c0,0.4-0.3,0.7-0.7,0.7h-46.7V147z M766.1,90.8L766.1,90.8L766.1,90.8z M754,91.5h-63.6
							c-0.4,0-0.7-0.3-0.7-0.7c0-17.9,14.6-32.5,32.5-32.5c17.9,0,32.5,14.6,32.5,32.5C754.7,91.2,754.4,91.5,754,91.5z M691.1,90.1
							h62.2c-0.4-16.8-14.2-30.4-31.1-30.4C705.3,59.7,691.5,73.3,691.1,90.1z"/>
					</g>
				</g>
			</g>
			<g>
				<g>
					<g>
						<rect x="616.4" y="357.7" class="st7" width="205.3" height="145.8"/>
					</g>
					<g>
						<rect x="616.4" y="357.7" class="st8" width="205.3" height="12.9"/>
					</g>
					<g>
						<path class="st8" d="M821.7,504.2H616.4c-0.4,0-0.7-0.3-0.7-0.7V357.7c0-0.4,0.3-0.7,0.7-0.7h205.3c0.4,0,0.7,0.3,0.7,0.7
							v145.8C822.4,503.9,822.1,504.2,821.7,504.2z M617.1,502.8H821V358.3H617.1V502.8z"/>
					</g>
					<g>
						
							<ellipse transform="matrix(0.9239 -0.3827 0.3827 0.9239 -91.8007 266.9228)" class="st4" cx="625" cy="364.2" rx="2.9" ry="2.9"/>
					</g>
					<g>
						
							<ellipse transform="matrix(0.7071 -0.7071 0.7071 0.7071 -71.683 555.3575)" class="st4" cx="634.5" cy="364.2" rx="2.9" ry="2.9"/>
					</g>
					<g>
						
							<ellipse transform="matrix(0.2298 -0.9732 0.9732 0.2298 141.5419 907.3345)" class="st4" cx="644" cy="364.2" rx="2.9" ry="2.9"/>
					</g>
					<g>
						<g>
							<path class="st8" d="M812.3,475.8H627.2c-0.4,0-0.7-0.3-0.7-0.7c0-0.4,0.3-0.7,0.7-0.7h185.1c0.4,0,0.7,0.3,0.7,0.7
								S812.7,475.8,812.3,475.8z"/>
						</g>
						<g>
							<path class="st8" d="M812.3,456H627.2c-0.4,0-0.7-0.3-0.7-0.7c0-0.4,0.3-0.7,0.7-0.7h185.1c0.4,0,0.7,0.3,0.7,0.7
								S812.7,456,812.3,456z"/>
						</g>
						<g>
							<path class="st8" d="M812.3,436.3H627.2c-0.4,0-0.7-0.3-0.7-0.7s0.3-0.7,0.7-0.7h185.1c0.4,0,0.7,0.3,0.7,0.7
								S812.7,436.3,812.3,436.3z"/>
						</g>
						<g>
							<path class="st8" d="M812.3,416.6H627.2c-0.4,0-0.7-0.3-0.7-0.7c0-0.4,0.3-0.7,0.7-0.7h185.1c0.4,0,0.7,0.3,0.7,0.7
								S812.7,416.6,812.3,416.6z"/>
						</g>
						<g>
							<path class="st8" d="M812.3,396.9H627.2c-0.4,0-0.7-0.3-0.7-0.7c0-0.4,0.3-0.7,0.7-0.7h185.1c0.4,0,0.7,0.3,0.7,0.7
								S812.7,396.9,812.3,396.9z"/>
						</g>
						<g>
							<path class="st8" d="M781.5,495.5c-0.4,0-0.7-0.3-0.7-0.7V376.5c0-0.4,0.3-0.7,0.7-0.7c0.4,0,0.7,0.3,0.7,0.7v118.3
								C782.2,495.2,781.9,495.5,781.5,495.5z"/>
						</g>
						<g>
							<path class="st8" d="M750.6,495.5c-0.4,0-0.7-0.3-0.7-0.7V376.5c0-0.4,0.3-0.7,0.7-0.7c0.4,0,0.7,0.3,0.7,0.7v118.3
								C751.3,495.2,751,495.5,750.6,495.5z"/>
						</g>
						<g>
							<path class="st8" d="M719.8,495.5c-0.4,0-0.7-0.3-0.7-0.7V376.5c0-0.4,0.3-0.7,0.7-0.7c0.4,0,0.7,0.3,0.7,0.7v118.3
								C720.5,495.2,720.2,495.5,719.8,495.5z"/>
						</g>
						<g>
							<path class="st8" d="M688.9,495.5c-0.4,0-0.7-0.3-0.7-0.7V376.5c0-0.4,0.3-0.7,0.7-0.7s0.7,0.3,0.7,0.7v118.3
								C689.6,495.2,689.3,495.5,688.9,495.5z"/>
						</g>
						<g>
							<path class="st8" d="M658.1,495.5c-0.4,0-0.7-0.3-0.7-0.7V376.5c0-0.4,0.3-0.7,0.7-0.7c0.4,0,0.7,0.3,0.7,0.7v118.3
								C658.8,495.2,658.5,495.5,658.1,495.5z"/>
						</g>
					</g>
				</g>
				<g>
					<polygon class="st9" points="808.8,338.6 758.2,343.7 769.4,356 713,403.7 692.8,378.8 622.9,450.2 686.1,406.9 706.1,433 
						788,376.3 799,388.4 					"/>
				</g>
			</g>
			<g>
				<g>
					<path class="st10" d="M688.5,337.1h-71.1c-0.4,0-0.7-0.3-0.7-0.7v-46.7c0-0.4,0.3-0.7,0.7-0.7s0.7,0.3,0.7,0.7v46h70.4
						c0.4,0,0.7,0.3,0.7,0.7S688.9,337.1,688.5,337.1z"/>
				</g>
				<g>
					<g>
						<path class="st10" d="M663.1,305.6c-0.2,0-0.5-0.1-0.6-0.3c-0.2-0.3-0.1-0.8,0.2-1l8.4-5c0.3-0.2,0.8-0.1,1,0.2s0.1,0.8-0.2,1
							l-8.4,5C663.3,305.6,663.2,305.6,663.1,305.6z"/>
					</g>
					<g>
						<path class="st10" d="M657.7,304.2c-0.2,0-0.4-0.1-0.6-0.3l-11.4-17.4c-0.2-0.3-0.1-0.8,0.2-1c0.3-0.2,0.8-0.1,1,0.2
							l11.4,17.4c0.2,0.3,0.1,0.8-0.2,1C658,304.2,657.8,304.2,657.7,304.2z"/>
					</g>
					<g>
						<path class="st10" d="M632.4,292.9c-0.2,0-0.4-0.1-0.6-0.3c-0.2-0.3-0.2-0.7,0.1-1l8.9-6.9c0.3-0.2,0.7-0.2,1,0.1
							c0.2,0.3,0.2,0.7-0.1,1l-8.9,6.9C632.7,292.9,632.5,292.9,632.4,292.9z"/>
					</g>
					<g>
						
							<ellipse transform="matrix(0.2298 -0.9732 0.9732 0.2298 198.1727 839.5245)" class="st10" cx="629.5" cy="294.6" rx="3.7" ry="3.7"/>
					</g>
					<g>
						<circle class="st10" cx="644.3" cy="283.1" r="3.7"/>
					</g>
					<g>
						<path class="st10" d="M663.5,306.6c0,2-1.6,3.7-3.7,3.7c-2,0-3.7-1.6-3.7-3.7c0-2,1.6-3.7,3.7-3.7
							C661.9,303,663.5,304.6,663.5,306.6z"/>
					</g>
					<g>
						<path class="st10" d="M678.4,298.1c0,2-1.6,3.7-3.7,3.7c-2,0-3.7-1.6-3.7-3.7c0-2,1.6-3.7,3.7-3.7
							C676.8,294.4,678.4,296.1,678.4,298.1z"/>
					</g>
				</g>
				<g>
					<g>
						<rect x="625.2" y="304" class="st11" width="9.1" height="25"/>
					</g>
					<g>
						<rect x="640.2" y="299" class="st11" width="9.1" height="30"/>
					</g>
					<g>
						<rect x="655.3" y="312.9" class="st11" width="9.1" height="16.2"/>
					</g>
					<g>
						<rect x="670.3" y="308.2" class="st11" width="9.1" height="20.8"/>
					</g>
				</g>
			</g>
			<g>
				<g>
					<path class="st9" d="M661.1,233.3h-20.8c-0.4,0-0.7-0.3-0.7-0.7c0-0.4,0.3-0.7,0.7-0.7h20.4l14.2-10.4h63.8l14.9-12.9h66
						l24.3-21c0.3-0.3,0.7-0.2,1,0.1c0.3,0.3,0.2,0.7-0.1,1L820.1,210h-66l-14.9,12.9h-63.9L661.1,233.3z"/>
				</g>
				<g>
					<g>
						<path class="st10" d="M676.2,254.4h-58.4c-0.4,0-0.7-0.3-0.7-0.7s0.3-0.7,0.7-0.7h57.9l33.9-29.3h13.3l11.5-9.9h51.3
							l16.8,14.6h23.3c0.4,0,0.7,0.3,0.7,0.7c0,0.4-0.3,0.7-0.7,0.7H802l-16.8-14.6h-50.3l-11.5,9.9h-13.3L676.2,254.4z"/>
					</g>
					<g>
						<ellipse class="st10" cx="802.8" cy="229" rx="2.8" ry="2.4"/>
					</g>
					<g>
						<ellipse class="st10" cx="785.2" cy="214.2" rx="2.8" ry="2.4"/>
					</g>
					<g>
						<ellipse class="st10" cx="734.4" cy="214.2" rx="2.8" ry="2.4"/>
					</g>
					<g>
						<ellipse class="st10" cx="723.8" cy="224.2" rx="2.8" ry="2.4"/>
					</g>
					<g>
						<ellipse class="st10" cx="710.2" cy="224.4" rx="2.8" ry="2.4"/>
					</g>
					<g>
						<ellipse class="st10" cx="676.2" cy="253.3" rx="2.8" ry="2.4"/>
					</g>
				</g>
				<g>
					<g>
						<polygon class="st6" points="678.1,214.9 677.2,213.9 706.8,188.3 794.8,188.3 807.8,177 808.8,178 795.3,189.7 707.3,189.7 
													"/>
					</g>
					<g>
						<polygon class="st6" points="652.2,237.3 617.4,237.3 617.4,235.9 651.7,235.9 677.2,213.9 678.1,214.9 						"/>
					</g>
					<g>
						<ellipse class="st6" cx="651.4" cy="236.5" rx="2.8" ry="2.4"/>
					</g>
					<g>
						<ellipse class="st6" cx="795.2" cy="189.1" rx="2.8" ry="2.4"/>
					</g>
				</g>
			</g>
			<g>
				<g>
					<rect x="722.7" y="271.8" class="st6" width="51" height="43.6"/>
				</g>
				<g>
					<g>
						<rect x="716.6" y="265.8" class="st4" width="51" height="43.6"/>
					</g>
					<g>
						<path class="st11" d="M768.2,310.1h-52.4v-45h52.4V310.1z M717.3,308.7h49.6v-42.3h-49.6V308.7z"/>
					</g>
				</g>
				<g>
					<g>
						<path class="st11" d="M825,272.4h-45.6c-0.4,0-0.7-0.3-0.7-0.7c0-0.4,0.3-0.7,0.7-0.7H825c0.4,0,0.7,0.3,0.7,0.7
							C825.7,272.1,825.4,272.4,825,272.4z"/>
					</g>
					<g>
						<path class="st11" d="M815.3,281.8h-35.9c-0.4,0-0.7-0.3-0.7-0.7c0-0.4,0.3-0.7,0.7-0.7h35.9c0.4,0,0.7,0.3,0.7,0.7
							S815.7,281.8,815.3,281.8z"/>
					</g>
					<g>
						<path class="st11" d="M821.3,290.3h-42c-0.4,0-0.7-0.3-0.7-0.7s0.3-0.7,0.7-0.7h42c0.4,0,0.7,0.3,0.7,0.7
							S821.7,290.3,821.3,290.3z"/>
					</g>
					<g>
						<path class="st11" d="M808.2,299.2h-28.9c-0.4,0-0.7-0.3-0.7-0.7c0-0.4,0.3-0.7,0.7-0.7h28.9c0.4,0,0.7,0.3,0.7,0.7
							S808.6,299.2,808.2,299.2z"/>
					</g>
				</g>
				<g>
					<g>
						<path class="st10" d="M736,278.9c0.8-0.4,1.6-0.7,2.5-0.8l-0.3-4.5c-1.4,0.2-2.8,0.7-4.2,1.3c-3.3,1.6-5.6,4.4-6.9,7.6
							l4.4,1.3C732.4,281.7,733.9,280,736,278.9z"/>
					</g>
					<g>
						<path class="st10" d="M731.3,290.8c-0.6-1.6-0.7-3.2-0.4-4.8l-4.4-1.3c-0.5,2.6-0.3,5.5,0.7,8.1L731.3,290.8z"/>
					</g>
					<g>
						<path class="st9" d="M753.6,282.3l-4.1,2c1.6,4.5-0.4,9.7-4.8,11.9c-4.4,2.2-9.7,0.7-12.4-3.3l-4.1,2
							c3.8,6.2,11.8,8.6,18.5,5.3C753.4,297,756.3,289.1,753.6,282.3z"/>
					</g>
					<g>
						<path class="st11" d="M740.9,277.9c3,0.2,5.8,1.7,7.5,4.3l4.1-2c-2.6-4.3-7.2-6.7-11.9-6.8L740.9,277.9z"/>
					</g>
				</g>
			</g>
		</g>
		<g>
			<g>
				
					<rect x="868.3" y="87.8" transform="matrix(9.880072e-02 -0.9951 0.9951 9.880072e-02 702.468 1019.9697)" class="st4" width="92.1" height="68.8"/>
			</g>
			<g>
				
					<rect x="847.6" y="88" transform="matrix(0.4714 -0.8819 0.8819 0.4714 364.4322 852.8159)" class="st10" width="92.1" height="68.8"/>
			</g>
			<g>
				<path class="st4" d="M891.2,87.8c-0.8,0-1.5-0.2-2.2-0.6l0,0c-1.1-0.6-1.9-1.6-2.3-2.8c-0.4-1.2-0.2-2.5,0.4-3.6l6.5-12.2
					c0.6-1.1,1.6-1.9,2.8-2.3s2.5-0.2,3.6,0.4c1.1,0.6,1.9,1.6,2.3,2.8c0.4,1.2,0.2,2.5-0.4,3.6l-6.5,12.2
					C894.6,86.8,892.9,87.8,891.2,87.8z M897.8,67.5c-0.3,0-0.7,0-1,0.1c-0.9,0.3-1.6,0.8-2,1.6l-6.5,12.2c-0.4,0.8-0.5,1.7-0.3,2.5
					c0.3,0.9,0.8,1.6,1.6,2l0,0c1.6,0.9,3.6,0.3,4.5-1.4l6.5-12.2c0.4-0.8,0.5-1.7,0.3-2.5c-0.3-0.9-0.8-1.6-1.6-2
					C898.8,67.6,898.3,67.5,897.8,67.5z"/>
			</g>
			<g>
				<path class="st4" d="M935.2,101.8c-0.1,0-0.2,0-0.3-0.1l-24.4-13c-0.3-0.2-0.5-0.6-0.3-0.9c0.2-0.3,0.6-0.5,0.9-0.3l24.4,13
					c0.3,0.2,0.5,0.6,0.3,0.9C935.7,101.7,935.5,101.8,935.2,101.8z"/>
			</g>
			<g>
				<path class="st4" d="M932.1,107.7c-0.1,0-0.2,0-0.3-0.1l-24.4-13c-0.3-0.2-0.5-0.6-0.3-0.9c0.2-0.3,0.6-0.5,0.9-0.3l24.4,13
					c0.3,0.2,0.5,0.6,0.3,0.9C932.6,107.5,932.4,107.7,932.1,107.7z"/>
			</g>
			<g>
				<path class="st4" d="M929,113.5c-0.1,0-0.2,0-0.3-0.1l-24.4-13c-0.3-0.2-0.5-0.6-0.3-0.9c0.2-0.3,0.6-0.5,0.9-0.3l24.4,13
					c0.3,0.2,0.5,0.6,0.3,0.9C929.5,113.4,929.2,113.5,929,113.5z"/>
			</g>
			<g>
				<path class="st4" d="M919.6,131.1c-0.1,0-0.2,0-0.3-0.1l-47.8-25.6c-0.3-0.2-0.5-0.6-0.3-0.9c0.2-0.3,0.6-0.5,0.9-0.3l47.8,25.6
					c0.3,0.2,0.5,0.6,0.3,0.9C920.1,130.9,919.9,131.1,919.6,131.1z"/>
			</g>
			<g>
				<path class="st4" d="M916.5,136.9c-0.1,0-0.2,0-0.3-0.1l-47.8-25.6c-0.3-0.2-0.5-0.6-0.3-0.9c0.2-0.3,0.6-0.5,0.9-0.3l47.8,25.6
					c0.3,0.2,0.5,0.6,0.3,0.9C917,136.8,916.7,136.9,916.5,136.9z"/>
			</g>
		</g>
		<g>
			<g>
				<g>
					<g>
						<polygon class="st12" points="988.1,590.6 1029.3,590.6 1037.9,481.4 986.7,481.4 						"/>
					</g>
					<g>
						<g>
							<path class="st8" d="M959,604.8h71.8v-32.9h-39C973.7,571.9,959,586.6,959,604.8L959,604.8z"/>
						</g>
						<g>
							<path class="st3" d="M992.4,579.2c-0.2,0-0.4-0.1-0.5-0.2l-6.3-6.3c-0.3-0.3-0.3-0.7,0-1c0.3-0.3,0.7-0.3,1,0l6.3,6.3
								c0.3,0.3,0.3,0.7,0,1C992.8,579.1,992.6,579.2,992.4,579.2z"/>
						</g>
						<g>
							<path class="st3" d="M985.2,581.3c-0.2,0-0.4-0.1-0.5-0.2l-6.3-6.3c-0.3-0.3-0.3-0.7,0-1s0.7-0.3,1,0l6.3,6.3
								c0.3,0.3,0.3,0.7,0,1C985.5,581.3,985.4,581.3,985.2,581.3z"/>
						</g>
					</g>
				</g>
				<g>
					<g>
						<polygon class="st12" points="885.2,576.9 925.1,584 948.8,490.7 898.2,482 						"/>
					</g>
					<g>
						<g>
							<path class="st4" d="M856.4,604.8h71.8v-32.9h-39C871.1,571.9,856.4,586.6,856.4,604.8L856.4,604.8z"/>
						</g>
						<g>
							<path class="st3" d="M889.8,579.2c-0.2,0-0.4-0.1-0.5-0.2l-6.3-6.3c-0.3-0.3-0.3-0.7,0-1s0.7-0.3,1,0l6.3,6.3
								c0.3,0.3,0.3,0.7,0,1C890.1,579.1,889.9,579.2,889.8,579.2z"/>
						</g>
						<g>
							<path class="st3" d="M882.5,581.3c-0.2,0-0.4-0.1-0.5-0.2l-6.3-6.3c-0.3-0.3-0.3-0.7,0-1s0.7-0.3,1,0l6.3,6.3
								c0.3,0.3,0.3,0.7,0,1C882.9,581.3,882.7,581.3,882.5,581.3z"/>
						</g>
					</g>
				</g>
				<g>
					<path class="st3" d="M1035.3,302.7c10.6,28.3,16,60.4,17.9,92c3.7,60-8.2,121.4-15.5,163.7c-17.6,0-35.2,0-52.8,0
						c-1.6-43.9-4.7-87.8-6.4-131.7c-13.9,43.7-26.3,87.3-40.1,131c-18.8,0-37.6,0-56.3,0c2.5-40.8,9.4-92.1,26.8-149.3
						c12.8-42.3,28.5-78.3,43.7-107.7C983.7,301.2,1007.1,302.5,1035.3,302.7z"/>
				</g>
			</g>
			<g>
				<g>
					<g>
						<path class="st12" d="M935.2,228.4c-34.8,14.4-51.8,26.7-45.2,39.4c3.8,7.4,28.5,6.1,56.5-3.8
							C943.7,252.4,938.9,242.3,935.2,228.4z"/>
					</g>
					<g>
						<path class="st12" d="M1049.2,227.4c12.9,13.8,52.6,51.6,37.4,67c-12.6,12.7-49.7-25.7-63.4-38.7
							C1031.9,246.3,1040.6,236.8,1049.2,227.4z"/>
					</g>
					<g>
						<path class="st4" d="M1059.7,224.8c0,0-34.7-16.5-66.5-13.6c-31.8,2.8-62.9,15.3-62.9,15.3l15.2,38.6l-4.5,48.7l112.5-10.9
							l-8.5-35.4L1059.7,224.8z"/>
					</g>
				</g>
				<g>
					<g>
						<path class="st12" d="M924.6,258.7C924.6,258.7,924.6,258.7,924.6,258.7c-12.5-31.7-20.7-54.5-23.5-61.4
							c-0.3-0.7-0.8-2-1.9-3.4c-4.1-5.3-9.6-4-16.4-7.6c-7.7-4.1-9.7-10.7-11.8-9.9c-1.4,0.6-1.4,3.3,0.8,8.4l0,0
							c-2.1-3.7-5.1-8.5-7.1-7.4c-2.3,1.5,0.6,7.6,2.5,11.2c-2.3-4.4-4.9-6-5.8-5.1c-1.5,1.5-0.5,5.3,2.8,10.9l0,0
							c-3.4-3.3-4.7-3.6-5.3-2.5c-1.2,1.9,1.6,6.5,4.7,10.2c3.5,4.2,7.6,6.2,10.3,7.4c0,0,0,0,0,0c6.4,23.1,10.5,38,15.3,56.8
							c1,3.8,5,6,8.8,4.7C908,267.3,913.7,265.1,924.6,258.7z"/>
					</g>
					<g>
						<path class="st3" d="M920.1,247.8c-0.3,0-0.5-0.2-0.7-0.4c-1.4-3.5-2.7-6.9-3.9-10.1c-0.1-0.4,0-0.8,0.4-0.9
							c0.4-0.1,0.8,0,0.9,0.4c1.2,3.2,2.5,6.6,3.9,10.1c0.1,0.4,0,0.8-0.4,0.9C920.3,247.8,920.2,247.8,920.1,247.8z"/>
					</g>
					<g>
						<path class="st13" d="M888.3,191c-2.6-8.2-1.8-11.7-0.5-12.1c2.2-0.6,7.3,5.5,12.7,17C896.9,194.8,891.8,192,888.3,191z"/>
					</g>
					<g>
						<path class="st3" d="M887.1,206c-0.3,0-0.6-0.2-0.7-0.5c-0.4-1.4-1.4-3.3-3.4-4.9c-2.8-2.3-6-2.3-7.2-2.3
							c-0.4,0-0.7-0.3-0.7-0.7c0-0.4,0.3-0.7,0.7-0.7c1.4-0.1,5,0,8.2,2.6c2.3,1.8,3.3,4.1,3.8,5.6c0.1,0.4-0.1,0.8-0.5,0.9
							C887.3,206,887.2,206,887.1,206z"/>
					</g>
					<g>
						<path class="st3" d="M895.7,191.9c-0.1,0-0.2,0-0.3-0.1c-1.6-0.9-3.4-1.3-5.3-1.9c-0.9-0.3-1.9-0.5-2.9-0.8
							c-0.4-0.1-0.6-0.5-0.5-0.9c0.1-0.4,0.5-0.6,0.9-0.5c1,0.3,1.9,0.6,2.8,0.8c2,0.5,3.9,1,5.6,2c0.3,0.2,0.5,0.6,0.3,0.9
							C896.2,191.7,896,191.9,895.7,191.9z"/>
					</g>
					<g>
						<path class="st3" d="M877.6,190.7c-0.1,0-0.2,0-0.4-0.1c-0.9-0.6-1.8-1.2-2.7-1.9c-1.2-1-2.3-2.2-3.1-3.5
							c-0.2-0.3-0.1-0.8,0.2-1c0.3-0.2,0.8-0.1,1,0.2c0.8,1.2,1.8,2.3,2.9,3.3c0.8,0.7,1.6,1.2,2.5,1.8c0.3,0.2,0.4,0.6,0.3,1
							C878.1,190.5,877.8,190.7,877.6,190.7z"/>
					</g>
					<g>
						<path class="st3" d="M872.8,193.9c-0.1,0-0.2,0-0.4-0.1c-0.9-0.5-1.8-1.2-2.7-1.9c-1.2-1-2.3-2.2-3.1-3.5
							c-0.2-0.3-0.1-0.8,0.2-1c0.3-0.2,0.8-0.1,1,0.2c0.8,1.2,1.8,2.3,2.9,3.3c0.8,0.7,1.6,1.2,2.5,1.8c0.3,0.2,0.4,0.6,0.3,1
							C873.2,193.8,873,193.9,872.8,193.9z"/>
					</g>
					<g>
						<path class="st3" d="M869.8,200.4c-0.1,0-0.2,0-0.4-0.1c-0.9-0.6-1.8-1.2-2.7-1.9c-1.2-1-2.3-2.2-3.1-3.5
							c-0.2-0.3-0.1-0.8,0.2-1c0.3-0.2,0.8-0.1,1,0.2c0.8,1.2,1.8,2.3,2.9,3.3c0.8,0.7,1.6,1.2,2.5,1.8c0.3,0.2,0.4,0.6,0.3,1
							C870.3,200.2,870.1,200.4,869.8,200.4z"/>
					</g>
				</g>
			</g>
			<g>
				<g>
					<path class="st12" d="M1002.8,156.9c-0.8-0.4-8.6-4.4-15.6-0.9c-5.3,2.6-7.9,7.7-10.9,16.8c-3.6,10.8-4.2,17.7-2.1,21
						c3.4,5.2,20.7,3.8,29.8-3.2c6.6-5,9.6-13.7,8.2-21.9C1010.8,160.5,1003.3,157.1,1002.8,156.9z"/>
				</g>
				<g>
					<path class="st12" d="M992.4,227.4h0.7c5.3,0,9.7-4.3,9.7-9.7v-29.8c0-5.3-4.3-9.7-9.7-9.7h-0.7c-5.3,0-9.7,4.3-9.7,9.7v29.8
						C982.8,223,987.1,227.4,992.4,227.4z"/>
				</g>
				<g>
					<path class="st3" d="M983.7,197.7c-0.3,0-0.5,0-0.7,0c-0.4,0-0.7-0.3-0.7-0.7c0-0.4,0.3-0.7,0.7-0.7c6,0.2,14.7-1.7,20.6-6.2
						c0.3-0.2,0.7-0.2,1,0.1s0.2,0.7-0.1,1C998.5,195.7,989.9,197.7,983.7,197.7z"/>
				</g>
				<g>
					<g>
						
							<ellipse transform="matrix(0.4647 -0.8855 0.8855 0.4647 408.0129 994.5856)" class="st3" cx="1026.6" cy="159.8" rx="15.8" ry="15.8"/>
					</g>
					<g>
						<path class="st3" d="M1031.8,177.9c-2.1,0-4.3-0.3-6.5-0.9c-9.6-2.6-16-10.1-14.2-16.8l0,0c1.8-6.7,11.1-10.1,20.7-7.5
							c4.6,1.2,8.6,3.6,11.3,6.8c2.7,3.2,3.8,6.8,2.9,10.1c-0.9,3.3-3.6,5.9-7.5,7.3C1036.4,177.6,1034.2,177.9,1031.8,177.9z
							 M1012.5,160.6c-1.6,6,4.3,12.8,13.2,15.1c4.3,1.2,8.7,1.1,12.3-0.2c3.5-1.2,5.9-3.5,6.6-6.3c0.8-2.8-0.2-6-2.6-8.8
							c-2.5-2.9-6.3-5.2-10.6-6.3C1022.6,151.7,1014.1,154.6,1012.5,160.6L1012.5,160.6z"/>
					</g>
					<g>
						<path class="st3" d="M1030.8,181.9c-4.9,0-10.5-2.8-14.8-7.9c-6.4-7.6-7.3-17.4-2-21.9l0,0c2.6-2.2,6.3-2.8,10.4-1.7
							c4,1.1,7.9,3.7,10.9,7.4c6.4,7.6,7.3,17.4,2,21.9C1035.5,181.2,1033.2,181.9,1030.8,181.9z M1014.9,153.2
							c-4.7,4-3.7,12.9,2.2,20c5.9,7,14.6,9.5,19.3,5.5c4.7-4,3.7-12.9-2.2-20c-2.9-3.4-6.5-5.9-10.2-6.9
							C1020.3,150.8,1017.1,151.3,1014.9,153.2L1014.9,153.2z"/>
					</g>
					<g>
						<path class="st3" d="M983.2,158.9c6.7-9.6,24.1-7.7,31.4,0.8c7.8,9.1,5.2,22.9,0,29.7c-3.1,4-9.5,9.2-12.7,6.6
							c-3.9-3.1,2-10-1.9-20.5C997,167.3,985.8,165.4,983.2,158.9z"/>
					</g>
				</g>
				<g>
					<g>
						<path class="st12" d="M996.4,177.5c-2.9,2.7-3.5,6.8-1.2,9.3c2.2,2.5,6.4,2.3,9.3-0.3c2.9-2.7,3.5-6.8,1.2-9.3
							C1003.5,174.7,999.3,174.9,996.4,177.5z"/>
					</g>
					<g>
						<path class="st3" d="M1001.9,185.4c-0.2,0-0.5-0.1-0.6-0.3c-0.2-0.3-0.1-0.8,0.2-1c0.2-0.1,0.3-0.2,0.5-0.4
							c1.2-1.1,1.5-2.8,0.6-3.7c-0.2-0.2-0.5-0.4-0.8-0.5c-0.4-0.1-0.5-0.5-0.4-0.9c0.1-0.4,0.5-0.5,0.9-0.4
							c0.5,0.2,0.9,0.5,1.3,0.9c1.4,1.5,1.1,4.1-0.7,5.7c-0.2,0.2-0.4,0.4-0.7,0.5C1002.2,185.4,1002,185.4,1001.9,185.4z"/>
					</g>
				</g>
				<g>
					<g>
						<path class="st4" d="M995.6,176.1c0,0-2.5-2-5.9-2.7c-0.7-0.1-0.4,5.8,0.3,5.7C993.3,178.2,995.6,176.1,995.6,176.1z"/>
					</g>
					<g>
						<path class="st14" d="M987.5,173.2c0.8,0,1.5,0.1,2.2,0.2c1.1,1.8,1.2,3.9,0.3,5.6c-0.7,0.2-1.5,0.3-2.4,0.4
							c-4.4,0.1-8.1-2.9-8.1-2.9S983,173.3,987.5,173.2z"/>
					</g>
				</g>
				<g>
					<path class="st3" d="M980.3,187.3c-0.9,0-1.7-0.4-2.3-1.1c-0.2-0.3-0.2-0.7,0.1-1c0.3-0.2,0.7-0.2,1,0.1
						c0.4,0.5,1.2,0.7,1.8,0.5c0.7-0.3,0.9-1.2,0.9-1.2c0.1-0.4,0.4-0.7,0.8-0.6c0.4,0.1,0.6,0.4,0.6,0.8c-0.1,0.6-0.5,1.8-1.7,2.3
						C981,187.2,980.7,187.3,980.3,187.3z"/>
				</g>
				<g>
					<path class="st3" d="M975.2,181.1c-0.2,0-0.4-0.1-0.5-0.2c-1-1.1-1.3-2.1-1-2.9c0.2-0.5,0.6-0.8,1-1c0.3-0.1,0.5-0.3,0.8-0.6
						c0.4-0.4,0.7-0.9,0.9-1.5c0.1-0.4,0.5-0.6,0.9-0.4c0.4,0.1,0.6,0.5,0.4,0.9c-0.3,0.8-0.7,1.5-1.3,2.1c-0.4,0.4-0.8,0.6-1.1,0.8
						c-0.3,0.2-0.4,0.2-0.4,0.3c-0.1,0.2,0.1,0.7,0.8,1.5c0.3,0.3,0.2,0.7-0.1,1C975.5,181.1,975.3,181.1,975.2,181.1z"/>
				</g>
			</g>
			<g>
				<g>
					<g>
						<g>
							<path class="st3" d="M992.4,294.9c-0.2,0-0.5-0.1-0.6-0.3l-5.9-9.7c-0.2-0.3-0.1-0.8,0.2-1c0.3-0.2,0.8-0.1,1,0.2l5.9,9.7
								c0.2,0.3,0.1,0.8-0.2,1C992.7,294.9,992.5,294.9,992.4,294.9z"/>
						</g>
						<g>
							<path class="st3" d="M995.8,292.9c-0.2,0-0.5-0.1-0.6-0.3l-5.9-9.7c-0.2-0.3-0.1-0.8,0.2-1c0.3-0.2,0.8-0.1,1,0.2l5.9,9.7
								c0.2,0.3,0.1,0.8-0.2,1C996,292.8,995.9,292.9,995.8,292.9z"/>
						</g>
						<g>
							<path class="st3" d="M1005.9,317.9c-0.5,0-1-0.1-1.4-0.2c-1.7-0.4-3.1-1.4-4-2.8l-17.8-28.3c-0.9-1.5-0.5-3.4,1-4.3l5.4-3.4
								c0.7-0.4,1.6-0.6,2.4-0.4c0.8,0.2,1.5,0.7,2,1.4l17.8,28.3c0.9,1.4,1.2,3.1,0.8,4.8c-0.4,1.7-1.4,3.1-2.8,4
								C1008.2,317.6,1007.1,317.9,1005.9,317.9z M990.8,279.7c-0.3,0-0.6,0.1-0.9,0.3l-5.4,3.4c-0.8,0.5-1.1,1.6-0.6,2.4l17.8,28.3
								c0.7,1.1,1.8,1.9,3.1,2.2c1.3,0.3,2.6,0.1,3.8-0.6c2.3-1.5,3-4.5,1.6-6.9l-17.8-28.3c-0.3-0.4-0.6-0.7-1.1-0.8
								C991.1,279.7,990.9,279.7,990.8,279.7z"/>
						</g>
						<g>
							<path class="st3" d="M984.1,283.6c-0.2,0-0.5-0.1-0.6-0.3L963.2,251c-0.1-0.2-0.1-0.3-0.1-0.5s0.2-0.3,0.3-0.4l5.5-3.4
								c0.3-0.2,0.8-0.1,1,0.2l20.2,32.3c0.1,0.2,0.1,0.3,0.1,0.5c0,0.2-0.2,0.3-0.3,0.4l-5.5,3.4
								C984.3,283.5,984.2,283.6,984.1,283.6z M964.8,250.8l19.5,31.1l4.3-2.7l-19.5-31.1L964.8,250.8z"/>
						</g>
					</g>
					<g>
						<g>
							<ellipse class="st9" cx="957.8" cy="234.5" rx="36.4" ry="36.4"/>
						</g>
						<g>
							<path class="st4" d="M957.8,271.7c-5,0-10.1-1-14.9-3.1c-9.1-4-16.1-11.2-19.7-20.5c-7.5-19.1,2-40.7,21-48.1
								c9.2-3.6,19.3-3.4,28.4,0.5c9.1,4,16.1,11.2,19.7,20.5c3.8,9.6,3.4,20.1-1,29.4l0,0c-4.1,8.6-11.2,15.3-20,18.7
								C967,270.8,962.4,271.7,957.8,271.7z M957.8,198.7c-4.4,0-8.8,0.8-13.1,2.5c-18.4,7.2-27.4,28-20.2,46.3
								c3.5,8.9,10.2,15.9,19,19.7c8.8,3.8,18.5,4,27.4,0.5c8.5-3.3,15.4-9.8,19.3-18l0,0c4.2-9,4.6-19,0.9-28.3
								c-3.5-8.9-10.2-15.9-19-19.7C967.6,199.7,962.7,198.7,957.8,198.7z M990.8,250L990.8,250L990.8,250z"/>
						</g>
						<g>
							<path class="st4" d="M957.8,262.6c-0.8,0-1.6,0-2.4-0.1c-0.4,0-0.7-0.4-0.6-0.8c0-0.4,0.4-0.7,0.8-0.6
								c4.1,0.3,8.1-0.2,12-1.8c5.7-2.2,10.3-6.2,13.4-11.5c0.2-0.3,0.6-0.4,1-0.3c0.3,0.2,0.4,0.6,0.3,1
								c-3.2,5.6-8.1,9.7-14.1,12.1C964.7,262,961.3,262.6,957.8,262.6z"/>
						</g>
						<g>
							<path class="st4" d="M930.5,238.1c-0.4,0-0.7-0.3-0.7-0.6c-0.6-5.2,0.3-10.4,2.6-15.1c0.2-0.3,0.6-0.5,0.9-0.3
								c0.3,0.2,0.5,0.6,0.3,0.9c-2.1,4.5-3,9.5-2.5,14.4C931.3,237.7,931,238.1,930.5,238.1C930.6,238.1,930.6,238.1,930.5,238.1z"
								/>
						</g>
						<g>
							<path class="st4" d="M935.7,219c-0.1,0-0.3,0-0.4-0.1c-0.3-0.2-0.4-0.7-0.2-1c3.1-4.3,7.4-7.6,12.4-9.6
								c3.9-1.5,7.9-2.1,12-1.9c0.4,0,0.7,0.4,0.7,0.7c0,0.4-0.3,0.7-0.7,0.7c-3.9-0.2-7.7,0.4-11.4,1.8c-4.7,1.9-8.8,5-11.8,9.1
								C936.1,218.9,935.9,219,935.7,219z"/>
						</g>
						<g>
							<path class="st4" d="M983,245.8c-0.1,0-0.2,0-0.3-0.1c-0.4-0.1-0.5-0.6-0.4-0.9c1.5-3.5,2.2-7.4,2.1-11.2
								c0-0.4,0.3-0.7,0.7-0.7c0.4,0,0.7,0.3,0.7,0.7c0.1,4-0.6,8.1-2.2,11.8C983.6,245.7,983.3,245.8,983,245.8z"/>
						</g>
					</g>
				</g>
				<g>
					<g>
						<path class="st12" d="M1072.5,266.3c-14.6,3.2-49.5,9-52.9,9.7c-6.3,1.3-40,9.2-39.4,14.2c0.3,2.4,6.9,1.2,9.1,0.7
							c-1.6,1.3-5,3.6-3.9,6.1c1.2,2.9,6.6,1,6.8,1c-1.7,1.1-4.4,3.4-3.7,5.3c0.9,2.5,4.2,2.4,6.5,1.8c-0.1,0.4-2.8,3-2.2,4.5
							c0.7,1.7,3.6,2,6.6,1.6c5.6-1.2,27.7-4.5,38.4-5.6c25.3-2.6,33.2-5.5,45.2-8.9C1087.7,295.3,1079.7,270,1072.5,266.3z"/>
					</g>
					<g>
						<path class="st3" d="M1045.9,271.7c-0.3,0-0.6-0.2-0.7-0.6c-0.1-0.4,0.2-0.7,0.6-0.8c7.1-1.3,21.8-4,26.6-5
							c0.4-0.1,0.7,0.2,0.8,0.5c0.1,0.4-0.2,0.7-0.5,0.8c-4.9,1-19.6,3.7-26.6,5C1046,271.7,1045.9,271.7,1045.9,271.7z"/>
					</g>
					<g>
						<path class="st3" d="M989.2,291.3c-0.2,0-0.5-0.1-0.6-0.3c-0.2-0.3-0.1-0.8,0.2-1c1.2-0.7,2.4-1.4,3.7-1.9
							c2.3-1,4.7-1.7,7.1-2.1c0.4-0.1,0.7,0.2,0.8,0.6c0.1,0.4-0.2,0.7-0.6,0.8c-2.3,0.4-4.6,1.1-6.8,2c-1.2,0.5-2.4,1.2-3.5,1.8
							C989.4,291.3,989.3,291.3,989.2,291.3z"/>
					</g>
					<g>
						<path class="st3" d="M992,298.5c-0.3,0-0.5-0.1-0.6-0.4c-0.2-0.3,0-0.8,0.3-0.9c0.3-0.1,0.5-0.2,0.8-0.4
							c2.3-1,4.7-1.7,7.1-2.1c0.4-0.1,0.7,0.2,0.8,0.6c0.1,0.4-0.2,0.7-0.6,0.8c-2.4,0.4-4.6,1.1-6.8,2c-0.3,0.1-0.5,0.2-0.8,0.4
							C992.2,298.5,992.1,298.5,992,298.5z"/>
					</g>
					<g>
						<path class="st3" d="M995.1,305.7c-0.3,0-0.6-0.2-0.7-0.5c-0.1-0.4,0.1-0.8,0.4-0.9c1.5-0.5,3.1-0.9,4.7-1.2
							c0.4-0.1,0.7,0.2,0.8,0.6c0.1,0.4-0.2,0.7-0.6,0.8c-1.5,0.3-3.1,0.6-4.5,1.2C995.2,305.7,995.2,305.7,995.1,305.7z"/>
					</g>
				</g>
			</g>
		</g>
		<g>
			<g>
				<polygon class="st15" points="871.1,512.4 763,439.5 775.8,409.3 883.9,482.3 				"/>
			</g>
			<g>
				<polygon class="st10" points="864.7,499.2 773.9,437.9 781,421.2 871.8,482.5 				"/>
			</g>
			<g>
				
					<rect x="734.5" y="454.5" transform="matrix(0.5594 -0.8289 0.8289 0.5594 -83.8496 881.7334)" class="st15" width="106" height="130.5"/>
			</g>
			<g>
				
					<rect x="798.9" y="570.2" transform="matrix(0.5594 -0.8289 0.8289 0.5594 -123.9007 923.9078)" class="st10" width="16.5" height="16.5"/>
			</g>
			<g>
				
					<rect x="813" y="549.3" transform="matrix(0.5594 -0.8289 0.8289 0.5594 -100.2518 926.4039)" class="st10" width="16.5" height="16.5"/>
			</g>
			<g>
				
					<rect x="827.2" y="528.3" transform="matrix(0.5594 -0.8289 0.8289 0.5594 -76.6026 928.9003)" class="st4" width="16.5" height="16.5"/>
			</g>
			<g>
				
					<rect x="841.4" y="507.3" transform="matrix(0.5594 -0.8289 0.8289 0.5594 -52.9565 931.3925)" class="st4" width="16.5" height="16.5"/>
			</g>
			<g>
				
					<rect x="778.4" y="556.5" transform="matrix(0.5594 -0.8289 0.8289 0.5594 -121.4712 900.8848)" class="st4" width="16.5" height="16.5"/>
			</g>
			<g>
				
					<rect x="792.6" y="535.5" transform="matrix(0.5594 -0.8289 0.8289 0.5594 -97.823 903.3792)" class="st4" width="16.5" height="16.5"/>
			</g>
			<g>
				
					<rect x="806.8" y="514.5" transform="matrix(0.5594 -0.8289 0.8289 0.5594 -74.1735 905.8726)" class="st4" width="16.5" height="16.5"/>
			</g>
			<g>
				
					<rect x="820.9" y="493.5" transform="matrix(0.5594 -0.8289 0.8289 0.5594 -50.5278 908.3678)" class="st4" width="16.5" height="16.5"/>
			</g>
			<g>
				
					<rect x="758" y="542.7" transform="matrix(0.5594 -0.8289 0.8289 0.5594 -119.0425 877.86)" class="st4" width="16.5" height="16.5"/>
			</g>
			<g>
				
					<rect x="772.1" y="521.7" transform="matrix(0.5594 -0.8289 0.8289 0.5594 -95.3939 880.3516)" class="st4" width="16.5" height="16.5"/>
			</g>
			<g>
				
					<rect x="786.3" y="500.7" transform="matrix(0.5594 -0.8289 0.8289 0.5594 -71.7453 882.847)" class="st4" width="16.5" height="16.5"/>
			</g>
			<g>
				
					<rect x="800.5" y="479.7" transform="matrix(0.5594 -0.8289 0.8289 0.5594 -48.0994 885.3425)" class="st4" width="16.5" height="16.5"/>
			</g>
			<g>
				
					<rect x="737.5" y="528.9" transform="matrix(0.5594 -0.8289 0.8289 0.5594 -116.6138 854.8353)" class="st4" width="16.5" height="16.5"/>
			</g>
			<g>
				
					<rect x="751.7" y="507.9" transform="matrix(0.5594 -0.8289 0.8289 0.5594 -92.9648 857.3278)" class="st4" width="16.5" height="16.5"/>
			</g>
			<g>
				
					<rect x="765.9" y="486.9" transform="matrix(0.5594 -0.8289 0.8289 0.5594 -69.3168 859.8217)" class="st4" width="16.5" height="16.5"/>
			</g>
			<g>
				
					<rect x="780" y="465.9" transform="matrix(0.5594 -0.8289 0.8289 0.5594 -45.6708 862.3175)" class="st10" width="16.5" height="16.5"/>
			</g>
			<g>
				
					<rect x="711.8" y="505" transform="matrix(0.5594 -0.8289 0.8289 0.5594 -102.8748 833.0023)" class="st4" width="40.7" height="16.5"/>
			</g>
			<g>
				
					<rect x="745.4" y="473.1" transform="matrix(0.5594 -0.8289 0.8289 0.5594 -66.8903 836.7982)" class="st4" width="16.5" height="16.5"/>
			</g>
			<g>
				
					<rect x="759.6" y="452.1" transform="matrix(0.5594 -0.8289 0.8289 0.5594 -43.2418 839.2898)" class="st10" width="16.5" height="16.5"/>
			</g>
		</g>
		<g>
			<g>
				<g>
					<ellipse class="st16" cx="680.3" cy="609.4" rx="41.7" ry="13.2"/>
				</g>
				<g>
					<rect x="638.6" y="596.3" class="st16" width="83.4" height="13.6"/>
				</g>
				<g>
					<ellipse class="st10" cx="680.3" cy="596.5" rx="41.7" ry="13.2"/>
				</g>
				<g>
					<path class="st4" d="M685.2,610.5c-23.8,0-42.4-6.1-42.4-13.9c0-7.8,18.6-13.9,42.4-13.9c23.8,0,42.4,6.1,42.4,13.9
						C727.6,604.3,709,610.5,685.2,610.5z M685.2,584c-22.2,0-41,5.7-41,12.5c0,6.8,18.8,12.5,41,12.5c22.2,0,41-5.7,41-12.5
						C726.2,589.8,707.5,584,685.2,584z"/>
				</g>
			</g>
			<g>
				<g>
					<ellipse class="st16" cx="688.9" cy="588" rx="41.7" ry="13.2"/>
				</g>
				<g>
					<rect x="647.2" y="574.8" class="st16" width="83.4" height="13.6"/>
				</g>
				<g>
					<ellipse class="st10" cx="688.9" cy="575.1" rx="41.7" ry="13.2"/>
				</g>
				<g>
					<path class="st4" d="M693.8,589c-23.8,0-42.4-6.1-42.4-13.9s18.6-13.9,42.4-13.9s42.4,6.1,42.4,13.9S717.6,589,693.8,589z
						 M693.8,562.6c-22.2,0-41,5.7-41,12.5s18.8,12.5,41,12.5c22.2,0,41-5.7,41-12.5S716.1,562.6,693.8,562.6z"/>
				</g>
			</g>
			<g>
				<g>
					
						<ellipse transform="matrix(0.7104 -0.7038 0.7038 0.7104 -194.7422 626.0005)" class="st16" cx="663.3" cy="549.6" rx="13.2" ry="41.7"/>
				</g>
				<g>
					
						<rect x="661" y="503.5" transform="matrix(0.7104 -0.7038 0.7038 0.7104 -190.3154 627.9043)" class="st16" width="13.6" height="83.4"/>
				</g>
				<g>
					
						<ellipse transform="matrix(0.7104 -0.7038 0.7038 0.7104 -185.7043 629.819)" class="st10" cx="672.5" cy="540.6" rx="13.2" ry="41.7"/>
				</g>
				<g>
					<path class="st4" d="M701.1,575.8c-7.8,0-21.7-8.4-35.1-21.9c-16.7-16.9-25.5-34.4-20-39.9c5.5-5.5,23,3.4,39.7,20.3
						c7.9,8,14.3,16.4,18.1,23.8c3.9,7.6,4.6,13.3,1.8,16.1C704.6,575.3,703.1,575.8,701.1,575.8z M650.7,513.7
						c-1.6,0-2.8,0.4-3.7,1.3c-4.8,4.8,4.3,22.1,20,37.9c15.6,15.8,32.9,25.1,37.7,20.3c2.2-2.2,1.5-7.5-2.1-14.4
						c-3.7-7.3-10.1-15.6-17.9-23.5C671.9,522.3,658,513.7,650.7,513.7z"/>
				</g>
			</g>
			<g>
				<g>
					<ellipse class="st16" cx="572.8" cy="590.1" rx="41.7" ry="13.2"/>
				</g>
				<g>
					<rect x="531.1" y="577" class="st16" width="83.4" height="13.6"/>
				</g>
				<g>
					<ellipse class="st10" cx="572.8" cy="577.3" rx="41.7" ry="13.2"/>
				</g>
				<g>
					<path class="st4" d="M577.8,591.2c-23.8,0-42.4-6.1-42.4-13.9c0-7.8,18.6-13.9,42.4-13.9c23.8,0,42.4,6.1,42.4,13.9
						C620.1,585,601.5,591.2,577.8,591.2z M577.8,564.7c-22.2,0-41,5.7-41,12.5s18.8,12.5,41,12.5c22.2,0,41-5.7,41-12.5
						C618.7,570.5,600,564.7,577.8,564.7z"/>
				</g>
			</g>
		</g>
	</g>
</g>
<g>
	<g>
		<g>
			<path class="st17" d="M158.8,508.4v51h-13.6v-51H158.8z"/>
			<path class="st17" d="M168.2,559.3v-51h16.1l8.1,15.6c2.8,5.1,5.7,11.9,8,17.9h0.2c-0.8-6.7-1-13.8-1-21.5v-12H212v51h-14.4
				l-8.6-16.9c-2.8-5.4-6.1-12.2-8.6-18.4h-0.3c0.3,6.9,0.5,14.5,0.5,22.8v12.5L168.2,559.3L168.2,559.3z"/>
			<path class="st17" d="M231.3,519.8h-13v-11.5h39.9v11.4H245v39.5h-13.6L231.3,519.8L231.3,519.8z"/>
			<path class="st17" d="M296.5,538.8h-18.3v9.4h20.5v11.1h-34.1v-50.9h33v11.1h-19.4v8.2h18.3V538.8z"/>
			<path class="st17" d="M306.3,509.1c3.9-0.6,9.6-1.1,16.5-1.1c7.8,0,13.4,1.1,17.2,4c3.3,2.5,5,6.1,5,11.1
				c0,6.3-4.8,10.9-8.7,12.3v0.3c3.4,1.5,5.2,4.7,6.5,9.1c1.5,5.2,3.2,12.6,4.2,14.5h-14c-0.8-1.5-2.1-5.5-3.6-11.7
				c-1.4-6.1-3.2-7.4-7.5-7.4h-2.2v19.1h-13.5V509.1z M319.8,530.4h3.5c5.1,0,8.1-2.5,8.1-6.3s-2.5-6-7-6c-2.6,0-3.9,0.1-4.6,0.3
				V530.4z"/>
			<path class="st17" d="M352.9,559.3v-51H369l8.1,15.6c2.8,5.1,5.7,11.9,8,17.9h0.2c-0.8-6.7-1-13.8-1-21.5v-12h12.5v51h-14.4
				l-8.6-16.9c-2.8-5.4-6.1-12.2-8.6-18.4h-0.3c0.3,6.9,0.5,14.5,0.5,22.8v12.5L352.9,559.3L352.9,559.3z"/>
			<path class="st17" d="M419.5,547.5l-2.9,11.8h-14.1l14.8-51h18.2l15.2,51h-14.7l-3.2-11.8H419.5z M430.8,537.5l-2.4-9.2
				c-0.8-2.9-1.7-7-2.5-10h-0.1c-0.8,3-1.5,7.2-2.2,10.1l-2.2,9.1L430.8,537.5L430.8,537.5z"/>
			<path class="st17" d="M457.2,508.4h13.6v39.5h19.6v11.4h-33.3V508.4z"/>
		</g>
	</g>
	<g>
		<g>
			<path class="st17" d="M157.6,610.4l-2.7,9.1h-13.4l14.8-46.8h17.8l15.4,46.8h-14.3l-2.8-9.1H157.6z M169.9,600.2
				c-2.2-7.4-4-13.9-5.1-18.5h-0.2c-1.1,5-2.9,11.7-4.8,18.5H169.9z"/>
			<path class="st17" d="M207.8,572.7v28.8c0,6.7,3.3,9,7.5,9c4.5,0,7.1-2.7,7.1-9v-28.8h13.8v27.4c0,15.6-9.2,20.3-21.1,20.3
				c-12.4,0-21-5-21-20.2v-27.5H207.8z"/>
			<path class="st17" d="M245.2,572.7h20.1c14.9,0,23.5,9.4,23.5,22.9c0,13.5-8.4,23.9-23.8,23.9h-19.9V572.7z M259,609.5h5.3
				c7.4,0,10.5-5.2,10.5-14c0-7.8-2.8-13-10.3-13H259V609.5z"/>
			<path class="st17" d="M310.3,572.7v46.8h-13.8v-46.8H310.3z"/>
			<path class="st17" d="M329.3,582.8h-13.4v-10.2h40.4v10.2H343v36.7h-13.7V582.8z"/>
		</g>
	</g>
</g>
</svg>
