<?xml version="1.0" encoding="UTF-8"?>
<svg xmlns="http://www.w3.org/2000/svg" viewBox="0 0 1071.93 564.17">
  <defs>
    <style>
      .cls-1, .cls-2 {
        fill: #e2caa8;
      }

      .cls-3 {
        fill: #936d3b;
      }

      .cls-4, .cls-5 {
        fill: #fff;
      }

      .cls-6 {
        fill: #5e4c40;
      }

      .cls-6, .cls-7, .cls-8, .cls-9, .cls-5, .cls-10, .cls-11, .cls-12, .cls-13, .cls-14, .cls-15, .cls-16, .cls-17, .cls-18, .cls-19, .cls-20, .cls-21, .cls-22, .cls-23, .cls-24, .cls-25, .cls-26, .cls-27, .cls-28, .cls-29, .cls-30, .cls-31, .cls-32, .cls-33, .cls-34, .cls-2, .cls-35, .cls-36, .cls-37, .cls-38, .cls-39 {
        fill-rule: evenodd;
      }

      .cls-7 {
        fill: #727272;
      }

      .cls-8 {
        fill: #89372c;
      }

      .cls-40, .cls-9 {
        fill: #afafb2;
      }

      .cls-41 {
        fill: #6e4d28;
      }

      .cls-10 {
        fill: #ad8e61;
      }

      .cls-42 {
        fill: #a4a4a7;
      }

      .cls-11 {
        fill: #6f7478;
      }

      .cls-43, .cls-37 {
        fill: #e9eae4;
      }

      .cls-12 {
        fill: #575b5e;
      }

      .cls-13 {
        fill: #3a3633;
      }

      .cls-44, .cls-20 {
        fill: #6b6b6b;
      }

      .cls-14, .cls-45 {
        fill: #c5d0d9;
      }

      .cls-15 {
        fill: #263e4f;
      }

      .cls-16 {
        fill: #e5bdbd;
      }

      .cls-17 {
        fill: #3f3f3f;
      }

      .cls-46 {
        fill: #fbf7e7;
      }

      .cls-18 {
        fill: #a7bed1;
      }

      .cls-19, .cls-47 {
        fill: #aa8550;
      }

      .cls-21 {
        fill: #e2d3c7;
      }

      .cls-22 {
        fill: #cf7761;
      }

      .cls-23 {
        fill: #aa4430;
      }

      .cls-24 {
        fill: #e3e3e5;
      }

      .cls-25 {
        fill: #e8e7e5;
      }

      .cls-26 {
        fill: #e0cfba;
      }

      .cls-27 {
        fill: #545454;
      }

      .cls-28 {
        fill: #c19657;
      }

      .cls-48 {
        fill: #878787;
      }

      .cls-29, .cls-49 {
        fill: #d1a886;
      }

      .cls-30 {
        fill: #3f73a1;
      }

      .cls-31 {
        fill: #f2caa9;
      }

      .cls-32 {
        fill: #c6a269;
      }

      .cls-33 {
        fill: #27557d;
      }

      .cls-34 {
        fill: #969da3;
      }

      .cls-35 {
        fill: #f2e8da;
      }

      .cls-36 {
        fill: #ffd7b7;
      }

      .cls-38 {
        fill: #c4c4c6;
      }

      .cls-39 {
        fill: #ccc;
      }
    </style>
  </defs>
  <g id="Layer_12" data-name="Layer 12">
    <rect class="cls-46" x="-4.34" y="-6.11" width="1080.62" height="576.39"/>
  </g>
  <g id="Layer_9" data-name="Layer 9">
    <path class="cls-35" d="m754.19,194.88h7.46v120h-7.46v-27.73h4.05v-13.43h-4.05v-5.84h4.05v-13.43h-4.05v-25.11h4.05v-13.43h-4.05v-21.03Zm-17.9,0h17.9v21.03h-4.05v13.43h4.05v25.11h-4.05v13.43h4.05v5.84h-4.05v13.43h4.05v27.73h-17.9v-8.46h4.05v-13.43h-4.05v-5.84h4.05v-13.43h-4.05v-5.84h4.05v-13.43h-4.05v-5.84h4.05v-13.43h-4.05v-5.84h4.05v-13.43h-4.05v-21.03Zm-17.9-33.27h0c1.53,0,2.78,1.3,2.78,2.91,0,1.25-.76,2.32-1.82,2.73v6.35c6.18.51,11.05,5.93,11.05,12.54v8.74h5.89v21.03h-4.05v13.43h4.05v5.84h-4.05v13.43h4.05v5.84h-4.05v13.43h4.05v5.84h-4.05v13.43h4.05v5.84h-4.05v13.43h4.05v8.46h-17.9v-47h4.05v-13.43h-4.05v-59.57h5.31v-8.78c0-3.07-2.38-5.56-5.31-5.56h0v-18.94Zm-17.9,33.27h5.89v-8.74c0-6.61,4.87-12.03,11.05-12.54v-6.35c-1.06-.41-1.82-1.48-1.82-2.73,0-1.6,1.24-2.91,2.78-2.91v18.94c-2.93,0-5.31,2.49-5.31,5.56v8.78h5.31v59.57h-4.05v13.43h4.05v47h-17.9v-8.46h4.05v-13.43h-4.05v-25.11h4.05v-13.43h-4.05v-5.84h4.05v-13.43h-4.05v-40.3Zm-17.9,0h17.9v40.3h-4.05v13.43h4.05v5.84h-4.05v13.43h4.05v25.11h-4.05v13.43h4.05v8.46h-17.9v-8.46h4.05v-13.43h-4.05v-5.84h4.05v-13.43h-4.05v-25.11h4.05v-13.43h-4.05v-5.84h4.05v-13.43h-4.05v-21.03Zm-21.87-9.56l6.68,4.3v17.33h7.08v-12.07h8.11v21.03h-4.05v13.43h4.05v5.84h-4.05v13.43h4.05v25.11h-4.05v13.43h4.05v5.84h-4.05v13.43h4.05v8.46h-21.87v-8.74c.59.03,1.19.05,1.78.08v-13.76c-.59-.07-1.19-.14-1.78-.21v-6.04l1.78.25v-13.76c-.59-.12-1.19-.25-1.78-.37v-6.04c.59.14,1.19.29,1.78.43v-13.78c-.59-.19-1.19-.37-1.78-.55v-6.05l1.78.6v-13.75c-.59-.25-1.19-.49-1.78-.73v-25.98c.59.32,1.19.64,1.78.96v-13.76l-1.78-1.09v-7.28Zm-7.87-5.06l7.87,5.06v7.28l-1.78-1.09v14.01c.59.32,1.19.64,1.78.96v25.98c-.59-.24-1.19-.49-1.78-.73v14.01l1.78.6v6.05c-.59-.18-1.19-.36-1.78-.55v14.01c.59.15,1.19.29,1.78.43v6.04c-.59-.12-1.19-.25-1.78-.38v14.01l1.78.26v6.04c-.59-.07-1.19-.13-1.78-.19v14.01c.59.02,1.19.05,1.78.08v8.74h-7.87v-9.08c.59.03,1.19.05,1.78.08v-14.32c-.59-.06-1.19-.13-1.78-.19v-26.98c.59.14,1.19.28,1.78.43v-14.32c-.59-.19-1.19-.37-1.78-.55v-6.29c.59.2,1.19.41,1.78.61v-14.3c-.59-.25-1.19-.49-1.78-.73v-6.28l1.78.79v-14.32l-1.78-.9v-28.28Zm-7.87-5.06l7.87,5.06v28.28l-1.78-.9v14.55l1.78.79v6.28c-.59-.24-1.19-.49-1.78-.73v14.55c.59.2,1.19.4,1.78.6v6.29c-.59-.18-1.19-.37-1.78-.56v14.56c.59.15,1.19.29,1.78.43v26.98c-.59-.07-1.19-.14-1.78-.21v14.56c.59.02,1.19.05,1.78.08v9.08h-7.87v-30.91l1.78.25v-14.86l-1.78-.37v-28.02c.59.2,1.19.41,1.78.61v-14.84c-.59-.25-1.19-.49-1.78-.73v-6.52c.59.26,1.19.52,1.78.78v-14.86l-1.78-.9v-29.33Zm-7.87-5.06l7.87,5.06v29.33l-1.78-.9v15.1c.59.26,1.19.52,1.78.78v6.52c-.59-.24-1.19-.48-1.78-.72v15.07c.59.2,1.19.4,1.78.6v28.02l-1.78-.37v15.09l1.78.25v30.91h-7.87v-32.03l1.78.25v-15.4l-1.78-.37v-29.03c.59.2,1.19.41,1.78.61v-15.38c-.59-.24-1.19-.48-1.78-.72v-6.77c.59.26,1.19.52,1.78.77v-15.4c-.59-.29-1.19-.59-1.78-.89v-6.75c.59.32,1.19.64,1.78.96v-15.4c-.59-.35-1.19-.71-1.78-1.07v-8.14Zm-7.87-5.06l7.87,5.06v8.14c-.59-.36-1.19-.72-1.78-1.07v15.63c.59.32,1.19.64,1.78.96v6.75c-.59-.3-1.19-.6-1.78-.89v15.63c.59.26,1.19.52,1.78.78v6.77c-.59-.24-1.19-.49-1.78-.72v15.61c.59.2,1.19.41,1.78.61v29.03l-1.78-.37v15.63l1.78.25v32.03h-7.87v-10.1c.59.02,1.19.05,1.78.07v-15.94c-.59-.07-1.19-.14-1.78-.2v-6.97l1.78.25v-15.95l-1.78-.37v-6.98c.59.14,1.19.29,1.78.43v-15.94l-1.78-.56v-30.04c.59.26,1.19.52,1.78.79v-15.95l-1.78-.9v-31.46Zm-38.08-24.46l8.98,5.78v42.14l22.42-27.76,6.68,4.3v31.46l-1.78-.9v16.18c.59.26,1.19.52,1.78.78v30.04l-1.78-.56v16.18c.59.15,1.19.29,1.78.43v6.98l-1.78-.37v16.18l1.78.25v6.97c-.59-.07-1.19-.13-1.78-.2v16.18c.59.03,1.19.06,1.78.08v10.1h-38.08v-11.75c.8.04,1.6.07,2.4.1v-18.51c-.8-.09-1.6-.19-2.4-.28v-8.13l2.4.34v-18.51c-.8-.17-1.6-.33-2.4-.5v-8.12c.8.19,1.6.38,2.4.58v-18.53c-.8-.25-1.6-.49-2.4-.74v-8.14l2.4.81v-18.49c-.8-.33-1.6-.66-2.4-.99v-34.95c.8.43,1.6.86,2.4,1.3v-18.51l-2.4-1.46v-9.79Zm-10.58-6.81l10.58,6.81v9.79l-2.4-1.46v18.84c.8.44,1.6.87,2.4,1.3v34.95c-.8-.33-1.6-.65-2.4-.99v18.85l2.4.81v8.14c-.8-.24-1.6-.49-2.4-.74v18.84c.8.2,1.6.39,2.4.58v8.12c-.8-.17-1.6-.34-2.4-.51v18.84l2.4.34v8.13c-.8-.09-1.6-.18-2.4-.26v18.84c.8.03,1.6.07,2.4.1v11.75h-10.58v-40.06l2.4.34v-19.26c-.8-.17-1.6-.33-2.4-.5v-64.16l2.4,1.06v-19.26l-2.4-1.21v-38.04Zm-10.58-6.81l10.58,6.81v38.04l-2.4-1.21v19.57l2.4,1.06v64.16c-.8-.17-1.6-.34-2.4-.51v19.59l2.4.34v40.06h-10.58v-12.67c.8.03,1.6.07,2.4.11v-19.98c-.8-.09-1.6-.18-2.4-.27v-8.76l2.4.34v-19.98l-2.4-.5v-8.76c.8.19,1.6.38,2.4.57v-19.96l-2.4-.75v-37.68c.8.35,1.6.69,2.4,1.05v-19.98l-2.4-1.21v-39.46Zm-10.58-6.81l10.58,6.81v39.46l-2.4-1.21v20.32c.8.35,1.6.7,2.4,1.05v37.68l-2.4-.75v20.31c.8.19,1.6.38,2.4.57v8.76l-2.4-.5v20.29l2.4.34v8.76c-.8-.09-1.6-.18-2.4-.27v20.32c.8.03,1.6.06,2.4.1v12.67h-10.58v-73.03c.8.19,1.6.39,2.4.57v-20.71c-.8-.25-1.6-.5-2.4-.74v-9.09c.8.27,1.6.55,2.4.82v-20.69c-.8-.32-1.6-.65-2.4-.97v-39.06c.8.43,1.6.86,2.4,1.29v-20.71c-.8-.48-1.6-.96-2.4-1.44v-10.95Zm-10.58-6.81l10.58,6.81v10.95c-.8-.48-1.6-.96-2.4-1.44v21.02c.8.42,1.6.86,2.4,1.29v39.06c-.8-.33-1.6-.65-2.4-.97v21c.8.27,1.6.54,2.4.82v9.09c-.8-.25-1.6-.49-2.4-.73v21.02c.8.2,1.6.39,2.4.59v73.03h-10.58v-13.59c.8.03,1.6.06,2.4.1v-21.43c-.8-.09-1.6-.18-2.4-.27v-40.38c.8.19,1.6.38,2.4.58v-21.44l-2.4-.75v-40.41c.8.35,1.6.7,2.4,1.07v-21.46l-2.4-1.21v-42.32Zm-17.98,0l8.99-5.78,8.99,5.78v42.32l-2.4-1.21v21.77c.8.35,1.6.7,2.4,1.05v40.41l-2.4-.75v21.77c.8.2,1.6.39,2.4.58v40.38c-.8-.09-1.6-.18-2.4-.27v21.77c.8.04,1.6.08,2.4.11v13.59h-17.98v-13.59c.8-.03,1.6-.07,2.4-.11v-21.77c-.8.09-1.6.18-2.4.27v-40.38c.8-.19,1.6-.38,2.4-.58v-21.77l-2.4.75v-9.41c.8-.27,1.6-.55,2.4-.83v-21.75c-.8.33-1.6.66-2.4.98v-73.33Zm-10.58,6.81l10.58-6.81v73.33c-.8.33-1.6.65-2.4.98v21.42c.8-.27,1.6-.54,2.4-.81v9.41l-2.4.75v21.44c.8-.2,1.6-.39,2.4-.58v40.38c-.8.09-1.6.18-2.4.27v21.43c.8-.03,1.6-.06,2.4-.1v13.59h-10.58v-43.09l2.4-.34v-21.02l-2.4.5v-9.07c.8-.19,1.6-.39,2.4-.59v-21.02c-.8.24-1.6.48-2.4.73v-39.04c.8-.35,1.6-.7,2.4-1.06v-21.02c-.8.39-1.6.8-2.4,1.2v-40.89Zm-10.58,6.81l10.58-6.81v40.89c-.8.41-1.6.81-2.4,1.2v20.71c.8-.34,1.6-.69,2.4-1.04v39.04c-.8.25-1.6.5-2.4.74v20.71c.8-.19,1.6-.38,2.4-.57v9.07l-2.4.5v20.71l2.4-.34v43.09h-10.58v-12.67c.8-.03,1.6-.07,2.4-.1v-20.32c-.8.09-1.6.18-2.4.27v-95.47c.8-.35,1.6-.69,2.4-1.05v-20.32l-2.4,1.21v-8.75l2.4-1.28v-20.31c-.8.48-1.6.96-2.4,1.44v-10.56Zm-10.58,6.81l10.58-6.81v10.56c-.8.48-1.6.97-2.4,1.46v19.96l2.4-1.27v8.75l-2.4,1.21v19.98c.8-.35,1.6-.7,2.4-1.05v95.47c-.8.09-1.6.18-2.4.27v19.98c.8-.04,1.6-.08,2.4-.11v12.67h-10.58v-40.06l2.4-.34v-19.59c-.8.18-1.6.35-2.4.51v-36.31c.8-.27,1.6-.54,2.4-.81v-19.57c-.8.33-1.6.66-2.4.98v-65.9Zm-10.58,6.81l10.58-6.81v65.9c-.8.33-1.6.65-2.4.98v19.24c.8-.28,1.6-.55,2.4-.83v36.31c-.8.17-1.6.33-2.4.5v19.26l2.4-.34v40.06h-10.58v-11.75c.8-.04,1.6-.07,2.4-.1v-18.84c-.8.08-1.6.17-2.4.26v-8.13l2.4-.34v-18.84c-.8.18-1.6.35-2.4.51v-8.12c.8-.19,1.6-.38,2.4-.58v-18.84c-.8.25-1.6.49-2.4.74v-8.14l2.4-.81v-18.85c-.8.33-1.6.66-2.4.99v-8.14l2.4-1.06v-18.84l-2.4,1.21v-8.13c.8-.43,1.6-.86,2.4-1.3v-18.84l-2.4,1.46v-9.79Zm-38.08,24.46l6.68-4.3,22.42,10.97v-25.35l8.98-5.78v9.79l-2.4,1.46v18.51c.8-.44,1.6-.87,2.4-1.3v8.13l-2.4,1.21v18.53l2.4-1.06v8.14c-.8.33-1.6.65-2.4.99v18.49l2.4-.81v8.14c-.8.24-1.6.49-2.4.74v18.53c.8-.2,1.6-.39,2.4-.58v8.12c-.8.17-1.6.33-2.4.5v18.51l2.4-.34v8.13c-.8.09-1.6.18-2.4.28v18.51c.8-.03,1.6-.07,2.4-.1v11.75h-38.08v-10.1c.59-.03,1.19-.05,1.78-.08v-16.18c-.59.07-1.19.13-1.78.2v-6.97l1.78-.25v-16.18l-1.78.37v-6.98c.59-.14,1.19-.29,1.78-.43v-16.18l-1.78.56v-7c.59-.2,1.19-.41,1.78-.62v-16.17c-.59.25-1.19.49-1.78.73v-6.99c.59-.26,1.19-.52,1.78-.78v-16.18l-1.78.9v-6.98c.59-.32,1.19-.64,1.78-.96v-16.18c-.59.36-1.19.72-1.78,1.08v-8.42Zm-7.87,5.06l7.87-5.06v8.42c-.59.36-1.19.72-1.78,1.09v15.94c.59-.32,1.19-.64,1.78-.96v6.98l-1.78.9v15.95c.59-.27,1.19-.53,1.78-.79v6.99c-.59.24-1.19.49-1.78.73v15.92c.59-.2,1.19-.4,1.78-.6v7l-1.78.56v15.94c.59-.15,1.19-.29,1.78-.43v6.98l-1.78.37v15.95l1.78-.25v6.97c-.59.07-1.19.13-1.78.2v15.94c.59-.02,1.19-.05,1.78-.07v10.1h-7.87v-9.76c.59-.03,1.19-.05,1.78-.08v-15.63c-.59.06-1.19.13-1.78.19v-6.75l1.78-.25v-15.63l-1.78.37v-6.74c.59-.14,1.19-.29,1.78-.44v-15.63c-.59.18-1.19.36-1.78.54v-29.02c.59-.26,1.19-.52,1.78-.78v-15.63c-.59.29-1.19.59-1.78.89v-30.4Zm-7.87,5.06l7.87-5.06v30.4c-.59.3-1.19.6-1.78.89v15.4c.59-.25,1.19-.51,1.78-.77v29.02c-.59.18-1.19.37-1.78.55v15.39c.59-.14,1.19-.28,1.78-.42v6.74l-1.78.37v15.4l1.78-.25v6.75c-.59.07-1.19.13-1.78.19v15.4c.59-.02,1.19-.05,1.78-.07v9.76h-7.87v-52.39c.59-.14,1.19-.28,1.78-.42v-15.1l-1.78.55v-6.53c.59-.2,1.19-.4,1.78-.6v-15.07c-.59.24-1.19.48-1.78.72v-28l1.78-.95v-15.1c-.59.35-1.19.71-1.78,1.07v-7.85Zm-7.87,5.06l7.87-5.06v7.85c-.59.36-1.19.72-1.78,1.08v14.84l1.78-.95v28c-.59.24-1.19.48-1.78.73v14.84c.59-.21,1.19-.41,1.78-.61v6.53l-1.78.55v14.84c.59-.14,1.19-.28,1.78-.42v52.39h-7.87v-9.08c.59-.03,1.19-.05,1.78-.08v-14.56c-.59.07-1.19.14-1.78.21v-6.27l1.78-.25v-14.56c-.59.13-1.19.26-1.78.38v-6.27c.59-.14,1.19-.29,1.78-.43v-14.56c-.59.19-1.19.38-1.78.56v-69.7Zm-7.87,5.06l7.87-5.06v69.7c-.59.18-1.19.36-1.78.55v14.32c.59-.15,1.19-.29,1.78-.43v6.27c-.59.12-1.19.25-1.78.37v14.32l1.78-.25v6.27c-.59.07-1.19.13-1.78.19v14.32c.59-.02,1.19-.05,1.78-.08v9.08h-7.87v-28.67l1.78-.26v-14.01c-.59.13-1.19.26-1.78.38v-25.98l1.78-.6v-14.01c-.59.25-1.19.49-1.78.73v-6.05l1.78-.79v-14.01l-1.78.9v-6.04c.59-.32,1.19-.64,1.78-.96v-14.01l-1.78,1.09v-7.28Zm-16.57-54.08h9.89v58.38l6.68-4.3v7.28l-1.78,1.09v13.76c.59-.32,1.19-.64,1.78-.96v6.04l-1.78.9v13.78l1.78-.79v6.05c-.59.24-1.19.49-1.78.73v13.75l1.78-.6v25.98c-.59.12-1.19.25-1.78.37v13.76l1.78-.25v28.67h-16.57v-8.46h2.64v-13.43h-2.64v-5.84h2.64v-13.43h-2.64v-5.84h2.64v-13.43h-2.64v-25.11h2.64v-13.43h-2.64v-5.84h2.64v-13.43h-2.64v-5.84h2.64v-13.43h-2.64v-5.84h2.64v-13.43h-2.64v-5.84h2.64v-13.43h-2.64v-7.58Zm-23.3,0h23.3v7.58h-23.3v-7.58h0Zm23.3,183.64h-23.3v-8.46h23.3v8.46h0Zm0-162.63v5.84h-2.64v13.43h2.64v5.84h-14.29v13.43h14.29v5.84h-2.64v13.43h2.64v5.84h-23.3v-5.84h14.29v-13.43h-14.29v-5.84h2.64v-13.43h-2.64v-5.84h14.29v-13.43h-14.29v-5.84h23.3Zm0,77.08v25.11h-14.29v13.43h14.29v5.84h-2.64v13.43h2.64v5.84h-23.3v-5.84h2.64v-13.43h-2.64v-25.11h14.29v-13.43h-14.29v-5.84h23.3Zm-29.12-98.1h5.82v7.58h-2.64v13.43h2.64v5.84h-5.82v-26.86h0Zm5.82,183.64h-5.82v-8.46h5.82v8.46h0Zm0-143.36v5.84h-2.64v13.43h2.64v5.84h-5.82v-25.12h5.82Zm0,38.54v5.84h-2.64v13.43h2.64v5.84h-5.82v-25.11h5.82Zm0,38.54v25.11h-5.82v-25.11h5.82Zm0,38.54v5.84h-5.82v-5.84h5.82Zm-11.65-155.91h5.83v26.86h-5.83v-26.86h0Zm5.83,183.64h-5.83v-8.46h5.83v8.46h0Zm0-143.36h-5.83v-13.43h2.64v13.43h-2.64v25.12h5.83v-25.12h0Zm0,38.54v25.11h-5.83v-25.11h5.83Zm0,38.54v25.11h-5.83v-5.84h2.64v-13.43h-2.64v-5.84h5.83Zm0,38.54v5.84h-5.83v-5.84h5.83Zm-17.48-155.91h11.65v26.86h-2.64v13.43h2.64v25.12h-11.65v-25.12h2.64v-13.43h-2.64v-5.84h2.64v-13.43h-2.64v-7.58h0Zm11.65,183.64h-11.65v-8.46h2.64v-13.43h-2.64v-5.84h11.65v5.84h-2.64v13.43h2.64v8.46h0Zm0-156.79h-2.64v13.43h2.64v-13.43h0Zm0,51.97v25.11h-2.64v13.43h2.64v5.84h-2.64v13.43h2.64v5.84h-11.65v-25.11h2.64v-13.43h-2.64v-5.84h2.64v-13.43h-2.64v-5.84h11.65Zm-49.37,15.18h27.83v-94.01h9.89v7.58h-2.64v13.43h2.64v5.84h-2.64v13.43h2.64v25.12h-2.64v13.43h2.64v5.84h-2.64v13.43h2.64v5.84h-2.64v13.43h2.64v25.11h-2.64v13.43h2.64v5.84h-2.64v13.43h2.64v8.46h-37.72v-8.46h21.7v-6.45h-21.7v-6.51h21.7v-6.45h-21.7v-32.43h21.7v-6.45h-21.7v-22.89Z"/>
    <g>
      <rect class="cls-1" x="464.42" y="56.8" width="2.99" height="258.08"/>
      <rect class="cls-1" x="612.29" y="56.8" width="2.99" height="257.95"/>
      <rect class="cls-1" x="316.56" y="136.27" width="446.58" height="3.04"/>
      <rect class="cls-1" x="316.56" y="220.8" width="446.58" height="3.04"/>
      <rect class="cls-1" x="316.56" y="56.8" width="446.58" height="3.04"/>
      <rect class="cls-1" x="316.56" y="56.8" width="2.99" height="257.95"/>
      <rect class="cls-1" x="760.15" y="56.8" width="2.99" height="257.95"/>
      <rect class="cls-45" x="316.56" y="311.71" width="446.58" height="3.04"/>
    </g>
  </g>
  <g id="Layer_11" data-name="Layer 11">
    <polygon class="cls-29" points="592.21 300.43 610.23 303.85 606 279.01 589.07 279.61 592.21 300.43"/>
  </g>
  <g id="Layer_8" data-name="Layer 8">
    <path class="cls-31" d="m605.9,287.24c15.21-5.31,13.79-66.76-18.17-55.78-18.81,6.46-16.5,31.47-6.22,45.97,6.06,8.55,17.16,12.33,24.39,9.81Z"/>
  </g>
  <g id="Layer_7" data-name="Layer 7">
    <g>
      <path class="cls-32" d="m802.21,189.03c17.1-3.2,34.22-6.41,51.32-9.61,17.1-3.2,34.22-6.41,51.33-9.59v136.8c-17.11-1.46-34.23-2.92-51.33-4.38-17.1-1.46-34.22-2.89-51.32-4.35v-108.88Z"/>
      <path class="cls-1" d="m853.54,177c17.1-3.29,34.21-6.6,51.33-9.87.78-.17,1.57-.31,2.36-.45v142.83c-.79-.07-1.58-.14-2.36-.22-17.11-1.53-34.22-3.09-51.33-4.64v-4.8c16.32,1.3,32.65,2.61,48.98,3.92v-130.85c-16.33,2.96-32.65,5.95-48.98,8.92v-4.83Zm-51.33,9.87c17.1-3.3,34.22-6.59,51.32-9.87h0s0,4.83,0,4.83h0c-16.32,2.96-32.65,5.91-48.97,8.9v105.24c16.32,1.27,32.65,2.57,48.97,3.87h0v4.81h0c-17.1-1.54-34.22-3.08-51.32-4.61-.78-.07-1.57-.14-2.35-.21v-112.49c.78-.17,1.57-.31,2.35-.45Z"/>
      <path class="cls-2" d="m802.21,189.03c17.1-3.2,34.22-6.41,51.32-9.61,17.1-3.2,34.22-6.41,51.33-9.59v21.47c-17.11,2.44-34.23,4.95-51.33,7.41-17.1,2.46-34.22,4.93-51.32,7.41v-17.09Z"/>
      <g>
        <path class="cls-24" d="m814.36,375.11c4.22-11.45,8.49-23.12,12.67-35.07,4.26-12.2,8.46-24.67,12.69-37.42,1.64.14,3.29.29,4.94.45-4.31,13.1-8.58,25.93-12.92,38.47-4.26,12.31-8.58,24.32-12.9,36.08-1.1,3-5.62.91-4.49-2.51Z"/>
        <path class="cls-24" d="m892.73,396.72c-4.23-15.87-8.43-31.48-12.69-46.84-4.18-15.08-8.45-29.93-12.67-44.54-1.65-.14-3.3-.29-4.94-.43,4.29,14.7,8.64,29.68,12.89,44.9,4.33,15.48,8.62,31.22,12.92,47.22.99,3.68,5.58,3.85,4.49-.31Z"/>
      </g>
      <path class="cls-24" d="m829.92,339.6c7.87,1.39,15.75,2.79,23.62,4.18,7.87,1.4,15.75,2.77,23.63,4.16v5.07c-7.88-1.48-15.76-2.95-23.63-4.42-7.87-1.47-15.75-2.96-23.62-4.45v-4.54Z"/>
      <path class="cls-38" d="m902.52,288.22c-3.89,4.95-7.77,9.83-11.66,14.61,3.89.29,7.77.6,11.66.93v-15.54Z"/>
      <path class="cls-25" d="m902.52,288.22c-3.89,4.95-7.77,9.83-11.66,14.61,1.21-5.28.83-10.66-2.08-16.16,4.36,3.68,8.96,3.8,13.74,1.55Z"/>
      <path class="cls-43" d="m855.7,281.31c1.62-.06,3.21-.24,4.76-.54,1.04-.22,2.06-.48,3.06-.79.48-.14.96-.31,1.43-.48.95-.38,1.87-.79,2.76-1.24.45-.22.89-.45,1.32-.72,1.95-1.12,3.78-2.51,5.44-4.09.36-.36.73-.69,1.07-1.08.35-.36.7-.74,1.03-1.15.5-.57.99-1.17,1.45-1.79.73-1,1.41-2.06,2.03-3.16.16-.29.33-.55.48-.86.26-.48.49-.93.72-1.43.12-.21.23-.48.34-.74.21-.5.42-1,.62-1.48.19-.5.38-1.03.55-1.55.35-1.05.66-2.1.91-3.18.13-.55.25-1.1.34-1.65.11-.55.19-1.1.28-1.65.08-.6.14-1.17.19-1.75.11-1.12.16-2.29.16-3.47s-.05-2.32-.16-3.47c-.05-.57-.12-1.15-.19-1.7-.09-.53-.17-1.12-.28-1.65-.1-.55-.21-1.1-.34-1.63-.26-1.08-.56-2.13-.91-3.16-.09-.24-.17-.48-.27-.74-.28-.74-.58-1.51-.91-2.2-.11-.24-.21-.48-.33-.69-.23-.5-.47-.96-.72-1.43-.75-1.34-1.59-2.61-2.51-3.8-.46-.62-.95-1.2-1.45-1.75-.33-.36-.68-.72-1.03-1.08s-.71-.67-1.07-1c-.72-.62-1.46-1.24-2.23-1.79-1.02-.72-2.09-1.36-3.21-1.94-.43-.24-.87-.43-1.32-.62-.2-.12-.41-.19-.61-.29-.25-.1-.49-.21-.75-.26-.1-.07-.2-.12-.31-.14-.35-.14-.72-.26-1.08-.38h-.01c-.39-.12-.78-.21-1.17-.33-.09,0-.16,0-.25-.07-.92-.21-1.86-.41-2.82-.55-.3-.05-.59-.07-.9-.12-.21-.02-.43-.05-.66-.07-1.12-.08-2.27-.11-3.44-.08v1.71c1.26-.03,2.5.02,3.72.16-.08.24-.34.14-.56.29-.2.12-.28.31-.5.38-.61.19-1.11-.02-1.63.02-.03.24.26.36.4.43.47.21.86.12,1.54.02.34-.02.74.05,1.04-.19.18-.14.17-.43.33-.62.06-.07.16-.14.27-.21.33.05.67.12.99.17-.05.24-.42.22-.42.55.23.12.77-.19.98-.43.09,0,.16.02.25.05.47.09.94.21,1.41.36.66.17,1.31.38,1.94.65-.13.07-.26.19-.37.19-.27.02-.39-.36-.7-.22-.03.43.38.5.63.65.28.19.57.36.67.65-.27.64-.7.05-1.14.09-.47.05-1.16,1.03-1.57.31.1-.43.53-.53.63-.91-.09,0-.18.02-.27.1-.16.07-.31.17-.48.29-.2.12-.43.26-.69.36-.23.07-.46.07-.67.14-.4.17-.68.5-1.11.67-.16.12-.37.1-.54.17-.4.19-.88.48-1.3.74-.43.29-.91.57-1.17.84-.14.12-.52.62-.5.76.02.17.4.24.41.43-.01.12-.23.43-.08.6.14.17.42.02.71.02.51.02.84.43,1.24.6.29.17.74.31,1.07.36.46,0,.97-.22,1.03.14.06.36-.43.53-.46.77.25.33-.17.5-.17.81,0,.24.29.57.54.57.33,0,.83-.38.97-.77.17-.43.1-.98.41-1.31,1.56-.07,2.88-.96,2.77-2.63-.01-.14-.1-.36-.06-.55.05-.29.49-.55.43-.86.17-.09.27-.21.35-.41.13-.26.24-.53.47-.62.02-.02.03-.05.04-.05.14-.05.28,0,.43,0,.27.07.56.19.88.12.16-.02.37-.19.54-.17.32,0,.52.43.76.6.21.17.45.07.5.31-.06.41-.32.41-.3.79h0c.02.33.34.55.5.57.24,0,.59-.14.84-.29.26-.14.49-.45.73-.67.32.24.64.48.97.77.03.14.06.26.07.36.04.41-.05.69-.03,1.03.04.6.75.5,1.09.76.11.12.15.31.24.45.17.24.37.22.41.46.05.62-.53.72-.47,1.41-.12.26-.43.29-.41.62.04.57.81.07,1.01.5.11.24-.02.43-.1.74.26.33.26.84-.2.88-.28,0-.35-.29-.63-.33-.16-.02-.38-.02-.57-.05-.17-.02-.38-.05-.54-.07-.42-.02-.86.14-1.11-.1.4-.57.92-1.17,1.44-1.7.15-.14.48-.29.4-.57-.28-.24-.63.1-.9.24-.28.19-.61.48-.93.55-.55.12-1.29-.1-1.74.26-.06.26.52.14.44.53-.23.07-.43.1-.6-.05-.16-.17-.08-.38-.17-.48-.17-.12-.82-.1-1.11-.05-.34.1-.65.36-.7.64.42.19,1.12-.29,1.27.24-.23.45-.77.72-.7,1.31.03.21.28.5.46.53.19.02.29-.19.47-.17.19,0,.14.24.37.19.32-.17.5-.67.87-.67.45.55-.4.88-.87,1.1-.54.21-1.22.38-1.63.57-.21.12-1.03,1-1.14.36-.09-.43.4-.33.49-.72-.52-.1-1,.26-1.46.5-.68.31-1.81.57-1.98,1.36-.03.14.06.43-.03.53-.09.12-.57.17-.77.24-.32.14-.6.41-.81.45-.15.05-.37.07-.46.12-.27.12-.37.48-.68.74-.12.14-.4.19-.49.31-.18.19-.2.67-.5.74-.19.02-.35-.14-.54-.02-.02.45.15,1.03-.03,1.51-.4.33-.84.6-1.34.91-.28.19-.53.24-.87.43-.24.12-.45.43-.73.6-.16.1-.33.21-.48.33v14.95c.16-.16.32-.38.42-.55.18-.36.19-.65.54-.81.35-.19.64-.12,1.09-.31.21-.07.39-.22.57-.36.16-.1.33-.41.54-.21.27.29-.32.43-.1.74.46.26.7-.5,1.03-.5.11-.02.48.19.67.33.27.17.35.41.64.48.18.02.47-.09.73-.07.34.05.55.36.81.33.31,0,.46-.36.74-.43.58-.12.8.07,1.06.46.29.02.3-.36.57-.24-.15.31.05.45.17.72.08.17.06.26.13.33.16.17.47.14.71.31.25.14.37.45.66.79.29.36.78.72,1.17.74.37,0,.67-.12.97-.1.7.1,1.13.45,1.61.84.27.21.52.36.6.62.05.19.03.43.1.65.15.43.75.67.54,1.43.1.22.32.29.57.45.19.12.36.38.57.41.13.02.28-.02.4-.02.39.02.64.19.98.31.19.1.46.12.6.22.16.12.18.53.4.65.14.07.44-.02.66,0,.37.05.85.29,1.17.31.2,0,.37-.1.54-.1.41.05.73.31,1.04.62-4.03,6.93-10.51,11.91-18.15,13.6-.02-.31-.11-.62-.12-.93-.03-.65.07-1.12-.03-1.75-.07-.45-.17-1.15-.33-1.46-.18-.31-.88-.86-1.24-1.08-.24-.14-.51-.19-.77-.34-.55-.29-1.6-.88-1.84-1.43-.08-.19-.06-.38-.14-.55-.07-.17-.17-.32-.28-.47v10.31Zm-32.65-36.81c-.11.5-.2.98-.28,1.46-.08.53-.14,1-.19,1.51-.11,1-.16,2.01-.16,3.04s.05,2.03.16,3.01c.05.5.12,1,.19,1.51.08.48.17.98.28,1.44.1.48.21.96.34,1.43.26.93.56,1.87.91,2.8.17.43.35.88.56,1.31.19.45.4.88.62,1.34.11.21.21.43.33.62.23.45.46.88.72,1.29.75,1.27,1.59,2.46,2.51,3.61.46.57.95,1.12,1.45,1.65.33.38.68.72,1.03,1.08.35.36.71.69,1.07,1.03,1.67,1.51,3.48,2.87,5.44,4.02.43.26.87.5,1.32.77.89.45,1.81.91,2.76,1.31.46.21.94.41,1.43.57,3.13,1.17,6.49,1.89,9.97,2.03.73.02,1.45.02,2.17,0v-10.31c-.13-.18-.27-.35-.39-.56-.42-.62-.75-1.46-1.17-2.13-.21-.33-.4-.72-.63-.98-.14-.17-.58-.31-.63-.57-.08-.29-.31-.74-.27-.98.04-.31.67-.57.67-.86,0-.26-.33-.41-.4-.62-.17-.55.1-.84.3-1.27.06-.14.13-.38.19-.48.13-.19.38-.24.54-.43.1-.14.15-.38.27-.53.26-.36.67-.48.77-.79.09-.26.13-1.53.03-1.96-.06-.24-.29-.46-.38-.67-.15-.41-.18-.86-.6-.86-.26.02-.43.31-.6.5-.03.24-.01.5-.27.6-.38.1-.53-.41-.97-.55-.17-.05-.46-.02-.57-.1-.32-.12-.43-.62-.76-.81-.29-.12-.54-.07-.71-.31-.08-.17-.01-.45-.03-.69-.37-.21-.68-.98-1.11-1.17-.28-.14-.71-.12-1.06-.22-.17-.07-.3-.12-.47-.17-.21-.05-.44-.05-.6-.14-.67-.29-1.02-1.34-1.84-1.31-.35.02-.69.36-1.01.36-.31.02-.84-.21-1.24-.41-.41-.17-.87-.26-1.2-.43-.28-.14-.46-.36-.71-.45-.18-.1-.45-.12-.6-.17-.21-.1-.43-.29-.7-.48-.26-.17-.53-.43-.54-.65-.01-.26.24-.5.27-.74.09-.79-.5-1.32-.87-1.79-.28-.33-.59-.6-.87-.91.01-.21.01-.24,0-.45-.2-.19-.39-.48-.6-.76-.2-.26-.59-.55-.63-.84-.06-.36.14-.69,0-1.03-.24-.6-1.08-.29-.98.48.03.24.34.5.44.69.1.24.07.5.17.76.09.24.34.45.43.74.14.43.14.91.27,1.2.12.24.54.45.3.79-.32.07-.44-.24-.63-.41-.11-.12-.51-.29-.57-.5-.05-.22.13-.45.06-.69-.12-.45-1.06-.43-1.07-.91,0-.31.4-.33.41-.62,0-.33-.44-.6-.54-.84-.09-.24-.11-.65-.13-.98-.03-.33,0-.69-.08-.96-.06-.21-.41-.5-.63-.6-.29-.17-.53-.1-.67-.31-.13-.19-.21-.62-.24-.81-.05-.41-.01-.84-.03-1.24-.02-.43-.06-.81,0-1.27.16-.33.46-.5.63-.84.12-.21.14-.48.27-.74.25-.43.77-.84,1.14-1.29.39-.48.74-.93.97-1.48.09-.19.3-.62.27-.84-.04-.31-.65-.53-.6-.88.03-.24.36-.26.47-.5.04-.14.1-.45.1-.6.01-.33-.16-.65-.1-.98.05-.31.49-.46.27-.74-.23-.31-.62.21-.87.02-.23-.17.04-.41.06-.74.01-.14-.09-.29-.06-.41.01-.14.31-.43.23-.5-.12-.14-.25-.43-.44-.65,3.74-3.28,8.2-5.76,13.09-7.15h0c.06.1.12.21.27.29.29-.19.58-.07.9-.12.31-.02.59-.19.93-.19.6.05,1.46.55,1.93.19.13-.1.1-.24.2-.45.09-.19.23-.41.31-.62.24-.02.48-.05.72-.07.73-.07,1.45-.11,2.17-.13v-1.71c-.53.01-1.06.04-1.6.08-.18.02-.38.05-.57.07-.32.02-.64.07-.96.1-3.15.43-6.17,1.29-9.02,2.56-.48.21-.97.43-1.43.65-.15.1-.29.17-.44.24-.32.14-.64.33-.97.5-.45.22-.91.5-1.35.79-.45.24-.89.53-1.32.81-1.75,1.15-3.39,2.44-4.91,3.87-.18.14-.35.33-.54.5-.36.36-.73.72-1.07,1.1-.35.36-.7.72-1.03,1.12-.5.57-.99,1.15-1.45,1.77-.92,1.2-1.76,2.46-2.51,3.75-.26.43-.49.88-.72,1.34-.12.21-.23.41-.34.65-.32.67-.62,1.36-.9,2.06-.1.21-.18.45-.27.69-.35.93-.65,1.89-.91,2.82-.13.48-.25.98-.34,1.46h0Zm32.65-2.08v14.95c-.11.11-.23.19-.32.21-.28,0-.55-.43-.81-.53-.76-.33-1.14.31-1.77.31-.59.02-1.43-.91-1.41-1.48.02-.33.2-.88.24-1.29.03-.33.27-.55.27-.84.01-.43-.54-.76-.79-.79-.63-.12-1.49.31-2.21,0-.14-.19.16-.36.24-.6.04-.1.01-.31.06-.43.08-.21.3-.41.4-.62.08-.17.1-.41.17-.65.09-.26.25-.38.27-.55.02-.24-.06-.55-.24-.67-.56.05-.92.07-1.23.26-.73.33-.58,1.29-1.31,1.55-.25.1-.59.1-.87.17-.24.05-.53.19-.76.19-.29,0-.81-.26-.98-.45-.15-.17-.53-.98-.56-1.1-.29-.98.02-1.91.4-2.61.07-.14.2-.26.27-.45.09-.21.03-.55.1-.81.13-.5.74-.77,1.17-1.03.49-.29.9-.69,1.47-.76.28-.02.7.07.97.07.26.07.45.24.68.21.61.05.76-.45,1.27-.74.52.05.87-.12,1.34-.12.32.02.55.38.79.38.21.02.4-.22.6-.19.2.02.54.43.57.69.04.29-.21.57-.13.91.31.33.89.36,1.33.55.3-.26.04-.72,0-1.05-.01-.17.02-.31,0-.45-.02-.26-.13-.45-.13-.67,0-.72.43-1.21.92-1.58Z"/>
    </g>
    <path class="cls-12" d="m624.93,319.32l-1.15-21.08s32.69,11.27,37.13,12.67l6.72-21.29s.03-.03.04-.02l17.93,5.64s.03.02.02.04l-10.27,32.54c-1.94,6.14-7.07,5.2-9.54,4.41-13.61-4.33-27.24-8.58-40.86-12.86-.01,0-.02-.02-.02-.04Z"/>
    <path class="cls-30" d="m575.43,367.15l-.3.72c14.43,1.83,32.19,1.86,46.67.1-.13-.29-.26-.56-.39-.81h-45.97Z"/>
    <path class="cls-7" d="m569.63,367c3.2-9.23-4.11-52.45-8.14-60.4,2.29-8.16,23.67-9.96,29.36-14.6,2.7,2.37,4.62,2.92,7.68,2.92s5.08-.62,7.78-3c3.23,2.63,16.43,4.18,24.01,8.55-1.6,6.18-3.34,13.31-2.1,19.71-.97,10.09-4.03,38.48-.62,46.78-14.37,2.82-43.18,3.02-57.96.04Z"/>
    <polygon class="cls-30" points="584.11 295.92 583.43 314.09 598.64 352.69 613.63 314.09 612.69 295.42 606.31 291.92 590.85 292 584.11 295.92"/>
    <rect class="cls-41" x="591.76" y="291.16" width="15.19" height="15.73"/>
    <path class="cls-30" d="m601.05,311.12l1.06-2.24-3.58-8.67-3.52,8.53,1.12,2.38h4.91Z"/>
    <polygon class="cls-30" points="590.85 292 598.53 300.21 593.06 314.84 586.3 295.02 590.85 292"/>
    <polygon class="cls-30" points="606.31 291.92 598.53 300.21 604 314.84 610.85 294.94 606.31 291.92"/>
    <polygon class="cls-30" points="596.13 316.56 601.05 316.56 603.6 341.19 598.53 352.9 593.65 341.19 596.13 316.56"/>
    <polygon class="cls-30" points="590.85 292 598.53 300.21 592.94 311.22 586.3 295.02 590.85 292"/>
    <polygon class="cls-30" points="586.35 294.62 598.53 352.9 580.43 318.38 583.43 314.09 577.64 309.59 583.16 296.38 586.35 294.62"/>
    <polygon class="cls-30" points="611 294.5 598.53 352.9 618.58 320.93 615.94 315.35 621.67 310.79 615.52 296.59 611 294.5"/>
    <polygon class="cls-30" points="611 294.5 598.53 352.9 616.63 318.38 613.63 314.09 619.42 309.59 615.52 296.59 611 294.5"/>
    <polygon class="cls-30" points="606.31 291.92 598.53 300.21 604.11 311.22 610.85 294.94 606.31 291.92"/>
    <path class="cls-30" d="m596.13,310.71h4.91c1.1,2.28,1.01,4.27,0,6.21h-4.91c-1.01-1.94-1.1-3.94,0-6.21Z"/>
    <path class="cls-30" d="m597.84,369.26c.13-4.28.45-9.36.97-16.98.52,7.62.87,12.71,1.03,16.99-.67,0-1.33,0-2,0Z"/>
    <polygon class="cls-5" points="581.81 296.39 583.7 313.8 598.83 352.21 613.74 313.8 615.63 296.39 606.95 291.16 590.84 291.69 589.03 291.75 581.81 296.39"/>
    <path class="cls-15" d="m601.23,310.85l1.05-2.23-3.56-8.63-3.5,8.49,1.12,2.37h4.89Z"/>
    <polygon class="cls-39" points="589.03 294.65 598.72 299.99 593.28 314.55 584.51 294.75 589.03 294.65"/>
    <polygon class="cls-11" points="582.24 295.7 598.72 353.68 578.77 320.61 581.39 315.06 575.7 310.52 580.43 296.26 582.24 295.7"/>
    <polygon class="cls-39" points="608.29 295.03 598.72 299.99 604.16 314.55 612.93 294.75 608.29 295.03"/>
    <polygon class="cls-5" points="589.03 291.75 598.72 299.99 593.16 310.95 584.51 294.75 589.03 291.75"/>
    <polygon class="cls-34" points="584.51 294.75 598.72 352.41 580.71 318.07 583.7 313.8 577.94 309.32 581.81 295.76 584.51 294.75"/>
    <polygon class="cls-11" points="614.65 295 598.72 353.68 618.67 320.61 616.05 315.06 621.74 310.52 617.77 296.14 614.65 295"/>
    <polygon class="cls-34" points="613.44 294.62 598.72 352.41 616.73 318.07 613.74 313.8 619.5 309.32 616.39 295.76 613.44 294.62"/>
    <polygon class="cls-5" points="608.41 291.75 598.72 299.99 604.28 310.95 612.93 294.75 608.41 291.75"/>
    <path class="cls-15" d="m596.34,310.44h4.89c1.09,2.26,1.01,4.25,0,6.18h-4.89c-1.01-1.94-1.09-3.92,0-6.18Z"/>
    <path class="cls-30" d="m597.49,369.26c.8,0,1.6,0,2.4,0,.29-4.13-.59-15.16-1.2-16.98-.61,1.46-1.49,12.62-1.2,16.98Z"/>
    <polygon class="cls-15" points="596.34 316.26 601.23 316.26 606 375.53 592.72 375.53 596.34 316.26"/>
    <path class="cls-13" d="m798.16,398.29h-88.65c-19.84,0-17.29,27.42,0,27.42h66.81c22.54,0,26.51-14.51,21.85-27.42Z"/>
    <polygon class="cls-31" points="768.23 289.61 751.93 294.18 756.21 323.01 775.04 317.89 768.23 289.61"/>
    <path class="cls-6" d="m751.55,326.5l2.53,73.11c15.25,0,31.38,3.13,45.8,8.14-1.42-35.62-9.51-73.44-24.55-104.19-6.32,7.81-19.83,23.43-23.78,22.94Z"/>
    <path class="cls-30" d="m717.79,408.28h-18.28c-2.51,0-3.57-1.27-3.81,1.23l-6.72,67.17c-.25,2.5,2.06,4.57,4.57,4.57h18.28c2.51,0,4.34-2.07,4.57-4.57l5.96-63.83c.23-2.5-2.06-4.57-4.57-4.57Z"/>
    <path class="cls-30" d="m713.82,485.52c1.31,3.07,2.39,6.42,2.57,8.3.33,3.43.65,6.12-.85,6.4l-5.5,1.02c-1,.19-1.79-.99-2.06-2.43-2.62-.07-7.57,4.22-13.98,5.41l-15.52,2.88c-3.19.59-8.81.3-9.28-3.45-.47-3.74,8.76-7.04,15.1-10.3,2.58-1.33,5.4-4.29,7.83-7.56.46.14.94.22,1.43.22h18.28c.73,0,1.4-.17,1.99-.48Z"/>
    <g>
      <path class="cls-27" d="m498.46,277.12c-.27,24.61-17.81,34.37-26.1,34.37s-27.66-6.47-27.75-31.47c-.06-16.81,2.48-48.97,37.28-38.39,11.67-.64,16.83,10.88,16.57,35.49Z"/>
      <path class="cls-33" d="m450.16,365.31l-.29.69c13.89,1.76,30.97,1.79,44.9.09-.13-.28-.25-.54-.37-.78h-44.23Z"/>
      <path class="cls-23" d="m449.41,365.94c3.94-11.37,1.67-14.71-3.5-27.1-5.27-12.63,5.42-19.39-2.52-35.03,7.04-4.51,16.13-6.34,21.61-10.8,2.6,2.28,4.45,2.81,7.39,2.81s4.89-.6,7.49-2.88c4.05,3.3,14.43,6.08,21.79,10.88-7.57,16.05,2.69,18.69-2.52,35.03-3.98,12.47-10.18,13.17-4.39,27.26-14.08,1.71-31.38,1.66-45.34-.16Z"/>
      <polygon class="cls-5" points="458.51 296.77 457.86 314.25 472.49 351.4 486.91 314.25 486.02 296.29 479.87 292.92 464.99 293 458.51 296.77"/>
      <rect class="cls-49" x="465" y="286.89" width="14.62" height="15.14"/>
      <path class="cls-31" d="m472.38,295.81c7.32,0,14.1-8.37,17.68-18.63.21.21.45.35.71.39,1.46.24,3.13-2.5,3.73-6.11.6-3.62-.09-6.75-1.55-6.99-.1-.02-.21-.02-.31,0,.71-12.71-4.56-24.46-20.25-24.46s-20.97,11.76-20.25,24.49c-.16-.04-.32-.05-.48-.02-1.46.24-2.15,3.37-1.55,6.99.6,3.62,2.27,6.35,3.73,6.11.31-.05.59-.23.82-.53,3.56,10.32,10.37,18.76,17.72,18.76Z"/>
      <path class="cls-22" d="m474.81,311.39l1.02-2.15-3.44-8.34-3.38,8.21,1.08,2.29h4.73Z"/>
      <polygon class="cls-39" points="464.99 293 472.38 300.9 467.12 314.97 460.62 295.9 464.99 293"/>
      <polygon class="cls-8" points="460.67 295.52 472.38 351.59 453.09 320.83 455.63 315.46 450.12 311.07 457.6 297.21 460.67 295.52"/>
      <polygon class="cls-39" points="479.87 292.92 472.38 300.9 477.64 314.97 484.24 295.83 479.87 292.92"/>
      <polygon class="cls-22" points="470.08 316.62 474.81 316.62 477.27 340.33 472.38 351.59 467.69 340.33 470.08 316.62"/>
      <polygon class="cls-5" points="464.99 293 472.38 300.9 467.01 311.49 460.62 295.9 464.99 293"/>
      <polygon class="cls-16" points="460.67 295.52 472.38 351.59 454.97 318.38 457.86 314.25 452.29 309.92 457.59 297.21 460.67 295.52"/>
      <polygon class="cls-8" points="484.39 295.4 472.38 351.59 491.68 320.83 489.14 315.46 494.65 311.07 488.74 297.41 484.39 295.4"/>
      <polygon class="cls-16" points="484.39 295.4 472.38 351.59 489.8 318.38 486.91 314.25 492.48 309.92 488.74 297.41 484.39 295.4"/>
      <polygon class="cls-5" points="479.87 292.92 472.38 300.9 477.76 311.49 484.24 295.82 479.87 292.92"/>
      <path class="cls-22" d="m470.08,311h4.73c1.06,2.19.97,4.11,0,5.98h-4.73c-.97-1.87-1.06-3.79,0-5.98Z"/>
      <path class="cls-33" d="m471.72,367.34c.12-4.12.43-9.01.94-16.34.5,7.34.84,12.23.99,16.34-.64,0-1.28,0-1.93,0Z"/>
      <path class="cls-31" d="m493.01,266.73c1.41.32,2.02,2.99,1.36,5.97-.66,2.98-2.35,5.14-3.76,4.83-1.41-.31-2.02-2.99-1.36-5.97.66-2.98,2.35-5.14,3.76-4.83Z"/>
      <path class="cls-27" d="m492.92,264.46c.73-12.71-4.64-24.46-20.62-24.46s-21.36,11.76-20.62,24.48c1.29.32,2.64,2.64,3.24,5.67,1.04.69,1.8.29,1.8-2.28,0-7.57.95-14.27,6.01-15.87,4.81-1.52,5.87,1.82,9.54,1.82s4.83-3.14,9.55-1.82c4.89,1.38,6.01,8.3,6.01,15.87,0,2.46.7,2.93,1.67,2.35.61-3.2,2.06-5.63,3.42-5.78Z"/>
      <path class="cls-27" d="m491.65,246.58c-.96,7.13-35.27,23.1-44.08,24.31-2.73-36.66,19.81-16.56,22.01-23.97.52-1.76,22.51,1.2,22.07-.34Z"/>
      <path class="cls-27" d="m475.66,240.7c-.57,7.17,11.21,28.01,19.56,31.05,3.15-26.24-3.66-24.78-8.32-26.91-1.67-.77-12.01-2.74-11.24-4.15Z"/>
    </g>
    <polygon class="cls-19" points="385.75 343.37 683.51 343.37 770.87 390.23 298.39 390.23 385.75 343.37"/>
    <polygon class="cls-5" points="634.5 356.96 679.49 357.36 695.08 375.16 635.65 375.39 634.5 356.96"/>
    <g>
      <path class="cls-29" d="m673.61,344.81l10.01,1.97c1.29.25,5.93,2.49,5.78,3.8-.15,1.3-4.16,1.34-5.44,1.06l-6.99-1.81c-4.01-1.04-3.68-3.62-3.36-5.01Z"/>
      <path class="cls-31" d="m671.44,353.15h-.42c-1.64,1.13-.69,3.98,1.43,4.22-1.84.94-1.17,3.7.72,4.29-1.55,1.15-.5,3.96,1.69,3.95l10.03-.03c2.81,0,6.43-1.54,7.86-2.75,4.25-3.57,1.53-10.08-.98-11.68-1.95-1.25-3.21-2.35-4.72-2.37l-15.56-.06c-3.53-.04-2.96,4.49-.06,4.44Z"/>
      <path class="cls-29" d="m676.68,361.79s-1.99.04-3.75.08c.07-.08.15-.15.24-.22-.17-.05-.32-.12-.47-.2,1.8.14,3.98.34,3.98.34h0Zm-5.71-8.62c-.14.11-.26.22-.37.35,1.98-.04,5.36-.19,5.36-.19,0,0-3.48-.18-4.95-.19.02,0,0,.01-.05.03h0Zm.64,3.94c.25.13.54.22.84.25-.12.06-.23.13-.33.21,1.96-.02,4.38-.05,4.38-.05,0,0-3.01-.29-4.89-.41Z"/>
    </g>
    <rect class="cls-4" x="687.98" y="349.27" width="9.88" height="15.97"/>
    <path class="cls-6" d="m756.92,318.78l-22.69,28.77h-39.76v19.42l42.69.38c7.5.07,11.31-5.65,13.25-7.95l22.74-26.85c9.17-10.83-7.39-24.97-16.23-13.76Z"/>
    <rect class="cls-42" x="767.62" y="433.8" width="7.05" height="57.33"/>
    <rect class="cls-48" x="724.25" y="424.8" width="93.79" height="20.21" rx="10.11" ry="10.11"/>
    <path class="cls-42" d="m802.42,503.11c-2.67-4.82-6.41-8.96-10.9-12.08-5.78-4.02-12.81-6.38-20.37-6.38s-14.59,2.36-20.37,6.38c-4.49,3.12-8.24,7.26-10.9,12.08h7.65c1.92-2.62,4.27-4.91,6.95-6.77,4.72-3.29,10.48-5.21,16.68-5.21s11.96,1.93,16.68,5.21c2.67,1.86,5.02,4.15,6.95,6.77h7.65Z"/>
    <path class="cls-48" d="m807.93,341.87h0c5.58,0,10.11,4.53,10.11,10.11v82.93c0,5.58-4.53,10.11-10.11,10.11h0c-5.58,0-10.11-4.53-10.11-10.11v-82.93c0-5.58,4.53-10.11,10.11-10.11Z"/>
    <polygon class="cls-6" points="776.59 308.24 774.25 299.55 753.69 323.25 753.88 326.54 776.59 308.24"/>
    <path class="cls-31" d="m741.94,299.34c-17.08-5.31-15.48-66.76,20.4-55.78,21.12,6.46,18.52,31.47,6.98,45.97-6.8,8.55-19.27,12.33-27.38,9.81Z"/>
    <polygon class="cls-5" points="776.21 299.55 771.77 293.29 751.63 316.41 754.31 322.01 776.21 299.55"/>
    <g>
      <path class="cls-29" d="m702.08,254.55h0c1.05.73,1.22,2.04.41,2.93l-11.83,13.27c-.81.89-2.35,1.01-3.4.28h0c-1.05-.73-1.22-2.04-.41-2.93l11.83-13.27c.81-.89,2.35-1.01,3.4-.28Z"/>
      <path class="cls-29" d="m673.52,283.8l7.61,6.52,7.89-5.2c4.2-2.77,8.27-13.79,10.21-18.6l-6.89-2.87-14.64,8.63-4.17,11.51Z"/>
      <path class="cls-31" d="m677.85,275.18l1.09,1.32,1.28-1.3,10.31-10.43c1.16-1.17,1.34-2.33,1.03-3.43-.26-.93-1.46-2.71-2.01-2.15l-11.68,11.87c-1.02,1.03-1.03,2.89-.02,4.12Z"/>
      <path class="cls-31" d="m693.54,277.4h0c.62.91.36,2.02-.57,2.48l-3.16,1.56c-.93.46-2.2.09-2.82-.82h0c-.62-.91-.36-2.03.57-2.48l3.16-1.56c.93-.46,2.2-.09,2.82.82Z"/>
      <path class="cls-31" d="m696.34,271.27h0c.72,1.06.42,2.35-.66,2.88l-3.12,1.54c-1.08.53-2.56.1-3.27-.96h0c-.72-1.06-.42-2.35.66-2.88l3.12-1.54c1.08-.53,2.56-.1,3.27.96Z"/>
      <path class="cls-31" d="m698.96,264.72h0c.72,1.06.42,2.35-.66,2.88l-3.13,1.54c-1.08.53-2.56.1-3.27-.96h0c-.72-1.06-.42-2.35.66-2.88l3.12-1.54c1.08-.53,2.56-.1,3.27.96Z"/>
      <path class="cls-31" d="m672.39,286.93l6.31,2.68c3.66-3.87,9.08-13.18,4.54-17.72-.57-.75-1.15-1.36-1.75-1.85l-4.23,2.02-4.87,14.86Z"/>
    </g>
    <polygon class="cls-5" points="667.68 292.3 684.09 297.25 686.11 290.09 669.7 285.14 667.68 292.3"/>
    <path class="cls-27" d="m765.68,245.28c16.88,6.33,17.07,32.33,2.34,46.73.7-3.3.94-6.49-.18-15.72-1.2.81-7.31,3.61-8.04-6.21-1.02-13.7-16.73-14.91-25.55-13.54,6.8-14.77,16.72-16.77,31.43-11.26Z"/>
    <path class="cls-31" d="m766.06,268.29c-2.36-.26-4.65,2.96-5.12,7.19-.47,4.23,1.06,7.87,3.43,8.13,2.36.26,4.65-2.96,5.12-7.19.47-4.23-1.06-7.87-3.42-8.13Z"/>
    <path class="cls-17" d="m613.31,247.66c-3.16-12.43-11.78-22.11-26.86-17.36s-16.59,17.65-12.04,29.65c1.32-.08,3.29,1.75,4.77,4.49,1.19.35,1.78-.26,1.01-2.72-2.29-7.27-3.42-13.99.87-17.03,4.08-2.89,6.09,0,9.56-1.09s3.61-4.46,8.46-4.58c5.04-.13,8.19,6.19,10.48,13.46.74,2.36,1.54,2.61,2.29,1.76-.39-3.25.24-6.02,1.48-6.57Z"/>
    <rect class="cls-47" x="346.23" y="396.3" width="376.8" height="133.72"/>
    <rect class="cls-3" x="298.39" y="390.23" width="472.48" height="10.75"/>
    <path class="cls-23" d="m441.43,306.2c.78-1.49,1.8-2.89,3.78-3.32,5.44,5.9,5.21,20.17,1.77,25.7l-10.65,17.54-15.42,7.78c-3.16-4.79-1.69-9.68-.75-11.79,1.7-3.79,20.4-34.25,21.27-35.91Z"/>
    <g>
      <path class="cls-36" d="m476.25,344.58c-1.03.04-2.28.06-3.76.1l4.63-.82c1.87-1.29,1.08-3.23.15-3.8l-10.69,3.85c-1.58.57-2.14,3.25-2.16,5.57-.04,4.79,3.24,6.45,9.71,7.63l10.01,1.83c2.14.39,2.67-2.64.5-3.01l-7.08-1.23c.11-.09.22-.22.31-.35l9.48.74c2.19.17,2.15-2.88.31-3.04l-8.75-.76c.02-.09.02-.27.02-.34h10.08c2.03.01,2.01-3.04,0-3.04h-10.79c-.07-.15-.15-.28-.24-.41l10.39-1.04c1.98-.2,1.75-3.25-.32-3.04l-11.81,1.18Z"/>
      <polygon class="cls-5" points="461.7 341.75 461.77 357.04 468.41 356.89 468.34 341.6 461.7 341.75"/>
      <path class="cls-23" d="m431.14,340.55l32.03.53.34,16.73s-.02.03-.02.03l-34.47-.04c-5.73,0-8.68-4.25-9.79-6.27-2.58-6.79,6.62-13.33,11.92-10.98Z"/>
    </g>
    <g>
      <path class="cls-23" d="m504.51,307.16c-.78-1.49-1.8-2.89-3.78-3.32-5.44,5.9-5.22,20.17-1.77,25.7l10.65,17.54,15.42,7.78c3.16-4.79,1.7-9.68.75-11.79-1.7-3.79-20.4-34.25-21.27-35.91Z"/>
      <g>
        <path class="cls-36" d="m469.69,345.54c1.03.04,2.28.06,3.76.1l-5.04-1.24c-1.87-1.29-1.08-3.23-.15-3.8l11.11,4.27c1.56.6,2.14,3.25,2.16,5.57.04,4.79-3.24,6.45-9.71,7.63l-10.01,1.83c-2.14.39-2.67-2.64-.5-3.01l7.08-1.23c-.11-.09-.22-.22-.31-.35l-9.48.74c-2.19.17-2.15-2.88-.31-3.04l8.75-.76c-.02-.09-.02-.27-.02-.34h-10.08c-2.03.01-2.01-3.04,0-3.04h10.79c.07-.15.15-.28.24-.41l-10.39-1.04c-1.98-.2-1.74-3.25.32-3.04l11.81,1.18Z"/>
        <polygon class="cls-5" points="484.24 342.71 484.17 358 477.53 357.85 477.6 342.56 484.24 342.71"/>
        <path class="cls-23" d="m514.8,341.51l-32.03.53-.34,16.73s.02.03.02.03l34.47-.04c5.73,0,8.68-4.25,9.79-6.27,2.58-6.79-6.62-13.33-11.92-10.98Z"/>
      </g>
    </g>
    <path class="cls-12" d="m561.86,306.2c.78-1.49,1.8-2.89,3.78-3.32,5.44,5.9,5.22,20.17,1.77,25.7l-10.65,17.54-15.42,7.78c-3.16-4.79-1.69-9.68-.75-11.79,1.7-3.79,20.4-34.25,21.27-35.91Z"/>
    <g>
      <path class="cls-36" d="m596.67,344.58c-1.03.04-2.28.06-3.76.1l4.62-.82c1.87-1.29,1.08-3.23.15-3.8l-10.69,3.85c-1.58.57-2.14,3.25-2.16,5.57-.04,4.79,3.24,6.45,9.71,7.63l10.01,1.83c2.14.39,2.67-2.64.5-3.01l-7.07-1.23c.11-.09.22-.22.31-.35l9.48.74c2.19.17,2.15-2.88.31-3.04l-8.75-.76c.02-.09.02-.27.02-.34h10.08c2.03.01,2.01-3.04,0-3.04h-10.79c-.07-.15-.15-.28-.24-.41l10.39-1.04c1.98-.2,1.75-3.25-.32-3.04l-11.81,1.18Z"/>
      <polygon class="cls-5" points="582.13 341.75 582.2 357.04 588.83 356.89 588.76 341.6 582.13 341.75"/>
      <path class="cls-12" d="m551.57,340.55l32.03.53.34,16.73s-.02.03-.02.03l-34.47-.04c-5.73,0-8.68-4.25-9.79-6.27-2.58-6.79,6.62-13.33,11.92-10.98Z"/>
    </g>
    <g>
      <path class="cls-32" d="m167.06,107.57c19.42,8.04,38.84,16.06,58.26,24.08,19.42,8.02,38.84,16.05,58.27,24.06v135.01c-19.43,6.21-38.86,12.45-58.27,18.66-19.41,6.21-38.84,12.45-58.26,18.66V107.57Z"/>
      <g>
        <path class="cls-37" d="m273.7,215.54c-7.45-.62-14.89-1.22-22.33-1.85-7.43-.62-14.88-1.27-22.31-1.89v3.16c7.43.53,14.88,1.07,22.31,1.59,7.43.52,14.88,1.04,22.33,1.55v-2.56Z"/>
        <path class="cls-28" d="m273.7,161.69c-2.64-.95-5.29-1.89-7.93-2.86v56.04c2.64.23,5.29.46,7.93.67v-53.85Z"/>
        <path class="cls-26" d="m264.53,179.63c-2.66-.67-5.3-1.34-7.94-2.03v36.51c2.64.23,5.29.46,7.94.67v-35.14Z"/>
        <path class="cls-21" d="m255.35,189.72c-2.64-.53-5.29-1.06-7.93-1.59v25.21c2.64.21,5.29.44,7.93.67v-24.29Z"/>
        <path class="cls-31" d="m246.17,176.03c-2.64-.67-5.29-1.34-7.93-2.01v38.54c2.64.23,5.29.44,7.93.67v-37.2Z"/>
        <path class="cls-10" d="m237,184.78c-2.66-.55-5.3-1.11-7.94-1.64v28.66c2.64.23,5.29.44,7.94.67v-27.68Z"/>
      </g>
      <g>
        <path class="cls-37" d="m177.49,176.24c7.43,1.41,14.88,2.86,22.31,4.27,7.43,1.41,14.88,2.84,22.33,4.27v2.33c-7.45-1.34-14.89-2.69-22.33-4.04-7.43-1.35-14.88-2.72-22.31-4.09v-2.75Z"/>
        <path class="cls-37" d="m177.49,182.26c7.43,1.27,14.88,2.58,22.31,3.83s14.88,2.52,22.33,3.79v2.33c-7.45-1.2-14.89-2.4-22.33-3.6-7.43-1.2-14.88-2.4-22.31-3.6v-2.75Z"/>
        <path class="cls-37" d="m177.49,188.31c7.43,1.11,14.88,2.24,22.31,3.35,7.43,1.11,14.88,2.22,22.33,3.33v2.33c-7.45-1.04-14.89-2.08-22.33-3.12-7.43-1.04-14.88-2.1-22.31-3.16v-2.72Z"/>
        <path class="cls-37" d="m177.49,194.34c7.43.97,14.88,1.94,22.31,2.89,7.43.95,14.88,1.92,22.33,2.89v2.31c-7.45-.88-14.89-1.77-22.33-2.66-7.43-.89-14.88-1.8-22.31-2.68v-2.75Z"/>
        <path class="cls-37" d="m177.49,200.39c7.43.81,14.88,1.63,22.31,2.42,7.43.8,14.88,1.59,22.33,2.4v2.31c-7.45-.71-14.89-1.47-22.33-2.19-7.43-.73-14.88-1.48-22.31-2.22v-2.72Z"/>
        <path class="cls-37" d="m177.49,151.76c7.43,2.05,14.88,4.14,22.31,6.19,7.43,2.04,14.88,4.09,22.33,6.14v12.33c-7.45-1.66-14.89-3.34-22.33-5.01-7.43-1.67-14.88-3.37-22.31-5.03v-14.62Z"/>
      </g>
      <g>
        <path class="cls-26" d="m198.58,240.68c-10.47.33-18.96,15.41-18.96,33.69s8.49,30.84,18.96,28.1c10.47-2.74,18.96-17.81,18.96-33.69s-8.49-28.44-18.96-28.1Z"/>
        <path class="cls-10" d="m209.01,294.83c2.72-3.44,4.95-7.78,6.45-12.56-5.63-3.35-11.25-6.93-16.88-10.69,3.47,7.99,6.95,15.75,10.43,23.25Z"/>
        <path class="cls-28" d="m215.46,282.27c1.32-4.2,2.07-6.54,2.07-13.48s-2.85-17.16-7.28-22.24c-3.89,8.13-7.79,16.46-11.68,25.03,5.63,3.76,11.25,7.34,16.88,10.69Z"/>
        <path class="cls-31" d="m210.26,246.55c-3.21-3.79-7.28-6-11.68-5.87v30.9c3.89-8.57,7.79-16.9,11.68-25.03Z"/>
        <path class="cls-21" d="m198.58,240.68v30.9c-4.51-6.67-9.01-13.6-13.51-20.78,3.44-6.14,8.22-9.95,13.51-10.11Z"/>
      </g>
      <g>
        <path class="cls-37" d="m229.06,268.07c7.43-1.13,14.88-2.26,22.31-3.39,7.43-1.13,14.88-2.26,22.33-3.39v1.82c-7.45,1.2-14.89,2.44-22.33,3.62-7.43,1.19-14.88,2.38-22.31,3.6v-2.26Z"/>
        <path class="cls-37" d="m229.06,273.03c7.43-1.29,14.88-2.58,22.31-3.86,7.43-1.28,14.88-2.59,22.33-3.86v1.82c-7.45,1.36-14.89,2.74-22.33,4.09-7.43,1.35-14.88,2.7-22.31,4.06v-2.26Z"/>
        <path class="cls-37" d="m229.06,278c7.43-1.46,14.88-2.87,22.31-4.32,7.43-1.44,14.88-2.89,22.33-4.34v1.85c-7.45,1.5-14.89,3.05-22.33,4.55-7.43,1.5-14.88,3-22.31,4.53v-2.26Z"/>
        <path class="cls-37" d="m229.06,282.96c7.43-1.59,14.88-3.19,22.31-4.78,7.43-1.59,14.88-3.21,22.33-4.8v1.85c-7.45,1.66-14.89,3.35-22.33,5.01-7.43,1.66-14.88,3.3-22.31,4.99v-2.26Z"/>
        <path class="cls-37" d="m229.06,287.93c7.43-1.75,14.88-3.5,22.31-5.24,7.43-1.74,14.88-3.51,22.33-5.26v1.82c-7.45,1.82-14.89,3.67-22.33,5.5-7.43,1.82-14.88,3.62-22.31,5.45v-2.26Z"/>
        <path class="cls-37" d="m229.06,247.96c7.43-.51,14.88-1,22.31-1.5,7.43-.5,14.88-1.02,22.33-1.52v9.74c-7.45.88-14.89,1.79-22.33,2.66-7.43.87-14.88,1.75-22.31,2.63v-12.01Z"/>
      </g>
      <path class="cls-1" d="m225.33,128.14c19.41,8.3,38.84,16.62,58.27,24.91.79.35,1.58.69,2.38,1.02v138.47c-.8.28-1.59.55-2.38.81-19.43,6.49-38.85,13-58.27,19.49v-6.93c18.62-5.7,37.26-11.41,55.9-17.11v-131.38c-18.64-7.44-37.28-14.87-55.9-22.3v-6.97Zm-58.27-24.92c19.42,8.31,38.84,16.61,58.26,24.91h0v6.98h0c-18.63-7.44-37.27-14.87-55.89-22.28v210.17c18.63-5.7,37.27-11.38,55.89-17.09h0s0,6.93,0,6.93h0c-19.41,6.49-38.84,13-58.26,19.49-.79.28-1.58.53-2.37.78V102.21c.79.35,1.58.69,2.37,1.02Z"/>
    </g>
    <g>
      <path class="cls-14" d="m364.32,329.57h4.84v-1.33c0-.56-.28-.83-.67-.83h-3.5c-.41,0-.67.15-.67.83v1.33Z"/>
      <path class="cls-18" d="m378.08,329.57h4.84v-1.33c0-.56-.28-.83-.67-.83h-3.5c-.41,0-.67.15-.67.83v1.33Z"/>
      <path class="cls-20" d="m373.65,340.14h6.61c.98,0,1.78-.8,1.78-1.78v-17.83c0-.98-.8-1.78-1.78-1.78h-6.61v2.91h4.6c.49,0,.88.4.88.88v12.21c0,.48-.4.88-.88.88h-4.6v4.5Zm-6.61,0h6.61v-4.5h-4.6c-.49,0-.88-.4-.88-.88v-12.21c0-.49.4-.88.88-.88h4.6v-2.91h-6.61c-.98,0-1.78.8-1.78,1.78v17.83c0,.98.8,1.78,1.78,1.78Z"/>
      <path class="cls-40" d="m340.76,331.23h65.79c2.95,0,5.35,2.4,5.35,5.35v39.71c0,2.95-2.4,5.35-5.35,5.35h-65.79c-2.95,0-5.35-2.4-5.35-5.35v-39.71c0-2.95,2.4-5.35,5.35-5.35Z"/>
      <path class="cls-45" d="m380.06,350.78h17.23c1.79,0,3.25,1.46,3.25,3.25v18.92c0,1.79-1.46,3.25-3.25,3.25h-17.23c-1.79,0-3.25-1.46-3.25-3.25v-18.92c0-1.79,1.46-3.25,3.25-3.25Z"/>
      <rect class="cls-44" x="378.19" y="352.26" width="20.96" height="22.45" rx="2.22" ry="2.22"/>
      <path class="cls-45" d="m350.01,350.78h17.23c1.79,0,3.25,1.46,3.25,3.25v18.92c0,1.79-1.46,3.25-3.25,3.25h-17.23c-1.79,0-3.25-1.46-3.25-3.25v-18.92c0-1.79,1.46-3.25,3.25-3.25Z"/>
      <rect class="cls-44" x="348.15" y="352.26" width="20.96" height="22.45" rx="2.22" ry="2.22"/>
      <path class="cls-14" d="m340.76,331.23h65.79c.5,0,.98.07,1.44.2v21.08c0,2.64-2.16,4.8-4.81,4.8h-59.05c-2.64,0-4.8-2.16-4.8-4.8v-21.08c.46-.13.94-.2,1.44-.2Z"/>
      <path class="cls-9" d="m341.1,331.23h65.1v21.45c0,1.6-1.31,2.9-2.9,2.9h-59.29c-1.6,0-2.9-1.31-2.9-2.9v-21.45Z"/>
      <rect class="cls-45" x="354.34" y="331.23" width="8.57" height="30.74"/>
      <rect class="cls-44" x="356.01" y="331.23" width="5.24" height="30.74"/>
      <path class="cls-14" d="m354.09,361.18h9.08c1.01,0,1.38.38,1.1,1.5l-1.98,7.73c-.14.55-.49,1.02-1.24,1.02h-4.84c-.75,0-1.1-.47-1.24-1.02l-1.98-7.73c-.29-1.12.09-1.5,1.1-1.5Z"/>
      <path class="cls-20" d="m355.41,362.67h6.43c.71,0,.98.27.78,1.06l-1.4,5.48c-.1.39-.35.72-.88.72h-3.43c-.53,0-.78-.33-.88-.72l-1.4-5.48c-.2-.79.07-1.06.78-1.06Z"/>
      <g>
        <path class="cls-14" d="m358.63,365.15h0c.19,0,.35.16.35.35v2.58c0,.19-.16.35-.35.35h0c-.19,0-.35-.16-.35-.35v-2.58c0-.19.16-.35.35-.35Z"/>
        <path class="cls-14" d="m358.63,366.15c.55,0,1-.45,1-1s-.45-1-1-1-1,.45-1,1,.45,1,1,1Z"/>
      </g>
      <rect class="cls-45" x="384.39" y="331.23" width="8.57" height="30.74"/>
      <rect class="cls-44" x="386.05" y="331.23" width="5.24" height="30.74"/>
      <path class="cls-14" d="m384.13,361.18h9.08c1.01,0,1.39.38,1.1,1.5l-1.98,7.73c-.14.55-.49,1.02-1.24,1.02h-4.84c-.75,0-1.1-.47-1.24-1.02l-1.98-7.73c-.29-1.12.09-1.5,1.1-1.5Z"/>
      <path class="cls-20" d="m385.45,362.67h6.43c.71,0,.98.27.78,1.06l-1.4,5.48c-.1.39-.35.72-.88.72h-3.43c-.53,0-.78-.33-.88-.72l-1.4-5.48c-.2-.79.07-1.06.78-1.06Z"/>
      <g>
        <path class="cls-14" d="m388.67,365.15h0c.19,0,.35.16.35.35v2.58c0,.19-.16.35-.35.35h0c-.19,0-.35-.16-.35-.35v-2.58c0-.19.16-.35.35-.35Z"/>
        <path class="cls-14" d="m388.67,366.15c.55,0,1-.45,1-1s-.45-1-1-1-1,.45-1,1,.45,1,1,1Z"/>
      </g>
      <path class="cls-14" d="m361.25,331.23h24.8v-.95c0-.67-.5-1.21-1.11-1.21h-22.59c-.61,0-1.11.41-1.11,1.21v.95Z"/>
    </g>
    <polygon class="cls-5" points="461.42 361.24 496.05 361.5 504.16 383.65 456.02 383.73 461.42 361.24"/>
    <path class="cls-20" d="m468.05,366.14l-15.96,10.09c-.32.2-.42.63-.22.96h0c.2.32.63.42.96.22l15.96-10.09,1.17-1.5-1.91.33Z"/>
    <path class="cls-30" d="m657.82,367.56l15.96,10.09c.32.2.42.63.21.96h0c-.2.32-.63.42-.96.22l-15.96-10.09-1.17-1.5,1.91.33Z"/>
    <polygon class="cls-29" points="598.53 297.25 608.17 291.73 590.69 290.33 589.03 291.75 598.53 297.25"/>
    <polygon class="cls-29" points="599.08 290.2 608.04 290.98 608.17 291.73 603.77 294.25 598.37 291.43 599.08 290.2"/>
  </g>
</svg>