<?xml version="1.0" encoding="utf-8"?>
<!-- Generator: Adobe Illustrator 26.0.0, SVG Export Plug-In . SVG Version: 6.00 Build 0)  -->
<svg version="1.1" id="Layer_1" xmlns="http://www.w3.org/2000/svg" xmlns:xlink="http://www.w3.org/1999/xlink" x="0px" y="0px"
	 viewBox="0 0 1280 673" style="enable-background:new 0 0 1280 673;" xml:space="preserve">
<g id="BACKGROUND">
	<rect x="27.08" y="23.51" style="fill:#82D9E0;" width="499.96" height="500.03"/>
</g>
<g id="OBJECTS">
	<rect x="0.33" style="fill:#FBF8E8;" width="1279.33" height="673"/>
	<g>
		<g>
			<path style="fill:#F9F5E4;" d="M814.56,359.66h-0.26c-1.34,0-2.44-1.1-2.44-2.44l0,0c0-1.34,1.1-2.44,2.44-2.44h0.26
				c1.34,0,2.44,1.1,2.44,2.44l0,0C817,358.57,815.9,359.66,814.56,359.66z"/>
			<path style="fill:#F9F5E4;" d="M799.85,326.78h-0.32c-1.67,0-3.05-1.37-3.05-3.05l0,0c0-1.67,1.37-3.05,3.05-3.05h0.32
				c1.67,0,3.05,1.37,3.05,3.05l0,0C802.9,325.41,801.53,326.78,799.85,326.78z"/>
			<path style="fill:#F9F5E4;" d="M813.95,441.27h-0.32c-1.67,0-3.05-1.37-3.05-3.05l0,0c0-1.67,1.37-3.05,3.05-3.05h0.32
				c1.67,0,3.05,1.37,3.05,3.05l0,0C817,439.9,815.63,441.27,813.95,441.27z"/>
			<path style="fill:#F9F5E4;" d="M808.15,396.21h-0.26c-1.34,0-2.44-1.1-2.44-2.44l0,0c0-1.34,1.1-2.44,2.44-2.44h0.26
				c1.34,0,2.44,1.1,2.44,2.44l0,0C810.59,395.11,809.49,396.21,808.15,396.21z"/>
			<path style="fill:#F9F5E4;" d="M423,499.74h-0.32c-1.67,0-3.05-1.37-3.05-3.05l0,0c0-1.67,1.37-3.05,3.05-3.05H423
				c1.67,0,3.05,1.37,3.05,3.05l0,0C426.05,498.37,424.67,499.74,423,499.74z"/>
			<path style="fill:#F9F5E4;" d="M420.44,431.53h-0.32c-1.67,0-3.05-1.37-3.05-3.05l0,0c0-1.67,1.37-3.04,3.05-3.04h0.32
				c1.67,0,3.05,1.37,3.05,3.04l0,0C423.48,430.16,422.11,431.53,420.44,431.53z"/>
			<path style="fill:#FFF8EA;" d="M497.74,329.16h-11.98c-3.71,0-6.74-3.03-6.74-6.74l0,0c0-3.71,3.03-6.74,6.74-6.74h11.98
				c3.71,0,6.74,3.03,6.74,6.74l0,0C504.48,326.12,501.45,329.16,497.74,329.16z"/>
			<g>
				<path style="fill:#D4B269;" d="M786.89,616.67H491.61c-8.95,0-16.27-7.32-16.27-16.27V176.29c0-8.95,7.32-16.27,16.27-16.27
					h295.28c8.95,0,16.27,7.32,16.27,16.27V600.4C803.16,609.35,795.84,616.67,786.89,616.67z"/>
				<path style="fill:#443244;" d="M770.04,603.25H509.22c-8.04,0-14.61-6.58-14.61-14.61v-387.3c0-8.04,6.58-14.61,14.61-14.61
					h260.81c8.04,0,14.61,6.58,14.61,14.61v387.3C784.65,596.68,778.07,603.25,770.04,603.25z"/>
				<rect x="505.58" y="181.42" style="fill:#F9F5F4;" width="268.36" height="407.23"/>
				<path style="fill:#A0A0A0;" d="M747.07,186H529.23c-4.12,0-7.49-3.37-7.49-7.49l0,0c0-4.12,3.37-7.49,7.49-7.49h217.84
					c4.12,0,7.49,3.37,7.49,7.49l0,0C754.56,182.62,751.19,186,747.07,186z"/>
				<path style="fill:#ADB6C0;" d="M742.22,170.51c-1.34-18.9-10.69-33.68-21.72-33.55l-166.62,2.06
					c-11.03,0.14-19.97,15.14-20.79,34.07L742.22,170.51z"/>
				<path style="opacity:0.27;fill:#E86625;enable-background:new    ;" d="M646.79,171.69l95.43-1.18
					c-1.29-15-10.59-26.71-21.62-26.57l-73.81,0.91V171.69z"/>
				<ellipse style="fill:#737373;" cx="641.02" cy="137.37" rx="19.87" ry="18.88"/>
				<path style="fill:#AFAFAF;" d="M649.65,137.37c0,4.53-3.86,8.2-8.63,8.2c-4.76,0-8.63-3.67-8.63-8.2s3.86-8.2,8.63-8.2
					C645.78,129.18,649.65,132.85,649.65,137.37z"/>
				<path style="fill:#9D9D9D;" d="M616.21,152.6h-65.76c-2.01,0-3.65-1.64-3.65-3.65l0,0c0-2.01,1.64-3.65,3.65-3.65h65.76
					c2.01,0,3.65,1.64,3.65,3.65l0,0C619.87,150.96,618.22,152.6,616.21,152.6z"/>
				<polygon style="fill:#F9F5E4;" points="546.32,131.96 550.65,139.49 558.57,143.61 550.65,147.73 546.32,155.26 541.98,147.73 
					534.06,143.61 541.98,139.49 				"/>
				<path style="opacity:0.58;fill:#7F7F7F;enable-background:new    ;" d="M732.38,297.55h-187.4c-1.34,0-2.44-1.1-2.44-2.44l0,0
					c0-1.34,1.1-2.44,2.44-2.44h187.4c1.34,0,2.44,1.1,2.44,2.44l0,0C734.81,296.45,733.72,297.55,732.38,297.55z"/>
				<path style="opacity:0.58;fill:#7F7F7F;enable-background:new    ;" d="M732.38,314.6h-187.4c-1.34,0-2.44-1.1-2.44-2.44l0,0
					c0-1.34,1.1-2.44,2.44-2.44h187.4c1.34,0,2.44,1.1,2.44,2.44l0,0C734.81,313.5,733.72,314.6,732.38,314.6z"/>
				<path style="opacity:0.58;fill:#7F7F7F;enable-background:new    ;" d="M732.38,332.87h-187.4c-1.34,0-2.44-1.1-2.44-2.44l0,0
					c0-1.34,1.1-2.44,2.44-2.44h187.4c1.34,0,2.44,1.1,2.44,2.44l0,0C734.81,331.77,733.72,332.87,732.38,332.87z"/>
				<path style="opacity:0.58;fill:#7F7F7F;enable-background:new    ;" d="M732.38,349.92h-187.4c-1.34,0-2.44-1.1-2.44-2.44l0,0
					c0-1.34,1.1-2.44,2.44-2.44h187.4c1.34,0,2.44,1.1,2.44,2.44l0,0C734.81,348.82,733.72,349.92,732.38,349.92z"/>
				<path style="opacity:0.58;fill:#7F7F7F;enable-background:new    ;" d="M639.68,366.97h-95.3c-0.66,0-1.2-0.54-1.2-1.2v-2.54
					c0-0.66,0.54-1.2,1.2-1.2h95.3c0.66,0,1.2,0.54,1.2,1.2v2.54C640.87,366.43,640.34,366.97,639.68,366.97z"/>
				<path style="opacity:0.58;fill:#7F7F7F;enable-background:new    ;" d="M727.25,454.67h-187.4c-1.34,0-2.44-1.1-2.44-2.44l0,0
					c0-1.34,1.1-2.44,2.44-2.44h187.4c1.34,0,2.44,1.1,2.44,2.44l0,0C729.69,453.57,728.59,454.67,727.25,454.67z"/>
				<path style="opacity:0.58;fill:#7F7F7F;enable-background:new    ;" d="M727.25,471.72h-187.4c-1.34,0-2.44-1.1-2.44-2.44l0,0
					c0-1.34,1.1-2.44,2.44-2.44h187.4c1.34,0,2.44,1.1,2.44,2.44l0,0C729.69,470.63,728.59,471.72,727.25,471.72z"/>
				<path style="opacity:0.58;fill:#7F7F7F;enable-background:new    ;" d="M727.25,489.99h-187.4c-1.34,0-2.44-1.1-2.44-2.44l0,0
					c0-1.34,1.1-2.44,2.44-2.44h187.4c1.34,0,2.44,1.1,2.44,2.44l0,0C729.69,488.9,728.59,489.99,727.25,489.99z"/>
				<path style="opacity:0.58;fill:#7F7F7F;enable-background:new    ;" d="M727.25,507.05h-187.4c-1.34,0-2.44-1.1-2.44-2.44l0,0
					c0-1.34,1.1-2.44,2.44-2.44h187.4c1.34,0,2.44,1.1,2.44,2.44l0,0C729.69,505.95,728.59,507.05,727.25,507.05z"/>
				<path style="opacity:0.58;fill:#7F7F7F;enable-background:new    ;" d="M634.55,524.1h-95.3c-0.66,0-1.2-0.54-1.2-1.2v-2.54
					c0-0.66,0.54-1.2,1.2-1.2h95.3c0.66,0,1.2,0.54,1.2,1.2v2.54C635.75,523.56,635.21,524.1,634.55,524.1z"/>
				<path style="fill:#F9F5E4;" d="M516.84,130.68h-0.32c-1.67,0-3.05-1.37-3.05-3.04l0,0c0-1.67,1.37-3.05,3.05-3.05h0.32
					c1.67,0,3.05,1.37,3.05,3.05l0,0C519.89,129.31,518.52,130.68,516.84,130.68z"/>
				<path style="fill:#F9F5E4;" d="M572.57,129.46h-0.26c-1.34,0-2.44-1.1-2.44-2.44l0,0c0-1.34,1.1-2.44,2.44-2.44h0.26
					c1.34,0,2.44,1.1,2.44,2.44l0,0C575,128.36,573.91,129.46,572.57,129.46z"/>
				<path style="fill:#F9F5E4;" d="M538.02,114.84h-0.38c-2.01,0-3.65-1.64-3.65-3.65l0,0c0-2.01,1.64-3.65,3.65-3.65h0.38
					c2.01,0,3.65,1.64,3.65,3.65l0,0C541.68,113.2,540.03,114.84,538.02,114.84z"/>
				<path style="fill:#F9F5E4;" d="M505.91,151.38h-0.26c-1.34,0-2.44-1.1-2.44-2.44l0,0c0-1.34,1.1-2.44,2.44-2.44h0.26
					c1.34,0,2.44,1.1,2.44,2.44l0,0C508.35,150.29,507.25,151.38,505.91,151.38z"/>
				
					<rect x="645.71" y="517.84" style="opacity:0.58;fill:none;stroke:#7F7F7F;stroke-miterlimit:10;enable-background:new    ;" width="43.43" height="43.43"/>
				
					<rect x="698.87" y="517.09" style="opacity:0.58;fill:none;stroke:#7F7F7F;stroke-miterlimit:10;enable-background:new    ;" width="43.43" height="43.43"/>
				<g>
					<g>
						<path style="fill:#D4B269;" d="M556.15,209.56h2.09v7.95h4.81l-0.24,1.71h-6.66V209.56z"/>
						<path style="fill:#D4B269;" d="M566.44,209.56v9.66h-2.09v-9.66H566.44z"/>
						<path style="fill:#D4B269;" d="M577.63,214.36c0,2.69-1.61,5-4.75,5c-3.03,0-4.62-2.2-4.62-4.97c0-2.81,1.75-4.97,4.75-4.97
							C575.84,209.42,577.63,211.4,577.63,214.36z M570.42,214.35c0,1.89,0.83,3.31,2.54,3.31c1.86,0,2.51-1.56,2.51-3.28
							c0-1.83-0.75-3.26-2.55-3.26C571.18,211.12,570.42,212.47,570.42,214.35z M575.59,217.74l2.75,1.88l-1.21,1.39l-3.41-2.36
							L575.59,217.74z"/>
						<path style="fill:#D4B269;" d="M581.42,209.56v5.75c0,1.85,0.95,2.4,1.99,2.4c1.2,0,1.95-0.65,1.95-2.4v-5.75h2.09v5.65
							c0,3.3-1.93,4.14-4.06,4.14c-2.18,0-4.06-0.88-4.06-4.1v-5.69H581.42z"/>
						<path style="fill:#D4B269;" d="M591.7,209.56v9.66h-2.09v-9.66H591.7z"/>
						<path style="fill:#D4B269;" d="M593.99,209.56h3.83c2.81,0,4.65,1.85,4.65,4.71c0,2.82-1.78,4.95-4.74,4.95h-3.74V209.56z
							 M596.08,217.53h1.57c1.85,0,2.67-1.38,2.67-3.26c0-1.58-0.77-3.03-2.66-3.03h-1.58V217.53z"/>
						<path style="fill:#D4B269;" d="M606.11,216.99l-0.75,2.23h-2.05l3.28-9.66h2.62l3.42,9.66h-2.2l-0.79-2.23H606.11z
							 M609.18,215.28c-0.69-2.04-1.12-3.34-1.36-4.21h-0.01c-0.24,0.95-0.72,2.47-1.27,4.21H609.18z"/>
						<path style="fill:#D4B269;" d="M615.86,211.27h-2.93v-1.71h7.95v1.71h-2.92v7.95h-2.09V211.27z"/>
						<path style="fill:#D4B269;" d="M624.25,209.56v9.66h-2.09v-9.66H624.25z"/>
						<path style="fill:#D4B269;" d="M635.43,214.36c0,2.69-1.61,5-4.75,5c-3.03,0-4.62-2.2-4.62-4.97c0-2.81,1.75-4.97,4.75-4.97
							C633.64,209.42,635.43,211.4,635.43,214.36z M628.22,214.35c0,1.89,0.83,3.31,2.54,3.31c1.86,0,2.51-1.56,2.51-3.28
							c0-1.83-0.75-3.26-2.55-3.26C628.98,211.12,628.22,212.47,628.22,214.35z"/>
						<path style="fill:#D4B269;" d="M637.25,219.22v-9.66h2.59c1.21,2.17,3.44,6.08,3.88,7.13h0.03c-0.11-1.01-0.11-2.69-0.11-4.27
							v-2.86h1.89v9.66h-2.45c-1.04-1.89-3.51-6.38-3.99-7.5h-0.03c0.07,0.84,0.09,2.83,0.09,4.56v2.94H637.25z"/>
						<path style="fill:#D4B269;" d="M651.21,209.56h4c2.05,0,3.45,1.15,3.45,2.99c0,2.1-1.59,3.06-3.49,3.06h-1.86v3.61h-2.09
							V209.56z M653.3,213.95h1.59c0.97,0,1.65-0.37,1.65-1.36c0-1-0.72-1.37-1.61-1.37h-1.64V213.95z"/>
						<path style="fill:#D4B269;" d="M662.39,215.35v3.87h-2.04v-9.66h4.24c2.11,0,3.24,1.16,3.24,2.65c0,1.3-0.71,2-1.4,2.28
							c0.48,0.18,1.2,0.67,1.2,2.4v0.48c0,0.65,0.01,1.39,0.14,1.84h-1.98c-0.17-0.42-0.2-1.14-0.2-2.17v-0.14
							c0-1.06-0.27-1.56-1.82-1.56H662.39z M662.39,213.69h1.75c1.14,0,1.58-0.44,1.58-1.24c0-0.79-0.51-1.23-1.53-1.23h-1.8V213.69
							z"/>
						<path style="fill:#D4B269;" d="M678.51,214.36c0,2.69-1.61,5-4.75,5c-3.03,0-4.62-2.2-4.62-4.97c0-2.81,1.75-4.97,4.75-4.97
							C676.72,209.42,678.51,211.4,678.51,214.36z M671.3,214.35c0,1.89,0.83,3.31,2.54,3.31c1.86,0,2.51-1.56,2.51-3.28
							c0-1.83-0.75-3.26-2.55-3.26C672.06,211.12,671.3,212.47,671.3,214.35z"/>
						<path style="fill:#D4B269;" d="M688.53,216.24c-0.39,1.8-1.75,3.11-4.17,3.11c-3.06,0-4.51-2.17-4.51-4.91
							c0-2.65,1.49-5.02,4.61-5.02c2.57,0,3.82,1.51,4.05,3.12h-2.09c-0.2-0.74-0.72-1.49-2.03-1.49c-1.72,0-2.39,1.55-2.39,3.31
							c0,1.63,0.58,3.35,2.44,3.35c1.36,0,1.79-0.91,1.97-1.48H688.53z"/>
						<path style="fill:#D4B269;" d="M696.94,215.05h-4.62v2.45h5.09l-0.25,1.71h-6.87v-9.66h6.85v1.71h-4.82v2.07h4.62V215.05z"/>
						<path style="fill:#D4B269;" d="M700.36,216.39c0.22,0.97,0.92,1.39,2.03,1.39c1.11,0,1.59-0.44,1.59-1.15
							c0-0.79-0.47-1.13-2.12-1.51c-2.63-0.62-3.28-1.57-3.28-2.88c0-1.68,1.26-2.83,3.54-2.83c2.56,0,3.59,1.38,3.72,2.79h-2.1
							c-0.1-0.59-0.43-1.24-1.67-1.24c-0.85,0-1.36,0.35-1.36,1.04c0,0.67,0.41,0.94,1.97,1.31c2.81,0.66,3.42,1.71,3.42,3.07
							c0,1.76-1.33,2.97-3.89,2.97c-2.45,0-3.74-1.21-3.97-2.97H700.36z"/>
						<path style="fill:#D4B269;" d="M709.25,216.39c0.22,0.97,0.92,1.39,2.03,1.39c1.11,0,1.59-0.44,1.59-1.15
							c0-0.79-0.47-1.13-2.12-1.51c-2.63-0.62-3.28-1.57-3.28-2.88c0-1.68,1.26-2.83,3.54-2.83c2.56,0,3.59,1.38,3.72,2.79h-2.1
							c-0.1-0.59-0.43-1.24-1.67-1.24c-0.85,0-1.36,0.35-1.36,1.04c0,0.67,0.41,0.94,1.97,1.31c2.81,0.66,3.42,1.71,3.42,3.07
							c0,1.76-1.33,2.97-3.89,2.97c-2.45,0-3.74-1.21-3.97-2.97H709.25z"/>
					</g>
				</g>
			</g>
		</g>
		<g>
			<g>
				<path style="fill:#D4B269;" d="M490.45,62.23h6.42c6.94,0,11.41,3.28,11.41,10.7s-4.47,10.89-11.12,10.89h-6.71L490.45,62.23
					L490.45,62.23z M496.56,79.89c3.85,0,6.46-1.8,6.46-6.96s-2.6-6.77-6.46-6.77h-0.97v13.73H496.56z"/>
				<path style="fill:#D4B269;" d="M514.19,62.23h14.23v4.09h-9.1v4.34h7.74v4.09h-7.74v4.97h9.45v4.09h-14.58V62.23z"/>
				<path style="fill:#D4B269;" d="M533.72,73.71h8.56v3.45h-8.56V73.71z"/>
				<path style="fill:#D4B269;" d="M548.07,62.23h8.18c4.82,0,8.77,1.59,8.77,6.72c0,4.96-3.95,7.1-8.77,7.1h-3.04v7.77h-5.14V62.23
					z M555.83,72.18c2.7,0,4.15-1.1,4.15-3.22c0-2.14-1.45-2.85-4.15-2.85h-2.63v6.07H555.83z M555.31,74.77l3.55-3.12l7.25,12.18
					h-5.75L555.31,74.77z"/>
				<path style="fill:#D4B269;" d="M571.04,62.23h14.23v4.09h-9.1v4.34h7.74v4.09h-7.74v4.97h9.45v4.09h-14.58V62.23z"/>
				<path style="fill:#D4B269;" d="M590.67,73.15c0-7.16,5.01-11.32,11.07-11.32c3.3,0,5.64,1.34,7.17,2.8l-2.71,3.13
					c-1.13-0.99-2.34-1.72-4.29-1.72c-3.5,0-5.98,2.61-5.98,6.94c0,4.44,2.12,7.02,6.39,7.02c0.91,0,1.85-0.23,2.41-0.64v-3.73
					h-3.76v-3.98h8.32v9.95c-1.57,1.46-4.33,2.62-7.5,2.62C595.53,84.22,590.67,80.42,590.67,73.15z"/>
				<path style="fill:#D4B269;" d="M615.58,62.23h5.14v21.59h-5.14V62.23z"/>
				<path style="fill:#D4B269;" d="M626.21,81.1l2.95-3.35c1.62,1.34,3.71,2.26,5.58,2.26c2.14,0,3.19-0.8,3.19-2.08
					c0-1.36-1.29-1.8-3.28-2.57l-2.95-1.2c-2.35-0.91-4.58-2.75-4.58-5.89c0-3.58,3.36-6.44,8.09-6.44c2.62,0,5.35,0.98,7.31,2.83
					l-2.59,3.08c-1.5-1.09-2.92-1.69-4.71-1.69c-1.77,0-2.9,0.7-2.9,1.94c0,1.32,1.49,1.81,3.47,2.56l2.89,1.11
					c2.77,1.07,4.51,2.82,4.51,5.87c0,3.59-3.14,6.69-8.56,6.69C631.66,84.22,628.52,83.16,626.21,81.1z"/>
				<path style="fill:#D4B269;" d="M653.1,66.33h-6.25v-4.09h17.64v4.09h-6.25v17.5h-5.14V66.33z"/>
				<path style="fill:#D4B269;" d="M669.64,62.23h8.18c4.82,0,8.77,1.59,8.77,6.72c0,4.96-3.95,7.1-8.77,7.1h-3.04v7.77h-5.14V62.23
					z M677.4,72.18c2.7,0,4.15-1.1,4.15-3.22c0-2.14-1.45-2.85-4.15-2.85h-2.63v6.07H677.4z M676.88,74.77l3.55-3.12l7.25,12.18
					h-5.75L676.88,74.77z"/>
				<path style="fill:#D4B269;" d="M696.84,62.23h6.14l7.13,21.59h-5.44l-2.97-10.93c-0.63-2.16-1.24-4.71-1.84-6.96h-0.14
					c-0.55,2.28-1.16,4.81-1.79,6.96l-2.98,10.93h-5.25L696.84,62.23z M694.41,74.89h10.93v3.79h-10.93V74.89z"/>
				<path style="fill:#D4B269;" d="M718.63,66.33h-6.25v-4.09h17.64v4.09h-6.25v17.5h-5.14V66.33z"/>
				<path style="fill:#D4B269;" d="M735.17,62.23h5.14v21.59h-5.14V62.23z"/>
				<path style="fill:#D4B269;" d="M746.19,72.93c0-7.05,4.19-11.1,10.32-11.1s10.32,4.07,10.32,11.1c0,7.05-4.19,11.29-10.32,11.29
					S746.19,79.99,746.19,72.93z M761.56,72.93c0-4.33-1.96-6.88-5.05-6.88c-3.1,0-5.05,2.56-5.05,6.88c0,4.33,1.96,7.07,5.05,7.07
					C759.61,80.01,761.56,77.26,761.56,72.93z"/>
				<path style="fill:#D4B269;" d="M772.71,62.23h5.26l5.93,10.74l2.25,4.74h0.14c-0.24-2.28-0.66-5.31-0.66-7.85v-7.63h4.89v21.59
					h-5.26l-5.93-10.77l-2.25-4.72h-0.14c0.24,2.38,0.66,5.27,0.66,7.82v7.66h-4.89V62.23z"/>
			</g>
		</g>
		<g>
			<g>
				<path style="fill:#EA9E24;" d="M377.85,450.58L377.85,450.58c2.34-2.91,1.87-7.2-1.04-9.54l-6.48-5.21
					c-2.91-2.34-7.2-1.87-9.54,1.04l0,0c-2.34,2.91-1.87,7.2,1.04,9.54l6.48,5.21C371.22,453.96,375.51,453.49,377.85,450.58z"/>
			</g>
			<g>
				<path style="fill:#F8DE6F;" d="M360.46,437.31l17.02,13.68c-2.4,2.53-6.41,2.85-9.18,0.63l-6.48-5.21
					C359.06,444.19,358.5,440.2,360.46,437.31z"/>
			</g>
			<g>
				<path style="fill:#0F293A;" d="M502.4,558.56l8.38-10.43c1.87-2.33,1.5-5.76-0.83-7.63L382.02,437.64
					c-2.33-1.87-5.76-1.5-7.63,0.83L366,448.9c-1.87,2.33-1.5,5.76,0.83,7.63l127.93,102.86
					C497.09,561.26,500.52,560.89,502.4,558.56z"/>
			</g>
			<g>
				<path style="fill:#1C3E51;" d="M366.75,448.27c0.26-0.51,0.56-1.01,0.94-1.47l1.24-1.55l136.4,109.66l-1.24,1.55
					c-0.37,0.46-0.79,0.87-1.24,1.23L366.75,448.27z"/>
			</g>
			<g>
				<path style="fill:#1C3E51;" d="M365.91,451.81l133.66,107.46c-2.35,0.54-4.91,0.05-6.92-1.57l-123.72-99.47
					C366.92,456.61,365.89,454.21,365.91,451.81z"/>
			</g>
			<g>
				<path style="fill:#EAF2F5;" d="M494.7,557.95c0.01-0.24,5.7-7.14,6.91-8.6c1.17-1.49,6.68-8.53,6.91-8.59
					c0,0,9.83,7.34,16.35,27.19l-4.34-3.39l4.24,3.51C503.98,565.97,494.7,557.95,494.7,557.95z"/>
			</g>
			<g>
				<path style="fill:#A5A7A8;" d="M506.06,563.92c-7.74-2.86-11.35-5.97-11.35-5.97c0-0.08,0.62-0.88,1.49-1.96L506.06,563.92z"/>
			</g>
			<g>
				<path style="fill:#A5A7A8;" d="M498.25,553.43c0.33-0.4,0.65-0.8,0.97-1.19l18.43,14.81c-1.15-0.21-2.25-0.45-3.3-0.69
					L498.25,553.43z"/>
			</g>
			<g>
				<path style="fill:#A5A7A8;" d="M501.31,549.71c0.12-0.14,0.22-0.26,0.3-0.36c1.17-1.49,6.68-8.53,6.91-8.59
					c0,0,9.83,7.34,16.35,27.19l-4.34-3.39l4.24,3.51c-0.24-0.02-0.48-0.05-0.71-0.08L501.31,549.71z"/>
			</g>
			<g>
				<path style="fill:#5F6466;" d="M520.57,566.95c-0.01-0.05,0.95-1.19,1.15-1.43c0.19-0.25,1.1-1.43,1.15-1.43
					c0,0,2.49,1.91,4.8,6.2l-1.11-0.87l1.09,0.89C522.97,568.97,520.57,566.95,520.57,566.95z"/>
			</g>
			<g>
				<path style="fill:#EA9E24;" d="M456.85,528.43l15.36-19.11c0.6-0.75,0.48-1.86-0.27-2.46l0,0c-0.75-0.6-1.86-0.48-2.46,0.27
					l-15.36,19.11c-0.6,0.75-0.48,1.86,0.27,2.46l0,0C455.13,529.3,456.24,529.18,456.85,528.43z"/>
			</g>
			<g>
				<path style="fill:#EA9E24;" d="M496.78,559.12l12.9-16.04c0.98-1.22,0.79-3.02-0.43-4l0,0c-1.22-0.98-3.02-0.79-4,0.43
					l-12.9,16.04c-0.98,1.22-0.79,3.02,0.43,4l0,0C493.99,560.54,495.79,560.34,496.78,559.12z"/>
			</g>
			<g>
				<path style="fill:#EA9E24;" d="M383.82,471.11L400,450.98c0.53-0.66,0.42-1.63-0.23-2.15l0,0c-0.66-0.53-1.63-0.42-2.15,0.23
					l-16.19,20.13c-0.53,0.66-0.42,1.63,0.23,2.15l0,0C382.32,471.88,383.29,471.77,383.82,471.11z"/>
			</g>
			<g>
				<path style="fill:#EA9E24;" d="M376.49,476.74c2.26,1.82,5.57,1.46,7.39-0.8c1.82-2.26,1.46-5.57-0.8-7.39
					c-2.26-1.82-5.57-1.46-7.39,0.8C373.86,471.61,374.22,474.92,376.49,476.74z"/>
			</g>
			<g>
				<path style="fill:#EA9E24;" d="M436.14,526.18c3.46-4.3,1.35-10.89-2.53-15.8c-3.82-4.84-13.9-7.96-24.57-11.26
					c-12.91-4-27.53-8.52-30.47-16.18c-1.08-2.82-0.54-5.99,1.65-9.67c0.46-0.78,0.21-1.79-0.57-2.25s-1.79-0.21-2.25,0.57
					c-2.71,4.54-3.35,8.76-1.9,12.53c3.51,9.14,18.28,13.71,32.57,18.14c10.17,3.15,19.78,6.12,22.96,10.16
					c2.24,2.84,5.54,9.06,2.01,12.27c-0.67,0.61-0.72,1.65-0.11,2.32c0.61,0.67,1.65,0.72,2.32,0.11
					C435.58,526.83,435.88,526.51,436.14,526.18z"/>
			</g>
			<g>
				<path style="fill:#EA9E24;" d="M431.98,530.35c1.98,1.59,4.87,1.28,6.46-0.7c1.59-1.98,1.28-4.87-0.7-6.46s-4.87-1.28-6.46,0.7
					C429.69,525.86,430.01,528.76,431.98,530.35z"/>
			</g>
		</g>
		<circle style="fill:#FFFFFF;" cx="418.38" cy="581.48" r="3.74"/>
		<circle style="fill:#FFFFFF;" cx="350.99" cy="512.59" r="6.74"/>
		<circle style="fill:#FFFFFF;" cx="396.66" cy="535.81" r="2.99"/>
		<circle style="fill:#FFFFFF;" cx="329.28" cy="460.93" r="2.99"/>
		<circle style="fill:#FFFFFF;" cx="852.64" cy="389.8" r="6.74"/>
		<circle style="fill:#FFFFFF;" cx="827.18" cy="341.88" r="2.25"/>
		<circle style="fill:#FFFFFF;" cx="897.56" cy="340.39" r="3.74"/>
		<circle style="fill:#FFFFFF;" cx="913.29" cy="297.71" r="1.5"/>
		<circle style="fill:#FFFFFF;" cx="416.88" cy="252.04" r="2.25"/>
		<circle style="fill:#FFFFFF;" cx="432.6" cy="288.73" r="2.99"/>
		<g>
			<rect x="890.94" y="476.6" style="fill:#4A475C;" width="124.18" height="65.77"/>
			<rect x="890.94" y="520" style="fill:#2B2647;" width="124.18" height="22.37"/>
			<rect x="890.94" y="475.38" style="fill:#F9F5F4;" width="34.61" height="66.99"/>
			<path style="fill:#F9F5F4;" d="M952.46,497.3c0,2.69-2.3,4.87-5.13,4.87s-5.13-2.18-5.13-4.87s2.3-4.87,5.13-4.87
				C950.17,492.43,952.46,494.61,952.46,497.3z"/>
			<rect x="803.91" y="466.85" style="fill:#FFBA93;" width="92.8" height="76.74"/>
			<path style="fill:#FFAB7E;" d="M851.2,468.07c-13.15-0.45-8.49,14.06-5.12,20.56c6.7,12.94,20.8,18.55,34.53,22.41
				c-10.11,2.85-23.65-1-34.6,2.44c-9.4,2.95-13.52,12.39-23.65,11.84c-15.25-0.82-21.28-36.59-3.3-37.97
				c-5.48-4.96-7.37-11.59-6.12-19.07C823.42,464.72,837.49,466.85,851.2,468.07z"/>
			<path style="fill:#FFBA93;" d="M885.08,479.03H760.55c-6.11,0-11.1-5-11.1-11.1V454.8c0-6.11,5-11.1,11.1-11.1h124.53
				c6.11,0,11.1,5,11.1,11.1v13.12C896.18,474.03,891.19,479.03,885.08,479.03z"/>
		</g>
		<g>
			<rect x="264.89" y="364.9" style="fill:#4A475C;" width="122.19" height="65.97"/>
			<rect x="264.89" y="408.44" style="fill:#2B2647;" width="122.19" height="22.43"/>
			<rect x="352.37" y="363.69" style="fill:#F9F5F4;" width="34.71" height="67.19"/>
			<ellipse style="fill:#F9F5F4;" cx="330.51" cy="385.67" rx="5.14" ry="4.89"/>
			<rect x="382.79" y="355.13" style="fill:#FFBA93;" width="93.08" height="76.97"/>
			<path style="fill:#FFAB7E;" d="M426.94,356.35c13.19-0.45,8.51,14.1,5.14,20.62c-6.72,12.98-20.86,18.6-34.64,22.48
				c10.14,2.85,23.72-1,34.7,2.45c9.43,2.96,13.56,12.43,23.72,11.88c15.3-0.82,21.35-36.7,3.31-38.08
				c5.49-4.97,7.39-11.63,6.14-19.13C454.8,352.99,440.69,355.13,426.94,356.35z"/>
			<path style="fill:#FFBA93;" d="M392.96,367.35h124.9c6.12,0,11.14-5.01,11.14-11.14v-13.16c0-6.12-5.01-11.14-11.14-11.14h-124.9
				c-6.13,0-11.14,5.01-11.14,11.14v13.16C381.82,362.34,386.83,367.35,392.96,367.35z"/>
		</g>
		<path style="opacity:0.76;fill:#FFF8EA;enable-background:new    ;" d="M514.21,357.61h-4.49c-5.35,0-9.73-4.38-9.73-9.73l0,0
			c0-5.35,4.38-9.73,9.73-9.73h4.49c5.35,0,9.73,4.38,9.73,9.73l0,0C523.95,353.23,519.57,357.61,514.21,357.61z"/>
		<path style="opacity:0.76;fill:#FFF8EA;enable-background:new    ;" d="M769.53,468.42h-4.49c-5.35,0-9.73-4.38-9.73-9.73l0,0
			c0-5.35,4.38-9.73,9.73-9.73h4.49c5.35,0,9.73,4.38,9.73,9.73l0,0C779.26,464.04,774.88,468.42,769.53,468.42z"/>
		<g>
			
				<line style="fill:none;stroke:#FF0A48;stroke-width:3;stroke-linecap:round;stroke-linejoin:round;stroke-miterlimit:10;" x1="652.43" y1="526.7" x2="682.38" y2="552.16"/>
			
				<line style="fill:none;stroke:#FF0A48;stroke-width:3;stroke-linecap:round;stroke-linejoin:round;stroke-miterlimit:10;" x1="682.38" y1="526.7" x2="652.43" y2="552.16"/>
		</g>
		<g>
			
				<line style="fill:none;stroke:#FF0A48;stroke-width:3;stroke-linecap:round;stroke-linejoin:round;stroke-miterlimit:10;" x1="705.57" y1="526.7" x2="735.52" y2="552.16"/>
			
				<line style="fill:none;stroke:#FF0A48;stroke-width:3;stroke-linecap:round;stroke-linejoin:round;stroke-miterlimit:10;" x1="735.52" y1="526.7" x2="705.57" y2="552.16"/>
		</g>
	</g>
</g>
<g id="DESIGNED_BY_FREEPIK">
</g>
</svg>
