<?xml version="1.0" encoding="utf-8"?>
<!-- Generator: Adobe Illustrator 26.0.0, SVG Export Plug-In . SVG Version: 6.00 Build 0)  -->
<svg version="1.1" id="Layer_1" xmlns="http://www.w3.org/2000/svg" xmlns:xlink="http://www.w3.org/1999/xlink" x="0px" y="0px"
	 viewBox="0 0 1280 673" style="enable-background:new 0 0 1280 673;" xml:space="preserve">
<style type="text/css">
	.st0{fill:#FBF8E8;}
	.st1{opacity:0.32;fill:#D0A967;}
	.st2{fill:#838383;}
	.st3{fill:#D0A967;}
	.st4{fill:#B8B8B8;}
	.st5{fill:#FFB93E;}
	.st6{fill:#FFA412;}
	.st7{fill:#ED7D2B;}
	.st8{fill:#2E5A99;}
	.st9{fill:#18417C;}
	.st10{fill:#FFB27D;}
	.st11{fill:#F99746;}
	.st12{fill:#FCA56B;}
	.st13{fill:#163560;}
	.st14{fill:#FFEDDC;}
	.st15{fill:#DB6A1D;}
	.st16{fill:#E5C1A1;}
	.st17{fill:#F9DDBF;}
	.st18{opacity:0.5;fill:#E2810E;}
	.st19{fill:#E2810E;}
	.st20{opacity:0.7;}
	.st21{fill:#E8945B;}
	.st22{fill:#EBF3FA;}
	.st23{fill:#FFFFFF;}
	.st24{fill:#95C0F4;}
	.st25{fill:#B0D4FF;}
	.st26{fill:#B5453C;}
	.st27{fill:#ED975D;}
	.st28{fill:#6C6C6C;}
	.st29{opacity:0.94;fill:#D0A967;}
	.st30{fill:#F77D48;}
	.st31{fill:#2E3552;}
	.st32{fill:#D4B269;}
</style>
<rect x="0.7" class="st0" width="1279.3" height="673"/>
<g>
	<path class="st1" d="M200.7,584.2c0.2-3.6-85.4-112.8,14.3-213.6c45-45.5,121.1-20.8,109-153.7c-10.4-114.7,169.1-182.2,280.7-79.7
		c72.1,66.2,145-22.1,259.4,28c114.3,50.1,39,186.3,86,199.1c92.4,25.3,138.3,136.5,64.6,218.7L200.7,584.2z"/>
	<g>
		<path class="st2" d="M586,318.9c-0.5-1-1-2-1.6-3l1.6-0.9c0.6,1,1.1,2.1,1.6,3.1L586,318.9z M582.6,313c-0.6-0.9-1.3-1.9-1.9-2.8
			l1.5-1.1c0.7,1,1.4,1.9,2,2.9L582.6,313z M398.7,333.4c-1.2,0.1-2.3,0.2-3.5,0.3l-0.1-1.8c1.1-0.1,2.3-0.2,3.4-0.3L398.7,333.4z
			 M402.2,332.9l-0.3-1.8c1.1-0.2,2.2-0.4,3.4-0.6l0.4,1.8C404.5,332.5,403.3,332.7,402.2,332.9z M391.7,333.8c-1.2,0-2.4,0-3.5-0.1
			l0.1-1.8c1.1,0.1,2.3,0.1,3.4,0.1L391.7,333.8z M409.1,331.5l-0.4-1.8c1.1-0.3,2.2-0.6,3.3-0.9l0.5,1.8
			C411.3,331,410.2,331.3,409.1,331.5z M384.7,333.4c-1.2-0.1-2.3-0.3-3.5-0.5l0.3-1.8c1.1,0.2,2.2,0.3,3.4,0.4L384.7,333.4z
			 M415.8,329.6l-0.6-1.8c1.1-0.4,2.2-0.7,3.2-1.1l0.6,1.7C418,328.9,416.9,329.2,415.8,329.6z M422.4,327.2l-0.7-1.7
			c1-0.4,2.1-0.9,3.2-1.4l0.8,1.7C424.5,326.3,423.4,326.7,422.4,327.2z M377.7,332.3c-1.2-0.3-2.3-0.6-3.4-0.9l0.5-1.8
			c1.1,0.3,2.2,0.6,3.3,0.9L377.7,332.3z M578.6,307.4c-0.7-0.9-1.5-1.7-2.2-2.6l1.4-1.2c0.8,0.9,1.6,1.8,2.3,2.7L578.6,307.4z
			 M428.8,324.3l-0.8-1.7c1-0.5,2.1-1,3.1-1.5l0.9,1.6C430.8,323.3,429.8,323.8,428.8,324.3z M371,330.3c-1.1-0.4-2.2-0.9-3.3-1.3
			l0.8-1.7c1,0.5,2.1,0.9,3.1,1.3L371,330.3z M435,321.1l-0.9-1.6c1-0.6,2-1.1,3-1.7l0.9,1.6C437,319.9,436,320.5,435,321.1z
			 M574,302.4c-0.8-0.8-1.6-1.6-2.5-2.4l1.2-1.4c0.9,0.8,1.7,1.6,2.6,2.4L574,302.4z M364.5,327.4c-1-0.6-2.1-1.2-3-1.8l1-1.6
			c0.9,0.6,1.9,1.2,2.9,1.7L364.5,327.4z M441,317.5l-1-1.6c1-0.6,1.9-1.2,2.9-1.9l1,1.5C442.9,316.3,441.9,316.9,441,317.5z
			 M446.8,313.6l-1.1-1.5c0.9-0.7,1.9-1.3,2.8-2l1.1,1.5C448.7,312.3,447.7,313,446.8,313.6z M358.6,323.6c-0.9-0.7-1.9-1.5-2.7-2.2
			l1.2-1.4c0.8,0.7,1.7,1.5,2.6,2.1L358.6,323.6z M568.9,297.8c-0.9-0.7-1.8-1.4-2.7-2.1l1.1-1.5c0.9,0.7,1.9,1.4,2.8,2.2
			L568.9,297.8z M452.4,309.5l-1.1-1.5l0.3-0.2c0.8-0.6,1.7-1.3,2.5-1.9l1.1,1.5c-0.8,0.6-1.6,1.2-2.5,1.9L452.4,309.5z
			 M563.4,293.7c-0.9-0.6-1.9-1.3-2.9-1.8l1-1.6c1,0.6,2,1.2,3,1.9L563.4,293.7z M353.3,318.9c-0.8-0.8-1.6-1.7-2.4-2.6l1.4-1.2
			c0.7,0.9,1.5,1.7,2.3,2.5L353.3,318.9z M457.9,305.4l-1.1-1.5c0.9-0.7,1.9-1.4,2.9-2l1.1,1.5C459.8,304,458.9,304.7,457.9,305.4z
			 M557.5,290.2c-1-0.5-2-1.1-3-1.6l0.8-1.7c1.1,0.5,2.1,1,3.1,1.6L557.5,290.2z M463.6,301.4l-1-1.5c1-0.6,2-1.3,2.9-1.9l1,1.6
			C465.5,300.2,464.6,300.8,463.6,301.4z M348.8,313.5c-0.7-1-1.3-2-1.9-3l1.6-0.9c0.6,1,1.2,1.9,1.8,2.9L348.8,313.5z M469.4,297.8
			l-1-1.6c1-0.6,2-1.2,3-1.8l0.9,1.6C471.4,296.6,470.4,297.2,469.4,297.8z M551.4,287.2c-1-0.4-2.1-0.9-3.2-1.3l0.6-1.7
			c1.1,0.4,2.2,0.8,3.3,1.3L551.4,287.2z M475.4,294.4l-0.9-1.6c1-0.5,2.1-1.1,3.1-1.6l0.8,1.7C477.5,293.3,476.4,293.8,475.4,294.4
			z M544.9,284.8c-1.1-0.3-2.2-0.7-3.3-1l0.5-1.8c1.1,0.3,2.3,0.6,3.4,1L544.9,284.8z M481.6,291.3l-0.8-1.7c1.1-0.5,2.1-1,3.2-1.4
			l0.7,1.7C483.7,290.3,482.6,290.8,481.6,291.3z M345.2,307.3c-0.5-1.1-1-2.1-1.4-3.2l1.7-0.7c0.4,1.1,0.9,2.1,1.4,3.1L345.2,307.3
			z M538.3,283.1c-1.1-0.2-2.2-0.5-3.4-0.6l0.3-1.8c1.2,0.2,2.3,0.4,3.4,0.7L538.3,283.1z M487.9,288.5l-0.7-1.7
			c1.1-0.4,2.2-0.9,3.3-1.3l0.6,1.7C490,287.7,489,288.1,487.9,288.5z M531.6,281.9c-1.1-0.1-2.3-0.2-3.4-0.3l0.1-1.8
			c1.2,0.1,2.3,0.2,3.5,0.3L531.6,281.9z M494.4,286.2l-0.6-1.8c1.1-0.4,2.2-0.7,3.3-1l0.5,1.8C496.6,285.5,495.5,285.8,494.4,286.2
			z M524.7,281.4c-1.1,0-2.3,0-3.4,0l0-1.9c1.2,0,2.4,0,3.5,0L524.7,281.4z M501,284.2l-0.5-1.8c1.1-0.3,2.3-0.6,3.4-0.8l0.4,1.8
			C503.2,283.7,502.1,283.9,501,284.2z M517.9,281.5c-1.1,0.1-2.3,0.2-3.4,0.3l-0.2-1.8c1.2-0.1,2.3-0.2,3.5-0.3L517.9,281.5z
			 M507.7,282.8l-0.3-1.8c1.2-0.2,2.3-0.4,3.5-0.6l0.3,1.8C509.9,282.4,508.8,282.6,507.7,282.8z M342.6,300.8
			c-0.3-1.1-0.6-2.3-0.9-3.4l1.8-0.4c0.2,1.1,0.5,2.2,0.9,3.3L342.6,300.8z M341.1,293.9c-0.1-0.4-0.1-0.9-0.2-1.3
			c-0.1-0.7-0.2-1.5-0.2-2.2l1.8-0.1c0.1,0.7,0.1,1.4,0.2,2.2c0,0.4,0.1,0.8,0.2,1.2L341.1,293.9z M342.4,286.8l-1.9,0
			c0-1.2,0-2.3,0.1-3.5l1.8,0.1C342.4,284.5,342.4,285.7,342.4,286.8z M342.8,280l-1.8-0.2c0.1-1.1,0.3-2.3,0.5-3.4l1.8,0.3l0,0.1
			C343.1,277.8,342.9,278.9,342.8,280z M344,273.3l-1.8-0.4c0.3-1.1,0.5-2.3,0.8-3.4l1.8,0.5C344.5,271,344.2,272.2,344,273.3z
			 M407.3,263.9c-1.2,0.1-2.4,0.1-3.6,0.1l0.1-1.8c1.1,0.1,2.2,0,3.3-0.1L407.3,263.9z M410.9,263.3l-0.4-1.8
			c1.1-0.2,2.2-0.5,3.2-0.9l0.6,1.8C413.2,262.8,412,263.1,410.9,263.3z M400.1,263.5c-1.2-0.3-2.4-0.6-3.5-1.1l0.7-1.7
			c1,0.4,2,0.8,3.1,1L400.1,263.5z M417.6,261.1l-0.8-1.7c1-0.5,2-1,3-1.5l0.9,1.6C419.8,260,418.7,260.6,417.6,261.1z M423.8,257.5
			l-1.1-1.5c0.9-0.6,1.8-1.3,2.7-2.1l1.2,1.4C425.7,256.1,424.8,256.9,423.8,257.5z M345.8,266.7l-1.8-0.6c0.4-1.1,0.7-2.2,1.1-3.3
			l1.7,0.6C346.5,264.5,346.1,265.6,345.8,266.7z M393.5,260.6c-1-0.7-1.9-1.6-2.7-2.5l1.4-1.2c0.7,0.8,1.5,1.6,2.4,2.2L393.5,260.6
			z M429.2,252.9l-1.3-1.3c0.8-0.8,1.5-1.7,2.2-2.5l1.5,1.1C430.8,251.2,430,252.1,429.2,252.9z M348.2,260.2l-1.7-0.7
			c0.5-1.1,0.9-2.2,1.4-3.2l1.7,0.8C349.1,258.1,348.6,259.2,348.2,260.2z M388.8,255c-0.5-1-1-2.2-1.4-3.4l1.8-0.5
			c0.3,1.1,0.8,2.1,1.2,3L388.8,255z M433.6,247.3l-1.6-1c0.6-1,1.1-1.9,1.6-2.9l1.7,0.8C434.8,245.3,434.2,246.3,433.6,247.3z
			 M351.1,254l-1.6-0.9c0.5-1,1.1-2.1,1.7-3.1l1.6,0.9C352.2,252,351.6,253,351.1,254z M386.6,248.1c-0.1-0.3-0.1-0.6-0.1-1
			c-0.1-0.8-0.2-1.7-0.2-2.6l1.9-0.1c0,0.8,0.1,1.6,0.2,2.4c0,0.3,0.1,0.6,0.1,0.9L386.6,248.1z M436.7,240.9l-1.8-0.6
			c0.4-1.1,0.7-2.1,0.9-3.2l1.8,0.4C437.4,238.6,437.1,239.8,436.7,240.9z M354.6,248.2l-1.5-1c0.6-1,1.3-1.9,2-2.9l1.5,1.1
			C355.9,246.3,355.2,247.2,354.6,248.2z M388.1,241.1l-1.8-0.1c0-1.2,0.1-2.4,0.3-3.5l1.8,0.2C388.3,238.8,388.2,240,388.1,241.1z
			 M438.2,233.9l-1.8-0.2c0.1-1.1,0.1-2.2,0.1-3.3l1.9-0.1C438.3,231.5,438.3,232.8,438.2,233.9z M358.7,242.6l-1.4-1.2
			c0.7-0.9,1.5-1.8,2.3-2.7l1.4,1.2C360.1,240.9,359.4,241.7,358.7,242.6z M363.2,237.5l-1.3-1.3c0.8-0.8,1.6-1.7,2.5-2.5l1.3,1.3
			C364.8,235.9,364,236.7,363.2,237.5z M388.9,234.4l-1.8-0.3c0.2-1.2,0.5-2.3,0.8-3.4l1.8,0.5C389.3,232.1,389.1,233.3,388.9,234.4
			z M436,227.2c-0.3-1.1-0.6-2.1-1.1-3.1l1.7-0.8c0.5,1.1,1,2.2,1.2,3.5L436,227.2z M368.2,232.8l-1.2-1.4c0.9-0.8,1.8-1.5,2.7-2.2
			l1.2,1.5C369.9,231.3,369,232,368.2,232.8z M390.6,227.8l-1.7-0.6c0.4-1.1,0.8-2.2,1.3-3.3l1.7,0.8
			C391.4,225.7,391,226.8,390.6,227.8z M433.1,221.4c-0.7-0.8-1.5-1.6-2.4-2.2l1.1-1.5c1,0.8,1.9,1.6,2.7,2.5L433.1,221.4z
			 M373.5,228.5l-1.1-1.5c0.9-0.7,1.9-1.4,2.9-2l1,1.5C375.4,227.2,374.4,227.8,373.5,228.5z M379.2,224.7l-1-1.6c1-0.6,2-1.2,3-1.7
			l0.9,1.6C381.2,223.6,380.2,224.1,379.2,224.7z M393.4,221.7l-1.6-0.9c0.5-0.9,1-1.8,1.6-2.7c-0.6,0.2-1.2,0.4-1.8,0.7l-0.7-1.7
			c1.1-0.4,2.2-0.8,3.3-1.2l0.6,1.8c-0.3,0.1-0.6,0.2-0.9,0.3l1.3,0.9C394.5,219.7,393.9,220.7,393.4,221.7z M428,217.4
			c-0.9-0.5-2-0.9-3.1-1.3l0.6-1.8c1.2,0.4,2.3,0.9,3.3,1.4L428,217.4z M385.3,221.5l-0.8-1.7c1-0.5,2.1-1,3.2-1.5l0.7,1.7
			C387.3,220.5,386.3,221,385.3,221.5z M421.7,215.2c-1.1-0.2-2.2-0.4-3.3-0.5l0.2-1.8c1.2,0.1,2.4,0.3,3.5,0.6L421.7,215.2z
			 M398.1,216.6l-0.4-1.3c-0.2,0.2-0.4,0.5-0.6,0.7l-1.5-1.1c0.7-0.9,1.5-1.8,2.3-2.7l1.4,1.2c-0.4,0.4-0.7,0.8-1.1,1.3
			c0.9-0.2,1.9-0.5,2.8-0.7l0.4,1.8C400.3,216,399.2,216.3,398.1,216.6z M414.9,214.4c-1.1,0-2.2,0-3.4,0l-0.1-1.8
			c1.2,0,2.4-0.1,3.5,0L414.9,214.4z M404.8,215.1l-0.3-1.8c1.2-0.2,2.3-0.4,3.5-0.5l0.2,1.8C407,214.8,405.9,215,404.8,215.1z
			 M401.7,211l-1.3-1.3c0.8-0.8,1.7-1.6,2.6-2.4l1.2,1.4C403.3,209.4,402.5,210.2,401.7,211z M406.9,206.5l-1.1-1.5
			c0.9-0.7,1.9-1.4,2.9-2l1,1.5C408.7,205.2,407.8,205.9,406.9,206.5z M412.5,202.7l-1-1.6c1-0.6,2-1.2,3.1-1.7l0.9,1.6
			C414.5,201.6,413.5,202.2,412.5,202.7z M418.6,199.5l-0.8-1.7c1-0.5,2.1-1,3.2-1.5l0.7,1.7C420.6,198.5,419.6,199,418.6,199.5z
			 M424.9,196.7l-0.7-1.7c1.1-0.4,2.2-0.8,3.3-1.2l0.6,1.7C427,195.9,425.9,196.3,424.9,196.7z M431.3,194.4l-0.6-1.8
			c1.1-0.4,2.2-0.7,3.3-1l0.5,1.8C433.5,193.7,432.4,194,431.3,194.4z M438,192.4l-0.5-1.8c1.1-0.3,2.3-0.6,3.4-0.8l0.4,1.8
			C440.2,191.9,439.1,192.2,438,192.4z M444.7,190.9l-0.4-1.8c1.2-0.2,2.3-0.4,3.4-0.6l0.3,1.8C447,190.5,445.8,190.7,444.7,190.9z
			 M454.9,189.3c0,0-1.3,0.1-3.4,0.4l-0.3-1.8c2.2-0.3,3.5-0.4,3.5-0.4L454.9,189.3z"/>
	</g>
	<rect x="390.2" y="393.2" class="st3" width="73.7" height="189.1"/>
	<rect x="504.8" y="331.4" class="st3" width="73.7" height="250.9"/>
	<rect x="609" y="264.7" class="st3" width="80.6" height="317.7"/>
	<rect x="718.4" y="220.7" class="st3" width="73.7" height="361.6"/>
	<g>
		<polygon class="st4" points="689.6,370.6 844.4,295.6 775.4,442.8 763.7,376 		"/>
	</g>
	<g>
		<path class="st5" d="M654,320.4c-3.8-15.6,5.8-31.3,21.3-35c15.6-3.8,31.3,5.8,35,21.3c3.8,15.6-5.8,31.3-21.3,35
			S657.8,336,654,320.4z"/>
		<g>
			<path class="st6" d="M688.5,339.6c-6.9,1.7-14,0.6-20-3.1c-6-3.7-10.3-9.5-11.9-16.3c-1.7-6.9-0.6-14,3.1-20
				c3.7-6,9.5-10.3,16.3-11.9c6.9-1.7,14-0.6,20,3.1c6,3.7,10.3,9.5,11.9,16.3c1.7,6.9,0.6,14-3.1,20
				C701.2,333.7,695.4,337.9,688.5,339.6z M676.4,289.7c-13.3,3.2-21.5,16.7-18.3,30c3.2,13.3,16.7,21.5,30,18.3
				c13.3-3.2,21.5-16.7,18.3-30C703.2,294.7,689.7,286.5,676.4,289.7z"/>
		</g>
		<g>
			<path class="st6" d="M687.6,320.5c-0.1-0.6-0.2-1.1-0.4-1.5c-0.2-0.4-0.5-0.8-0.9-1.1c-0.4-0.3-0.9-0.6-1.5-0.8
				c-0.6-0.2-1.4-0.4-2.2-0.6c-1.5-0.3-2.9-0.7-4.1-1.1c-1.2-0.4-2.3-0.9-3.2-1.5c-0.9-0.6-1.7-1.4-2.2-2.3c-0.6-0.9-0.9-2-1.1-3.4
				c-0.1-1.2-0.1-2.2,0.2-3.2c0.3-1,0.8-1.9,1.5-2.7c0.7-0.8,1.5-1.5,2.5-2.1c1-0.6,2.2-1,3.5-1.3l-0.5-4.4l3.5-0.4l0.5,4.4
				c1.3,0,2.5,0.2,3.5,0.6c1.1,0.4,2,0.9,2.8,1.6c0.8,0.7,1.5,1.6,2,2.6c0.5,1,0.9,2.2,1,3.6l-6.3,0.8c-0.2-1.6-0.7-2.8-1.5-3.5
				c-0.8-0.7-1.8-1-3-0.9c-0.7,0.1-1.2,0.2-1.7,0.5c-0.5,0.2-0.8,0.5-1.1,0.9c-0.3,0.4-0.4,0.8-0.5,1.2c-0.1,0.5-0.1,0.9,0,1.4
				c0.1,0.5,0.2,0.9,0.4,1.3c0.2,0.4,0.5,0.7,0.9,1c0.4,0.3,0.9,0.6,1.5,0.8c0.6,0.2,1.4,0.5,2.3,0.7c1.5,0.4,2.8,0.7,4.1,1.2
				c1.2,0.4,2.3,0.9,3.2,1.6c0.9,0.6,1.7,1.4,2.2,2.3c0.6,0.9,0.9,2,1.1,3.3c0.1,1.2,0.1,2.3-0.2,3.3c-0.3,1-0.8,1.9-1.5,2.7
				c-0.7,0.8-1.5,1.5-2.5,2c-1,0.6-2.2,1-3.5,1.2l0.5,4l-3.5,0.4l-0.5-4c-1.2,0-2.4-0.1-3.6-0.4c-1.2-0.3-2.3-0.7-3.2-1.4
				c-1-0.7-1.8-1.5-2.5-2.6c-0.7-1.1-1.1-2.5-1.3-4.1l6.3-0.8c0.1,1,0.3,1.8,0.7,2.4c0.3,0.6,0.8,1.1,1.3,1.4c0.5,0.3,1,0.5,1.6,0.6
				c0.6,0.1,1.2,0.1,1.8,0c0.7-0.1,1.3-0.2,1.8-0.5c0.5-0.2,0.9-0.5,1.2-0.9c0.3-0.4,0.5-0.8,0.7-1.2
				C687.7,321.5,687.7,321,687.6,320.5z"/>
		</g>
	</g>
	<g>
		
			<ellipse transform="matrix(0.6662 -0.7458 0.7458 0.6662 101.8489 701.7299)" class="st5" cx="834.9" cy="237.1" rx="28.2" ry="28.2"/>
		<g>
			<path class="st6" d="M835.9,263.1c-6.9,0.3-13.4-2.2-18.5-6.8c-5-4.7-8-11-8.2-17.9c-0.3-6.9,2.2-13.4,6.8-18.5
				c4.7-5,11-8,17.9-8.2c6.9-0.3,13.4,2.2,18.5,6.8c5,4.7,8,11,8.2,17.9c0.3,6.9-2.2,13.4-6.8,18.5
				C849.1,259.9,842.7,262.9,835.9,263.1z M833.9,213.2c-13.3,0.5-23.8,11.8-23.2,25.1c0.5,13.3,11.8,23.8,25.1,23.2
				c13.3-0.5,23.8-11.8,23.2-25.1C858.5,223.1,847.3,212.7,833.9,213.2z"/>
		</g>
		<g>
			<path class="st6" d="M838.7,244.7c0-0.6,0-1.1-0.1-1.5c-0.1-0.4-0.4-0.8-0.7-1.2c-0.3-0.4-0.8-0.7-1.3-1.1c-0.5-0.3-1.2-0.7-2-1
				c-1.4-0.6-2.6-1.2-3.7-1.8c-1.1-0.6-2-1.3-2.8-2.1c-0.8-0.8-1.3-1.6-1.7-2.6c-0.4-1-0.5-2.1-0.4-3.4c0.1-1.1,0.4-2.1,0.8-3
				c0.5-0.9,1.1-1.7,1.9-2.3c0.8-0.6,1.7-1.1,2.8-1.5c1.1-0.3,2.3-0.5,3.5-0.6l0.3-4.3l3.4,0.3l-0.3,4.3c1.2,0.3,2.3,0.7,3.3,1.2
				c1,0.6,1.8,1.3,2.4,2.1c0.6,0.8,1.1,1.8,1.4,2.9c0.3,1.1,0.4,2.3,0.3,3.6l-6.2-0.5c0.1-1.6-0.1-2.8-0.8-3.7
				c-0.6-0.8-1.6-1.3-2.7-1.4c-0.6-0.1-1.2,0-1.7,0.1c-0.5,0.1-0.9,0.4-1.2,0.6c-0.3,0.3-0.6,0.6-0.8,1.1c-0.2,0.4-0.3,0.9-0.3,1.4
				c0,0.5,0,0.9,0.1,1.3c0.1,0.4,0.3,0.8,0.7,1.2c0.3,0.4,0.8,0.7,1.3,1.1c0.6,0.3,1.2,0.7,2.1,1.1c1.3,0.6,2.6,1.3,3.7,1.9
				c1.1,0.6,2,1.3,2.8,2.1c0.8,0.8,1.3,1.7,1.7,2.6c0.4,1,0.5,2.1,0.4,3.4c-0.1,1.2-0.4,2.2-0.9,3.1c-0.5,0.9-1.1,1.7-1.9,2.3
				c-0.8,0.6-1.7,1.1-2.8,1.4c-1.1,0.3-2.3,0.5-3.6,0.5l-0.3,4l-3.4-0.3l0.3-3.9c-1.2-0.2-2.3-0.6-3.4-1c-1.1-0.5-2-1.1-2.8-2
				c-0.8-0.8-1.4-1.8-1.8-3c-0.4-1.2-0.6-2.6-0.4-4.2l6.2,0.5c-0.1,0.9,0,1.7,0.2,2.4c0.2,0.7,0.5,1.2,0.9,1.6
				c0.4,0.4,0.9,0.7,1.4,0.9c0.6,0.2,1.1,0.3,1.7,0.4c0.7,0.1,1.3,0,1.8-0.1c0.5-0.1,1-0.3,1.3-0.6c0.4-0.3,0.7-0.6,0.9-1
				C838.5,245.7,838.7,245.2,838.7,244.7z"/>
		</g>
	</g>
	<g>
		<path class="st5" d="M766.8,288.3c-0.2-10.8,8.4-19.6,19.1-19.8c10.8-0.2,19.6,8.4,19.8,19.1c0.2,10.8-8.4,19.6-19.1,19.8
			C775.8,307.6,767,299.1,766.8,288.3z"/>
		<g>
			<path class="st6" d="M786.6,305.9c-4.7,0.1-9.2-1.7-12.6-5c-3.4-3.3-5.3-7.7-5.4-12.5c-0.1-4.7,1.7-9.2,5-12.6
				c3.3-3.4,7.7-5.3,12.5-5.4c4.7-0.1,9.2,1.7,12.6,5c3.4,3.3,5.3,7.7,5.4,12.5c0.1,4.7-1.7,9.2-5,12.6
				C795.7,303.9,791.3,305.9,786.6,305.9z M786,271.5c-9.2,0.2-16.6,7.8-16.4,17c0.2,9.2,7.8,16.6,17,16.4c9.2-0.2,16.6-7.8,16.4-17
				C802.8,278.7,795.2,271.3,786,271.5z"/>
		</g>
		<g>
			<path class="st6" d="M788.8,293.3c0-0.4,0-0.7-0.1-1c-0.1-0.3-0.2-0.6-0.5-0.8c-0.2-0.3-0.5-0.5-0.9-0.8
				c-0.4-0.2-0.8-0.5-1.4-0.7c-0.9-0.4-1.8-0.9-2.5-1.3c-0.8-0.4-1.4-0.9-1.9-1.5c-0.5-0.5-0.9-1.2-1.1-1.8
				c-0.2-0.7-0.3-1.5-0.2-2.4c0.1-0.8,0.3-1.5,0.6-2.1c0.3-0.6,0.8-1.1,1.3-1.6c0.6-0.4,1.2-0.7,2-1c0.7-0.2,1.6-0.3,2.5-0.3
				l0.3-2.9l2.4,0.2l-0.3,3c0.8,0.2,1.6,0.5,2.2,0.9c0.7,0.4,1.2,0.9,1.6,1.5c0.4,0.6,0.7,1.3,0.9,2c0.2,0.8,0.2,1.6,0.1,2.5
				l-4.3-0.4c0.1-1.1-0.1-1.9-0.5-2.5c-0.4-0.6-1.1-0.9-1.9-1c-0.4,0-0.8,0-1.2,0.1c-0.3,0.1-0.6,0.2-0.8,0.4
				c-0.2,0.2-0.4,0.4-0.5,0.7c-0.1,0.3-0.2,0.6-0.2,0.9c0,0.3,0,0.6,0.1,0.9c0.1,0.3,0.2,0.6,0.4,0.8c0.2,0.3,0.5,0.5,0.9,0.8
				c0.4,0.2,0.9,0.5,1.4,0.8c0.9,0.5,1.7,0.9,2.5,1.4c0.7,0.5,1.4,1,1.9,1.5c0.5,0.5,0.9,1.2,1.1,1.8c0.2,0.7,0.3,1.5,0.2,2.3
				c-0.1,0.8-0.3,1.5-0.6,2.1c-0.3,0.6-0.8,1.1-1.4,1.5c-0.6,0.4-1.2,0.7-2,0.9c-0.8,0.2-1.6,0.3-2.5,0.3l-0.3,2.7l-2.3-0.2l0.3-2.7
				c-0.8-0.2-1.6-0.4-2.3-0.8c-0.7-0.4-1.4-0.8-1.9-1.4c-0.5-0.6-0.9-1.3-1.2-2.1c-0.3-0.8-0.4-1.8-0.2-2.9l4.3,0.4
				c-0.1,0.6,0,1.2,0.1,1.7c0.1,0.5,0.3,0.8,0.6,1.1c0.3,0.3,0.6,0.5,1,0.7c0.4,0.1,0.8,0.2,1.2,0.3c0.5,0,0.9,0,1.2-0.1
				c0.4-0.1,0.7-0.2,0.9-0.4c0.3-0.2,0.5-0.4,0.6-0.7C788.7,293.9,788.8,293.6,788.8,293.3z"/>
		</g>
	</g>
	<g>
		
			<ellipse transform="matrix(0.9977 -6.780457e-02 6.780457e-02 0.9977 -12.7774 49.9781)" class="st5" cx="729.9" cy="213.2" rx="47.5" ry="47.5"/>
		<g>
			<path class="st6" d="M743.6,254.9c-11,3.6-22.7,2.8-33.1-2.4c-10.3-5.2-18-14.1-21.7-25.1c-3.6-11-2.8-22.7,2.4-33.1
				c5.2-10.3,14.1-18,25.1-21.7c11-3.6,22.7-2.8,33.1,2.4c10.3,5.2,18,14.1,21.7,25.1c3.6,11,2.8,22.7-2.4,33.1
				C763.5,243.5,754.6,251.2,743.6,254.9z M717.2,175.1c-21.3,7.1-32.9,30.2-25.9,51.5c7.1,21.3,30.2,32.9,51.5,25.9
				c21.3-7.1,32.9-30.2,25.9-51.5C761.6,179.6,738.5,168,717.2,175.1z"/>
		</g>
		<g>
			<path class="st6" d="M739.6,223.8c-0.2-0.9-0.5-1.7-0.9-2.4c-0.4-0.6-1-1.2-1.7-1.6c-0.7-0.4-1.6-0.8-2.6-1.1
				c-1-0.3-2.3-0.5-3.7-0.7c-2.5-0.3-4.8-0.8-6.8-1.3c-2.1-0.5-3.9-1.2-5.5-2.1c-1.6-0.9-2.9-2-4-3.4c-1.1-1.4-1.8-3.2-2.3-5.3
				c-0.4-1.9-0.4-3.6-0.1-5.3c0.3-1.7,1-3.2,2-4.6c1-1.4,2.3-2.6,3.8-3.7c1.6-1.1,3.4-1.9,5.5-2.5l-1.4-7l5.7-1.2l1.5,7.1
				c2.1-0.2,4,0,5.9,0.5c1.8,0.5,3.4,1.2,4.9,2.3c1.4,1.1,2.6,2.4,3.6,4c1,1.6,1.7,3.6,2.2,5.7l-10.2,2.1c-0.5-2.6-1.5-4.5-3-5.6
				c-1.4-1.1-3.1-1.4-5.1-1c-1.1,0.2-1.9,0.6-2.7,1c-0.7,0.5-1.3,1-1.6,1.6c-0.4,0.6-0.6,1.3-0.7,2.1c-0.1,0.8-0.1,1.5,0.1,2.3
				c0.2,0.8,0.4,1.5,0.8,2.1c0.4,0.6,0.9,1.1,1.6,1.6c0.7,0.4,1.6,0.8,2.6,1.1c1.1,0.3,2.3,0.6,3.9,0.8c2.5,0.4,4.7,0.8,6.8,1.4
				c2.1,0.5,3.9,1.2,5.5,2.1c1.6,0.9,2.9,2.1,4,3.5c1.1,1.4,1.8,3.2,2.2,5.3c0.4,1.9,0.4,3.7,0.1,5.4c-0.4,1.7-1,3.2-2,4.6
				c-1,1.4-2.3,2.6-3.9,3.6c-1.6,1-3.4,1.9-5.5,2.5l1.3,6.5l-5.6,1.2l-1.3-6.5c-2,0.2-4,0.2-5.9-0.1c-2-0.3-3.8-0.9-5.5-1.9
				c-1.7-1-3.1-2.3-4.4-4c-1.2-1.7-2.1-3.9-2.7-6.5l10.2-2.1c0.3,1.6,0.8,2.8,1.5,3.8c0.6,1,1.4,1.7,2.3,2.1
				c0.9,0.5,1.8,0.7,2.8,0.8c1,0.1,2,0,2.9-0.2c1.1-0.2,2.1-0.6,2.8-1c0.8-0.5,1.4-1,1.9-1.6c0.5-0.6,0.8-1.3,0.9-2.1
				C739.8,225.4,739.8,224.6,739.6,223.8z"/>
		</g>
	</g>
	<g>
		<path class="st4" d="M542.2,200.1c-4.3,1.1-8.4,2.1-12.2,2.7c-12.4,2.1-21.9,0.4-26-16.1c-4.1-16.5,3.5-22.5,15.4-26.4
			c3.7-1.2,7.8-2.2,12-3.3c9.1-2.3,19.2-1.3,27.3,1.4c7.9,2.6,13.8,6.8,14.9,11c1.2,4.8-2.1,11.3-7.9,17.2
			C559.9,192.5,551.3,197.9,542.2,200.1z"/>
		<polygon class="st2" points="519.4,160.3 505.4,151.2 483.2,155.9 506.2,172.1 		"/>
		<polygon class="st2" points="530,202.7 521.9,217.4 500.2,223.7 512.9,198.6 		"/>
		<path class="st2" d="M530,202.9c-12.4,2.1-21.9,0.4-26-16.1c-4.1-16.5,3.5-22.5,15.4-26.4L530,202.9z"/>
		<path class="st3" d="M475.2,194c0,0,6.2-14.4,17-12.2c11,2.3,9.6,14.1,1.4,15.2C485.2,198.1,480,192.8,475.2,194z"/>
		<path class="st3" d="M540.9,165.9c5.7-1.4,11.5,2,12.9,7.8c1.4,5.7-2,11.5-7.8,12.9c-5.7,1.4-11.5-2-12.9-7.8
			C531.7,173.1,535.2,167.4,540.9,165.9z"/>
		<g>
			<path class="st2" d="M543.4,187.6c-5.1,0-9.7-3.5-11-8.6c-1.5-6.1,2.2-12.3,8.3-13.8c6.1-1.5,12.3,2.2,13.8,8.3
				c0.7,2.9,0.3,6-1.3,8.6c-1.6,2.6-4,4.4-7,5.2C545.3,187.5,544.3,187.6,543.4,187.6z M543.4,166.3c-0.8,0-1.6,0.1-2.4,0.3
				c-2.6,0.6-4.7,2.3-6.1,4.5c-1.4,2.3-1.8,4.9-1.1,7.5c1.3,5.3,6.7,8.6,12.1,7.2c2.6-0.6,4.7-2.3,6.1-4.5c1.4-2.3,1.8-4.9,1.1-7.5
				C552,169.3,547.9,166.3,543.4,166.3z"/>
		</g>
		<path class="st2" d="M565.8,186.5l-7-28.1c7.9,2.6,13.8,6.8,14.9,11C574.8,174.2,571.6,180.7,565.8,186.5z"/>
	</g>
	<g>
		<path class="st7" d="M884.2,341.1c0,0,21.5,22.3,22.5,30.7c1,8.4-10.3,21.5-10.3,21.5L884.2,341.1z"/>
		<path class="st8" d="M874.5,572.3c0,0-0.8,11.8-3,12c-0.3,0-11.6,0-11.6,0l-14.4-0.1c0,0,0.1-3.5,4.3-4.2
			c4.2-0.7,11.3-3.7,13.9-9.2C866.3,564.9,874.5,572.3,874.5,572.3z"/>
		<path class="st9" d="M906.7,572.4c0,0-0.8,11.8-3,12c-0.3,0-11.6,0-11.6,0l-14.4-0.1c0,0,0.1-3.5,4.3-4.2
			c4.2-0.7,11.3-3.7,13.9-9.2C898.5,565,906.7,572.4,906.7,572.4z"/>
		<path class="st2" d="M858.8,445.1c0,0,3.7,24.2,17.7,67.1s15.9,61.5,15.9,61.5l15.1-0.4c0,0,0.2-46.9-6.2-68.4
			c-6.4-21.6-1.2-77.7-1.2-77.7L858.8,445.1z"/>
		<path class="st4" d="M851.5,428.3c0,0-0.6,36.4,5.6,81.1c6.2,44.7,4,63.7,4,63.7l15.1,0.5c0,0,9.1-44.7,6.6-67.1
			c-2.5-22.4,12.5-76.7,12.5-76.7L851.5,428.3z"/>
		<path class="st10" d="M880.9,343.2l-8,5.3l-11.6-2.2c0.2-0.9,0.9-4.8,1.6-8.3c0-0.2,0.1-0.4,0.1-0.6c0.6-3,1.1-5.6,1.1-5.6
			L875,327l4-1.8c0,0.1-0.3,3.3-0.4,3.8C877.9,337.4,880.9,343.2,880.9,343.2z"/>
		<path class="st7" d="M864.2,340.5c0.2-0.1,14-4.1,15.5-3.6c1.5,0.5,2.4,3.4,2.4,3.4l-22.5,5C859.5,345.3,861.3,341.7,864.2,340.5z
			"/>
		<path class="st11" d="M901.1,432.9c-2.4,10.6-41.2,11.8-51.2,2.1c-1.1-1.1-1.2-6.2-0.7-13.1c0.9-13.5,3.6-33.8,3.7-44.1
			c0.1-5,0.8-10.1,1.7-14.8c2-9.9,5-17.7,5-17.7s19-6.1,22.5-5C899.1,345.3,903.4,422.3,901.1,432.9z"/>
		<path class="st7" d="M849.2,421.9c0.9-13.5,3.6-33.8,3.7-44.1c0.1-5,0.8-10.1,1.7-14.8l11.4-2C866,361,877,406.6,849.2,421.9z"/>
		<path class="st10" d="M855.4,403.1c0,0,0.8,1.9-0.9,3.1c-1.6,1.2-2.7,3.3-2.3,4.7c0.4,1.5,3.9,3.9,5.2,3.5
			c1.2-0.4,3.8-2.3,3.5-3.1c-0.3-0.8,1.7-6.8-1.3-9.2C856.6,399.8,855.4,403.1,855.4,403.1z"/>
		<path class="st11" d="M868.3,342.6c0,0-11.1,2.1-20,15.1c-8.9,13-14.7,22.7-13.1,27.4c1.6,4.7,16.5,21.1,19,21.1
			c2.6,0,6.7-1.9,7-6c0,0-10.4-15.7-8.4-18.1c0.9-1,13.6-11.3,15.4-6.6C871.2,383.2,868.3,342.6,868.3,342.6z"/>
		<path class="st12" d="M877.8,329.1c-2.4,4-11.3,7.5-15,8.8c0-0.2,0.1-0.4,0.1-0.6c0.6-3,1.1-5.6,1.1-5.6L875,327
			C877.4,326.9,878.8,327.5,877.8,329.1z"/>
		<path class="st10" d="M860,331.1c0,0,17.5,5.5,20.7-5.4c3.3-10.9,7.7-17.6-3.3-21.5c-11-4-14.4-0.4-16.4,2.9
			C859,310.4,855.6,329.4,860,331.1z"/>
		<path class="st13" d="M861.7,306c0,0,1.1,12.7,3.7,12.2c2.6-0.5,5-1,4.6,2.9s-4.1,8.3,4.1,9c8.1,0.7,19.8-20.2,17.6-24.2
			C885.3,294.4,852.5,292,861.7,306z"/>
	</g>
	<g>
		<g>
			<g>
				<g>
					<path class="st5" d="M777,577v4.6c0,0.4-0.1,0.7-0.4,1c-0.2,0.3-0.6,0.5-1,0.7c-0.1,0-0.3,0.1-0.4,0.1c-0.1,0-0.2,0-0.4,0
						h-86.8c-1,0-1.9-0.7-2.1-1.5c0-0.1,0-0.1,0-0.2c0,0,0-0.1,0-0.1V577c0,0,0-0.1,0-0.1c0-0.1,0-0.1,0-0.2c0.2-0.8,1-1.5,2.1-1.5
						h86.8c0.1,0,0.2,0,0.4,0c0.1,0,0.3,0.1,0.4,0.1c0.4,0.1,0.7,0.4,1,0.7C776.9,576.3,777,576.6,777,577z"/>
					<path class="st6" d="M734.4,583.3h-46.5c-0.9,0-1.6-0.6-1.8-1.3c0-0.1,0-0.1-0.1-0.2c0-0.1,0-0.1,0-0.2c0,0,0-0.1,0-0.1V577
						c0,0,0-0.1,0-0.1c0-0.1,0-0.1,0-0.2c0-0.1,0-0.1,0.1-0.2c0.2-0.7,0.9-1.3,1.8-1.3h40.8C729.4,577.6,730.9,580.9,734.4,583.3z"
						/>
					<g>
						<rect x="765.5" y="575.2" class="st6" width="1" height="8.1"/>
						<rect x="762.2" y="575.2" class="st6" width="1" height="8.1"/>
						<rect x="758.2" y="575.2" class="st6" width="1" height="8.1"/>
						<rect x="752" y="575.2" class="st6" width="1" height="8.1"/>
						<rect x="745.5" y="575.2" class="st6" width="1" height="8.1"/>
						<rect x="735.6" y="575.2" class="st6" width="1" height="8.1"/>
						<rect x="726.3" y="575.2" class="st6" width="1" height="8.1"/>
						<rect x="717.9" y="575.2" class="st6" width="1" height="8.1"/>
						<rect x="768.7" y="575.2" class="st6" width="1" height="8.1"/>
						<rect x="770.8" y="575.2" class="st6" width="1" height="8.1"/>
						<rect x="772.8" y="575.2" class="st6" width="1" height="8.1"/>
						<path class="st6" d="M775.3,575.3v8c-0.1,0-0.2,0-0.4,0h-0.6v-8.1h0.6C775.1,575.2,775.2,575.2,775.3,575.3z"/>
						<path class="st6" d="M776.7,576v6.5c-0.2,0.3-0.6,0.5-1,0.7v-7.9C776.1,575.5,776.4,575.7,776.7,576z"/>
					</g>
				</g>
				<g>
					<path class="st5" d="M767.8,568.9v4.6c0,0.4-0.1,0.7-0.4,1c-0.1,0.1-0.1,0.1-0.2,0.2c-0.2,0.2-0.5,0.4-0.8,0.5
						c-0.1,0-0.3,0.1-0.4,0.1c-0.1,0-0.2,0-0.4,0h-86.8c-1,0-1.9-0.7-2.1-1.5c0-0.1,0-0.1,0-0.2c0,0,0-0.1,0-0.1v-4.6
						c0,0,0-0.1,0-0.1c0-0.1,0-0.1,0-0.2c0.2-0.8,1-1.5,2.1-1.5h86.8c0.1,0,0.1,0,0.2,0c0,0,0,0,0.1,0c0,0,0,0,0,0c0,0,0.1,0,0.1,0
						c0,0,0,0,0.1,0c0.1,0,0.3,0,0.4,0.1c0.1,0,0.1,0.1,0.2,0.1h0c0,0,0.1,0,0.1,0.1c0,0,0.1,0,0.1,0c0,0,0,0,0.1,0
						c0.1,0.1,0.2,0.1,0.3,0.2c0,0,0,0,0.1,0.1c0,0,0,0,0,0c0,0,0,0,0,0l0,0c0,0,0.1,0.1,0.1,0.1
						C767.6,568.2,767.8,568.5,767.8,568.9z"/>
					<path class="st6" d="M725.1,575.2h-46.5c-0.9,0-1.6-0.6-1.8-1.3c0-0.1,0-0.1-0.1-0.2c0-0.1,0-0.1,0-0.2c0,0,0-0.1,0-0.1v-4.6
						c0,0,0-0.1,0-0.1c0-0.1,0-0.1,0-0.2c0-0.1,0-0.1,0.1-0.2c0.2-0.7,0.9-1.3,1.8-1.3h40.8c0,0.1,0,0.1,0.1,0.2
						C720.2,569.7,721.7,572.9,725.1,575.2z"/>
					<g>
						<rect x="756.2" y="567.1" class="st6" width="1" height="8.1"/>
						<rect x="752.9" y="567.1" class="st6" width="1" height="8.1"/>
						<rect x="748.9" y="567.1" class="st6" width="1" height="8.1"/>
						<rect x="742.7" y="567.1" class="st6" width="1" height="8.1"/>
						<rect x="736.2" y="567.1" class="st6" width="1" height="8.1"/>
						<rect x="726.3" y="567.1" class="st6" width="1" height="8.1"/>
						<rect x="717" y="567.1" class="st6" width="1" height="8.1"/>
						<rect x="708.7" y="567.1" class="st6" width="1" height="8.1"/>
						<rect x="759.4" y="567.1" class="st6" width="1" height="8.1"/>
						<rect x="761.5" y="567.1" class="st6" width="1" height="8.1"/>
						<rect x="763.5" y="567.1" class="st6" width="1" height="8.1"/>
						<path class="st6" d="M766,567.2v8c-0.1,0-0.2,0-0.4,0H765v-8.1h0.6C765.8,567.1,765.9,567.1,766,567.2z"/>
						<path class="st6" d="M767.4,567.9v6.5c-0.2,0.3-0.6,0.5-1,0.7v-7.9C766.8,567.4,767.2,567.6,767.4,567.9z"/>
					</g>
				</g>
				<g>
					<path class="st5" d="M772.3,561v4.6c0,0.4-0.1,0.7-0.4,1c-0.2,0.3-0.6,0.5-1,0.7c-0.1,0-0.3,0.1-0.4,0.1c-0.1,0-0.2,0-0.4,0
						h-86.8c-0.3,0-0.7-0.1-1-0.2c-0.6-0.3-1-0.7-1.1-1.3c0,0,0-0.1,0-0.1c0,0,0-0.1,0-0.1c0,0,0-0.1,0-0.1V561c0,0,0-0.1,0-0.1
						c0-0.1,0-0.1,0-0.2c0.2-0.8,1-1.5,2.1-1.5h86.8c0.1,0,0.2,0,0.4,0c0.1,0,0.3,0,0.4,0.1c0.4,0.1,0.7,0.4,1,0.7
						C772.1,560.3,772.3,560.6,772.3,561z"/>
					<path class="st6" d="M729.6,567.3h-46.5c-0.3,0-0.6-0.1-0.9-0.2c-0.5-0.3-0.9-0.7-1-1.3c0,0,0-0.1,0-0.1c0,0,0-0.1,0-0.1
						c0,0,0-0.1,0-0.1V561c0,0,0-0.1,0-0.1c0-0.1,0-0.1,0-0.2c0-0.1,0-0.1,0-0.2c0.2-0.8,0.9-1.3,1.8-1.3h40.8
						c0.6,2.3,2.1,5.5,5.4,7.9C729.4,567.2,729.5,567.3,729.6,567.3z"/>
					<g>
						<rect x="760.7" y="559.2" class="st6" width="1" height="8.1"/>
						<rect x="757.4" y="559.2" class="st6" width="1" height="8.1"/>
						<rect x="753.4" y="559.2" class="st6" width="1" height="8.1"/>
						<rect x="747.2" y="559.2" class="st6" width="1" height="8.1"/>
						<rect x="740.7" y="559.2" class="st6" width="1" height="8.1"/>
						<rect x="730.8" y="559.2" class="st6" width="1" height="8.1"/>
						<rect x="721.5" y="559.2" class="st6" width="1" height="8.1"/>
						<rect x="713.1" y="559.2" class="st6" width="1" height="8.1"/>
						<rect x="763.9" y="559.2" class="st6" width="1" height="8.1"/>
						<rect x="766" y="559.2" class="st6" width="1" height="8.1"/>
						<rect x="768" y="559.2" class="st6" width="1" height="8.1"/>
						<path class="st6" d="M770.5,559.3v8c-0.1,0-0.2,0-0.4,0h-0.6v-8.1h0.6C770.3,559.2,770.4,559.2,770.5,559.3z"/>
						<path class="st6" d="M771.9,560v6.5c-0.2,0.3-0.6,0.5-1,0.7v-7.9C771.3,559.5,771.7,559.7,771.9,560z"/>
					</g>
				</g>
				<g>
					<path class="st5" d="M774.3,552.9v4.6c0,0.4-0.1,0.7-0.4,1c0,0-0.1,0.1-0.1,0.1c-0.2,0.2-0.4,0.3-0.6,0.4
						c-0.1,0-0.2,0.1-0.3,0.1c-0.1,0-0.3,0.1-0.4,0.1c-0.1,0-0.1,0-0.2,0c-0.1,0-0.1,0-0.2,0h-86.8c-1,0-1.9-0.7-2.1-1.5
						c0-0.1,0-0.1,0-0.2v-4.8c0.1-0.9,0.8-1.6,1.8-1.7c0.1,0,0.2,0,0.2,0h86.8c0.1,0,0.1,0,0.2,0c0.1,0,0.1,0,0.2,0
						c0.1,0,0.3,0,0.4,0.1c0.4,0.1,0.7,0.4,1,0.7C774.2,552.2,774.3,552.5,774.3,552.9z"/>
					<path class="st6" d="M731.7,559.2h-46.5c-0.9,0-1.6-0.6-1.8-1.3c0-0.1,0-0.1-0.1-0.2c0-0.1,0-0.1,0-0.2v-4.8
						c0-0.9,0.8-1.6,1.7-1.7c0.1,0,0.1,0,0.2,0H726c0,0,0,0,0,0C726.6,553.5,728.2,556.8,731.7,559.2z"/>
					<g>
						<rect x="762.8" y="551.1" class="st6" width="1" height="8.1"/>
						<rect x="759.4" y="551.1" class="st6" width="1" height="8.1"/>
						<rect x="755.4" y="551.1" class="st6" width="1" height="8.1"/>
						<rect x="749.3" y="551.1" class="st6" width="1" height="8.1"/>
						<rect x="742.8" y="551.1" class="st6" width="1" height="8.1"/>
						<rect x="732.9" y="551.1" class="st6" width="1" height="8.1"/>
						<rect x="723.5" y="551.1" class="st6" width="1" height="8.1"/>
						<rect x="715.2" y="551.1" class="st6" width="1" height="8.1"/>
						<rect x="766" y="551.1" class="st6" width="1" height="8.1"/>
						<rect x="768.1" y="551.1" class="st6" width="1" height="8.1"/>
						<rect x="770.1" y="551.1" class="st6" width="1" height="8.1"/>
						<path class="st6" d="M772.6,551.1v8c-0.1,0-0.2,0-0.4,0h-0.6v-8.1h0.6C772.4,551.1,772.5,551.1,772.6,551.1z"/>
						<path class="st6" d="M774,551.9v6.5c-0.2,0.3-0.6,0.5-1,0.7v-7.9C773.4,551.4,773.7,551.6,774,551.9z"/>
					</g>
				</g>
				<g>
					<path class="st5" d="M767.9,544.8v4.6c0,0.4-0.1,0.7-0.4,1c-0.2,0.3-0.6,0.5-1,0.7c-0.1,0-0.3,0.1-0.4,0.1c0,0-0.1,0-0.1,0h0
						c0,0,0,0-0.1,0c0,0,0,0-0.1,0c0,0-0.1,0-0.1,0H679c-1.1,0-2-0.7-2.1-1.7c0,0,0-0.1,0-0.1v-4.6c0,0,0-0.1,0-0.1c0,0,0,0,0-0.1
						c0.1-0.7,0.7-1.4,1.6-1.5c0,0,0,0,0.1,0c0.1,0,0.3,0,0.5,0h86.8c0.1,0,0.1,0,0.2,0c0,0,0.1,0,0.1,0c0,0,0,0,0,0h0
						c0,0,0.1,0,0.1,0c0.1,0,0.3,0,0.4,0.1c0.4,0.1,0.7,0.4,1,0.7C767.8,544.1,767.9,544.4,767.9,544.8z"/>
					<path class="st6" d="M725.3,551.1h-46.5c-1,0-1.8-0.7-1.9-1.7c0,0,0-0.1,0-0.1v-4.6c0,0,0-0.1,0-0.1c0,0,0,0,0-0.1
						c0.1-0.8,0.7-1.4,1.5-1.6c0,0,0.1,0,0.1,0c0.1,0,0.2,0,0.3,0h40.8c0,0,0,0,0,0.1C720.3,545.5,721.8,548.7,725.3,551.1
						C725.3,551.1,725.3,551.1,725.3,551.1z"/>
					<g>
						<rect x="756.4" y="543" class="st6" width="1" height="8.1"/>
						<rect x="753.1" y="543" class="st6" width="1" height="8.1"/>
						<rect x="749.1" y="543" class="st6" width="1" height="8.1"/>
						<rect x="742.9" y="543" class="st6" width="1" height="8.1"/>
						<rect x="736.4" y="543" class="st6" width="1" height="8.1"/>
						<rect x="726.5" y="543" class="st6" width="1" height="8.1"/>
						<rect x="717.2" y="543" class="st6" width="1" height="8.1"/>
						<rect x="708.8" y="543" class="st6" width="1" height="8.1"/>
						<rect x="759.6" y="543" class="st6" width="1" height="8.1"/>
						<rect x="761.7" y="543" class="st6" width="1" height="8.1"/>
						<rect x="763.7" y="543" class="st6" width="1" height="8.1"/>
						<path class="st6" d="M766.2,543.1v8c-0.1,0-0.2,0-0.4,0h-0.6V543h0.6C766,543,766.1,543,766.2,543.1z"/>
						<path class="st6" d="M767.6,543.8v6.5c-0.2,0.3-0.6,0.5-1,0.7v-7.9C767,543.3,767.3,543.5,767.6,543.8z"/>
					</g>
				</g>
				<g>
					<path class="st5" d="M767.8,536.7v4.6c0,0.4-0.1,0.7-0.4,1c-0.1,0.1-0.1,0.1-0.2,0.2c-0.2,0.2-0.5,0.4-0.8,0.5
						c-0.1,0-0.2,0.1-0.3,0.1h0c0,0,0,0,0,0c0,0-0.1,0-0.1,0c-0.1,0-0.2,0-0.4,0h-86.8c-0.1,0-0.2,0-0.3,0c0,0-0.1,0-0.1,0
						c-0.9-0.1-1.6-0.7-1.7-1.5c0-0.1,0-0.1,0-0.2c0,0,0-0.1,0-0.1v-4.6c0,0,0-0.1,0-0.1c0-0.1,0-0.1,0-0.2c0.2-0.8,1-1.5,2.1-1.5
						h86.8c0.1,0,0.1,0,0.2,0c0,0,0,0,0,0c0,0,0,0,0,0c0,0,0.1,0,0.1,0c0,0,0,0,0.1,0c0.1,0,0.3,0,0.4,0.1c0.1,0,0.1,0.1,0.2,0.1h0
						c0.3,0.1,0.5,0.3,0.7,0.5c0,0,0.1,0.1,0.1,0.1C767.6,536,767.8,536.4,767.8,536.7z"/>
					<path class="st6" d="M725.1,543.1h-46.5c0,0-0.1,0-0.1,0c0,0-0.1,0-0.1,0c-0.8-0.1-1.5-0.7-1.6-1.5c0-0.1,0-0.1,0-0.2
						c0,0,0-0.1,0-0.1v-4.6c0,0,0-0.1,0-0.1c0-0.1,0-0.1,0-0.2c0-0.1,0-0.1,0.1-0.2c0.2-0.7,0.9-1.3,1.8-1.3h40.8
						c0,0.1,0,0.1,0.1,0.2C720.2,537.5,721.7,540.7,725.1,543.1C725.1,543,725.1,543.1,725.1,543.1z"/>
					<g>
						<rect x="756.2" y="535" class="st6" width="1" height="8.1"/>
						<rect x="752.9" y="535" class="st6" width="1" height="8.1"/>
						<rect x="748.9" y="535" class="st6" width="1" height="8.1"/>
						<rect x="742.7" y="535" class="st6" width="1" height="8.1"/>
						<rect x="736.2" y="535" class="st6" width="1" height="8.1"/>
						<rect x="726.3" y="535" class="st6" width="1" height="8.1"/>
						<rect x="717" y="535" class="st6" width="1" height="8.1"/>
						<rect x="708.7" y="535" class="st6" width="1" height="8.1"/>
						<rect x="759.4" y="535" class="st6" width="1" height="8.1"/>
						<rect x="761.5" y="535" class="st6" width="1" height="8.1"/>
						<rect x="763.5" y="535" class="st6" width="1" height="8.1"/>
						<path class="st6" d="M766,535v8c-0.1,0-0.2,0-0.4,0H765V535h0.6C765.8,535,765.9,535,766,535z"/>
						<path class="st6" d="M767.4,535.8v6.5c-0.2,0.3-0.6,0.5-1,0.7v-7.9C766.8,535.2,767.2,535.5,767.4,535.8z"/>
					</g>
				</g>
				<g>
					<path class="st5" d="M772.3,528.8v4.6c0,0.4-0.1,0.7-0.4,1c-0.2,0.3-0.6,0.5-1,0.7c-0.1,0-0.3,0.1-0.4,0.1c-0.1,0-0.2,0-0.4,0
						h-86.8c-0.3,0-0.7-0.1-1-0.2c-0.6-0.3-1-0.7-1.1-1.3c0,0,0-0.1,0-0.1c0,0,0-0.1,0-0.1c0,0,0-0.1,0-0.1v-4.6c0,0,0-0.1,0-0.1
						c0-0.1,0-0.1,0-0.2c0.2-0.8,1-1.5,2.1-1.5h86.8c0.1,0,0.2,0,0.4,0c0.1,0,0.3,0,0.4,0.1c0.4,0.1,0.7,0.4,1,0.7
						C772.1,528.1,772.3,528.5,772.3,528.8z"/>
					<path class="st6" d="M729.6,535.2h-46.5c-0.3,0-0.6-0.1-0.9-0.2c-0.5-0.3-0.9-0.7-1-1.3c0,0,0-0.1,0-0.1c0,0,0-0.1,0-0.1
						c0,0,0-0.1,0-0.1v-4.6c0,0,0-0.1,0-0.1c0-0.1,0-0.1,0-0.2c0-0.1,0-0.1,0-0.2c0.2-0.8,0.9-1.3,1.8-1.3h40.8
						c0.6,2.3,2.1,5.5,5.4,7.9C729.4,535,729.5,535.1,729.6,535.2z"/>
					<g>
						<rect x="760.7" y="527.1" class="st6" width="1" height="8.1"/>
						<rect x="757.4" y="527.1" class="st6" width="1" height="8.1"/>
						<rect x="753.4" y="527.1" class="st6" width="1" height="8.1"/>
						<rect x="747.2" y="527.1" class="st6" width="1" height="8.1"/>
						<rect x="740.7" y="527.1" class="st6" width="1" height="8.1"/>
						<rect x="730.8" y="527.1" class="st6" width="1" height="8.1"/>
						<rect x="721.5" y="527.1" class="st6" width="1" height="8.1"/>
						<rect x="713.1" y="527.1" class="st6" width="1" height="8.1"/>
						<rect x="763.9" y="527.1" class="st6" width="1" height="8.1"/>
						<rect x="766" y="527.1" class="st6" width="1" height="8.1"/>
						<rect x="768" y="527.1" class="st6" width="1" height="8.1"/>
						<path class="st6" d="M770.5,527.1v8c-0.1,0-0.2,0-0.4,0h-0.6v-8.1h0.6C770.3,527.1,770.4,527.1,770.5,527.1z"/>
						<path class="st6" d="M771.9,527.9v6.5c-0.2,0.3-0.6,0.5-1,0.7v-7.9C771.3,527.3,771.7,527.6,771.9,527.9z"/>
					</g>
				</g>
				<g>
					<path class="st5" d="M779.3,520.7v4.6c0,0.4-0.1,0.7-0.4,1l0,0c0,0-0.1,0.1-0.1,0.1c-0.1,0.1-0.3,0.3-0.5,0.4
						c-0.1,0-0.2,0.1-0.3,0.1c0,0,0,0,0,0c0,0-0.1,0-0.1,0.1c-0.1,0-0.3,0.1-0.4,0.1c-0.1,0-0.2,0-0.4,0h-86.8c-1,0-1.9-0.7-2.1-1.5
						c0-0.1,0-0.1,0-0.2c0,0,0-0.1,0-0.1v-4.6c0,0,0-0.1,0-0.1c0.1-0.9,0.8-1.6,1.8-1.7c0.1,0,0.2,0,0.2,0h86.8c0.1,0,0.2,0,0.4,0
						c0.1,0,0.3,0.1,0.4,0.1c0.4,0.1,0.7,0.3,0.9,0.6c0,0,0.1,0.1,0.1,0.1l0,0C779.2,520,779.3,520.4,779.3,520.7z"/>
					<path class="st6" d="M736.7,527.1h-46.5c-0.9,0-1.6-0.6-1.8-1.3c0-0.1,0-0.1,0-0.2c0-0.1,0-0.1,0-0.2c0,0,0-0.1,0-0.1v-4.6
						c0,0,0-0.1,0-0.1c0-0.9,0.8-1.6,1.6-1.7c0.1,0,0.1,0,0.2,0H731c0,0,0,0,0,0C731.7,521.4,733.2,524.7,736.7,527.1z"/>
					<g>
						<rect x="767.8" y="519" class="st6" width="1" height="8.1"/>
						<rect x="764.5" y="519" class="st6" width="1" height="8.1"/>
						<rect x="760.5" y="519" class="st6" width="1" height="8.1"/>
						<rect x="754.3" y="519" class="st6" width="1" height="8.1"/>
						<rect x="747.8" y="519" class="st6" width="1" height="8.1"/>
						<rect x="737.9" y="519" class="st6" width="1" height="8.1"/>
						<rect x="728.6" y="519" class="st6" width="1" height="8.1"/>
						<rect x="720.2" y="519" class="st6" width="1" height="8.1"/>
						<rect x="771" y="519" class="st6" width="1" height="8.1"/>
						<rect x="773.1" y="519" class="st6" width="1" height="8.1"/>
						<rect x="775.1" y="519" class="st6" width="1" height="8.1"/>
						<path class="st6" d="M777.6,519v8c-0.1,0-0.2,0-0.4,0h-0.6V519h0.6C777.4,519,777.5,519,777.6,519z"/>
						<path class="st6" d="M779,519.8v6.5c-0.2,0.3-0.6,0.5-1,0.7v-7.9C778.4,519.2,778.7,519.5,779,519.8z"/>
					</g>
				</g>
				<g>
					<path class="st5" d="M767.9,512.6v4.6c0,0.4-0.1,0.7-0.4,1c-0.2,0.3-0.6,0.5-1,0.7c-0.1,0-0.3,0.1-0.4,0.1c0,0-0.1,0-0.1,0h0
						c0,0-0.1,0-0.1,0c0,0,0,0,0,0c0,0-0.1,0-0.1,0H679c-0.8,0-1.4-0.3-1.8-0.8c-0.2-0.2-0.3-0.5-0.3-0.8c0,0,0-0.1,0-0.1v-4.6
						c0,0,0-0.1,0-0.1c0-0.8,0.7-1.4,1.5-1.6c0.2-0.1,0.4-0.1,0.6-0.1h86.8c0,0,0.1,0,0.1,0c0,0,0,0,0.1,0c0.1,0,0.1,0,0.2,0
						c0.1,0,0.3,0,0.4,0.1c0.1,0,0.1,0,0.2,0.1h0c0.2,0.1,0.4,0.2,0.6,0.4c0,0,0,0,0,0c0,0,0,0,0,0c0.1,0.1,0.1,0.1,0.2,0.2
						C767.8,511.9,767.9,512.3,767.9,512.6z"/>
					<path class="st6" d="M725.3,519h-46.5c-0.7,0-1.2-0.3-1.6-0.8c-0.2-0.3-0.3-0.6-0.3-0.9c0,0,0-0.1,0-0.1v-4.6c0,0,0-0.1,0-0.1
						c0-0.8,0.7-1.5,1.5-1.6c0.1,0,0.2,0,0.4,0h40.8c0,0.1,0,0.1,0.1,0.2C720.3,513.4,721.9,516.6,725.3,519
						C725.3,519,725.3,519,725.3,519z"/>
					<g>
						<rect x="756.4" y="510.9" class="st6" width="1" height="8.1"/>
						<rect x="753.1" y="510.9" class="st6" width="1" height="8.1"/>
						<rect x="749.1" y="510.9" class="st6" width="1" height="8.1"/>
						<rect x="742.9" y="510.9" class="st6" width="1" height="8.1"/>
						<rect x="736.4" y="510.9" class="st6" width="1" height="8.1"/>
						<rect x="726.5" y="510.9" class="st6" width="1" height="8.1"/>
						<rect x="717.2" y="510.9" class="st6" width="1" height="8.1"/>
						<rect x="708.8" y="510.9" class="st6" width="1" height="8.1"/>
						<rect x="759.6" y="510.9" class="st6" width="1" height="8.1"/>
						<rect x="761.7" y="510.9" class="st6" width="1" height="8.1"/>
						<rect x="763.7" y="510.9" class="st6" width="1" height="8.1"/>
						<path class="st6" d="M766.2,510.9v8c-0.1,0-0.2,0-0.4,0h-0.6v-8.1h0.6C766,510.9,766.1,510.9,766.2,510.9z"/>
						<path class="st6" d="M767.6,511.7v6.5c-0.2,0.3-0.6,0.5-1,0.7V511C767,511.1,767.3,511.4,767.6,511.7z"/>
					</g>
				</g>
				<g>
					<path class="st5" d="M774.3,504.7v4.6c0,0.4-0.1,0.7-0.4,1c-0.2,0.3-0.6,0.5-1,0.7c-0.1,0-0.3,0.1-0.4,0.1c-0.1,0-0.2,0-0.4,0
						h-86.8c-0.3,0-0.7-0.1-0.9-0.2c-0.6-0.3-1.1-0.8-1.2-1.4c0,0,0,0,0-0.1c0,0,0-0.1,0-0.1v-4.6c0,0,0-0.1,0-0.1
						c0.1-0.9,0.8-1.6,1.8-1.7c0.1,0,0.2,0,0.2,0h86.8c0.1,0,0.2,0,0.4,0c0.1,0,0.3,0,0.4,0.1c0.4,0.1,0.7,0.4,1,0.7
						C774.2,504,774.3,504.4,774.3,504.7z"/>
					<path class="st6" d="M731.7,511.1h-46.5c-0.3,0-0.6-0.1-0.8-0.2c-0.6-0.3-1-0.8-1-1.4c0,0,0,0,0-0.1c0,0,0-0.1,0-0.1v-4.6
						c0,0,0-0.1,0-0.1c0-0.9,0.8-1.6,1.7-1.7c0.1,0,0.1,0,0.2,0H726c0,0,0,0,0,0c0.6,2.3,2.1,5.5,5.4,7.9
						C731.5,510.9,731.6,511,731.7,511.1z"/>
					<g>
						<rect x="762.8" y="503" class="st6" width="1" height="8.1"/>
						<rect x="759.4" y="503" class="st6" width="1" height="8.1"/>
						<rect x="755.4" y="503" class="st6" width="1" height="8.1"/>
						<rect x="749.3" y="503" class="st6" width="1" height="8.1"/>
						<rect x="742.8" y="503" class="st6" width="1" height="8.1"/>
						<rect x="732.9" y="503" class="st6" width="1" height="8.1"/>
						<rect x="723.5" y="503" class="st6" width="1" height="8.1"/>
						<rect x="715.2" y="503" class="st6" width="1" height="8.1"/>
						<rect x="766" y="503" class="st6" width="1" height="8.1"/>
						<rect x="768.1" y="503" class="st6" width="1" height="8.1"/>
						<rect x="770.1" y="503" class="st6" width="1" height="8.1"/>
						<path class="st6" d="M772.6,503v8c-0.1,0-0.2,0-0.4,0h-0.6V503h0.6C772.4,503,772.5,503,772.6,503z"/>
						<path class="st6" d="M774,503.7v6.5c-0.2,0.3-0.6,0.5-1,0.7v-7.9C773.4,503.2,773.7,503.4,774,503.7z"/>
					</g>
				</g>
				<g>
					<path class="st5" d="M777,496.6v4.6c0,0.4-0.1,0.7-0.4,1c-0.2,0.3-0.6,0.5-1,0.7c-0.1,0-0.3,0.1-0.4,0.1c0,0-0.1,0-0.1,0
						c0,0,0,0-0.1,0c0,0,0,0-0.1,0c0,0-0.1,0-0.1,0h-86.8c-1.1,0-2-0.7-2.1-1.7c0,0,0-0.1,0-0.1v-4.6c0,0,0-0.1,0-0.1
						c0.1-0.9,1-1.7,2.1-1.7h86.8c0.1,0,0.2,0,0.4,0c0.1,0,0.3,0,0.4,0.1c0.4,0.1,0.7,0.4,1,0.7C776.9,495.9,777,496.3,777,496.6z"
						/>
					<path class="st6" d="M734.4,503h-46.5c-1,0-1.8-0.7-1.9-1.7c0,0,0-0.1,0-0.1v-4.6c0,0,0-0.1,0-0.1c0.1-0.9,0.9-1.7,1.9-1.7
						h40.8C729.4,497.3,730.9,500.5,734.4,503C734.4,503,734.4,503,734.4,503z"/>
					<g>
						<rect x="765.5" y="494.9" class="st6" width="1" height="8.1"/>
						<rect x="762.2" y="494.9" class="st6" width="1" height="8.1"/>
						<rect x="758.2" y="494.9" class="st6" width="1" height="8.1"/>
						<rect x="752" y="494.9" class="st6" width="1" height="8.1"/>
						<rect x="745.5" y="494.9" class="st6" width="1" height="8.1"/>
						<rect x="735.6" y="494.9" class="st6" width="1" height="8.1"/>
						<rect x="726.3" y="494.9" class="st6" width="1" height="8.1"/>
						<rect x="717.9" y="494.9" class="st6" width="1" height="8.1"/>
						<rect x="768.7" y="494.9" class="st6" width="1" height="8.1"/>
						<rect x="770.8" y="494.9" class="st6" width="1" height="8.1"/>
						<rect x="772.8" y="494.9" class="st6" width="1" height="8.1"/>
						<path class="st6" d="M775.3,494.9v8c-0.1,0-0.2,0-0.4,0h-0.6v-8.1h0.6C775.1,494.9,775.2,494.9,775.3,494.9z"/>
						<path class="st6" d="M776.7,495.7v6.5c-0.2,0.3-0.6,0.5-1,0.7V495C776.1,495.1,776.4,495.4,776.7,495.7z"/>
					</g>
				</g>
			</g>
			<g>
				<path class="st14" d="M749.5,448.7c0,0-4.6,6.4-8.7,6.5s-10.5-3-10.5-3s-3.8-8.6-1.2-11.9c0,0,2.6-1.1,5.3,0.9
					c0.5,0.3,0.9,0.8,1.4,1.4c0.7,0.8,1.4,1.2,2.2,1.5c3,0.9,6.5-1.2,7.8,0.8c0.8,1.2,1.6,2.1,2.3,2.7
					C748.9,448.3,749.5,448.7,749.5,448.7z"/>
				<path class="st14" d="M690.1,495c0,0,16.1-39,45.1-39.8c0,0,26.8,3,28.3,39.8H690.1z"/>
				<path class="st15" d="M727.3,456.4c0,0,11.6,2.6,15.2,1.1c0,0,0.5-4.9-4.4-4.2c-3.4,0.5-5.5-1.1-6.8-1.8
					C729.5,450.6,726.8,454.4,727.3,456.4z"/>
				<path class="st16" d="M737.4,449.1c-0.7,0.6-3-7.9-3-7.9c0.5,0.3,0.9,0.8,1.4,1.4c0.7,0.8,1.4,1.2,2.2,1.5
					C738,444.3,738.1,448.5,737.4,449.1z"/>
				<path class="st16" d="M748.1,447.6c-0.2,0.1-5.5,3.3-6.3,3.3c-0.7,0,4-6,4-6C746.6,446.1,747.4,447,748.1,447.6z"/>
				<path class="st17" d="M705.8,484.1c-0.3-0.3,11.4-17.2,14.6-17.4c3.2-0.1,10.5,3.7,15.7,4.2c5.2,0.5,10.3-1,11.3,2.1
					c1,3.1,3.7,14.1,2,15.8C747.9,490.7,712.3,489.6,705.8,484.1z"/>
			</g>
		</g>
		<path class="st18" d="M716.9,543C716.9,543,716.9,543.1,716.9,543c-0.2,2.8-0.6,5.5-1.3,8.1c0,0,0,0,0,0c-0.1,0.4-0.2,0.8-0.3,1.1
			c-0.7,2.4-1.7,4.7-2.9,7c-1.5,2.8-3.3,5.5-5.5,7.9c-0.1,0.1-0.1,0.1-0.2,0.2c-2.7,3-5.9,5.7-9.5,7.9c-0.8,0.5-1.6,0.9-2.4,1.3
			c-0.5,0.3-1.1,0.6-1.7,0.8c-0.5,0.3-1.1,0.6-1.6,0.9c-1.5,0.9-3.4,1.7-5.5,2.3V577c0,0,0-0.1,0-0.1c0-0.1,0-0.1,0-0.2
			c0-0.1,0-0.1,0.1-0.2c0.2-0.7,0.9-1.3,1.8-1.3h-9.3c-0.9,0-1.6-0.6-1.8-1.3c0-0.1,0-0.1-0.1-0.2c0-0.1,0-0.1,0-0.2
			c0,0,0-0.1,0-0.1v-4.6c0,0,0-0.1,0-0.1c0-0.1,0-0.1,0-0.2c0-0.1,0-0.1,0.1-0.2c0.2-0.7,0.9-1.3,1.8-1.3h3.6
			c-0.5-0.3-0.9-0.7-1-1.3c0,0,0-0.1,0-0.1c0,0,0-0.1,0-0.1c0,0,0-0.1,0-0.1V561c0,0,0-0.1,0-0.1c0-0.1,0-0.1,0-0.2
			c0-0.1,0-0.1,0-0.2c0.2-0.8,0.9-1.3,1.8-1.3h2.1c-0.9,0-1.6-0.6-1.8-1.3c0-0.1,0-0.1-0.1-0.2c0-0.1,0-0.1,0-0.2v-4.8
			c0-0.9,0.8-1.6,1.7-1.7h-6.2c-1,0-1.8-0.7-1.9-1.7c0,0,0-0.1,0-0.1v-4.6c0,0,0-0.1,0-0.1c0,0,0,0,0-0.1c0.1-0.8,0.7-1.4,1.5-1.6
			c-0.8-0.1-1.5-0.7-1.6-1.5c0-0.1,0-0.1,0-0.2c0,0,0-0.1,0-0.1v-4.6c0,0,0-0.1,0-0.1c0-0.1,0-0.1,0-0.2c0-0.1,0-0.1,0.1-0.2
			c0.2-0.7,0.9-1.3,1.8-1.3h3.6c-0.5-0.3-0.9-0.7-1-1.3c0,0,0-0.1,0-0.1c0,0,0-0.1,0-0.1c0,0,0-0.1,0-0.1v-4.6c0,0,0-0.1,0-0.1
			c0-0.1,0-0.1,0-0.2c0-0.1,0-0.1,0-0.2c0.2-0.8,0.9-1.3,1.8-1.3h7.1c-0.9,0-1.6-0.6-1.8-1.3c0-0.1,0-0.1,0-0.2c0-0.1,0-0.1,0-0.2
			c0,0,0-0.1,0-0.1v-4.6c0,0,0-0.1,0-0.1c0-0.9,0.8-1.6,1.6-1.7h-11.2c-0.7,0-1.2-0.3-1.6-0.8l0,0l1.2-7.2l0,0l1.7-10.3
			c1.9,0.3,3.9,0.6,5.8,1.2c0.1,0,0.2,0.1,0.3,0.1c0,0,0,0,0,0c1.1,0.3,2.2,0.7,3.3,1c0,0,0,0,0,0c4.9,1.8,9.5,4.5,13.5,7.9
			c0.1,0.1,0.1,0.1,0.2,0.2c2.1,1.8,4,3.8,5.7,6.1c0.3,0.4,0.7,0.9,1,1.4c0.1,0.2,0.2,0.3,0.3,0.5c0,0,0,0,0,0
			c0.5,0.8,1,1.5,1.5,2.3c1.1,1.9,2,3.8,2.7,5.8c1,2.6,1.7,5.2,2.1,7.9c0,0.1,0,0.1,0,0.2C716.9,537.8,717,540.4,716.9,543z"/>
		<g>
			<path class="st19" d="M627.2,559.5c-11.4-20.7-3.9-46.6,16.8-58c20.7-11.4,46.6-3.9,58,16.8c11.4,20.7,3.9,46.6-16.8,58
				C664.5,587.6,638.6,580.1,627.2,559.5z"/>
			<path class="st5" d="M683.5,577.1c-0.5,0.3-1.1,0.6-1.6,0.9c-0.2,0.1-0.4,0.2-0.6,0.3c-0.4,0.2-0.8,0.4-1.3,0.7
				c-20.3,10-45.1,2.3-56.2-17.7c-10.5-19.1-4.9-42.8,12.4-55.3c1.4-1,2.8-1.9,4.4-2.8c0.5-0.3,1.1-0.6,1.7-0.9
				c0.5-0.3,1.1-0.5,1.6-0.8c1.7-0.7,3.4-1.4,5.1-1.9c2.5-0.8,5.1-1.3,7.7-1.6c8-0.9,16.1,0.6,23.3,4.1c7.6,3.7,14.2,9.7,18.6,17.7
				C709.8,540.1,703,565.3,683.5,577.1z"/>
			<g>
				<path class="st6" d="M661.6,579.4c-3.6,0-7.2-0.5-10.7-1.5c-9.8-2.8-17.9-9.3-22.9-18.3c-4.9-8.9-6.1-19.3-3.2-29.1
					c2.8-9.8,9.3-17.9,18.3-22.9c18.5-10.2,41.8-3.4,52,15c10.2,18.5,3.4,41.8-15,52C674.3,577.8,668,579.4,661.6,579.4z
					 M661.5,503.9c-6.1,0-12.2,1.5-17.9,4.6c-8.7,4.8-15,12.7-17.8,22.3c-2.8,9.6-1.6,19.6,3.2,28.3c4.8,8.7,12.7,15,22.3,17.8
					c9.6,2.8,19.6,1.6,28.3-3.2c18-9.9,24.5-32.6,14.6-50.6C687.4,510.8,674.6,503.9,661.5,503.9z"/>
			</g>
			<g>
				<path class="st6" d="M680.4,544.8c-0.1-0.2-0.2-0.4-0.3-0.6c-0.7-1.5-1.6-2.8-2.6-3.7c-1.2-1.1-2.5-1.9-4.1-2.4
					c-1.5-0.5-3.3-0.9-5.2-1c-1.9-0.1-4-0.1-6.2-0.1c-1.4,0-2.6,0-3.6-0.1c-1-0.1-1.8-0.3-2.5-0.5c-0.7-0.3-1.2-0.7-1.7-1.1
					c-0.4-0.5-0.8-1.1-1.1-1.7c-0.3-0.7-0.4-1.4-0.5-2.1c0-0.7,0.1-1.3,0.3-1.9c0.2-0.6,0.6-1.2,1.2-1.7c0.5-0.5,1.3-1,2.2-1.3
					c1.7-0.7,3.2-0.7,4.7,0c1.4,0.7,2.6,2.2,3.5,4.4l8.7-3.5c-0.8-1.9-1.7-3.4-2.8-4.7c-1.1-1.3-2.4-2.3-3.9-3
					c-1.4-0.7-3-1.1-4.7-1.2c-1.7-0.1-3.4,0.1-5.2,0.5l-2.5-6.1l-4.8,2l2.4,6c-1.7,0.9-3.2,1.9-4.4,3.1c-1.2,1.2-2.1,2.5-2.8,3.9
					c-0.7,1.4-1,2.9-1,4.4c0,1.5,0.3,3.1,0.9,4.7c0.7,1.8,1.7,3.3,2.9,4.3c1.2,1.1,2.5,1.9,4.1,2.4c1.5,0.5,3.3,0.8,5.2,0.9
					c1.9,0.1,4,0.1,6.2,0c1.3-0.1,2.4-0.1,3.4,0c1,0.1,1.8,0.3,2.5,0.6c0.7,0.3,1.3,0.7,1.7,1.2c0.5,0.5,0.9,1.2,1.2,1.9
					c0.3,0.7,0.4,1.4,0.4,2.1c0,0.7-0.2,1.3-0.5,2c-0.3,0.6-0.8,1.2-1.4,1.7c-0.6,0.5-1.4,1-2.3,1.4c-0.8,0.3-1.7,0.6-2.6,0.7
					c-0.9,0.1-1.7,0-2.6-0.3c-0.8-0.3-1.6-0.8-2.4-1.5c-0.7-0.7-1.4-1.8-1.9-3.1l-8.7,3.5c0.9,2.2,2,4,3.4,5.3
					c1.4,1.3,2.9,2.2,4.5,2.8c1.6,0.6,3.3,0.8,5.1,0.7c1.8-0.1,3.5-0.4,5.3-0.9l2.2,5.5l4.8-1.9l-2.3-5.6c1.7-0.9,3.2-1.9,4.5-3.1
					c1.1-1.1,2-2.3,2.7-3.5c0.1-0.1,0.1-0.2,0.2-0.3c0.7-1.4,1-2.8,1-4.4C681.4,548,681,546.4,680.4,544.8z"/>
			</g>
		</g>
	</g>
	<g class="st20">
		<g>
			<path class="st2" d="M966.3,536.2c0,0,8.2-9.6,0.5-15.7c0,0-5.6-3.4-10.2-3.1c0,0,6.5,10.9,4.4,12c-2.1,1.1-6.4-12.7-6.4-12.7
				s-12.8-1.2-16.9,0.7c0,0,10.9,9,8.6,9.5c-2.3,0.5-14.1-8.3-14.1-8.3s-11.9,2-11.3,9.3c0.6,7.3,4.7,9.5,6.5,9.3
				c1.8-0.2,12.4-4.2,12.6-2.7c0.2,1.5-6.1,6.3-10.6,6.5c0,0,8.4,9.3,14,6.6c5.6-2.7,6.1-6.9,9.5-8.5c3.5-1.6,6.4-1.6,5,0
				c-1.4,1.6-7.7,3.2-9.7,6.7c-2,3.5-3.8,5.9,2,5c5.8-0.9,15.2-5.1,15.6-9.9C966.3,536.2,966.3,536.2,966.3,536.2z"/>
			<g>
				<path class="st2" d="M926.8,528.2c0,0,32.4-1.2,39.5,8c0,0,1.6,4.7,6.4,9l0.8,2.1c0,0-5.6-5.9-7.6-6.3
					C965.9,541,969.1,529.6,926.8,528.2z"/>
				<path class="st2" d="M972.8,545.2c0,0,6.9,5.1,7.4,14.3l-1.3,0.1c0,0-2.2-9.5-6.2-13.2C968.7,542.7,972.8,545.2,972.8,545.2z"/>
			</g>
		</g>
		<g>
			<path class="st2" d="M991.6,528.3c0,0-11.5-6.4-6.1-15.2c0,0,4.3-5.4,8.9-6.8c0,0-2.5,13,0,13.3c2.5,0.3,1.7-14.7,1.7-14.7
				s12.1-5.8,16.9-5.4c0,0-7.5,12.7-5.1,12.4c2.5-0.3,10.9-13.2,10.9-13.2s12.4-2.3,14.4,5.1c2,7.4-1.2,11-3.1,11.5
				c-1.8,0.5-13.7,0.3-13.3,1.8c0.3,1.5,8.3,4,12.7,2.6c0,0-4.9,12.1-11.4,11.5c-6.4-0.6-8.4-4.6-12.4-4.9c-4-0.3-6.9,0.8-4.9,1.8
				c2,1.1,8.7,0.4,12,3.1c3.2,2.7,5.8,4.4-0.2,5.7c-6,1.2-16.7,0.5-18.9-4.1C991.6,528.3,991.6,528.3,991.6,528.3z"/>
			<g>
				<path class="st2" d="M1027.5,506.3c0,0-32.2,10.4-35.9,22.1c0,0,0.2,5.2-3.1,11.2v2.3c0,0,3.4-7.8,5.2-8.9
					C993.8,532.9,986.6,522.8,1027.5,506.3z"/>
				<path class="st2" d="M988.6,539.5c0,0-5,7.5-2.1,16.7l1.3-0.3c0,0-1.2-10.1,1.4-15.2C991.7,535.6,988.6,539.5,988.6,539.5z"/>
			</g>
		</g>
		<g>
			<path class="st4" d="M974.3,514.1c0,0,17.2-9.6,9.2-22.7c0,0-6.4-8-13.3-10.1c0,0,3.7,19.5,0,20c-3.7,0.5-2.5-22-2.5-22
				s-18.1-8.7-25.2-8c0,0,11.2,19,7.6,18.6c-3.7-0.5-16.3-19.7-16.3-19.7s-18.6-3.4-21.6,7.6c-3,11,1.8,16.5,4.6,17.2
				c2.8,0.7,20.4,0.5,20,2.8c-0.5,2.3-12.4,6-19,3.9c0,0,7.3,18.1,17,17.2c9.6-0.9,12.6-6.9,18.6-7.3c6-0.5,10.3,1.1,7.3,2.8
				c-3,1.6-13.1,0.5-17.9,4.6c-4.8,4.1-8.7,6.6,0.2,8.5c8.9,1.8,25,0.7,28.2-6.2C974.3,514.1,974.3,514.1,974.3,514.1z"/>
			<g>
				<path class="st4" d="M920.6,481c0,0,48.2,15.6,53.7,33c0,0-0.2,7.8,4.6,16.7v3.4c0,0-5-11.7-7.8-13.3
					C971,520.9,981.8,505.8,920.6,481z"/>
				<path class="st4" d="M978.8,530.8c0,0,7.4,11.3,3.2,25l-1.9-0.5c0,0,1.9-15.1-2-22.7C974.2,525,978.8,530.8,978.8,530.8z"/>
			</g>
		</g>
		<path class="st4" d="M973.8,582.5c-16.4,0-29.7-13.3-29.7-29.7h59.4C1003.6,569.2,990.3,582.5,973.8,582.5z"/>
		
			<rect x="943.5" y="552.8" transform="matrix(-1 -1.224647e-16 1.224647e-16 -1 1947.99 1106.5457)" class="st2" width="61.1" height="0.9"/>
		<path class="st2" d="M986.5,582.5h-27.8l0,0c0-1.3,1.1-2.4,2.4-2.4h23.1C985.5,580.1,986.5,581.2,986.5,582.5L986.5,582.5z"/>
	</g>
	<g>
		<path class="st4" d="M798.1,380.2c-43.6,34-89.4,57.9-141.5,74c-42.3,13-89.2,21-139.4,23.8c-13.7,0.7-27,1.1-39.8,1.1
			c-25.9,0-49.8-1.3-70.7-3.2l8.4-39.9c28.7,2.3,63,3.6,100.1,1.6c47.2-2.6,91.2-10,130.7-22.2c47.5-14.7,89.1-36.3,128.9-67.2
			L798.1,380.2z"/>
	</g>
	<g>
		<path class="st13" d="M507.7,303.5c-5.3-2.8-9.6-1-9.6-1c-16.3-1.9-21,17.1-20.8,23.6c0.2,6.5,1,13.5-6.3,22
			c-21,24.5,23,25.6,23,25.6c0.4-19.6,23.8-12.4,22.8-10.4C546.9,370.4,519.8,309.8,507.7,303.5z"/>
		<path class="st10" d="M445,385.1c0,0-2.9-4.4-5.2-4.4c-2.3-0.1-6.6-1.3-6.2-0.4c0.3,0.9,3,0.9,3.2,1.5c0.3,0.5-3.9,1.3-5.1,1.4
			c-1.2,0.1-4,0-3.9,0.6c0.1,0.6,5.1,3.1,8.6,2.7c3.5-0.3,7.9,1,7.9,1L445,385.1z"/>
		<path class="st11" d="M486.3,386.5c0,0-1.6,3.1-4.4,6.6c-3.4,4.3-8.6,9.2-15.2,10.1c-3.1,0.5-6.2-0.2-9-1.5c0,0,0,0,0,0
			c-8-3.5-14-11.7-14-11.7c-1.4-3.8,0.9-6.4,0.9-6.4s16.1,3.6,17.7,2.9c1.5-0.8,10.5-26.6,12.6-29.8c2.1-3.2,9.4-4.9,9.4-4.9
			L486.3,386.5z"/>
		<path class="st7" d="M482,393.1c-3.4,4.3-8.6,9.2-15.2,10.1c-3.1,0.5-6.2-0.2-9-1.5c0.3,0,8.3,1,11.5-4.7c3.2-5.8,6.8-15,11.6-12
			C482.8,386.5,482.7,389.8,482,393.1z"/>
		<path class="st4" d="M546.6,560.7c0,0,4.9,4.5,4,7.7c-1,3.2-5.4,5.3-6,9.2c-0.6,3.9-3,6-5.2,6c-2.2,0-10.3,0-10.3,0
			s-1.6-2.7,2.3-3.6c3.8-0.8,5.3-5.4,5.1-9.7c-0.2-4.3,0.4-9.9,0.4-9.9l8.2-1.9L546.6,560.7z"/>
		<path class="st4" d="M504.9,562.6c0,0,1.8,19-0.4,20.1l-27.7-0.1c0,0,0-3.2,4.4-3.9c4.4-0.7,12.3-3.3,13.6-9.1
			C496.2,563.8,504.9,562.6,504.9,562.6z"/>
		<path class="st10" d="M524.6,426c-5.7-12.8-9.2-16.4-8.5-20.4c0.5-2.9-1.5-55-1.5-55c-0.7-0.2-2-0.4-2.8-0.6
			c-2.3-0.5-4.3-2.2-5.1-4.4c-1-2.7-1.7-6.7-1.7-11.7l-0.7,0.1l-12.3,2.4c0,0,0.3,3.9,0.3,7.5c0,0,0,0.1,0,0.1
			c0,3.2-2.1,5.9-5.1,6.8c-1.5,0.4-2.9,0.8-2.9,0.8s-4.5,12.9-5.4,26.1c-0.9,13.2,8.2,18.9-0.1,45.3
			C470.5,450.1,527.7,433.1,524.6,426z"/>
		<path class="st21" d="M492,336.5c0,0,0.3,3.9,0.3,7.5c6.9-0.2,10.5-6.5,12-9.9L492,336.5z"/>
		<path class="st10" d="M489.7,339.9c0,0,16.2,0.3,16.2-9.8c0-10.1,2.1-16.9-8.3-17.5c-10.4-0.6-12.4,3.3-13.2,6.6
			C483.7,322.6,485.5,339.6,489.7,339.9z"/>
		<path class="st13" d="M490.3,312.4c0,0,4.4,11.9,11.3,13.6c6.8,1.8,9.8-0.1,9.8-0.1s-5.2-4.2-6.3-11.4
			C505.1,314.5,493.7,306.7,490.3,312.4z"/>
		<path class="st13" d="M491.4,313.3c0,0-3.3,1.2-4.7,3.6c-1.3,2.4-2.5,5.5-2.2,9.3c0,0-3.3-8.1,0.4-12.6
			C489,308.8,491.4,313.3,491.4,313.3z"/>
		<path class="st22" d="M493.3,333.7c0,0-1.1,1.5-3.4,1.4c-1.8-0.1-2.5-1.7-2.5-1.7S490.7,332.6,493.3,333.7z"/>
		<path class="st11" d="M526.2,373.7c0,0,0.4,5.8,0,12.8c-0.3,4.6-5,10.8-5.6,12.3c-1.7,3.8-3.5,4.5-3.5,4.5l-14.5,3.6l-5.1,1.3
			l-16.1-4.8c0,0-7.3-20.5-4.4-32c2.9-11.5,7.4-19.5,7.4-19.5s13.1,12.9,30.3-1.1L526.2,373.7z"/>
		<path class="st2" d="M482.3,406.4c0,0-8,24.8-8.5,33.3c-0.5,8.5,15.2,120.1,15.9,124c0.6,3.7,5.2,6,5.2,6s2.1,1.2,5.1,0.4
			c4.2-1.2,5.5-2.6,5.5-2.6s6.2-79.6,2.4-108.1c-3.8-28.4-3.9-53-3.9-53H482.3z"/>
		<path class="st4" d="M516.1,405.6c0,0,12.2,16.3,13.3,27.4c1.1,11,1.8,49.8,4.2,60.6c2.4,10.8,11.3,31.5,11.3,65
			c0,0-0.9,1.9-3.8,2.9c-0.9,0.3-2.1,0.6-3.3,0.9c-2.3,0.5-4.8-0.6-5.8-2.8c-6-12.1-25.1-51.1-26.1-59.2
			c-0.7-5.7-6.7-43.6-19.9-65.9c-3.2-5.3,1.9-26.6,1.9-26.6L516.1,405.6z"/>
		<path class="st23" d="M492.9,333.9c0,0-0.3,1.2-3.2,1c0,0-2.5-0.2-2.4-1.5C487.2,333.5,489.7,332.5,492.9,333.9z"/>
		<path class="st2" d="M481,402.5c0,0,3.2,2.5,9.6,2.7c7.6,0.2,26.4-1.9,26.4-1.9s0.8,2.3,0.8,4.8c0,0-23,5.8-36.3,0.8
			C481.5,408.9,479.8,405.7,481,402.5z"/>
		<g>
			<path class="st23" d="M488.8,411.8c-1.9,0-3.5-1.8-3.5-3.9c0-2.2,1.6-3.9,3.5-3.9c1.9,0,3.5,1.8,3.5,3.9
				C492.2,410,490.7,411.8,488.8,411.8z M488.8,405.1c-1.3,0-2.3,1.2-2.3,2.8c0,1.5,1,2.8,2.3,2.8c1.3,0,2.3-1.2,2.3-2.8
				C491.1,406.3,490,405.1,488.8,405.1z"/>
		</g>
		
			<rect x="500.3" y="379.8" transform="matrix(0.7542 -0.6567 0.6567 0.7542 -136.6041 437.4375)" class="st23" width="31.2" height="42.8"/>
		<path class="st10" d="M511.7,407.1c0,0-8.6,1-8.6,3.1c0,2,2.2,6.3,3.2,6.4c1.1,0.2,7-5.7,7-5.7L511.7,407.1z"/>
		<path class="st11" d="M514.6,350.6c0,0,11.5,0.8,15.9,11.5c4.4,10.7,12.8,28.8,12.8,31.8c0,3-4.7,12.4-29.8,17.8
			c0,0-2.6-2.7-2.4-4.9c0,0,15.7-13.5,15.7-15.1c-0.1-3-2.6-6.9-16.4-20.7C506.6,367.3,514.6,350.6,514.6,350.6z"/>
	</g>
	<g>
		<g>
			<g>
				<g>
					<path class="st24" d="M265.3,583.6h-0.1c-0.7,0-1.2-0.6-1.2-1.2l1.8-78.5l5.3-0.6l-4.6,79.2C266.5,583.1,266,583.6,265.3,583.6
						z"/>
				</g>
				<g>
					<path class="st25" d="M351.1,583.6h0.1c0.7,0,1.2-0.6,1.2-1.2l-1.8-78.5l-5.3-0.6l4.6,79.2
						C349.9,583.1,350.4,583.6,351.1,583.6z"/>
				</g>
				<path class="st25" d="M261.7,499v-53.8c0-9.5,7.7-17.1,17.1-17.1h38.8c9.5,0,17.1,7.7,17.1,17.1V501L261.7,499z"/>
				<path class="st24" d="M341.8,507.5h-71.5c-4.7,0-8.5-3.8-8.5-8.5l0,0h80V507.5z"/>
				<path class="st25" d="M350.3,507.5h-55.8c-2.3,0-4.2-1.9-4.2-4.2l0,0c0-2.3,1.9-4.2,4.2-4.2h55.8c2.3,0,4.2,1.9,4.2,4.2l0,0
					C354.6,505.6,352.6,507.5,350.3,507.5z"/>
			</g>
			<g>
				<path class="st2" d="M348.5,485.6C343,495.2,336,499,336,499h-29.1C306.9,499,352.8,478.2,348.5,485.6z"/>
				<g>
					<path class="st10" d="M326.2,560.4c-0.8,0.9-0.9,1.8-0.5,2.9c0,0,0,0,0,0c0.7,1.9,3,4.1,5.6,6.2c0.3,0.3,0.6,0.5,0.9,0.8
						c0.1,0.1,0.1,0.1,0.2,0.2c0.1,0,0.1,0.1,0.2,0.1c2.5,2.3,1.5,2.8,6,7.5c5.1,5.3,8.6,5.4,9.6,4.9c0.8-0.4-0.9-3.2-2.8-6.4
						c-0.1-0.2-0.2-0.3-0.3-0.5c-0.3-0.4-0.5-0.8-0.8-1.3c-2.2-3.8-1.7-5.6-1.1-11.2c0.4-4.6,7.1-25.6,7.1-25.6l-9.7-1.7
						c0,0-2.9,16.8-6.2,19.3c-1.7,1.4-3.7,1.4-5.3,2.4c-0.1,0.1-0.2,0.1-0.3,0.2C327.9,558.9,327,559.5,326.2,560.4z"/>
					<path class="st2" d="M326.2,560.4c-0.8,0.9-0.9,1.8-0.5,2.9c0,0,0,0,0,0c0.8,1.9,3.1,4,5.7,6.2c0.3,0.3,0.6,0.5,0.9,0.8
						c0.1,0.1,0.1,0.1,0.2,0.2c0.1,0,0.1,0.1,0.2,0.1c2.5,2.3,1.5,2.8,6,7.5c5.1,5.3,8.6,5.4,9.6,4.9c0.8-0.4-0.9-3.2-2.8-6.4
						c-1-0.4-5.6-2.2-9.1-6.7c-3.1-3.9-5.1-8.9-7.2-11.8c-0.1,0.1-0.2,0.1-0.3,0.2C327.9,558.9,327,559.5,326.2,560.4z"/>
					<path class="st10" d="M404.8,554.3c0.6,3,4.9,2.5,9.7,1.3c4.8-1.2,3.7,0.2,10.5-0.5c6.8-0.8,8.9-3.3,9.1-4.3
						c0.2-0.9-3.2-1.2-6.8-1.6c-0.5-0.1-0.9-0.1-1.4-0.2c-4.1-0.5-7.1-3.1-10.8-5.3c-3.5-2-8.7-10.4-8.7-10.4L397,534
						c0,0,4.9,7.4,6.8,10.7c1.1,1.9,1.1,4.4,0.9,6.4C404.6,552.1,404.5,553.2,404.8,554.3z"/>
					<path class="st2" d="M414.4,555.6c4.8-1.2,3.7,0.2,10.5-0.5c6.8-0.8,8.9-3.3,9.1-4.3c0.2-0.9-3.2-1.2-6.8-1.6l0,0.1
						c0,0-4.1,2.9-9.8,3c-4.6,0.1-9.5-1.2-12.7-1.2c-0.1,1.1-0.1,2.1,0.1,3.2C405.4,557.3,409.6,556.8,414.4,555.6z"/>
					<path class="st2" d="M368.9,494.5l-8.7,23.5l-11.4,30.7c0,0-3.1,0.3-6.1-0.6c-2.7-0.8-5.9-2.9-5.9-2.9s3.2-33,9.1-51.9
						c1.5-4.9,3.2-8.8,5.1-11C360.2,471.6,368.9,494.5,368.9,494.5z"/>
					<path class="st4" d="M360.1,457.2c-5.7-1.8-22,0.5-38.4,3.7l-3.4-5.7l-35.4-2.8c0,0-11.7,25.9-5.3,42.4c0.9,2.4,2.8,4,6,4
						c0,0,0.5,0,0.5,0c0,0,21.1,0,27.9,0c17.6,0,37.3-12.1,39.8-12.6c4.2-0.8,5.8,7.5,10,16.2c4.2,8.7,39.1,38.7,39.1,38.7
						s5.4,0.1,7.6-0.8c2.4-0.9,3.3-2.1,3.3-2.1S373,461.4,360.1,457.2z"/>
					<path class="st26" d="M316.8,352.1c-4.5-2.4-11.4-2.7-12.6-2.9c-13.4-1.8-21.5,17.7-22,23.6c-0.9,10.9-6.6,12.6-14.7,19.4
						c-16.3,13.7-11.5,29.6-2.6,35.5c5.3,3.5,14.7,0,14.7,0c0.1,0.1,25.7-14.3,38.3-21.2C336.9,403.8,328.4,358.2,316.8,352.1z"/>
					<path class="st10" d="M307.4,400.6c0.1,0-6.2,2.2-10.4,0.3c-3.9-1.7-6.9-8.2-6.9-8.2c1.8-0.1,3.8-1.6,5.3-11.9l0.8,0.3
						l12.8,4.6c0,0-0.9,4.1-1.5,8C307,397,306.7,400.1,307.4,400.6z"/>
					<path class="st27" d="M309,385.6c0,0-0.9,4.1-1.5,8c-7.4-1.3-10.3-8.7-11.3-12.7L309,385.6z"/>
					<path class="st10" d="M310.9,389.7c0,0-17.6-2.4-15.9-13.3c1.6-10.9,0.5-18.6,11.7-17.5c11.3,1,12.8,5.5,13.2,9.3
						C320.3,372,315.5,390.1,310.9,389.7z"/>
					<path class="st26" d="M319.3,362.3c0,0-11.2,9.7-18.9,10.5c-7.6,0.8-10.5-1.7-10.5-1.7s4.5-3.7,7.2-9.8c0.8-1.8,2.5-3,4.4-3.2
						C307,357.6,317.3,357.4,319.3,362.3z"/>
					<path class="st26" d="M312.3,361.4c0,0,3.8,3.6,4.9,6.3c1.1,2.6,1.5,8.8,0.6,11.3c0,0,5.9-11.4,2.5-16.9
						C316.8,356.2,312.3,361.4,312.3,361.4z"/>
					<path class="st4" d="M322.2,426.4c-0.5,35.5-0.1,28.1-4,31.5c-0.9,0.8-3.6,1.3-7,1.5c-10.9,0.7-30-1.1-30.8-3.1
						c-2.5-7-0.7-9.1-2.8-19.8c-0.2-1.1-0.5-2.4-0.8-3.7c-1.7-7.3-3.4-9.8,2.8-21.6c5.6-10.7,11.5-19.3,12-19
						c14.8,8.8,16,1.4,16,1.4S322.4,409.1,322.2,426.4z"/>
					<path class="st4" d="M360.2,518l-11.4,30.7c0,0-3.1,0.3-6.1-0.6c-2.7-0.8-5.9-2.9-5.9-2.9s3.2-33,9.1-51.9L360.2,518z"/>
					<path class="st2" d="M307.5,393.7c0,0,15.3,2.6,17.1,9.2c1.8,6.6,12.3,45.2,12.3,45.2s-7.8,1.4-11.3-2.2
						c-3.6-3.6-12.5-33.3-12.5-33.3L307.5,393.7z"/>
					<path class="st28" d="M311.1,459.4c-10.9,0.7-30-1.1-30.8-3.1c-2.5-7-0.7-9.1-2.8-19.8l5.3-14.8c0,0-0.9,16.5,4,20.8
						c4.9,4.3,19.9,8.4,22.3,12C310.1,456.3,310.9,458,311.1,459.4z"/>
					<path class="st10" d="M298.6,452.5c0,0,10.7-2.4,12.5-1.4c1.7,1,6,4.4,6.5,5.6c0.5,1.2-3.9-0.9-5.3-1.3c-0.9-0.2-3.4,0.6-4.6,1
						c-5.1,1.7-8.2,0.8-8.2,0.8L298.6,452.5z"/>
					<path class="st2" d="M291.4,392.3c0,0-14.4,0.9-19.4,7.9c-7,9.8-21,51.6-13,57.2c9,6.3,41,1.6,41,1.6s1.1-5-0.4-7.4
						c-1.5-2.4-25.5-6.3-26.6-7.4c-1.1-1.1,13.9-21.7,13.9-25C286.8,415.8,291.4,392.3,291.4,392.3z"/>
					<path class="st10" d="M311.6,454.1c0,0,2.3,2.9,3,3.3c0.7,0.3,1.2,0.3,1.2,0.3l-1.5-2.7L311.6,454.1z"/>
					<path class="st10" d="M311.1,451.1l6.5,3.2c0,0-0.3,0.5-1.1,0.4c-0.8,0-2.8-0.8-2.8-0.8L311.1,451.1z"/>
				</g>
				<g>
					<g>
						<polygon class="st29" points="312.3,461.8 367.5,461.8 384.1,423 329,423 						"/>
						<polygon class="st30" points="368.1,459.2 295.2,459.2 295.2,461.7 367.5,461.7 						"/>
					</g>
					<path class="st22" d="M353.5,442.4c0.4-1.4-0.4-2.5-1.9-2.5c-1.5,0-3,1.1-3.4,2.5c-0.4,1.4,0.4,2.5,1.9,2.5
						C351.6,444.9,353.1,443.7,353.5,442.4z"/>
				</g>
			</g>
		</g>
		<g>
			<g>
				<path class="st2" d="M449.2,584.7h0.2c0.9,0,1.6-0.8,1.6-1.8l-2.4-114.6l-7.1-0.9l6,115.5C447.5,583.9,448.3,584.7,449.2,584.7z
					"/>
			</g>
			<g>
				<path class="st2" d="M300.3,584.7h-0.2c-0.9,0-1.6-0.8-1.6-1.8l2.4-114.6l7.1-0.9l-6,115.5C302,583.9,301.3,584.7,300.3,584.7z"
					/>
			</g>
			<path class="st2" d="M450.4,470H292.7c-2.3,0-4.1-1.8-4.1-4.1l0,0c0-2.3,1.8-4.1,4.1-4.1h157.8c2.3,0,4.1,1.8,4.1,4.1l0,0
				C454.5,468.1,452.7,470,450.4,470z"/>
		</g>
	</g>
	<path class="st31" d="M1039.2,586.3H168.7c-1,0-1.9-0.8-1.9-1.9v0c0-1,0.8-1.9,1.9-1.9h870.5c1,0,1.9,0.8,1.9,1.9v0
		C1041.1,585.4,1040.3,586.3,1039.2,586.3z"/>
</g>
<g>
	<g>
		<g>
			<path class="st32" d="M771.5,87.8c3.8-0.6,9.6-1.1,16.5-1.1c7.8,0,13.4,1.1,17.2,4c3.3,2.5,5,6.1,5,11.1c0,6.4-4.8,10.9-8.7,12.3
				v0.3c3.4,1.5,5.2,4.7,6.5,9.1c1.5,5.2,3.2,12.6,4.2,14.5h-13.9c-0.8-1.5-2.1-5.5-3.6-11.7c-1.4-6.1-3.2-7.4-7.5-7.4H785v19.1
				h-13.5L771.5,87.8L771.5,87.8z M785,109.2h3.6c5.1,0,8.1-2.5,8.1-6.3s-2.5-6-7-6c-2.6,0-3.9,0.1-4.6,0.3V109.2z"/>
			<path class="st32" d="M850.1,117.6h-18.3v9.4h20.5v11.1h-34.1V87.1h33.1v11.2h-19.4v8.2h18.3V117.6z"/>
			<path class="st32" d="M872.2,138.1L856,87.1h15l5.4,20c1.6,5.7,3,11.3,4.2,17.8h0.2c1.2-6.2,2.7-12.1,4.2-17.6l5.5-20.3H905
				l-16.7,50.9L872.2,138.1L872.2,138.1z"/>
			<path class="st32" d="M942.6,117.6h-18.3v9.4h20.5v11.1h-34.1V87.1h33v11.2h-19.4v8.2h18.3L942.6,117.6L942.6,117.6z"/>
			<path class="st32" d="M952.3,138.1V87.1h16.1l8.1,15.6c2.8,5.1,5.7,11.9,8,17.9h0.2c-0.8-6.7-1-13.8-1-21.4v-12h12.5v50.9h-14.4
				l-8.6-16.9c-2.8-5.4-6.1-12.2-8.6-18.4h-0.3c0.3,6.9,0.5,14.6,0.5,22.8v12.5L952.3,138.1L952.3,138.1z"/>
			<path class="st32" d="M1019.2,87.1v28.9c0,7.7,2.7,12,8.1,12c5.4,0,8.1-3.9,8.1-12V87.1h13.6v28.1c0,15.7-7.8,23.7-22.2,23.7
				c-13.9,0-21.3-7.6-21.3-24V87.1H1019.2z"/>
			<path class="st32" d="M1090.2,117.6h-18.3v9.4h20.5v11.1h-34.1V87.1h33.1v11.2h-19.4v8.2h18.3V117.6L1090.2,117.6z"/>
		</g>
	</g>
	<g>
		<g>
			<path class="st32" d="M918.8,176.5l-2.4,8h-11.8l13.1-41.3h15.7l13.6,41.3h-12.6l-2.5-8H918.8z M929.7,167.5
				c-1.9-6.5-3.5-12.3-4.5-16.3h-0.2c-1,4.5-2.5,10.3-4.2,16.3H929.7z"/>
			<path class="st32" d="M963.1,143.2v25.4c0,5.9,2.9,7.9,6.6,7.9c4,0,6.3-2.4,6.3-7.9v-25.4h12.2v24.2c0,13.7-8.1,17.9-18.7,17.9
				c-10.9,0-18.5-4.4-18.5-17.8v-24.2H963.1z"/>
			<path class="st32" d="M996.2,143.2h17.8c13.2,0,20.8,8.3,20.8,20.2c0,11.9-7.4,21.1-21,21.1h-17.6V143.2z M1008.3,175.8h4.6
				c6.6,0,9.3-4.6,9.3-12.3c0-6.8-2.5-11.4-9.1-11.4h-4.8V175.8z"/>
			<path class="st32" d="M1053.6,143.2v41.3h-12.1v-41.3H1053.6z"/>
			<path class="st32" d="M1070.4,152.2h-11.8v-9h35.6v9h-11.7v32.3h-12.1V152.2z"/>
		</g>
	</g>
</g>
</svg>
