<?xml version="1.0" encoding="utf-8"?>
<!-- Generator: Adobe Illustrator 26.0.0, SVG Export Plug-In . SVG Version: 6.00 Build 0)  -->
<svg version="1.1" id="Layer_1" xmlns="http://www.w3.org/2000/svg" xmlns:xlink="http://www.w3.org/1999/xlink" x="0px" y="0px"
	 viewBox="0 0 1280 673" style="enable-background:new 0 0 1280 673;" xml:space="preserve">
<style type="text/css">
	.st0{fill:#FBF8E8;}
	.st1{fill:#BBBBBB;}
	.st2{fill:#0E2549;}
	.st3{fill:#F1F1F1;}
	.st4{fill:#1B2746;}
	.st5{fill:#D4C8AE;}
	.st6{fill:#D4B269;}
	.st7{fill:#FFFFFF;}
	.st8{fill:#A1C5E2;}
	.st9{fill:#D2EBFC;}
</style>
<rect x="0.3" class="st0" width="1279.3" height="673"/>
<g>
	<path class="st1" d="M504.2,239.6l-9-10.8c-1.2-1.4-3.3-1.6-4.7-0.4l-7.1,5.9c-0.1,0.1-0.4,0.1-0.5,0c-4-3.1-8.5-5.5-13.2-7.1
		c-0.2-0.1-0.3-0.2-0.3-0.4l0.9-9.2c0.2-1.9-1.2-3.5-3-3.7l-14-1.3c-1.9-0.2-3.5,1.2-3.7,3l-0.8,9.1c0,0.2-0.2,0.3-0.4,0.4
		c-5.1,0.7-10.1,2.2-14.9,4.6c-0.2,0.1-0.4,0-0.5-0.1l-6-7.2c-1.2-1.4-3.3-1.6-4.7-0.4l-10.8,9c-1.4,1.2-1.6,3.3-0.4,4.7l6.1,7.3
		c0.1,0.1,0.1,0.4,0,0.5c-3,4-5.2,8.3-6.8,12.8c-0.1,0.2-0.2,0.3-0.4,0.3l-9.3-0.9c-1.9-0.2-3.5,1.2-3.7,3l-1.3,14
		c-0.2,1.9,1.2,3.5,3,3.7l9.2,0.9c0.2,0,0.3,0.2,0.4,0.4c0.7,5.1,2.2,10.1,4.6,14.8c0.1,0.2,0,0.4-0.1,0.5l-7.1,5.9
		c-1.4,1.2-1.6,3.3-0.4,4.7l9,10.8c1.2,1.4,3.3,1.6,4.7,0.4l7.2-6c0.2-0.1,0.4-0.1,0.5,0c4.2,3.1,8.9,5.5,13.7,7
		c0.2,0.1,0.3,0.2,0.3,0.4l-0.8,9c-0.2,1.9,1.2,3.5,3,3.7l14,1.3c1.9,0.2,3.5-1.2,3.7-3l0.9-9.4c0-0.2,0.2-0.3,0.4-0.4
		c4.5-0.7,9-2.1,13.3-4.2c0.2-0.1,0.4,0,0.5,0.1l6,7.2c1.2,1.4,3.3,1.6,4.7,0.4l10.8-9c1.4-1.2,1.6-3.3,0.4-4.7l-5.9-7.2
		c-0.1-0.1-0.1-0.4,0-0.5c3.3-4.3,5.7-9.1,7.3-14.1c0.1-0.2,0.2-0.3,0.4-0.3l9,0.8c1.9,0.2,3.5-1.2,3.7-3l1.3-14
		c0.2-1.9-1.2-3.5-3-3.7l-9.3-0.9c-0.2,0-0.3-0.2-0.4-0.4c-0.7-4.6-2.1-9.1-4.2-13.4c-0.1-0.2,0-0.4,0.1-0.5l7.2-6
		C505.2,243.1,505.4,241,504.2,239.6z M476,298.2c-14.7,12.2-36.4,10.2-48.6-4.5c-12.2-14.6-10.2-36.4,4.5-48.6
		c14.6-12.2,36.4-10.2,48.6,4.5C492.7,264.2,490.7,286,476,298.2z"/>
	<path class="st1" d="M386.9,227.7l-5-6.1c-0.7-0.8-1.8-0.9-2.6-0.3l-4,3.2c-0.1,0.1-0.2,0.1-0.3,0c-2.3-1.8-4.8-3.2-7.6-4.2
		c-0.1,0-0.2-0.1-0.2-0.2l0.5-5.2c0.1-1-0.6-2-1.7-2.1l-7.8-0.8c-1-0.1-2,0.6-2.1,1.7l-0.5,5.3c0,0.1-0.1,0.2-0.2,0.2
		c-2.7,0.4-5.4,1.2-7.8,2.3c-0.1,0-0.2,0-0.3-0.1l-3.3-4.1c-0.7-0.8-1.8-0.9-2.6-0.3l-6.1,5c-0.8,0.7-0.9,1.8-0.3,2.6l3.3,4
		c0.1,0.1,0.1,0.2,0,0.3c-1.8,2.3-3.2,4.8-4.1,7.6c0,0.1-0.1,0.2-0.2,0.2l-5.1-0.5c-1-0.1-2,0.6-2.1,1.7l-0.8,7.8
		c-0.1,1,0.6,2,1.7,2.1l5.2,0.5c0.1,0,0.2,0.1,0.2,0.2c0.4,2.9,1.3,5.7,2.6,8.2c0,0.1,0,0.2-0.1,0.3l-3.9,3.2
		c-0.8,0.7-0.9,1.8-0.3,2.6l5,6.1c0.7,0.8,1.8,0.9,2.6,0.3l4.1-3.3c0.1-0.1,0.2-0.1,0.3,0c2.1,1.5,4.4,2.8,6.9,3.7
		c0.1,0,0.2,0.1,0.2,0.2l-0.5,5.2c-0.1,1,0.6,2,1.7,2.1l7.8,0.8c1,0.1,2-0.6,2.1-1.7l0.5-5.2c0-0.1,0.1-0.2,0.2-0.2
		c3-0.4,5.9-1.2,8.5-2.6c0.1,0,0.2,0,0.3,0.1l3.2,3.9c0.7,0.8,1.8,0.9,2.6,0.3l6.1-5c0.8-0.7,0.9-1.8,0.3-2.6l-3.3-4.1
		c-0.1-0.1-0.1-0.2,0-0.3c1.6-2.1,2.8-4.4,3.7-6.9c0-0.1,0.1-0.2,0.2-0.2l5.2,0.5c1,0.1,2-0.6,2.1-1.7l0.8-7.8c0.1-1-0.6-2-1.7-2.1
		l-5.1-0.5c-0.1,0-0.2-0.1-0.2-0.2c-0.3-2.8-1.1-5.5-2.3-8c0-0.1,0-0.2,0.1-0.3l4-3.3C387.5,229.7,387.6,228.5,386.9,227.7z
		 M377.8,247c-1.1,10.6-10.6,18.3-21.1,17.2c-10.6-1.1-18.3-10.6-17.2-21.1c1.1-10.6,10.6-18.3,21.1-17.2
		C371.2,226.9,378.9,236.4,377.8,247z"/>
	<g>
		<path class="st1" d="M918.2,197.6c0,29.2-23.7,52.9-52.9,52.9c-29.2,0-52.9-23.7-52.9-52.9c0-4.8,0.7-9.5,1.9-14
			c0.7-2.5,1.6-5,2.6-7.4l48.4,21.4l-18.7-49.5c2.3-0.9,4.7-1.6,7.2-2.1c3.7-0.8,7.6-1.3,11.6-1.3
			C894.5,144.7,918.2,168.4,918.2,197.6z"/>
		<path class="st1" d="M855.5,187l-48.2-21.8c5.7-12.6,16.2-22.5,29.1-27.5L855.5,187z"/>
	</g>
	<path class="st2" d="M924,267.9c-0.3,0-0.5,0.3-0.5,0.6c0,0.3,0.3,0.5,0.6,0.5l21.3-1.2l-59.2,34.3L875,284.3l-59.2,29.3
		c-0.3,0.1-0.4,0.4-0.2,0.7c0.1,0.2,0.3,0.3,0.5,0.3c0.1,0,0.2,0,0.2-0.1l58.4-28.9l11.2,17.8l60-34.8l-10.6,17.7
		c-0.1,0.2-0.1,0.6,0.2,0.7c0.1,0.1,0.2,0.1,0.3,0.1c0.2,0,0.4-0.1,0.5-0.3l12.2-20.4L924,267.9z"/>
	<g>
		<rect x="622" y="478.5" class="st3" width="76" height="70.5"/>
		<path class="st4" d="M698.5,549.5h-77V478h77V549.5z M622.5,548.5h74.9V479h-74.9V548.5z"/>
		<path class="st5" d="M851.7,490.7H463.4c-5.3,0-9.5-4.3-9.5-9.5v-274c0-5.3,4.3-9.5,9.5-9.5h388.4c5.3,0,9.5,4.3,9.5,9.5v274
			C861.3,486.4,857,490.7,851.7,490.7z"/>
		<path class="st4" d="M851.7,491.2H463.4c-5.6,0-10.1-4.5-10.1-10.1v-274c0-5.6,4.5-10.1,10.1-10.1h388.4c5.6,0,10.1,4.5,10.1,10.1
			v274C861.8,486.7,857.3,491.2,851.7,491.2z M463.4,198.2c-5,0-9,4-9,9v274c0,5,4,9,9,9h388.4c5,0,9-4,9-9v-274c0-5-4-9-9-9H463.4z
			"/>
		<rect x="478.4" y="217.7" class="st3" width="361.8" height="235.1"/>
		<path class="st4" d="M840.7,453.3H477.9V217.2h362.8V453.3z M478.9,452.2h360.7v-234H478.9V452.2z"/>
		<rect x="581.5" y="548" class="st3" width="157" height="34.3"/>
		<path class="st4" d="M739,582.8h-158v-35.3h158V582.8z M582,581.7h155.9v-33.2H582V581.7z"/>
		<path class="st6" d="M786.7,234.6c0,2.4-2,4.4-4.4,4.4c-2.4,0-4.4-2-4.4-4.4c0-2.4,2-4.4,4.4-4.4
			C784.7,230.2,786.7,232.1,786.7,234.6z"/>
		<circle class="st6" cx="798.2" cy="234.5" r="4.4"/>
		<circle class="st6" cx="814.1" cy="234.5" r="4.4"/>
		<path class="st2" d="M668.2,472.1c0,4.9-4,8.9-8.9,8.9c-4.9,0-8.9-4-8.9-8.9c0-4.9,4-8.9,8.9-8.9
			C664.2,463.2,668.2,467.2,668.2,472.1z"/>
	</g>
	<g>
		<rect x="603.2" y="310.3" class="st6" width="56" height="29.2"/>
		<rect x="659.3" y="280.6" class="st6" width="53.9" height="29.2"/>
		<rect x="546.5" y="339.7" class="st6" width="56.8" height="29.2"/>
		<rect x="490.7" y="249.6" class="st6" width="330.6" height="30.7"/>
		<rect x="490.7" y="369.4" class="st6" width="55.1" height="29.2"/>
		<path class="st2" d="M490.1,249.1v30.8v30.7v28.4v29.7v0.9v28.6v1.1v29.6h55.1v23.9c0,0.3,0.2,0.5,0.5,0.5c0.3,0,0.5-0.2,0.5-0.5
			v-23.9h56.4v23.9c0,0.3,0.2,0.5,0.5,0.5s0.5-0.2,0.5-0.5v-23.9h55v23.9c0,0.3,0.2,0.5,0.5,0.5s0.5-0.2,0.5-0.5v-23.9h52.9v23.9
			c0,0.3,0.2,0.5,0.5,0.5c0.3,0,0.5-0.2,0.5-0.5v-23.9H767v20.1c0,0.3,0.2,0.5,0.5,0.5c0.3,0,0.5-0.2,0.5-0.5v-20.1h53.7v-29.6v-1.1
			v-28.6v-0.9v-29.7v-28.4v-30.7v-30.8H490.1z M767,369.7v28.5h-53.3v-28.5H767z M712.7,369.7v28.5h-52.9v-28.5H712.7z M658.8,369.7
			v28.5h-55v-28.5H658.8z M602.7,369.7v28.5h-56.4v-28.5H602.7z M545.2,369.7v28.5h-54.1v-28.5H545.2z M768.1,398.2v-28.5h52.6v28.5
			H768.1z M491.2,427.8v-28.5h54.1v28.5H491.2z M546.3,427.8v-28.5h56.4v28.5H546.3z M603.8,427.8v-28.5h55v28.5H603.8z
			 M659.8,427.8v-28.5h52.9v28.5H659.8z M713.7,427.8v-28.5H767v28.5H713.7z M820.7,427.8h-52.6v-28.5h52.6V427.8z M820.7,250.1
			v29.7h-52.6v-29.6c0-0.1,0-0.1,0-0.1H820.7z M768.1,338.9v-28.4h52.6v28.4H768.1z M820.7,340v28.5h-52.6V340H820.7z M768.1,309.4
			v-28.5h52.6v28.5H768.1z M713.7,250.1H767c0,0,0,0.1,0,0.1v29.6h-53.3V250.1z M713.7,280.9H767v28.5h-53.3V280.9z M713.7,310.5
			H767v28.4h-53.3V310.5z M713.7,340H767v28.5h-53.3V340z M659.8,250.1h52.9v29.7h-52.9V250.1z M659.8,280.9h52.9v28.5h-52.9V280.9z
			 M659.8,310.5h52.9v28.4h-52.9V310.5z M659.8,340h52.9v28.5h-52.9V340z M603.8,250.1h55v29.7h-55V250.1z M603.8,280.9h55v28.5h-55
			V280.9z M603.8,310.5h55v28.4h-55V310.5z M603.8,340h55v28.5h-55V340z M602.7,250.1v29.7h-56.4v-29.6c0-0.1,0-0.1,0-0.1H602.7z
			 M546.3,338.9v-28.4h56.4v28.4H546.3z M602.7,340v28.5h-56.4V340H602.7z M546.3,309.4v-28.5h56.4v28.5H546.3z M491.2,250.1h54.1
			c0,0,0,0.1,0,0.1v29.6h-54.1V250.1z M491.2,280.9h54.1v28.5h-54.1V280.9z M491.2,310.5h54.1v28.4h-54.1V310.5z M491.2,340h54.1
			v28.5h-54.1V340z"/>
	</g>
	<g>
		<path class="st3" d="M547.9,268.5c-0.1,0.3-0.1,0.6-0.2,0.8c-3.2,11.7-8.7,15.4-11.6,14.3c-0.9-0.3-1.6-1.2-1.8-2.4
			c-0.9-5.1,5.7-15.8,5.7-15.8S552.1,252.3,547.9,268.5z"/>
		<path class="st3" d="M557.1,273.9c-0.2,1.3-0.9,2.1-1.9,2.3c-2.7,0.6-7.6-2.9-10.4-13.4c0-0.2-0.1-0.4-0.1-0.5
			c-3.8-14.8,6.4-4.2,6.4-4.2S557.9,269.2,557.1,273.9z"/>
		<path class="st2" d="M555.2,276.2c-2.7,0.6-7.6-2.9-10.4-13.4l1.9-0.5C546.7,262.3,546.8,270.6,555.2,276.2z"/>
		<path class="st2" d="M547.7,269.4c-3.2,11.7-8.7,15.4-11.6,14.3c9-5,10.1-15.6,10.1-15.6L547.7,269.4z"/>
		<path class="st2" d="M578,203.3c-1-2.3-2.7-4.6-5.5-6.3c-0.5-0.3-8-5.9-8.6-6.2c-4.7-2.4-35.9-1.2-42.2-0.9
			c-0.5,0-8.9,8.9-10.1,12.2c-0.7,2-0.9,4.2,0,5.9c0.3,0.6,1.4,2.4,2.5,4.3l24.6,42.5l2.4,4.1l-0.9,2.6L539,265l9.1,5.1l30.1-55.7
			C579.3,212.4,579.9,207.7,578,203.3z M547.6,239.5l-1.7,4.9l-1.1-3.7l-9-31.7l10.5-7.5l11.5,9.7L547.6,239.5z"/>
		<path class="st7" d="M537.7,117.5c0,0,0.1,11.1-0.9,12.4c-1,1.2-6.2,4-6.2,4l17.3,11.5l10.8-10.6c0,0-5.6-2.6-6.1-4.1
			c-0.7-2-0.3-12.8-0.3-12.8L537.7,117.5z"/>
		<path class="st2" d="M547.9,146l-18.4-12.2l0.8-0.4c1.4-0.8,5.3-2.9,6.1-3.9c0.6-0.7,0.8-6.7,0.8-12l1.1,0c0,2.7,0.1,11.4-1,12.7
			c-0.8,1-4.1,2.9-5.6,3.7l16.2,10.8l9.9-9.8c-1.7-0.8-5.2-2.7-5.7-4.1c-0.7-2.1-0.4-11.9-0.3-13l1.1,0c-0.1,3-0.3,11,0.3,12.6
			c0.3,0.9,3.6,2.7,5.8,3.8l0.7,0.3L547.9,146z"/>
		<path class="st2" d="M541.1,94.9c0,0-7,0.9-7.1,5c-0.1,4.7,0.5,10.9,0.9,14.1c0.2,1.3,1.2,2.2,2.5,2.3l14.4,0.3
			c1.3,0,2.4-0.9,2.6-2.2c0.6-4.4,1.8-13.7,1.3-15.1C554.1,94.5,541.1,94.9,541.1,94.9z"/>
		<path class="st7" d="M541.7,121.3c4.1,0.6,9.2-0.1,10.6-1.5c0.8-0.8,1.3-4.1,1.4-7.8c0-0.1,0.1-0.2,0.2-0.3c1-0.6,2.5-1.8,2.5-3.6
			c0-1.6-1.2-1.3-2.2-0.8c-0.2,0.1-0.4,0-0.4-0.2c0-4.5-0.1-8.5-0.1-8.5l-18.2-0.4c0,0-0.1,4,0,8.5c0,0.2-0.2,0.3-0.4,0.2
			c-0.9-0.6-2.3-1.1-2.3,0.6c-0.1,2.1,1.7,3.4,2.7,3.9c0.1,0,0.2,0.1,0.2,0.3c0.1,3.2,0.4,5.9,0.8,6.9c0.2,0.5,0.7,1,1.3,1.4
			L541.7,121.3z"/>
		<path class="st2" d="M544.8,122c-1.1,0-2.2-0.1-3.2-0.2c-0.3,0-0.5-0.3-0.4-0.6c0-0.3,0.3-0.5,0.6-0.4c3.9,0.6,8.9-0.1,10.2-1.3
			c0.3-0.3,1-1.5,1.3-7.4c0-0.3,0.2-0.6,0.4-0.7c0.7-0.4,2.2-1.4,2.2-3.1c0-0.3-0.1-0.6-0.2-0.6c-0.1-0.1-0.5-0.1-1.2,0.3
			c-0.2,0.1-0.5,0.1-0.8,0c-0.2-0.1-0.4-0.4-0.4-0.7c0-3.5-0.1-6.7-0.1-7.9L536,98.8c0,1.2,0,4.5,0,8c0,0.3-0.1,0.6-0.4,0.7
			c-0.2,0.1-0.6,0.1-0.8,0c-0.7-0.5-1.2-0.5-1.3-0.4c-0.1,0.1-0.2,0.3-0.2,0.6c-0.1,2.1,2.2,3.3,2.4,3.4c0.3,0.1,0.4,0.4,0.5,0.7
			c0.2,4.6,0.5,6.2,0.7,6.7c0.2,0.4,0.5,0.8,1.1,1.1c0.2,0.2,0.3,0.5,0.2,0.7c-0.2,0.2-0.5,0.3-0.7,0.2c-0.7-0.4-1.2-1-1.5-1.6
			c-0.4-0.9-0.7-3.2-0.8-7c-1.4-0.7-3-2.3-2.9-4.4c0-0.8,0.3-1.3,0.8-1.5c0.5-0.3,1.2-0.2,2,0.2c-0.1-4.3,0-8,0-8.1l0-0.5l19.2,0.5
			l0,0.5c0,0,0.2,3.8,0.1,8.1c0.8-0.3,1.4-0.4,1.9-0.1c0.4,0.3,0.7,0.8,0.7,1.5c0,2.2-1.8,3.5-2.7,4c-0.3,6.1-1.1,7.5-1.6,8
			C551.4,121.4,548,122,544.8,122z"/>
		<path class="st7" d="M490.6,185.3c0,0-3.4,4.7-6.1,6.5c-2.7,1.8-15,1.4-15,4.5s16.8,1.6,18.7,0c1.9-1.6,8.1-7.2,8.1-7.2
			L490.6,185.3z"/>
		<path class="st2" d="M476.2,198.6c-2.5,0-4.8-0.2-6-0.8c-1-0.5-1.2-1.1-1.2-1.5c0-2.3,4.3-2.9,8.9-3.5c2.6-0.4,5.3-0.7,6.4-1.4
			c2.6-1.7,5.9-6.3,6-6.3l0.3-0.4l6.7,4.5l-0.5,0.5c-0.3,0.2-6.1,5.6-8.1,7.2C487.4,197.7,481.2,198.6,476.2,198.6z M490.7,186
			c-0.9,1.2-3.6,4.6-5.9,6.2c-1.2,0.8-3.9,1.2-6.8,1.6c-3.4,0.5-8,1.1-8,2.5c0,0.2,0.3,0.4,0.6,0.5c3.3,1.6,15.8,0.3,17.3-1
			c1.6-1.3,6-5.3,7.5-6.7L490.7,186z"/>
		<path class="st7" d="M599.9,178.4c0,0,11.6-0.6,14.6,0.3c2.6,0.7,15.3-0.7,16.2-3.6c1-3.3-5.4,1-18.1-1.5
			c-2.3-0.4-14.2-3.7-14.2-3.7L599.9,178.4z"/>
		<path class="st2" d="M616.6,179.4c-1,0-1.8-0.1-2.3-0.2c-2.8-0.8-14.3-0.3-14.4-0.2l-0.5,0l-1.8-9.9l0.8,0.2
			c0.1,0,11.9,3.3,14.2,3.7c6.6,1.3,11.6,0.7,14.5,0.3c2.1-0.3,3.3-0.4,3.9,0.3c0.4,0.5,0.3,1.1,0.1,1.5
			C630.3,178.1,621.2,179.4,616.6,179.4z M607.6,177.7c2.9,0,5.7,0.1,7,0.5c2.7,0.8,14.8-0.8,15.5-3.3c0.1-0.4,0.1-0.5,0.1-0.5
			c-0.2-0.2-1.7,0-2.9,0.1c-3,0.4-8.1,1-14.8-0.3c-2-0.4-10.7-2.8-13.5-3.5l1.3,7.3C601.5,177.8,604.5,177.7,607.6,177.7z"/>
		<path class="st8" d="M547.8,198l1.5-3.3l-4.7-6.9c-0.2-0.2-0.5-0.3-0.7-0.1c-0.2,0.2-0.3,0.5-0.1,0.7l4.4,6.4l-1.5,3.3l-17.9,8.3
			l14.4,43.4c0.1,0.2,0.3,0.4,0.5,0.4c0.1,0,0.1,0,0.2,0c0.3-0.1,0.4-0.4,0.3-0.7L529.9,207l15.9-7.4l0,0.1c-0.1,0.3,0,0.6,0.3,0.7
			c0.1,0,0.1,0,0.2,0c0.2,0,0.4-0.1,0.5-0.3l0.5-1.1l13,11l-18.1,53.3c-0.1,0.3,0.1,0.6,0.3,0.7c0.1,0,0.1,0,0.2,0
			c0.2,0,0.4-0.1,0.5-0.4l18.3-54L547.8,198z"/>
		<path class="st2" d="M540.4,278.8c-0.1,0-0.1,0-0.2,0l-4.3-2c-0.3-0.1-0.4-0.4-0.3-0.7c0.1-0.3,0.4-0.4,0.7-0.3l4.3,2
			c0.3,0.1,0.4,0.4,0.3,0.7C540.8,278.7,540.6,278.8,540.4,278.8z"/>
		<path class="st2" d="M541.5,275.7c-0.1,0-0.1,0-0.2,0l-4.3-2c-0.3-0.1-0.4-0.4-0.3-0.7c0.1-0.3,0.4-0.4,0.7-0.3l4.3,2
			c0.3,0.1,0.4,0.4,0.3,0.7C541.9,275.6,541.7,275.7,541.5,275.7z"/>
		<path class="st2" d="M542.6,272.6c-0.1,0-0.1,0-0.2,0l-4.3-2c-0.3-0.1-0.4-0.4-0.3-0.7c0.1-0.3,0.4-0.4,0.7-0.3l4.3,2
			c0.3,0.1,0.4,0.4,0.3,0.7C543,272.5,542.8,272.6,542.6,272.6z"/>
		<path class="st2" d="M551.2,271.3c-0.2,0-0.4-0.1-0.5-0.3c-0.1-0.3,0-0.6,0.3-0.7l4.3-2c0.3-0.1,0.6,0,0.7,0.3
			c0.1,0.3,0,0.6-0.3,0.7l-4.3,2C551.4,271.3,551.3,271.3,551.2,271.3z"/>
		<path class="st2" d="M549.9,268c-0.2,0-0.4-0.1-0.5-0.3c-0.1-0.3,0-0.6,0.3-0.7l4.3-2c0.3-0.1,0.6,0,0.7,0.3
			c0.1,0.3,0,0.6-0.3,0.7l-4.3,2C550,268,549.9,268,549.9,268z"/>
		<path class="st2" d="M548.3,264.9c-0.2,0-0.4-0.1-0.5-0.3c-0.1-0.3,0-0.6,0.3-0.7l4.3-2c0.3-0.1,0.6,0,0.7,0.3
			c0.1,0.3,0,0.6-0.3,0.7l-4.3,2C548.5,264.9,548.4,264.9,548.3,264.9z"/>
		<path class="st2" d="M549.3,109C549.3,109,549.3,109,549.3,109c-0.3,0-0.5-0.3-0.5-0.5l0-0.4c0-0.3,0.3-0.5,0.5-0.5
			c0.3,0,0.5,0.3,0.5,0.5l0,0.4C549.8,108.7,549.6,109,549.3,109z"/>
		<path class="st2" d="M540.8,108.8C540.8,108.8,540.8,108.8,540.8,108.8c-0.3,0-0.5-0.2-0.5-0.5l0-0.4c0-0.3,0.2-0.5,0.5-0.5
			c0.3,0,0.5,0.2,0.5,0.5l0,0.4C541.4,108.5,541.1,108.8,540.8,108.8z"/>
		<path class="st2" d="M539.1,106.8c-0.2,0-0.4-0.1-0.5-0.3c-0.1-0.3-0.1-0.6,0.2-0.7c1.6-0.9,3.4-0.4,3.4-0.4
			c0.3,0.1,0.4,0.4,0.4,0.7c-0.1,0.3-0.4,0.4-0.7,0.4l0,0c0,0-1.4-0.4-2.6,0.3C539.2,106.7,539.2,106.8,539.1,106.8z"/>
		<path class="st2" d="M551.1,107c-0.1,0-0.2,0-0.3-0.1c-1.2-0.8-2.6-0.4-2.6-0.4c-0.3,0.1-0.6-0.1-0.6-0.4
			c-0.1-0.3,0.1-0.6,0.4-0.6c0.1,0,1.8-0.4,3.4,0.6c0.2,0.2,0.3,0.5,0.2,0.7C551.5,107,551.3,107,551.1,107z"/>
		<path class="st2" d="M544.8,113.4c-0.3,0-0.5-0.2-0.5-0.5c0-0.3,0.2-0.6,0.4-0.6c0.6-0.1,1.3-0.3,1.6-0.4c0,0,0,0,0,0
			c-0.3-0.4-0.8-1-1.4-2.6c-0.1-0.3,0-0.6,0.3-0.7c0.3-0.1,0.6,0,0.7,0.3c0.5,1.5,0.9,2,1.2,2.3c0.2,0.3,0.4,0.5,0.3,0.9
			C547.5,112.4,547.3,113,544.8,113.4C544.9,113.4,544.8,113.4,544.8,113.4z M546.5,112.1L546.5,112.1L546.5,112.1z"/>
		<path class="st2" d="M548.1,114.4c0.3,0.4-1.2,1.8-2.8,1.7c-2.7-0.2-3.5-2-2.8-1.9c0.3,0.1,1.2,0.6,2.8,0.7
			C547,114.9,547.9,114.1,548.1,114.4z"/>
		<path class="st7" d="M605.5,169.8c0,0,1.7,9.7,0.9,10.1c-1.8,1.1-30.7,1-32.7-0.4c-1.1-0.8-8.2-14.5-8.6-14.4
			c-0.5,0.1,0.4,24.6-0.2,25c-0.4,0.3-42.7-0.3-43.1-0.4c-1.5-0.4,0.2-18.9,0.1-19.1c-0.1-0.3-6.8,9.1-6.4,7.7
			c0.1-0.2-19.2,14.9-19.2,14.9c-1-0.7-9.6-4.3-10.1-5.4c-0.7-1.6,17.8-18.3,18.5-19.9l13.3-29.9l16.8-6.8c1.1-0.4,2.2-0.2,3.2,0.4
			c2.8,1.7,8.3-0.9,10.9-0.6c6.1,0.6,3.9,1.8,6.2,0.4c0.9-0.5,1.9-0.7,2.8-0.4l13.6,6.4l11.2,26.5
			C583.9,167.3,605.2,169.1,605.5,169.8z"/>
		<path class="st2" d="M496.3,194.1l-0.3-0.2c-0.3-0.2-1.7-0.9-3.1-1.5c-4.8-2.3-6.9-3.3-7.2-4.1c-0.5-1,1.7-3.5,11.4-13.1
			c3.2-3.1,6.7-6.6,7-7.2l13.4-30.1l17-6.9c1.2-0.4,2.5-0.3,3.6,0.4c1.6,1,4.3,0.4,6.6-0.1c1.5-0.3,2.9-0.6,4-0.5c3,0.3,4,0.7,4.6,1
			c0.1,0,0.2,0.1,0.3,0.1c0.1,0,0.4-0.2,0.8-0.4l0.2-0.1c1-0.6,2.1-0.8,3.2-0.5l0.1,0l13.8,6.5l0.1,0.2l11.2,26.5
			c0.7,1.9,11.7,3.5,17,4.3c5.4,0.8,5.7,0.9,5.8,1.4l0,0.1c1.7,10,1,10.5,0.6,10.7c-1.5,0.9-15.9,0.8-16.6,0.8
			c-4.6,0-15.3-0.2-16.7-1.2c-0.7-0.5-2.4-3.6-5.2-8.6c-0.9-1.7-2-3.5-2.6-4.7c0,2,0,5.8,0.1,9.4c0.2,13.7,0.1,14.3-0.4,14.6
			c-0.2,0.1-0.4,0.3-21.8,0c-2.2,0-21.3-0.2-21.7-0.4c-0.9-0.3-1.5-1.8-0.4-17.9c0-0.1,0-0.1,0-0.2c-0.5,0.7-1.2,1.5-1.7,2.3
			c-3.3,4.3-16.1,14-22.9,19.3L496.3,194.1z M486.7,187.9c0.6,0.6,4.5,2.5,6.6,3.5c1.4,0.7,2.4,1.1,2.9,1.4c1.1-0.9,5.2-4.1,9.3-7.3
			c2.8-2.2,5-3.9,6.6-5.1c2.4-1.9,5.5-5.1,6.6-6.5c2.8-3.7,2.8-3.7,3.2-3.6l0.3,0l0.1,0.3c0.1,0.1,0.1,0.1-0.1,2
			c-0.9,12.5-0.7,16.1-0.3,16.8c3,0.2,38.8,0.5,42.5,0.4c0.2-1.5,0.1-8.5,0-13.7c-0.2-11.2-0.1-11.2,0.5-11.4
			c0.6-0.2,0.6-0.2,4.1,6.1c1.7,3.1,4.4,7.9,4.9,8.3c0.6,0.5,6.4,1,16,1c8.7,0.1,14.9-0.3,16-0.6c0.2-0.9-0.3-5.3-1-9.4
			c-0.7-0.2-2.9-0.5-5-0.9c-9.2-1.4-17-2.7-17.9-5L571,138.1l-13.4-6.3c-0.8-0.2-1.7-0.1-2.4,0.4l-0.2,0.1c-1,0.6-1.2,0.7-2,0.4
			c-0.5-0.2-1.5-0.6-4.3-0.9c-0.9-0.1-2.2,0.2-3.7,0.5c-2.6,0.6-5.5,1.2-7.4,0c-0.8-0.5-1.8-0.6-2.7-0.3l-16.6,6.7l-13.2,29.7
			c-0.3,0.7-2.3,2.7-7.2,7.6C493.6,180.2,487.1,186.6,486.7,187.9z M564.5,190L564.5,190L564.5,190z M605.2,170.2L605.2,170.2
			L605.2,170.2z"/>
		<polygon class="st6" points="548.6,133.6 545.5,131.5 541.9,133.3 544,136.3 540.7,172.4 545.6,181.8 550,172.4 546.2,136.5 		"/>
		<polygon class="st7" points="545,131.2 539,134.6 530.9,131.5 536.2,129.2 		"/>
		<polygon class="st7" points="545,131.2 551.3,135.2 558,131.2 554.4,129.1 		"/>
		<path class="st2" d="M559,131.2l-4.6-2.6l-9.5,2.2l-8.8-2.1l-6.6,2.9l9.5,3.7l6-3.4l6.3,3.9L559,131.2z M539,134.1l-6.7-2.6l4-1.8
			l7.3,1.7L539,134.1z M554.3,129.7l2.7,1.5l-5.6,3.4l-5-3.1L554.3,129.7z"/>
		<path class="st2" d="M556.6,98.3c-1-1.3-3.2-1.6-3.2-1.6c0-1,0-4.4-2.5-4.1c-2.9,0.4-3.2-2.8-5.9-2.4c-2.7,0.4-1.3,1.3-4.1,2
			c-2.8,0.7-4.2-1-5,1.4s-3,1.8-4,3.4c-1,1.6-0.7,3.5,0.6,4.2c1.4,0.6-0.8,1.9,0.3,3.3c1.1,1.4,5.7,1.2,6.5-0.7c0.8-2,1.3-3.3,3-3.4
			c1.7-0.1,3.8,0.9,5,0.5s2.8-1.7,3.4-1.4c0,0,0.3,2.4,0.9,3.5c0.6,1.1,1.6,2,1.3,3.6c-0.4,1.6,3.7-0.1,3.1-2
			C554.9,100.8,558.2,100.4,556.6,98.3z"/>
	</g>
	<g>
		<rect x="598.1" y="129.4" class="st3" width="50.8" height="45"/>
		<path class="st4" d="M649.4,174.9h-51.8v-46h51.8V174.9z M598.6,173.8h49.7v-43.9h-49.7V173.8z"/>
		<rect x="605.6" y="142.8" class="st6" width="9.2" height="21.7"/>
		<rect x="618.9" y="150.8" class="st6" width="9.2" height="13.7"/>
		<rect x="632" y="157.6" class="st6" width="9.2" height="6.8"/>
		<path class="st2" d="M645.1,165h-43.1c-0.3,0-0.5-0.2-0.5-0.5s0.2-0.5,0.5-0.5h43.1c0.3,0,0.5,0.2,0.5,0.5S645.4,165,645.1,165z"
			/>
	</g>
	<g>
		<rect x="741.9" y="345" class="st6" width="153.3" height="115.2"/>
		<path class="st3" d="M762.5,404.3l21.9-24.1l17.8,37.5l16.7-18.9c1.3,1.1,11,11.5,11,11.5l29.8-24.5v52.2h-97L762.5,404.3z"/>
		<rect x="826.6" y="350" class="st3" width="58.7" height="25.8"/>
		<path class="st4" d="M885.9,376.3h-59.8v-26.9h59.8V376.3z M827.2,375.3h57.6v-24.8h-57.6V375.3z"/>
		<path class="st2" d="M869.7,432.6c-0.2-0.2-0.6-0.2-0.7,0c-0.2,0.2-0.2,0.6,0,0.7l4.4,3.9H763.2v-63.9l3.7,4.7
			c0.1,0.1,0.3,0.2,0.4,0.2c0.1,0,0.2,0,0.3-0.1c0.2-0.2,0.3-0.5,0.1-0.7l-5-6.3l-5.5,6.1c-0.2,0.2-0.2,0.6,0,0.7
			c0.2,0.2,0.6,0.2,0.7,0l4.1-4.6v65h111.6l-4.9,3.9c-0.2,0.2-0.3,0.5-0.1,0.7c0.1,0.1,0.3,0.2,0.4,0.2c0.1,0,0.2,0,0.3-0.1l6.3-5
			L869.7,432.6z"/>
		<path class="st2" d="M802,418.6l-17.2-37.9l-21.7,23.7c-0.2,0.2-0.5,0.2-0.7,0c-0.2-0.2-0.2-0.5,0-0.7l22.8-24.9l17.2,37.8
			l16.6-18.8l10.8,12.4l29.6-25.1c0.2-0.2,0.6-0.2,0.7,0.1c0.2,0.2,0.2,0.6-0.1,0.7l-30.4,25.8l-10.7-12.3L802,418.6z"/>
		<path class="st5" d="M787.5,379.6c0,1.4-1.1,2.5-2.5,2.5c-1.4,0-2.5-1.1-2.5-2.5c0-1.4,1.1-2.5,2.5-2.5
			C786.4,377.1,787.5,378.2,787.5,379.6z"/>
		<path class="st4" d="M785,382.7c-1.7,0-3.1-1.4-3.1-3.1s1.4-3.1,3.1-3.1c1.7,0,3.1,1.4,3.1,3.1S786.7,382.7,785,382.7z M785,377.6
			c-1.1,0-2,0.9-2,2s0.9,2,2,2c1.1,0,2-0.9,2-2S786.1,377.6,785,377.6z"/>
		<path class="st5" d="M804.6,417.6c0,1.4-1.1,2.5-2.5,2.5c-1.4,0-2.5-1.1-2.5-2.5c0-1.4,1.1-2.5,2.5-2.5
			C803.4,415.1,804.6,416.2,804.6,417.6z"/>
		<path class="st4" d="M802,420.7c-1.7,0-3.1-1.4-3.1-3.1c0-1.7,1.4-3.1,3.1-3.1c1.7,0,3.1,1.4,3.1,3.1
			C805.1,419.3,803.7,420.7,802,420.7z M802,415.6c-1.1,0-2,0.9-2,2c0,1.1,0.9,2,2,2c1.1,0,2-0.9,2-2
			C804,416.5,803.1,415.6,802,415.6z"/>
		<path class="st5" d="M821.1,398.7c0,1.4-1.1,2.5-2.5,2.5c-1.4,0-2.5-1.1-2.5-2.5c0-1.4,1.1-2.5,2.5-2.5
			C819.9,396.2,821.1,397.3,821.1,398.7z"/>
		<path class="st4" d="M818.6,401.7c-1.7,0-3.1-1.4-3.1-3.1c0-1.7,1.4-3.1,3.1-3.1c1.7,0,3.1,1.4,3.1,3.1
			C821.6,400.4,820.2,401.7,818.6,401.7z M818.6,396.7c-1.1,0-2,0.9-2,2c0,1.1,0.9,2,2,2c1.1,0,2-0.9,2-2
			C820.5,397.6,819.7,396.7,818.6,396.7z"/>
		<path class="st5" d="M832.3,411c0,1.4-1.1,2.5-2.5,2.5c-1.4,0-2.5-1.1-2.5-2.5c0-1.4,1.1-2.5,2.5-2.5
			C831.2,408.5,832.3,409.6,832.3,411z"/>
		<path class="st4" d="M829.8,414.1c-1.7,0-3.1-1.4-3.1-3.1s1.4-3.1,3.1-3.1c1.7,0,3.1,1.4,3.1,3.1S831.5,414.1,829.8,414.1z
			 M829.8,409c-1.1,0-2,0.9-2,2c0,1.1,0.9,2,2,2c1.1,0,2-0.9,2-2C831.8,409.9,830.9,409,829.8,409z"/>
		<path class="st5" d="M862.2,385.6c0,1.4-1.1,2.5-2.5,2.5c-1.4,0-2.5-1.1-2.5-2.5c0-1.4,1.1-2.5,2.5-2.5
			C861,383.1,862.2,384.2,862.2,385.6z"/>
		<path class="st4" d="M859.6,388.6c-1.7,0-3.1-1.4-3.1-3.1c0-1.7,1.4-3.1,3.1-3.1c1.7,0,3.1,1.4,3.1,3.1
			C862.7,387.3,861.3,388.6,859.6,388.6z M859.6,383.6c-1.1,0-2,0.9-2,2c0,1.1,0.9,2,2,2c1.1,0,2-0.9,2-2
			C861.6,384.5,860.7,383.6,859.6,383.6z"/>
		<path class="st2" d="M879.6,355.5h-47.3c-0.3,0-0.5-0.2-0.5-0.5s0.2-0.5,0.5-0.5h47.3c0.3,0,0.5,0.2,0.5,0.5
			S879.9,355.5,879.6,355.5z"/>
		<path class="st2" d="M879.6,363h-37.6c-0.3,0-0.5-0.2-0.5-0.5s0.2-0.5,0.5-0.5h37.6c0.3,0,0.5,0.2,0.5,0.5S879.9,363,879.6,363z"
			/>
		<path class="st2" d="M879.6,370.5h-34c-0.3,0-0.5-0.2-0.5-0.5c0-0.3,0.2-0.5,0.5-0.5h34c0.3,0,0.5,0.2,0.5,0.5
			C880.2,370.2,879.9,370.5,879.6,370.5z"/>
	</g>
	<g>
		<path class="st6" d="M528.5,582.2H421.1c-5.6,0-10.1-4.5-10.1-10.1V436c0-5.6,4.5-10.1,10.1-10.1h107.4c5.6,0,10.1,4.5,10.1,10.1
			v136.1C538.6,577.7,534.1,582.2,528.5,582.2z"/>
		<rect x="428.4" y="445.2" class="st3" width="93.2" height="22.6"/>
		<path class="st4" d="M522.1,468.4h-94.2v-23.7h94.2V468.4z M428.9,467.3H521v-21.6h-92.1V467.3z"/>
		<path class="st3" d="M440.2,505.4h-2.8c-5.2,0-9.4-4.2-9.4-9.4v-2.8c0-5.2,4.2-9.4,9.4-9.4h2.8c5.2,0,9.4,4.2,9.4,9.4v2.8
			C449.7,501.1,445.4,505.4,440.2,505.4z"/>
		<path class="st4" d="M446.3,505.9h-15c-2.1,0-3.8-1.7-3.8-3.8v-15c0-2.1,1.7-3.8,3.8-3.8h15c2.1,0,3.8,1.7,3.8,3.8v15
			C450.2,504.2,448.5,505.9,446.3,505.9z M431.3,484.2c-1.5,0-2.8,1.2-2.8,2.8v15c0,1.5,1.2,2.8,2.8,2.8h15c1.5,0,2.8-1.2,2.8-2.8
			v-15c0-1.5-1.2-2.8-2.8-2.8H431.3z"/>
		<path class="st3" d="M476.6,505.4h-2.8c-5.2,0-9.4-4.2-9.4-9.4v-2.8c0-5.2,4.2-9.4,9.4-9.4h2.8c5.2,0,9.4,4.2,9.4,9.4v2.8
			C486,501.1,481.8,505.4,476.6,505.4z"/>
		<path class="st4" d="M482.7,505.9h-15c-2.1,0-3.8-1.7-3.8-3.8v-15c0-2.1,1.7-3.8,3.8-3.8h15c2.1,0,3.8,1.7,3.8,3.8v15
			C486.5,504.2,484.8,505.9,482.7,505.9z M467.7,484.2c-1.5,0-2.8,1.2-2.8,2.8v15c0,1.5,1.2,2.8,2.8,2.8h15c1.5,0,2.8-1.2,2.8-2.8
			v-15c0-1.5-1.2-2.8-2.8-2.8H467.7z"/>
		<path class="st3" d="M512.1,505.4h-2.8c-5.2,0-9.4-4.2-9.4-9.4v-2.8c0-5.2,4.2-9.4,9.4-9.4h2.8c5.2,0,9.4,4.2,9.4,9.4v2.8
			C521.6,501.1,517.3,505.4,512.1,505.4z"/>
		<path class="st4" d="M518.2,505.9h-15c-2.1,0-3.8-1.7-3.8-3.8v-15c0-2.1,1.7-3.8,3.8-3.8h15c2.1,0,3.8,1.7,3.8,3.8v15
			C522.1,504.2,520.4,505.9,518.2,505.9z M503.2,484.2c-1.5,0-2.8,1.2-2.8,2.8v15c0,1.5,1.2,2.8,2.8,2.8h15c1.5,0,2.8-1.2,2.8-2.8
			v-15c0-1.5-1.2-2.8-2.8-2.8H503.2z"/>
		<path class="st3" d="M440.2,538.5h-2.8c-5.2,0-9.4-4.2-9.4-9.4v-2.8c0-5.2,4.2-9.4,9.4-9.4h2.8c5.2,0,9.4,4.2,9.4,9.4v2.8
			C449.7,534.3,445.4,538.5,440.2,538.5z"/>
		<path class="st4" d="M446.3,539h-15c-2.1,0-3.8-1.7-3.8-3.8v-15c0-2.1,1.7-3.8,3.8-3.8h15c2.1,0,3.8,1.7,3.8,3.8v15
			C450.2,537.3,448.5,539,446.3,539z M431.3,517.4c-1.5,0-2.8,1.2-2.8,2.8v15c0,1.5,1.2,2.8,2.8,2.8h15c1.5,0,2.8-1.2,2.8-2.8v-15
			c0-1.5-1.2-2.8-2.8-2.8H431.3z"/>
		<path class="st3" d="M476.6,538.5h-2.8c-5.2,0-9.4-4.2-9.4-9.4v-2.8c0-5.2,4.2-9.4,9.4-9.4h2.8c5.2,0,9.4,4.2,9.4,9.4v2.8
			C486,534.3,481.8,538.5,476.6,538.5z"/>
		<path class="st4" d="M482.7,539h-15c-2.1,0-3.8-1.7-3.8-3.8v-15c0-2.1,1.7-3.8,3.8-3.8h15c2.1,0,3.8,1.7,3.8,3.8v15
			C486.5,537.3,484.8,539,482.7,539z M467.7,517.4c-1.5,0-2.8,1.2-2.8,2.8v15c0,1.5,1.2,2.8,2.8,2.8h15c1.5,0,2.8-1.2,2.8-2.8v-15
			c0-1.5-1.2-2.8-2.8-2.8H467.7z"/>
		<path class="st3" d="M512.1,538.5h-2.8c-5.2,0-9.4-4.2-9.4-9.4v-2.8c0-5.2,4.2-9.4,9.4-9.4h2.8c5.2,0,9.4,4.2,9.4,9.4v2.8
			C521.6,534.3,517.3,538.5,512.1,538.5z"/>
		<path class="st4" d="M518.2,539h-15c-2.1,0-3.8-1.7-3.8-3.8v-15c0-2.1,1.7-3.8,3.8-3.8h15c2.1,0,3.8,1.7,3.8,3.8v15
			C522.1,537.3,520.4,539,518.2,539z M503.2,517.4c-1.5,0-2.8,1.2-2.8,2.8v15c0,1.5,1.2,2.8,2.8,2.8h15c1.5,0,2.8-1.2,2.8-2.8v-15
			c0-1.5-1.2-2.8-2.8-2.8H503.2z"/>
		<path class="st3" d="M440.2,571.6h-2.8c-5.2,0-9.4-4.2-9.4-9.4v-2.8c0-5.2,4.2-9.4,9.4-9.4h2.8c5.2,0,9.4,4.2,9.4,9.4v2.8
			C449.7,567.4,445.4,571.6,440.2,571.6z"/>
		<path class="st4" d="M446.3,572.1h-15c-2.1,0-3.8-1.7-3.8-3.8v-15c0-2.1,1.7-3.8,3.8-3.8h15c2.1,0,3.8,1.7,3.8,3.8v15
			C450.2,570.4,448.5,572.1,446.3,572.1z M431.3,550.5c-1.5,0-2.8,1.2-2.8,2.8v15c0,1.5,1.2,2.8,2.8,2.8h15c1.5,0,2.8-1.2,2.8-2.8
			v-15c0-1.5-1.2-2.8-2.8-2.8H431.3z"/>
		<path class="st3" d="M476.6,571.6h-2.8c-5.2,0-9.4-4.2-9.4-9.4v-2.8c0-5.2,4.2-9.4,9.4-9.4h2.8c5.2,0,9.4,4.2,9.4,9.4v2.8
			C486,567.4,481.8,571.6,476.6,571.6z"/>
		<path class="st4" d="M482.7,572.1h-15c-2.1,0-3.8-1.7-3.8-3.8v-15c0-2.1,1.7-3.8,3.8-3.8h15c2.1,0,3.8,1.7,3.8,3.8v15
			C486.5,570.4,484.8,572.1,482.7,572.1z M467.7,550.5c-1.5,0-2.8,1.2-2.8,2.8v15c0,1.5,1.2,2.8,2.8,2.8h15c1.5,0,2.8-1.2,2.8-2.8
			v-15c0-1.5-1.2-2.8-2.8-2.8H467.7z"/>
		<path class="st3" d="M512.1,571.6h-2.8c-5.2,0-9.4-4.2-9.4-9.4v-2.8c0-5.2,4.2-9.4,9.4-9.4h2.8c5.2,0,9.4,4.2,9.4,9.4v2.8
			C521.6,567.4,517.3,571.6,512.1,571.6z"/>
		<path class="st4" d="M518.2,572.1h-15c-2.1,0-3.8-1.7-3.8-3.8v-15c0-2.1,1.7-3.8,3.8-3.8h15c2.1,0,3.8,1.7,3.8,3.8v15
			C522.1,570.4,520.4,572.1,518.2,572.1z M503.2,550.5c-1.5,0-2.8,1.2-2.8,2.8v15c0,1.5,1.2,2.8,2.8,2.8h15c1.5,0,2.8-1.2,2.8-2.8
			v-15c0-1.5-1.2-2.8-2.8-2.8H503.2z"/>
	</g>
	<g>
		
			<rect x="683.2" y="508.3" transform="matrix(1 -2.738236e-03 2.738236e-03 1 -1.49 2.0618)" class="st5" width="138" height="73.8"/>
		<path class="st2" d="M692.7,559c-0.3,0-0.5-0.2-0.5-0.5l-0.1-24.9c0-0.3,0.2-0.5,0.5-0.5c0,0,0,0,0,0c0.3,0,0.5,0.2,0.5,0.5
			l0.1,24.9C693.3,558.8,693,559,692.7,559C692.7,559,692.7,559,692.7,559z"/>
		<path class="st2" d="M810.6,558.7c-0.3,0-0.5-0.2-0.5-0.5l-0.1-24.9c0-0.3,0.2-0.5,0.5-0.5c0,0,0,0,0,0c0.3,0,0.5,0.2,0.5,0.5
			l0.1,24.9C811.2,558.5,810.9,558.7,810.6,558.7C810.6,558.7,810.6,558.7,810.6,558.7z"/>
		<path class="st2" d="M710.5,517.1c-0.3,0-0.5-0.2-0.5-0.5c0-0.3,0.2-0.5,0.5-0.5l82.1-0.2c0,0,0,0,0,0c0.3,0,0.5,0.2,0.5,0.5
			c0,0.3-0.2,0.5-0.5,0.5L710.5,517.1C710.5,517.1,710.5,517.1,710.5,517.1z"/>
		<path class="st2" d="M711,574.5c-0.3,0-0.5-0.2-0.5-0.5c0-0.3,0.2-0.5,0.5-0.5l82.1-0.2h0c0.3,0,0.5,0.2,0.5,0.5
			c0,0.3-0.2,0.5-0.5,0.5L711,574.5C711,574.5,711,574.5,711,574.5z"/>
		<path class="st6" d="M769.3,547.1c0,10.4-6.8,18.9-15.3,18.9c-8.5,0-15.4-8.4-15.4-18.8s6.8-18.9,15.3-18.9
			C762.3,528.3,769.2,536.7,769.3,547.1z"/>
		<path class="st2" d="M761.8,552.4c0-2.7-0.9-5.2-7.3-6.8c0,0-0.1,0-0.1,0l0-8.4c2.9,0.1,4.3,1.5,4.9,3.5c0.1,0.4,0.5,0.6,0.9,0.6
			c0.6,0,1-0.6,0.9-1.1c-0.7-2.3-2.7-4.4-6.7-4.6l0-2.1c0-0.3-0.2-0.5-0.5-0.5c0,0,0,0,0,0c-0.3,0-0.5,0.2-0.5,0.5l0,2.1
			c-4.4,0.2-6.3,2.9-6.3,5.7c0,3.1,1.9,4.7,6.4,5.8l0,9.9c-2.9-0.2-4.6-1.7-5.4-4.1c-0.1-0.4-0.5-0.6-0.9-0.6c-0.6,0-1,0.6-0.9,1.1
			c0.7,2.5,2.7,4.9,7.1,5.1l0,3c0,0.3,0.2,0.5,0.5,0.5c0,0,0,0,0,0c0.3,0,0.5-0.2,0.5-0.5l0-3C759.4,558.5,761.8,555.7,761.8,552.4z
			 M748.8,541.2c0-2.4,1.6-3.8,4.5-4l0,8.2C750.1,544.4,748.8,543.4,748.8,541.2z M754.4,557l0-9.7c4.4,1.2,5.5,2.7,5.5,5.2
			C759.9,554.9,758.4,557,754.4,557z"/>
		<path class="st2" d="M821.9,582.4l-0.2-74.8l-116.9,0.3l0,0l-22.2,0.1l0.2,74.8l22.2-0.1l0,0l94.3-0.3l0,0.3l22.6-0.1V582.4
			L821.9,582.4z M820.6,508.9l0,4.3l0,16.1c-10.7-0.3-19.9-9.6-20.3-20.4L820.6,508.9z M683.6,509l20.1-0.1
			c-0.3,10.8-9.4,20.2-20,20.5L683.6,509z M683.8,581.7l-0.1-19.7c5.2,0.1,10.2,2.2,14,5.9c3.8,3.7,6,8.6,6.1,13.8L683.8,581.7z
			 M705,581.7c-0.2-5.5-2.4-10.6-6.5-14.5c-4-3.9-9.2-6.1-14.7-6.2l-0.1-30.4c5.5-0.2,10.7-2.5,14.7-6.6c3.9-4.1,6.2-9.5,6.4-14.9
			l94.6-0.3c0.1,5.5,2.4,11.1,6.5,15.2c4,4.1,9.4,6.4,14.8,6.6l0.1,30c-5.4,0.2-10.8,2.5-14.9,6.5c-4,3.9-6.3,9.2-6.6,14.5
			L705,581.7z M800.3,581.4c0.4-10.5,9.7-19.6,20.4-20l0.1,19.9L800.3,581.4z"/>
	</g>
	<g>
		<rect x="340.2" y="539.1" class="st3" width="79.2" height="43.2"/>
		<path class="st9" d="M340.2,562h79.2H340.2z"/>
		<path class="st2" d="M339.6,538.5v44.2h80.2v-44.2H339.6z M418.8,539.6v21.8h-78.1v-21.8H418.8z M340.7,581.7v-19.2h78.1v19.2
			H340.7z"/>
		<rect x="813.9" y="562" class="st3" width="79.2" height="20.3"/>
		<path class="st4" d="M893.6,582.8h-80.2v-21.3h80.2V582.8z M814.4,581.7h78.1v-19.2h-78.1V581.7z"/>
	</g>
	<g>
		<path class="st7" d="M873,507.2l1.2,66l-5.5,6.9c-0.1,0.1,0,0.2,0.1,0.2l11.8-4.2l-0.3-3l6.7-64.6L873,507.2z"/>
		<path class="st2" d="M868.8,580.8c-0.2,0-0.4-0.1-0.5-0.3c-0.1-0.2-0.1-0.5,0.1-0.7l5.4-6.7l-1.2-66.4l15,1.4l-6.7,65l0.4,3.4
			l-12.1,4.3C869,580.8,868.9,580.8,868.8,580.8z M873.5,507.8l1.2,65.7l-4.7,5.9l10-3.6l-0.3-2.7l0-0.1l6.6-64.1L873.5,507.8z"/>
		<path class="st6" d="M881.9,573.7c0.6,4.8-0.8,7.8-0.8,7.8h-1.2l-0.4-3.5l-4.5,3.6l-9.9,0v-1.1c0,0,3.4-2.4,3.8-1.6
			C870.1,581.1,881.6,571,881.9,573.7z"/>
		<path class="st2" d="M915.7,417.4c0.7-3.2-1.5-4.2-1.5-4.2c0.8-6.1-4.6-5.6-4.6-5.6c1.5-4.2-2.7-3.6-2.7-3.6
			c1.4-3.9-8.7-5.1-8.7-5.1c1.3-2.2,2.3-3.8,3.2-6.6c0.6-2,1.2-12.7-11.9-13.5c0,0-6.2-2.3-11.1,2.3c-4.9,4.6-1.4,11.2-0.6,15.2
			c1.5,7.9,13.5,7.3,17.7,5.8c0,0,0,0.1,0,0.1c-0.7,2,0.3,2.5,0.3,2.5s-2.1,2.1-2.6,3.7c-0.6,1.6,3.3,2,3.3,2s-0.8,3.3,0.7,4.2
			c1.4,0.9,4,1.3,4,1.3s-1.4,0.2-1.9,2.3c-0.4,2.1,5.5,3.7,5.5,3.7s-3.2,2.2-1.6,5c1.6,2.7,4,0.1,4,0.1c0.2,1.4,1.5,2.3,1.5,2.3
			c1.5,1.9,6.3-0.2,6.3-0.2c4.1-2.6,1.9-5.7,1.9-5.7C920,419.8,915.7,417.4,915.7,417.4z"/>
		<path class="st7" d="M893.6,508.7l2.6,64.6l-5.6,6.9c-0.1,0.1,0,0.2,0.1,0.2l11.8-4.2l-0.3-3l5.8-64.4H893.6z"/>
		<path class="st2" d="M890.7,580.8c-0.2,0-0.4-0.1-0.5-0.3c-0.2-0.2-0.1-0.5,0.1-0.7l5.5-6.7l-2.6-64.9h15.4l-5.8,64.9l0.4,3.4
			l-12.1,4.3C890.8,580.8,890.7,580.8,890.7,580.8z M894.2,509.2l2.6,64.2l-4.8,5.9l10-3.5l-0.3-2.7l0-0.1l5.7-63.8H894.2z"/>
		<path class="st6" d="M903.8,573.7c0.6,4.8-0.8,7.8-0.8,7.8h-1.2l-0.4-3.5l-4.5,3.6l-9.9,0v-1.1c0,0,3.4-2.4,3.8-1.6
			C891.9,581.1,903.4,571,903.8,573.7z"/>
		<path class="st2" d="M904.3,450.5c0,5,7.8,14.3,7.5,24.6c-0.3,10.3,8.5,38.4,8.5,38.4h-60.9c0,0,9.8-31.7,11.8-41.9
			c2-10.2,7.7-19.9,8.3-20.5C880.2,450.4,904.3,445.5,904.3,450.5z"/>
		<path class="st8" d="M906.1,505.1l-7.8-40.9l2.7,2.6c0.1,0.1,0.2,0.1,0.4,0.1c0.1,0,0.3-0.1,0.4-0.2c0.2-0.2,0.2-0.5,0-0.7
			l-7.8-7.4c-0.2-0.2-0.5-0.2-0.7,0c-0.2,0.2-0.2,0.5,0,0.7l3.7,3.6l8.1,42.3c0,0.3,0.3,0.4,0.5,0.4c0,0,0.1,0,0.1,0
			C906,505.6,906.1,505.4,906.1,505.1z"/>
		<path class="st8" d="M874.4,464.7c-0.1,0-0.3-0.1-0.4-0.2c-0.2-0.2-0.2-0.5,0-0.7l4-3.7c0.2-0.2,0.5-0.2,0.7,0
			c0.2,0.2,0.2,0.5,0,0.7l-4,3.7C874.6,464.7,874.5,464.7,874.4,464.7z"/>
		<path class="st7" d="M894.1,396c0,0,2.5,14.2,2.9,14.9c5.9,9.8,1.4,8.4,2.5,8.6c1.1,0.1-11.6,2.3-11.6,2.3l-6.6-2l1.1-3.3
			c0,0,1.5-3.1,2.6-4.5c1.1-1.5-0.3-13.8-0.3-13.8L894.1,396z"/>
		<path class="st2" d="M887.8,422.4l-7.2-2.2l1.3-3.9c0.1-0.1,1.6-3.1,2.6-4.6c0.6-0.8,0.3-7.5-0.4-13.4l0-0.5l10.4-2.4l0.1,0.5
			c0.9,5.3,2.5,14.1,2.8,14.8c2.9,4.8,3.9,7.9,2.7,9c0,0-0.1,0.1-0.1,0.1c-0.2,0.4-1.1,0.6-6.3,1.5c-2.9,0.5-5.8,1-5.9,1.1
			L887.8,422.4z M882,419.5l5.9,1.8c3.7-0.6,9.3-1.7,11-2.1c0.1-0.2,0.4-0.2,0.5-0.2c0,0,0.1-0.1,0.1-0.1c0.2-0.4,0.5-1.9-3-7.6
			c-0.4-0.7-2.1-10-2.9-14.6l-8.4,1.9c0.3,2.9,1.2,12.2,0.1,13.7c-1,1.4-2.3,4.1-2.5,4.4L882,419.5z"/>
		<path class="st7" d="M893.2,399.6c1.4-0.9,4-2.8,4.1-4.7c0.1-1.9-2-1.7-2.7-1.4c-0.4,0.2,0.2-9.1,0.2-9.1l-14.4-1
			c0,0-2.3,8-1.8,13.1c0.4,5.2,2.8,6.6,6.5,6.8c1.9,0.1,3.3-0.3,4.5-0.8L893.2,399.6z"/>
		<path class="st2" d="M885.7,403.9c-0.2,0-0.4,0-0.7,0c-4.6-0.3-6.6-2.4-7-7.3c-0.4-5.2,1.8-13,1.9-13.3l0.1-0.4l15.4,1.1l0,0.5
			c-0.2,3.4-0.4,7.2-0.3,8.4c0.6-0.1,1.4-0.1,2.1,0.3c0.4,0.3,0.8,0.8,0.8,1.7c-0.1,2-2.4,3.9-4.3,5.1c-0.2,0.2-0.6,0.1-0.7-0.2
			c-0.2-0.2-0.1-0.6,0.2-0.7c2.4-1.5,3.8-3.1,3.8-4.2c0-0.5-0.2-0.7-0.3-0.8c-0.5-0.3-1.3-0.2-1.6-0.1l-0.3,0.1l-0.3-0.2
			c-0.3-0.2-0.6-0.4-0.1-9.1l-13.5-0.9c-0.4,1.7-2.1,8.2-1.7,12.5c0.4,5,2.6,6.1,6,6.3c1.6,0.1,3-0.2,4.2-0.8c0.3-0.1,0.6,0,0.7,0.2
			c0.1,0.3,0,0.6-0.2,0.7C888.5,403.6,887.1,403.9,885.7,403.9z"/>
		<path class="st2" d="M881.6,393.5C881.6,393.5,881.6,393.5,881.6,393.5c-0.4,0-0.6-0.3-0.5-0.6l0.1-0.5c0-0.3,0.3-0.5,0.6-0.4
			c0.3,0,0.5,0.3,0.4,0.6l-0.1,0.5C882.1,393.3,881.9,393.5,881.6,393.5z"/>
		<path class="st2" d="M888,393.9C888,393.9,888,393.9,888,393.9c-0.4,0-0.6-0.3-0.5-0.6l0.1-0.5c0-0.3,0.3-0.5,0.6-0.4
			c0.3,0,0.5,0.3,0.4,0.6l-0.1,0.5C888.5,393.7,888.3,393.9,888,393.9z"/>
		<path class="st2" d="M889.5,392.1c-0.1,0-0.1,0-0.2,0l-0.1-0.1c-0.6-0.2-1.6-0.6-2.2-0.5c-0.3,0.1-0.6-0.1-0.6-0.4
			c-0.1-0.3,0.1-0.6,0.4-0.6c0.9-0.2,2,0.2,2.8,0.6l0.1,0.1c0.3,0.1,0.4,0.4,0.3,0.7C889.9,392,889.7,392.1,889.5,392.1z"/>
		<path class="st2" d="M884.3,396.4C884.2,396.4,884.2,396.4,884.3,396.4c-2.2-0.4-2.3-0.9-2.4-1.1c-0.1-0.4,0.2-0.7,0.4-1
			c0.3-0.4,0.8-1,1.3-2.2c0.1-0.3,0.4-0.4,0.7-0.3c0.3,0.1,0.4,0.4,0.3,0.7c-0.5,1.4-1.1,2.1-1.4,2.5c0,0,0,0.1-0.1,0.1
			c0.3,0.1,0.8,0.3,1.3,0.3c0.3,0.1,0.5,0.3,0.4,0.6C884.7,396.3,884.5,396.4,884.3,396.4z"/>
		<path class="st2" d="M883.5,391.1c-0.1,0-0.1,0-0.2,0c-1.4-0.6-2.2-0.3-2.2-0.3c-0.3,0.1-0.6,0-0.7-0.2c-0.1-0.3,0-0.6,0.2-0.7
			c0.1-0.1,1.2-0.5,3,0.2c0.3,0.1,0.4,0.4,0.3,0.7C883.9,391,883.7,391.1,883.5,391.1z"/>
		<path class="st7" d="M899.9,411.7c-1.5-1.2-8.5,9.2-13.1,9.1c-1.9,0-1.2-9.4-3.3-7.3c-8.6,8.4-4,37.6-4,37.6
			c6.1,0.1,24.8,0.8,24.9,0.4C906.3,446.8,906.6,416.8,899.9,411.7z"/>
		<path class="st2" d="M902,452.1c-2.3,0-6.4-0.1-13.9-0.3c-3.4-0.1-6.7-0.2-8.6-0.2l-0.4,0l-0.1-0.4c-0.2-1.2-4.5-29.5,4.2-38
			c0.5-0.5,0.9-0.5,1.2-0.4c0.9,0.3,1.1,1.7,1.5,4c0.2,1,0.6,3.6,1,3.6c0,0,0,0,0.1,0c2.3,0,5.6-3.2,8.2-5.7c2.5-2.5,4.1-4,5.1-3.2
			l0,0c6.9,5.2,6.6,35.4,4.7,40.3C904.8,451.9,904.8,452.1,902,452.1z M880,450.5c2,0,5,0.1,8.1,0.2c6.1,0.2,14.3,0.4,15.9,0.3
			c0.8-2.5,1.3-10.7,0.8-19.2c-0.6-10.4-2.5-17.5-5.2-19.6c-0.5,0-2.4,1.8-3.8,3.1c-2.7,2.7-6.2,6.1-8.9,6.1c0,0-0.1,0-0.1,0
			c-1.3,0-1.6-2.1-2-4.5c-0.2-1.1-0.4-2.8-0.8-3.2c0,0-0.1,0.1-0.2,0.1C876.2,421.4,879.5,446.8,880,450.5z M899.6,412.2
			L899.6,412.2L899.6,412.2z M899.6,412.1L899.6,412.1L899.6,412.1L899.6,412.1z"/>
		<path class="st2" d="M881,397c-0.3,0.2,0.7,1.6,1.7,1.8c2.6,0.6,3.8-1.1,3.1-0.9c-0.2,0.1-1.7,0.3-2.9,0
			C881.3,397.4,881.3,396.7,881,397z"/>
		<path class="st7" d="M840.2,415c2.8,0.8,23.9,17.4,23.9,17.4l2.8-9.1c0,0-22.3-10.9-22.5-12c-0.2-1.1-1.5-7.3-2-5.5
			c-0.3,1.3-0.5,2.8-0.6,3.5c0,0.2-0.3,0.3-0.4,0.1c-1.2-1.5-7.5-6.7-8.3-5.3C831.7,406.7,834,413.2,840.2,415z"/>
		<path class="st2" d="M864.4,433.3l-0.6-0.5c-5.8-4.6-21.5-16.7-23.7-17.3c-3.2-0.9-5.9-3.3-7.2-6.4c-0.8-2-0.9-4-0.2-5.3
			c0.2-0.3,0.5-0.5,0.8-0.5c1.8-0.2,6.2,3.5,7.9,5.2c0.1-0.8,0.3-1.9,0.5-2.9c0.2-0.7,0.6-0.7,0.8-0.7c0.5,0,0.9,0.5,1.5,3
			c0.3,1.3,0.6,2.7,0.7,3.2c1.1,1.2,14.2,7.8,22.2,11.7l0.4,0.2L864.4,433.3z M833.6,404.4c-0.5,1-0.4,2.7,0.3,4.3
			c1.2,2.8,3.6,4.9,6.5,5.8l0,0c2.6,0.8,19.5,13.9,23.5,17l2.4-7.9c-1.4-0.7-6.1-3-10.8-5.4c-11.4-5.9-11.5-6.4-11.6-6.8
			c-0.2-1-0.7-3.4-1.1-4.7c-0.2,1-0.3,2.1-0.4,2.7c0,0.3-0.2,0.6-0.5,0.6c-0.3,0.1-0.6,0-0.8-0.3
			C839.7,408.1,834.6,404.1,833.6,404.4z"/>
		<path class="st7" d="M897.7,414.9c-3-1.8-13,7.9-26.2,7c-2.4-0.2-7.1-4.8-7.8-0.9c0,0-2.5,8.6-2.5,8.8c-0.6,5.4,1.1,4,13.5,4.9
			c6.8,0.5,14.2-5.3,22.1-4.3C901.9,431.1,900.3,416.4,897.7,414.9z"/>
		<path class="st2" d="M875.7,435.3c-0.3,0-0.6,0-0.9,0c-2.6-0.2-4.7-0.3-6.5-0.4c-4.1-0.2-6-0.3-7-1.4c-0.7-0.8-0.7-2-0.5-3.8
			c0-0.2,1.4-4.9,2.5-8.9c0.2-0.9,0.5-1.5,1.1-1.8c1.2-0.6,2.8,0.3,4.4,1.1c1,0.5,2.1,1.1,2.8,1.1c7.8,0.5,14.3-2.7,19.2-5
			c3.5-1.7,5.8-2.8,7.3-1.9l0,0c2.2,1.3,3.5,10,2.1,14c-0.8,2.5-2.4,2.6-3.2,2.5c-4.1-0.5-8.1,0.8-12,2.2
			C881.7,434.2,878.7,435.3,875.7,435.3z M865.3,419.9c-0.2,0-0.3,0-0.4,0.1c-0.3,0.1-0.5,0.5-0.6,1.1l0,0.1c-1,3.3-2.4,8.4-2.5,8.7
			c-0.2,1.7-0.1,2.5,0.3,3c0.7,0.8,2.6,0.9,6.2,1c1.7,0.1,3.9,0.2,6.5,0.4c3.1,0.2,6.3-0.9,9.7-2c4-1.4,8.1-2.8,12.4-2.2
			c0.3,0,1.4,0.2,2.1-1.8c1.4-4-0.1-11.9-1.6-12.8l0,0c-1-0.6-3.4,0.6-6.3,2c-4.9,2.4-11.7,5.7-19.7,5.1c-0.9-0.1-2-0.6-3.2-1.3
			C867.2,420.6,866,419.9,865.3,419.9z"/>
		<path class="st2" d="M877.9,390.7c0,0,3.3-2.1,6-4.6c0.3-0.2,10.3,4.3,11.5,7.1c0,0,0.8-0.4,1.4-0.3c0.8,0.1,1,0.3,1,0.3
			l-0.9-10.8l-17.9,1.1L877.9,390.7z"/>
	</g>
	<g>
		<path class="st6" d="M398.2,487.2c-3.8,13.7-10.2,18-13.6,16.7c-1.1-0.4-1.9-1.4-2.1-2.9c-1-6,3.4-14.2,6.7-18.5
			C390.6,480.5,399.1,483.6,398.2,487.2z"/>
		<path class="st2" d="M398.2,487.2c-3.8,13.7-10.2,18-13.6,16.7c10.5-5.9,12.2-19.8,12.2-19.8s1,0.8,1.2,1.4
			C398.5,486.6,398.2,487.2,398.2,487.2z"/>
		<path class="st2" d="M426.7,332.4c0,0-9.2-4.7-4.5-15.4c5.7-13,36-7.1,23.2,16.4C438.6,345.9,426.7,332.4,426.7,332.4z"/>
		<path class="st2" d="M389.6,498.1c-0.1,0-0.1,0-0.2,0l-5.1-2.3c-0.3-0.1-0.4-0.4-0.3-0.7c0.1-0.3,0.4-0.4,0.7-0.3l5.1,2.3
			c0.3,0.1,0.4,0.4,0.3,0.7C390,498,389.8,498.1,389.6,498.1z"/>
		<path class="st2" d="M390.9,494.5c-0.1,0-0.1,0-0.2,0l-5.1-2.3c-0.3-0.1-0.4-0.4-0.3-0.7c0.1-0.3,0.4-0.4,0.7-0.3l5.1,2.3
			c0.3,0.1,0.4,0.4,0.3,0.7C391.3,494.4,391.1,494.5,390.9,494.5z"/>
		<path class="st7" d="M402.5,435.8c0,0-6,47.1-6.7,49.5c-0.8,2.4-3.9,5.5-5.1,5.7c-2.1,0.3-3.6-1.3-1.6-7.3l-0.8-49L402.5,435.8z"
			/>
		<path class="st2" d="M390.2,491.7c-1,0-1.5-0.4-1.8-0.8c-1-1.2-0.9-3.6,0.3-7.2l-0.8-49.5l15.3,1.1l-0.1,0.6
			c-0.2,1.9-6,47.2-6.8,49.6c-0.8,2.5-4,5.9-5.5,6.1C390.6,491.7,390.4,491.7,390.2,491.7z M388.9,435.4l0.8,48.5l0,0.1
			c-1.4,4.3-0.9,5.7-0.5,6.2c0.3,0.4,0.8,0.5,1.5,0.4c0.9-0.1,3.9-3.1,4.6-5.4c0.6-1.9,4.6-32.5,6.6-48.9L388.9,435.4z"/>
		<path class="st6" d="M418.4,488.7c-1.4,14.1-7,19.5-10.5,18.8c-1.2-0.2-2.1-1.1-2.6-2.4c-2.1-5.8,0.9-14.5,3.4-19.4
			C409.8,483.3,418.7,485,418.4,488.7z"/>
		<path class="st2" d="M418.4,488.7c-1.4,14.1-7,19.5-10.5,18.8c9.4-7.6,8.7-21.6,8.7-21.6s1.1,0.6,1.5,1.2
			C418.6,488,418.4,488.7,418.4,488.7z"/>
		<path class="st2" d="M411.8,500.9c0,0-0.1,0-0.1,0l-5.4-1.4c-0.3-0.1-0.4-0.4-0.4-0.6c0.1-0.3,0.4-0.4,0.6-0.4l5.4,1.4
			c0.3,0.1,0.4,0.4,0.4,0.6C412.2,500.8,412,500.9,411.8,500.9z"/>
		<path class="st2" d="M412.4,497.1c0,0-0.1,0-0.1,0l-5.4-1.4c-0.3-0.1-0.4-0.4-0.4-0.6c0.1-0.3,0.4-0.4,0.6-0.4l5.4,1.4
			c0.3,0.1,0.4,0.4,0.4,0.6C412.8,497,412.6,497.1,412.4,497.1z"/>
		<path class="st7" d="M420.8,433.1c0,0-5.9,51.4-6.3,53.9c-0.4,2.5-2.5,6-3.7,6.4c-2,0.7-2.9-0.3-2-6.6l-3.2-50.8L420.8,433.1z"/>
		<path class="st2" d="M409.9,494.2c-0.4,0-0.7-0.1-1.1-0.4c-1-0.8-1.1-2.8-0.5-7l-3.2-51.2l16.3-3.1l-0.1,0.7
			c-0.2,2.1-5.9,51.4-6.3,53.9c-0.4,2.6-2.6,6.3-4,6.8C410.7,494.1,410.3,494.2,409.9,494.2z M406.3,436.5l3.2,50.4l0,0.1
			c-0.5,3.5-0.5,5.6,0.1,6.1c0.1,0.1,0.3,0.3,1.2,0c0.8-0.3,3-3.4,3.3-6c0.3-2.3,5.5-47,6.2-53.2L406.3,436.5z"/>
		<path class="st7" d="M431.7,333.1c0,0,3.9,10.6,3.4,11.9c-0.5,1.3-2.5,6.4-2.5,6.4l12.7,17.9l14.5-5.6l-5.5-16.6
			c0,0-9.4-6.6-10.2-7.8c-1.1-1.6-2.6-7.2-2.6-7.2L431.7,333.1z"/>
		<path class="st2" d="M445.1,370L432,351.5l0.1-0.3c0-0.1,2-5.1,2.5-6.4c0.2-0.8-1.5-6.5-3.4-11.6c-0.1-0.3,0-0.6,0.3-0.7
			c0.3-0.1,0.6,0,0.7,0.3c0.9,2.5,3.9,10.9,3.4,12.3c-0.4,1.2-2,5.1-2.4,6.2l12.3,17.4l13.6-5.3l-5.3-16c-1.5-1-9.4-6.7-10.2-7.8
			c-1.2-1.6-2.6-7.2-2.7-7.4c-0.1-0.3,0.1-0.6,0.4-0.6c0.3-0.1,0.6,0.1,0.6,0.4c0.4,1.5,1.6,5.8,2.5,7c0.6,0.8,6.5,5.1,10.1,7.7
			l0.1,0.1l5.7,17.2L445.1,370z"/>
		<path class="st2" d="M434.2,395.4c0,0,3.3,0.9-4.6,6.3c-7.9,5.4-42.1,9-42.4,19c-0.3,10-1.4,56.2-1.4,56.2h14.3l4.5-45.4l1.8,46.5
			l14.5-2.2l5.5-45.5c0,0,22,0,27.6-3.2c5.7-3.2,8.3-33.7,8.3-33.7L434.2,395.4z"/>
		<path class="st6" d="M447.3,342c-2.3,0.5-6.7,10-11.2,10.7c-1.4,0.2-1-2.5-2-3.6c-4.7-5-7.9,9.7-9.3,13.3
			c-8.2,21.7-13.1,31.8-11.7,33.5c8.6,10.8,19.7-16.9,19.7-16.9c-0.4,3.1-0.1,13.3-0.5,19.4c0,0.6,30.5,4.2,30.6,3.6
			C466.5,362.5,457.6,339.9,447.3,342z"/>
		<polygon class="st3" points="384.6,387.6 402.5,411.3 433.3,411.3 417.6,387.6 		"/>
		<path class="st4" d="M434.3,411.9h-32.1l-18.7-24.8h34.3L434.3,411.9z M402.7,410.8h29.6l-15-22.7h-31.6L402.7,410.8z"/>
		<path class="st7" d="M452,387.6c0,0-17.1,20.6-18.3,22.4c-1,1.5-4.2,4-7.8,2.5c-6.3-2.6-0.5-2.8-0.1-2.7c0.7,0.1,2.9-1.5,2.9-1.5
			s-3.1-1.7-3-2.8c0.2-1.2,4.8,0.9,4.8,0.9l12.1-21.2l2.8-25.4l9.9,10.5L452,387.6z"/>
		<path class="st2" d="M428.2,413.5c-0.8,0-1.6-0.2-2.5-0.5c-2.5-1-3.4-1.8-3.2-2.6c0.3-1.3,3.4-1.1,3.4-1.1c0,0,0,0,0,0
			c0.2,0,1-0.4,1.9-0.9c-1.1-0.7-2.6-1.8-2.5-2.9c0-0.3,0.2-0.5,0.5-0.7c0.9-0.5,3.3,0.4,4.6,1l11.8-20.7l2.9-26.5l10.8,11.5
			l-3.5,17.8l-0.1,0.1c-0.2,0.2-17.1,20.6-18.2,22.3C433.2,411.7,430.9,413.5,428.2,413.5z M423.6,410.6c0.2,0.2,0.7,0.6,2.5,1.4
			c3.6,1.5,6.5-1.2,7.2-2.3c1.2-1.7,16.8-20.6,18.2-22.3l3.3-17l-8.9-9.5l-2.7,24.4l-0.1,0.1l-12.3,21.7l-0.4-0.2
			c-1.7-0.8-3.5-1.3-4-1.2c0.1,0.5,1.3,1.5,2.7,2.2l0.8,0.4l-0.7,0.5c-0.7,0.5-2.5,1.6-3.3,1.6C425.3,410.3,424,410.4,423.6,410.6z
			 M452,387.6L452,387.6L452,387.6z"/>
		<path class="st6" d="M446,345.5c-6.7,1.3-1.9,20.7-6.8,35.2c-4.5,13.2-19.8,23.2-0.9,26c11.1,1.6,20.4-33.6,21.5-43.7
			C460.4,357.2,452.4,344.3,446,345.5z"/>
		<path class="st2" d="M439,407.3c-0.3,0-0.6,0-0.8-0.1c-5.3-0.8-8.2-2.2-9.3-4.4c-1.4-3,1.1-6.9,4-11.4c2.1-3.3,4.4-7,5.7-10.9
			c2.1-6.3,2.2-9.8,2.3-13.9c0-1.8,0.1-3.6,0.3-5.8c0-0.3,0.3-0.5,0.6-0.5c0.3,0,0.5,0.3,0.5,0.6c-0.2,2.2-0.3,4-0.3,5.8
			c-0.1,4.2-0.2,7.8-2.4,14.2c-1.4,4.1-3.8,7.8-5.9,11.1c-2.7,4.3-5.1,8-3.9,10.4c0.8,1.8,3.6,3,8.4,3.8c1.5,0.2,3-0.3,4.5-1.5
			c8.4-6.5,15.4-32.6,16.4-41.8c0-0.3,0.3-0.5,0.6-0.5c0.3,0,0.5,0.3,0.5,0.6c-0.8,7.8-7.5,35.3-16.8,42.5
			C442,406.7,440.5,407.3,439,407.3z"/>
		<path class="st7" d="M441.1,335c1.1-1.4,4.4-7.6,3.9-9.6c-0.5-1.9-2.6-1-3.2-0.5c-0.4,0.3-3.2-10.4-3.2-10.4l-14.9,3.6
			c0,0,0.7,10.3,2.9,15.4c2.2,5,5,5.6,8.9,4.6L441.1,335z"/>
		<path class="st2" d="M432.7,339c-3,0-5-1.7-6.5-5.3c-2.2-5.1-2.9-15.1-2.9-15.5l0-0.4l15.8-3.8l0.1,0.5c0.9,3.5,2.2,8.4,2.8,9.8
			c0.6-0.3,1.5-0.6,2.2-0.4c0.5,0.1,1.1,0.5,1.3,1.5c0.6,2.3-3,8.8-4,10c-0.2,0.2-0.5,0.3-0.7,0.1c-0.2-0.2-0.3-0.5-0.1-0.7
			c1.2-1.5,4.2-7.5,3.8-9.1c-0.2-0.6-0.5-0.7-0.6-0.7c-0.6-0.2-1.4,0.2-1.7,0.5l-0.2,0.2l-0.3-0.1c-0.3-0.1-0.7-0.2-3.4-10.3
			l-13.9,3.4c0.2,2,0.9,10.4,2.8,14.7c2.1,4.9,4.7,5.2,8.3,4.3c0.3-0.1,0.6,0.1,0.6,0.4c0.1,0.3-0.1,0.6-0.4,0.6
			C434.6,338.9,433.6,339,432.7,339z"/>
		<path class="st2" d="M428.3,328.9c-0.2,0-0.5-0.2-0.5-0.4l-0.1-0.5c-0.1-0.3,0.1-0.6,0.4-0.6c0.3-0.1,0.6,0.1,0.6,0.4l0.1,0.5
			C428.9,328.6,428.7,328.9,428.3,328.9C428.4,328.9,428.4,328.9,428.3,328.9z"/>
		<path class="st2" d="M434.9,327.1c-0.2,0-0.5-0.2-0.5-0.4l-0.1-0.5c-0.1-0.3,0.1-0.6,0.4-0.6c0.3-0.1,0.6,0.1,0.6,0.4l0.1,0.5
			C435.5,326.8,435.3,327.1,434.9,327.1C435,327.1,434.9,327.1,434.9,327.1z"/>
		<path class="st2" d="M433.6,324.7c-0.2,0-0.3-0.1-0.4-0.2c-0.2-0.2-0.1-0.6,0.2-0.7c0.1,0,1.5-0.9,3.2-0.5
			c0.3,0.1,0.5,0.4,0.4,0.6c-0.1,0.3-0.4,0.5-0.6,0.4c-1.3-0.3-2.4,0.4-2.4,0.4C433.8,324.6,433.7,324.7,433.6,324.7z"/>
		<path class="st2" d="M429.6,333.1c-0.1,0.4,1.5,1.4,2.5,1.2c2.6-0.6,2.8-3,2.3-2.5c-0.2,0.2-1.3,1.2-2.6,1.4
			C430.1,333.4,429.8,332.7,429.6,333.1z"/>
		<path class="st2" d="M431,331.4c-1.1,0-1.2-0.3-1.3-0.5c-0.2-0.4,0-0.8,0.1-1.2c0.1-0.3,0.3-0.7,0.3-1.2c0-0.3,0.3-0.5,0.6-0.5
			c0.3,0,0.5,0.3,0.5,0.6c-0.1,0.6-0.3,1.1-0.4,1.4c0,0.1-0.1,0.1-0.1,0.2c0.3,0,0.9,0,1.5-0.1c0.3,0,0.6,0.2,0.6,0.4
			c0,0.3-0.2,0.6-0.4,0.6C431.8,331.4,431.4,331.4,431,331.4z"/>
		<path class="st2" d="M426.6,326.6c-0.1,0-0.3-0.1-0.4-0.2c-0.2-0.2-0.2-0.5,0-0.7c0,0,1.1-1,3-1c0,0,0,0,0,0
			c0.3,0,0.5,0.2,0.5,0.5c0,0.3-0.2,0.5-0.5,0.5c0,0,0,0,0,0c-1.5,0-2.3,0.7-2.3,0.7C426.9,326.6,426.8,326.6,426.6,326.6z"/>
		<path class="st2" d="M432.8,378.9c-0.3,0-0.5-0.2-0.5-0.5v-12.7c0-0.3,0.2-0.5,0.5-0.5c0.3,0,0.5,0.2,0.5,0.5v12.7
			C433.3,378.6,433.1,378.9,432.8,378.9z"/>
		
			<ellipse transform="matrix(0.7071 -0.7071 0.7071 0.7071 -163.3008 406.4091)" class="st3" cx="408.9" cy="400.3" rx="2.7" ry="2.7"/>
		<path class="st4" d="M408.9,403.6c-1.8,0-3.2-1.5-3.2-3.2c0-1.8,1.5-3.2,3.2-3.2c1.8,0,3.2,1.5,3.2,3.2
			C412.2,402.1,410.7,403.6,408.9,403.6z M408.9,398.1c-1.2,0-2.2,1-2.2,2.2c0,1.2,1,2.2,2.2,2.2s2.2-1,2.2-2.2
			C411.1,399.1,410.1,398.1,408.9,398.1z"/>
		<path class="st7" d="M404.6,408.5c-0.2,0-0.3-0.1-0.4-0.2L392.4,392c-0.2-0.2-0.1-0.6,0.1-0.7c0.2-0.2,0.6-0.1,0.7,0.1l11.8,16.3
			c0.2,0.2,0.1,0.6-0.1,0.7C404.8,408.5,404.7,408.5,404.6,408.5z"/>
		<path class="st2" d="M425.1,330c0,0,0.9-5.2,1.1-8.6c0-0.4,16.6,2.1,16.6,2.1l-3.6-11.8l-17.3,7.2L425.1,330z"/>
		<path class="st2" d="M453.2,324.5c4,2.2,3.7,15.2-6.8,9.6C443.3,332.5,445.3,320.2,453.2,324.5z"/>
	</g>
	<path class="st2" d="M959.4,582.8H320.6c-0.3,0-0.5-0.2-0.5-0.5s0.2-0.5,0.5-0.5h638.8c0.3,0,0.5,0.2,0.5,0.5
		S959.7,582.8,959.4,582.8z"/>
</g>
<g>
	<g>
		<g>
			<path class="st6" d="M291,91.4h-13V79.9h39.9v11.4h-13.2v39.5H291L291,91.4L291,91.4z"/>
			<path class="st6" d="M337.5,119.1l-2.9,11.8h-14.1l14.8-50.9h18.2l15.2,50.9H354l-3.2-11.8H337.5z M348.8,109l-2.4-9.2
				c-0.8-2.9-1.7-7-2.5-10h-0.1c-0.8,3-1.5,7.2-2.2,10.1l-2.2,9.1L348.8,109L348.8,109z"/>
			<path class="st6" d="M401.5,130.9l-3.8-8.3c-1.5-3.2-2.6-5.8-3.9-8.8h-0.1c-0.9,2.9-2.1,5.6-3.3,8.7l-3.4,8.4h-15.5l14.3-25.8
				L372,79.9h15.7l3.5,8.1c1.3,3,2.3,5.5,3.4,8.4h0.2c1.1-3.3,1.9-5.6,3-8.4l3.1-8.2h15.5l-13.9,24.9l14.8,26.1L401.5,130.9
				L401.5,130.9z"/>
		</g>
	</g>
	<g>
		<g>
			<path class="st6" d="M291.4,171.8l-2.6,8.6h-12.6l13.9-44.1H307l14.5,44.1h-13.5l-2.7-8.6H291.4z M303,162.2
				c-2.1-6.9-3.8-13.1-4.8-17.4h-0.2c-1,4.7-2.7,11-4.5,17.4H303z"/>
			<path class="st6" d="M338.7,136.3v27.1c0,6.3,3.1,8.5,7,8.5c4.2,0,6.7-2.6,6.7-8.5v-27.1h13v25.8c0,14.6-8.7,19.1-19.9,19.1
				c-11.6,0-19.7-4.7-19.7-19v-25.9H338.7z"/>
			<path class="st6" d="M373.9,136.3h18.9c14,0,22.2,8.9,22.2,21.6c0,12.7-7.9,22.5-22.4,22.5h-18.7V136.3z M386.9,171h4.9
				c7,0,9.9-4.9,9.9-13.2c0-7.3-2.7-12.2-9.7-12.2h-5.1V171z"/>
			<path class="st6" d="M435.1,136.3v44.1h-13v-44.1H435.1z"/>
			<path class="st6" d="M453.1,145.9h-12.6v-9.6h38v9.6H466v34.5h-12.9V145.9z"/>
		</g>
	</g>
</g>
</svg>
