<?xml version="1.0" encoding="utf-8"?>
<!-- Generator: Adobe Illustrator 26.0.0, SVG Export Plug-In . SVG Version: 6.00 Build 0)  -->
<svg version="1.1" id="_x2018_лой_x5F_1" xmlns="http://www.w3.org/2000/svg" xmlns:xlink="http://www.w3.org/1999/xlink"
	 x="0px" y="0px" viewBox="0 0 3284.83 1725.8" style="enable-background:new 0 0 3284.83 1725.8;" xml:space="preserve">
<rect x="0.36" y="-2.01" style="fill:#FAF7E9;" width="3284.47" height="1727.81"/>
<g>
	<path style="opacity:0.18;fill:#D39D4F;" d="M732.67,1319.5c0,0-226.56-216.85,3.24-530.79
		C941.23,508.2,787.92,374.18,998.66,237.5c213.02-138.16,394.26-54.01,598.16,52.79c203.9,106.8,485.48-148.88,789.71-12.95
		c304.23,135.93,260.49,343.72,185.23,557.35c-63.53,180.34,129.65,310.65,24.28,485.11C2596.04,1319.8,726.2,1313.03,732.67,1319.5
		z"/>
	<path style="opacity:0.4;fill:#B9B9B5;" d="M1900.61,532.39c0,0,32.08-134.49,139.22-149.03c0,0,20.85-2.51,27.73,20.46
		c6.88,22.96-34.55,23.03-60.18,32.2C1981.74,445.19,1921.93,484.17,1900.61,532.39z"/>
	<path style="opacity:0.4;fill:#B9B9B5;" d="M1902.57,557.88c0,0,61.43-123.87,169.11-114c0,0,20.88,2.23,22.43,26.15
		c1.56,23.92-38.84,14.69-65.88,17.87C2001.2,491.1,1934.17,515.67,1902.57,557.88z"/>
	<path style="opacity:0.56;fill:#D39D4F;" d="M2225.91,1073.75c0,0,32.08-134.49,139.22-149.03c0,0,20.85-2.51,27.73,20.46
		c6.88,22.96-34.55,23.03-60.19,32.2C2307.04,986.55,2247.24,1025.53,2225.91,1073.75z"/>
	<path style="opacity:0.56;fill:#D39D4F;" d="M2229.37,1029.64c0,0-17.58-137.14,77.49-188.65c0,0,18.61-9.72,33.17,9.32
		c14.56,19.04-24.17,33.76-44.9,51.41C2274.4,919.37,2232.26,976.99,2229.37,1029.64z"/>
	<path style="opacity:0.56;fill:#D39D4F;" d="M2550.96,1057.99c-12.08-51.32-98.54-38.32-98.54-38.32s-61.34,87.03-78.39,88.58
		c-17.04,1.55,37.9-84.64,37.9-84.64c-32.78-4.29-117.94,33.15-117.94,33.15s1.8,104.01-15.1,101.32
		c-16.9-2.69,3.11-92.17,3.11-92.17c-32.14,8.46-63.1,44.54-63.1,44.54c-39.16,59.14,38.9,106.32,38.9,106.32
		s-0.15,36.06-23.82,76.63l0,0c0,0-5.28,7.46-10.83,20.25l8.68,0.29c0.79-2.3,1.64-4.52,2.58-6.65c0-0.02,0.01-0.03,0.02-0.04
		c0.01-0.03,0.03-0.06,0.04-0.09c0.64-1.32,1.56-3.2,2.7-5.48c0,0,0-0.01,0-0.01c0-0.01,0.01,0,0.01-0.01
		c2.82-5.09,4.74-8.86,5.97-11.59c0-0.01,0.01-0.02,0.01-0.03c8.49-16,20.65-36.81,28.43-41c0,0-0.91-1.38-1.72-4.04
		c0.55,1.29,1.12,2.63,1.72,4.04c13.78,32.29,87.86,40.08,129.51,33c41.66-7.08,24.02-19.34,2.38-39.01
		c-21.64-19.67-68.48-16.25-82.02-24.13c-13.54-7.88,6.86-14.62,34.37-11.57c27.51,3.05,40.37,31.06,84.78,36.8
		s81.17-76.82,81.17-76.82c-31.08,8.5-85.67-10.31-87.44-20.98c-1.76-10.67,79.88-6.85,92.72-9.6S2563.04,1109.31,2550.96,1057.99z"
		/>
	<path style="opacity:0.56;fill:#D39D4F;" d="M961.08,606.45c12.08-51.32,98.54-38.32,98.54-38.32s61.34,87.03,78.39,88.58
		c17.04,1.55-37.9-84.64-37.9-84.64c32.78-4.29,117.94,33.15,117.94,33.15s-1.81,104.01,15.1,101.32
		c16.9-2.69-3.11-92.17-3.11-92.17c32.14,8.46,63.1,44.54,63.1,44.54c39.16,59.14-38.9,106.32-38.9,106.32s0.15,36.06,23.82,76.63
		c0,0,0,0,0,0s5.28,7.46,10.83,20.25l-8.68,0.29c-0.79-2.3-1.64-4.52-2.58-6.65c0-0.02-0.01-0.03-0.02-0.04
		c-0.01-0.03-0.03-0.06-0.04-0.09c-0.64-1.32-1.56-3.2-2.7-5.48c0,0,0-0.01,0-0.01c0-0.01-0.01-0.01-0.01-0.01
		c-2.82-5.09-4.74-8.86-5.97-11.59c0-0.01-0.01-0.02-0.01-0.02c-8.49-16-20.65-36.81-28.43-41c0,0,0.91-1.38,1.72-4.04
		c-0.55,1.29-1.12,2.63-1.72,4.04c-13.78,32.28-87.86,40.08-129.51,33c-41.66-7.08-24.02-19.34-2.38-39.01
		c21.64-19.67,68.48-16.25,82.02-24.13c13.54-7.88-6.86-14.62-34.37-11.57c-27.51,3.05-40.37,31.06-84.78,36.8
		c-44.41,5.74-81.18-76.82-81.18-76.82c31.08,8.5,85.67-10.31,87.44-20.98c1.76-10.67-79.88-6.85-92.72-9.6
		C972.14,682.45,949,657.77,961.08,606.45z"/>
	<path style="opacity:0.56;fill:#D39D4F;" d="M1486.88,355.62c25.38-48.63,109.2-13.27,109.2-13.27s39.44,103.52,56.22,109.47
		c16.78,5.95-16.42-95.08-16.42-95.08c34.15,4.12,110.36,63.77,110.36,63.77s-28.59,104.38-10.86,106.02
		c17.73,1.64,20.59-93.72,20.59-93.72c30.23,16.8,52.14,61.14,52.14,61.14c24.26,69.7-66.58,97.17-66.58,97.17
		s-9.13,36.39,4.29,83.38l0,0c0,0,3.41,8.88,5.71,23.21l-8.82-1.94c-0.2-2.52-0.49-4.98-0.89-7.37c0-0.02,0-0.03-0.01-0.04
		c-0.01-0.03-0.01-0.07-0.02-0.1c-0.3-1.49-0.75-3.62-1.31-6.22c0,0,0-0.01,0-0.01c0-0.01,0-0.01,0-0.01
		c-1.54-5.86-2.5-10.15-3.04-13.22c0-0.01,0-0.02,0-0.03c-4.44-18.31-11.34-42.42-18.1-48.65c0,0,1.28-1.16,2.78-3.63
		c-0.89,1.16-1.81,2.36-2.78,3.63c-22.2,29-98.88,17.8-139.05-0.06c-40.17-17.86-19.23-25.68,7.64-39.94
		c26.88-14.25,73.22,1.24,88.9-3.22c15.68-4.46-3.16-16.5-31.67-20.51c-28.52-4.01-48.69,20.92-94.94,15.28
		c-46.25-5.64-62.06-98.33-62.06-98.33c29.15,16.57,89.02,11.66,93.54,1.36c4.52-10.3-78.76-27.47-90.99-33.54
		S1461.5,404.25,1486.88,355.62z"/>
	<g style="opacity:0.5;">
		<path style="fill:#D39D4F;" d="M2493.97,428.25L2543,615.8c2.16,8.27-2.84,16.82-11.12,18.98l-329.02,86.01
			c-8.27,2.16-16.82-2.84-18.98-11.11l-49.03-187.55c-2.16-8.27,2.84-16.82,11.12-18.98l329.02-86.01
			C2483.26,414.97,2491.81,419.97,2493.97,428.25z"/>
		<g>
			<path style="fill:#CDE0FB;" d="M2357.54,640.29l-87.69,22.92c-3.71,0.97-7.54-1.27-8.51-4.98l-0.22-0.84
				c-0.97-3.71,1.27-7.54,4.98-8.51l87.69-22.92c3.71-0.97,7.54,1.27,8.51,4.98l0.22,0.84
				C2363.49,635.49,2361.25,639.32,2357.54,640.29z"/>
			<g>
				<path style="fill:#CDE0FB;" d="M2311.66,554.7c0.84,3.2,0.96,5.96,0.38,8.3c-0.73,2.94-2.56,4.8-5.49,5.57
					c-2.93,0.77-5.43,0.04-7.51-2.17c-1.65-1.75-2.89-4.22-3.72-7.42s-0.97-5.95-0.41-8.26c0.73-2.94,2.57-4.8,5.52-5.57
					c2.95-0.77,5.46-0.05,7.54,2.16C2309.6,549.03,2310.83,551.5,2311.66,554.7z M2307.63,555.73c-0.52-2-1.19-3.63-2-4.87
					c-1.24-1.86-2.65-2.59-4.24-2.17c-1.63,0.43-2.52,1.74-2.67,3.94c-0.12,1.49,0.09,3.24,0.62,5.27c1.43,5.46,3.53,7.82,6.32,7.09
					c1.61-0.42,2.48-1.75,2.62-4C2308.39,559.53,2308.17,557.78,2307.63,555.73z"/>
				<path style="fill:#CDE0FB;" d="M2329.67,549.99c0.84,3.2,0.96,5.96,0.38,8.3c-0.73,2.94-2.56,4.8-5.49,5.57
					c-2.93,0.77-5.43,0.04-7.51-2.17c-1.65-1.75-2.89-4.22-3.72-7.42c-0.84-3.2-0.97-5.95-0.41-8.26c0.73-2.94,2.57-4.8,5.52-5.57
					c2.95-0.77,5.46-0.05,7.54,2.16C2327.6,544.33,2328.83,546.79,2329.67,549.99z M2325.64,551.02c-0.52-2-1.19-3.63-2-4.87
					c-1.24-1.86-2.65-2.59-4.24-2.17c-1.63,0.43-2.52,1.74-2.67,3.94c-0.12,1.49,0.09,3.24,0.62,5.27c1.43,5.46,3.53,7.82,6.32,7.09
					c1.61-0.42,2.48-1.75,2.62-4C2326.39,554.82,2326.17,553.07,2325.64,551.02z"/>
				<path style="fill:#CDE0FB;" d="M2356.95,542.86c0.84,3.2,0.96,5.96,0.38,8.3c-0.73,2.94-2.56,4.8-5.49,5.57
					c-2.93,0.77-5.43,0.04-7.51-2.17c-1.65-1.75-2.89-4.22-3.72-7.42c-0.84-3.2-0.97-5.95-0.41-8.26c0.73-2.94,2.57-4.8,5.52-5.57
					c2.95-0.77,5.46-0.05,7.54,2.16C2354.89,537.19,2356.12,539.66,2356.95,542.86z M2352.93,543.89c-0.52-2-1.19-3.63-2-4.87
					c-1.24-1.86-2.65-2.59-4.24-2.17c-1.63,0.43-2.52,1.74-2.67,3.94c-0.12,1.49,0.09,3.24,0.62,5.27c1.43,5.46,3.53,7.82,6.31,7.09
					c1.61-0.42,2.48-1.75,2.62-4C2353.68,547.69,2353.46,545.94,2352.93,543.89z"/>
				<path style="fill:#CDE0FB;" d="M2374.96,538.15c0.84,3.2,0.96,5.96,0.38,8.3c-0.73,2.94-2.56,4.8-5.49,5.57
					c-2.93,0.77-5.43,0.04-7.51-2.17c-1.65-1.75-2.89-4.22-3.73-7.42c-0.84-3.2-0.97-5.95-0.41-8.26c0.73-2.94,2.57-4.8,5.52-5.57
					c2.95-0.77,5.46-0.05,7.54,2.16C2372.89,532.49,2374.12,534.95,2374.96,538.15z M2370.93,539.19c-0.52-2-1.19-3.63-2-4.87
					c-1.24-1.86-2.65-2.59-4.24-2.17c-1.63,0.43-2.52,1.74-2.67,3.94c-0.12,1.49,0.09,3.24,0.62,5.27c1.43,5.46,3.53,7.82,6.32,7.09
					c1.61-0.42,2.48-1.75,2.62-4C2371.68,542.99,2371.47,541.23,2370.93,539.19z"/>
				<path style="fill:#CDE0FB;" d="M2392.96,533.44c0.84,3.2,0.96,5.96,0.38,8.3c-0.73,2.94-2.56,4.8-5.49,5.57
					c-2.93,0.77-5.43,0.04-7.51-2.17c-1.65-1.75-2.89-4.22-3.72-7.42c-0.84-3.2-0.97-5.95-0.41-8.26c0.73-2.94,2.57-4.8,5.52-5.57
					c2.95-0.77,5.46-0.05,7.54,2.16C2390.9,527.78,2392.13,530.25,2392.96,533.44z M2388.94,534.48c-0.52-2-1.19-3.63-2-4.87
					c-1.24-1.86-2.65-2.59-4.24-2.17c-1.63,0.43-2.52,1.74-2.67,3.94c-0.12,1.49,0.09,3.24,0.62,5.27c1.43,5.46,3.53,7.82,6.32,7.09
					c1.61-0.42,2.48-1.75,2.62-4C2389.69,538.28,2389.47,536.52,2388.94,534.48z"/>
				<path style="fill:#CDE0FB;" d="M2410.97,528.74c0.84,3.2,0.96,5.96,0.38,8.3c-0.73,2.94-2.56,4.8-5.49,5.57
					c-2.93,0.77-5.43,0.04-7.51-2.17c-1.65-1.75-2.89-4.22-3.73-7.42c-0.84-3.2-0.97-5.95-0.41-8.26c0.73-2.94,2.57-4.8,5.52-5.57
					c2.95-0.77,5.46-0.05,7.54,2.16C2408.9,523.07,2410.13,525.54,2410.97,528.74z M2406.94,529.77c-0.52-2-1.19-3.63-2-4.87
					c-1.24-1.86-2.65-2.59-4.24-2.17c-1.63,0.43-2.52,1.74-2.67,3.94c-0.12,1.49,0.09,3.24,0.62,5.27c1.43,5.46,3.53,7.82,6.32,7.09
					c1.61-0.42,2.48-1.75,2.62-4C2407.69,533.57,2407.48,531.82,2406.94,529.77z"/>
				<path style="fill:#CDE0FB;" d="M2438.25,521.6c0.84,3.2,0.96,5.96,0.38,8.3c-0.73,2.94-2.56,4.8-5.49,5.57
					c-2.93,0.77-5.43,0.04-7.51-2.17c-1.65-1.75-2.89-4.22-3.72-7.42c-0.84-3.2-0.97-5.95-0.41-8.26c0.73-2.94,2.57-4.8,5.52-5.57
					c2.95-0.77,5.46-0.05,7.54,2.16C2436.19,515.94,2437.42,518.41,2438.25,521.6z M2434.23,522.64c-0.52-2-1.19-3.63-2-4.87
					c-1.24-1.86-2.65-2.59-4.24-2.17c-1.63,0.43-2.52,1.74-2.67,3.94c-0.12,1.49,0.09,3.24,0.62,5.27c1.43,5.46,3.53,7.82,6.32,7.09
					c1.61-0.42,2.48-1.75,2.62-4C2434.98,526.44,2434.76,524.69,2434.23,522.64z"/>
				<path style="fill:#CDE0FB;" d="M2456.26,516.9c0.84,3.2,0.96,5.96,0.38,8.3c-0.73,2.94-2.56,4.8-5.49,5.57
					c-2.93,0.77-5.43,0.04-7.51-2.17c-1.65-1.75-2.89-4.22-3.73-7.42c-0.84-3.2-0.97-5.95-0.41-8.26c0.73-2.94,2.57-4.8,5.52-5.57
					c2.95-0.77,5.46-0.05,7.54,2.16C2454.19,511.23,2455.42,513.7,2456.26,516.9z M2452.23,517.93c-0.52-2-1.19-3.63-2-4.87
					c-1.24-1.86-2.65-2.59-4.24-2.17c-1.63,0.43-2.52,1.74-2.67,3.94c-0.12,1.49,0.09,3.24,0.62,5.27c1.43,5.46,3.53,7.82,6.31,7.09
					c1.61-0.42,2.48-1.75,2.62-4C2452.98,521.73,2452.77,519.98,2452.23,517.93z"/>
				<path style="fill:#CDE0FB;" d="M2474.26,512.19c0.84,3.2,0.96,5.96,0.38,8.29c-0.73,2.94-2.56,4.8-5.49,5.57
					c-2.93,0.77-5.43,0.04-7.51-2.17c-1.65-1.75-2.89-4.22-3.73-7.42c-0.84-3.2-0.97-5.95-0.41-8.26c0.73-2.94,2.57-4.8,5.52-5.57
					c2.95-0.77,5.46-0.05,7.54,2.16C2472.2,506.53,2473.43,508.99,2474.26,512.19z M2470.24,513.23c-0.52-2-1.19-3.63-2-4.87
					c-1.24-1.86-2.65-2.59-4.24-2.17c-1.63,0.43-2.52,1.74-2.67,3.94c-0.12,1.49,0.09,3.24,0.62,5.27c1.43,5.46,3.53,7.82,6.32,7.09
					c1.61-0.42,2.48-1.75,2.62-4C2470.99,517.03,2470.77,515.27,2470.24,513.23z"/>
				<path style="fill:#CDE0FB;" d="M2492.27,507.48c0.84,3.2,0.96,5.96,0.38,8.3c-0.73,2.94-2.56,4.8-5.49,5.57
					c-2.93,0.77-5.43,0.04-7.51-2.17c-1.65-1.75-2.89-4.22-3.72-7.42c-0.84-3.2-0.97-5.95-0.41-8.26c0.73-2.94,2.57-4.8,5.52-5.57
					c2.95-0.77,5.46-0.05,7.54,2.16C2490.21,501.82,2491.43,504.29,2492.27,507.48z M2488.24,508.52c-0.52-2-1.19-3.63-2-4.87
					c-1.24-1.86-2.65-2.59-4.24-2.17c-1.63,0.43-2.52,1.74-2.67,3.94c-0.12,1.49,0.09,3.24,0.62,5.27c1.43,5.46,3.53,7.82,6.32,7.09
					c1.61-0.42,2.48-1.75,2.62-4C2488.99,512.32,2488.78,510.57,2488.24,508.52z"/>
			</g>
			<path style="fill:#CDE0FB;" d="M2254.86,505.3l-85.81,22.43c-3.71,0.97-7.54-1.27-8.51-4.98l0,0c-0.97-3.71,1.27-7.54,4.98-8.51
				l85.82-22.43c3.71-0.97,7.54,1.27,8.51,4.98l0,0C2260.81,500.5,2258.57,504.33,2254.86,505.3z"/>
			<g>
				<g>
					<path style="fill:#CDE0FB;" d="M2462.46,466.38c-0.64-2.45-2.08-4.48-3.97-5.89c-0.55-0.41-1.33-0.24-1.67,0.35l-0.3,0.51
						c-0.28,0.49-0.16,1.13,0.29,1.47c1.37,1.03,2.41,2.5,2.87,4.28c0.46,1.78,0.28,3.57-0.41,5.14c-0.23,0.52-0.03,1.13,0.46,1.42
						l0.51,0.3c0.59,0.35,1.35,0.11,1.63-0.51C2462.84,471.3,2463.1,468.82,2462.46,466.38z"/>
				</g>
				<g>
					<path style="fill:#CDE0FB;" d="M2468.02,464.92c-1.05-4.03-3.52-7.32-6.72-9.47c-0.54-0.37-1.29-0.18-1.61,0.39l-0.17,0.29
						c-0.3,0.52-0.14,1.18,0.36,1.52c2.68,1.82,4.73,4.57,5.61,7.94c0.88,3.37,0.44,6.77-1.01,9.67c-0.27,0.54-0.09,1.19,0.43,1.5
						l0.29,0.17c0.56,0.34,1.3,0.14,1.6-0.45C2468.53,473.02,2469.07,468.95,2468.02,464.92z"/>
				</g>
				<g>
					<path style="fill:#CDE0FB;" d="M2472.89,463.65c-1.41-5.39-4.75-9.77-9.09-12.59c-0.55-0.35-1.28-0.17-1.6,0.39l0,0
						c-0.3,0.52-0.14,1.19,0.37,1.52c3.88,2.52,6.87,6.43,8.13,11.25c1.26,4.81,0.57,9.69-1.59,13.79c-0.28,0.54-0.1,1.2,0.42,1.51
						l0,0c0.56,0.33,1.29,0.14,1.59-0.44C2473.53,474.49,2474.3,469.04,2472.89,463.65z"/>
				</g>
				<g>
					<path style="fill:#CDE0FB;" d="M2478.17,462.27c-1.79-6.86-6.09-12.42-11.66-15.94c-0.55-0.35-1.28-0.17-1.6,0.4l-0.29,0.5
						c-0.3,0.53-0.14,1.2,0.38,1.52c4.97,3.15,8.8,8.11,10.4,14.24c1.6,6.13,0.69,12.33-2.1,17.51c-0.29,0.54-0.1,1.2,0.42,1.51
						l0.5,0.3c0.56,0.33,1.28,0.13,1.59-0.44C2478.93,476.08,2479.96,469.13,2478.17,462.27z"/>
				</g>
			</g>
		</g>
	</g>
	<g>
		<path style="fill:#656563;" d="M2214.35,1299.13H1196.81c-18.58,0-33.78-15.2-33.78-33.78V596.23c0-18.58,15.2-33.78,33.78-33.78
			h1017.54c18.58,0,33.78,15.2,33.78,33.78v669.12C2248.13,1283.93,2232.93,1299.13,2214.35,1299.13z"/>
		<rect x="1187.5" y="588.19" style="fill:#DDE7FE;" width="1036.15" height="703.45"/>
		<path style="fill:#656563;" d="M2353.57,1317.66H1057.59c-13.02,0-23.58-10.56-23.58-23.58l0,0c0-13.02,10.56-23.58,23.58-23.58
			h1295.98c13.02,0,23.58,10.56,23.58,23.58v0C2377.15,1307.1,2366.59,1317.66,2353.57,1317.66z"/>
		<rect x="1187.5" y="588.19" style="fill:#D4D3CE;" width="1036.15" height="684.76"/>
	</g>
	<g>
		<path style="fill:#424140;" d="M841.93,1321.1c0,0,0-10.14,1.53-13.51c1.53-3.37,7.14-17.1,7.14-17.1h21.92
			c0,0,4.08,12.52,4.33,16.62c0.25,4.09,0,13.99,0,13.99H841.93z"/>
		<path style="fill:#424140;" d="M981.11,1321.1c0,0,0-10.14-1.53-13.51c-1.53-3.37-7.14-17.1-7.14-17.1h-21.92
			c0,0-4.08,12.52-4.33,16.62c-0.26,4.09,0,13.99,0,13.99H981.11z"/>
		<path style="fill:#FFB27D;" d="M893.29,752.06c0,0-0.77,22.57-3.83,32.69l-24.21,15.95l91.12,12.88l-21.73-28.37
			c0,0-6.56-30.27-3.12-41.47C934.96,732.55,893.29,752.06,893.29,752.06z"/>
		<path style="fill:#ED985F;" d="M893.16,755.18c0-0.01,7.2,16.39,20.78,16.03c13.57-0.36,16.66-14.86,16.66-14.86L893.16,755.18z"
			/>
		<path style="fill:#2C3A64;" d="M885.06,741.91c0,0-4.38-20.67-7.44-26.93c-3.06-6.26-5.61-34.19,28.29-35.64
			c0,0,13,1.45,20.14-2.65c0,0,0,4.09-1.78,5.54c0,0,11.72-2.65,20.9,6.98c9.18,9.63-6.12,43.34-5.35,51.29L885.06,741.91z"/>
		<path style="fill:#FFB27D;" d="M912.38,764.87c-9.83-0.16-27.94-12.54-27.94-27.86v-23.91c0-5.59,4.13-10.17,9.18-10.17h37.52
			c5.05,0,9.18,4.58,9.18,10.17v22.55C940.32,751.73,923.66,765.06,912.38,764.87z"/>
		<path style="fill:#2C3A64;" d="M884.45,725.87c0,0,0.05-14.36,12.09-16.57c12.04-2.21,39,7,42.82-3.47
			c3.82-10.48-52.1-10.29-54.91-3.61C881.63,708.9,884.45,725.87,884.45,725.87z"/>
		<path style="fill:#656563;" d="M844.68,970c0,0,3.84,110.64-1.9,173.77c-5.73,63.13,0.04,150.99,0.04,150.99s18.34,9.55,38.22,0
			c0,0,21.8-121.96,21.66-150.99c-0.15-30.91,23.73-168.95,23.73-168.95L844.68,970z"/>
		<path style="fill:#656563;" d="M980.31,1294.75c0,0-18.34,9.56-38.22,0c0,0-21.8-121.96-21.66-150.98
			c0.06-13.05-4.16-45.22-9.06-78.02c-6.71-44.87-14.67-90.92-14.67-90.92l84.93-5.01c0,0-7,110.83-1.27,173.96
			C986.1,1206.9,980.31,1294.75,980.31,1294.75z"/>
		<path style="fill:#CEB173;" d="M980.61,988.4c0,0-36.21,6.62-69.24,6.62c-14.41,0-30.06-1.49-42.52-3.07
			c-13.78-1.73-23.66-3.55-23.66-3.55s-7.34,0.61-3.01-33.58c3.3-26.02,2.26-49.51,1.53-73.69c-0.08-2.69-0.02-5.87,0.15-9.41
			c1.41-28.18,10.43-78.92,17.3-81.64c0,0,10.22-3.59,28.28-5.34c0,0.33,10.48,14.81,22.92,16.44c7.73-2.89,13.8-5.35,22.26-15.97
			c10.71,1.18,22.4,3.19,34.89,6.36c0,0,1.3,5.37,6.21,98.62C977.69,927.14,991.03,988.53,980.61,988.4z"/>
		<path style="fill:#424140;" d="M920.44,1143.77c0.06-13.05-4.16-45.22-9.06-78.02c5.08-19.59,17.47-38.45,17.47-38.45
			C944.52,1068.84,920.44,1143.77,920.44,1143.77z"/>
		<path style="fill:#CEB173;" d="M810.26,901.09c-0.86,0.68,2.15,7.73,6.58,16.92c9.13,18.88,24.29,46.75,24.29,46.75
			c-2.19,7.87-4.6,12.73-4.6,12.73c-25.51-18.93-41.96-35.04-52.45-47.4c-14.76-17.37-17.79-27.34-17.79-27.34
			c56.8-109.23,96.77-113.26,96.77-113.26l-4.72,72.19C858.34,861.69,812.89,899.02,810.26,901.09z"/>
		<path style="fill:#FFB27D;" d="M838.11,966.13c0,0,13.76-12.04,19.37-5.3c5.61,6.74,6.63,17.34,2.29,16.62
			c-4.33-0.72-13.25-4.57-14.53-2.65c-1.27,1.93-6.98,5.61-8.72,2.68C834.8,974.56,838.11,966.13,838.11,966.13z"/>
		<path style="fill:#FFB27D;" d="M841.13,964.76c-2.19,7.87-4.6,12.73-4.6,12.73c-25.51-18.93-41.96-35.04-52.45-47.4
			c7.91-0.56,19.47-3.23,32.77-12.09C825.97,936.88,841.13,964.76,841.13,964.76z"/>
		<path style="fill:#CEB173;" d="M1060.5,902.75c0,0-3.03,9.96-17.79,27.34c-10.5,12.35-26.95,28.46-52.45,47.4
			c0,0-2.41-4.86-4.6-12.73c0,0,15.16-27.88,24.29-46.75c4.44-9.19,7.45-16.24,6.58-16.92c-2.04-1.6-29.81-24.4-42.19-34.56
			c-3.59-2.95-5.89-4.84-5.89-4.84l-2.84-71.11C965.62,790.57,1003.7,793.53,1060.5,902.75z"/>
		<path style="fill:#FFB27D;" d="M988.68,966.13c0,0-13.76-12.04-19.37-5.3c-5.61,6.74-6.63,17.34-2.29,16.62
			c4.33-0.72,13.25-4.57,14.53-2.65c1.27,1.93,6.98,5.61,8.72,2.68C992,974.56,988.68,966.13,988.68,966.13z"/>
		<path style="fill:#FFB27D;" d="M985.66,964.76c2.19,7.87,4.6,12.73,4.6,12.73c25.51-18.93,41.96-35.04,52.45-47.4
			c-7.91-0.56-19.47-3.23-32.77-12.09C1000.82,936.88,985.66,964.76,985.66,964.76z"/>
		<path style="fill:#656563;" d="M890.73,779.24c0,0-4.05,1.59-5.19,5.93c0,0,16.23,15.77,26.85,16.01L890.73,779.24z"/>
		<path style="fill:#656563;" d="M912.38,801.18l20.95-22.74c0,0,4.32,2.69,4.26,7.11C937.59,785.56,921.39,801.79,912.38,801.18z"
			/>
		<path style="fill:#656563;" d="M908.61,799.51c0,0-15.99,130.4-10.42,146.29c2.87,8.18,6.7,15.26,9.75,20.2
			c2.19,3.56,7.63,3.55,9.81-0.02c4.25-6.96,9.79-17.04,9.79-22.16c0-8.29-12.13-144.43-12.13-144.43L908.61,799.51z"/>
		<path style="fill:#656563;" d="M904.42,793.12c0,0,9.66-0.92,15.55-0.35c1.17,0.11,1.82,1.32,1.25,2.29
			c-1.65,2.8-5.01,7.66-8.53,7.66C907.74,802.72,900.04,793.44,904.42,793.12z"/>
		<path style="fill:#FFFFFF;" d="M904.55,749.47c0,0,3.06,3.91,8.41,3.78c5.35-0.14,7.86-3.78,7.86-3.78S911.8,748.07,904.55,749.47
			z"/>
	</g>
	<g>
		<g>
			<rect x="1431.61" y="508.38" style="fill:#ADADAD;" width="670.11" height="713.61"/>
			<g>
				<path style="fill:#656563;" d="M1911.79,1101.84h-127.58c-0.14,0-0.25-0.11-0.25-0.25v-7.79c0-0.14,0.11-0.25,0.25-0.25h127.58
					c0.14,0,0.25,0.11,0.25,0.25v7.79C1912.04,1101.72,1911.92,1101.84,1911.79,1101.84z"/>
				<path style="fill:#656563;" d="M1943.52,1083H1784.2c-0.13,0-0.24-0.11-0.24-0.24v-7.81c0-0.13,0.11-0.24,0.24-0.24h159.33
					c0.13,0,0.24,0.11,0.24,0.24v7.81C1943.76,1082.89,1943.65,1083,1943.52,1083z"/>
			</g>
			<g>
				<rect x="1489.74" y="628.88" style="fill:#E6E6E6;" width="553.85" height="389.67"/>
				<g>
					<g>
						<rect x="1619.61" y="606.89" style="fill:#1F1F89;" width="0.89" height="411.66"/>
					</g>
					<g>
						<rect x="1966.43" y="606.89" style="fill:#1F1F89;" width="0.89" height="411.66"/>
					</g>
					<g>
						<rect x="1678.5" y="606.89" style="fill:#1F1F89;" width="0.89" height="411.66"/>
					</g>
					<g>
						<rect x="1489.74" y="945.65" style="fill:#1F1F89;" width="553.85" height="0.89"/>
					</g>
					<g>
						<rect x="1489.74" y="864.09" style="fill:#1F1F89;" width="553.85" height="0.89"/>
					</g>
					<g>
						<rect x="1489.74" y="782.54" style="fill:#1F1F89;" width="553.85" height="0.89"/>
					</g>
					<g>
						<rect x="1489.74" y="700.99" style="fill:#1F1F89;" width="553.85" height="0.89"/>
					</g>
				</g>
				<rect x="1489.74" y="558.42" style="fill:#848583;" width="553.85" height="79.07"/>
			</g>
			<g>
				<path style="fill:#F77D48;" d="M1991.31,1154.99c-12.49,3.82-24.67,5.82-34.25,5.06c-14.6-1.15-22.82-8.37-23.15-20.35
					c-0.26-9.5,3.92-17.82,12.1-24.56c-0.08-0.65-0.14-1.3-0.2-1.95c-0.54-6.7,0.98-11.15,4.5-13.22c5.7-3.36,14.17,1.24,14.53,1.43
					l-1.89,3.06c-1.9-1.04-7.53-3.34-10.65-1.48c-2.69,1.59-3.01,5.97-2.78,9.53c6.66-4.55,15.35-8.27,25.96-10.97
					c7.84-2.01,16.57-3.34,24.46-3.95c0.04-0.83,0.11-1.58,0.21-2.19c0.26-1.64,0.86-3.57,2.57-3.95c0.65-0.13,1.91-0.12,3.02,1.49
					c0.72,1.03,1.08,2.52,1.15,4.3c2.72-0.06,5.24-0.01,7.48,0.14c0.02-0.04,0.04-0.09,0.06-0.14c-0.54-4.2-0.16-9.14,0.58-12.33
					c0.95-4.1,2.51-6.17,4.69-6.37c1.31-0.11,2.45,0.55,2.97,1.74c1.22,2.78-1.07,10.29-4.38,17.5c0,0.01,0,0.03,0.01,0.04
					c3.11,0.5,5.22,1.31,5.88,2.45c0.5,0.85,0.56,2.17-0.76,3.32c-2.51,2.18-4.51,1.64-5.48,1.11c-0.82-0.44-1.48-1.2-2.01-2.17
					c-2.51,4.69-5.24,8.7-7.39,10.39c-1.98,1.57-3.71,0.94-4.36,0.6c-0.34-0.18-0.66-0.42-0.95-0.72c-0.85,1.97-1.82,3.86-2.86,5.58
					c-3.92,6.5-8.34,9.85-12.78,9.65c-1.82-0.08-3.42-0.76-4.78-2c-2.45,5.02-5.54,9.79-8.6,13.36c-3.12,3.63-7.09,4.96-11.2,3.75
					c-7.27-2.15-13.85-12.08-16.32-23.86c-6.22,5.74-9.24,12.54-9.03,20.34c0.28,10.21,6.91,15.9,19.71,16.91
					c32.3,2.54,88.94-25.83,93.24-46.7l0,0C2047.12,1126.8,2020.25,1146.14,1991.31,1154.99z M1949.99,1116.57
					c1.97,12.42,8.55,21.55,14.14,23.2c2.62,0.77,5.03-0.11,7.17-2.6c3.64-4.24,6.78-9.48,9.03-14.58
					c-0.65-1.32-1.17-2.87-1.56-4.62c-0.91-4.1-1.05-9.71,0.02-13.57c-6.03,1.41-12.08,3.31-17.68,5.81
					C1956.82,1112.13,1953.11,1114.25,1949.99,1116.57z M1984.48,1122.38c0.8,1.16,1.88,2.06,3.3,2.12
					c2.84,0.11,6.25-2.75,9.35-7.86c1.61-2.67,2.9-5.52,3.87-8.25c-0.62-2.22-0.95-4.81-1.05-7.2c-4.16,0.31-8.69,0.85-13.35,1.64
					C1989.02,1107.3,1987.61,1114.85,1984.48,1122.38z M2004.9,1108.44c0.58,1.67,1.11,1.99,1.11,1.99c2.09-1.7,4.49-5.38,6.67-9.58
					c-1.78-0.06-3.79-0.07-5.97-0.02C2006.41,1103.2,2005.78,1105.82,2004.9,1108.44z M1982.9,1103.89
					c-0.95,1.88-1.64,7.89-0.48,13.24C1984.3,1111.27,1984.68,1106.19,1982.9,1103.89z M2019.81,1101.63c0.01,0.01,0.01,0,0.02,0.01
					C2019.83,1101.64,2019.82,1101.64,2019.81,1101.63z M2019.26,1083.46c-0.33,0.91-0.65,2.2-0.89,3.71
					C2018.81,1085.71,2019.12,1084.44,2019.26,1083.46z"/>
			</g>
		</g>
		<g>
			<path style="fill:#FFFFFF;" d="M1520.83,622.66l-21.74-48.19h11.48l16.47,38.62h-3.35l16.47-38.62h11.07l-21.67,48.19H1520.83z"
				/>
			<path style="fill:#FFFFFF;" d="M1545.3,622.66l22.15-48.19h8.82l22.28,48.19h-10.73l-5.81-13.4l4.17,2.94h-28.64l4.24-2.94
				l-5.81,13.4H1545.3z M1571.76,585.61l-8.82,21.05l-1.91-2.73h21.53l-1.5,2.73l-9.02-21.05H1571.76z"/>
			<path style="fill:#FFFFFF;" d="M1608.53,622.66v-39.51h-15.24v-8.68h41.29v8.68h-15.31v39.51H1608.53z"/>
		</g>
	</g>
	<g>
		<path style="fill:#848583;" d="M1389.3,1319.4l-283.07-1.76c-12.62-0.08-22.78-10.37-22.71-22.99l1.85-297.52
			c0.08-12.62,10.37-22.78,22.99-22.71l283.07,1.76c12.62,0.08,22.78,10.37,22.71,22.99l-1.85,297.52
			C1412.21,1309.31,1401.91,1319.48,1389.3,1319.4z"/>
		<path style="fill:#CBCAC5;" d="M1385.01,1054.08l-271.2-1.69c-5.55-0.03-10.02-4.56-9.98-10.11l0.21-34.43
			c0.03-5.55,4.56-10.02,10.11-9.99l271.2,1.69c5.55,0.03,10.02,4.56,9.98,10.11l-0.21,34.44
			C1395.08,1049.65,1390.56,1054.12,1385.01,1054.08z"/>
		<g>
			<g>
				<path style="fill:#656563;" d="M1204.54,1186.68l-23.22-0.14c-5.8-0.04-10.48-4.77-10.44-10.57l0.14-23.22
					c0.04-5.8,4.77-10.48,10.57-10.44l23.22,0.14c5.8,0.04,10.48,4.77,10.44,10.57l-0.14,23.22
					C1215.08,1182.04,1210.34,1186.72,1204.54,1186.68z"/>
				<path style="fill:#656563;" d="M1204.2,1240.95l-23.22-0.14c-5.8-0.04-10.48-4.77-10.44-10.57l0.14-23.22
					c0.04-5.8,4.77-10.48,10.57-10.44l23.22,0.15c5.8,0.04,10.48,4.77,10.44,10.57l-0.14,23.22
					C1214.74,1236.32,1210.01,1240.99,1204.2,1240.95z"/>
				<path style="fill:#656563;" d="M1203.87,1295.23l-23.22-0.14c-5.8-0.04-10.48-4.77-10.44-10.57l0.14-23.22
					c0.04-5.8,4.77-10.48,10.57-10.44l23.22,0.14c5.8,0.04,10.48,4.77,10.44,10.57l-0.14,23.22
					C1214.4,1290.59,1209.67,1295.26,1203.87,1295.23z"/>
				<path style="fill:#656563;" d="M1262.99,1187.04l-23.22-0.14c-5.8-0.04-10.48-4.77-10.44-10.57l0.14-23.22
					c0.04-5.8,4.77-10.48,10.57-10.44l23.22,0.14c5.8,0.04,10.48,4.77,10.44,10.57l-0.14,23.22
					C1273.52,1182.41,1268.79,1187.08,1262.99,1187.04z"/>
				<path style="fill:#656563;" d="M1262.65,1241.32l-23.22-0.14c-5.8-0.04-10.48-4.77-10.44-10.57l0.14-23.22
					c0.04-5.8,4.77-10.48,10.57-10.44l23.22,0.14c5.8,0.04,10.48,4.77,10.44,10.57l-0.14,23.22
					C1273.19,1236.68,1268.45,1241.35,1262.65,1241.32z"/>
				<path style="fill:#656563;" d="M1262.32,1295.59l-23.22-0.14c-5.8-0.04-10.48-4.77-10.44-10.57l0.14-23.22
					c0.04-5.8,4.77-10.48,10.57-10.44l23.22,0.14c5.8,0.04,10.48,4.77,10.44,10.57l-0.14,23.22
					C1272.85,1290.95,1268.12,1295.63,1262.32,1295.59z"/>
				<path style="fill:#656563;" d="M1319.01,1241.67l-23.22-0.14c-5.8-0.04-10.48-4.77-10.44-10.57l0.14-23.22
					c0.04-5.8,4.77-10.48,10.57-10.44l23.22,0.14c5.8,0.04,10.48,4.77,10.44,10.57l-0.14,23.22
					C1329.55,1237.03,1324.81,1241.7,1319.01,1241.67z"/>
				<path style="fill:#656563;" d="M1318.68,1295.94l-23.22-0.14c-5.8-0.04-10.48-4.77-10.44-10.57l0.14-23.22
					c0.04-5.8,4.77-10.48,10.57-10.44l23.22,0.14c5.8,0.04,10.48,4.77,10.44,10.57l-0.14,23.22
					C1329.21,1291.3,1324.48,1295.98,1318.68,1295.94z"/>
			</g>
			<g>
				<path style="fill:#CEB173;" d="M1149.1,1122.61l-23.22-0.14c-5.8-0.04-10.48-4.77-10.44-10.57l0.09-13.77
					c0.04-5.8,4.77-10.48,10.57-10.44l23.22,0.14c5.8,0.04,10.48,4.77,10.44,10.57l-0.09,13.77
					C1159.63,1117.98,1154.9,1122.65,1149.1,1122.61z"/>
				<path style="fill:#CEB173;" d="M1148.75,1179.52l-23.22-0.15c-5.8-0.04-10.48-4.77-10.44-10.57l0.09-13.77
					c0.04-5.8,4.77-10.48,10.57-10.44l23.22,0.14c5.8,0.04,10.48,4.77,10.44,10.57l-0.09,13.77
					C1159.28,1174.88,1154.55,1179.56,1148.75,1179.52z"/>
				<path style="fill:#CEB173;" d="M1148.39,1236.43l-23.22-0.14c-5.8-0.04-10.48-4.77-10.44-10.57l0.09-13.77
					c0.04-5.8,4.77-10.48,10.57-10.44l23.22,0.14c5.8,0.04,10.48,4.77,10.44,10.57l-0.09,13.77
					C1158.93,1231.79,1154.19,1236.46,1148.39,1236.43z"/>
				<path style="fill:#CEB173;" d="M1148.04,1293.33l-23.22-0.14c-5.8-0.04-10.48-4.77-10.44-10.57l0.09-13.77
					c0.04-5.8,4.77-10.48,10.57-10.44l23.22,0.14c5.8,0.04,10.48,4.77,10.44,10.57l-0.09,13.77
					C1158.57,1288.69,1153.84,1293.37,1148.04,1293.33z"/>
				<path style="fill:#CEB173;" d="M1204.88,1132.41l-23.22-0.14c-5.8-0.04-10.48-4.77-10.44-10.57l0.14-23.22
					c0.04-5.8,4.77-10.48,10.57-10.44l23.22,0.14c5.8,0.04,10.48,4.77,10.44,10.57l-0.14,23.22
					C1215.41,1127.77,1210.68,1132.44,1204.88,1132.41z"/>
				<path style="fill:#CEB173;" d="M1263.33,1132.77l-23.22-0.14c-5.8-0.04-10.48-4.77-10.44-10.57l0.14-23.22
					c0.04-5.8,4.77-10.48,10.57-10.44l23.22,0.14c5.8,0.04,10.48,4.77,10.44,10.57l-0.14,23.22
					C1273.86,1128.13,1269.13,1132.81,1263.33,1132.77z"/>
				<path style="fill:#CEB173;" d="M1319.69,1133.12l-23.22-0.14c-5.8-0.04-10.48-4.77-10.44-10.57l0.14-23.22
					c0.04-5.8,4.77-10.48,10.57-10.44l23.22,0.14c5.8,0.04,10.48,4.77,10.44,10.57l-0.14,23.22
					C1330.22,1128.48,1325.49,1133.16,1319.69,1133.12z"/>
				<path style="fill:#CEB173;" d="M1372.32,1187.99l-23.22-0.14c-5.8-0.04-10.48-4.77-10.44-10.57l0.14-23.22
					c0.04-5.8,4.77-10.48,10.57-10.44l23.22,0.14c5.8,0.04,10.48,4.77,10.44,10.57l-0.14,23.22
					C1382.85,1183.35,1378.12,1188.02,1372.32,1187.99z"/>
				<path style="fill:#CEB173;" d="M1372.65,1133.71l-23.22-0.14c-5.8-0.04-10.48-4.77-10.44-10.57l0.14-23.22
					c0.04-5.8,4.77-10.48,10.57-10.44l23.22,0.14c5.8,0.04,10.48,4.77,10.44,10.57l-0.14,23.22
					C1383.19,1129.07,1378.46,1133.75,1372.65,1133.71z"/>
				<path style="fill:#CEB173;" d="M1371.64,1296.53l-23.22-0.14c-5.8-0.04-10.48-4.77-10.44-10.57l0.48-77.49
					c0.04-5.8,4.77-10.48,10.57-10.44l23.22,0.15c5.8,0.04,10.48,4.77,10.44,10.57l-0.48,77.49
					C1382.18,1291.89,1377.44,1296.57,1371.64,1296.53z"/>
			</g>
		</g>
		<g>
			<path style="fill:#656563;" d="M1198.96,1025.22l0.05-7.44l1.08-2.83c0.94,0.24,1.53,0.84,1.76,1.78l-0.06,9.92l-0.71,0.7
				L1198.96,1025.22z M1201.07,1028.07l0.7,0.71l-0.06,9.92c-0.24,0.94-0.84,1.53-1.78,1.76l-1.04-2.84l0.05-7.44L1201.07,1028.07z"
				/>
			<path style="fill:#656563;" d="M1211.4,1018.57l-0.04,6.73l-2.14,2.11l-0.7-0.71l0.06-9.21L1211.4,1018.57z M1208.44,1038.03
				l0.06-9.21l0.71-0.7l2.11,2.14l-0.04,6.73L1208.44,1038.03z M1220.82,1040.59l-10.63-0.07c-0.94-0.24-1.53-0.84-1.76-1.78
				l2.84-1.04l8.5,0.05L1220.82,1040.59z M1219.9,1017.91l-8.47-0.05l-2.83-1.08c0.24-0.94,0.84-1.53,1.78-1.76l10.59,0.07
				L1219.9,1017.91z M1220.56,1025.36l0.05-7.44l1.08-2.83c0.94,0.24,1.53,0.84,1.76,1.78l-0.06,9.92l-0.71,0.7L1220.56,1025.36z
				 M1222.67,1028.2l0.7,0.71l-0.06,9.92c-0.24,0.94-0.84,1.53-1.78,1.76l-1.04-2.84l0.05-7.44L1222.67,1028.2z"/>
			<path style="fill:#656563;" d="M1233,1018.7l-0.04,6.73l-2.14,2.11l-0.7-0.71l0.06-9.21L1233,1018.7z M1230.05,1038.16l0.06-9.21
				l0.71-0.7l2.11,2.14l-0.04,6.73L1230.05,1038.16z M1242.43,1040.72l-10.63-0.07c-0.94-0.24-1.53-0.84-1.76-1.78l2.84-1.04
				l8.5,0.05L1242.43,1040.72z M1241.51,1018.05l-8.47-0.05l-2.83-1.08c0.24-0.94,0.84-1.53,1.78-1.76l10.59,0.07L1241.51,1018.05z
				 M1242.17,1025.49l0.05-7.44l1.08-2.83c0.94,0.24,1.53,0.84,1.76,1.78l-0.06,9.92l-0.71,0.7L1242.17,1025.49z M1244.28,1028.34
				l0.7,0.71l-0.06,9.92c-0.24,0.94-0.84,1.53-1.78,1.76l-1.04-2.84l0.05-7.44L1244.28,1028.34z"/>
			<path style="fill:#656563;" d="M1254.61,1018.84l-0.04,6.73l-2.14,2.11l-0.7-0.71l0.06-9.21L1254.61,1018.84z M1251.65,1038.3
				l0.06-9.21l0.71-0.7l2.11,2.14l-0.04,6.73L1251.65,1038.3z M1264.03,1040.86l-10.63-0.07c-0.94-0.24-1.53-0.84-1.76-1.78
				l2.84-1.04l8.5,0.05L1264.03,1040.86z M1263.11,1018.18l-8.47-0.05l-2.83-1.08c0.24-0.94,0.84-1.53,1.78-1.76l10.59,0.07
				L1263.11,1018.18z M1263.78,1025.62l0.05-7.44l1.08-2.83c0.94,0.24,1.53,0.84,1.76,1.78l-0.06,9.92l-0.71,0.7L1263.78,1025.62z
				 M1265.88,1028.47l0.7,0.71l-0.06,9.92c-0.24,0.94-0.84,1.53-1.78,1.76l-1.04-2.84l0.05-7.44L1265.88,1028.47z"/>
			<path style="fill:#656563;" d="M1276.21,1018.97l-0.04,6.73l-2.14,2.11l-0.7-0.71l0.06-9.21L1276.21,1018.97z M1273.26,1038.43
				l0.06-9.21l0.71-0.7l2.11,2.14l-0.04,6.73L1273.26,1038.43z M1285.64,1040.99l-10.63-0.07c-0.94-0.24-1.53-0.84-1.76-1.78
				l2.84-1.04l8.5,0.05L1285.64,1040.99z M1284.72,1018.32l-8.47-0.05l-2.83-1.08c0.24-0.94,0.84-1.53,1.78-1.76l10.59,0.07
				L1284.72,1018.32z M1285.38,1025.76l0.05-7.44l1.08-2.83c0.94,0.24,1.53,0.84,1.76,1.78l-0.06,9.92l-0.71,0.7L1285.38,1025.76z
				 M1287.49,1028.6l0.7,0.71l-0.06,9.92c-0.24,0.94-0.84,1.53-1.78,1.76l-1.04-2.84l0.05-7.44L1287.49,1028.6z"/>
			<path style="fill:#656563;" d="M1297.82,1019.11l-0.04,6.73l-2.14,2.11l-0.7-0.71l0.06-9.21L1297.82,1019.11z M1294.86,1038.57
				l0.06-9.21l0.71-0.7l2.11,2.14l-0.04,6.73L1294.86,1038.57z M1307.25,1041.12l-10.63-0.07c-0.94-0.24-1.53-0.84-1.76-1.78
				l2.84-1.04l8.5,0.05L1307.25,1041.12z M1306.32,1018.45l-8.47-0.05l-2.83-1.08c0.24-0.94,0.84-1.53,1.78-1.76l10.59,0.07
				L1306.32,1018.45z M1306.99,1025.89l0.05-7.44l1.08-2.83c0.94,0.24,1.53,0.84,1.76,1.78l-0.06,9.92l-0.71,0.7L1306.99,1025.89z
				 M1309.09,1028.74l0.7,0.71l-0.06,9.92c-0.24,0.94-0.84,1.53-1.78,1.76l-1.04-2.84l0.05-7.44L1309.09,1028.74z"/>
			<path style="fill:#656563;" d="M1319.42,1019.24l-0.04,6.73l-2.14,2.11l-0.7-0.71l0.06-9.21L1319.42,1019.24z M1316.47,1038.7
				l0.06-9.21l0.71-0.7l2.11,2.14l-0.04,6.73L1316.47,1038.7z M1328.85,1041.26l-10.63-0.07c-0.94-0.24-1.53-0.84-1.76-1.78
				l2.84-1.04l8.5,0.05L1328.85,1041.26z M1327.93,1018.58l-8.47-0.05l-2.83-1.08c0.24-0.94,0.84-1.53,1.78-1.76l10.59,0.07
				L1327.93,1018.58z M1328.59,1026.03l0.05-7.44l1.08-2.83c0.94,0.24,1.53,0.84,1.76,1.78l-0.06,9.92l-0.71,0.7L1328.59,1026.03z
				 M1330.7,1028.87l0.7,0.71l-0.06,9.92c-0.24,0.94-0.84,1.53-1.78,1.76l-1.04-2.84l0.05-7.44L1330.7,1028.87z"/>
			<path style="fill:#656563;" d="M1341.03,1019.37l-0.04,6.73l-2.14,2.11l-0.7-0.71l0.06-9.21L1341.03,1019.37z M1338.07,1038.84
				l0.06-9.21l0.71-0.7l2.11,2.14l-0.04,6.73L1338.07,1038.84z M1350.46,1041.39l-10.63-0.07c-0.94-0.24-1.53-0.84-1.76-1.78
				l2.84-1.04l8.5,0.05L1350.46,1041.39z M1349.54,1018.72l-8.47-0.05l-2.83-1.08c0.24-0.94,0.84-1.53,1.78-1.76l10.59,0.07
				L1349.54,1018.72z M1350.2,1026.16l0.05-7.44l1.08-2.83c0.94,0.24,1.53,0.84,1.76,1.78l-0.06,9.92l-0.71,0.7L1350.2,1026.16z
				 M1352.3,1029.01l0.7,0.71l-0.06,9.92c-0.24,0.94-0.84,1.53-1.78,1.76l-1.04-2.84l0.05-7.44L1352.3,1029.01z"/>
			<path style="fill:#656563;" d="M1362.64,1019.51l-0.04,6.73l-2.14,2.11l-0.7-0.71l0.06-9.21L1362.64,1019.51z M1359.68,1038.97
				l0.06-9.21l0.71-0.7l2.11,2.14l-0.04,6.73L1359.68,1038.97z M1372.06,1041.53l-10.63-0.07c-0.94-0.24-1.53-0.84-1.76-1.78
				l2.84-1.04l8.5,0.05L1372.06,1041.53z M1371.14,1018.85l-8.47-0.05l-2.83-1.08c0.24-0.94,0.84-1.53,1.78-1.76l10.59,0.07
				L1371.14,1018.85z M1371.8,1026.3l0.05-7.44l1.08-2.83c0.94,0.24,1.53,0.84,1.76,1.78l-0.06,9.92l-0.71,0.7L1371.8,1026.3z
				 M1373.91,1029.14l0.7,0.71l-0.06,9.92c-0.24,0.94-0.84,1.53-1.78,1.76l-1.04-2.84l0.05-7.44L1373.91,1029.14z"/>
		</g>
	</g>
	<g>
		<g>
			<g>
				<g>
					<path style="fill:#FFB93E;" d="M1670.22,1302.27v11.52c0,0.91-0.33,1.77-0.91,2.48c-0.6,0.74-1.47,1.33-2.48,1.66
						c-0.31,0.11-0.63,0.18-0.97,0.23c-0.31,0.05-0.61,0.07-0.93,0.07h-218.48c-2.64,0-4.85-1.64-5.23-3.77
						c-0.02-0.14-0.04-0.29-0.05-0.44c0-0.07-0.01-0.15-0.01-0.22v-11.52c0-0.08,0.01-0.15,0.01-0.23c0.01-0.15,0.03-0.29,0.05-0.44
						c0.39-2.13,2.59-3.77,5.23-3.77h218.48c0.32,0,0.63,0.02,0.93,0.07c0.33,0.05,0.66,0.13,0.97,0.23
						c1.01,0.33,1.88,0.91,2.48,1.66C1669.88,1300.5,1670.22,1301.36,1670.22,1302.27z"/>
					<path style="fill:#FFA412;" d="M1562.93,1318.23h-117.05c-2.17,0-4-1.4-4.54-3.29c-0.05-0.16-0.1-0.32-0.13-0.49
						c-0.02-0.14-0.04-0.29-0.05-0.44c0-0.07-0.01-0.15-0.01-0.22v-11.52c0-0.08,0.01-0.15,0.01-0.23c0.01-0.15,0.03-0.29,0.05-0.44
						c0.03-0.17,0.08-0.33,0.13-0.49c0.54-1.88,2.37-3.29,4.54-3.29h102.68C1550.2,1303.84,1554.02,1312.14,1562.93,1318.23z"/>
					<g>
						<rect x="1641.15" y="1297.83" style="fill:#FFA412;" width="2.48" height="20.4"/>
						<rect x="1632.74" y="1297.83" style="fill:#FFA412;" width="2.48" height="20.4"/>
						<rect x="1622.66" y="1297.83" style="fill:#FFA412;" width="2.48" height="20.4"/>
						<rect x="1607.21" y="1297.83" style="fill:#FFA412;" width="2.48" height="20.4"/>
						<rect x="1590.88" y="1297.83" style="fill:#FFA412;" width="2.48" height="20.4"/>
						<rect x="1565.83" y="1297.83" style="fill:#FFA412;" width="2.48" height="20.4"/>
						<rect x="1542.38" y="1297.83" style="fill:#FFA412;" width="2.48" height="20.4"/>
						<rect x="1521.44" y="1297.83" style="fill:#FFA412;" width="2.48" height="20.4"/>
						<rect x="1649.15" y="1297.83" style="fill:#FFA412;" width="2.48" height="20.4"/>
						<rect x="1654.43" y="1297.83" style="fill:#FFA412;" width="2.48" height="20.4"/>
						<rect x="1659.54" y="1297.83" style="fill:#FFA412;" width="2.48" height="20.4"/>
						<path style="fill:#FFA412;" d="M1665.86,1297.9v20.25c-0.3,0.05-0.61,0.07-0.93,0.07h-1.55v-20.4h1.55
							C1665.25,1297.83,1665.56,1297.86,1665.86,1297.9z"/>
						<path style="fill:#FFA412;" d="M1669.31,1299.79v16.48c-0.6,0.75-1.47,1.33-2.48,1.66v-19.8
							C1667.84,1298.46,1668.71,1299.05,1669.31,1299.79z"/>
					</g>
				</g>
				<g>
					<path style="fill:#FFB93E;" d="M1646.86,1281.88v11.51c0,0.92-0.33,1.77-0.9,2.48c-0.15,0.18-0.32,0.36-0.5,0.53
						c-0.55,0.49-1.22,0.89-1.99,1.13c-0.31,0.1-0.63,0.18-0.97,0.23c-0.3,0.05-0.61,0.08-0.93,0.08h-218.48
						c-2.63,0-4.84-1.65-5.23-3.78c-0.02-0.14-0.04-0.29-0.05-0.43c-0.01-0.08-0.01-0.15-0.01-0.23v-11.51c0-0.08,0-0.16,0.01-0.23
						c0.01-0.14,0.03-0.29,0.05-0.43c0.39-2.13,2.59-3.78,5.23-3.78h218.48c0.14,0,0.28,0.01,0.42,0.02c0.05,0,0.1,0.01,0.15,0.01
						c0.01-0.01,0.02-0.01,0.03,0c0.06,0,0.13,0.01,0.2,0.02c0.05,0.01,0.09,0.01,0.14,0.02c0.33,0.05,0.66,0.12,0.97,0.23
						c0.18,0.06,0.36,0.13,0.53,0.2h0.01c0.12,0.05,0.23,0.11,0.34,0.16c0.06,0.03,0.13,0.08,0.19,0.11
						c0.06,0.03,0.12,0.07,0.18,0.11c0.23,0.14,0.44,0.29,0.64,0.47c0.07,0.05,0.12,0.12,0.18,0.17c0.04,0.03,0.07,0.07,0.11,0.1
						c0.02,0.02,0.04,0.04,0.06,0.06l0.05,0.05c0.07,0.07,0.14,0.14,0.2,0.23C1646.52,1280.11,1646.86,1280.96,1646.86,1281.88z"/>
					<path style="fill:#FFA412;" d="M1539.57,1297.83h-117.05c-2.17,0-3.99-1.41-4.53-3.29c-0.05-0.16-0.1-0.32-0.13-0.49
						c-0.02-0.14-0.04-0.29-0.05-0.43c-0.01-0.08-0.01-0.15-0.01-0.23v-11.51c0-0.08,0-0.16,0.01-0.23
						c0.01-0.14,0.03-0.29,0.05-0.43c0.03-0.17,0.08-0.33,0.13-0.49c0.54-1.89,2.37-3.29,4.53-3.29h102.68
						c0.04,0.17,0.09,0.33,0.14,0.51C1527.05,1283.9,1530.9,1291.92,1539.57,1297.83z"/>
					<g>
						<rect x="1617.79" y="1277.44" style="fill:#FFA412;" width="2.48" height="20.4"/>
						<rect x="1609.38" y="1277.44" style="fill:#FFA412;" width="2.48" height="20.4"/>
						<rect x="1599.3" y="1277.44" style="fill:#FFA412;" width="2.48" height="20.4"/>
						<rect x="1583.85" y="1277.44" style="fill:#FFA412;" width="2.48" height="20.4"/>
						<rect x="1567.52" y="1277.44" style="fill:#FFA412;" width="2.48" height="20.4"/>
						<rect x="1542.47" y="1277.44" style="fill:#FFA412;" width="2.48" height="20.4"/>
						<rect x="1519.02" y="1277.44" style="fill:#FFA412;" width="2.48" height="20.4"/>
						<rect x="1498.08" y="1277.44" style="fill:#FFA412;" width="2.48" height="20.4"/>
						<rect x="1625.79" y="1277.44" style="fill:#FFA412;" width="2.48" height="20.4"/>
						<rect x="1631.07" y="1277.44" style="fill:#FFA412;" width="2.48" height="20.4"/>
						<rect x="1636.18" y="1277.44" style="fill:#FFA412;" width="2.48" height="20.4"/>
						<path style="fill:#FFA412;" d="M1642.5,1277.51v20.25c-0.3,0.05-0.61,0.07-0.93,0.07h-1.55v-20.4h1.55
							C1641.89,1277.44,1642.2,1277.46,1642.5,1277.51z"/>
						<path style="fill:#FFA412;" d="M1645.95,1279.4v16.47c-0.6,0.75-1.47,1.33-2.48,1.66v-19.8
							C1644.48,1278.06,1645.35,1278.65,1645.95,1279.4z"/>
					</g>
				</g>
				<g>
					<path style="fill:#FFB93E;" d="M1658.14,1261.98v11.52c0,0.91-0.33,1.77-0.91,2.48c-0.6,0.74-1.46,1.33-2.48,1.66
						c-0.31,0.1-0.63,0.18-0.97,0.23c-0.3,0.04-0.61,0.07-0.93,0.07h-218.49c-0.87,0-1.71-0.18-2.44-0.51
						c-1.45-0.63-2.51-1.82-2.78-3.22c-0.02-0.1-0.03-0.19-0.04-0.29c-0.01-0.06-0.01-0.13-0.01-0.2c-0.01-0.07-0.01-0.15-0.01-0.22
						v-11.52c0-0.08,0-0.15,0.01-0.23c0.01-0.14,0.02-0.29,0.05-0.43c0.39-2.14,2.59-3.78,5.23-3.78h218.49
						c0.31,0,0.63,0.02,0.93,0.07c0.33,0.05,0.66,0.12,0.97,0.22c1.02,0.33,1.88,0.92,2.48,1.67
						C1657.81,1260.21,1658.14,1261.07,1658.14,1261.98z"/>
					<path style="fill:#FFA412;" d="M1550.86,1277.94h-117.05c-0.79,0-1.52-0.18-2.17-0.51c-1.3-0.63-2.25-1.82-2.48-3.22
						c-0.02-0.1-0.03-0.19-0.04-0.29c-0.01-0.06-0.01-0.13-0.01-0.2c-0.01-0.07-0.01-0.15-0.01-0.22v-11.52c0-0.08,0-0.15,0.01-0.23
						c0.01-0.14,0.02-0.29,0.05-0.43c0.03-0.16,0.07-0.32,0.12-0.48c0.53-1.9,2.36-3.31,4.54-3.31h102.68
						c1.6,5.84,5.26,13.86,13.66,19.89C1550.38,1277.6,1550.61,1277.78,1550.86,1277.94z"/>
					<g>
						<rect x="1629.08" y="1257.54" style="fill:#FFA412;" width="2.48" height="20.4"/>
						<rect x="1620.67" y="1257.54" style="fill:#FFA412;" width="2.48" height="20.4"/>
						<rect x="1610.59" y="1257.54" style="fill:#FFA412;" width="2.48" height="20.4"/>
						<rect x="1595.14" y="1257.54" style="fill:#FFA412;" width="2.48" height="20.4"/>
						<rect x="1578.8" y="1257.54" style="fill:#FFA412;" width="2.48" height="20.4"/>
						<rect x="1553.76" y="1257.54" style="fill:#FFA412;" width="2.48" height="20.4"/>
						<rect x="1530.31" y="1257.54" style="fill:#FFA412;" width="2.48" height="20.4"/>
						<rect x="1509.37" y="1257.54" style="fill:#FFA412;" width="2.48" height="20.4"/>
						<rect x="1637.08" y="1257.54" style="fill:#FFA412;" width="2.48" height="20.4"/>
						<rect x="1642.36" y="1257.54" style="fill:#FFA412;" width="2.48" height="20.4"/>
						<rect x="1647.47" y="1257.54" style="fill:#FFA412;" width="2.48" height="20.4"/>
						<path style="fill:#FFA412;" d="M1653.79,1257.61v20.25c-0.3,0.05-0.61,0.07-0.93,0.07h-1.55v-20.4h1.55
							C1653.18,1257.54,1653.49,1257.57,1653.79,1257.61z"/>
						<path style="fill:#FFA412;" d="M1657.24,1259.5v16.48c-0.6,0.75-1.47,1.33-2.48,1.66v-19.8
							C1655.77,1258.17,1656.64,1258.76,1657.24,1259.5z"/>
					</g>
				</g>
				<g>
					<path style="fill:#FFB93E;" d="M1663.38,1241.59v11.51c0,0.92-0.33,1.77-0.91,2.48c-0.07,0.1-0.16,0.18-0.24,0.27
						c-0.42,0.44-0.93,0.82-1.51,1.1c-0.23,0.11-0.48,0.21-0.73,0.29c-0.31,0.1-0.63,0.18-0.97,0.23c-0.15,0.02-0.3,0.04-0.46,0.05
						c-0.16,0.01-0.32,0.02-0.48,0.02h-218.48c-2.64,0-4.85-1.65-5.24-3.78c-0.02-0.14-0.04-0.29-0.05-0.43v-11.98
						c0.14-2.16,2.13-3.92,4.65-4.18c0.2-0.02,0.42-0.03,0.63-0.03h218.48c0.16,0,0.32,0.01,0.48,0.02
						c0.16,0.01,0.31,0.03,0.46,0.05c0.33,0.05,0.66,0.12,0.97,0.23c1.01,0.33,1.88,0.91,2.48,1.66
						C1663.04,1239.81,1663.38,1240.67,1663.38,1241.59z"/>
					<path style="fill:#FFA412;" d="M1556.1,1257.55h-117.05c-2.17,0-4-1.41-4.54-3.29c-0.05-0.16-0.1-0.32-0.13-0.49
						c-0.02-0.14-0.04-0.29-0.05-0.43v-11.98c0.12-2.16,1.9-3.92,4.16-4.18c0.18-0.02,0.37-0.03,0.56-0.03h102.68
						c0,0.01,0.01,0.02,0.01,0.03C1543.37,1243.18,1547.2,1251.46,1556.1,1257.55z"/>
					<g>
						<rect x="1634.31" y="1237.15" style="fill:#FFA412;" width="2.48" height="20.4"/>
						<rect x="1625.9" y="1237.15" style="fill:#FFA412;" width="2.48" height="20.4"/>
						<rect x="1615.83" y="1237.15" style="fill:#FFA412;" width="2.48" height="20.4"/>
						<rect x="1600.38" y="1237.15" style="fill:#FFA412;" width="2.48" height="20.4"/>
						<rect x="1584.04" y="1237.15" style="fill:#FFA412;" width="2.48" height="20.4"/>
						<rect x="1558.99" y="1237.15" style="fill:#FFA412;" width="2.48" height="20.4"/>
						<rect x="1535.54" y="1237.15" style="fill:#FFA412;" width="2.48" height="20.4"/>
						<rect x="1514.6" y="1237.15" style="fill:#FFA412;" width="2.48" height="20.4"/>
						<rect x="1642.31" y="1237.15" style="fill:#FFA412;" width="2.48" height="20.4"/>
						<rect x="1647.6" y="1237.15" style="fill:#FFA412;" width="2.48" height="20.4"/>
						<rect x="1652.7" y="1237.15" style="fill:#FFA412;" width="2.48" height="20.4"/>
						<path style="fill:#FFA412;" d="M1659.03,1237.22v20.25c-0.3,0.05-0.61,0.07-0.93,0.07h-1.55v-20.4h1.55
							C1658.41,1237.14,1658.72,1237.17,1659.03,1237.22z"/>
						<path style="fill:#FFA412;" d="M1662.47,1239.11v16.48c-0.6,0.75-1.47,1.33-2.48,1.66v-19.8
							C1661.01,1237.77,1661.87,1238.36,1662.47,1239.11z"/>
					</g>
				</g>
				<g>
					<path style="fill:#FFB93E;" d="M1647.31,1221.22v11.51c0,0.92-0.33,1.77-0.9,2.48c-0.6,0.75-1.47,1.34-2.48,1.67
						c-0.31,0.1-0.63,0.18-0.96,0.23c-0.1,0.02-0.2,0.03-0.31,0.04h-0.04c-0.06,0.01-0.11,0.01-0.16,0.01
						c-0.05,0.01-0.09,0.01-0.14,0.01c-0.1,0-0.18,0.01-0.28,0.01h-218.48c-2.82,0-5.14-1.88-5.28-4.21
						c-0.01-0.08-0.01-0.15-0.01-0.23v-11.51c0-0.08,0-0.16,0.01-0.23c0-0.06,0.01-0.12,0.01-0.18c0.21-1.88,1.84-3.43,3.97-3.88
						c0.05-0.01,0.1-0.03,0.16-0.03c0.37-0.07,0.75-0.11,1.15-0.11h218.48c0.16,0,0.31,0.01,0.47,0.02c0.07,0.01,0.14,0.01,0.2,0.02
						c0.01,0,0.01,0,0.01,0h0.01c0.08,0.01,0.16,0.02,0.25,0.03c0.33,0.05,0.65,0.12,0.96,0.23c1.02,0.33,1.88,0.91,2.48,1.66
						C1646.99,1219.45,1647.31,1220.3,1647.31,1221.22z"/>
					<path style="fill:#FFA412;" d="M1540.03,1237.18h-117.04c-2.52,0-4.59-1.88-4.72-4.21c-0.01-0.08-0.01-0.15-0.01-0.23v-11.51
						c0-0.08,0-0.16,0.01-0.23c0-0.06,0.01-0.12,0.01-0.18c0.19-1.93,1.7-3.49,3.66-3.91c0.06-0.02,0.13-0.03,0.2-0.04
						c0.27-0.05,0.55-0.08,0.84-0.08h102.67c0.01,0.06,0.03,0.1,0.04,0.15c1.66,5.98,5.48,14.18,14.28,20.22
						C1539.99,1237.16,1540.02,1237.17,1540.03,1237.18z"/>
					<g>
						<rect x="1618.25" y="1216.78" style="fill:#FFA412;" width="2.48" height="20.4"/>
						<rect x="1609.84" y="1216.78" style="fill:#FFA412;" width="2.48" height="20.4"/>
						<rect x="1599.76" y="1216.78" style="fill:#FFA412;" width="2.48" height="20.4"/>
						<rect x="1584.31" y="1216.78" style="fill:#FFA412;" width="2.48" height="20.4"/>
						<rect x="1567.97" y="1216.78" style="fill:#FFA412;" width="2.48" height="20.4"/>
						<rect x="1542.93" y="1216.78" style="fill:#FFA412;" width="2.48" height="20.4"/>
						<rect x="1519.48" y="1216.78" style="fill:#FFA412;" width="2.48" height="20.4"/>
						<rect x="1498.54" y="1216.78" style="fill:#FFA412;" width="2.48" height="20.4"/>
						<rect x="1626.25" y="1216.78" style="fill:#FFA412;" width="2.48" height="20.4"/>
						<rect x="1631.53" y="1216.78" style="fill:#FFA412;" width="2.48" height="20.4"/>
						<rect x="1636.64" y="1216.78" style="fill:#FFA412;" width="2.48" height="20.4"/>
						<path style="fill:#FFA412;" d="M1642.96,1216.85v20.25c-0.3,0.05-0.61,0.07-0.93,0.07h-1.55v-20.4h1.55
							C1642.35,1216.78,1642.66,1216.81,1642.96,1216.85z"/>
						<path style="fill:#FFA412;" d="M1646.41,1218.74v16.48c-0.6,0.75-1.47,1.33-2.48,1.66v-19.8
							C1644.94,1217.41,1645.81,1218,1646.41,1218.74z"/>
					</g>
				</g>
				<g>
					<path style="fill:#FFB93E;" d="M1646.86,1200.97v11.51c0,0.92-0.33,1.77-0.9,2.48c-0.15,0.18-0.32,0.36-0.5,0.53
						c-0.55,0.49-1.22,0.89-1.99,1.13c-0.25,0.08-0.5,0.14-0.75,0.19h-0.01c-0.01,0-0.01,0-0.01,0c-0.07,0.01-0.13,0.03-0.2,0.03
						c-0.3,0.05-0.61,0.08-0.93,0.08h-218.48c-0.23,0-0.46-0.01-0.68-0.04c-0.09-0.01-0.18-0.02-0.26-0.03
						c-2.22-0.34-3.98-1.86-4.29-3.75c-0.02-0.13-0.03-0.25-0.04-0.38c-0.01-0.08-0.01-0.16-0.01-0.23v-11.51
						c0-0.08,0-0.16,0.01-0.23c0.01-0.14,0.03-0.29,0.05-0.43c0.39-2.13,2.59-3.78,5.23-3.78h218.48c0.14,0,0.28,0.01,0.42,0.01
						c0.02,0,0.04,0.01,0.05,0.01c0.04,0.01,0.08,0.01,0.12,0.01c0.06,0.01,0.13,0.01,0.2,0.03c0.05,0,0.09,0.01,0.14,0.02
						c0.33,0.05,0.66,0.12,0.97,0.23c0.18,0.06,0.36,0.13,0.53,0.21h0.01c0.68,0.3,1.28,0.72,1.75,1.23
						c0.07,0.07,0.14,0.15,0.2,0.22C1646.52,1199.2,1646.86,1200.05,1646.86,1200.97z"/>
					<path style="fill:#FFA412;" d="M1539.57,1216.93h-117.05c-0.09,0-0.18-0.01-0.27-0.01c-0.1-0.01-0.2-0.02-0.3-0.03
						c-2.12-0.25-3.81-1.82-4.09-3.79c-0.02-0.13-0.03-0.25-0.04-0.38c-0.01-0.08-0.01-0.16-0.01-0.23v-11.51
						c0-0.08,0-0.16,0.01-0.23c0.01-0.14,0.03-0.29,0.05-0.43c0.03-0.17,0.08-0.33,0.13-0.49c0.54-1.89,2.37-3.29,4.53-3.29h102.68
						c0.04,0.17,0.09,0.33,0.14,0.51c1.7,5.91,5.5,13.84,14.02,19.74C1539.43,1216.83,1539.5,1216.88,1539.57,1216.93z"/>
					<g>
						<rect x="1617.79" y="1196.53" style="fill:#FFA412;" width="2.48" height="20.4"/>
						<rect x="1609.38" y="1196.53" style="fill:#FFA412;" width="2.48" height="20.4"/>
						<rect x="1599.3" y="1196.53" style="fill:#FFA412;" width="2.48" height="20.4"/>
						<rect x="1583.85" y="1196.53" style="fill:#FFA412;" width="2.48" height="20.4"/>
						<rect x="1567.52" y="1196.53" style="fill:#FFA412;" width="2.48" height="20.4"/>
						<rect x="1542.47" y="1196.53" style="fill:#FFA412;" width="2.48" height="20.4"/>
						<rect x="1519.02" y="1196.53" style="fill:#FFA412;" width="2.48" height="20.4"/>
						<rect x="1498.08" y="1196.53" style="fill:#FFA412;" width="2.48" height="20.4"/>
						<rect x="1625.79" y="1196.53" style="fill:#FFA412;" width="2.48" height="20.4"/>
						<rect x="1631.07" y="1196.53" style="fill:#FFA412;" width="2.48" height="20.4"/>
						<rect x="1636.18" y="1196.53" style="fill:#FFA412;" width="2.48" height="20.4"/>
						<path style="fill:#FFA412;" d="M1642.5,1196.6v20.25c-0.3,0.05-0.61,0.07-0.93,0.07h-1.55v-20.4h1.55
							C1641.89,1196.53,1642.2,1196.55,1642.5,1196.6z"/>
						<path style="fill:#FFA412;" d="M1645.95,1198.49v16.48c-0.6,0.75-1.47,1.33-2.48,1.66v-19.8
							C1644.48,1197.16,1645.35,1197.74,1645.95,1198.49z"/>
					</g>
				</g>
				<g>
					<path style="fill:#FFB93E;" d="M1658.14,1181.08v11.51c0,0.92-0.33,1.77-0.91,2.48c-0.6,0.74-1.46,1.33-2.48,1.66
						c-0.31,0.1-0.63,0.18-0.97,0.22c-0.3,0.05-0.61,0.08-0.93,0.08h-218.49c-0.87,0-1.71-0.18-2.44-0.51
						c-1.45-0.63-2.51-1.82-2.78-3.22c-0.02-0.1-0.03-0.19-0.04-0.29c-0.01-0.07-0.01-0.13-0.01-0.2c-0.01-0.08-0.01-0.15-0.01-0.23
						v-11.51c0-0.08,0-0.16,0.01-0.23c0.01-0.14,0.02-0.29,0.05-0.43c0.39-2.13,2.59-3.78,5.23-3.78h218.49
						c0.31,0,0.63,0.03,0.93,0.08c0.33,0.05,0.66,0.12,0.97,0.23c1.02,0.33,1.88,0.91,2.48,1.66
						C1657.81,1179.31,1658.14,1180.16,1658.14,1181.08z"/>
					<path style="fill:#FFA412;" d="M1550.86,1197.03h-117.05c-0.79,0-1.52-0.18-2.17-0.51c-1.3-0.63-2.25-1.82-2.48-3.22
						c-0.02-0.1-0.03-0.19-0.04-0.29c-0.01-0.07-0.01-0.13-0.01-0.2c-0.01-0.08-0.01-0.15-0.01-0.23v-11.51c0-0.08,0-0.16,0.01-0.23
						c0.01-0.14,0.02-0.29,0.05-0.43c0.03-0.16,0.07-0.32,0.12-0.47c0.53-1.89,2.36-3.31,4.54-3.31h102.68
						c1.6,5.84,5.26,13.86,13.66,19.9C1550.38,1196.7,1550.61,1196.86,1550.86,1197.03z"/>
					<g>
						<rect x="1629.08" y="1176.64" style="fill:#FFA412;" width="2.48" height="20.4"/>
						<rect x="1620.67" y="1176.64" style="fill:#FFA412;" width="2.48" height="20.4"/>
						<rect x="1610.59" y="1176.64" style="fill:#FFA412;" width="2.48" height="20.4"/>
						<rect x="1595.14" y="1176.64" style="fill:#FFA412;" width="2.48" height="20.4"/>
						<rect x="1578.8" y="1176.64" style="fill:#FFA412;" width="2.48" height="20.4"/>
						<rect x="1553.76" y="1176.64" style="fill:#FFA412;" width="2.48" height="20.4"/>
						<rect x="1530.31" y="1176.64" style="fill:#FFA412;" width="2.48" height="20.4"/>
						<rect x="1509.37" y="1176.64" style="fill:#FFA412;" width="2.48" height="20.4"/>
						<rect x="1637.08" y="1176.64" style="fill:#FFA412;" width="2.48" height="20.4"/>
						<rect x="1642.36" y="1176.64" style="fill:#FFA412;" width="2.48" height="20.4"/>
						<rect x="1647.47" y="1176.64" style="fill:#FFA412;" width="2.48" height="20.4"/>
						<path style="fill:#FFA412;" d="M1653.79,1176.71v20.25c-0.3,0.05-0.61,0.07-0.93,0.07h-1.55v-20.4h1.55
							C1653.18,1176.64,1653.49,1176.66,1653.79,1176.71z"/>
						<path style="fill:#FFA412;" d="M1657.24,1178.6v16.48c-0.6,0.75-1.47,1.33-2.48,1.66v-19.8
							C1655.77,1177.27,1656.64,1177.85,1657.24,1178.6z"/>
					</g>
				</g>
				<g>
					<path style="fill:#FFB93E;" d="M1676,1160.68v11.52c0,0.91-0.33,1.76-0.9,2.47l-0.01,0.01c-0.08,0.1-0.16,0.18-0.24,0.27
						c-0.33,0.35-0.72,0.66-1.17,0.91c-0.22,0.12-0.45,0.24-0.7,0.33c-0.01,0-0.01,0.01-0.01,0.01c-0.12,0.05-0.24,0.1-0.37,0.14
						c-0.31,0.1-0.63,0.18-0.97,0.23c-0.3,0.05-0.61,0.07-0.93,0.07h-218.48c-2.63,0-4.84-1.64-5.23-3.77
						c-0.03-0.14-0.04-0.29-0.05-0.44c-0.01-0.08-0.01-0.15-0.01-0.23v-11.52c0-0.08,0-0.15,0.01-0.23
						c0.13-2.16,2.12-3.92,4.65-4.18c0.2-0.03,0.41-0.03,0.62-0.03h218.48c0.31,0,0.63,0.03,0.93,0.07
						c0.33,0.05,0.66,0.13,0.97,0.23c0.89,0.29,1.65,0.77,2.24,1.39c0.08,0.09,0.16,0.18,0.24,0.27l0.01,0.01
						C1675.66,1158.92,1676,1159.76,1676,1160.68z"/>
					<path style="fill:#FFA412;" d="M1568.71,1176.63h-117.05c-2.17,0-4.01-1.41-4.54-3.3c-0.05-0.16-0.09-0.31-0.12-0.47
						c-0.03-0.14-0.04-0.29-0.05-0.44c-0.01-0.08-0.01-0.15-0.01-0.23v-11.52c0-0.08,0-0.15,0.01-0.23c0.12-2.16,1.9-3.92,4.15-4.18
						c0.18-0.03,0.37-0.03,0.56-0.03h102.68c0,0.01,0.01,0.02,0.01,0.03C1555.99,1162.27,1559.81,1170.56,1568.71,1176.63z"/>
					<g>
						<rect x="1646.93" y="1156.24" style="fill:#FFA412;" width="2.48" height="20.4"/>
						<rect x="1638.53" y="1156.24" style="fill:#FFA412;" width="2.48" height="20.4"/>
						<rect x="1628.45" y="1156.24" style="fill:#FFA412;" width="2.48" height="20.4"/>
						<rect x="1613" y="1156.24" style="fill:#FFA412;" width="2.48" height="20.4"/>
						<rect x="1596.66" y="1156.24" style="fill:#FFA412;" width="2.48" height="20.4"/>
						<rect x="1571.61" y="1156.24" style="fill:#FFA412;" width="2.48" height="20.4"/>
						<rect x="1548.16" y="1156.24" style="fill:#FFA412;" width="2.48" height="20.4"/>
						<rect x="1527.22" y="1156.24" style="fill:#FFA412;" width="2.48" height="20.4"/>
						<rect x="1654.93" y="1156.24" style="fill:#FFA412;" width="2.48" height="20.4"/>
						<rect x="1660.22" y="1156.24" style="fill:#FFA412;" width="2.48" height="20.4"/>
						<rect x="1665.32" y="1156.24" style="fill:#FFA412;" width="2.48" height="20.4"/>
						<path style="fill:#FFA412;" d="M1671.65,1156.31v20.25c-0.3,0.05-0.61,0.07-0.93,0.07h-1.55v-20.4h1.55
							C1671.03,1156.24,1671.34,1156.26,1671.65,1156.31z"/>
						<path style="fill:#FFA412;" d="M1675.09,1158.2v16.48c-0.6,0.75-1.47,1.33-2.48,1.66v-19.8
							C1673.63,1156.87,1674.49,1157.45,1675.09,1158.2z"/>
					</g>
				</g>
				<g>
					<path style="fill:#FFB93E;" d="M1647.31,1140.32v11.51c0,0.92-0.33,1.77-0.9,2.48c-0.6,0.75-1.47,1.34-2.48,1.66
						c-0.31,0.1-0.63,0.18-0.96,0.23c-0.1,0.01-0.2,0.03-0.31,0.04h-0.04c-0.07,0.01-0.14,0.01-0.21,0.02
						c-0.04,0-0.08,0.01-0.12,0.01c-0.09,0-0.17,0.01-0.26,0.01h-218.48c-1.9,0-3.57-0.85-4.5-2.12c-0.46-0.61-0.74-1.33-0.79-2.1
						c-0.01-0.08-0.01-0.16-0.01-0.23v-11.51c0-0.08,0-0.16,0.01-0.23c0.12-1.89,1.67-3.48,3.75-4.01c0.48-0.13,1-0.2,1.54-0.2
						h218.48c0.1,0,0.18,0.01,0.28,0.01c0.05,0,0.1,0.01,0.14,0.01c0.18,0.01,0.35,0.03,0.52,0.05c0.33,0.05,0.65,0.12,0.96,0.23
						c0.16,0.05,0.31,0.1,0.45,0.17h0.01c0.58,0.24,1.1,0.57,1.53,0.96c0.01,0.01,0.01,0.01,0.02,0.03
						c0.02,0.02,0.04,0.03,0.06,0.05c0.15,0.14,0.29,0.29,0.42,0.44C1646.99,1138.54,1647.31,1139.4,1647.31,1140.32z"/>
					<path style="fill:#FFA412;" d="M1540.03,1156.27h-117.04c-1.65,0-3.11-0.81-3.94-2.01c-0.45-0.64-0.73-1.39-0.77-2.2
						c-0.01-0.08-0.01-0.16-0.01-0.23v-11.51c0-0.08,0-0.16,0.01-0.23c0.12-2.03,1.69-3.71,3.76-4.12c0.31-0.06,0.63-0.1,0.96-0.1
						h102.67c0.04,0.16,0.09,0.31,0.14,0.47c1.7,5.95,5.54,13.96,14.19,19.9C1539.99,1156.25,1540.02,1156.26,1540.03,1156.27z"/>
					<g>
						<rect x="1618.25" y="1135.88" style="fill:#FFA412;" width="2.48" height="20.4"/>
						<rect x="1609.84" y="1135.88" style="fill:#FFA412;" width="2.48" height="20.4"/>
						<rect x="1599.76" y="1135.88" style="fill:#FFA412;" width="2.48" height="20.4"/>
						<rect x="1584.31" y="1135.88" style="fill:#FFA412;" width="2.48" height="20.4"/>
						<rect x="1567.97" y="1135.88" style="fill:#FFA412;" width="2.48" height="20.4"/>
						<rect x="1542.93" y="1135.88" style="fill:#FFA412;" width="2.48" height="20.4"/>
						<rect x="1519.48" y="1135.88" style="fill:#FFA412;" width="2.48" height="20.4"/>
						<rect x="1498.54" y="1135.88" style="fill:#FFA412;" width="2.48" height="20.4"/>
						<rect x="1626.25" y="1135.88" style="fill:#FFA412;" width="2.48" height="20.4"/>
						<rect x="1631.53" y="1135.88" style="fill:#FFA412;" width="2.48" height="20.4"/>
						<rect x="1636.64" y="1135.88" style="fill:#FFA412;" width="2.48" height="20.4"/>
						<path style="fill:#FFA412;" d="M1642.96,1135.95v20.25c-0.3,0.05-0.61,0.07-0.93,0.07h-1.55v-20.4h1.55
							C1642.35,1135.88,1642.66,1135.9,1642.96,1135.95z"/>
						<path style="fill:#FFA412;" d="M1646.41,1137.84v16.47c-0.6,0.75-1.47,1.33-2.48,1.66v-19.8
							C1644.94,1136.5,1645.81,1137.09,1646.41,1137.84z"/>
					</g>
				</g>
				<g>
					<path style="fill:#FFB93E;" d="M1663.38,1120.39v11.52c0,0.92-0.33,1.77-0.91,2.48c-0.6,0.75-1.47,1.33-2.48,1.66
						c-0.31,0.1-0.63,0.18-0.97,0.23c-0.3,0.05-0.61,0.07-0.93,0.07h-218.48c-0.85,0-1.65-0.17-2.36-0.47
						c-1.59-0.67-2.73-2-2.9-3.56c-0.01-0.06-0.01-0.12-0.01-0.18c0-0.08-0.01-0.15-0.01-0.23v-11.52c0-0.08,0-0.15,0.01-0.23
						c0.13-2.16,2.13-3.93,4.65-4.18c0.2-0.02,0.41-0.03,0.63-0.03h218.48c0.32,0,0.63,0.02,0.93,0.07
						c0.33,0.05,0.66,0.13,0.97,0.23c1.01,0.33,1.88,0.92,2.48,1.66C1663.05,1118.62,1663.38,1119.47,1663.38,1120.39z"/>
					<path style="fill:#FFA412;" d="M1556.09,1136.35h-117.05c-0.76,0-1.47-0.17-2.11-0.47c-1.42-0.67-2.44-2-2.59-3.56
						c-0.01-0.06-0.01-0.12-0.01-0.18c0-0.08-0.01-0.15-0.01-0.23v-11.52c0-0.08,0-0.15,0.01-0.23c0.12-2.16,1.9-3.93,4.16-4.18
						c0.18-0.02,0.37-0.03,0.56-0.03h102.67c0,0.01,0.01,0.02,0.01,0.03c1.6,5.85,5.27,13.86,13.69,19.89
						C1555.64,1136.04,1555.87,1136.19,1556.09,1136.35z"/>
					<g>
						<rect x="1634.31" y="1115.95" style="fill:#FFA412;" width="2.48" height="20.4"/>
						<rect x="1625.9" y="1115.95" style="fill:#FFA412;" width="2.48" height="20.4"/>
						<rect x="1615.83" y="1115.95" style="fill:#FFA412;" width="2.48" height="20.4"/>
						<rect x="1600.38" y="1115.95" style="fill:#FFA412;" width="2.48" height="20.4"/>
						<rect x="1584.04" y="1115.95" style="fill:#FFA412;" width="2.48" height="20.4"/>
						<rect x="1558.99" y="1115.95" style="fill:#FFA412;" width="2.48" height="20.4"/>
						<rect x="1535.54" y="1115.95" style="fill:#FFA412;" width="2.48" height="20.4"/>
						<rect x="1514.6" y="1115.95" style="fill:#FFA412;" width="2.48" height="20.4"/>
						<rect x="1642.31" y="1115.95" style="fill:#FFA412;" width="2.48" height="20.4"/>
						<rect x="1647.6" y="1115.95" style="fill:#FFA412;" width="2.48" height="20.4"/>
						<rect x="1652.7" y="1115.95" style="fill:#FFA412;" width="2.48" height="20.4"/>
						<path style="fill:#FFA412;" d="M1659.03,1116.02v20.25c-0.3,0.05-0.61,0.07-0.93,0.07h-1.55v-20.4h1.55
							C1658.41,1115.95,1658.72,1115.97,1659.03,1116.02z"/>
						<path style="fill:#FFA412;" d="M1662.47,1117.91v16.48c-0.6,0.75-1.47,1.33-2.48,1.66v-19.8
							C1661.01,1116.58,1661.87,1117.16,1662.47,1117.91z"/>
					</g>
				</g>
				<g>
					<path style="fill:#FFB93E;" d="M1670.22,1100.02v11.52c0,0.92-0.33,1.77-0.91,2.48c-0.6,0.75-1.47,1.33-2.48,1.66
						c-0.31,0.1-0.63,0.18-0.97,0.23c-0.1,0.01-0.2,0.03-0.31,0.04c-0.06,0.01-0.11,0.01-0.17,0.01c-0.06,0.01-0.11,0.01-0.17,0.01
						c-0.09,0.01-0.19,0.01-0.28,0.01h-218.48c-2.82,0-5.14-1.87-5.28-4.21c0-0.08-0.01-0.15-0.01-0.23v-11.52
						c0-0.08,0-0.15,0.01-0.23c0.14-2.34,2.46-4.21,5.28-4.21h218.48c0.32,0,0.63,0.02,0.93,0.07c0.33,0.05,0.66,0.12,0.97,0.23
						c1.01,0.33,1.88,0.92,2.48,1.66C1669.88,1098.26,1670.22,1099.11,1670.22,1100.02z"/>
					<path style="fill:#FFA412;" d="M1562.93,1115.98h-117.05c-2.51,0-4.58-1.87-4.71-4.21c0-0.08-0.01-0.15-0.01-0.23v-11.52
						c0-0.08,0-0.15,0.01-0.23c0.13-2.34,2.2-4.21,4.71-4.21h102.67c1.64,5.99,5.45,14.28,14.33,20.36
						C1562.9,1115.96,1562.92,1115.97,1562.93,1115.98z"/>
					<g>
						<rect x="1641.15" y="1095.59" style="fill:#FFA412;" width="2.48" height="20.4"/>
						<rect x="1632.74" y="1095.59" style="fill:#FFA412;" width="2.48" height="20.4"/>
						<rect x="1622.66" y="1095.59" style="fill:#FFA412;" width="2.48" height="20.4"/>
						<rect x="1607.21" y="1095.59" style="fill:#FFA412;" width="2.48" height="20.4"/>
						<rect x="1590.88" y="1095.59" style="fill:#FFA412;" width="2.48" height="20.4"/>
						<rect x="1565.83" y="1095.59" style="fill:#FFA412;" width="2.48" height="20.4"/>
						<rect x="1542.38" y="1095.59" style="fill:#FFA412;" width="2.48" height="20.4"/>
						<rect x="1521.44" y="1095.59" style="fill:#FFA412;" width="2.48" height="20.4"/>
						<rect x="1649.15" y="1095.59" style="fill:#FFA412;" width="2.48" height="20.4"/>
						<rect x="1654.43" y="1095.59" style="fill:#FFA412;" width="2.48" height="20.4"/>
						<rect x="1659.54" y="1095.59" style="fill:#FFA412;" width="2.48" height="20.4"/>
						<path style="fill:#FFA412;" d="M1665.86,1095.66v20.25c-0.3,0.05-0.61,0.07-0.93,0.07h-1.55v-20.4h1.55
							C1665.25,1095.59,1665.56,1095.61,1665.86,1095.66z"/>
						<path style="fill:#FFA412;" d="M1669.31,1097.55v16.48c-0.6,0.75-1.47,1.33-2.48,1.66v-19.8
							C1667.84,1096.21,1668.71,1096.8,1669.31,1097.55z"/>
					</g>
				</g>
			</g>
			<g>
				<path style="fill:#FFEDDC;" d="M1600.96,979.35c0,0-11.47,16.16-22,16.38c-10.52,0.22-26.53-7.49-26.53-7.49
					s-9.66-21.53-3.11-29.95c0,0,6.57-2.88,13.44,2.21c1.18,0.88,2.38,1.98,3.56,3.41c1.67,2,3.54,3.15,5.52,3.74
					c7.51,2.28,16.42-3.09,19.75,2.1c1.95,3.01,4.06,5.28,5.8,6.87C1599.46,978.45,1600.96,979.35,1600.96,979.35z"/>
				<path style="fill:#FFEDDC;" d="M1451.36,1095.88c0,0,40.56-98.28,113.57-100.15c0,0,67.39,7.49,71.14,100.15H1451.36z"/>
				<path style="fill:#DB6A1D;" d="M1544.93,998.73c0,0,29.26,6.51,38.29,2.68c0,0,1.36-12.24-10.96-10.52
					c-8.43,1.17-13.93-2.88-17.16-4.52C1550.53,984.04,1543.71,993.61,1544.93,998.73z"/>
				<path style="fill:#E5C1A1;" d="M1570.39,980.29c-1.87,1.4-7.62-19.79-7.62-19.79c1.18,0.88,2.38,1.98,3.56,3.41
					c1.67,2,3.54,3.15,5.52,3.74C1571.87,968.27,1572.21,978.92,1570.39,980.29z"/>
				<path style="fill:#E5C1A1;" d="M1597.41,976.62c-0.41,0.24-13.95,8.35-15.78,8.35c-1.87,0,9.98-15.22,9.98-15.22
					C1593.55,972.76,1595.66,975.03,1597.41,976.62z"/>
				<path style="fill:#F9DDBF;" d="M1490.98,1068.43c-0.75-0.64,28.7-43.37,36.82-43.68c8.11-0.31,26.34,9.36,39.53,10.61
					c13.2,1.25,25.99-2.5,28.48,5.3c2.5,7.8,9.36,35.45,5.15,39.88C1596.75,1084.96,1507.18,1082.26,1490.98,1068.43z"/>
			</g>
		</g>
		<path style="opacity:0.5;fill:#E2810E;" d="M1518.72,1216.78c-0.01,0.06-0.01,0.1-0.01,0.15c-0.38,6.85-1.48,13.62-3.28,20.22
			c0,0.01-0.01,0.02-0.01,0.03c-0.26,0.96-0.53,1.91-0.83,2.86c-1.83,6.02-4.24,11.88-7.2,17.51c-3.72,7.06-8.31,13.75-13.73,19.89
			c-0.14,0.17-0.29,0.34-0.44,0.51c-6.77,7.58-14.8,14.32-24,19.9c-1.94,1.18-3.92,2.31-5.97,3.38c-1.38,0.72-2.76,1.41-4.16,2.07
			c-1.33,0.77-2.74,1.43-4.06,2.25c-3.85,2.36-8.65,4.22-13.88,5.71v-8.97c0-0.08,0.01-0.15,0.01-0.23
			c0.01-0.15,0.03-0.29,0.05-0.44c0.03-0.17,0.08-0.33,0.13-0.49c0.54-1.88,2.37-3.29,4.54-3.29h-23.36c-2.17,0-3.99-1.41-4.53-3.29
			c-0.05-0.16-0.1-0.32-0.13-0.49c-0.02-0.14-0.04-0.29-0.05-0.43c-0.01-0.08-0.01-0.15-0.01-0.23v-11.51c0-0.08,0-0.16,0.01-0.23
			c0.01-0.14,0.03-0.29,0.05-0.43c0.03-0.17,0.08-0.33,0.13-0.49c0.54-1.89,2.37-3.29,4.53-3.29h9.12c-1.3-0.63-2.25-1.82-2.48-3.22
			c-0.02-0.1-0.03-0.19-0.04-0.29c-0.01-0.06-0.01-0.13-0.01-0.2c-0.01-0.07-0.01-0.15-0.01-0.22v-11.52c0-0.08,0-0.15,0.01-0.23
			c0.01-0.14,0.02-0.29,0.05-0.43c0.03-0.16,0.07-0.32,0.12-0.48c0.53-1.9,2.36-3.31,4.54-3.31h5.23c-2.17,0-4-1.41-4.54-3.29
			c-0.05-0.16-0.1-0.32-0.13-0.49c-0.02-0.14-0.04-0.29-0.05-0.43v-11.98c0.12-2.16,1.9-3.92,4.16-4.18h-15.5
			c-2.52,0-4.59-1.88-4.72-4.21c-0.01-0.08-0.01-0.15-0.01-0.23v-11.51c0-0.08,0-0.16,0.01-0.23c0-0.06,0.01-0.12,0.01-0.18
			c0.19-1.93,1.7-3.49,3.66-3.91c-2.12-0.25-3.81-1.82-4.09-3.79c-0.02-0.13-0.03-0.25-0.04-0.38c-0.01-0.08-0.01-0.16-0.01-0.23
			v-11.51c0-0.08,0-0.16,0.01-0.23c0.01-0.14,0.03-0.29,0.05-0.43c0.03-0.17,0.08-0.33,0.13-0.49c0.54-1.89,2.37-3.29,4.53-3.29
			h9.12c-1.3-0.63-2.25-1.82-2.48-3.22c-0.02-0.1-0.03-0.19-0.04-0.29c-0.01-0.07-0.01-0.13-0.01-0.2
			c-0.01-0.08-0.01-0.15-0.01-0.23v-11.51c0-0.08,0-0.16,0.01-0.23c0.01-0.14,0.02-0.29,0.05-0.43c0.03-0.16,0.07-0.32,0.12-0.47
			c0.53-1.89,2.36-3.31,4.54-3.31h17.85c-2.17,0-4.01-1.41-4.54-3.3c-0.05-0.16-0.09-0.31-0.12-0.47c-0.03-0.14-0.04-0.29-0.05-0.44
			c-0.01-0.08-0.01-0.15-0.01-0.23v-11.52c0-0.08,0-0.15,0.01-0.23c0.12-2.16,1.9-3.92,4.15-4.18h-28.12
			c-1.65,0-3.11-0.81-3.94-2.01l0.01-0.1l2.96-18.09l0.01-0.1l4.22-25.81c4.89,0.66,9.73,1.63,14.48,2.91
			c0.28,0.08,0.55,0.15,0.83,0.23c0.01,0.01,0.03,0.01,0.05,0.02c2.76,0.77,5.49,1.65,8.18,2.63c0.03,0.01,0.05,0.01,0.08,0.03
			c12.38,4.51,23.92,11.21,33.92,19.9c0.18,0.15,0.35,0.31,0.53,0.47c5.2,4.57,9.98,9.68,14.22,15.32c0.85,1.12,1.68,2.26,2.48,3.42
			c0.27,0.38,0.53,0.76,0.79,1.15c0.01,0.01,0.02,0.02,0.02,0.03c1.29,1.9,2.51,3.86,3.67,5.86c2.74,4.73,5.04,9.58,6.91,14.5
			c2.5,6.53,4.26,13.19,5.3,19.9c0.03,0.17,0.05,0.33,0.08,0.51C1518.78,1203.62,1519.08,1210.23,1518.72,1216.78z"/>
		<g>
			
				<ellipse transform="matrix(0.7071 -0.7071 0.7071 0.7071 -446.6625 1334.1682)" style="fill:#E2810E;" cx="1387.15" cy="1206.25" rx="107.47" ry="107.47"/>
			<path style="fill:#FFB93E;" d="M1434.86,1302.55c-1.32,0.81-2.67,1.59-4.04,2.34c-0.46,0.26-0.93,0.51-1.39,0.75
				c-1.06,0.56-2.12,1.11-3.19,1.64c-51.18,25.13-113.6,5.84-141.42-44.62c-26.54-48.14-12.27-107.76,31.27-139.07
				c3.47-2.5,7.13-4.82,10.97-6.93c1.38-0.76,2.77-1.49,4.16-2.18c1.35-0.68,2.72-1.32,4.1-1.93c4.21-1.88,8.48-3.45,12.8-4.75
				c6.42-1.93,12.93-3.23,19.46-3.92c20.24-2.15,40.61,1.55,58.67,10.39c19.16,9.37,35.73,24.52,46.81,44.62
				C1500.95,1209.51,1483.76,1272.8,1434.86,1302.55z"/>
			<g>
				<path style="fill:#FFA412;" d="M1379.69,1308.23c-8.99,0-18.02-1.27-26.9-3.84c-24.71-7.15-45.15-23.49-57.57-46.01
					c-12.42-22.53-15.32-48.54-8.17-73.24c7.15-24.71,23.49-45.15,46.01-57.57c46.5-25.63,105.18-8.66,130.81,37.84
					c25.63,46.5,8.66,105.18-37.84,130.81C1411.6,1304.18,1395.73,1308.23,1379.69,1308.23z M1379.4,1118.21
					c-15.28,0-30.77,3.74-45.07,11.63c-21.92,12.08-37.82,31.97-44.77,56.02c-6.95,24.04-4.13,49.35,7.95,71.27
					c12.08,21.92,31.98,37.82,56.02,44.77c24.04,6.95,49.35,4.13,71.27-7.95c45.24-24.94,61.76-82.04,36.82-127.28
					C1444.55,1135.72,1412.45,1118.21,1379.4,1118.21z"/>
			</g>
			<g>
				<path style="fill:#FFA412;" d="M1426.91,1221.24c-0.21-0.53-0.44-1.04-0.67-1.54c-1.74-3.83-3.91-6.94-6.52-9.31
					c-2.94-2.68-6.36-4.7-10.26-6.04c-3.9-1.34-8.24-2.16-13.04-2.45c-4.8-0.3-10.02-0.36-15.66-0.2c-3.49,0.11-6.47,0.04-8.94-0.18
					c-2.47-0.22-4.57-0.68-6.29-1.38c-1.73-0.69-3.12-1.64-4.2-2.85c-1.08-1.2-1.96-2.67-2.67-4.4s-1.11-3.46-1.21-5.16
					c-0.11-1.7,0.15-3.32,0.76-4.86c0.61-1.53,1.61-2.95,3-4.25c1.38-1.3,3.21-2.41,5.48-3.34c4.19-1.7,8.11-1.66,11.74,0.11
					c3.63,1.78,6.59,5.48,8.87,11.11l21.89-8.89c-1.91-4.69-4.29-8.65-7.17-11.88c-2.87-3.23-6.1-5.73-9.7-7.49
					c-3.6-1.76-7.52-2.79-11.76-3.09c-4.24-0.3-8.65,0.15-13.21,1.35l-6.2-15.27l-12.12,4.92l6.11,15.06
					c-4.37,2.27-8.08,4.91-11.13,7.92c-3.04,3.01-5.38,6.27-7.01,9.78c-1.64,3.51-2.49,7.19-2.58,11.05
					c-0.08,3.86,0.69,7.78,2.31,11.77c1.87,4.6,4.27,8.24,7.22,10.92c2.94,2.68,6.36,4.69,10.25,6c3.89,1.32,8.23,2.11,13.05,2.37
					c4.81,0.26,10.04,0.26,15.7-0.02c3.28-0.19,6.13-0.17,8.54,0.06c2.41,0.22,4.5,0.68,6.26,1.39c1.76,0.71,3.22,1.7,4.38,2.97
					c1.17,1.28,2.15,2.9,2.95,4.87c0.71,1.74,1.05,3.46,1.05,5.19c0,1.73-0.39,3.37-1.17,4.94c-0.77,1.57-1.93,3.03-3.48,4.36
					c-1.54,1.34-3.5,2.48-5.88,3.45c-2.07,0.84-4.21,1.39-6.43,1.67c-2.22,0.27-4.37,0.05-6.48-0.65c-2.11-0.7-4.08-1.98-5.92-3.83
					c-1.84-1.84-3.44-4.44-4.79-7.77l-21.89,8.89c2.28,5.63,5.15,10.09,8.61,13.39c3.46,3.3,7.24,5.66,11.34,7.07
					c4.11,1.42,8.4,2.04,12.89,1.86c4.48-0.18,8.91-0.91,13.28-2.19l5.65,13.93l12.04-4.89l-5.68-14c4.37-2.27,8.12-4.89,11.24-7.85
					c2.89-2.74,5.15-5.69,6.78-8.86c0.13-0.26,0.26-0.51,0.38-0.77c1.65-3.45,2.53-7.12,2.64-10.99
					C1429.37,1229.37,1428.59,1225.37,1426.91,1221.24z"/>
			</g>
		</g>
	</g>
	<g>
		<g>
			<path style="fill:#FFB27D;" d="M1279.66,676.62c-1.4,1.62-1.56,3.42-0.85,5.34c0,0.01,0.01,0.02,0.01,0.03
				c1.31,3.55,5.59,7.49,10.56,11.42c0.63,0.51,1.2,0.96,1.69,1.39c0.13,0.11,0.26,0.22,0.38,0.34c0.1,0.09,0.2,0.18,0.29,0.26
				c4.64,4.21,2.91,5.2,11.24,13.75c9.5,9.75,16,9.88,17.84,8.97c1.56-0.77-1.66-5.96-5.22-11.78c-0.17-0.28-0.34-0.57-0.52-0.85
				c-0.47-0.77-0.95-1.56-1.42-2.34c-4.17-7.01-3.14-10.32-2.23-20.81c0.73-8.52,12.91-47.67,12.91-47.67l-18.1-2.99
				c0,0-5.23,31.14-11.19,35.98c-3.19,2.58-6.78,2.63-9.85,4.55c-0.22,0.13-0.43,0.27-0.64,0.41
				C1282.83,673.79,1281.05,675,1279.66,676.62z"/>
			<path style="fill:#424140;" d="M1279.66,676.62c-1.4,1.62-1.56,3.42-0.85,5.34c0,0.01,0.01,0.02,0.01,0.03
				c1.6,3.54,5.77,7.46,10.58,11.38c0.63,0.51,1.18,0.99,1.67,1.43c0.13,0.11,0.26,0.22,0.38,0.34c0.1,0.09,0.2,0.18,0.29,0.26
				c4.64,4.21,2.91,5.2,11.24,13.75c9.5,9.75,16,9.88,17.84,8.97c1.56-0.77-1.66-5.96-5.22-11.78c-1.84-0.66-10.4-4.06-16.9-12.27
				c-5.73-7.21-9.59-16.5-13.49-21.86c-0.22,0.13-0.43,0.27-0.64,0.41C1282.83,673.79,1281.05,675,1279.66,676.62z"/>
			<path style="fill:#FFB27D;" d="M1425.36,664.3c1.16,5.57,9.1,4.59,17.98,2.35c8.87-2.23,6.78,0.36,19.42-1.13
				c12.64-1.49,16.44-6.23,16.81-8.12c0.33-1.67-5.92-2.22-12.63-2.94c-0.84-0.09-1.69-0.19-2.54-0.29
				c-7.57-0.9-13.15-5.74-20.06-9.7c-6.54-3.75-16.37-19.16-16.37-19.16l-17.34,1.5c0,0,9.2,13.76,12.76,19.75
				c2.1,3.52,2.02,8.2,1.79,11.81C1425.06,660.33,1424.95,662.34,1425.36,664.3z"/>
			<path style="fill:#424140;" d="M1443.33,666.65c8.87-2.23,6.78,0.36,19.42-1.13c12.64-1.49,16.44-6.23,16.81-8.12
				c0.33-1.67-5.92-2.22-12.63-2.94l-0.06,0.13c0,0-7.55,5.43-18.07,5.76c-8.58,0.27-17.69-2.13-23.61-1.99
				c-0.12,1.96-0.23,3.97,0.18,5.93C1426.51,669.88,1434.46,668.89,1443.33,666.65z"/>
			<path style="fill:#A78A64;" d="M1358.1,553.86l-15.91,43.75l-20.77,57.12c0,0-5.74,0.6-11.25-0.95
				c-5.08-1.43-10.91-5.22-10.91-5.22s5.45-61.22,16.17-96.41c2.75-9.03,5.85-16.35,9.29-20.48
				C1341.57,511.47,1358.1,553.86,1358.1,553.86z"/>
			<path style="fill:#CEB173;" d="M1341.12,484.68c-10.65-3.35-40.92,1.26-71.31,7.43l-6.45-10.47l-65.78-4.67
				c0,0-21.35,48.26-9.26,78.83c1.78,4.49,12.73,6.68,12.73,6.68c0,0,38.54,0.42,51.24,0.33c32.69-0.23,69.03-22.96,73.75-23.94
				c7.72-1.6,10.92,13.83,18.76,30.01c7.84,16.17,73.15,71.36,73.15,71.36s9.98,0.03,14.09-1.55c4.42-1.69,6.03-3.86,6.03-3.86
				S1365.13,492.23,1341.12,484.68z"/>
			<path style="fill:#424140;" d="M1255.02,288.64c-4.95-2.9-9.76-3.29-12.66-3.18c-2.1,0.08-4.2-0.1-6.28-0.37
				c-24.94-3.17-39.67,33.13-40.48,44.11c-1.48,20.23-12.16,23.39-27.12,36.16c-30.01,25.6-20.95,55.04-4.36,65.89
				c9.95,6.51,27.36-0.19,27.36-0.19c0.25,0.17,47.55-26.89,70.87-39.94C1297.4,385.87,1269.18,296.93,1255.02,288.64z"/>
			<path style="fill:#FFB27D;" d="M1242.64,380.28c0.1,0.07-11.49,4.12-19.29,0.73c-7.33-3.18-12.96-15.17-12.85-15.17
				c3.32-0.18,6.95-3.11,9.63-22.21l1.42,0.5l23.87,8.4c0,0-1.67,7.65-2.74,14.93C1241.8,373.57,1241.33,379.42,1242.64,380.28z"/>
			<path style="fill:#ED975D;" d="M1245.43,352.52c0,0-1.02,5.36-2.43,13.03c-13.69-2.37-19.46-14.05-21.44-21.43L1245.43,352.52z"
				/>
			<path style="fill:#FFB27D;" d="M1249.03,360.08c0,0-32.61-4.14-29.72-24.41c2.89-20.27,0.63-34.45,21.57-32.66
				c20.94,1.79,23.87,10.1,24.55,17.1C1266.12,327.1,1257.58,360.63,1249.03,360.08z"/>
			<path style="fill:#424140;" d="M1264.17,309.02c0,0-20.73,18.12-34.9,19.67c-14.17,1.55-19.58-2.97-19.58-2.97
				s8.31-7,13.26-18.24c1.46-3.31,4.58-5.6,8.18-5.94C1241.26,300.59,1260.46,300.06,1264.17,309.02z"/>
			<path style="fill:#424140;" d="M1251.13,307.5c0,0,7.02,6.7,9.26,11.68c2.15,4.81,2.87,16.36,1.22,20.95
				c0,0,10.72-21.21,4.49-31.44C1259.49,297.86,1251.13,307.5,1251.13,307.5z"/>
			<path style="fill:#CBCAC5;" d="M1270.41,428.07c-0.52,65.95,0.1,52.16-7.07,58.47c-1.73,1.52-6.61,2.45-13.04,2.92
				c-20.21,1.48-55.78-1.6-57.16-5.32c-4.76-12.9-1.49-16.94-5.52-36.7c-0.42-2.1-0.94-4.38-1.54-6.86
				c-3.34-13.57-6.53-18.18,4.83-40.1c10.3-19.86,21.03-35.99,22.01-35.42c27.66,16.15,29.78,2.4,29.78,2.4
				S1270.66,395.9,1270.41,428.07z"/>
			<path style="fill:#CEB173;" d="M1342.19,597.61l-20.77,57.12c0,0-5.74,0.6-11.25-0.95c-5.08-1.43-10.91-5.22-10.91-5.22
				s5.45-61.22,16.17-96.41L1342.19,597.61z"/>
			<path style="fill:#CBCAC5;" d="M1242.69,367.45c0,0,28.37,4.6,31.78,16.78c3.41,12.18,23.5,83.76,23.5,83.76
				s-14.39,2.69-21.09-3.92c-6.7-6.61-23.59-61.58-23.59-61.58L1242.69,367.45z"/>
			<path style="fill:#959593;" d="M1250.3,489.46c-20.21,1.48-55.78-1.6-57.16-5.32c-4.76-12.9-1.49-16.94-5.52-36.7l9.56-27.53
				c0,0-1.4,30.59,7.68,38.57c9.07,7.98,37.03,15.27,41.47,21.96C1248.46,483.65,1249.88,486.87,1250.3,489.46z"/>
			<path style="fill:#FFB27D;" d="M1227.04,476.77c0,0,19.92-4.58,23.15-2.83c3.23,1.75,11.14,8.14,12.14,10.38
				c1,2.24-7.18-1.65-9.83-2.34c-1.72-0.45-6.23,1.15-8.46,1.92c-9.39,3.2-15.17,1.63-15.17,1.63L1227.04,476.77z"/>
			<path style="fill:#CBCAC5;" d="M1212.89,365.05c0,0-26.77,1.84-35.96,14.84c-12.92,18.3-38.27,96.07-23.36,106.31
				c16.79,11.53,76.08,2.51,76.08,2.51s1.91-9.25-0.87-13.69c-2.78-4.45-47.48-11.34-49.56-13.39
				c-2.08-2.05,25.48-40.37,25.43-46.55C1204.63,408.89,1212.89,365.05,1212.89,365.05z"/>
			<path style="fill:#FFB27D;" d="M1251.2,479.48c0,0,4.22,5.36,5.59,6c1.37,0.63,2.26,0.47,2.26,0.47l-2.85-5.05L1251.2,479.48z"/>
			<path style="fill:#FFB27D;" d="M1250.19,473.93l12.19,5.82c0,0-0.51,0.85-2.01,0.79c-1.5-0.06-5.28-1.41-5.28-1.41
				L1250.19,473.93z"/>
		</g>
		<g>
			<g>
				<polygon style="fill:#424140;" points="1254.19,494.18 1350.32,493.5 1378.73,421.38 1282.75,422.06 				"/>
				<polygon style="fill:#424140;" points="1351.42,490.69 1224.49,491.58 1224.51,494.38 1350.32,493.5 				"/>
			</g>
			<path style="fill:#EBF3FA;" d="M1325.8,457.71c0.71-2.53-0.77-4.57-3.3-4.55c-2.53,0.02-5.15,2.09-5.86,4.62
				c-0.71,2.53,0.77,4.57,3.3,4.55C1322.47,462.31,1325.09,460.25,1325.8,457.71z"/>
		</g>
	</g>
	<g>
		<path style="fill:#545453;" d="M2122.33,723.92c-12.17-4.04-20.6,1.06-20.6,1.06c-35.05,1.44-36.35,37.37-32.24,50.74
			c5.78,18.78-14.67,33.58,8.01,41.18c26.31,8.82,48.39-5.11,46.88-0.56C2207.59,822.89,2150.01,733.11,2122.33,723.92z"/>
		<path style="fill:#656563;" d="M2085.97,898.65c0,0-3.33,6.59-9.37,14.17c-7.28,9.12-45.5-12.53-42.2-14.17
			c3.29-1.65,21.9-54.47,29.78-63.84c7.3-8.67,17.44-10.65,17.44-10.65L2085.97,898.65z"/>
		<path style="fill:#CBCAC5;" d="M2214.93,1271.77c0,0,10.55,9.63,8.49,16.46c-2.06,6.84-11.58,11.4-12.86,19.76
			c-1.29,8.36-6.43,12.92-11.06,12.92c-4.63,0-22.08,0-22.08,0s-3.41-5.88,4.82-7.66c8.23-1.77,11.34-11.6,10.82-20.71
			c-0.51-9.12,0.77-21.28,0.77-21.28l17.49-4.05L2214.93,1271.77z"/>
		<path style="fill:#CBCAC5;" d="M2125.66,1275.86c0,0,3.79,40.78-0.84,43.06l-59.26-0.12c0,0,0-6.84,9.52-8.36
			c9.52-1.52,26.24-7.09,29.07-19.5C2106.98,1278.52,2125.66,1275.86,2125.66,1275.86z"/>
		<path style="fill:#656563;" d="M2171.25,871.15c0,0,0.88,12.45,0,27.39c-0.59,9.9-10.6,23.17-12.03,26.45
			c-3.57,8.23-7.59,9.57-7.59,9.57l-31.11,7.63l-10.94,2.68l-34.5-10.3c0,0-15.71-43.86-9.4-68.55
			c6.31-24.69,15.95-41.84,15.95-41.84s23.45-5.27,64.81-2.34L2171.25,871.15z"/>
		<path style="fill:#959593;" d="M2174.21,898.89c-0.59,9.9-13.57,22.82-14.99,26.1c-3.57,8.23-7.59,9.57-7.59,9.57l-31.11,7.63
			l-8.3-11.71c0,0,50.37-14.01,40.83-58.42L2174.21,898.89z"/>
		<path style="fill:#A78A64;" d="M2077.27,941.22c0,0-17.08,53.18-18.18,71.29c-1.1,18.11,32.66,257.21,34.02,265.55
			c1.28,7.86,11.05,12.88,11.05,12.88s4.49,2.65,10.9,0.84c8.89-2.51,11.7-5.52,11.7-5.52s13.3-170.53,5.07-231.44
			c-8.23-60.92-8.33-113.59-8.33-113.59H2077.27z"/>
		<path style="fill:#CEB173;" d="M2149.66,939.63c0,0,26.06,34.97,28.49,58.61c2.43,23.64,3.81,106.67,8.99,129.71
			c5.18,23.04,24.19,67.39,24.19,139.26c0,0-1.98,4.12-8.08,6.31c-1.95,0.7-4.57,1.38-7.11,1.96c-5.03,1.15-10.2-1.31-12.49-5.93
			c-12.86-25.89-53.81-109.38-55.91-126.71c-1.49-12.26-14.42-93.44-42.63-141.07c-6.77-11.44,4.16-56.91,4.16-56.91L2149.66,939.63
			z"/>
		<path style="fill:#163560;" d="M2074.54,933.01c0,0,6.86,5.43,20.48,5.7c16.28,0.33,56.6-4.15,56.6-4.15s1.79,5.01,1.72,10.29
			c0,0-49.25,12.42-77.79,1.81C2075.56,946.66,2071.88,939.74,2074.54,933.01z"/>
		<g>
			<path style="fill:#FFFFFF;" d="M2091.12,952.73c-4.1,0-7.43-3.77-7.43-8.41c0-4.63,3.33-8.41,7.43-8.41s7.43,3.77,7.43,8.41
				C2098.55,948.96,2095.22,952.73,2091.12,952.73z M2091.12,938.38c-2.74,0-4.97,2.67-4.97,5.94c0,3.28,2.23,5.94,4.97,5.94
				c2.74,0,4.96-2.67,4.96-5.94C2096.09,941.05,2093.86,938.38,2091.12,938.38z"/>
		</g>
		<polygon style="fill:#D35B31;" points="2126.7,968.02 2052.68,968.71 2016.25,883.1 2090.28,882.41 		"/>
		<path style="fill:#FFB27D;" d="M2117.02,929.33l-5.43-6.67c0,0-3.67-3.28-6.34-3.83c-2.67-0.56-8.29-3.8-8.84-2.89
			c-0.55,0.91,4.32,7.44,4.32,7.44l0.25,0.04c-5.59,4.2-19.7,0.49-21.44,2.21c-2.11,2.08,2.91,6.57,5.6,9.09
			c2.69,2.52,10.39,6.73,16.39,4.86c4.39-1.37,11.29-2.76,11.29-2.76L2117.02,929.33z"/>
		<path style="fill:#FFB27D;" d="M2021.82,898.16c0,0,4.65-5.29,7.61-2.75c2.96,2.54-0.78,15.01-3.6,13.75
			C2023.01,907.89,2020.2,899.71,2021.82,898.16z"/>
		<path style="fill:#656563;" d="M2146.43,821.84c0,0,24.69,1.73,34.15,24.73c9.46,23,26.86,60.86,23.12,76.73
			c-1.49,6.32-19.48,28.23-94.47,14.31c0,0,0.61-7.85,5.68-11.52c0,0,52.84-16.97,52.75-20.34c-0.17-6.38-7.14-11.9-36.66-41.43
			C2122.97,856.29,2146.43,821.84,2146.43,821.84z"/>
		<path style="fill:#FFB27D;" d="M2130.12,822.96c0.73-0.98-0.21-4.09-1.37-9.89c-1.05-5.25-2.84-13.38-2.8-22.51l-1.56,0.26
			l-26.27,4.42c0,0,0.6,7.02,0.62,13.64c0,0.05,0,0.11,0,0.17c0.03,5.75-1.55,14.43,0.39,15.56
			C2109.07,830.43,2127.32,826.72,2130.12,822.96z"/>
		<path style="fill:#E8945B;" d="M2098.12,795.23c0,0,0.52,9.9,0.54,16.52c14.7-0.35,22.54-14.62,25.73-20.94L2098.12,795.23z"/>
		<path style="fill:#FFB27D;" d="M2096.53,807.04c0,0,34.43-4.9,31.05-26.3c-3.38-21.4-1.22-36.44-23.35-34.21
			c-22.13,2.23-25.1,11.06-25.7,18.48S2087.49,807.77,2096.53,807.04z"/>
		<path style="fill:#545453;" d="M2088.51,748.5c0,0,13.4,23.6,28.42,25.01c15.02,1.41,20.66-3.45,20.66-3.45
			s-12.47-7.03-17.21-22.01C2120.38,748.05,2093.7,735.43,2088.51,748.5z"/>
		<path style="fill:#2A539B;" d="M2091.16,750.17c0,0-6.56,3.72-8.62,9.26c-2.01,5.42-3.36,12.39-1.51,20.38
			c0,0-9.8-15.93-3.38-26.85C2084.47,741.38,2091.16,750.17,2091.16,750.17z"/>
	</g>
	<path style="fill:#2E3552;" d="M2654,1323H630.82c-1.53,0-2.79-1.25-2.79-2.79v0c0-1.53,1.25-2.79,2.79-2.79H2654
		c1.53,0,2.79,1.25,2.79,2.79l0,0C2656.79,1321.75,2655.54,1323,2654,1323z"/>
</g>
</svg>
