<?xml version="1.0" encoding="utf-8"?>
<!-- Generator: Adobe Illustrator 26.0.0, SVG Export Plug-In . SVG Version: 6.00 Build 0)  -->
<svg version="1.1" xmlns="http://www.w3.org/2000/svg" xmlns:xlink="http://www.w3.org/1999/xlink" x="0px" y="0px"
	 viewBox="0 0 1041.52 414.61" style="enable-background:new 0 0 1041.52 414.61;" xml:space="preserve">
<g id="Background_Simple">
</g>
<g id="Plant">
</g>
<g id="Paper_Plane_2">
</g>
<g id="Paper_Plane_1">
</g>
<g id="Stars_2">
</g>
<g id="Device">
</g>
<g id="Chart">
</g>
<g id="Stars_1">
</g>
<g id="Character_1_">
</g>
<g id="Floor_1_">
	<rect style="fill:#F7F5E5;" width="1041.52" height="414.61"/>
	<g>
		<g>
			<path style="fill:#CFD1D2;" d="M669.48,30.86c0,0-406.74,84.71-424.3,125.92c-8.97,21.06,0,203.75,60.29,207.57
				c43.84,2.77,339.26,24.63,483.06-10.68c43.5-10.68-14.5-251.07-36.63-281.59C729.76,41.54,696.19,24.75,669.48,30.86z"/>
			<path style="opacity:0.13;fill:#E7AD4B;" d="M669.48,30.86c0,0-406.74,84.71-424.3,125.92c-8.97,21.06,0,203.75,60.29,207.57
				c43.84,2.77,339.26,24.63,483.06-10.68c43.5-10.68-14.5-251.07-36.63-281.59C729.76,41.54,696.19,24.75,669.48,30.86z"/>
		</g>
		<g>
			<g>
				<g>
					<path style="fill:#263238;" d="M268.31,233.38L268.31,233.38c0.02-0.04,0-0.09-0.04-0.1c-0.04-0.02-0.08,0-0.1,0.04
						c-2.31,5.34-3.94,10.95-5.3,16.61c-1.31,5.67-2.26,11.43-2.92,17.22l-0.41,4.35c-0.06,0.73-0.14,1.45-0.2,2.18l-0.12,2.18
						c-0.06,1.46-0.15,2.91-0.19,4.37l0.04,4.37l0.05,2.19c0.03,0.73,0.08,1.46,0.13,2.18c0.11,1.45,0.2,2.91,0.33,4.36
						c0.28,2.9,0.71,5.78,1.16,8.66c0.01,0.04,0.04,0.07,0.08,0.06c0.04,0,0.08-0.03,0.08-0.08v0c-0.01-1.46-0.07-2.91-0.1-4.36
						c-0.04-1.45-0.17-2.89-0.15-4.34c0.01-1.45-0.03-2.9-0.05-4.34l-0.04-2.17l0.04-2.17l0.02-4.33l0.12-4.33l0.05-2.17
						c0.03-0.72,0.08-1.44,0.12-2.16l0.27-4.33c0.51-5.76,1.3-11.5,2.45-17.18C264.77,244.43,266.19,238.78,268.31,233.38z"/>
					<path style="fill:#263238;" d="M268.93,256.05c0.01-0.04-0.01-0.08-0.05-0.1c-0.04-0.01-0.08,0.01-0.1,0.05
						c-1.25,3.6-2.24,7.29-3.09,11.01c-0.8,3.73-1.44,7.51-1.82,11.31c-0.38,3.79-0.81,7.59-0.86,11.4c-0.06,3.81,0,7.63,0.41,11.44
						c0,0.04,0.03,0.06,0.07,0.07c0.04,0,0.08-0.03,0.08-0.07c0.44-3.8,0.71-7.59,0.97-11.37c0.27-3.79,0.3-7.58,0.55-11.37
						c0.23-3.77,0.7-7.53,1.35-11.27C267.09,263.42,267.88,259.7,268.93,256.05z"/>
					<path style="fill:#263238;" d="M281.5,264.02c-0.02-0.04-0.07-0.05-0.11-0.02c-3.15,1.99-5.95,4.5-8.4,7.33
						c-1.21,1.43-2.33,2.94-3.29,4.57l-0.68,1.27l-0.53,1.32c-0.19,0.44-0.32,0.89-0.46,1.34c-0.14,0.45-0.29,0.9-0.41,1.36
						c-0.94,3.64-1.57,7.35-1.74,11.08c-0.15,3.73-0.08,7.46,0.42,11.16c0.01,0.03,0.03,0.06,0.07,0.07c0.04,0,0.08-0.03,0.08-0.07
						l0.96-11.05c0.38-3.65,0.62-7.33,1.4-10.9c0.1-0.44,0.23-0.88,0.34-1.32c0.11-0.44,0.22-0.88,0.39-1.3l0.45-1.28l0.58-1.21
						c0.85-1.6,1.89-3.12,3.01-4.57c2.24-2.9,4.88-5.54,7.89-7.68l0,0C281.51,264.1,281.52,264.06,281.5,264.02z"/>
					<path style="fill:#263238;" d="M275.41,278.22c-1.71,1.11-2.86,2.84-3.82,4.59c-0.92,1.79-1.64,3.68-2.14,5.63
						c-0.15,0.48-0.27,0.97-0.37,1.46l-0.35,1.47c-0.18,0.99-0.31,1.98-0.37,2.98c-0.01,1-0.04,2,0.03,3c0.08,1,0.2,2,0.39,2.98
						c0.01,0.03,0.03,0.06,0.06,0.06c0.04,0.01,0.08-0.02,0.09-0.06c0.24-0.99,0.4-1.96,0.53-2.94c0.16-0.97,0.31-1.94,0.42-2.91
						c0.14-0.96,0.27-1.92,0.34-2.9c0.13-0.96,0.21-1.94,0.42-2.88c0.34-1.92,0.89-3.79,1.64-5.57c0.75-1.77,1.72-3.54,3.21-4.79
						l0.01-0.01c0.03-0.02,0.04-0.07,0.02-0.1C275.5,278.21,275.45,278.2,275.41,278.22z"/>
					<path style="fill:#263238;" d="M257.79,289.29c-0.41-4.91-1.22-9.76-1.99-14.62c-0.77-4.86-1.61-9.7-2.5-14.53
						c-0.92-4.83-1.88-9.64-2.92-14.44c-0.01-0.04-0.05-0.07-0.09-0.06c-0.04,0.01-0.07,0.05-0.06,0.09
						c0.84,4.84,1.6,9.69,2.32,14.54c0.74,4.85,1.43,9.71,2.04,14.57c0.6,4.87,1.07,9.75,1.68,14.6l1.79,14.6
						c0,0.04,0.03,0.07,0.07,0.07c0.04,0,0.08-0.03,0.08-0.07c0.06-1.23,0.06-2.46,0.09-3.69c0.01-1.23-0.05-2.46-0.07-3.69
						C258.18,294.2,257.97,291.75,257.79,289.29z"/>
					<path style="fill:#263238;" d="M254.85,289.22c-0.26-1.94-0.62-3.87-0.99-5.8l-0.69-2.86c-0.23-0.95-0.44-1.91-0.72-2.85
						c-0.98-3.8-2.23-7.54-3.75-11.16l-0.59-1.35l-0.65-1.32c-0.42-0.89-0.92-1.74-1.4-2.59c-1.03-1.67-2.09-3.34-3.54-4.69
						c-0.03-0.03-0.08-0.03-0.11,0c-0.03,0.03-0.03,0.08,0,0.11l0.01,0.01c1.34,1.39,2.32,3.11,3.24,4.8
						c0.43,0.87,0.88,1.73,1.24,2.63l0.58,1.34l0.51,1.36c1.36,3.63,2.45,7.36,3.27,11.16c0.45,1.89,0.74,3.81,1.11,5.71l0.46,2.88
						c0.17,0.96,0.37,1.91,0.51,2.87c0.31,1.92,0.66,3.83,0.99,5.75c0.3,1.92,0.65,3.85,1.05,5.77c0.01,0.03,0.04,0.06,0.08,0.06
						c0.04,0,0.08-0.03,0.08-0.08c0.01-1.96-0.04-3.92-0.14-5.88C255.28,293.12,255.05,291.17,254.85,289.22z"/>
					<path style="fill:#263238;" d="M250.79,289.47c-0.91-2.57-1.96-5.09-3.11-7.56c-1.18-2.46-2.45-4.87-3.91-7.16
						c-0.02-0.03-0.07-0.05-0.1-0.02c-0.04,0.02-0.05,0.07-0.03,0.1c1.28,2.38,2.36,4.87,3.34,7.39c1,2.51,1.89,5.05,2.65,7.64
						c0.77,2.58,1.32,5.22,2,7.81c0.72,2.59,1.31,5.21,2.1,7.84c0.01,0.03,0.04,0.06,0.07,0.06c0.04,0,0.08-0.03,0.08-0.08
						c0.04-2.74-0.23-5.48-0.76-8.16C252.64,294.63,251.69,292.04,250.79,289.47z"/>
					<path style="fill:#263238;" d="M250.62,298.04c-0.46-1.61-1.26-3.11-2.16-4.53c-0.89-1.42-1.91-2.77-3.14-3.91
						c-0.63-0.55-1.28-1.08-2-1.51c-0.71-0.44-1.46-0.81-2.27-1.03c-0.04-0.01-0.07,0.01-0.09,0.04c-0.02,0.04,0,0.08,0.04,0.1
						l0.01,0c1.47,0.65,2.71,1.74,3.76,2.92c1.06,1.19,1.91,2.55,2.62,3.97c0.74,1.41,1.13,2.97,1.78,4.42
						c0.29,0.74,0.57,1.49,0.9,2.24c0.28,0.76,0.59,1.51,0.99,2.27l0,0c0.01,0.02,0.04,0.04,0.07,0.04c0.04,0,0.08-0.03,0.08-0.08
						c0.03-0.84-0.01-1.67-0.09-2.51C250.99,299.68,250.82,298.86,250.62,298.04z"/>
				</g>
				<path style="fill:#CFD1D2;" d="M250.92,252.73c0,0-8.04-1.86-9.89-10.51c-1.86-8.66,4.12-4.95-1.24-18.55
					c-5.36-13.6-4.12-16.7-2.27-20.61c1.86-3.92,2.89-2.68,4.53,2.47c1.65,5.15,7.63,13.19,9.89,28.24
					C254.22,248.81,250.92,252.73,250.92,252.73z"/>
				<path style="fill:#CFD1D2;" d="M266.8,238.09c0,0-5.36-1.86-5.57-11.96c-0.21-10.1,3.92-8.04,4.53-20.61
					c0.62-12.57,1.44-21.44,3.71-21.64c2.27-0.21,8.25,6.18,10.31,20.2c2.06,14.02-2.68,23.29-6.8,27.41
					C268.86,235.62,266.8,238.09,266.8,238.09z"/>
				<path style="fill:#CFD1D2;" d="M248.04,264.89c0,0-1.24-7.42-3.71-10.92c-2.47-3.5-7.83-6.6-11.34-13.4
					c-3.5-6.8-7.42-10.1-7.21-0.41c0.21,9.69,4.53,14.64,9.89,17.93C241.03,261.38,248.04,264.89,248.04,264.89z"/>
				<path style="fill:#CFD1D2;" d="M245.77,277.67c0,0-4.95-9.48-12.16-16.49c-7.21-7.01-12.99-10.51-10.93-7.01
					c2.06,3.5,4.53,3.3,8.04,9.48c3.5,6.18,2.47,10.72,7.42,14.22C243.09,281.38,245.77,277.67,245.77,277.67z"/>
				<path style="fill:#CFD1D2;" d="M245.15,289.83c-0.21-0.62-0.41-5.15-7.42-8.86c-7.01-3.71-13.6-2.27-12.78-0.41
					c0.82,1.86,5.15,4.95,9.48,6.8C238.76,289.21,245.15,289.83,245.15,289.83z"/>
				<path style="fill:#CFD1D2;" d="M266.38,265.3c0,0-3.09-3.92-1.44-12.16c1.65-8.25,5.36-6.18,9.48-10.51
					c4.12-4.33,3.3-4.95,7.42-9.48c4.12-4.53,7.83-7.01,9.48-5.15c1.65,1.86-0.82,7.63-3.3,10.92c-2.47,3.3-6.39,4.95-8.25,9.07
					c-1.86,4.12-1.03,10.72-5.77,13.81C269.27,264.89,266.38,265.3,266.38,265.3z"/>
				<path style="fill:#CFD1D2;" d="M276.69,267.57c0,0,7.42-8.45,12.78-14.64c5.36-6.18,7.42-10.92,7.63-6.8
					c0.21,4.12,1.86,7.42-2.47,12.78C290.29,264.27,276.69,267.57,276.69,267.57z"/>
				<path style="fill:#CFD1D2;" d="M272.77,281.17c0,0-0.21-3.3,11.54-10.92c11.75-7.63,16.7-9.07,15.46-5.98
					c-1.24,3.09-6.39,6.18-11.96,11.75C282.25,281.58,272.77,281.17,272.77,281.17z"/>
				<path style="fill:none;stroke:#263238;stroke-linecap:round;stroke-linejoin:round;stroke-miterlimit:10;" d="M251.41,251.85
					c0,0-2.76-14.79-5.64-25.3c-2.89-10.51-4.74-16.9-4.74-16.9"/>
				<path style="fill:none;stroke:#263238;stroke-linecap:round;stroke-linejoin:round;stroke-miterlimit:10;" d="M266.32,238.25
					c0,0,5.01-16.03,6.66-25.72c1.65-9.69-0.21-16.9-1.03-21.23"/>
				<path style="fill:none;stroke:#263238;stroke-linecap:round;stroke-linejoin:round;stroke-miterlimit:10;" d="M247.39,264.58
					c0,0-3.06-5.46-7.6-10.82c-4.53-5.36-8.04-8.24-10.1-13.4"/>
				<path style="fill:none;stroke:#263238;stroke-linecap:round;stroke-linejoin:round;stroke-miterlimit:10;" d="M266.38,265.3
					c0,0,1.65-9.89,5.57-15.05c3.92-5.15,11.75-13.19,14.84-18.35"/>
				<path style="fill:none;stroke:#263238;stroke-linecap:round;stroke-linejoin:round;stroke-miterlimit:10;" d="M244.67,289.6
					c0,0-6.94-4.52-11.88-6.99"/>
			</g>
			<g>
				<g>
					<path style="fill:#C7AD6D;" d="M284.38,331.15c-0.46-12.51-14.36-20.85-14.36-20.85h-8.79h-3.72h-8.79
						c0,0-13.9,8.34-14.36,20.85c-0.46,12.51,15.75,58.37,15.75,58.37h7.4h3.72h7.4C268.63,389.52,284.85,343.66,284.38,331.15z"/>
					<polygon style="fill:#C7AD6D;" points="272.76,298.01 245.59,298.01 248.72,310.31 269.63,310.31 					"/>
				</g>
			</g>
		</g>
		<g>
			<g>
				<g>
					<path style="fill:none;stroke:#263238;stroke-linecap:round;stroke-linejoin:round;" d="M710.14,87.62c0,0-0.48,0.74-1.42,2.06
						"/>
					<path style="fill:none;stroke:#263238;stroke-linecap:round;stroke-linejoin:round;stroke-dasharray:4.9819,4.9819;" d="
						M705.76,93.68c-11.31,14.74-43.77,51.52-88.1,54.69c-55.57,3.97-108.49-84.02-164.06-109.82
						c-54.42-25.26-124.06-15.64-184.07,34.46"/>
					<path style="fill:none;stroke:#263238;stroke-linecap:round;stroke-linejoin:round;" d="M267.62,74.63
						c-0.63,0.54-1.26,1.08-1.9,1.63"/>
				</g>
			</g>
			<g>
				<polygon style="fill:#FFFFFF;stroke:#263238;stroke-linecap:round;stroke-linejoin:round;stroke-miterlimit:10;" points="
					732.05,55.28 690.08,70.54 708.4,77.41 				"/>
				<polygon style="fill:#FFFFFF;stroke:#263238;stroke-linecap:round;stroke-linejoin:round;stroke-miterlimit:10;" points="
					708.4,77.41 710.14,87.62 713.27,79.02 732.05,55.28 				"/>
				<polygon style="fill:#FFFFFF;stroke:#263238;stroke-linecap:round;stroke-linejoin:round;stroke-miterlimit:10;" points="
					710.14,87.62 732.05,55.28 713.27,79.02 				"/>
				<polygon style="fill:#FFFFFF;stroke:#263238;stroke-linecap:round;stroke-linejoin:round;stroke-miterlimit:10;" points="
					732.05,55.28 713.27,79.02 730.47,86.84 				"/>
			</g>
		</g>
		<g>
			
				<path style="fill:none;stroke:#263238;stroke-linecap:round;stroke-linejoin:round;stroke-miterlimit:10;stroke-dasharray:5,5;" d="
				M273.87,162.29c0,0,23.61,71.22,78.9,112.39c55.29,41.17,191.62,61.64,253.56,37.49c61.94-24.15,152.11-56.14,196.58-37.67
				c44.46,18.47,34.32,53.64,14.12,65.57c-20.2,11.93-30.73,15.26-93.41-14.67c-62.68-29.93-137.77-84.62-137.77-84.62"/>
			<g>
				<polygon style="fill:#FFFFFF;stroke:#263238;stroke-linecap:round;stroke-linejoin:round;stroke-miterlimit:10;" points="
					256.59,121.08 295.33,143.31 276.11,146.94 				"/>
				<polygon style="fill:#FFFFFF;stroke:#263238;stroke-linecap:round;stroke-linejoin:round;stroke-miterlimit:10;" points="
					276.11,146.94 272.64,156.71 271.03,147.7 256.59,121.08 				"/>
				<polygon style="fill:#FFFFFF;stroke:#263238;stroke-linecap:round;stroke-linejoin:round;stroke-miterlimit:10;" points="
					272.64,156.71 256.59,121.08 271.03,147.7 				"/>
				<polygon style="fill:#FFFFFF;stroke:#263238;stroke-linecap:round;stroke-linejoin:round;stroke-miterlimit:10;" points="
					256.59,121.08 271.03,147.7 252.75,152.45 				"/>
			</g>
		</g>
		<g style="opacity:0.3;">
			<polygon style="fill:none;stroke:#263238;stroke-linecap:round;stroke-linejoin:round;stroke-miterlimit:10;" points="
				581.04,38.43 582.75,43.68 588.27,43.68 583.8,46.92 585.51,52.17 581.04,48.93 576.58,52.17 578.28,46.92 573.82,43.68 
				579.34,43.68 			"/>
			<polygon style="fill:none;stroke:#263238;stroke-linecap:round;stroke-linejoin:round;stroke-miterlimit:10;" points="
				600.24,38.43 601.95,43.68 607.47,43.68 603,46.92 604.71,52.17 600.24,48.93 595.78,52.17 597.48,46.92 593.02,43.68 
				598.54,43.68 			"/>
			<polygon style="fill:none;stroke:#263238;stroke-linecap:round;stroke-linejoin:round;stroke-miterlimit:10;" points="
				619.44,38.43 621.14,43.68 626.66,43.68 622.2,46.92 623.9,52.17 619.44,48.93 614.97,52.17 616.68,46.92 612.21,43.68 
				617.73,43.68 			"/>
			<polygon style="fill:none;stroke:#263238;stroke-linecap:round;stroke-linejoin:round;stroke-miterlimit:10;" points="
				638.64,38.43 640.34,43.68 645.86,43.68 641.4,46.92 643.1,52.17 638.64,48.93 634.17,52.17 635.88,46.92 631.41,43.68 
				636.93,43.68 			"/>
			<polygon style="fill:none;stroke:#263238;stroke-linecap:round;stroke-linejoin:round;stroke-miterlimit:10;" points="
				657.83,38.43 659.54,43.68 665.06,43.68 660.59,46.92 662.3,52.17 657.83,48.93 653.37,52.17 655.07,46.92 650.61,43.68 
				656.13,43.68 			"/>
		</g>
		<g style="opacity:0.3;">
			<polygon style="fill:none;stroke:#263238;stroke-linecap:round;stroke-linejoin:round;stroke-miterlimit:10;" points="
				575.09,344.34 576.79,349.59 582.31,349.59 577.85,352.83 579.55,358.08 575.09,354.84 570.62,358.08 572.33,352.83 
				567.86,349.59 573.38,349.59 			"/>
			<polygon style="fill:none;stroke:#263238;stroke-linecap:round;stroke-linejoin:round;stroke-miterlimit:10;" points="
				594.29,344.34 595.99,349.59 601.51,349.59 597.05,352.83 598.75,358.08 594.29,354.84 589.82,358.08 591.53,352.83 
				587.06,349.59 592.58,349.59 			"/>
			<polygon style="fill:none;stroke:#263238;stroke-linecap:round;stroke-linejoin:round;stroke-miterlimit:10;" points="
				613.48,344.34 615.19,349.59 620.71,349.59 616.24,352.83 617.95,358.08 613.48,354.84 609.02,358.08 610.72,352.83 
				606.26,349.59 611.78,349.59 			"/>
			<polygon style="fill:none;stroke:#263238;stroke-linecap:round;stroke-linejoin:round;stroke-miterlimit:10;" points="
				632.68,344.34 634.39,349.59 639.91,349.59 635.44,352.83 637.15,358.08 632.68,354.84 628.22,358.08 629.92,352.83 
				625.46,349.59 630.98,349.59 			"/>
			<polygon style="fill:none;stroke:#263238;stroke-linecap:round;stroke-linejoin:round;stroke-miterlimit:10;" points="
				651.88,344.34 653.58,349.59 659.1,349.59 654.64,352.83 656.34,358.08 651.88,354.84 647.41,358.08 649.12,352.83 
				644.65,349.59 650.17,349.59 			"/>
		</g>
		<g style="opacity:0.3;">
			<polygon style="fill:none;stroke:#263238;stroke-linecap:round;stroke-linejoin:round;stroke-miterlimit:10;" points="
				248.34,95.74 250.05,100.99 255.57,100.99 251.1,104.24 252.81,109.48 248.34,106.24 243.88,109.48 245.58,104.24 241.12,100.99 
				246.64,100.99 			"/>
			<polygon style="fill:none;stroke:#263238;stroke-linecap:round;stroke-linejoin:round;stroke-miterlimit:10;" points="
				267.54,95.74 269.25,100.99 274.76,100.99 270.3,104.24 272,109.48 267.54,106.24 263.07,109.48 264.78,104.24 260.32,100.99 
				265.83,100.99 			"/>
			<polygon style="fill:none;stroke:#263238;stroke-linecap:round;stroke-linejoin:round;stroke-miterlimit:10;" points="
				286.74,95.74 288.44,100.99 293.96,100.99 289.5,104.24 291.2,109.48 286.74,106.24 282.27,109.48 283.98,104.24 279.51,100.99 
				285.03,100.99 			"/>
			<polygon style="fill:none;stroke:#263238;stroke-linecap:round;stroke-linejoin:round;stroke-miterlimit:10;" points="
				305.93,95.74 307.64,100.99 313.16,100.99 308.69,104.24 310.4,109.48 305.93,106.24 301.47,109.48 303.18,104.24 298.71,100.99 
				304.23,100.99 			"/>
			<polygon style="fill:none;stroke:#263238;stroke-linecap:round;stroke-linejoin:round;stroke-miterlimit:10;" points="
				325.13,95.74 326.84,100.99 332.36,100.99 327.89,104.24 329.6,109.48 325.13,106.24 320.67,109.48 322.37,104.24 317.91,100.99 
				323.43,100.99 			"/>
		</g>
		<g>
			<g>
				<path style="fill:#C7AD6D;" d="M522.46,323.14v45.95c0,5.36-4.35,9.71-9.71,9.71h-77.47c-5.36,0-9.71-4.35-9.71-9.71v-45.95
					h-14.16v47.72c0,7.01,5.68,12.68,12.68,12.68h99.84c7.01,0,12.68-5.68,12.68-12.68v-47.72H522.46z"/>
				<path style="fill:#FFFFFF;stroke:#263238;stroke-linecap:round;stroke-linejoin:round;stroke-miterlimit:10;" d="M534.29,323.14
					v45.95c0,5.36-4.35,9.71-9.71,9.71h-86.65c-5.36,0-9.71-4.35-9.71-9.71v-45.95h-4.98v47.72c0,7.01,5.68,12.68,12.68,12.68h90.67
					c7.01,0,12.68-5.68,12.68-12.68v-47.72H534.29z"/>
				<rect x="372.47" y="383.16" style="fill:#C7AD6D;" width="200.23" height="6.36"/>
				
					<rect x="421.9" y="383.16" style="fill:#FFFFFF;stroke:#263238;stroke-linecap:round;stroke-linejoin:round;stroke-miterlimit:10;" width="150.8" height="6.36"/>
			</g>
			<g>
				<path style="fill:#C7AD6D;" d="M627.71,330.42H320.49c-4.71,0-8.52-3.81-8.52-8.52V87.8c0-4.71,3.81-8.52,8.52-8.52h307.22
					c4.71,0,8.52,3.81,8.52,8.52v234.1C636.23,326.61,632.42,330.42,627.71,330.42z"/>
				<path style="fill:#CFD1D2;" d="M634.86,330.42H327.65c-4.71,0-8.52-3.81-8.52-8.52V87.8c0-4.71,3.81-8.52,8.52-8.52h307.22
					c4.71,0,8.52,3.81,8.52,8.52v234.1C643.39,326.61,639.57,330.42,634.86,330.42z"/>
				<path style="fill:#FFFFFF;stroke:#263238;stroke-linecap:round;stroke-linejoin:round;stroke-miterlimit:10;" d="M637.26,306.26
					H325.24V92.54c0-4.71,3.81-8.52,8.52-8.52h294.98c4.71,0,8.52,3.81,8.52,8.52V306.26z"/>
			</g>
		</g>
		<g>
			<path style="fill:#CFD1D2;" d="M592.78,122.92c-5.45-13.56-19.41-21.69-33.88-19.66c-48.69,6.85-192.26,28.26-195.43,42.83
				c-3.82,17.55-10.68,119.05,5.34,122.86c16.03,3.82,235.04,12.97,242.67-6.87C617.26,247.06,609.04,163.35,592.78,122.92z"/>
			<path style="opacity:0.7;fill:#FFFFFF;" d="M592.78,122.92c-5.45-13.56-19.41-21.69-33.88-19.66
				c-48.69,6.85-192.26,28.26-195.43,42.83c-3.82,17.55-10.68,119.05,5.34,122.86c16.03,3.82,235.04,12.97,242.67-6.87
				C617.26,247.06,609.04,163.35,592.78,122.92z"/>
		</g>
		<g>
			<g>
				
					<ellipse transform="matrix(0.9951 -0.0989 0.0989 0.9951 -13.889 51.4962)" style="fill:#FFFFFF;stroke:#263238;stroke-linecap:round;stroke-linejoin:round;stroke-miterlimit:10;" cx="512.28" cy="165.79" rx="18.2" ry="18.2"/>
				<path style="fill:#FFFFFF;stroke:#263238;stroke-linecap:round;stroke-linejoin:round;stroke-miterlimit:10;" d="M501.77,177.7
					c2.01-3.74,5.96-6.29,10.51-6.29c4.38,0,8.22,2.37,10.28,5.9"/>
				<path style="fill:#C7AD6D;" d="M507.95,162.42c0,2.08-0.61,3.76-1.37,3.76c-0.76,0-1.37-1.68-1.37-3.76
					c0-2.08,0.61-3.76,1.37-3.76C507.34,158.66,507.95,160.35,507.95,162.42z"/>
				<path style="fill:#C7AD6D;" d="M518.21,162.42c0,2.08-0.61,3.76-1.37,3.76c-0.76,0-1.37-1.68-1.37-3.76
					c0-2.08,0.61-3.76,1.37-3.76C517.6,158.66,518.21,160.35,518.21,162.42z"/>
			</g>
			<g>
				
					<ellipse transform="matrix(0.3875 -0.9219 0.9219 0.3875 172.5267 518.4678)" style="fill:#FFFFFF;stroke:#263238;stroke-linecap:round;stroke-linejoin:round;stroke-miterlimit:10;" cx="476.44" cy="129.4" rx="18.2" ry="18.2"/>
				<path style="fill:#FFFFFF;stroke:#263238;stroke-linecap:round;stroke-linejoin:round;stroke-miterlimit:10;" d="M486.72,133.6
					c-2.01,3.74-5.96,6.29-10.51,6.29c-4.38,0-8.22-2.37-10.28-5.9"/>
				<path style="fill:#C7AD6D;" d="M472.11,126.04c0,2.08-0.61,3.76-1.37,3.76c-0.76,0-1.37-1.68-1.37-3.76
					c0-2.08,0.61-3.76,1.37-3.76C471.5,122.27,472.11,123.96,472.11,126.04z"/>
				<path style="fill:#C7AD6D;" d="M482.37,126.04c0,2.08-0.61,3.76-1.37,3.76s-1.37-1.68-1.37-3.76c0-2.08,0.61-3.76,1.37-3.76
					S482.37,123.96,482.37,126.04z"/>
			</g>
			<g>
				
					<ellipse transform="matrix(0.3875 -0.9219 0.9219 0.3875 94.4274 526.9424)" style="fill:#FFFFFF;stroke:#263238;stroke-linecap:round;stroke-linejoin:round;stroke-miterlimit:10;" cx="443.77" cy="192.41" rx="18.2" ry="18.2"/>
				<path style="fill:#C7AD6D;" d="M439.44,189.05c0,2.08-0.61,3.76-1.37,3.76s-1.37-1.68-1.37-3.76c0-2.08,0.61-3.76,1.37-3.76
					S439.44,186.97,439.44,189.05z"/>
				<path style="fill:#C7AD6D;" d="M449.7,189.05c0,2.08-0.61,3.76-1.37,3.76c-0.76,0-1.37-1.68-1.37-3.76
					c0-2.08,0.61-3.76,1.37-3.76C449.09,185.28,449.7,186.97,449.7,189.05z"/>
				
					<line style="fill:none;stroke:#263238;stroke-linecap:round;stroke-linejoin:round;stroke-miterlimit:10;" x1="435.14" y1="181.74" x2="441.38" y2="185.7"/>
				
					<line style="fill:none;stroke:#263238;stroke-linecap:round;stroke-linejoin:round;stroke-miterlimit:10;" x1="451.29" y1="181.74" x2="445.06" y2="185.7"/>
				
					<line style="fill:none;stroke:#263238;stroke-linecap:round;stroke-linejoin:round;stroke-miterlimit:10;" x1="441.09" y1="200.15" x2="445.91" y2="200.15"/>
			</g>
			<g>
				
					<rect x="431.28" y="217.27" style="fill:#ADADAD;stroke:#263238;stroke-linecap:round;stroke-linejoin:round;stroke-miterlimit:10;" width="22.96" height="71.95"/>
				<rect x="464.63" y="153.6" style="fill:#CFD1D2;" width="22.96" height="135.62"/>
				<rect x="498.42" y="188.68" style="fill:#C7AD6D;" width="22.96" height="100.53"/>
			</g>
		</g>
		<g>
			<polygon style="fill:#C7AD6D;" points="440.39,88.47 442.1,93.72 447.62,93.72 443.15,96.96 444.86,102.21 440.39,98.97 
				435.93,102.21 437.64,96.96 433.17,93.72 438.69,93.72 			"/>
			<polygon style="fill:#C7AD6D;" points="459.59,88.47 461.3,93.72 466.82,93.72 462.35,96.96 464.06,102.21 459.59,98.97 
				455.13,102.21 456.83,96.96 452.37,93.72 457.89,93.72 			"/>
			<polygon style="fill:#C7AD6D;" points="478.79,88.47 480.5,93.72 486.01,93.72 481.55,96.96 483.25,102.21 478.79,98.97 
				474.32,102.21 476.03,96.96 471.57,93.72 477.08,93.72 			"/>
			<polygon style="fill:#C7AD6D;" points="497.99,88.47 499.69,93.72 505.21,93.72 500.75,96.96 502.45,102.21 497.99,98.97 
				493.52,102.21 495.23,96.96 490.76,93.72 496.28,93.72 			"/>
			<polygon style="fill:#C7AD6D;" points="517.19,88.47 518.89,93.72 524.41,93.72 519.94,96.96 521.65,102.21 517.19,98.97 
				512.72,102.21 514.43,96.96 509.96,93.72 515.48,93.72 			"/>
		</g>
		<g>
			<polygon style="fill:#263238;" points="340.94,216.9 342.65,222.15 348.17,222.15 343.7,225.39 345.41,230.64 340.94,227.4 
				336.48,230.64 338.18,225.39 333.72,222.15 339.24,222.15 			"/>
			<polygon style="fill:#263238;" points="360.14,216.9 361.84,222.15 367.36,222.15 362.9,225.39 364.6,230.64 360.14,227.4 
				355.67,230.64 357.38,225.39 352.91,222.15 358.43,222.15 			"/>
			<polygon style="opacity:0.2;fill:#263238;" points="379.34,216.9 381.04,222.15 386.56,222.15 382.1,225.39 383.8,230.64 
				379.34,227.4 374.87,230.64 376.58,225.39 372.11,222.15 377.63,222.15 			"/>
			<polygon style="opacity:0.2;fill:#263238;" points="398.53,216.9 400.24,222.15 405.76,222.15 401.29,225.39 403,230.64 
				398.53,227.4 394.07,230.64 395.77,225.39 391.31,222.15 396.83,222.15 			"/>
			<polygon style="opacity:0.2;fill:#263238;" points="417.73,216.9 419.44,222.15 424.96,222.15 420.49,225.39 422.2,230.64 
				417.73,227.4 413.27,230.64 414.97,225.39 410.51,222.15 416.03,222.15 			"/>
		</g>
		<g>
			<polygon style="fill:#263238;" points="538.17,178.36 539.87,183.61 545.39,183.61 540.93,186.86 542.63,192.1 538.17,188.86 
				533.7,192.1 535.41,186.86 530.94,183.61 536.46,183.61 			"/>
			<polygon style="fill:#263238;" points="557.36,178.36 559.07,183.61 564.59,183.61 560.12,186.86 561.83,192.1 557.36,188.86 
				552.9,192.1 554.6,186.86 550.14,183.61 555.66,183.61 			"/>
			<polygon style="fill:#263238;" points="576.56,178.36 578.27,183.61 583.79,183.61 579.32,186.86 581.03,192.1 576.56,188.86 
				572.1,192.1 573.8,186.86 569.34,183.61 574.86,183.61 			"/>
			<polygon style="opacity:0.2;fill:#263238;" points="595.76,178.36 597.46,183.61 602.98,183.61 598.52,186.86 600.22,192.1 
				595.76,188.86 591.29,192.1 593,186.86 588.53,183.61 594.05,183.61 			"/>
			<polygon style="opacity:0.2;fill:#263238;" points="614.96,178.36 616.66,183.61 622.18,183.61 617.72,186.86 619.42,192.1 
				614.96,188.86 610.49,192.1 612.2,186.86 607.73,183.61 613.25,183.61 			"/>
		</g>
		<path style="fill:#C7AD6D;" d="M585.53,207.14"/>
		<g>
			<polygon style="fill:#FFFFFF;stroke:#263238;stroke-linecap:round;stroke-linejoin:round;stroke-miterlimit:10;" points="
				737.65,340.15 736.22,366.75 728.24,365.93 725.38,341.18 			"/>
			<path style="fill:#C7AD6D;" d="M739.49,364.3l-16.78,0.2l0.2,4.71c0,0-2.05-5.73-2.25-2.66c-0.2,3.07,1.64,7.37,1.43,8.18
				c-0.2,0.82-0.82,3.27-7.77,5.93c-6.96,2.66-8.8,3.68-7.98,5.11c0.82,1.43,5.52,3.27,12.48,3.27s12.28-2.66,12.28-2.66l0.2,2.25
				l8.18-0.2c0,0,1.43-3.07,0.82-6.96c-0.61-3.89-1.43-7.37-1.23-8.59C739.29,371.66,739.49,364.3,739.49,364.3z"/>
			<polygon style="fill:#FFFFFF;stroke:#263238;stroke-linecap:round;stroke-linejoin:round;stroke-miterlimit:10;" points="
				715.56,339.75 720.47,368.8 729.06,368.8 731.72,339.34 			"/>
			<path style="fill:#C7AD6D;" d="M733.56,364.3l-16.78,0.2l0.2,4.71c0,0-2.05-5.73-2.25-2.66c-0.2,3.07,1.64,7.37,1.43,8.18
				c-0.2,0.82-0.82,3.27-7.77,5.93c-6.96,2.66-8.8,3.68-7.98,5.11c0.82,1.43,4.38,3.74,11.33,3.74c6.96,0,12.85-2.02,12.85-2.02
				l0.78,1.43l8.18-0.2c0,0,1.43-3.36,0.82-7.24c-0.61-3.89-1.43-7.37-1.23-8.59C733.36,371.66,733.56,364.3,733.56,364.3z"/>
			<path style="fill:#C7AD6D;" d="M697.76,259.54l-2.46,82.86c0,0,13.09,2.05,24.96,2.25c11.87,0.2,28.03-3.68,28.03-3.68
				l-6.34-85.93l-44.19-1.02V259.54z"/>
			<path style="fill:#FFFFFF;stroke:#263238;stroke-linecap:round;stroke-linejoin:round;stroke-miterlimit:10;" d="M713.11,184.2
				c0,0-4.53,7.33-6.04,12.93c-1.51,5.6-4.96,61.87-4.96,61.87l39.02,0.22c0,0-1.94-45.27-6.25-60.14
				c-4.31-14.87-7.65-17.42-7.65-17.42L713.11,184.2z"/>
			<g>
				<path style="fill:#FFFFFF;stroke:#263238;stroke-linecap:round;stroke-linejoin:round;stroke-miterlimit:10;" d="M711.9,147.83
					c0,0-2.14,2.68-3.39,4.64c-1.25,1.96-3.03,3.03-4.28,3.21c-1.25,0.18-2.5,1.07-1.43,3.03c1.07,1.96,2.14,3.21,2.14,3.21
					s-0.36,8.75,1.25,9.28c1.61,0.54,6.96-0.18,6.96-0.18l0.36,8.92l11.78-2.5l-0.36-11.6c0,0,0.89-7.68-4.46-13.03
					C715.11,147.47,711.9,147.83,711.9,147.83z"/>
				<path style="fill:#263238;" d="M710.75,155.26c-0.09,0.9-0.55,1.58-1.02,1.54c-0.47-0.05-0.78-0.81-0.68-1.71
					c0.09-0.9,0.55-1.58,1.02-1.54C710.54,153.6,710.85,154.36,710.75,155.26z"/>
				<path style="fill:none;stroke:#263238;stroke-linecap:round;stroke-linejoin:round;stroke-miterlimit:10;" d="M706.68,162.53
					c0,0,1.55,0.78,4-0.56"/>
				<path style="fill:none;stroke:#263238;stroke-linecap:round;stroke-linejoin:round;stroke-miterlimit:10;" d="M710.02,151.43
					c0,0,1.22-0.78,2.33,1"/>
			</g>
			<path style="fill:#FFFFFF;stroke:#263238;stroke-linecap:round;stroke-linejoin:round;stroke-miterlimit:10;" d="M722.17,174.42
				c0,0-13.03,2.9-13.03,4.2s1.3,7.24,1.3,7.24l16.8-4.2l-1.59-7.96L722.17,174.42z"/>
			<g>
				<path style="fill:#CFD1D2;" d="M727.77,177.52c0,0-20.26,15.52-23.71,25.22c-3.45,9.7-9.48,59.28-7.54,59.5
					c1.94,0.22,14.44,3.23,27.16,2.8c12.72-0.43,23.93-3.66,24.57-4.1c0.65-0.43-1.08-15.09-4.1-34.71
					c-3.02-19.62-8.41-33.2-10.78-38.37C731,182.69,727.77,177.52,727.77,177.52z"/>
				<polyline style="fill:none;stroke:#263238;stroke-linecap:round;stroke-linejoin:round;stroke-miterlimit:10;" points="
					725.32,186.97 718.02,195.13 712.26,196.44 712.26,199.59 702.83,214.52 				"/>
				
					<line style="fill:none;stroke:#263238;stroke-linecap:round;stroke-linejoin:round;stroke-miterlimit:10;" x1="729.03" y1="182.82" x2="727.17" y2="184.9"/>
			</g>
			<g>
				<g>
					<path style="fill:#ADADAD;stroke:#263238;stroke-linecap:round;stroke-linejoin:round;stroke-miterlimit:10;" d="M713.22,274.3
						c0,0-4.67-0.12-5.25,1.33s-1.95,9.91-1.95,9.91l3.29,0.07c0,0,0.7-7.49,1.43-8.36c0.73-0.87,11.34-1.36,12.35-0.63
						c1.02,0.73,1.31,8.56,1.31,8.56h3.77c0,0-1.31-7.69-2.9-9.86C723.66,273.14,713.22,274.3,713.22,274.3z"/>
					<path style="fill:#ADADAD;stroke:#263238;stroke-linecap:round;stroke-linejoin:round;stroke-miterlimit:10;" d="M735.77,284.6
						c0,0-34.8,0-36.98,0.15c-2.18,0.15-3.63,1.74-3.63,3.77c0,2.03-2.47,31.03-1.45,32.05c1.02,1.01,40.46,2.18,43.5,2.03
						s4.5-2.61,4.5-4.06s-2.18-31.61-2.61-32.77C738.67,284.6,735.77,284.6,735.77,284.6z"/>
					<path style="fill:#ADADAD;stroke:#263238;stroke-linecap:round;stroke-linejoin:round;stroke-miterlimit:10;" d="
						M733.49,292.93c2-2.16,3.4-3.78,3.57-4.18c0.64-1.44,0.48-2.4,0.48-2.4"/>
					<path style="fill:#ADADAD;stroke:#263238;stroke-linecap:round;stroke-linejoin:round;stroke-miterlimit:10;" d="M696.7,288.11
						c0,0,16.88,21.28,19.92,20.48c1.88-0.5,9.03-7.44,14.35-12.99"/>
				</g>
				<g>
					<path style="fill:#FFFFFF;stroke:#263238;stroke-linecap:round;stroke-linejoin:round;stroke-miterlimit:10;" d="
						M711.92,269.82c0,0-1.61,8.9-0.15,9.78c1.46,0.88,3.65-0.44,3.65-0.44s1.02,0.29,2.04,0.15c1.02-0.15,2.77-1.02,2.77-1.02
						s0.88,0.58,1.61-0.29c0.73-0.88,0.73-7.59,0.73-7.59L711.92,269.82z"/>
					<path style="fill:#CFD1D2;" d="M723.51,194.55c0,0-6.9,1.08-10.13,7.33s-2.64,40.96-2.64,40.96l-0.22,28.46l12.72,0.43
						l10.35-57.56"/>
				</g>
			</g>
			<path style="fill:#263238;" d="M736.35,144.97c0,0-3.03-4.46-6.6-5.71c-3.57-1.25-21.24-0.89-21.6,1.25
				c-0.36,2.14,0,5.35,3.21,9.64c3.21,4.28,6.96,9.82,6.96,9.82s0.89,5.18,1.43,8.21c0.54,3.03-0.18,9.64-0.18,9.64
				s3.75,0.54,11.07,0.18c7.32-0.36,10.53-1.78,10.53-1.78s-1.78-1.96-2.14-10.71C738.68,156.75,736.35,144.97,736.35,144.97z"/>
			<path style="fill:#263238;" d="M734.63,138.85c0,0-5.53,5-3.39,10.35s4.64,9.28,8.21,9.1c3.57-0.18,6.78-2.14,9.82-6.25
				c3.03-4.11,2.86-9.46-1.61-12.49C743.2,136.53,735.52,137.43,734.63,138.85z"/>
			<path style="fill:#FFFFFF;stroke:#263238;stroke-linecap:round;stroke-linejoin:round;stroke-miterlimit:10;" d="M716.36,162.11
				c0,0,4.11-4.82,5.71-2.5s-0.71,5.71-2.14,6.43c-1.43,0.71-1.43,0.71-1.43,0.71l-1.43-0.71"/>
		</g>
		
			<line style="fill:none;stroke:#263238;stroke-linecap:round;stroke-linejoin:round;stroke-miterlimit:10;" x1="207.29" y1="389.52" x2="820.82" y2="389.52"/>
	</g>
</g>
</svg>
