<?xml version="1.0" encoding="utf-8"?>
<!-- Generator: Adobe Illustrator 26.0.0, SVG Export Plug-In . SVG Version: 6.00 Build 0)  -->
<svg version="1.1" xmlns="http://www.w3.org/2000/svg" xmlns:xlink="http://www.w3.org/1999/xlink" x="0px" y="0px"
	 viewBox="0 0 1100 437.89" style="enable-background:new 0 0 1100 437.89;" xml:space="preserve">
<g id="background">
</g>
<g id="shadow">
</g>
<g id="object">
	<rect style="fill:#F9F7E7;" width="1100" height="437.89"/>
	<g>
		<g>
			<g id="XMLID_926_">
				<g id="XMLID_928_">
					<polygon style="fill:#474747;" points="694.82,194.86 693.6,238.47 682.85,312 674.59,312 669.37,244.15 659.59,186.35 					
						"/>
				</g>
				<g id="XMLID_927_">
					<polygon style="fill:#426362;" points="674.64,315.49 683.57,319.96 688.04,315.49 683.57,311.02 674.64,311.02 					"/>
				</g>
			</g>
			<g id="XMLID_923_">
				<g id="XMLID_925_">
					<polygon style="fill:#474747;" points="640.01,185.48 639.85,218.48 650.1,316.05 658.37,316.05 667.51,251.27 674.89,180.35 
											"/>
				</g>
				<g id="XMLID_924_">
					<polygon style="fill:#426362;" points="658.32,319.54 649.38,324.01 644.91,319.54 649.38,315.07 658.32,315.07 					"/>
				</g>
			</g>
			<g id="XMLID_922_">
				<path style="fill:#9EA6AD;" d="M682.26,87.15l-27.71-3.07c0,0-12.38,1.84-22.1,35.87c-9.72,34.03-7.29,103.26-7.29,103.26
					s69.98-9.99,80.99-12.15l-7.69-62.76L682.26,87.15z"/>
			</g>
			<g id="XMLID_919_">
				<g id="XMLID_921_">
					<polygon style="fill:#B97262;" points="633.58,28.38 637.55,19.4 641.01,20.77 639.49,27.46 641.47,27.25 637.24,34.55 
						633.43,33.68 					"/>
				</g>
				<g id="XMLID_920_">
					<polygon style="fill:#767676;" points="655.48,84.18 631.08,75.57 639.4,32.53 631.72,31.23 607.8,81.06 644.21,110.37 					
						"/>
				</g>
			</g>
			<g id="XMLID_916_">
				<g id="XMLID_918_">
					<path style="fill:#B97262;" d="M678.63,54.9c-6.31-2.09-12.83-4.04-19.42-3.43c-1.44,0.14-3.02,0.47-3.91,1.62
						c-0.35,0.44-0.56,0.97-0.76,1.5c-2.25,5.9-5.24,14.67-1.83,20.67c0.65,1.14,1.59,2.09,2.62,2.89c1.37,1.07,2.94,1.86,4.58,2.36
						c-0.5,1.47-1.14,2.9-1.9,4.26c3.2,0.45,6.41,0.9,9.61,1.35c0.26-1.84,0.52-3.68,0.78-5.53c0.87-0.25,1.73-0.58,2.54-1.01
						c3.15-1.64,5.39-4.39,6.86-7.57c1.6-3.46,3.67-6.7,5.17-10.24c0.55-1.29,1.02-2.78,0.45-4.05c-0.61-1.36-2.18-1.96-3.6-2.43
						C679.43,55.16,679.03,55.03,678.63,54.9z"/>
				</g>
				<g id="XMLID_917_">
					<path style="fill:#2E353A;" d="M656.78,56.16c3.4-1.73,8.28-2.12,11.26-1.59c9.01,1.59,11.65,8.59,11.28,16.99
						c2.83-2.92,7.93-6.44,8.63-10.5c0.58-3.32,0.58-7.93-1-11.02c-1.48-2.88-5.81-4.83-8.32-6.67c-2.36-1.73-4.73-3.47-7.09-5.21
						c-0.49-0.36-1-0.73-1.58-0.89c-0.69-0.2-1.43-0.09-2.15,0.02c-6.1,0.93-12.2,1.85-18.3,2.78c-1.17,0.18-2.52,0.48-3.05,1.53
						c-0.32,0.64-0.25,1.41-0.17,2.12c0.36,3.15,1.33,6.44,1.33,9.6c0.18,1.85,0.3,11.27,3.63,10.53c1.1-1.45,1.44-3.33,2.34-4.91
						C654.26,57.78,655.4,56.86,656.78,56.16z"/>
				</g>
			</g>
		</g>
		<g>
			<g>
				<rect x="296.25" y="102.5" style="fill:#E0E0E0;" width="348.75" height="223.62"/>
			</g>
			<g>
				<rect x="296.25" y="85.07" style="fill:#C9AF6D;" width="348.75" height="13.42"/>
			</g>
			<g>
				<rect x="296.25" y="98.48" style="fill:#9EA6AD;" width="348.75" height="17.61"/>
			</g>
			<g style="opacity:0.36;">
				<rect x="332.36" y="104.95" style="fill:#F7F7F7;" width="296.59" height="7.52"/>
			</g>
			<g>
				<g>
					<path style="fill:#868686;" d="M310.85,91.22c0,1.22-0.99,2.21-2.21,2.21c-1.22,0-2.21-0.99-2.21-2.21
						c0-1.22,0.99-2.21,2.21-2.21C309.86,89.01,310.85,90,310.85,91.22z"/>
				</g>
				<g>
					<path style="fill:#868686;" d="M317.32,91.22c0,1.22-0.99,2.21-2.21,2.21c-1.22,0-2.21-0.99-2.21-2.21
						c0-1.22,0.99-2.21,2.21-2.21C316.33,89.01,317.32,90,317.32,91.22z"/>
				</g>
				<g>
					<path style="fill:#868686;" d="M323.78,91.22c0,1.22-0.99,2.21-2.21,2.21c-1.22,0-2.21-0.99-2.21-2.21
						c0-1.22,0.99-2.21,2.21-2.21C322.79,89.01,323.78,90,323.78,91.22z"/>
				</g>
			</g>
			<g style="opacity:0.36;">
				<g>
					<polygon style="fill:#F4F8FD;" points="320.32,105.1 320.32,112.32 322.88,108.71 					"/>
				</g>
				<g>
					<polygon style="fill:#F4F8FD;" points="309.9,112.32 309.9,105.1 307.33,108.71 					"/>
				</g>
			</g>
		</g>
		<g id="XMLID_904_">
			<g id="XMLID_913_">
				<g id="XMLID_915_">
					<path style="fill:#B97262;" d="M732.35,196.03l-4.51-2.35l-4.39,1.22l-0.74-0.73l0.94-0.89c-3.07,0.31-6.73-1.3-7.55-4.51
						c-0.33-1.27-0.13-4.08,1.2-4.85c1.47-0.84,5.6,0.89,7.34,1.16l3.89,2.98l6.32,2.96L732.35,196.03z"/>
				</g>
				<g id="XMLID_914_">
					<polygon style="fill:#C9AF6D;" points="730.36,188.05 772.56,196.34 789.39,178.42 803.48,185.9 785.13,218.31 725.41,196.09 
											"/>
				</g>
			</g>
			<g id="XMLID_910_">
				<g id="XMLID_912_">
					<polygon style="fill:#C9AF6D;" points="832.11,391.67 832.72,396.36 823.2,402.18 817.53,398.06 821.98,392.8 831.5,386.98 
											"/>
				</g>
				<g id="XMLID_911_">
					<polygon style="fill:#9EA6AD;" points="829.58,248.31 831.43,262.55 818.97,326.57 832.44,390.1 822.64,393.08 789.23,317.85 
						787.02,294.71 790.36,246.65 					"/>
				</g>
			</g>
			<g id="XMLID_907_">
				<g id="XMLID_909_">
					<polygon style="fill:#9EA6AD;" points="766.94,253.79 766.13,314.09 779.37,391.84 789.55,391.84 795.98,320.1 809.91,248.36 
											"/>
				</g>
				<g id="XMLID_908_">
					<polygon style="fill:#C9AF6D;" points="789.49,395.53 778.48,400.25 772.98,395.53 778.48,390.8 789.49,390.8 					"/>
				</g>
			</g>
			<g id="XMLID_906_">
				<path style="fill:#C9AF6D;" d="M841.11,272.95c0.14,6.52-0.06,15.32-2.52,15.64c-0.46,0.06-0.9-0.17-1.31-0.4
					c-4.26-2.37-7.27-5.7-11.47-7.98c-4.4-2.4-9.43-3.67-14.37-4.56c-7.38-1.37-14.92-2.22-22.44-2.36
					c-5.37-0.1-11.62-0.3-16.88,0.83c-7.74,1.67-4.63,1.86-9.1,8.37c-2.3-0.85-4.6-1.7-6.9-2.55c-1.1-0.41,3.51-41.76,5.71-46.86
					c5.18-12,10.64-23.85,16.11-35.68c2.32-5.02,4.36-11.98,7.99-15.82c3.56-3.76,10.84-9.07,15.79-9.45
					c4.82-0.37,12.53,3,16.86,5.38c6.1,3.34,7.79,8.72,10.55,14.89c2.53,5.66,5.96,20.84,6.93,26.92c1.17,7.36,2.26,14.74,3.1,22.15
					c0.94,8.26,1.59,16.56,1.72,24.88C840.9,267.27,841.05,269.85,841.11,272.95z"/>
			</g>
			<g id="XMLID_905_">
				<path style="fill:#B5D6CA;" d="M790.34,182.57c0,0-13.37,18.72-20.06,34.76c-3.42,8.2-7.69,34.76-9.36,38.44
					c-1.67,3.68-3.22,24.77-3.22,24.77l5.32,1.96c0,0,6.93-47.12,9.94-56.48c3.01-9.36,7.69-16.38,8.36-24.07
					c0.67-7.69,11.03-19.39,11.03-19.39H790.34z"/>
			</g>
		</g>
		<g>
			<g id="XMLID_903_">
				<polygon style="fill:#B97262;" points="651.52,149.31 646.75,148.47 646.06,149.39 647.15,150.28 643,150.71 640.62,153.14 
					641.4,157.58 644.86,160.71 649.2,159.47 652.92,155.6 654.52,154.55 652.75,148.42 				"/>
			</g>
			<g>
				<path style="fill:#767676;" d="M696.95,96.57c-2.13-2.34-14.69-9.43-14.69-9.43l3.28,43.92l-34.38,17.15l3.12,10.85l49.21-19.91
					L696.95,96.57z"/>
			</g>
		</g>
		<g id="XMLID_897_">
			<g id="XMLID_898_">
				<g id="XMLID_899_">
					<g id="XMLID_902_">
						<path style="fill:#606060;" d="M630.73,186.39v-3.3c0-5.36-4.46-9.71-9.97-9.71H516.81c-5.51,0-9.97,4.35-9.97,9.71v175.15
							h247.77V196.1c0-5.36-4.46-9.71-9.97-9.71H630.73z"/>
					</g>
					<g id="XMLID_901_">
						<rect x="517.84" y="200.38" style="fill:#FFFFFF;" width="228.09" height="159.63"/>
					</g>
					<g id="XMLID_900_">
						<path style="fill:#C9AF6D;" d="M627.19,220.34l-3.68,9.94h-106.7c-5.51,0-9.97,4.35-9.97,9.71v123.67
							c0,5.36,4.46,9.71,9.97,9.71h227.83c5.51,0,9.97-4.35,9.97-9.71V223.64c0-5.36-4.46-9.71-9.97-9.71H636.57
							C632.37,213.92,628.62,216.49,627.19,220.34z"/>
					</g>
				</g>
			</g>
		</g>
		<g id="XMLID_894_">
			<g id="XMLID_896_">
				<polygon style="fill:#B97262;" points="745.7,226.21 740.84,227.68 736.74,225.67 735.88,226.25 736.63,227.3 732.76,226.53 
					729.98,227.9 729.53,231.83 731.85,235.39 736.09,235.54 740.46,233.32 747.23,231.58 				"/>
			</g>
			<g id="XMLID_895_">
				<polygon style="fill:#767676;" points="741.52,226.54 777.81,213.47 808.74,172.63 820.92,176.87 826.85,187.23 792.49,229.44 
					742.13,235.96 				"/>
			</g>
		</g>
		<g style="opacity:0.1;">
			<polygon style="fill:#2D2A27;" points="502.08,153.93 502.08,153.93 502.08,153.93 345.8,209.41 397.66,231.73 345.48,281.01 
				355.99,292.14 355.99,292.14 366.27,303.02 418.45,253.74 437.77,306.78 502.08,153.93 			"/>
		</g>
		<g id="XMLID_893_">
			<polygon style="fill:#B97262;" points="369.71,231.88 377.01,228.33 378.78,230.5 384.91,230.73 384.83,234.63 374.2,237.38 			
				"/>
		</g>
		<g id="XMLID_878_">
			<g id="XMLID_882_">
				<g id="XMLID_892_">
					<polygon style="fill:#2E353A;" points="273.23,310.29 283.19,354.51 292.34,407.12 301.59,407.12 305.38,279.11 274.78,279.66 
											"/>
				</g>
				<g id="XMLID_890_">
					<g id="XMLID_891_">
						<polygon style="fill:#2E353A;" points="331.82,307.59 333.1,350.51 320.18,407.12 311.87,407.12 311.02,347.42 301.93,298.56 
							299.67,282.96 325.15,279.96 						"/>
					</g>
				</g>
				<g id="XMLID_889_">
					<path style="fill:#C9AF6D;" d="M311.67,192.11l-28.88,2.13l-16.56,26.79c4.59,16.35,3.69,10.75,6.48,25.53l-8.26,40.69
						l10.78,3.14l39.16,0.7l12.88-2.25L323.73,250l1.83-51.85L311.67,192.11z"/>
				</g>
				<g id="XMLID_888_">
					<polygon style="fill:#9EA6AD;" points="317.36,213.26 331.88,235.69 345.87,237.72 377.75,239.06 374.84,229.61 341.14,220.97 
						325.56,198.15 					"/>
				</g>
				<g id="XMLID_883_">
					<g id="XMLID_887_">
						<path style="fill:#B97262;" d="M310.14,167.2c-4.38-12.74-21.2-7.96-24.66,3.38c-2.26,7.4,3.45,17,11.12,19.12
							c0.03,0.29,0.06,0.56,0.06,0.79c0.01,1.19,0.15,2.36,0.33,3.54c0.07,0.44,6.77-0.85,7.52-0.99c0.26-0.05,0.55-0.12,0.69-0.34
							c0.27-0.42-0.17-1.66-0.22-2.13c-0.06-0.55-0.12-1.11-0.17-1.66c3.78-1.85,6.17-5.78,6.83-9.78
							C312.31,175.11,311.45,171.03,310.14,167.2z"/>
					</g>
					<g id="XMLID_884_">
						<g id="XMLID_886_">
							<path style="fill:#2E353A;" d="M298.07,155.33c-0.83,0.98-1.09,2.28-1.25,3.52c-0.1,0.74-0.17,1.51,0.04,2.22
								c0.84,2.84,3.69,2.47,5.97,3.23c2.81,0.94,5.33,2.87,7.04,5.18c2.68,3.62,1.98,8.6,1.33,12.87c-0.23,1.5-0.75,3.76,0.5,4.99
								c1.27,1.25,3.95,0.84,5.29,0.04c1.23-0.73,2.19-1.97,3.57-2.31c1.46-0.36,3.52,0.14,4.1-1.27c0.16-0.39,0.15-0.86,0.36-1.22
								c0.73-1.23,2.87-0.02,3.96-0.93c0.67-0.56,0.58-1.64,0.28-2.48s-0.78-1.68-0.67-2.56c0.09-0.76,0.58-1.39,0.86-2.1
								c0.56-1.4,0.2-3.13-0.87-4.19c-1.99-1.97-5.49-1.3-7.6-3.14c-1.1-0.96-1.61-2.42-2.09-3.8c-0.49-1.38-1.06-2.84-2.22-3.71
								c-1.44-1.08-3.36-0.73-4.8-2.03c-0.84-0.76-1.44-1.8-2.37-2.45c-1.23-0.86-3.54-1.41-5.01-1.79
								C302.14,152.79,299.64,153.47,298.07,155.33z"/>
						</g>
						<g id="XMLID_885_">
							<path style="fill:#2E353A;" d="M289,176.4c0.24,4.19,2.66,8.55,1.01,12.37c-1.66,3.86-6.45,4.9-10.57,5.41
								c-0.68,0.08-9.33,1.5-9.38,1.34c-0.87-2.86-1.77-5.78-3.49-8.22c-1.72-2.44-4.42-4.37-7.35-4.33
								c0.83-0.21,1.18-1.27,1.01-2.13c-0.16-0.86-0.67-1.61-1-2.42c-0.79-2-0.35-4.44,1.08-6c2.86-3.11,8.54-2.34,10.93-5.84
								c1.48-2.17,1.06-5.12,1.73-7.69c1.29-4.96,6.5-6.37,10.29-8.85c4-2.62,7.83-4.18,12.71-3.74c6.05,0.54,10.94,6.28,9.08,12.17
								c-2.39,7.56-14.25,7.83-15.89,15.44C288.99,174.73,288.96,175.56,289,176.4z"/>
						</g>
					</g>
				</g>
			</g>
			<g id="XMLID_881_">
				<polygon style="fill:#2E353A;" points="292.34,193.56 300.85,205.59 304.86,205.27 310.29,192.2 				"/>
			</g>
			<g id="XMLID_880_">
				<polygon style="fill:#C9AF6D;" points="301.59,407.12 306.52,413.47 301.93,418.49 295.49,412.81 292.34,407.12 				"/>
			</g>
			<g id="XMLID_879_">
				<polygon style="fill:#C9AF6D;" points="320.83,407.12 325.76,413.47 321.17,418.49 314.73,412.81 311.57,407.12 				"/>
			</g>
		</g>
		<g>
			<g>
				<polygon style="fill:#C9AF6D;" points="432.51,294.03 496.83,141.17 340.55,196.66 392.41,218.97 340.23,268.25 361.02,290.26 
					413.19,240.98 				"/>
			</g>
			<g style="opacity:0.1;">
				<polygon style="fill:#2D2A27;" points="350.74,279.38 361.02,290.26 413.19,240.98 432.51,294.03 496.83,141.17 				"/>
			</g>
		</g>
		<g id="XMLID_875_">
			<g id="XMLID_877_">
				<polygon style="fill:#B97262;" points="350.16,263.98 358.23,264.87 358.57,267.66 363.64,271.12 361.49,274.37 351.03,271.03 
									"/>
			</g>
			<g id="XMLID_876_">
				<polygon style="fill:#9EA6AD;" points="266.23,221.03 295.43,251.76 308.65,256.76 351.66,272.17 350.84,262.32 307.63,239.38 
					282.78,194.13 271.37,200.4 				"/>
			</g>
		</g>
		<g id="XMLID_872_">
			<g id="XMLID_874_">
				<path style="fill:#B97262;" d="M800.73,175.07c2.38-0.15,8-1.45,8.01-1.23c-0.05-2.15-0.28-4.3-0.67-6.41
					c2.21-0.87,4.75-2.14,5.05-4.49c0.1-0.74-0.06-1.49-0.21-2.22c-0.64-3.02-1.27-6.04-1.91-9.06c-0.22-1.04-0.45-2.12-1.06-3
					c-1.06-1.54-3.03-2.16-4.89-2.42c-6.89-0.94-13.16,3.89-19.19,6.49c-0.5,0.22-1.02,0.45-1.38,0.86
					c-0.61,0.73-0.55,1.79-0.42,2.73c0.68,4.87,2.03,12,7.69,13.35c1.24,0.3,2.54,0.27,3.77,0.59c2.97,0.77,2.09,3.62,4.26,4.75
					C799.93,175.09,800.27,175.1,800.73,175.07z"/>
			</g>
			<g id="XMLID_873_">
				<path style="fill:#2E353A;" d="M772.46,145.6c-0.69-2.43-0.95-4.87-0.73-6.82c0.53-4.55,3.63-12.41,9.54-9.2
					c3.25,1.77,5.71,3.54,9.69,2.87c4.54-0.76,7.02-1.83,11.68-0.36c4.08,1.29,9.49,1.43,13.21,3.32c1.55,0.79,2.82,2.07,3.82,3.5
					c3.46,4.94,3.74,11.92,0.68,17.12c-0.69,1.17-1.52,2.24-2.4,3.27c-1.82,2.13-4,4.76-6.58,5.62c-0.15-2.33,1.71-9.78-0.16-11.63
					c-2.96-2.93-9.36-1.64-12.86-0.76c-3.82,0.96-7.16,3.81-10.96,4.54c-2.73,0.52-6.29-0.7-8.68-2.03
					C775.76,153.39,773.57,149.52,772.46,145.6z"/>
			</g>
		</g>
	</g>
</g>
</svg>
